<?xml version="1.0" encoding="utf-8" standalone="no"?>
<!DOCTYPE svg PUBLIC "-//W3C//DTD SVG 1.1//EN"
  "http://www.w3.org/Graphics/SVG/1.1/DTD/svg11.dtd">
<svg height="684.72pt" version="1.1" viewBox="0 0 1382.4 684.72" width="1382.4pt" xmlns="http://www.w3.org/2000/svg" xmlns:xlink="http://www.w3.org/1999/xlink">
 <metadata>
  <rdf:RDF xmlns:cc="http://creativecommons.org/ns#" xmlns:dc="http://purl.org/dc/elements/1.1/" xmlns:rdf="http://www.w3.org/1999/02/22-rdf-syntax-ns#">
   <cc:Work>
    <dc:type rdf:resource="http://purl.org/dc/dcmitype/StillImage"/>
    <dc:date>2022-02-25T12:29:15.715361</dc:date>
    <dc:format>image/svg+xml</dc:format>
    <dc:creator>
     <cc:Agent>
      <dc:title>Matplotlib v3.4.3, https://matplotlib.org/</dc:title>
     </cc:Agent>
    </dc:creator>
   </cc:Work>
  </rdf:RDF>
 </metadata>
 <defs>
  <style type="text/css">*{stroke-linecap:butt;stroke-linejoin:round;}</style>
 </defs>
 <g id="figure_1">
  <g id="patch_1">
   <path d="M 0 684.72 
L 1382.4 684.72 
L 1382.4 0 
L 0 0 
z
" style="fill:#ffffff;"/>
  </g>
  <g id="axes_1">
   <g id="patch_2">
    <path d="M 172.8 609.4008 
L 1244.16 609.4008 
L 1244.16 82.1664 
L 172.8 82.1664 
z
" style="fill:#ffffff;"/>
   </g>
   <g id="matplotlib.axis_1">
    <g id="xtick_1">
     <g id="line2d_1">
      <path clip-path="url(#pf5cd7f3807)" d="M 221.491462 609.4008 
L 221.491462 82.1664 
" style="fill:none;stroke:#b0b0b0;stroke-linecap:square;stroke-width:0.8;"/>
     </g>
     <g id="line2d_2">
      <defs>
       <path d="M 0 0 
L 0 3.5 
" id="m10e2891726" style="stroke:#000000;stroke-width:0.8;"/>
      </defs>
      <g>
       <use style="stroke:#000000;stroke-width:0.8;" x="221.491462" xlink:href="#m10e2891726" y="609.4008"/>
      </g>
     </g>
     <g id="text_1">
      <!-- 0 -->
      <g transform="translate(218.310212 623.999238)scale(0.1 -0.1)">
       <defs>
        <path d="M 2034 4250 
Q 1547 4250 1301 3770 
Q 1056 3291 1056 2328 
Q 1056 1369 1301 889 
Q 1547 409 2034 409 
Q 2525 409 2770 889 
Q 3016 1369 3016 2328 
Q 3016 3291 2770 3770 
Q 2525 4250 2034 4250 
z
M 2034 4750 
Q 2819 4750 3233 4129 
Q 3647 3509 3647 2328 
Q 3647 1150 3233 529 
Q 2819 -91 2034 -91 
Q 1250 -91 836 529 
Q 422 1150 422 2328 
Q 422 3509 836 4129 
Q 1250 4750 2034 4750 
z
" id="DejaVuSans-30" transform="scale(0.015625)"/>
       </defs>
       <use xlink:href="#DejaVuSans-30"/>
      </g>
     </g>
    </g>
    <g id="xtick_2">
     <g id="line2d_3">
      <path clip-path="url(#pf5cd7f3807)" d="M 343.238596 609.4008 
L 343.238596 82.1664 
" style="fill:none;stroke:#b0b0b0;stroke-linecap:square;stroke-width:0.8;"/>
     </g>
     <g id="line2d_4">
      <g>
       <use style="stroke:#000000;stroke-width:0.8;" x="343.238596" xlink:href="#m10e2891726" y="609.4008"/>
      </g>
     </g>
     <g id="text_2">
      <!-- 1 -->
      <g transform="translate(340.057346 623.999238)scale(0.1 -0.1)">
       <defs>
        <path d="M 794 531 
L 1825 531 
L 1825 4091 
L 703 3866 
L 703 4441 
L 1819 4666 
L 2450 4666 
L 2450 531 
L 3481 531 
L 3481 0 
L 794 0 
L 794 531 
z
" id="DejaVuSans-31" transform="scale(0.015625)"/>
       </defs>
       <use xlink:href="#DejaVuSans-31"/>
      </g>
     </g>
    </g>
    <g id="xtick_3">
     <g id="line2d_5">
      <path clip-path="url(#pf5cd7f3807)" d="M 464.985731 609.4008 
L 464.985731 82.1664 
" style="fill:none;stroke:#b0b0b0;stroke-linecap:square;stroke-width:0.8;"/>
     </g>
     <g id="line2d_6">
      <g>
       <use style="stroke:#000000;stroke-width:0.8;" x="464.985731" xlink:href="#m10e2891726" y="609.4008"/>
      </g>
     </g>
     <g id="text_3">
      <!-- 2 -->
      <g transform="translate(461.804481 623.999238)scale(0.1 -0.1)">
       <defs>
        <path d="M 1228 531 
L 3431 531 
L 3431 0 
L 469 0 
L 469 531 
Q 828 903 1448 1529 
Q 2069 2156 2228 2338 
Q 2531 2678 2651 2914 
Q 2772 3150 2772 3378 
Q 2772 3750 2511 3984 
Q 2250 4219 1831 4219 
Q 1534 4219 1204 4116 
Q 875 4013 500 3803 
L 500 4441 
Q 881 4594 1212 4672 
Q 1544 4750 1819 4750 
Q 2544 4750 2975 4387 
Q 3406 4025 3406 3419 
Q 3406 3131 3298 2873 
Q 3191 2616 2906 2266 
Q 2828 2175 2409 1742 
Q 1991 1309 1228 531 
z
" id="DejaVuSans-32" transform="scale(0.015625)"/>
       </defs>
       <use xlink:href="#DejaVuSans-32"/>
      </g>
     </g>
    </g>
    <g id="xtick_4">
     <g id="line2d_7">
      <path clip-path="url(#pf5cd7f3807)" d="M 586.732865 609.4008 
L 586.732865 82.1664 
" style="fill:none;stroke:#b0b0b0;stroke-linecap:square;stroke-width:0.8;"/>
     </g>
     <g id="line2d_8">
      <g>
       <use style="stroke:#000000;stroke-width:0.8;" x="586.732865" xlink:href="#m10e2891726" y="609.4008"/>
      </g>
     </g>
     <g id="text_4">
      <!-- 3 -->
      <g transform="translate(583.551615 623.999238)scale(0.1 -0.1)">
       <defs>
        <path d="M 2597 2516 
Q 3050 2419 3304 2112 
Q 3559 1806 3559 1356 
Q 3559 666 3084 287 
Q 2609 -91 1734 -91 
Q 1441 -91 1130 -33 
Q 819 25 488 141 
L 488 750 
Q 750 597 1062 519 
Q 1375 441 1716 441 
Q 2309 441 2620 675 
Q 2931 909 2931 1356 
Q 2931 1769 2642 2001 
Q 2353 2234 1838 2234 
L 1294 2234 
L 1294 2753 
L 1863 2753 
Q 2328 2753 2575 2939 
Q 2822 3125 2822 3475 
Q 2822 3834 2567 4026 
Q 2313 4219 1838 4219 
Q 1578 4219 1281 4162 
Q 984 4106 628 3988 
L 628 4550 
Q 988 4650 1302 4700 
Q 1616 4750 1894 4750 
Q 2613 4750 3031 4423 
Q 3450 4097 3450 3541 
Q 3450 3153 3228 2886 
Q 3006 2619 2597 2516 
z
" id="DejaVuSans-33" transform="scale(0.015625)"/>
       </defs>
       <use xlink:href="#DejaVuSans-33"/>
      </g>
     </g>
    </g>
    <g id="xtick_5">
     <g id="line2d_9">
      <path clip-path="url(#pf5cd7f3807)" d="M 708.48 609.4008 
L 708.48 82.1664 
" style="fill:none;stroke:#b0b0b0;stroke-linecap:square;stroke-width:0.8;"/>
     </g>
     <g id="line2d_10">
      <g>
       <use style="stroke:#000000;stroke-width:0.8;" x="708.48" xlink:href="#m10e2891726" y="609.4008"/>
      </g>
     </g>
     <g id="text_5">
      <!-- 4 -->
      <g transform="translate(705.29875 623.999238)scale(0.1 -0.1)">
       <defs>
        <path d="M 2419 4116 
L 825 1625 
L 2419 1625 
L 2419 4116 
z
M 2253 4666 
L 3047 4666 
L 3047 1625 
L 3713 1625 
L 3713 1100 
L 3047 1100 
L 3047 0 
L 2419 0 
L 2419 1100 
L 313 1100 
L 313 1709 
L 2253 4666 
z
" id="DejaVuSans-34" transform="scale(0.015625)"/>
       </defs>
       <use xlink:href="#DejaVuSans-34"/>
      </g>
     </g>
    </g>
    <g id="xtick_6">
     <g id="line2d_11">
      <path clip-path="url(#pf5cd7f3807)" d="M 830.227135 609.4008 
L 830.227135 82.1664 
" style="fill:none;stroke:#b0b0b0;stroke-linecap:square;stroke-width:0.8;"/>
     </g>
     <g id="line2d_12">
      <g>
       <use style="stroke:#000000;stroke-width:0.8;" x="830.227135" xlink:href="#m10e2891726" y="609.4008"/>
      </g>
     </g>
     <g id="text_6">
      <!-- 5 -->
      <g transform="translate(827.045885 623.999238)scale(0.1 -0.1)">
       <defs>
        <path d="M 691 4666 
L 3169 4666 
L 3169 4134 
L 1269 4134 
L 1269 2991 
Q 1406 3038 1543 3061 
Q 1681 3084 1819 3084 
Q 2600 3084 3056 2656 
Q 3513 2228 3513 1497 
Q 3513 744 3044 326 
Q 2575 -91 1722 -91 
Q 1428 -91 1123 -41 
Q 819 9 494 109 
L 494 744 
Q 775 591 1075 516 
Q 1375 441 1709 441 
Q 2250 441 2565 725 
Q 2881 1009 2881 1497 
Q 2881 1984 2565 2268 
Q 2250 2553 1709 2553 
Q 1456 2553 1204 2497 
Q 953 2441 691 2322 
L 691 4666 
z
" id="DejaVuSans-35" transform="scale(0.015625)"/>
       </defs>
       <use xlink:href="#DejaVuSans-35"/>
      </g>
     </g>
    </g>
    <g id="xtick_7">
     <g id="line2d_13">
      <path clip-path="url(#pf5cd7f3807)" d="M 951.974269 609.4008 
L 951.974269 82.1664 
" style="fill:none;stroke:#b0b0b0;stroke-linecap:square;stroke-width:0.8;"/>
     </g>
     <g id="line2d_14">
      <g>
       <use style="stroke:#000000;stroke-width:0.8;" x="951.974269" xlink:href="#m10e2891726" y="609.4008"/>
      </g>
     </g>
     <g id="text_7">
      <!-- 6 -->
      <g transform="translate(948.793019 623.999238)scale(0.1 -0.1)">
       <defs>
        <path d="M 2113 2584 
Q 1688 2584 1439 2293 
Q 1191 2003 1191 1497 
Q 1191 994 1439 701 
Q 1688 409 2113 409 
Q 2538 409 2786 701 
Q 3034 994 3034 1497 
Q 3034 2003 2786 2293 
Q 2538 2584 2113 2584 
z
M 3366 4563 
L 3366 3988 
Q 3128 4100 2886 4159 
Q 2644 4219 2406 4219 
Q 1781 4219 1451 3797 
Q 1122 3375 1075 2522 
Q 1259 2794 1537 2939 
Q 1816 3084 2150 3084 
Q 2853 3084 3261 2657 
Q 3669 2231 3669 1497 
Q 3669 778 3244 343 
Q 2819 -91 2113 -91 
Q 1303 -91 875 529 
Q 447 1150 447 2328 
Q 447 3434 972 4092 
Q 1497 4750 2381 4750 
Q 2619 4750 2861 4703 
Q 3103 4656 3366 4563 
z
" id="DejaVuSans-36" transform="scale(0.015625)"/>
       </defs>
       <use xlink:href="#DejaVuSans-36"/>
      </g>
     </g>
    </g>
    <g id="xtick_8">
     <g id="line2d_15">
      <path clip-path="url(#pf5cd7f3807)" d="M 1073.721404 609.4008 
L 1073.721404 82.1664 
" style="fill:none;stroke:#b0b0b0;stroke-linecap:square;stroke-width:0.8;"/>
     </g>
     <g id="line2d_16">
      <g>
       <use style="stroke:#000000;stroke-width:0.8;" x="1073.721404" xlink:href="#m10e2891726" y="609.4008"/>
      </g>
     </g>
     <g id="text_8">
      <!-- 7 -->
      <g transform="translate(1070.540154 623.999238)scale(0.1 -0.1)">
       <defs>
        <path d="M 525 4666 
L 3525 4666 
L 3525 4397 
L 1831 0 
L 1172 0 
L 2766 4134 
L 525 4134 
L 525 4666 
z
" id="DejaVuSans-37" transform="scale(0.015625)"/>
       </defs>
       <use xlink:href="#DejaVuSans-37"/>
      </g>
     </g>
    </g>
    <g id="xtick_9">
     <g id="line2d_17">
      <path clip-path="url(#pf5cd7f3807)" d="M 1195.468538 609.4008 
L 1195.468538 82.1664 
" style="fill:none;stroke:#b0b0b0;stroke-linecap:square;stroke-width:0.8;"/>
     </g>
     <g id="line2d_18">
      <g>
       <use style="stroke:#000000;stroke-width:0.8;" x="1195.468538" xlink:href="#m10e2891726" y="609.4008"/>
      </g>
     </g>
     <g id="text_9">
      <!-- 8 -->
      <g transform="translate(1192.287288 623.999238)scale(0.1 -0.1)">
       <defs>
        <path d="M 2034 2216 
Q 1584 2216 1326 1975 
Q 1069 1734 1069 1313 
Q 1069 891 1326 650 
Q 1584 409 2034 409 
Q 2484 409 2743 651 
Q 3003 894 3003 1313 
Q 3003 1734 2745 1975 
Q 2488 2216 2034 2216 
z
M 1403 2484 
Q 997 2584 770 2862 
Q 544 3141 544 3541 
Q 544 4100 942 4425 
Q 1341 4750 2034 4750 
Q 2731 4750 3128 4425 
Q 3525 4100 3525 3541 
Q 3525 3141 3298 2862 
Q 3072 2584 2669 2484 
Q 3125 2378 3379 2068 
Q 3634 1759 3634 1313 
Q 3634 634 3220 271 
Q 2806 -91 2034 -91 
Q 1263 -91 848 271 
Q 434 634 434 1313 
Q 434 1759 690 2068 
Q 947 2378 1403 2484 
z
M 1172 3481 
Q 1172 3119 1398 2916 
Q 1625 2713 2034 2713 
Q 2441 2713 2670 2916 
Q 2900 3119 2900 3481 
Q 2900 3844 2670 4047 
Q 2441 4250 2034 4250 
Q 1625 4250 1398 4047 
Q 1172 3844 1172 3481 
z
" id="DejaVuSans-38" transform="scale(0.015625)"/>
       </defs>
       <use xlink:href="#DejaVuSans-38"/>
      </g>
     </g>
    </g>
    <g id="text_10">
     <!-- $\Theta [^{\circ}]$ -->
     <g transform="translate(698.23 637.677363)scale(0.1 -0.1)">
      <defs>
       <path d="M 1416 2750 
L 3622 2750 
L 3622 2219 
L 1416 2219 
L 1416 2750 
z
M 2522 4238 
Q 1834 4238 1431 3725 
Q 1025 3213 1025 2328 
Q 1025 1447 1429 934 
Q 1834 422 2522 422 
Q 3209 422 3613 934 
Q 4013 1447 4013 2328 
Q 4013 3213 3613 3725 
Q 3209 4238 2522 4238 
z
M 2522 4750 
Q 3503 4750 4090 4092 
Q 4678 3434 4678 2328 
Q 4678 1225 4091 569 
Q 3503 -91 2522 -91 
Q 1538 -91 950 566 
Q 359 1222 359 2328 
Q 359 3434 950 4094 
Q 1538 4750 2522 4750 
z
" id="DejaVuSans-398" transform="scale(0.015625)"/>
       <path d="M 550 4863 
L 1875 4863 
L 1875 4416 
L 1125 4416 
L 1125 -397 
L 1875 -397 
L 1875 -844 
L 550 -844 
L 550 4863 
z
" id="DejaVuSans-5b" transform="scale(0.015625)"/>
       <path d="M 2003 2603 
Q 1753 2603 1581 2429 
Q 1409 2256 1409 2006 
Q 1409 1759 1581 1589 
Q 1753 1419 2003 1419 
Q 2253 1419 2425 1589 
Q 2597 1759 2597 2006 
Q 2597 2253 2423 2428 
Q 2250 2603 2003 2603 
z
M 2003 3006 
Q 2203 3006 2387 2929 
Q 2572 2853 2706 2709 
Q 2850 2569 2922 2390 
Q 2994 2212 2994 2006 
Q 2994 1594 2705 1308 
Q 2416 1022 1997 1022 
Q 1575 1022 1294 1303 
Q 1013 1584 1013 2006 
Q 1013 2425 1300 2715 
Q 1588 3006 2003 3006 
z
" id="DejaVuSans-2218" transform="scale(0.015625)"/>
       <path d="M 1947 4863 
L 1947 -844 
L 622 -844 
L 622 -397 
L 1369 -397 
L 1369 4416 
L 622 4416 
L 622 4863 
L 1947 4863 
z
" id="DejaVuSans-5d" transform="scale(0.015625)"/>
      </defs>
      <use transform="translate(0 0.015625)" xlink:href="#DejaVuSans-398"/>
      <use transform="translate(78.710938 0.015625)" xlink:href="#DejaVuSans-5b"/>
      <use transform="translate(118.681641 38.296875)scale(0.7)" xlink:href="#DejaVuSans-2218"/>
      <use transform="translate(165.234375 0.015625)" xlink:href="#DejaVuSans-5d"/>
     </g>
    </g>
   </g>
   <g id="matplotlib.axis_2">
    <g id="ytick_1">
     <g id="line2d_19">
      <path clip-path="url(#pf5cd7f3807)" d="M 172.8 565.977471 
L 1244.16 565.977471 
" style="fill:none;stroke:#b0b0b0;stroke-linecap:square;stroke-width:0.8;"/>
     </g>
     <g id="line2d_20">
      <defs>
       <path d="M 0 0 
L -3.5 0 
" id="m2ad24757d5" style="stroke:#000000;stroke-width:0.8;"/>
      </defs>
      <g>
       <use style="stroke:#000000;stroke-width:0.8;" x="172.8" xlink:href="#m2ad24757d5" y="565.977471"/>
      </g>
     </g>
     <g id="text_11">
      <!-- −0.4 -->
      <g transform="translate(141.517187 569.77669)scale(0.1 -0.1)">
       <defs>
        <path d="M 678 2272 
L 4684 2272 
L 4684 1741 
L 678 1741 
L 678 2272 
z
" id="DejaVuSans-2212" transform="scale(0.015625)"/>
        <path d="M 684 794 
L 1344 794 
L 1344 0 
L 684 0 
L 684 794 
z
" id="DejaVuSans-2e" transform="scale(0.015625)"/>
       </defs>
       <use xlink:href="#DejaVuSans-2212"/>
       <use x="83.789062" xlink:href="#DejaVuSans-30"/>
       <use x="147.412109" xlink:href="#DejaVuSans-2e"/>
       <use x="179.199219" xlink:href="#DejaVuSans-34"/>
      </g>
     </g>
    </g>
    <g id="ytick_2">
     <g id="line2d_21">
      <path clip-path="url(#pf5cd7f3807)" d="M 172.8 495.884712 
L 1244.16 495.884712 
" style="fill:none;stroke:#b0b0b0;stroke-linecap:square;stroke-width:0.8;"/>
     </g>
     <g id="line2d_22">
      <g>
       <use style="stroke:#000000;stroke-width:0.8;" x="172.8" xlink:href="#m2ad24757d5" y="495.884712"/>
      </g>
     </g>
     <g id="text_12">
      <!-- −0.2 -->
      <g transform="translate(141.517187 499.683931)scale(0.1 -0.1)">
       <use xlink:href="#DejaVuSans-2212"/>
       <use x="83.789062" xlink:href="#DejaVuSans-30"/>
       <use x="147.412109" xlink:href="#DejaVuSans-2e"/>
       <use x="179.199219" xlink:href="#DejaVuSans-32"/>
      </g>
     </g>
    </g>
    <g id="ytick_3">
     <g id="line2d_23">
      <path clip-path="url(#pf5cd7f3807)" d="M 172.8 425.791953 
L 1244.16 425.791953 
" style="fill:none;stroke:#b0b0b0;stroke-linecap:square;stroke-width:0.8;"/>
     </g>
     <g id="line2d_24">
      <g>
       <use style="stroke:#000000;stroke-width:0.8;" x="172.8" xlink:href="#m2ad24757d5" y="425.791953"/>
      </g>
     </g>
     <g id="text_13">
      <!-- 0.0 -->
      <g transform="translate(149.896875 429.591172)scale(0.1 -0.1)">
       <use xlink:href="#DejaVuSans-30"/>
       <use x="63.623047" xlink:href="#DejaVuSans-2e"/>
       <use x="95.410156" xlink:href="#DejaVuSans-30"/>
      </g>
     </g>
    </g>
    <g id="ytick_4">
     <g id="line2d_25">
      <path clip-path="url(#pf5cd7f3807)" d="M 172.8 355.699194 
L 1244.16 355.699194 
" style="fill:none;stroke:#b0b0b0;stroke-linecap:square;stroke-width:0.8;"/>
     </g>
     <g id="line2d_26">
      <g>
       <use style="stroke:#000000;stroke-width:0.8;" x="172.8" xlink:href="#m2ad24757d5" y="355.699194"/>
      </g>
     </g>
     <g id="text_14">
      <!-- 0.2 -->
      <g transform="translate(149.896875 359.498412)scale(0.1 -0.1)">
       <use xlink:href="#DejaVuSans-30"/>
       <use x="63.623047" xlink:href="#DejaVuSans-2e"/>
       <use x="95.410156" xlink:href="#DejaVuSans-32"/>
      </g>
     </g>
    </g>
    <g id="ytick_5">
     <g id="line2d_27">
      <path clip-path="url(#pf5cd7f3807)" d="M 172.8 285.606434 
L 1244.16 285.606434 
" style="fill:none;stroke:#b0b0b0;stroke-linecap:square;stroke-width:0.8;"/>
     </g>
     <g id="line2d_28">
      <g>
       <use style="stroke:#000000;stroke-width:0.8;" x="172.8" xlink:href="#m2ad24757d5" y="285.606434"/>
      </g>
     </g>
     <g id="text_15">
      <!-- 0.4 -->
      <g transform="translate(149.896875 289.405653)scale(0.1 -0.1)">
       <use xlink:href="#DejaVuSans-30"/>
       <use x="63.623047" xlink:href="#DejaVuSans-2e"/>
       <use x="95.410156" xlink:href="#DejaVuSans-34"/>
      </g>
     </g>
    </g>
    <g id="ytick_6">
     <g id="line2d_29">
      <path clip-path="url(#pf5cd7f3807)" d="M 172.8 215.513675 
L 1244.16 215.513675 
" style="fill:none;stroke:#b0b0b0;stroke-linecap:square;stroke-width:0.8;"/>
     </g>
     <g id="line2d_30">
      <g>
       <use style="stroke:#000000;stroke-width:0.8;" x="172.8" xlink:href="#m2ad24757d5" y="215.513675"/>
      </g>
     </g>
     <g id="text_16">
      <!-- 0.6 -->
      <g transform="translate(149.896875 219.312894)scale(0.1 -0.1)">
       <use xlink:href="#DejaVuSans-30"/>
       <use x="63.623047" xlink:href="#DejaVuSans-2e"/>
       <use x="95.410156" xlink:href="#DejaVuSans-36"/>
      </g>
     </g>
    </g>
    <g id="ytick_7">
     <g id="line2d_31">
      <path clip-path="url(#pf5cd7f3807)" d="M 172.8 145.420916 
L 1244.16 145.420916 
" style="fill:none;stroke:#b0b0b0;stroke-linecap:square;stroke-width:0.8;"/>
     </g>
     <g id="line2d_32">
      <g>
       <use style="stroke:#000000;stroke-width:0.8;" x="172.8" xlink:href="#m2ad24757d5" y="145.420916"/>
      </g>
     </g>
     <g id="text_17">
      <!-- 0.8 -->
      <g transform="translate(149.896875 149.220135)scale(0.1 -0.1)">
       <use xlink:href="#DejaVuSans-30"/>
       <use x="63.623047" xlink:href="#DejaVuSans-2e"/>
       <use x="95.410156" xlink:href="#DejaVuSans-38"/>
      </g>
     </g>
    </g>
    <g id="text_18">
     <!-- $C_l$ -->
     <g transform="translate(135.4375 350.4336)rotate(-90)scale(0.1 -0.1)">
      <defs>
       <path d="M 4447 4306 
L 4319 3641 
Q 4019 3944 3683 4091 
Q 3347 4238 2956 4238 
Q 2422 4238 2017 3981 
Q 1613 3725 1319 3200 
Q 1131 2863 1032 2486 
Q 934 2109 934 1728 
Q 934 1091 1264 756 
Q 1594 422 2222 422 
Q 2656 422 3056 561 
Q 3456 700 3834 978 
L 3688 231 
Q 3316 72 2936 -9 
Q 2556 -91 2175 -91 
Q 1278 -91 773 396 
Q 269 884 269 1753 
Q 269 2309 461 2846 
Q 653 3384 1013 3828 
Q 1394 4300 1883 4525 
Q 2372 4750 3022 4750 
Q 3422 4750 3780 4639 
Q 4138 4528 4447 4306 
z
" id="DejaVuSans-Oblique-43" transform="scale(0.015625)"/>
       <path d="M 1172 4863 
L 1747 4863 
L 800 0 
L 225 0 
L 1172 4863 
z
" id="DejaVuSans-Oblique-6c" transform="scale(0.015625)"/>
      </defs>
      <use transform="translate(0 0.78125)" xlink:href="#DejaVuSans-Oblique-43"/>
      <use transform="translate(69.824219 -15.625)scale(0.7)" xlink:href="#DejaVuSans-Oblique-6c"/>
     </g>
    </g>
   </g>
   <g id="line2d_33">
    <path clip-path="url(#pf5cd7f3807)" d="M 708.48 106.321583 
L 995.551962 157.983992 
L 1172.262 281.84557 
L 1170.675721 430.288983 
L 991.402953 546.246655 
L 703.363306 585.139827 
L 417.290721 532.016412 
L 243.16292 407.29917 
L 247.921583 258.93439 
L 429.737289 143.959416 
L 718.712823 106.575219 
L 1003.754451 161.153776 
L 1175.280791 286.712911 
L 1167.350269 434.98268 
L 983.011696 548.962264 
L 693.132178 584.833359 
L 409.152975 528.805686 
L 240.247032 402.418517 
L 251.348536 254.260128 
L 438.189626 141.288518 
L 728.941127 106.934484 
L 1011.826554 164.405089 
L 1178.093455 291.606338 
L 1163.822193 439.636992 
L 974.499213 551.588157 
L 682.907827 584.421336 
L 401.147404 525.514144 
L 237.537902 397.512857 
L 254.977345 249.626281 
L 446.761315 138.70792 
L 739.160396 107.39922 
L 1019.764709 167.736496 
L 1180.698751 296.523689 
L 1160.093051 444.249861 
L 965.869264 554.123174 
L 672.694767 583.903938 
L 393.277543 522.14324 
L 235.036727 392.584357 
L 258.806409 245.034897 
L 455.448572 136.218763 
L 749.366118 107.969222 
L 1027.565409 171.146525 
L 1183.095528 301.462794 
L 1156.16449 448.819253 
L 957.125659 556.566196 
L 662.49751 583.281395 
L 385.546866 518.694462 
L 232.744612 387.635193 
L 262.834035 240.488002 
L 464.24756 133.822146 
L 759.553786 108.644238 
L 1035.225209 174.633671 
L 1185.282729 306.421472 
L 1152.038243 453.343149 
L 948.272259 558.916144 
L 652.320557 582.553981 
L 377.958787 515.169334 
L 230.662568 382.66755 
L 267.058446 235.987605 
L 473.154394 131.519127 
L 769.7189 109.423969 
L 1042.740728 178.196393 
L 1187.259387 311.397532 
L 1147.716133 457.819551 
L 939.312974 561.17198 
L 642.168403 581.722018 
L 370.516657 511.569411 
L 228.791514 377.683621 
L 271.477777 231.535692 
L 482.165142 129.310722 
L 779.856974 110.308072 
L 1050.108648 181.833119 
L 1189.024629 316.388778 
L 1143.20007 462.246484 
L 930.251759 563.332709 
L 632.045529 580.785873 
L 363.223762 507.896284 
L 227.132277 372.685608 
L 276.090075 227.134229 
L 491.275823 127.197908 
L 789.963529 111.296156 
L 1057.325713 185.542242 
L 1190.577677 321.393006 
L 1138.492046 466.621991 
L 921.092616 565.397376 
L 621.956408 579.745959 
L 356.083323 504.151574 
L 225.68559 367.675718 
L 280.893305 222.785161 
L 500.482417 125.181617 
L 800.034104 112.387785 
L 1064.388738 189.322125 
L 1191.917844 326.408006 
L 1133.594141 470.944141 
L 911.839589 567.365069 
L 611.905492 578.602736 
L 349.098492 500.336934 
L 224.452092 362.656163 
L 285.885345 218.490406 
L 509.780855 123.262739 
L 810.06425 113.582476 
L 1071.294604 193.171099 
L 1193.044538 331.431563 
L 1128.508517 475.211025 
L 902.496764 569.23492 
L 601.897221 577.356708 
L 342.272354 496.454051 
L 223.432326 357.629158 
L 291.063991 214.251863 
L 519.167034 121.442121 
L 820.049541 114.879703 
L 1078.040261 197.087464 
L 1193.957262 336.461459 
L 1123.237421 479.42076 
L 893.068268 571.006103 
L 591.936014 576.008426 
L 335.607922 492.504637 
L 222.626744 352.596925 
L 296.426955 210.071402 
L 528.636808 119.720569 
L 829.985565 116.278892 
L 1084.622731 201.069491 
L 1194.655613 341.495474 
L 1117.783179 483.571485 
L 883.558262 572.677835 
L 582.02627 574.558484 
L 329.108141 488.490436 
L 222.035701 347.561685 
L 301.971871 205.95087 
L 538.185996 118.098841 
L 839.867935 117.779426 
L 1091.039106 205.115421 
L 1195.139283 346.531383 
L 1112.148201 487.66137 
L 873.970946 574.249379 
L 572.172364 573.007524 
L 322.77588 484.413223 
L 221.659458 342.525662 
L 307.69629 201.892085 
L 547.810381 116.577654 
L 849.692289 119.380642 
L 1097.286554 209.223469 
L 1195.408057 351.566965 
L 1106.334974 491.688607 
L 864.310554 575.720041 
L 562.378648 571.35623 
L 316.613934 480.274796 
L 221.498182 337.491079 
L 313.597683 197.89684 
L 557.505713 115.157679 
L 859.454287 121.081832 
L 1103.362317 213.391818 
L 1195.461818 356.599994 
L 1100.346066 495.651418 
L 854.581352 577.089171 
L 552.649446 569.605331 
L 310.625026 476.076983 
L 221.551943 332.460159 
L 319.673446 193.9669 
L 567.267711 113.839544 
L 869.149619 122.882246 
L 1109.26371 217.618631 
L 1195.300542 361.628248 
L 1094.18412 499.548053 
L 844.787636 578.356165 
L 542.989054 567.7556 
L 304.811799 471.821638 
L 221.820717 327.435125 
L 325.920894 190.104 
L 577.092065 112.623831 
L 878.774004 124.781089 
L 1114.988129 221.902038 
L 1194.924299 366.649508 
L 1087.851859 503.376792 
L 834.93373 579.520463 
L 533.401738 565.807855 
L 299.176821 467.51064 
L 222.304387 322.418194 
L 332.337269 186.309845 
L 586.974435 111.511077 
L 888.323192 126.777522 
L 1120.533045 226.240151 
L 1194.333256 371.661556 
L 1081.352078 507.135944 
L 825.023986 580.581552 
L 523.891732 563.762954 
L 293.722579 463.145893 
L 223.002738 317.411582 
L 338.919739 182.586111 
L 596.910459 110.501772 
L 897.792966 128.870664 
L 1125.896009 230.631052 
L 1193.527674 376.662178 
L 1074.687646 510.823849 
L 815.062779 581.538961 
L 514.463236 561.621802 
L 288.451483 458.729323 
L 223.915462 312.417501 
L 345.665396 178.934442 
L 606.89575 109.596363 
L 907.179145 131.05959 
L 1131.074655 235.072802 
L 1192.507908 381.649168 
L 1067.861508 514.438879 
L 805.054508 582.39227 
L 505.120411 559.385344 
L 283.365859 454.262881 
L 225.042156 307.438155 
L 352.571262 175.35645 
L 616.925896 108.795249 
L 916.477583 133.343334 
L 1136.066695 239.563442 
L 1191.27441 386.620321 
L 1060.876677 517.979437 
L 795.003592 583.1411 
L 495.867384 557.054566 
L 278.467954 449.74854 
L 226.382323 302.475742 
L 359.634287 171.853717 
L 626.996471 108.098785 
L 925.684177 135.720888 
L 1140.869925 244.100987 
L 1189.827723 391.573444 
L 1053.736238 521.44396 
L 784.914471 583.785122 
L 486.708241 554.6305 
L 273.75993 445.188293 
L 227.935371 297.532455 
L 366.851352 168.427787 
L 637.103026 107.507277 
L 934.794858 138.1912 
L 1145.482223 248.683433 
L 1188.168486 396.506349 
L 1046.443343 524.830918 
L 774.791597 584.324051 
L 477.647026 552.114214 
L 269.243867 440.584153 
L 229.700613 292.610477 
L 374.219272 165.080175 
L 647.2411 107.020986 
L 943.805606 140.753182 
L 1149.901554 253.308758 
L 1186.297432 401.416859 
L 1039.001213 528.138815 
L 764.639443 584.757649 
L 468.687741 549.506819 
L 264.921757 435.938153 
L 231.677271 287.711979 
L 381.734791 161.812357 
L 657.406214 106.640129 
L 952.71244 143.405701 
L 1154.125965 257.97492 
L 1184.215388 406.302803 
L 1031.413134 531.366192 
L 754.46249 585.085724 
L 459.834341 546.809469 
L 260.79551 431.252345 
L 233.864472 282.839126 
L 389.394591 158.625778 
L 667.593882 106.364872 
L 961.511428 146.147586 
L 1158.153591 262.679856 
L 1181.923273 411.162026 
L 1023.682457 534.511621 
L 744.265233 585.308132 
L 451.090736 544.023352 
L 256.866949 426.528799 
L 236.261249 277.99407 
L 397.195291 155.521845 
L 677.799604 106.195337 
L 970.198685 148.977626 
L 1161.982655 267.421491 
L 1179.422098 415.992382 
L 1015.812596 537.573716 
L 734.052173 585.424775 
L 442.460787 541.1497 
L 253.137807 421.769599 
L 238.866545 273.178949 
L 405.133446 152.501927 
L 688.018873 106.1316 
L 978.770374 151.894572 
L 1165.611464 272.19773 
L 1176.712968 420.791737 
L 1007.807025 540.551123 
L 723.827822 585.4356 
L 433.948304 538.189782 
L 249.609731 416.976848 
L 241.679209 268.395889 
L 413.205549 149.567359 
L 698.247177 106.173688 
L 987.222711 154.897136 
L 1169.038417 277.006464 
L 1173.79708 425.557972 
L 999.669279 543.442528 
L 713.596694 585.340603 
L 425.557047 535.144904 
L 246.284279 412.152662 
L 244.698 263.647004 
L 421.408038 146.719436 
L 708.48 106.321583 
L 708.48 106.321583 
" style="fill:none;stroke:#1f77b4;stroke-linecap:square;stroke-width:1.5;"/>
   </g>
   <g id="patch_3">
    <path d="M 172.8 609.4008 
L 172.8 82.1664 
" style="fill:none;stroke:#000000;stroke-linecap:square;stroke-linejoin:miter;stroke-width:0.8;"/>
   </g>
   <g id="patch_4">
    <path d="M 1244.16 609.4008 
L 1244.16 82.1664 
" style="fill:none;stroke:#000000;stroke-linecap:square;stroke-linejoin:miter;stroke-width:0.8;"/>
   </g>
   <g id="patch_5">
    <path d="M 172.8 609.4008 
L 1244.16 609.4008 
" style="fill:none;stroke:#000000;stroke-linecap:square;stroke-linejoin:miter;stroke-width:0.8;"/>
   </g>
   <g id="patch_6">
    <path d="M 172.8 82.1664 
L 1244.16 82.1664 
" style="fill:none;stroke:#000000;stroke-linecap:square;stroke-linejoin:miter;stroke-width:0.8;"/>
   </g>
   <g id="text_19">
    <!-- Theodorsen: Re=1.e+04, a=0.25, $f_{\Theta}=$1$Hz, $$\Theta_{mean}=$4$^{\circ}, $$\Theta_{amp}=$4$^{\circ}$ -->
    <g transform="translate(515.04 76.1664)scale(0.12 -0.12)">
     <defs>
      <path d="M -19 4666 
L 3928 4666 
L 3928 4134 
L 2272 4134 
L 2272 0 
L 1638 0 
L 1638 4134 
L -19 4134 
L -19 4666 
z
" id="DejaVuSans-54" transform="scale(0.015625)"/>
      <path d="M 3513 2113 
L 3513 0 
L 2938 0 
L 2938 2094 
Q 2938 2591 2744 2837 
Q 2550 3084 2163 3084 
Q 1697 3084 1428 2787 
Q 1159 2491 1159 1978 
L 1159 0 
L 581 0 
L 581 4863 
L 1159 4863 
L 1159 2956 
Q 1366 3272 1645 3428 
Q 1925 3584 2291 3584 
Q 2894 3584 3203 3211 
Q 3513 2838 3513 2113 
z
" id="DejaVuSans-68" transform="scale(0.015625)"/>
      <path d="M 3597 1894 
L 3597 1613 
L 953 1613 
Q 991 1019 1311 708 
Q 1631 397 2203 397 
Q 2534 397 2845 478 
Q 3156 559 3463 722 
L 3463 178 
Q 3153 47 2828 -22 
Q 2503 -91 2169 -91 
Q 1331 -91 842 396 
Q 353 884 353 1716 
Q 353 2575 817 3079 
Q 1281 3584 2069 3584 
Q 2775 3584 3186 3129 
Q 3597 2675 3597 1894 
z
M 3022 2063 
Q 3016 2534 2758 2815 
Q 2500 3097 2075 3097 
Q 1594 3097 1305 2825 
Q 1016 2553 972 2059 
L 3022 2063 
z
" id="DejaVuSans-65" transform="scale(0.015625)"/>
      <path d="M 1959 3097 
Q 1497 3097 1228 2736 
Q 959 2375 959 1747 
Q 959 1119 1226 758 
Q 1494 397 1959 397 
Q 2419 397 2687 759 
Q 2956 1122 2956 1747 
Q 2956 2369 2687 2733 
Q 2419 3097 1959 3097 
z
M 1959 3584 
Q 2709 3584 3137 3096 
Q 3566 2609 3566 1747 
Q 3566 888 3137 398 
Q 2709 -91 1959 -91 
Q 1206 -91 779 398 
Q 353 888 353 1747 
Q 353 2609 779 3096 
Q 1206 3584 1959 3584 
z
" id="DejaVuSans-6f" transform="scale(0.015625)"/>
      <path d="M 2906 2969 
L 2906 4863 
L 3481 4863 
L 3481 0 
L 2906 0 
L 2906 525 
Q 2725 213 2448 61 
Q 2172 -91 1784 -91 
Q 1150 -91 751 415 
Q 353 922 353 1747 
Q 353 2572 751 3078 
Q 1150 3584 1784 3584 
Q 2172 3584 2448 3432 
Q 2725 3281 2906 2969 
z
M 947 1747 
Q 947 1113 1208 752 
Q 1469 391 1925 391 
Q 2381 391 2643 752 
Q 2906 1113 2906 1747 
Q 2906 2381 2643 2742 
Q 2381 3103 1925 3103 
Q 1469 3103 1208 2742 
Q 947 2381 947 1747 
z
" id="DejaVuSans-64" transform="scale(0.015625)"/>
      <path d="M 2631 2963 
Q 2534 3019 2420 3045 
Q 2306 3072 2169 3072 
Q 1681 3072 1420 2755 
Q 1159 2438 1159 1844 
L 1159 0 
L 581 0 
L 581 3500 
L 1159 3500 
L 1159 2956 
Q 1341 3275 1631 3429 
Q 1922 3584 2338 3584 
Q 2397 3584 2469 3576 
Q 2541 3569 2628 3553 
L 2631 2963 
z
" id="DejaVuSans-72" transform="scale(0.015625)"/>
      <path d="M 2834 3397 
L 2834 2853 
Q 2591 2978 2328 3040 
Q 2066 3103 1784 3103 
Q 1356 3103 1142 2972 
Q 928 2841 928 2578 
Q 928 2378 1081 2264 
Q 1234 2150 1697 2047 
L 1894 2003 
Q 2506 1872 2764 1633 
Q 3022 1394 3022 966 
Q 3022 478 2636 193 
Q 2250 -91 1575 -91 
Q 1294 -91 989 -36 
Q 684 19 347 128 
L 347 722 
Q 666 556 975 473 
Q 1284 391 1588 391 
Q 1994 391 2212 530 
Q 2431 669 2431 922 
Q 2431 1156 2273 1281 
Q 2116 1406 1581 1522 
L 1381 1569 
Q 847 1681 609 1914 
Q 372 2147 372 2553 
Q 372 3047 722 3315 
Q 1072 3584 1716 3584 
Q 2034 3584 2315 3537 
Q 2597 3491 2834 3397 
z
" id="DejaVuSans-73" transform="scale(0.015625)"/>
      <path d="M 3513 2113 
L 3513 0 
L 2938 0 
L 2938 2094 
Q 2938 2591 2744 2837 
Q 2550 3084 2163 3084 
Q 1697 3084 1428 2787 
Q 1159 2491 1159 1978 
L 1159 0 
L 581 0 
L 581 3500 
L 1159 3500 
L 1159 2956 
Q 1366 3272 1645 3428 
Q 1925 3584 2291 3584 
Q 2894 3584 3203 3211 
Q 3513 2838 3513 2113 
z
" id="DejaVuSans-6e" transform="scale(0.015625)"/>
      <path d="M 750 794 
L 1409 794 
L 1409 0 
L 750 0 
L 750 794 
z
M 750 3309 
L 1409 3309 
L 1409 2516 
L 750 2516 
L 750 3309 
z
" id="DejaVuSans-3a" transform="scale(0.015625)"/>
      <path id="DejaVuSans-20" transform="scale(0.015625)"/>
      <path d="M 2841 2188 
Q 3044 2119 3236 1894 
Q 3428 1669 3622 1275 
L 4263 0 
L 3584 0 
L 2988 1197 
Q 2756 1666 2539 1819 
Q 2322 1972 1947 1972 
L 1259 1972 
L 1259 0 
L 628 0 
L 628 4666 
L 2053 4666 
Q 2853 4666 3247 4331 
Q 3641 3997 3641 3322 
Q 3641 2881 3436 2590 
Q 3231 2300 2841 2188 
z
M 1259 4147 
L 1259 2491 
L 2053 2491 
Q 2509 2491 2742 2702 
Q 2975 2913 2975 3322 
Q 2975 3731 2742 3939 
Q 2509 4147 2053 4147 
L 1259 4147 
z
" id="DejaVuSans-52" transform="scale(0.015625)"/>
      <path d="M 678 2906 
L 4684 2906 
L 4684 2381 
L 678 2381 
L 678 2906 
z
M 678 1631 
L 4684 1631 
L 4684 1100 
L 678 1100 
L 678 1631 
z
" id="DejaVuSans-3d" transform="scale(0.015625)"/>
      <path d="M 2944 4013 
L 2944 2272 
L 4684 2272 
L 4684 1741 
L 2944 1741 
L 2944 0 
L 2419 0 
L 2419 1741 
L 678 1741 
L 678 2272 
L 2419 2272 
L 2419 4013 
L 2944 4013 
z
" id="DejaVuSans-2b" transform="scale(0.015625)"/>
      <path d="M 750 794 
L 1409 794 
L 1409 256 
L 897 -744 
L 494 -744 
L 750 256 
L 750 794 
z
" id="DejaVuSans-2c" transform="scale(0.015625)"/>
      <path d="M 2194 1759 
Q 1497 1759 1228 1600 
Q 959 1441 959 1056 
Q 959 750 1161 570 
Q 1363 391 1709 391 
Q 2188 391 2477 730 
Q 2766 1069 2766 1631 
L 2766 1759 
L 2194 1759 
z
M 3341 1997 
L 3341 0 
L 2766 0 
L 2766 531 
Q 2569 213 2275 61 
Q 1981 -91 1556 -91 
Q 1019 -91 701 211 
Q 384 513 384 1019 
Q 384 1609 779 1909 
Q 1175 2209 1959 2209 
L 2766 2209 
L 2766 2266 
Q 2766 2663 2505 2880 
Q 2244 3097 1772 3097 
Q 1472 3097 1187 3025 
Q 903 2953 641 2809 
L 641 3341 
Q 956 3463 1253 3523 
Q 1550 3584 1831 3584 
Q 2591 3584 2966 3190 
Q 3341 2797 3341 1997 
z
" id="DejaVuSans-61" transform="scale(0.015625)"/>
      <path d="M 3059 4863 
L 2969 4384 
L 2419 4384 
Q 2106 4384 1964 4261 
Q 1822 4138 1753 3809 
L 1691 3500 
L 2638 3500 
L 2553 3053 
L 1606 3053 
L 1013 0 
L 434 0 
L 1031 3053 
L 481 3053 
L 563 3500 
L 1113 3500 
L 1159 3744 
Q 1278 4363 1576 4613 
Q 1875 4863 2516 4863 
L 3059 4863 
z
" id="DejaVuSans-Oblique-66" transform="scale(0.015625)"/>
      <path d="M 1081 4666 
L 1716 4666 
L 1344 2753 
L 3634 2753 
L 4006 4666 
L 4641 4666 
L 3731 0 
L 3097 0 
L 3531 2222 
L 1241 2222 
L 806 0 
L 172 0 
L 1081 4666 
z
" id="DejaVuSans-Oblique-48" transform="scale(0.015625)"/>
      <path d="M 744 3500 
L 3475 3500 
L 3372 2975 
L 738 459 
L 2913 459 
L 2822 0 
L -19 0 
L 84 525 
L 2719 3041 
L 653 3041 
L 744 3500 
z
" id="DejaVuSans-Oblique-7a" transform="scale(0.015625)"/>
      <path d="M 5747 2113 
L 5338 0 
L 4763 0 
L 5166 2094 
Q 5191 2228 5203 2325 
Q 5216 2422 5216 2491 
Q 5216 2772 5059 2928 
Q 4903 3084 4622 3084 
Q 4203 3084 3875 2770 
Q 3547 2456 3450 1953 
L 3066 0 
L 2491 0 
L 2900 2094 
Q 2925 2209 2937 2307 
Q 2950 2406 2950 2484 
Q 2950 2769 2794 2926 
Q 2638 3084 2363 3084 
Q 1938 3084 1609 2770 
Q 1281 2456 1184 1953 
L 800 0 
L 225 0 
L 909 3500 
L 1484 3500 
L 1375 2956 
Q 1609 3263 1923 3423 
Q 2238 3584 2597 3584 
Q 2978 3584 3223 3384 
Q 3469 3184 3519 2828 
Q 3781 3197 4126 3390 
Q 4472 3584 4856 3584 
Q 5306 3584 5551 3325 
Q 5797 3066 5797 2591 
Q 5797 2488 5784 2364 
Q 5772 2241 5747 2113 
z
" id="DejaVuSans-Oblique-6d" transform="scale(0.015625)"/>
      <path d="M 3078 2063 
Q 3088 2113 3092 2166 
Q 3097 2219 3097 2272 
Q 3097 2653 2873 2875 
Q 2650 3097 2266 3097 
Q 1838 3097 1509 2826 
Q 1181 2556 1013 2059 
L 3078 2063 
z
M 3578 1613 
L 903 1613 
Q 884 1494 878 1425 
Q 872 1356 872 1306 
Q 872 872 1139 634 
Q 1406 397 1894 397 
Q 2269 397 2603 481 
Q 2938 566 3225 728 
L 3116 159 
Q 2806 34 2476 -28 
Q 2147 -91 1806 -91 
Q 1078 -91 686 257 
Q 294 606 294 1247 
Q 294 1794 489 2264 
Q 684 2734 1063 3103 
Q 1306 3334 1642 3459 
Q 1978 3584 2356 3584 
Q 2950 3584 3301 3228 
Q 3653 2872 3653 2272 
Q 3653 2128 3634 1964 
Q 3616 1800 3578 1613 
z
" id="DejaVuSans-Oblique-65" transform="scale(0.015625)"/>
      <path d="M 3438 1997 
L 3047 0 
L 2472 0 
L 2578 531 
Q 2325 219 2001 64 
Q 1678 -91 1281 -91 
Q 834 -91 548 182 
Q 263 456 263 884 
Q 263 1497 752 1853 
Q 1241 2209 2100 2209 
L 2900 2209 
L 2931 2363 
Q 2938 2388 2941 2417 
Q 2944 2447 2944 2509 
Q 2944 2788 2717 2942 
Q 2491 3097 2081 3097 
Q 1800 3097 1504 3025 
Q 1209 2953 897 2809 
L 997 3341 
Q 1322 3463 1633 3523 
Q 1944 3584 2234 3584 
Q 2853 3584 3176 3315 
Q 3500 3047 3500 2534 
Q 3500 2431 3484 2292 
Q 3469 2153 3438 1997 
z
M 2816 1759 
L 2241 1759 
Q 1534 1759 1195 1570 
Q 856 1381 856 984 
Q 856 709 1029 553 
Q 1203 397 1509 397 
Q 1978 397 2328 733 
Q 2678 1069 2791 1631 
L 2816 1759 
z
" id="DejaVuSans-Oblique-61" transform="scale(0.015625)"/>
      <path d="M 3566 2113 
L 3156 0 
L 2578 0 
L 2988 2091 
Q 3016 2238 3031 2350 
Q 3047 2463 3047 2528 
Q 3047 2791 2881 2937 
Q 2716 3084 2419 3084 
Q 1956 3084 1622 2776 
Q 1288 2469 1184 1941 
L 800 0 
L 225 0 
L 903 3500 
L 1478 3500 
L 1363 2950 
Q 1603 3253 1940 3418 
Q 2278 3584 2650 3584 
Q 3113 3584 3367 3334 
Q 3622 3084 3622 2631 
Q 3622 2519 3608 2391 
Q 3594 2263 3566 2113 
z
" id="DejaVuSans-Oblique-6e" transform="scale(0.015625)"/>
      <path d="M 3175 2156 
Q 3175 2616 2975 2859 
Q 2775 3103 2400 3103 
Q 2144 3103 1911 2972 
Q 1678 2841 1497 2591 
Q 1319 2344 1212 1994 
Q 1106 1644 1106 1300 
Q 1106 863 1306 627 
Q 1506 391 1875 391 
Q 2147 391 2380 519 
Q 2613 647 2778 891 
Q 2956 1147 3065 1494 
Q 3175 1841 3175 2156 
z
M 1394 2969 
Q 1625 3272 1939 3428 
Q 2253 3584 2638 3584 
Q 3175 3584 3472 3232 
Q 3769 2881 3769 2247 
Q 3769 1728 3584 1258 
Q 3400 788 3053 416 
Q 2822 169 2531 39 
Q 2241 -91 1919 -91 
Q 1547 -91 1294 64 
Q 1041 219 916 525 
L 556 -1331 
L -19 -1331 
L 922 3500 
L 1497 3500 
L 1394 2969 
z
" id="DejaVuSans-Oblique-70" transform="scale(0.015625)"/>
     </defs>
     <use transform="translate(0 0.015625)" xlink:href="#DejaVuSans-54"/>
     <use transform="translate(61.083984 0.015625)" xlink:href="#DejaVuSans-68"/>
     <use transform="translate(124.462891 0.015625)" xlink:href="#DejaVuSans-65"/>
     <use transform="translate(185.986328 0.015625)" xlink:href="#DejaVuSans-6f"/>
     <use transform="translate(247.167969 0.015625)" xlink:href="#DejaVuSans-64"/>
     <use transform="translate(310.644531 0.015625)" xlink:href="#DejaVuSans-6f"/>
     <use transform="translate(371.826172 0.015625)" xlink:href="#DejaVuSans-72"/>
     <use transform="translate(412.939453 0.015625)" xlink:href="#DejaVuSans-73"/>
     <use transform="translate(465.039062 0.015625)" xlink:href="#DejaVuSans-65"/>
     <use transform="translate(526.5625 0.015625)" xlink:href="#DejaVuSans-6e"/>
     <use transform="translate(589.941406 0.015625)" xlink:href="#DejaVuSans-3a"/>
     <use transform="translate(623.632812 0.015625)" xlink:href="#DejaVuSans-20"/>
     <use transform="translate(655.419922 0.015625)" xlink:href="#DejaVuSans-52"/>
     <use transform="translate(724.902344 0.015625)" xlink:href="#DejaVuSans-65"/>
     <use transform="translate(786.425781 0.015625)" xlink:href="#DejaVuSans-3d"/>
     <use transform="translate(870.214844 0.015625)" xlink:href="#DejaVuSans-31"/>
     <use transform="translate(933.837891 0.015625)" xlink:href="#DejaVuSans-2e"/>
     <use transform="translate(965.625 0.015625)" xlink:href="#DejaVuSans-65"/>
     <use transform="translate(1027.148438 0.015625)" xlink:href="#DejaVuSans-2b"/>
     <use transform="translate(1110.9375 0.015625)" xlink:href="#DejaVuSans-30"/>
     <use transform="translate(1174.560547 0.015625)" xlink:href="#DejaVuSans-34"/>
     <use transform="translate(1238.183594 0.015625)" xlink:href="#DejaVuSans-2c"/>
     <use transform="translate(1269.970703 0.015625)" xlink:href="#DejaVuSans-20"/>
     <use transform="translate(1301.757812 0.015625)" xlink:href="#DejaVuSans-61"/>
     <use transform="translate(1363.037109 0.015625)" xlink:href="#DejaVuSans-3d"/>
     <use transform="translate(1446.826172 0.015625)" xlink:href="#DejaVuSans-30"/>
     <use transform="translate(1510.449219 0.015625)" xlink:href="#DejaVuSans-2e"/>
     <use transform="translate(1536.736328 0.015625)" xlink:href="#DejaVuSans-32"/>
     <use transform="translate(1600.359375 0.015625)" xlink:href="#DejaVuSans-35"/>
     <use transform="translate(1663.982422 0.015625)" xlink:href="#DejaVuSans-2c"/>
     <use transform="translate(1695.769531 0.015625)" xlink:href="#DejaVuSans-20"/>
     <use transform="translate(1727.556641 0.015625)" xlink:href="#DejaVuSans-Oblique-66"/>
     <use transform="translate(1762.761719 -16.390625)scale(0.7)" xlink:href="#DejaVuSans-398"/>
     <use transform="translate(1840.076172 0.015625)" xlink:href="#DejaVuSans-3d"/>
     <use transform="translate(1943.347656 0.015625)" xlink:href="#DejaVuSans-31"/>
     <use transform="translate(2006.970703 0.015625)" xlink:href="#DejaVuSans-Oblique-48"/>
     <use transform="translate(2082.166016 0.015625)" xlink:href="#DejaVuSans-Oblique-7a"/>
     <use transform="translate(2134.65625 0.015625)" xlink:href="#DejaVuSans-2c"/>
     <use transform="translate(2185.925781 0.015625)" xlink:href="#DejaVuSans-398"/>
     <use transform="translate(2265.59375 -16.390625)scale(0.7)" xlink:href="#DejaVuSans-Oblique-6d"/>
     <use transform="translate(2333.782227 -16.390625)scale(0.7)" xlink:href="#DejaVuSans-Oblique-65"/>
     <use transform="translate(2376.848633 -16.390625)scale(0.7)" xlink:href="#DejaVuSans-Oblique-61"/>
     <use transform="translate(2419.744141 -16.390625)scale(0.7)" xlink:href="#DejaVuSans-Oblique-6e"/>
     <use transform="translate(2486.326172 0.015625)" xlink:href="#DejaVuSans-3d"/>
     <use transform="translate(2589.597656 0.015625)" xlink:href="#DejaVuSans-34"/>
     <use transform="translate(2654.177734 38.296875)scale(0.7)" xlink:href="#DejaVuSans-2218"/>
     <use transform="translate(2700.730469 0.015625)" xlink:href="#DejaVuSans-2c"/>
     <use transform="translate(2752 0.015625)" xlink:href="#DejaVuSans-398"/>
     <use transform="translate(2831.667969 -16.390625)scale(0.7)" xlink:href="#DejaVuSans-Oblique-61"/>
     <use transform="translate(2874.563477 -16.390625)scale(0.7)" xlink:href="#DejaVuSans-Oblique-6d"/>
     <use transform="translate(2942.751953 -16.390625)scale(0.7)" xlink:href="#DejaVuSans-Oblique-70"/>
     <use transform="translate(3009.402344 0.015625)" xlink:href="#DejaVuSans-3d"/>
     <use transform="translate(3112.673828 0.015625)" xlink:href="#DejaVuSans-34"/>
     <use transform="translate(3177.253906 38.296875)scale(0.7)" xlink:href="#DejaVuSans-2218"/>
    </g>
   </g>
  </g>
 </g>
 <defs>
  <clipPath id="pf5cd7f3807">
   <rect height="527.2344" width="1071.36" x="172.8" y="82.1664"/>
  </clipPath>
 </defs>
</svg>
