<?xml version="1.0" encoding="utf-8"?>
<svg xmlns="http://www.w3.org/2000/svg" xmlns:xlink="http://www.w3.org/1999/xlink" width="600" height="400" viewBox="0 0 2400 1600">
<defs>
  <clipPath id="clip830">
    <rect x="0" y="0" width="2400" height="1600"/>
  </clipPath>
</defs>
<path clip-path="url(#clip830)" d="
M0 1600 L2400 1600 L2400 0 L0 0  Z
  " fill="#ffffff" fill-rule="evenodd" fill-opacity="1"/>
<defs>
  <clipPath id="clip831">
    <rect x="480" y="0" width="1681" height="1600"/>
  </clipPath>
</defs>
<path clip-path="url(#clip830)" d="
M175.445 1423.18 L2352.76 1423.18 L2352.76 123.472 L175.445 123.472  Z
  " fill="#ffffff" fill-rule="evenodd" fill-opacity="1"/>
<defs>
  <clipPath id="clip832">
    <rect x="175" y="123" width="2178" height="1301"/>
  </clipPath>
</defs>
<polyline clip-path="url(#clip832)" style="stroke:#000000; stroke-linecap:butt; stroke-linejoin:round; stroke-width:2; stroke-opacity:0.1; fill:none" points="
  237.067,1423.18 237.067,123.472 
  "/>
<polyline clip-path="url(#clip832)" style="stroke:#000000; stroke-linecap:butt; stroke-linejoin:round; stroke-width:2; stroke-opacity:0.1; fill:none" points="
  921.756,1423.18 921.756,123.472 
  "/>
<polyline clip-path="url(#clip832)" style="stroke:#000000; stroke-linecap:butt; stroke-linejoin:round; stroke-width:2; stroke-opacity:0.1; fill:none" points="
  1606.45,1423.18 1606.45,123.472 
  "/>
<polyline clip-path="url(#clip832)" style="stroke:#000000; stroke-linecap:butt; stroke-linejoin:round; stroke-width:2; stroke-opacity:0.1; fill:none" points="
  2291.13,1423.18 2291.13,123.472 
  "/>
<polyline clip-path="url(#clip830)" style="stroke:#000000; stroke-linecap:butt; stroke-linejoin:round; stroke-width:4; stroke-opacity:1; fill:none" points="
  175.445,1423.18 2352.76,1423.18 
  "/>
<polyline clip-path="url(#clip830)" style="stroke:#000000; stroke-linecap:butt; stroke-linejoin:round; stroke-width:4; stroke-opacity:1; fill:none" points="
  237.067,1423.18 237.067,1404.28 
  "/>
<polyline clip-path="url(#clip830)" style="stroke:#000000; stroke-linecap:butt; stroke-linejoin:round; stroke-width:4; stroke-opacity:1; fill:none" points="
  921.756,1423.18 921.756,1404.28 
  "/>
<polyline clip-path="url(#clip830)" style="stroke:#000000; stroke-linecap:butt; stroke-linejoin:round; stroke-width:4; stroke-opacity:1; fill:none" points="
  1606.45,1423.18 1606.45,1404.28 
  "/>
<polyline clip-path="url(#clip830)" style="stroke:#000000; stroke-linecap:butt; stroke-linejoin:round; stroke-width:4; stroke-opacity:1; fill:none" points="
  2291.13,1423.18 2291.13,1404.28 
  "/>
<path clip-path="url(#clip830)" d="M237.067 1454.1 Q233.456 1454.1 231.627 1457.66 Q229.822 1461.2 229.822 1468.33 Q229.822 1475.44 231.627 1479.01 Q233.456 1482.55 237.067 1482.55 Q240.701 1482.55 242.507 1479.01 Q244.336 1475.44 244.336 1468.33 Q244.336 1461.2 242.507 1457.66 Q240.701 1454.1 237.067 1454.1 M237.067 1450.39 Q242.877 1450.39 245.933 1455 Q249.012 1459.58 249.012 1468.33 Q249.012 1477.06 245.933 1481.67 Q242.877 1486.25 237.067 1486.25 Q231.257 1486.25 228.178 1481.67 Q225.123 1477.06 225.123 1468.33 Q225.123 1459.58 228.178 1455 Q231.257 1450.39 237.067 1450.39 Z" fill="#000000" fill-rule="evenodd" fill-opacity="1" /><path clip-path="url(#clip830)" d="M896.444 1481.64 L904.083 1481.64 L904.083 1455.28 L895.772 1456.95 L895.772 1452.69 L904.036 1451.02 L908.712 1451.02 L908.712 1481.64 L916.351 1481.64 L916.351 1485.58 L896.444 1485.58 L896.444 1481.64 Z" fill="#000000" fill-rule="evenodd" fill-opacity="1" /><path clip-path="url(#clip830)" d="M935.795 1454.1 Q932.184 1454.1 930.356 1457.66 Q928.55 1461.2 928.55 1468.33 Q928.55 1475.44 930.356 1479.01 Q932.184 1482.55 935.795 1482.55 Q939.43 1482.55 941.235 1479.01 Q943.064 1475.44 943.064 1468.33 Q943.064 1461.2 941.235 1457.66 Q939.43 1454.1 935.795 1454.1 M935.795 1450.39 Q941.606 1450.39 944.661 1455 Q947.74 1459.58 947.74 1468.33 Q947.74 1477.06 944.661 1481.67 Q941.606 1486.25 935.795 1486.25 Q929.985 1486.25 926.907 1481.67 Q923.851 1477.06 923.851 1468.33 Q923.851 1459.58 926.907 1455 Q929.985 1450.39 935.795 1450.39 Z" fill="#000000" fill-rule="evenodd" fill-opacity="1" /><path clip-path="url(#clip830)" d="M1585.22 1481.64 L1601.54 1481.64 L1601.54 1485.58 L1579.59 1485.58 L1579.59 1481.64 Q1582.26 1478.89 1586.84 1474.26 Q1591.45 1469.61 1592.63 1468.27 Q1594.87 1465.74 1595.75 1464.01 Q1596.65 1462.25 1596.65 1460.56 Q1596.65 1457.8 1594.71 1456.07 Q1592.79 1454.33 1589.69 1454.33 Q1587.49 1454.33 1585.03 1455.09 Q1582.6 1455.86 1579.82 1457.41 L1579.82 1452.69 Q1582.65 1451.55 1585.1 1450.97 Q1587.56 1450.39 1589.59 1450.39 Q1594.96 1450.39 1598.16 1453.08 Q1601.35 1455.77 1601.35 1460.26 Q1601.35 1462.39 1600.54 1464.31 Q1599.76 1466.2 1597.65 1468.8 Q1597.07 1469.47 1593.97 1472.69 Q1590.87 1475.88 1585.22 1481.64 Z" fill="#000000" fill-rule="evenodd" fill-opacity="1" /><path clip-path="url(#clip830)" d="M1621.35 1454.1 Q1617.74 1454.1 1615.91 1457.66 Q1614.11 1461.2 1614.11 1468.33 Q1614.11 1475.44 1615.91 1479.01 Q1617.74 1482.55 1621.35 1482.55 Q1624.99 1482.55 1626.79 1479.01 Q1628.62 1475.44 1628.62 1468.33 Q1628.62 1461.2 1626.79 1457.66 Q1624.99 1454.1 1621.35 1454.1 M1621.35 1450.39 Q1627.16 1450.39 1630.22 1455 Q1633.3 1459.58 1633.3 1468.33 Q1633.3 1477.06 1630.22 1481.67 Q1627.16 1486.25 1621.35 1486.25 Q1615.54 1486.25 1612.46 1481.67 Q1609.41 1477.06 1609.41 1468.33 Q1609.41 1459.58 1612.46 1455 Q1615.54 1450.39 1621.35 1450.39 Z" fill="#000000" fill-rule="evenodd" fill-opacity="1" /><path clip-path="url(#clip830)" d="M2279.98 1466.95 Q2283.33 1467.66 2285.21 1469.93 Q2287.11 1472.2 2287.11 1475.53 Q2287.11 1480.65 2283.59 1483.45 Q2280.07 1486.25 2273.59 1486.25 Q2271.41 1486.25 2269.1 1485.81 Q2266.81 1485.39 2264.35 1484.54 L2264.35 1480.02 Q2266.3 1481.16 2268.61 1481.74 Q2270.93 1482.32 2273.45 1482.32 Q2277.85 1482.32 2280.14 1480.58 Q2282.45 1478.84 2282.45 1475.53 Q2282.45 1472.48 2280.3 1470.77 Q2278.17 1469.03 2274.35 1469.03 L2270.32 1469.03 L2270.32 1465.19 L2274.54 1465.19 Q2277.99 1465.19 2279.81 1463.82 Q2281.64 1462.43 2281.64 1459.84 Q2281.64 1457.18 2279.75 1455.77 Q2277.87 1454.33 2274.35 1454.33 Q2272.43 1454.33 2270.23 1454.75 Q2268.03 1455.16 2265.39 1456.04 L2265.39 1451.88 Q2268.06 1451.14 2270.37 1450.77 Q2272.71 1450.39 2274.77 1450.39 Q2280.09 1450.39 2283.19 1452.83 Q2286.3 1455.23 2286.3 1459.35 Q2286.3 1462.22 2284.65 1464.21 Q2283.01 1466.18 2279.98 1466.95 Z" fill="#000000" fill-rule="evenodd" fill-opacity="1" /><path clip-path="url(#clip830)" d="M2305.97 1454.1 Q2302.36 1454.1 2300.53 1457.66 Q2298.73 1461.2 2298.73 1468.33 Q2298.73 1475.44 2300.53 1479.01 Q2302.36 1482.55 2305.97 1482.55 Q2309.61 1482.55 2311.41 1479.01 Q2313.24 1475.44 2313.24 1468.33 Q2313.24 1461.2 2311.41 1457.66 Q2309.61 1454.1 2305.97 1454.1 M2305.97 1450.39 Q2311.78 1450.39 2314.84 1455 Q2317.92 1459.58 2317.92 1468.33 Q2317.92 1477.06 2314.84 1481.67 Q2311.78 1486.25 2305.97 1486.25 Q2300.16 1486.25 2297.08 1481.67 Q2294.03 1477.06 2294.03 1468.33 Q2294.03 1459.58 2297.08 1455 Q2300.16 1450.39 2305.97 1450.39 Z" fill="#000000" fill-rule="evenodd" fill-opacity="1" /><path clip-path="url(#clip830)" d="M1212.41 1522.27 L1212.41 1532.4 L1224.47 1532.4 L1224.47 1536.95 L1212.41 1536.95 L1212.41 1556.3 Q1212.41 1560.66 1213.59 1561.9 Q1214.8 1563.14 1218.46 1563.14 L1224.47 1563.14 L1224.47 1568.04 L1218.46 1568.04 Q1211.68 1568.04 1209.1 1565.53 Q1206.52 1562.98 1206.52 1556.3 L1206.52 1536.95 L1202.23 1536.95 L1202.23 1532.4 L1206.52 1532.4 L1206.52 1522.27 L1212.41 1522.27 Z" fill="#000000" fill-rule="evenodd" fill-opacity="1" /><path clip-path="url(#clip830)" d="M1252.36 1518.52 L1265.85 1518.52 L1265.85 1523.07 L1258.21 1523.07 L1258.21 1572.09 L1265.85 1572.09 L1265.85 1576.64 L1252.36 1576.64 L1252.36 1518.52 Z" fill="#000000" fill-rule="evenodd" fill-opacity="1" /><path clip-path="url(#clip830)" d="M1301.05 1533.45 L1301.05 1538.98 Q1298.57 1537.71 1295.9 1537.07 Q1293.22 1536.44 1290.36 1536.44 Q1286 1536.44 1283.8 1537.77 Q1281.64 1539.11 1281.64 1541.79 Q1281.64 1543.82 1283.2 1545 Q1284.76 1546.15 1289.47 1547.2 L1291.47 1547.64 Q1297.71 1548.98 1300.32 1551.43 Q1302.96 1553.85 1302.96 1558.21 Q1302.96 1563.17 1299.02 1566.07 Q1295.1 1568.97 1288.23 1568.97 Q1285.36 1568.97 1282.24 1568.39 Q1279.16 1567.85 1275.72 1566.74 L1275.72 1560.69 Q1278.96 1562.38 1282.12 1563.24 Q1285.27 1564.07 1288.35 1564.07 Q1292.49 1564.07 1294.72 1562.66 Q1296.95 1561.23 1296.95 1558.65 Q1296.95 1556.27 1295.32 1554.99 Q1293.73 1553.72 1288.29 1552.54 L1286.25 1552.07 Q1280.81 1550.92 1278.39 1548.56 Q1275.97 1546.18 1275.97 1542.04 Q1275.97 1537.01 1279.54 1534.27 Q1283.1 1531.54 1289.66 1531.54 Q1292.91 1531.54 1295.77 1532.01 Q1298.63 1532.49 1301.05 1533.45 Z" fill="#000000" fill-rule="evenodd" fill-opacity="1" /><path clip-path="url(#clip830)" d="M1325.98 1518.52 L1325.98 1576.64 L1312.48 1576.64 L1312.48 1572.09 L1320.09 1572.09 L1320.09 1523.07 L1312.48 1523.07 L1312.48 1518.52 L1325.98 1518.52 Z" fill="#000000" fill-rule="evenodd" fill-opacity="1" /><polyline clip-path="url(#clip832)" style="stroke:#000000; stroke-linecap:butt; stroke-linejoin:round; stroke-width:2; stroke-opacity:0.1; fill:none" points="
  175.445,1386.4 2352.76,1386.4 
  "/>
<polyline clip-path="url(#clip832)" style="stroke:#000000; stroke-linecap:butt; stroke-linejoin:round; stroke-width:2; stroke-opacity:0.1; fill:none" points="
  175.445,1079.87 2352.76,1079.87 
  "/>
<polyline clip-path="url(#clip832)" style="stroke:#000000; stroke-linecap:butt; stroke-linejoin:round; stroke-width:2; stroke-opacity:0.1; fill:none" points="
  175.445,773.326 2352.76,773.326 
  "/>
<polyline clip-path="url(#clip832)" style="stroke:#000000; stroke-linecap:butt; stroke-linejoin:round; stroke-width:2; stroke-opacity:0.1; fill:none" points="
  175.445,466.787 2352.76,466.787 
  "/>
<polyline clip-path="url(#clip832)" style="stroke:#000000; stroke-linecap:butt; stroke-linejoin:round; stroke-width:2; stroke-opacity:0.1; fill:none" points="
  175.445,160.248 2352.76,160.248 
  "/>
<polyline clip-path="url(#clip830)" style="stroke:#000000; stroke-linecap:butt; stroke-linejoin:round; stroke-width:4; stroke-opacity:1; fill:none" points="
  175.445,1423.18 175.445,123.472 
  "/>
<polyline clip-path="url(#clip830)" style="stroke:#000000; stroke-linecap:butt; stroke-linejoin:round; stroke-width:4; stroke-opacity:1; fill:none" points="
  175.445,1386.4 194.343,1386.4 
  "/>
<polyline clip-path="url(#clip830)" style="stroke:#000000; stroke-linecap:butt; stroke-linejoin:round; stroke-width:4; stroke-opacity:1; fill:none" points="
  175.445,1079.87 194.343,1079.87 
  "/>
<polyline clip-path="url(#clip830)" style="stroke:#000000; stroke-linecap:butt; stroke-linejoin:round; stroke-width:4; stroke-opacity:1; fill:none" points="
  175.445,773.326 194.343,773.326 
  "/>
<polyline clip-path="url(#clip830)" style="stroke:#000000; stroke-linecap:butt; stroke-linejoin:round; stroke-width:4; stroke-opacity:1; fill:none" points="
  175.445,466.787 194.343,466.787 
  "/>
<polyline clip-path="url(#clip830)" style="stroke:#000000; stroke-linecap:butt; stroke-linejoin:round; stroke-width:4; stroke-opacity:1; fill:none" points="
  175.445,160.248 194.343,160.248 
  "/>
<path clip-path="url(#clip830)" d="M127.501 1372.2 Q123.89 1372.2 122.061 1375.77 Q120.255 1379.31 120.255 1386.44 Q120.255 1393.55 122.061 1397.11 Q123.89 1400.65 127.501 1400.65 Q131.135 1400.65 132.941 1397.11 Q134.769 1393.55 134.769 1386.44 Q134.769 1379.31 132.941 1375.77 Q131.135 1372.2 127.501 1372.2 M127.501 1368.5 Q133.311 1368.5 136.367 1373.11 Q139.445 1377.69 139.445 1386.44 Q139.445 1395.17 136.367 1399.77 Q133.311 1404.36 127.501 1404.36 Q121.691 1404.36 118.612 1399.77 Q115.556 1395.17 115.556 1386.44 Q115.556 1377.69 118.612 1373.11 Q121.691 1368.5 127.501 1368.5 Z" fill="#000000" fill-rule="evenodd" fill-opacity="1" /><path clip-path="url(#clip830)" d="M123.126 1093.21 L139.445 1093.21 L139.445 1097.15 L117.501 1097.15 L117.501 1093.21 Q120.163 1090.46 124.746 1085.83 Q129.353 1081.17 130.533 1079.83 Q132.779 1077.31 133.658 1075.57 Q134.561 1073.81 134.561 1072.12 Q134.561 1069.37 132.617 1067.63 Q130.695 1065.9 127.593 1065.9 Q125.394 1065.9 122.941 1066.66 Q120.51 1067.42 117.732 1068.97 L117.732 1064.25 Q120.556 1063.12 123.01 1062.54 Q125.464 1061.96 127.501 1061.96 Q132.871 1061.96 136.066 1064.65 Q139.26 1067.33 139.26 1071.82 Q139.26 1073.95 138.45 1075.87 Q137.663 1077.77 135.556 1080.36 Q134.978 1081.03 131.876 1084.25 Q128.774 1087.45 123.126 1093.21 Z" fill="#000000" fill-rule="evenodd" fill-opacity="1" /><path clip-path="url(#clip830)" d="M129.862 760.12 L118.056 778.569 L129.862 778.569 L129.862 760.12 M128.635 756.046 L134.515 756.046 L134.515 778.569 L139.445 778.569 L139.445 782.458 L134.515 782.458 L134.515 790.606 L129.862 790.606 L129.862 782.458 L114.26 782.458 L114.26 777.944 L128.635 756.046 Z" fill="#000000" fill-rule="evenodd" fill-opacity="1" /><path clip-path="url(#clip830)" d="M127.917 464.923 Q124.769 464.923 122.918 467.076 Q121.089 469.229 121.089 472.979 Q121.089 476.706 122.918 478.882 Q124.769 481.035 127.917 481.035 Q131.066 481.035 132.894 478.882 Q134.746 476.706 134.746 472.979 Q134.746 469.229 132.894 467.076 Q131.066 464.923 127.917 464.923 M137.2 450.271 L137.2 454.53 Q135.441 453.697 133.635 453.257 Q131.853 452.817 130.093 452.817 Q125.464 452.817 123.01 455.942 Q120.58 459.067 120.232 465.386 Q121.598 463.373 123.658 462.308 Q125.718 461.22 128.195 461.22 Q133.404 461.22 136.413 464.391 Q139.445 467.539 139.445 472.979 Q139.445 478.303 136.297 481.521 Q133.149 484.738 127.917 484.738 Q121.922 484.738 118.751 480.155 Q115.58 475.548 115.58 466.822 Q115.58 458.627 119.468 453.766 Q123.357 448.882 129.908 448.882 Q131.667 448.882 133.45 449.229 Q135.255 449.576 137.2 450.271 Z" fill="#000000" fill-rule="evenodd" fill-opacity="1" /><path clip-path="url(#clip830)" d="M127.593 161.116 Q124.26 161.116 122.339 162.898 Q120.441 164.681 120.441 167.806 Q120.441 170.931 122.339 172.713 Q124.26 174.495 127.593 174.495 Q130.927 174.495 132.848 172.713 Q134.769 170.908 134.769 167.806 Q134.769 164.681 132.848 162.898 Q130.95 161.116 127.593 161.116 M122.918 159.125 Q119.908 158.384 118.218 156.324 Q116.552 154.264 116.552 151.301 Q116.552 147.158 119.492 144.75 Q122.455 142.343 127.593 142.343 Q132.755 142.343 135.695 144.75 Q138.635 147.158 138.635 151.301 Q138.635 154.264 136.945 156.324 Q135.279 158.384 132.292 159.125 Q135.672 159.912 137.547 162.204 Q139.445 164.496 139.445 167.806 Q139.445 172.829 136.367 175.514 Q133.311 178.199 127.593 178.199 Q121.876 178.199 118.797 175.514 Q115.742 172.829 115.742 167.806 Q115.742 164.496 117.64 162.204 Q119.538 159.912 122.918 159.125 M121.205 151.741 Q121.205 154.426 122.871 155.931 Q124.561 157.435 127.593 157.435 Q130.603 157.435 132.292 155.931 Q134.005 154.426 134.005 151.741 Q134.005 149.056 132.292 147.551 Q130.603 146.047 127.593 146.047 Q124.561 146.047 122.871 147.551 Q121.205 149.056 121.205 151.741 Z" fill="#000000" fill-rule="evenodd" fill-opacity="1" /><path clip-path="url(#clip830)" d="M46.0847 892.572 Q46.0847 899.669 47.7079 902.407 Q49.3312 905.144 53.2461 905.144 Q56.3653 905.144 58.2114 903.107 Q60.0256 901.038 60.0256 897.505 Q60.0256 892.635 56.5881 889.707 Q53.1188 886.747 47.3897 886.747 L46.0847 886.747 L46.0847 892.572 M43.6657 880.891 L64.0042 880.891 L64.0042 886.747 L58.5933 886.747 Q61.8398 888.752 63.3994 891.744 Q64.9272 894.736 64.9272 899.065 Q64.9272 904.539 61.8716 907.786 Q58.7843 911 53.6281 911 Q47.6125 911 44.5569 906.99 Q41.5014 902.948 41.5014 894.959 L41.5014 886.747 L40.9285 886.747 Q36.8862 886.747 34.6901 889.421 Q32.4621 892.062 32.4621 896.868 Q32.4621 899.924 33.1941 902.82 Q33.9262 905.717 35.3903 908.39 L29.9795 908.39 Q28.7381 905.176 28.1334 902.152 Q27.4968 899.128 27.4968 896.264 Q27.4968 888.529 31.5072 884.71 Q35.5176 880.891 43.6657 880.891 Z" fill="#000000" fill-rule="evenodd" fill-opacity="1" /><path clip-path="url(#clip830)" d="M14.479 868.827 L14.479 862.971 L64.0042 862.971 L64.0042 868.827 L14.479 868.827 Z" fill="#000000" fill-rule="evenodd" fill-opacity="1" /><path clip-path="url(#clip830)" d="M58.657 845.052 L77.5631 845.052 L77.5631 850.94 L28.3562 850.94 L28.3562 845.052 L33.7671 845.052 Q30.5842 843.206 29.0564 840.405 Q27.4968 837.572 27.4968 833.657 Q27.4968 827.164 32.6531 823.122 Q37.8093 819.048 46.212 819.048 Q54.6147 819.048 59.771 823.122 Q64.9272 827.164 64.9272 833.657 Q64.9272 837.572 63.3994 840.405 Q61.8398 843.206 58.657 845.052 M46.212 825.127 Q39.7508 825.127 36.0905 827.801 Q32.3984 830.442 32.3984 835.089 Q32.3984 839.736 36.0905 842.41 Q39.7508 845.052 46.212 845.052 Q52.6732 845.052 56.3653 842.41 Q60.0256 839.736 60.0256 835.089 Q60.0256 830.442 56.3653 827.801 Q52.6732 825.127 46.212 825.127 Z" fill="#000000" fill-rule="evenodd" fill-opacity="1" /><path clip-path="url(#clip830)" d="M42.4881 779.708 L64.0042 779.708 L64.0042 785.564 L42.679 785.564 Q37.6183 785.564 35.1038 787.537 Q32.5894 789.511 32.5894 793.458 Q32.5894 798.2 35.6131 800.937 Q38.6368 803.674 43.8567 803.674 L64.0042 803.674 L64.0042 809.563 L14.479 809.563 L14.479 803.674 L33.8944 803.674 Q30.6797 801.574 29.0883 798.741 Q27.4968 795.876 27.4968 792.153 Q27.4968 786.01 31.3163 782.859 Q35.1038 779.708 42.4881 779.708 Z" fill="#000000" fill-rule="evenodd" fill-opacity="1" /><path clip-path="url(#clip830)" d="M46.0847 751.826 Q46.0847 758.924 47.7079 761.661 Q49.3312 764.398 53.2461 764.398 Q56.3653 764.398 58.2114 762.361 Q60.0256 760.292 60.0256 756.759 Q60.0256 751.889 56.5881 748.961 Q53.1188 746.001 47.3897 746.001 L46.0847 746.001 L46.0847 751.826 M43.6657 740.145 L64.0042 740.145 L64.0042 746.001 L58.5933 746.001 Q61.8398 748.006 63.3994 750.998 Q64.9272 753.99 64.9272 758.319 Q64.9272 763.793 61.8716 767.04 Q58.7843 770.255 53.6281 770.255 Q47.6125 770.255 44.5569 766.244 Q41.5014 762.202 41.5014 754.213 L41.5014 746.001 L40.9285 746.001 Q36.8862 746.001 34.6901 748.675 Q32.4621 751.317 32.4621 756.123 Q32.4621 759.178 33.1941 762.075 Q33.9262 764.971 35.3903 767.645 L29.9795 767.645 Q28.7381 764.43 28.1334 761.406 Q27.4968 758.382 27.4968 755.518 Q27.4968 747.784 31.5072 743.964 Q35.5176 740.145 43.6657 740.145 Z" fill="#000000" fill-rule="evenodd" fill-opacity="1" /><path clip-path="url(#clip830)" d="M14.479 707.902 L14.479 694.407 L19.0304 694.407 L19.0304 702.046 L68.0464 702.046 L68.0464 694.407 L72.5979 694.407 L72.5979 707.902 L14.479 707.902 Z" fill="#000000" fill-rule="evenodd" fill-opacity="1" /><path clip-path="url(#clip830)" d="M19.7307 671.777 Q19.7307 674.323 21.5131 676.074 Q23.2636 677.824 25.8099 677.824 Q28.3244 677.824 30.0749 676.074 Q31.7937 674.323 31.7937 671.777 Q31.7937 669.231 30.0749 667.48 Q28.3244 665.73 25.8099 665.73 Q23.2955 665.73 21.5131 667.512 Q19.7307 669.263 19.7307 671.777 M15.6248 671.777 Q15.6248 669.74 16.4205 667.862 Q17.1844 665.984 18.6485 664.616 Q20.0808 663.152 21.895 662.419 Q23.7092 661.687 25.8099 661.687 Q30.0113 661.687 32.9395 664.647 Q35.8359 667.576 35.8359 671.841 Q35.8359 676.138 32.9713 679.002 Q30.1068 681.867 25.8099 681.867 Q21.5449 681.867 18.5848 678.938 Q15.6248 676.01 15.6248 671.777 Z" fill="#000000" fill-rule="evenodd" fill-opacity="1" /><path clip-path="url(#clip830)" d="M14.479 635.652 L72.5979 635.652 L72.5979 649.147 L68.0464 649.147 L68.0464 641.54 L19.0304 641.54 L19.0304 649.147 L14.479 649.147 L14.479 635.652 Z" fill="#000000" fill-rule="evenodd" fill-opacity="1" /><path clip-path="url(#clip830)" d="M328.321 44.2197 Q330.955 45.1109 333.426 48.0275 Q335.937 50.9442 338.449 56.0483 L346.753 72.576 L337.963 72.576 L330.225 57.061 Q327.228 50.9847 324.392 48.9997 Q321.597 47.0148 316.736 47.0148 L307.824 47.0148 L307.824 72.576 L299.641 72.576 L299.641 12.096 L318.113 12.096 Q328.483 12.096 333.588 16.4305 Q338.692 20.7649 338.692 29.5149 Q338.692 35.2267 336.018 38.994 Q333.385 42.7613 328.321 44.2197 M307.824 18.8205 L307.824 40.2903 L318.113 40.2903 Q324.027 40.2903 327.025 37.5762 Q330.063 34.8216 330.063 29.5149 Q330.063 24.2082 327.025 21.5346 Q324.027 18.8205 318.113 18.8205 L307.824 18.8205 Z" fill="#000000" fill-rule="evenodd" fill-opacity="1" /><path clip-path="url(#clip830)" d="M392.042 48.0275 L392.042 51.6733 L357.772 51.6733 Q358.258 59.3701 362.39 63.421 Q366.562 67.4314 373.975 67.4314 Q378.269 67.4314 382.279 66.3781 Q386.33 65.3249 390.3 63.2184 L390.3 70.267 Q386.29 71.9684 382.077 72.8596 Q377.864 73.7508 373.53 73.7508 Q362.673 73.7508 356.313 67.4314 Q349.994 61.1119 349.994 50.3365 Q349.994 39.1965 355.989 32.6746 Q362.025 26.1121 372.233 26.1121 Q381.388 26.1121 386.695 32.0264 Q392.042 37.9003 392.042 48.0275 M384.588 45.84 Q384.507 39.7232 381.145 36.0774 Q377.823 32.4315 372.314 32.4315 Q366.076 32.4315 362.309 35.9558 Q358.582 39.4801 358.015 45.8805 L384.588 45.84 Z" fill="#000000" fill-rule="evenodd" fill-opacity="1" /><path clip-path="url(#clip830)" d="M405.248 34.9026 L457.181 34.9026 L457.181 41.7081 L405.248 41.7081 L405.248 34.9026 M405.248 51.4303 L457.181 51.4303 L457.181 58.3168 L405.248 58.3168 L405.248 51.4303 Z" fill="#000000" fill-rule="evenodd" fill-opacity="1" /><path clip-path="url(#clip830)" d="M476.26 65.6895 L489.628 65.6895 L489.628 19.5497 L475.086 22.4663 L475.086 15.0127 L489.547 12.096 L497.73 12.096 L497.73 65.6895 L511.098 65.6895 L511.098 72.576 L476.26 72.576 L476.26 65.6895 Z" fill="#000000" fill-rule="evenodd" fill-opacity="1" /><path clip-path="url(#clip830)" d="M545.126 17.4837 Q538.806 17.4837 535.606 23.7221 Q532.446 29.92 532.446 42.3968 Q532.446 54.833 535.606 61.0714 Q538.806 67.2693 545.126 67.2693 Q551.486 67.2693 554.645 61.0714 Q557.846 54.833 557.846 42.3968 Q557.846 29.92 554.645 23.7221 Q551.486 17.4837 545.126 17.4837 M545.126 11.0023 Q555.294 11.0023 560.641 19.0636 Q566.028 27.0843 566.028 42.3968 Q566.028 57.6687 560.641 65.73 Q555.294 73.7508 545.126 73.7508 Q534.958 73.7508 529.57 65.73 Q524.223 57.6687 524.223 42.3968 Q524.223 27.0843 529.57 19.0636 Q534.958 11.0023 545.126 11.0023 Z" fill="#000000" fill-rule="evenodd" fill-opacity="1" /><path clip-path="url(#clip830)" d="M597.909 17.4837 Q591.59 17.4837 588.389 23.7221 Q585.23 29.92 585.23 42.3968 Q585.23 54.833 588.389 61.0714 Q591.59 67.2693 597.909 67.2693 Q604.269 67.2693 607.429 61.0714 Q610.629 54.833 610.629 42.3968 Q610.629 29.92 607.429 23.7221 Q604.269 17.4837 597.909 17.4837 M597.909 11.0023 Q608.077 11.0023 613.424 19.0636 Q618.812 27.0843 618.812 42.3968 Q618.812 57.6687 613.424 65.73 Q608.077 73.7508 597.909 73.7508 Q587.741 73.7508 582.354 65.73 Q577.006 57.6687 577.006 42.3968 Q577.006 27.0843 582.354 19.0636 Q587.741 11.0023 597.909 11.0023 Z" fill="#000000" fill-rule="evenodd" fill-opacity="1" /><path clip-path="url(#clip830)" d="M650.692 17.4837 Q644.373 17.4837 641.173 23.7221 Q638.013 29.92 638.013 42.3968 Q638.013 54.833 641.173 61.0714 Q644.373 67.2693 650.692 67.2693 Q657.052 67.2693 660.212 61.0714 Q663.412 54.833 663.412 42.3968 Q663.412 29.92 660.212 23.7221 Q657.052 17.4837 650.692 17.4837 M650.692 11.0023 Q660.86 11.0023 666.207 19.0636 Q671.595 27.0843 671.595 42.3968 Q671.595 57.6687 666.207 65.73 Q660.86 73.7508 650.692 73.7508 Q640.525 73.7508 635.137 65.73 Q629.79 57.6687 629.79 42.3968 Q629.79 27.0843 635.137 19.0636 Q640.525 11.0023 650.692 11.0023 Z" fill="#000000" fill-rule="evenodd" fill-opacity="1" /><path clip-path="url(#clip830)" d="M703.476 17.4837 Q697.156 17.4837 693.956 23.7221 Q690.796 29.92 690.796 42.3968 Q690.796 54.833 693.956 61.0714 Q697.156 67.2693 703.476 67.2693 Q709.836 67.2693 712.995 61.0714 Q716.196 54.833 716.196 42.3968 Q716.196 29.92 712.995 23.7221 Q709.836 17.4837 703.476 17.4837 M703.476 11.0023 Q713.643 11.0023 718.991 19.0636 Q724.378 27.0843 724.378 42.3968 Q724.378 57.6687 718.991 65.73 Q713.643 73.7508 703.476 73.7508 Q693.308 73.7508 687.92 65.73 Q682.573 57.6687 682.573 42.3968 Q682.573 27.0843 687.92 19.0636 Q693.308 11.0023 703.476 11.0023 Z" fill="#000000" fill-rule="evenodd" fill-opacity="1" /><path clip-path="url(#clip830)" d="M738.759 62.2867 L747.306 62.2867 L747.306 72.576 L738.759 72.576 L738.759 62.2867 Z" fill="#000000" fill-rule="evenodd" fill-opacity="1" /><path clip-path="url(#clip830)" d="M782.63 17.4837 Q776.311 17.4837 773.111 23.7221 Q769.951 29.92 769.951 42.3968 Q769.951 54.833 773.111 61.0714 Q776.311 67.2693 782.63 67.2693 Q788.99 67.2693 792.15 61.0714 Q795.35 54.833 795.35 42.3968 Q795.35 29.92 792.15 23.7221 Q788.99 17.4837 782.63 17.4837 M782.63 11.0023 Q792.798 11.0023 798.145 19.0636 Q803.533 27.0843 803.533 42.3968 Q803.533 57.6687 798.145 65.73 Q792.798 73.7508 782.63 73.7508 Q772.463 73.7508 767.075 65.73 Q761.728 57.6687 761.728 42.3968 Q761.728 27.0843 767.075 19.0636 Q772.463 11.0023 782.63 11.0023 Z" fill="#000000" fill-rule="evenodd" fill-opacity="1" /><path clip-path="url(#clip830)" d="M863.851 49.7694 Q854.817 49.7694 851.334 51.8354 Q847.85 53.9013 847.85 58.8839 Q847.85 62.8538 850.442 65.2034 Q853.076 67.5124 857.572 67.5124 Q863.77 67.5124 867.497 63.1374 Q871.264 58.7219 871.264 51.4303 L871.264 49.7694 L863.851 49.7694 M878.718 46.6907 L878.718 72.576 L871.264 72.576 L871.264 65.6895 Q868.712 69.8214 864.904 71.8063 Q861.096 73.7508 855.587 73.7508 Q848.62 73.7508 844.488 69.8619 Q840.396 65.9325 840.396 59.3701 Q840.396 51.7138 845.5 47.825 Q850.645 43.9361 860.813 43.9361 L871.264 43.9361 L871.264 43.2069 Q871.264 38.0623 867.861 35.2672 Q864.499 32.4315 858.382 32.4315 Q854.493 32.4315 850.807 33.3632 Q847.121 34.295 843.718 36.1584 L843.718 29.2718 Q847.809 27.692 851.658 26.9223 Q855.506 26.1121 859.152 26.1121 Q868.996 26.1121 873.857 31.2163 Q878.718 36.3204 878.718 46.6907 Z" fill="#000000" fill-rule="evenodd" fill-opacity="1" /><path clip-path="url(#clip830)" d="M895.043 34.9026 L946.976 34.9026 L946.976 41.7081 L895.043 41.7081 L895.043 34.9026 M895.043 51.4303 L946.976 51.4303 L946.976 58.3168 L895.043 58.3168 L895.043 51.4303 Z" fill="#000000" fill-rule="evenodd" fill-opacity="1" /><path clip-path="url(#clip830)" d="M982.137 17.4837 Q975.818 17.4837 972.618 23.7221 Q969.458 29.92 969.458 42.3968 Q969.458 54.833 972.618 61.0714 Q975.818 67.2693 982.137 67.2693 Q988.497 67.2693 991.657 61.0714 Q994.857 54.833 994.857 42.3968 Q994.857 29.92 991.657 23.7221 Q988.497 17.4837 982.137 17.4837 M982.137 11.0023 Q992.305 11.0023 997.652 19.0636 Q1003.04 27.0843 1003.04 42.3968 Q1003.04 57.6687 997.652 65.73 Q992.305 73.7508 982.137 73.7508 Q971.97 73.7508 966.582 65.73 Q961.235 57.6687 961.235 42.3968 Q961.235 27.0843 966.582 19.0636 Q971.97 11.0023 982.137 11.0023 Z" fill="#000000" fill-rule="evenodd" fill-opacity="1" /><path clip-path="url(#clip830)" d="M1017.42 62.2867 L1025.97 62.2867 L1025.97 72.576 L1017.42 72.576 L1017.42 62.2867 Z" fill="#000000" fill-rule="evenodd" fill-opacity="1" /><path clip-path="url(#clip830)" d="M1050.84 65.6895 L1079.4 65.6895 L1079.4 72.576 L1041 72.576 L1041 65.6895 Q1045.66 60.8689 1053.68 52.7671 Q1061.74 44.6248 1063.8 42.2752 Q1067.73 37.8598 1069.27 34.8216 Q1070.85 31.7429 1070.85 28.7857 Q1070.85 23.9651 1067.45 20.927 Q1064.09 17.8888 1058.66 17.8888 Q1054.81 17.8888 1050.52 19.2256 Q1046.26 20.5624 1041.4 23.2765 L1041.4 15.0127 Q1046.34 13.0277 1050.64 12.015 Q1054.93 11.0023 1058.5 11.0023 Q1067.9 11.0023 1073.49 15.7013 Q1079.08 20.4004 1079.08 28.2591 Q1079.08 31.9859 1077.66 35.3482 Q1076.28 38.6699 1072.59 43.2069 Q1071.58 44.3817 1066.15 50.0125 Q1060.72 55.6027 1050.84 65.6895 Z" fill="#000000" fill-rule="evenodd" fill-opacity="1" /><path clip-path="url(#clip830)" d="M1096.66 12.096 L1128.78 12.096 L1128.78 18.9825 L1104.15 18.9825 L1104.15 33.8088 Q1105.93 33.2012 1107.72 32.9176 Q1109.5 32.5936 1111.28 32.5936 Q1121.41 32.5936 1127.32 38.1433 Q1133.24 43.6931 1133.24 53.1722 Q1133.24 62.9348 1127.16 68.3631 Q1121.08 73.7508 1110.02 73.7508 Q1106.22 73.7508 1102.25 73.1026 Q1098.32 72.4545 1094.1 71.1582 L1094.1 62.9348 Q1097.75 64.9198 1101.64 65.892 Q1105.53 66.8642 1109.86 66.8642 Q1116.87 66.8642 1120.96 63.1779 Q1125.05 59.4916 1125.05 53.1722 Q1125.05 46.8528 1120.96 43.1664 Q1116.87 39.4801 1109.86 39.4801 Q1106.58 39.4801 1103.3 40.2093 Q1100.06 40.9384 1096.66 42.4778 L1096.66 12.096 Z" fill="#000000" fill-rule="evenodd" fill-opacity="1" /><path clip-path="url(#clip830)" d="M1197.65 9.54393 L1197.65 15.7418 L1190.52 15.7418 Q1186.51 15.7418 1184.93 17.3622 Q1183.39 18.9825 1183.39 23.1955 L1183.39 27.2059 L1195.66 27.2059 L1195.66 32.9987 L1183.39 32.9987 L1183.39 72.576 L1175.89 72.576 L1175.89 32.9987 L1168.76 32.9987 L1168.76 27.2059 L1175.89 27.2059 L1175.89 24.0462 Q1175.89 16.471 1179.42 13.0277 Q1182.94 9.54393 1190.6 9.54393 L1197.65 9.54393 Z" fill="#000000" fill-rule="evenodd" fill-opacity="1" /><path clip-path="url(#clip830)" d="M1204.86 34.9026 L1256.79 34.9026 L1256.79 41.7081 L1204.86 41.7081 L1204.86 34.9026 M1204.86 51.4303 L1256.79 51.4303 L1256.79 58.3168 L1204.86 58.3168 L1204.86 51.4303 Z" fill="#000000" fill-rule="evenodd" fill-opacity="1" /><path clip-path="url(#clip830)" d="M1275.87 65.6895 L1289.24 65.6895 L1289.24 19.5497 L1274.69 22.4663 L1274.69 15.0127 L1289.16 12.096 L1297.34 12.096 L1297.34 65.6895 L1310.71 65.6895 L1310.71 72.576 L1275.87 72.576 L1275.87 65.6895 Z" fill="#000000" fill-rule="evenodd" fill-opacity="1" /><path clip-path="url(#clip830)" d="M1327.23 62.2867 L1335.78 62.2867 L1335.78 72.576 L1327.23 72.576 L1327.23 62.2867 Z" fill="#000000" fill-rule="evenodd" fill-opacity="1" /><path clip-path="url(#clip830)" d="M1371.11 17.4837 Q1364.79 17.4837 1361.59 23.7221 Q1358.43 29.92 1358.43 42.3968 Q1358.43 54.833 1361.59 61.0714 Q1364.79 67.2693 1371.11 67.2693 Q1377.47 67.2693 1380.62 61.0714 Q1383.83 54.833 1383.83 42.3968 Q1383.83 29.92 1380.62 23.7221 Q1377.47 17.4837 1371.11 17.4837 M1371.11 11.0023 Q1381.27 11.0023 1386.62 19.0636 Q1392.01 27.0843 1392.01 42.3968 Q1392.01 57.6687 1386.62 65.73 Q1381.27 73.7508 1371.11 73.7508 Q1360.94 73.7508 1355.55 65.73 Q1350.2 57.6687 1350.2 42.3968 Q1350.2 27.0843 1355.55 19.0636 Q1360.94 11.0023 1371.11 11.0023 Z" fill="#000000" fill-rule="evenodd" fill-opacity="1" /><path clip-path="url(#clip830)" d="M1458.16 51.4708 L1456.38 42.1132 Q1454.55 32.5126 1447.34 32.5126 Q1441.91 32.5126 1439.44 36.9686 Q1436.32 42.5588 1436.32 49.9314 Q1436.32 58.8434 1439.36 63.0969 Q1442.44 67.4314 1447.34 67.4314 Q1452.77 67.4314 1455.69 58.8029 L1458.16 51.4708 M1462.33 39.075 L1466.34 27.2059 L1472.99 27.2059 L1464.68 51.7949 L1466.3 60.6663 Q1466.67 62.6513 1468.08 64.3122 Q1469.74 66.2566 1471.04 66.2566 L1474.61 66.2566 L1474.61 72.576 L1470.15 72.576 Q1466.34 72.576 1462.94 69.1732 Q1461.28 67.4719 1460.59 63.9071 Q1458.73 68.4036 1454.92 71.9279 Q1453.14 73.5887 1447.34 73.5887 Q1437.82 73.5887 1433.21 67.4314 Q1428.47 61.0714 1428.47 49.9314 Q1428.47 38.0218 1433.61 32.4315 Q1439.32 26.1931 1447.34 26.1931 Q1459.94 26.1931 1462.33 39.075 Z" fill="#000000" fill-rule="evenodd" fill-opacity="1" /><path clip-path="url(#clip830)" d="M1506.53 58.2358 L1506.53 72.576 L1501.83 72.576 L1501.83 57.3851 Q1501.83 53.6988 1500.37 51.9569 Q1498.91 50.1745 1495.87 50.1745 Q1492.27 50.1745 1490.16 52.362 Q1488.05 54.509 1488.05 58.2358 L1488.05 72.576 L1483.32 72.576 L1483.32 47.1768 L1488.05 47.1768 L1488.05 51.1062 Q1489.63 48.7972 1491.86 47.7034 Q1494.13 46.5692 1497.25 46.5692 Q1500.33 46.5692 1502.52 47.987 Q1504.7 49.3643 1505.76 52.0379 Q1507.5 49.2428 1509.93 47.906 Q1512.4 46.5692 1515.72 46.5692 Q1520.22 46.5692 1522.61 49.3643 Q1525.04 52.1189 1525.04 57.2231 L1525.04 72.576 L1520.34 72.576 L1520.34 57.3851 Q1520.34 53.7393 1518.88 51.9569 Q1517.42 50.1745 1514.43 50.1745 Q1510.78 50.1745 1508.63 52.362 Q1506.53 54.509 1506.53 58.2358 Z" fill="#000000" fill-rule="evenodd" fill-opacity="1" /><path clip-path="url(#clip830)" d="M1559.63 58.8434 L1559.63 60.8689 L1538.04 60.8689 Q1538.37 65.1628 1540.96 67.4314 Q1543.59 69.6999 1548.25 69.6999 Q1550.97 69.6999 1553.52 69.0922 Q1556.03 68.5251 1558.54 67.3503 L1558.54 71.2797 Q1556.03 72.2519 1553.36 72.738 Q1550.72 73.2241 1547.97 73.2241 Q1541.12 73.2241 1537.15 69.6999 Q1533.14 66.1756 1533.14 60.1397 Q1533.14 53.9013 1536.95 50.215 Q1540.72 46.5692 1547.16 46.5692 Q1552.91 46.5692 1556.27 49.8504 Q1559.63 53.1722 1559.63 58.8434 M1554.94 57.5877 Q1554.89 54.1849 1552.79 52.1189 Q1550.68 50.0935 1547.2 50.0935 Q1543.27 50.0935 1540.92 52.0784 Q1538.57 54.0229 1538.2 57.5877 L1554.94 57.5877 Z" fill="#000000" fill-rule="evenodd" fill-opacity="1" /><path clip-path="url(#clip830)" d="M1582.76 59.8157 Q1577.09 59.8157 1574.91 60.9499 Q1572.68 62.1247 1572.68 64.9198 Q1572.68 67.1478 1574.34 68.4441 Q1576 69.7404 1578.84 69.7404 Q1582.72 69.7404 1585.07 67.2693 Q1587.46 64.7983 1587.46 60.7474 L1587.46 59.8157 L1582.76 59.8157 M1592.12 58.0738 L1592.12 72.576 L1587.46 72.576 L1587.46 68.7276 Q1585.84 71.0367 1583.45 72.1304 Q1581.02 73.2241 1577.58 73.2241 Q1573.16 73.2241 1570.57 71.0367 Q1567.98 68.8492 1567.98 65.1628 Q1567.98 60.9094 1571.22 58.7219 Q1574.46 56.5344 1580.86 56.5344 L1587.46 56.5344 L1587.46 56.1293 Q1587.46 53.2532 1585.32 51.6733 Q1583.17 50.0935 1579.32 50.0935 Q1576.89 50.0935 1574.54 50.6201 Q1572.23 51.1467 1570.09 52.2 L1570.09 48.3111 Q1572.68 47.4604 1575.11 47.0148 Q1577.5 46.5692 1579.81 46.5692 Q1586.01 46.5692 1589.08 49.4048 Q1592.12 52.281 1592.12 58.0738 Z" fill="#000000" fill-rule="evenodd" fill-opacity="1" /><path clip-path="url(#clip830)" d="M1626.03 57.2231 L1626.03 72.576 L1621.33 72.576 L1621.33 57.3851 Q1621.33 53.7798 1619.75 51.9974 Q1618.17 50.1745 1615.01 50.1745 Q1611.2 50.1745 1609.01 52.362 Q1606.83 54.509 1606.83 58.2358 L1606.83 72.576 L1602.09 72.576 L1602.09 47.1768 L1606.83 47.1768 L1606.83 51.1062 Q1608.49 48.8377 1610.76 47.7034 Q1613.07 46.5692 1616.06 46.5692 Q1620.96 46.5692 1623.48 49.2833 Q1626.03 51.9974 1626.03 57.2231 Z" fill="#000000" fill-rule="evenodd" fill-opacity="1" /><path clip-path="url(#clip830)" d="M1639.19 34.9026 L1691.13 34.9026 L1691.13 41.7081 L1639.19 41.7081 L1639.19 34.9026 M1639.19 51.4303 L1691.13 51.4303 L1691.13 58.3168 L1639.19 58.3168 L1639.19 51.4303 Z" fill="#000000" fill-rule="evenodd" fill-opacity="1" /><path clip-path="url(#clip830)" d="M1731.27 19.2256 L1710.61 51.5113 L1731.27 51.5113 L1731.27 19.2256 M1729.12 12.096 L1739.41 12.096 L1739.41 51.5113 L1748.04 51.5113 L1748.04 58.3168 L1739.41 58.3168 L1739.41 72.576 L1731.27 72.576 L1731.27 58.3168 L1703.97 58.3168 L1703.97 50.4176 L1729.12 12.096 Z" fill="#000000" fill-rule="evenodd" fill-opacity="1" /><path clip-path="url(#clip830)" d="M1761.57 62.2867 L1770.12 62.2867 L1770.12 72.576 L1761.57 72.576 L1761.57 62.2867 Z" fill="#000000" fill-rule="evenodd" fill-opacity="1" /><path clip-path="url(#clip830)" d="M1805.44 17.4837 Q1799.12 17.4837 1795.92 23.7221 Q1792.76 29.92 1792.76 42.3968 Q1792.76 54.833 1795.92 61.0714 Q1799.12 67.2693 1805.44 67.2693 Q1811.8 67.2693 1814.96 61.0714 Q1818.16 54.833 1818.16 42.3968 Q1818.16 29.92 1814.96 23.7221 Q1811.8 17.4837 1805.44 17.4837 M1805.44 11.0023 Q1815.61 11.0023 1820.96 19.0636 Q1826.35 27.0843 1826.35 42.3968 Q1826.35 57.6687 1820.96 65.73 Q1815.61 73.7508 1805.44 73.7508 Q1795.28 73.7508 1789.89 65.73 Q1784.54 57.6687 1784.54 42.3968 Q1784.54 27.0843 1789.89 19.0636 Q1795.28 11.0023 1805.44 11.0023 Z" fill="#000000" fill-rule="evenodd" fill-opacity="1" /><path clip-path="url(#clip830)" d="M1892.5 51.4708 L1890.71 42.1132 Q1888.89 32.5126 1881.68 32.5126 Q1876.25 32.5126 1873.78 36.9686 Q1870.66 42.5588 1870.66 49.9314 Q1870.66 58.8434 1873.7 63.0969 Q1876.78 67.4314 1881.68 67.4314 Q1887.11 67.4314 1890.03 58.8029 L1892.5 51.4708 M1896.67 39.075 L1900.68 27.2059 L1907.32 27.2059 L1899.02 51.7949 L1900.64 60.6663 Q1901 62.6513 1902.42 64.3122 Q1904.08 66.2566 1905.38 66.2566 L1908.94 66.2566 L1908.94 72.576 L1904.49 72.576 Q1900.68 72.576 1897.28 69.1732 Q1895.62 67.4719 1894.93 63.9071 Q1893.06 68.4036 1889.26 71.9279 Q1887.47 73.5887 1881.68 73.5887 Q1872.16 73.5887 1867.54 67.4314 Q1862.8 61.0714 1862.8 49.9314 Q1862.8 38.0218 1867.95 32.4315 Q1873.66 26.1931 1881.68 26.1931 Q1894.28 26.1931 1896.67 39.075 Z" fill="#000000" fill-rule="evenodd" fill-opacity="1" /><path clip-path="url(#clip830)" d="M1930.82 59.8157 Q1925.15 59.8157 1922.96 60.9499 Q1920.73 62.1247 1920.73 64.9198 Q1920.73 67.1478 1922.39 68.4441 Q1924.05 69.7404 1926.89 69.7404 Q1930.78 69.7404 1933.13 67.2693 Q1935.52 64.7983 1935.52 60.7474 L1935.52 59.8157 L1930.82 59.8157 M1940.18 58.0738 L1940.18 72.576 L1935.52 72.576 L1935.52 68.7276 Q1933.9 71.0367 1931.51 72.1304 Q1929.08 73.2241 1925.63 73.2241 Q1921.22 73.2241 1918.63 71.0367 Q1916.03 68.8492 1916.03 65.1628 Q1916.03 60.9094 1919.27 58.7219 Q1922.51 56.5344 1928.91 56.5344 L1935.52 56.5344 L1935.52 56.1293 Q1935.52 53.2532 1933.37 51.6733 Q1931.22 50.0935 1927.38 50.0935 Q1924.94 50.0935 1922.6 50.6201 Q1920.29 51.1467 1918.14 52.2 L1918.14 48.3111 Q1920.73 47.4604 1923.16 47.0148 Q1925.55 46.5692 1927.86 46.5692 Q1934.06 46.5692 1937.14 49.4048 Q1940.18 52.281 1940.18 58.0738 Z" fill="#000000" fill-rule="evenodd" fill-opacity="1" /><path clip-path="url(#clip830)" d="M1973.35 58.2358 L1973.35 72.576 L1968.65 72.576 L1968.65 57.3851 Q1968.65 53.6988 1967.2 51.9569 Q1965.74 50.1745 1962.7 50.1745 Q1959.09 50.1745 1956.99 52.362 Q1954.88 54.509 1954.88 58.2358 L1954.88 72.576 L1950.14 72.576 L1950.14 47.1768 L1954.88 47.1768 L1954.88 51.1062 Q1956.46 48.7972 1958.69 47.7034 Q1960.96 46.5692 1964.08 46.5692 Q1967.16 46.5692 1969.34 47.987 Q1971.53 49.3643 1972.58 52.0379 Q1974.33 49.2428 1976.76 47.906 Q1979.23 46.5692 1982.55 46.5692 Q1987.05 46.5692 1989.44 49.3643 Q1991.87 52.1189 1991.87 57.2231 L1991.87 72.576 L1987.17 72.576 L1987.17 57.3851 Q1987.17 53.7393 1985.71 51.9569 Q1984.25 50.1745 1981.25 50.1745 Q1977.61 50.1745 1975.46 52.362 Q1973.35 54.509 1973.35 58.2358 Z" fill="#000000" fill-rule="evenodd" fill-opacity="1" /><path clip-path="url(#clip830)" d="M2006.57 68.7682 L2006.57 82.2577 L2001.83 82.2577 L2001.83 47.1768 L2006.57 47.1768 L2006.57 51.0252 Q2008.03 48.7567 2010.3 47.6629 Q2012.57 46.5692 2015.69 46.5692 Q2020.91 46.5692 2024.15 50.215 Q2027.39 53.9013 2027.39 59.8967 Q2027.39 65.892 2024.15 69.5783 Q2020.91 73.2241 2015.69 73.2241 Q2012.57 73.2241 2010.3 72.1304 Q2008.03 71.0367 2006.57 68.7682 M2020.42 67.1073 Q2022.53 64.5147 2022.53 59.8967 Q2022.53 55.2786 2020.42 52.6861 Q2018.28 50.053 2014.55 50.053 Q2010.82 50.053 2008.68 52.6861 Q2006.57 55.2786 2006.57 59.8967 Q2006.57 64.5147 2008.68 67.1073 Q2010.82 69.7404 2014.55 69.7404 Q2018.28 69.7404 2020.42 67.1073 Z" fill="#000000" fill-rule="evenodd" fill-opacity="1" /><path clip-path="url(#clip830)" d="M2041.41 34.9026 L2093.34 34.9026 L2093.34 41.7081 L2041.41 41.7081 L2041.41 34.9026 M2041.41 51.4303 L2093.34 51.4303 L2093.34 58.3168 L2041.41 58.3168 L2041.41 51.4303 Z" fill="#000000" fill-rule="evenodd" fill-opacity="1" /><path clip-path="url(#clip830)" d="M2133.49 19.2256 L2112.83 51.5113 L2133.49 51.5113 L2133.49 19.2256 M2131.34 12.096 L2141.63 12.096 L2141.63 51.5113 L2150.26 51.5113 L2150.26 58.3168 L2141.63 58.3168 L2141.63 72.576 L2133.49 72.576 L2133.49 58.3168 L2106.18 58.3168 L2106.18 50.4176 L2131.34 12.096 Z" fill="#000000" fill-rule="evenodd" fill-opacity="1" /><path clip-path="url(#clip830)" d="M2163.79 62.2867 L2172.33 62.2867 L2172.33 72.576 L2163.79 72.576 L2163.79 62.2867 Z" fill="#000000" fill-rule="evenodd" fill-opacity="1" /><path clip-path="url(#clip830)" d="M2207.66 17.4837 Q2201.34 17.4837 2198.14 23.7221 Q2194.98 29.92 2194.98 42.3968 Q2194.98 54.833 2198.14 61.0714 Q2201.34 67.2693 2207.66 67.2693 Q2214.02 67.2693 2217.18 61.0714 Q2220.38 54.833 2220.38 42.3968 Q2220.38 29.92 2217.18 23.7221 Q2214.02 17.4837 2207.66 17.4837 M2207.66 11.0023 Q2217.83 11.0023 2223.17 19.0636 Q2228.56 27.0843 2228.56 42.3968 Q2228.56 57.6687 2223.17 65.73 Q2217.83 73.7508 2207.66 73.7508 Q2197.49 73.7508 2192.1 65.73 Q2186.75 57.6687 2186.75 42.3968 Q2186.75 27.0843 2192.1 19.0636 Q2197.49 11.0023 2207.66 11.0023 Z" fill="#000000" fill-rule="evenodd" fill-opacity="1" /><polyline clip-path="url(#clip832)" style="stroke:#009af9; stroke-linecap:butt; stroke-linejoin:round; stroke-width:4; stroke-opacity:1; fill:none" points="
  237.067,773.326 243.937,411.926 250.807,189.463 257.677,191.46 264.546,417.149 271.416,779.767 278.286,1139.91 285.156,1359.12 292.026,1353.13 298.895,1124.24 
  305.765,760.444 312.635,401.6 319.505,185.663 326.374,195.646 333.244,427.713 340.114,792.648 346.984,1150.15 353.854,1362.79 360.723,1348.82 367.593,1113.6 
  374.463,747.567 381.333,391.438 388.203,182.122 395.072,200.088 401.942,438.43 408.812,805.519 415.682,1160.23 422.551,1366.2 429.421,1344.25 436.291,1102.81 
  443.161,734.702 450.031,381.444 456.9,178.842 463.77,204.783 470.64,449.294 477.51,818.377 484.38,1170.14 491.249,1369.35 498.119,1339.43 504.989,1091.87 
  511.859,721.854 518.729,371.624 525.598,175.824 532.468,209.728 539.338,460.302 546.208,831.214 553.077,1179.87 559.947,1372.24 566.817,1334.36 573.687,1080.79 
  580.557,709.028 587.426,361.981 594.296,173.071 601.166,214.923 608.036,471.447 614.906,844.026 621.775,1189.42 628.645,1374.86 635.515,1329.04 642.385,1069.58 
  649.255,696.231 656.124,352.519 662.994,170.582 669.864,220.364 676.734,482.726 683.603,856.807 690.473,1198.79 697.343,1377.21 704.213,1323.48 711.083,1058.24 
  717.952,683.468 724.822,343.244 731.692,168.36 738.562,226.05 745.432,494.134 752.301,869.551 759.171,1207.97 766.041,1379.3 772.911,1317.67 779.78,1046.77 
  786.65,670.745 793.52,334.158 800.39,166.405 807.26,231.977 814.129,505.664 820.999,882.252 827.869,1216.96 834.739,1381.12 841.609,1311.62 848.478,1035.18 
  855.348,658.067 862.218,325.266 869.088,164.718 875.958,238.143 882.827,517.313 889.697,894.905 896.567,1225.76 903.437,1382.68 910.306,1305.34 917.176,1023.47 
  924.046,645.44 930.916,316.573 937.786,163.299 944.655,244.545 951.525,529.075 958.395,907.505 965.265,1234.35 972.135,1383.96 979.004,1298.82 985.874,1011.66 
  992.744,632.869 999.614,308.08 1006.48,162.15 1013.35,251.181 1020.22,540.945 1027.09,920.045 1033.96,1242.74 1040.83,1384.97 1047.7,1292.07 1054.57,999.734 
  1061.44,620.361 1068.31,299.794 1075.18,161.271 1082.05,258.047 1088.92,552.917 1095.79,932.521 1102.66,1250.92 1109.53,1385.72 1116.4,1285.09 1123.27,987.712 
  1130.14,607.919 1137.01,291.716 1143.88,160.662 1150.75,265.141 1157.62,564.987 1164.49,944.926 1171.36,1258.9 1178.23,1386.19 1185.1,1277.88 1191.97,975.596 
  1198.84,595.551 1205.71,283.851 1212.58,160.324 1219.45,272.46 1226.32,577.148 1233.19,957.255 1240.06,1266.65 1246.93,1386.4 1253.8,1270.45 1260.67,963.39 
  1267.54,583.262 1274.41,276.202 1281.28,160.256 1288.14,279.999 1295.01,589.397 1301.88,969.504 1308.75,1274.19 1315.62,1386.33 1322.49,1262.8 1329.36,951.101 
  1336.23,571.056 1343.1,268.773 1349.97,160.459 1356.84,287.757 1363.71,601.726 1370.58,981.665 1377.45,1281.51 1384.32,1385.99 1391.19,1254.94 1398.06,938.732 
  1404.93,558.94 1411.8,261.566 1418.67,160.933 1425.54,295.728 1432.41,614.131 1439.28,993.735 1446.15,1288.6 1453.02,1385.38 1459.89,1246.86 1466.76,926.291 
  1473.63,546.918 1480.5,254.585 1487.37,161.677 1494.24,303.911 1501.11,626.607 1507.98,1005.71 1514.85,1295.47 1521.72,1384.5 1528.59,1238.57 1535.46,913.783 
  1542.33,534.997 1549.2,247.834 1556.07,162.691 1562.94,312.301 1569.81,639.147 1576.68,1017.58 1583.55,1302.11 1590.42,1383.35 1597.29,1230.08 1604.16,901.212 
  1611.02,523.18 1617.89,241.314 1624.76,163.975 1631.63,320.895 1638.5,651.747 1645.37,1029.34 1652.24,1308.51 1659.11,1381.93 1665.98,1221.39 1672.85,888.585 
  1679.72,511.474 1686.59,235.03 1693.46,165.528 1700.33,329.688 1707.2,664.4 1714.07,1040.99 1720.94,1314.68 1727.81,1380.25 1734.68,1212.49 1741.55,875.907 
  1748.42,499.884 1755.29,228.983 1762.16,167.349 1769.03,338.677 1775.9,677.101 1782.77,1052.52 1789.64,1320.6 1796.51,1378.29 1803.38,1203.41 1810.25,863.184 
  1817.12,488.414 1823.99,223.176 1830.86,169.438 1837.73,347.858 1844.6,689.845 1851.47,1063.93 1858.34,1326.29 1865.21,1376.07 1872.08,1194.13 1878.95,850.421 
  1885.82,477.071 1892.69,217.613 1899.56,171.794 1906.43,357.227 1913.3,702.626 1920.17,1075.2 1927.04,1331.73 1933.9,1373.58 1940.77,1184.67 1947.64,837.624 
  1954.51,465.858 1961.38,212.295 1968.25,174.415 1975.12,366.78 1981.99,715.438 1988.86,1086.35 1995.73,1336.92 2002.6,1370.83 2009.47,1175.03 2016.34,824.798 
  2023.21,454.78 2030.08,207.224 2036.95,177.3 2043.82,376.512 2050.69,728.275 2057.56,1097.36 2064.43,1341.87 2071.3,1367.81 2078.17,1165.21 2085.04,811.95 
  2091.91,443.844 2098.78,202.404 2105.65,180.449 2112.52,386.42 2119.39,741.133 2126.26,1108.22 2133.13,1346.56 2140,1364.53 2146.87,1155.21 2153.74,799.085 
  2160.61,433.053 2167.48,197.835 2174.35,183.86 2181.22,396.498 2188.09,754.004 2194.96,1118.94 2201.83,1351.01 2208.7,1360.99 2215.57,1145.05 2222.44,786.208 
  2229.31,422.412 2236.18,193.521 2243.05,187.53 2249.92,406.743 2256.78,766.884 2263.65,1129.5 2270.52,1355.19 2277.39,1357.19 2284.26,1134.73 2291.13,773.326 
  
  "/>
</svg>
