<?xml version="1.0" encoding="utf-8"?>
<svg xmlns="http://www.w3.org/2000/svg" xmlns:xlink="http://www.w3.org/1999/xlink" width="600" height="400" viewBox="0 0 2400 1600">
<defs>
  <clipPath id="clip950">
    <rect x="0" y="0" width="2400" height="1600"/>
  </clipPath>
</defs>
<path clip-path="url(#clip950)" d="
M0 1600 L2400 1600 L2400 0 L0 0  Z
  " fill="#ffffff" fill-rule="evenodd" fill-opacity="1"/>
<defs>
  <clipPath id="clip951">
    <rect x="480" y="0" width="1681" height="1600"/>
  </clipPath>
</defs>
<path clip-path="url(#clip950)" d="
M255.977 1423.18 L2352.76 1423.18 L2352.76 123.472 L255.977 123.472  Z
  " fill="#ffffff" fill-rule="evenodd" fill-opacity="1"/>
<defs>
  <clipPath id="clip952">
    <rect x="255" y="123" width="2098" height="1301"/>
  </clipPath>
</defs>
<polyline clip-path="url(#clip952)" style="stroke:#000000; stroke-linecap:butt; stroke-linejoin:round; stroke-width:2; stroke-opacity:0.1; fill:none" points="
  315.306,1423.18 315.306,123.472 
  "/>
<polyline clip-path="url(#clip952)" style="stroke:#000000; stroke-linecap:butt; stroke-linejoin:round; stroke-width:2; stroke-opacity:0.1; fill:none" points="
  809.836,1423.18 809.836,123.472 
  "/>
<polyline clip-path="url(#clip952)" style="stroke:#000000; stroke-linecap:butt; stroke-linejoin:round; stroke-width:2; stroke-opacity:0.1; fill:none" points="
  1304.37,1423.18 1304.37,123.472 
  "/>
<polyline clip-path="url(#clip952)" style="stroke:#000000; stroke-linecap:butt; stroke-linejoin:round; stroke-width:2; stroke-opacity:0.1; fill:none" points="
  1798.9,1423.18 1798.9,123.472 
  "/>
<polyline clip-path="url(#clip952)" style="stroke:#000000; stroke-linecap:butt; stroke-linejoin:round; stroke-width:2; stroke-opacity:0.1; fill:none" points="
  2293.43,1423.18 2293.43,123.472 
  "/>
<polyline clip-path="url(#clip950)" style="stroke:#000000; stroke-linecap:butt; stroke-linejoin:round; stroke-width:4; stroke-opacity:1; fill:none" points="
  255.977,1423.18 2352.76,1423.18 
  "/>
<polyline clip-path="url(#clip950)" style="stroke:#000000; stroke-linecap:butt; stroke-linejoin:round; stroke-width:4; stroke-opacity:1; fill:none" points="
  315.306,1423.18 315.306,1404.28 
  "/>
<polyline clip-path="url(#clip950)" style="stroke:#000000; stroke-linecap:butt; stroke-linejoin:round; stroke-width:4; stroke-opacity:1; fill:none" points="
  809.836,1423.18 809.836,1404.28 
  "/>
<polyline clip-path="url(#clip950)" style="stroke:#000000; stroke-linecap:butt; stroke-linejoin:round; stroke-width:4; stroke-opacity:1; fill:none" points="
  1304.37,1423.18 1304.37,1404.28 
  "/>
<polyline clip-path="url(#clip950)" style="stroke:#000000; stroke-linecap:butt; stroke-linejoin:round; stroke-width:4; stroke-opacity:1; fill:none" points="
  1798.9,1423.18 1798.9,1404.28 
  "/>
<polyline clip-path="url(#clip950)" style="stroke:#000000; stroke-linecap:butt; stroke-linejoin:round; stroke-width:4; stroke-opacity:1; fill:none" points="
  2293.43,1423.18 2293.43,1404.28 
  "/>
<path clip-path="url(#clip950)" d="M315.306 1454.1 Q311.695 1454.1 309.867 1457.66 Q308.061 1461.2 308.061 1468.33 Q308.061 1475.44 309.867 1479.01 Q311.695 1482.55 315.306 1482.55 Q318.941 1482.55 320.746 1479.01 Q322.575 1475.44 322.575 1468.33 Q322.575 1461.2 320.746 1457.66 Q318.941 1454.1 315.306 1454.1 M315.306 1450.39 Q321.116 1450.39 324.172 1455 Q327.251 1459.58 327.251 1468.33 Q327.251 1477.06 324.172 1481.67 Q321.116 1486.25 315.306 1486.25 Q309.496 1486.25 306.417 1481.67 Q303.362 1477.06 303.362 1468.33 Q303.362 1459.58 306.417 1455 Q309.496 1450.39 315.306 1450.39 Z" fill="#000000" fill-rule="evenodd" fill-opacity="1" /><path clip-path="url(#clip950)" d="M804.489 1481.64 L820.809 1481.64 L820.809 1485.58 L798.864 1485.58 L798.864 1481.64 Q801.526 1478.89 806.11 1474.26 Q810.716 1469.61 811.897 1468.27 Q814.142 1465.74 815.022 1464.01 Q815.924 1462.25 815.924 1460.56 Q815.924 1457.8 813.98 1456.07 Q812.059 1454.33 808.957 1454.33 Q806.758 1454.33 804.304 1455.09 Q801.874 1455.86 799.096 1457.41 L799.096 1452.69 Q801.92 1451.55 804.374 1450.97 Q806.827 1450.39 808.864 1450.39 Q814.235 1450.39 817.429 1453.08 Q820.623 1455.77 820.623 1460.26 Q820.623 1462.39 819.813 1464.31 Q819.026 1466.2 816.92 1468.8 Q816.341 1469.47 813.239 1472.69 Q810.137 1475.88 804.489 1481.64 Z" fill="#000000" fill-rule="evenodd" fill-opacity="1" /><path clip-path="url(#clip950)" d="M1307.38 1455.09 L1295.57 1473.54 L1307.38 1473.54 L1307.38 1455.09 M1306.15 1451.02 L1312.03 1451.02 L1312.03 1473.54 L1316.96 1473.54 L1316.96 1477.43 L1312.03 1477.43 L1312.03 1485.58 L1307.38 1485.58 L1307.38 1477.43 L1291.77 1477.43 L1291.77 1472.92 L1306.15 1451.02 Z" fill="#000000" fill-rule="evenodd" fill-opacity="1" /><path clip-path="url(#clip950)" d="M1799.3 1466.44 Q1796.15 1466.44 1794.3 1468.59 Q1792.47 1470.74 1792.47 1474.49 Q1792.47 1478.22 1794.3 1480.39 Q1796.15 1482.55 1799.3 1482.55 Q1802.45 1482.55 1804.28 1480.39 Q1806.13 1478.22 1806.13 1474.49 Q1806.13 1470.74 1804.28 1468.59 Q1802.45 1466.44 1799.3 1466.44 M1808.58 1451.78 L1808.58 1456.04 Q1806.82 1455.21 1805.02 1454.77 Q1803.24 1454.33 1801.48 1454.33 Q1796.85 1454.33 1794.39 1457.45 Q1791.96 1460.58 1791.62 1466.9 Q1792.98 1464.89 1795.04 1463.82 Q1797.1 1462.73 1799.58 1462.73 Q1804.79 1462.73 1807.8 1465.9 Q1810.83 1469.05 1810.83 1474.49 Q1810.83 1479.82 1807.68 1483.03 Q1804.53 1486.25 1799.3 1486.25 Q1793.31 1486.25 1790.14 1481.67 Q1786.96 1477.06 1786.96 1468.33 Q1786.96 1460.14 1790.85 1455.28 Q1794.74 1450.39 1801.29 1450.39 Q1803.05 1450.39 1804.83 1450.74 Q1806.64 1451.09 1808.58 1451.78 Z" fill="#000000" fill-rule="evenodd" fill-opacity="1" /><path clip-path="url(#clip950)" d="M2293.43 1469.17 Q2290.09 1469.17 2288.17 1470.95 Q2286.27 1472.73 2286.27 1475.86 Q2286.27 1478.98 2288.17 1480.77 Q2290.09 1482.55 2293.43 1482.55 Q2296.76 1482.55 2298.68 1480.77 Q2300.6 1478.96 2300.6 1475.86 Q2300.6 1472.73 2298.68 1470.95 Q2296.78 1469.17 2293.43 1469.17 M2288.75 1467.18 Q2285.74 1466.44 2284.05 1464.38 Q2282.39 1462.32 2282.39 1459.35 Q2282.39 1455.21 2285.32 1452.8 Q2288.29 1450.39 2293.43 1450.39 Q2298.59 1450.39 2301.53 1452.8 Q2304.47 1455.21 2304.47 1459.35 Q2304.47 1462.32 2302.78 1464.38 Q2301.11 1466.44 2298.13 1467.18 Q2301.51 1467.96 2303.38 1470.26 Q2305.28 1472.55 2305.28 1475.86 Q2305.28 1480.88 2302.2 1483.57 Q2299.14 1486.25 2293.43 1486.25 Q2287.71 1486.25 2284.63 1483.57 Q2281.57 1480.88 2281.57 1475.86 Q2281.57 1472.55 2283.47 1470.26 Q2285.37 1467.96 2288.75 1467.18 M2287.04 1459.79 Q2287.04 1462.48 2288.7 1463.98 Q2290.39 1465.49 2293.43 1465.49 Q2296.44 1465.49 2298.13 1463.98 Q2299.84 1462.48 2299.84 1459.79 Q2299.84 1457.11 2298.13 1455.6 Q2296.44 1454.1 2293.43 1454.1 Q2290.39 1454.1 2288.7 1455.6 Q2287.04 1457.11 2287.04 1459.79 Z" fill="#000000" fill-rule="evenodd" fill-opacity="1" /><path clip-path="url(#clip950)" d="M1185.12 1550.12 Q1178.02 1550.12 1175.29 1551.75 Q1172.55 1553.37 1172.55 1557.29 Q1172.55 1560.4 1174.59 1562.25 Q1176.65 1564.07 1180.19 1564.07 Q1185.06 1564.07 1187.99 1560.63 Q1190.95 1557.16 1190.95 1551.43 L1190.95 1550.12 L1185.12 1550.12 M1196.8 1547.71 L1196.8 1568.04 L1190.95 1568.04 L1190.95 1562.63 Q1188.94 1565.88 1185.95 1567.44 Q1182.96 1568.97 1178.63 1568.97 Q1173.15 1568.97 1169.91 1565.91 Q1166.69 1562.82 1166.69 1557.67 Q1166.69 1551.65 1170.7 1548.6 Q1174.74 1545.54 1182.73 1545.54 L1190.95 1545.54 L1190.95 1544.97 Q1190.95 1540.93 1188.27 1538.73 Q1185.63 1536.5 1180.82 1536.5 Q1177.77 1536.5 1174.87 1537.23 Q1171.98 1537.97 1169.3 1539.43 L1169.3 1534.02 Q1172.52 1532.78 1175.54 1532.17 Q1178.56 1531.54 1181.43 1531.54 Q1189.16 1531.54 1192.98 1535.55 Q1196.8 1539.56 1196.8 1547.71 Z" fill="#000000" fill-rule="evenodd" fill-opacity="1" /><path clip-path="url(#clip950)" d="M1208.87 1518.52 L1214.72 1518.52 L1214.72 1568.04 L1208.87 1568.04 L1208.87 1518.52 Z" fill="#000000" fill-rule="evenodd" fill-opacity="1" /><path clip-path="url(#clip950)" d="M1232.64 1562.7 L1232.64 1581.6 L1226.75 1581.6 L1226.75 1532.4 L1232.64 1532.4 L1232.64 1537.81 Q1234.49 1534.62 1237.29 1533.1 Q1240.12 1531.54 1244.04 1531.54 Q1250.53 1531.54 1254.57 1536.69 Q1258.64 1541.85 1258.64 1550.25 Q1258.64 1558.65 1254.57 1563.81 Q1250.53 1568.97 1244.04 1568.97 Q1240.12 1568.97 1237.29 1567.44 Q1234.49 1565.88 1232.64 1562.7 M1252.57 1550.25 Q1252.57 1543.79 1249.89 1540.13 Q1247.25 1536.44 1242.6 1536.44 Q1237.96 1536.44 1235.28 1540.13 Q1232.64 1543.79 1232.64 1550.25 Q1232.64 1556.71 1235.28 1560.4 Q1237.96 1564.07 1242.6 1564.07 Q1247.25 1564.07 1249.89 1560.4 Q1252.57 1556.71 1252.57 1550.25 Z" fill="#000000" fill-rule="evenodd" fill-opacity="1" /><path clip-path="url(#clip950)" d="M1297.98 1546.53 L1297.98 1568.04 L1292.13 1568.04 L1292.13 1546.72 Q1292.13 1541.66 1290.16 1539.14 Q1288.18 1536.63 1284.23 1536.63 Q1279.49 1536.63 1276.76 1539.65 Q1274.02 1542.68 1274.02 1547.9 L1274.02 1568.04 L1268.13 1568.04 L1268.13 1518.52 L1274.02 1518.52 L1274.02 1537.93 Q1276.12 1534.72 1278.95 1533.13 Q1281.82 1531.54 1285.54 1531.54 Q1291.68 1531.54 1294.83 1535.36 Q1297.98 1539.14 1297.98 1546.53 Z" fill="#000000" fill-rule="evenodd" fill-opacity="1" /><path clip-path="url(#clip950)" d="M1325.87 1550.12 Q1318.77 1550.12 1316.03 1551.75 Q1313.29 1553.37 1313.29 1557.29 Q1313.29 1560.4 1315.33 1562.25 Q1317.4 1564.07 1320.93 1564.07 Q1325.8 1564.07 1328.73 1560.63 Q1331.69 1557.16 1331.69 1551.43 L1331.69 1550.12 L1325.87 1550.12 M1337.55 1547.71 L1337.55 1568.04 L1331.69 1568.04 L1331.69 1562.63 Q1329.69 1565.88 1326.69 1567.44 Q1323.7 1568.97 1319.37 1568.97 Q1313.9 1568.97 1310.65 1565.91 Q1307.44 1562.82 1307.44 1557.67 Q1307.44 1551.65 1311.45 1548.6 Q1315.49 1545.54 1323.48 1545.54 L1331.69 1545.54 L1331.69 1544.97 Q1331.69 1540.93 1329.02 1538.73 Q1326.38 1536.5 1321.57 1536.5 Q1318.51 1536.5 1315.62 1537.23 Q1312.72 1537.97 1310.05 1539.43 L1310.05 1534.02 Q1313.26 1532.78 1316.29 1532.17 Q1319.31 1531.54 1322.17 1531.54 Q1329.91 1531.54 1333.73 1535.55 Q1337.55 1539.56 1337.55 1547.71 Z" fill="#000000" fill-rule="evenodd" fill-opacity="1" /><path clip-path="url(#clip950)" d="M1369.79 1518.52 L1383.29 1518.52 L1383.29 1523.07 L1375.65 1523.07 L1375.65 1572.09 L1383.29 1572.09 L1383.29 1576.64 L1369.79 1576.64 L1369.79 1518.52 Z" fill="#000000" fill-rule="evenodd" fill-opacity="1" /><path clip-path="url(#clip950)" d="M1405.92 1523.77 Q1403.37 1523.77 1401.62 1525.55 Q1399.87 1527.3 1399.87 1529.85 Q1399.87 1532.36 1401.62 1534.11 Q1403.37 1535.83 1405.92 1535.83 Q1408.46 1535.83 1410.21 1534.11 Q1411.96 1532.36 1411.96 1529.85 Q1411.96 1527.34 1410.18 1525.55 Q1408.43 1523.77 1405.92 1523.77 M1405.92 1519.66 Q1407.95 1519.66 1409.83 1520.46 Q1411.71 1521.22 1413.08 1522.69 Q1414.54 1524.12 1415.27 1525.93 Q1416.01 1527.75 1416.01 1529.85 Q1416.01 1534.05 1413.05 1536.98 Q1410.12 1539.88 1405.85 1539.88 Q1401.55 1539.88 1398.69 1537.01 Q1395.83 1534.15 1395.83 1529.85 Q1395.83 1525.58 1398.75 1522.62 Q1401.68 1519.66 1405.92 1519.66 Z" fill="#000000" fill-rule="evenodd" fill-opacity="1" /><path clip-path="url(#clip950)" d="M1442.04 1518.52 L1442.04 1576.64 L1428.55 1576.64 L1428.55 1572.09 L1436.15 1572.09 L1436.15 1523.07 L1428.55 1523.07 L1428.55 1518.52 L1442.04 1518.52 Z" fill="#000000" fill-rule="evenodd" fill-opacity="1" /><polyline clip-path="url(#clip952)" style="stroke:#000000; stroke-linecap:butt; stroke-linejoin:round; stroke-width:2; stroke-opacity:0.1; fill:none" points="
  255.977,1389.69 2352.76,1389.69 
  "/>
<polyline clip-path="url(#clip952)" style="stroke:#000000; stroke-linecap:butt; stroke-linejoin:round; stroke-width:2; stroke-opacity:0.1; fill:none" points="
  255.977,1164.44 2352.76,1164.44 
  "/>
<polyline clip-path="url(#clip952)" style="stroke:#000000; stroke-linecap:butt; stroke-linejoin:round; stroke-width:2; stroke-opacity:0.1; fill:none" points="
  255.977,939.19 2352.76,939.19 
  "/>
<polyline clip-path="url(#clip952)" style="stroke:#000000; stroke-linecap:butt; stroke-linejoin:round; stroke-width:2; stroke-opacity:0.1; fill:none" points="
  255.977,713.941 2352.76,713.941 
  "/>
<polyline clip-path="url(#clip952)" style="stroke:#000000; stroke-linecap:butt; stroke-linejoin:round; stroke-width:2; stroke-opacity:0.1; fill:none" points="
  255.977,488.692 2352.76,488.692 
  "/>
<polyline clip-path="url(#clip952)" style="stroke:#000000; stroke-linecap:butt; stroke-linejoin:round; stroke-width:2; stroke-opacity:0.1; fill:none" points="
  255.977,263.443 2352.76,263.443 
  "/>
<polyline clip-path="url(#clip950)" style="stroke:#000000; stroke-linecap:butt; stroke-linejoin:round; stroke-width:4; stroke-opacity:1; fill:none" points="
  255.977,1423.18 255.977,123.472 
  "/>
<polyline clip-path="url(#clip950)" style="stroke:#000000; stroke-linecap:butt; stroke-linejoin:round; stroke-width:4; stroke-opacity:1; fill:none" points="
  255.977,1389.69 274.875,1389.69 
  "/>
<polyline clip-path="url(#clip950)" style="stroke:#000000; stroke-linecap:butt; stroke-linejoin:round; stroke-width:4; stroke-opacity:1; fill:none" points="
  255.977,1164.44 274.875,1164.44 
  "/>
<polyline clip-path="url(#clip950)" style="stroke:#000000; stroke-linecap:butt; stroke-linejoin:round; stroke-width:4; stroke-opacity:1; fill:none" points="
  255.977,939.19 274.875,939.19 
  "/>
<polyline clip-path="url(#clip950)" style="stroke:#000000; stroke-linecap:butt; stroke-linejoin:round; stroke-width:4; stroke-opacity:1; fill:none" points="
  255.977,713.941 274.875,713.941 
  "/>
<polyline clip-path="url(#clip950)" style="stroke:#000000; stroke-linecap:butt; stroke-linejoin:round; stroke-width:4; stroke-opacity:1; fill:none" points="
  255.977,488.692 274.875,488.692 
  "/>
<polyline clip-path="url(#clip950)" style="stroke:#000000; stroke-linecap:butt; stroke-linejoin:round; stroke-width:4; stroke-opacity:1; fill:none" points="
  255.977,263.443 274.875,263.443 
  "/>
<path clip-path="url(#clip950)" d="M114.631 1390.14 L144.306 1390.14 L144.306 1394.07 L114.631 1394.07 L114.631 1390.14 Z" fill="#000000" fill-rule="evenodd" fill-opacity="1" /><path clip-path="url(#clip950)" d="M164.399 1375.49 Q160.788 1375.49 158.959 1379.05 Q157.153 1382.59 157.153 1389.72 Q157.153 1396.83 158.959 1400.39 Q160.788 1403.94 164.399 1403.94 Q168.033 1403.94 169.839 1400.39 Q171.667 1396.83 171.667 1389.72 Q171.667 1382.59 169.839 1379.05 Q168.033 1375.49 164.399 1375.49 M164.399 1371.78 Q170.209 1371.78 173.264 1376.39 Q176.343 1380.97 176.343 1389.72 Q176.343 1398.45 173.264 1403.06 Q170.209 1407.64 164.399 1407.64 Q158.589 1407.64 155.51 1403.06 Q152.454 1398.45 152.454 1389.72 Q152.454 1380.97 155.51 1376.39 Q158.589 1371.78 164.399 1371.78 Z" fill="#000000" fill-rule="evenodd" fill-opacity="1" /><path clip-path="url(#clip950)" d="M184.561 1401.09 L189.445 1401.09 L189.445 1406.97 L184.561 1406.97 L184.561 1401.09 Z" fill="#000000" fill-rule="evenodd" fill-opacity="1" /><path clip-path="url(#clip950)" d="M203.658 1403.03 L219.977 1403.03 L219.977 1406.97 L198.033 1406.97 L198.033 1403.03 Q200.695 1400.28 205.278 1395.65 Q209.885 1391 211.065 1389.65 Q213.311 1387.13 214.19 1385.39 Q215.093 1383.63 215.093 1381.94 Q215.093 1379.19 213.149 1377.45 Q211.227 1375.72 208.125 1375.72 Q205.926 1375.72 203.473 1376.48 Q201.042 1377.25 198.264 1378.8 L198.264 1374.07 Q201.088 1372.94 203.542 1372.36 Q205.996 1371.78 208.033 1371.78 Q213.403 1371.78 216.598 1374.47 Q219.792 1377.15 219.792 1381.64 Q219.792 1383.77 218.982 1385.69 Q218.195 1387.59 216.088 1390.19 Q215.51 1390.86 212.408 1394.07 Q209.306 1397.27 203.658 1403.03 Z" fill="#000000" fill-rule="evenodd" fill-opacity="1" /><path clip-path="url(#clip950)" d="M114.26 1164.89 L143.936 1164.89 L143.936 1168.83 L114.26 1168.83 L114.26 1164.89 Z" fill="#000000" fill-rule="evenodd" fill-opacity="1" /><path clip-path="url(#clip950)" d="M164.028 1150.24 Q160.417 1150.24 158.589 1153.8 Q156.783 1157.34 156.783 1164.47 Q156.783 1171.58 158.589 1175.14 Q160.417 1178.69 164.028 1178.69 Q167.663 1178.69 169.468 1175.14 Q171.297 1171.58 171.297 1164.47 Q171.297 1157.34 169.468 1153.8 Q167.663 1150.24 164.028 1150.24 M164.028 1146.53 Q169.839 1146.53 172.894 1151.14 Q175.973 1155.72 175.973 1164.47 Q175.973 1173.2 172.894 1177.81 Q169.839 1182.39 164.028 1182.39 Q158.218 1182.39 155.14 1177.81 Q152.084 1173.2 152.084 1164.47 Q152.084 1155.72 155.14 1151.14 Q158.218 1146.53 164.028 1146.53 Z" fill="#000000" fill-rule="evenodd" fill-opacity="1" /><path clip-path="url(#clip950)" d="M184.19 1175.84 L189.075 1175.84 L189.075 1181.72 L184.19 1181.72 L184.19 1175.84 Z" fill="#000000" fill-rule="evenodd" fill-opacity="1" /><path clip-path="url(#clip950)" d="M200.07 1177.78 L207.709 1177.78 L207.709 1151.42 L199.399 1153.08 L199.399 1148.83 L207.662 1147.16 L212.338 1147.16 L212.338 1177.78 L219.977 1177.78 L219.977 1181.72 L200.07 1181.72 L200.07 1177.78 Z" fill="#000000" fill-rule="evenodd" fill-opacity="1" /><path clip-path="url(#clip950)" d="M162.802 924.989 Q159.19 924.989 157.362 928.553 Q155.556 932.095 155.556 939.225 Q155.556 946.331 157.362 949.896 Q159.19 953.438 162.802 953.438 Q166.436 953.438 168.241 949.896 Q170.07 946.331 170.07 939.225 Q170.07 932.095 168.241 928.553 Q166.436 924.989 162.802 924.989 M162.802 921.285 Q168.612 921.285 171.667 925.891 Q174.746 930.475 174.746 939.225 Q174.746 947.951 171.667 952.558 Q168.612 957.141 162.802 957.141 Q156.991 957.141 153.913 952.558 Q150.857 947.951 150.857 939.225 Q150.857 930.475 153.913 925.891 Q156.991 921.285 162.802 921.285 Z" fill="#000000" fill-rule="evenodd" fill-opacity="1" /><path clip-path="url(#clip950)" d="M182.963 950.59 L187.848 950.59 L187.848 956.47 L182.963 956.47 L182.963 950.59 Z" fill="#000000" fill-rule="evenodd" fill-opacity="1" /><path clip-path="url(#clip950)" d="M208.033 924.989 Q204.422 924.989 202.593 928.553 Q200.787 932.095 200.787 939.225 Q200.787 946.331 202.593 949.896 Q204.422 953.438 208.033 953.438 Q211.667 953.438 213.473 949.896 Q215.301 946.331 215.301 939.225 Q215.301 932.095 213.473 928.553 Q211.667 924.989 208.033 924.989 M208.033 921.285 Q213.843 921.285 216.898 925.891 Q219.977 930.475 219.977 939.225 Q219.977 947.951 216.898 952.558 Q213.843 957.141 208.033 957.141 Q202.223 957.141 199.144 952.558 Q196.088 947.951 196.088 939.225 Q196.088 930.475 199.144 925.891 Q202.223 921.285 208.033 921.285 Z" fill="#000000" fill-rule="evenodd" fill-opacity="1" /><path clip-path="url(#clip950)" d="M164.028 699.74 Q160.417 699.74 158.589 703.304 Q156.783 706.846 156.783 713.976 Q156.783 721.082 158.589 724.647 Q160.417 728.189 164.028 728.189 Q167.663 728.189 169.468 724.647 Q171.297 721.082 171.297 713.976 Q171.297 706.846 169.468 703.304 Q167.663 699.74 164.028 699.74 M164.028 696.036 Q169.839 696.036 172.894 700.642 Q175.973 705.226 175.973 713.976 Q175.973 722.703 172.894 727.309 Q169.839 731.892 164.028 731.892 Q158.218 731.892 155.14 727.309 Q152.084 722.703 152.084 713.976 Q152.084 705.226 155.14 700.642 Q158.218 696.036 164.028 696.036 Z" fill="#000000" fill-rule="evenodd" fill-opacity="1" /><path clip-path="url(#clip950)" d="M184.19 725.341 L189.075 725.341 L189.075 731.221 L184.19 731.221 L184.19 725.341 Z" fill="#000000" fill-rule="evenodd" fill-opacity="1" /><path clip-path="url(#clip950)" d="M200.07 727.286 L207.709 727.286 L207.709 700.92 L199.399 702.587 L199.399 698.328 L207.662 696.661 L212.338 696.661 L212.338 727.286 L219.977 727.286 L219.977 731.221 L200.07 731.221 L200.07 727.286 Z" fill="#000000" fill-rule="evenodd" fill-opacity="1" /><path clip-path="url(#clip950)" d="M164.399 474.491 Q160.788 474.491 158.959 478.056 Q157.153 481.597 157.153 488.727 Q157.153 495.833 158.959 499.398 Q160.788 502.94 164.399 502.94 Q168.033 502.94 169.839 499.398 Q171.667 495.833 171.667 488.727 Q171.667 481.597 169.839 478.056 Q168.033 474.491 164.399 474.491 M164.399 470.787 Q170.209 470.787 173.264 475.394 Q176.343 479.977 176.343 488.727 Q176.343 497.454 173.264 502.06 Q170.209 506.643 164.399 506.643 Q158.589 506.643 155.51 502.06 Q152.454 497.454 152.454 488.727 Q152.454 479.977 155.51 475.394 Q158.589 470.787 164.399 470.787 Z" fill="#000000" fill-rule="evenodd" fill-opacity="1" /><path clip-path="url(#clip950)" d="M184.561 500.093 L189.445 500.093 L189.445 505.972 L184.561 505.972 L184.561 500.093 Z" fill="#000000" fill-rule="evenodd" fill-opacity="1" /><path clip-path="url(#clip950)" d="M203.658 502.037 L219.977 502.037 L219.977 505.972 L198.033 505.972 L198.033 502.037 Q200.695 499.282 205.278 494.653 Q209.885 490 211.065 488.657 Q213.311 486.134 214.19 484.398 Q215.093 482.639 215.093 480.949 Q215.093 478.194 213.149 476.458 Q211.227 474.722 208.125 474.722 Q205.926 474.722 203.473 475.486 Q201.042 476.25 198.264 477.801 L198.264 473.079 Q201.088 471.945 203.542 471.366 Q205.996 470.787 208.033 470.787 Q213.403 470.787 216.598 473.472 Q219.792 476.157 219.792 480.648 Q219.792 482.778 218.982 484.699 Q218.195 486.597 216.088 489.19 Q215.51 489.861 212.408 493.079 Q209.306 496.273 203.658 502.037 Z" fill="#000000" fill-rule="evenodd" fill-opacity="1" /><path clip-path="url(#clip950)" d="M163.45 249.242 Q159.839 249.242 158.01 252.807 Q156.204 256.348 156.204 263.478 Q156.204 270.584 158.01 274.149 Q159.839 277.691 163.45 277.691 Q167.084 277.691 168.889 274.149 Q170.718 270.584 170.718 263.478 Q170.718 256.348 168.889 252.807 Q167.084 249.242 163.45 249.242 M163.45 245.538 Q169.26 245.538 172.315 250.145 Q175.394 254.728 175.394 263.478 Q175.394 272.205 172.315 276.811 Q169.26 281.395 163.45 281.395 Q157.64 281.395 154.561 276.811 Q151.505 272.205 151.505 263.478 Q151.505 254.728 154.561 250.145 Q157.64 245.538 163.45 245.538 Z" fill="#000000" fill-rule="evenodd" fill-opacity="1" /><path clip-path="url(#clip950)" d="M183.612 274.844 L188.496 274.844 L188.496 280.723 L183.612 280.723 L183.612 274.844 Z" fill="#000000" fill-rule="evenodd" fill-opacity="1" /><path clip-path="url(#clip950)" d="M212.848 262.089 Q216.204 262.807 218.079 265.075 Q219.977 267.344 219.977 270.677 Q219.977 275.793 216.459 278.594 Q212.94 281.395 206.459 281.395 Q204.283 281.395 201.968 280.955 Q199.676 280.538 197.223 279.682 L197.223 275.168 Q199.167 276.302 201.482 276.881 Q203.797 277.459 206.32 277.459 Q210.718 277.459 213.01 275.723 Q215.324 273.987 215.324 270.677 Q215.324 267.621 213.172 265.908 Q211.042 264.172 207.223 264.172 L203.195 264.172 L203.195 260.33 L207.408 260.33 Q210.857 260.33 212.686 258.964 Q214.514 257.575 214.514 254.983 Q214.514 252.321 212.616 250.909 Q210.741 249.473 207.223 249.473 Q205.301 249.473 203.102 249.89 Q200.903 250.307 198.264 251.186 L198.264 247.02 Q200.926 246.279 203.241 245.909 Q205.579 245.538 207.639 245.538 Q212.963 245.538 216.065 247.969 Q219.167 250.376 219.167 254.497 Q219.167 257.367 217.523 259.358 Q215.88 261.325 212.848 262.089 Z" fill="#000000" fill-rule="evenodd" fill-opacity="1" /><path clip-path="url(#clip950)" d="M20.1444 773.66 L26.9239 773.66 Q23.9002 776.907 22.4043 780.599 Q20.9083 784.259 20.9083 788.397 Q20.9083 796.545 25.9054 800.874 Q30.8707 805.202 40.2919 805.202 Q49.6813 805.202 54.6784 800.874 Q59.6436 796.545 59.6436 788.397 Q59.6436 784.259 58.1477 780.599 Q56.6518 776.907 53.6281 773.66 L60.3439 773.66 Q62.6355 777.034 63.7814 780.822 Q64.9272 784.577 64.9272 788.779 Q64.9272 799.569 58.3387 805.775 Q51.7183 811.982 40.2919 811.982 Q28.8336 811.982 22.2451 805.775 Q15.6248 799.569 15.6248 788.779 Q15.6248 784.514 16.7706 780.758 Q17.8846 776.97 20.1444 773.66 Z" fill="#000000" fill-rule="evenodd" fill-opacity="1" /><path clip-path="url(#clip950)" d="M33.7671 740.527 L14.479 740.527 L14.479 734.67 L64.0042 734.67 L64.0042 740.527 L58.657 740.527 Q61.8398 742.373 63.3994 745.205 Q64.9272 748.006 64.9272 751.953 Q64.9272 758.414 59.771 762.488 Q54.6147 766.531 46.212 766.531 Q37.8093 766.531 32.6531 762.488 Q27.4968 758.414 27.4968 751.953 Q27.4968 748.006 29.0564 745.205 Q30.5842 742.373 33.7671 740.527 M46.212 760.483 Q52.6732 760.483 56.3653 757.841 Q60.0256 755.168 60.0256 750.521 Q60.0256 745.874 56.3653 743.2 Q52.6732 740.527 46.212 740.527 Q39.7508 740.527 36.0905 743.2 Q32.3984 745.874 32.3984 750.521 Q32.3984 755.168 36.0905 757.841 Q39.7508 760.483 46.212 760.483 Z" fill="#000000" fill-rule="evenodd" fill-opacity="1" /><path clip-path="url(#clip950)" d="M368.587 44.2197 Q371.221 45.1109 373.692 48.0275 Q376.203 50.9442 378.715 56.0483 L387.019 72.576 L378.229 72.576 L370.491 57.061 Q367.494 50.9847 364.658 48.9997 Q361.863 47.0148 357.002 47.0148 L348.09 47.0148 L348.09 72.576 L339.907 72.576 L339.907 12.096 L358.379 12.096 Q368.749 12.096 373.854 16.4305 Q378.958 20.7649 378.958 29.5149 Q378.958 35.2267 376.284 38.994 Q373.651 42.7613 368.587 44.2197 M348.09 18.8205 L348.09 40.2903 L358.379 40.2903 Q364.293 40.2903 367.291 37.5762 Q370.329 34.8216 370.329 29.5149 Q370.329 24.2082 367.291 21.5346 Q364.293 18.8205 358.379 18.8205 L348.09 18.8205 Z" fill="#000000" fill-rule="evenodd" fill-opacity="1" /><path clip-path="url(#clip950)" d="M432.308 48.0275 L432.308 51.6733 L398.037 51.6733 Q398.524 59.3701 402.656 63.421 Q406.828 67.4314 414.241 67.4314 Q418.535 67.4314 422.545 66.3781 Q426.596 65.3249 430.566 63.2184 L430.566 70.267 Q426.556 71.9684 422.343 72.8596 Q418.13 73.7508 413.796 73.7508 Q402.939 73.7508 396.579 67.4314 Q390.26 61.1119 390.26 50.3365 Q390.26 39.1965 396.255 32.6746 Q402.291 26.1121 412.499 26.1121 Q421.654 26.1121 426.961 32.0264 Q432.308 37.9003 432.308 48.0275 M424.854 45.84 Q424.773 39.7232 421.411 36.0774 Q418.089 32.4315 412.58 32.4315 Q406.342 32.4315 402.575 35.9558 Q398.848 39.4801 398.281 45.8805 L424.854 45.84 Z" fill="#000000" fill-rule="evenodd" fill-opacity="1" /><path clip-path="url(#clip950)" d="M445.514 34.9026 L497.447 34.9026 L497.447 41.7081 L445.514 41.7081 L445.514 34.9026 M445.514 51.4303 L497.447 51.4303 L497.447 58.3168 L445.514 58.3168 L445.514 51.4303 Z" fill="#000000" fill-rule="evenodd" fill-opacity="1" /><path clip-path="url(#clip950)" d="M516.526 65.6895 L529.894 65.6895 L529.894 19.5497 L515.352 22.4663 L515.352 15.0127 L529.813 12.096 L537.996 12.096 L537.996 65.6895 L551.364 65.6895 L551.364 72.576 L516.526 72.576 L516.526 65.6895 Z" fill="#000000" fill-rule="evenodd" fill-opacity="1" /><path clip-path="url(#clip950)" d="M585.392 17.4837 Q579.072 17.4837 575.872 23.7221 Q572.712 29.92 572.712 42.3968 Q572.712 54.833 575.872 61.0714 Q579.072 67.2693 585.392 67.2693 Q591.752 67.2693 594.911 61.0714 Q598.112 54.833 598.112 42.3968 Q598.112 29.92 594.911 23.7221 Q591.752 17.4837 585.392 17.4837 M585.392 11.0023 Q595.56 11.0023 600.907 19.0636 Q606.294 27.0843 606.294 42.3968 Q606.294 57.6687 600.907 65.73 Q595.56 73.7508 585.392 73.7508 Q575.224 73.7508 569.836 65.73 Q564.489 57.6687 564.489 42.3968 Q564.489 27.0843 569.836 19.0636 Q575.224 11.0023 585.392 11.0023 Z" fill="#000000" fill-rule="evenodd" fill-opacity="1" /><path clip-path="url(#clip950)" d="M638.175 17.4837 Q631.856 17.4837 628.655 23.7221 Q625.496 29.92 625.496 42.3968 Q625.496 54.833 628.655 61.0714 Q631.856 67.2693 638.175 67.2693 Q644.535 67.2693 647.695 61.0714 Q650.895 54.833 650.895 42.3968 Q650.895 29.92 647.695 23.7221 Q644.535 17.4837 638.175 17.4837 M638.175 11.0023 Q648.343 11.0023 653.69 19.0636 Q659.078 27.0843 659.078 42.3968 Q659.078 57.6687 653.69 65.73 Q648.343 73.7508 638.175 73.7508 Q628.007 73.7508 622.62 65.73 Q617.272 57.6687 617.272 42.3968 Q617.272 27.0843 622.62 19.0636 Q628.007 11.0023 638.175 11.0023 Z" fill="#000000" fill-rule="evenodd" fill-opacity="1" /><path clip-path="url(#clip950)" d="M690.958 17.4837 Q684.639 17.4837 681.439 23.7221 Q678.279 29.92 678.279 42.3968 Q678.279 54.833 681.439 61.0714 Q684.639 67.2693 690.958 67.2693 Q697.318 67.2693 700.478 61.0714 Q703.678 54.833 703.678 42.3968 Q703.678 29.92 700.478 23.7221 Q697.318 17.4837 690.958 17.4837 M690.958 11.0023 Q701.126 11.0023 706.473 19.0636 Q711.861 27.0843 711.861 42.3968 Q711.861 57.6687 706.473 65.73 Q701.126 73.7508 690.958 73.7508 Q680.791 73.7508 675.403 65.73 Q670.056 57.6687 670.056 42.3968 Q670.056 27.0843 675.403 19.0636 Q680.791 11.0023 690.958 11.0023 Z" fill="#000000" fill-rule="evenodd" fill-opacity="1" /><path clip-path="url(#clip950)" d="M743.742 17.4837 Q737.422 17.4837 734.222 23.7221 Q731.062 29.92 731.062 42.3968 Q731.062 54.833 734.222 61.0714 Q737.422 67.2693 743.742 67.2693 Q750.102 67.2693 753.261 61.0714 Q756.461 54.833 756.461 42.3968 Q756.461 29.92 753.261 23.7221 Q750.102 17.4837 743.742 17.4837 M743.742 11.0023 Q753.909 11.0023 759.257 19.0636 Q764.644 27.0843 764.644 42.3968 Q764.644 57.6687 759.257 65.73 Q753.909 73.7508 743.742 73.7508 Q733.574 73.7508 728.186 65.73 Q722.839 57.6687 722.839 42.3968 Q722.839 27.0843 728.186 19.0636 Q733.574 11.0023 743.742 11.0023 Z" fill="#000000" fill-rule="evenodd" fill-opacity="1" /><path clip-path="url(#clip950)" d="M779.025 62.2867 L787.572 62.2867 L787.572 72.576 L779.025 72.576 L779.025 62.2867 Z" fill="#000000" fill-rule="evenodd" fill-opacity="1" /><path clip-path="url(#clip950)" d="M822.896 17.4837 Q816.577 17.4837 813.377 23.7221 Q810.217 29.92 810.217 42.3968 Q810.217 54.833 813.377 61.0714 Q816.577 67.2693 822.896 67.2693 Q829.256 67.2693 832.416 61.0714 Q835.616 54.833 835.616 42.3968 Q835.616 29.92 832.416 23.7221 Q829.256 17.4837 822.896 17.4837 M822.896 11.0023 Q833.064 11.0023 838.411 19.0636 Q843.799 27.0843 843.799 42.3968 Q843.799 57.6687 838.411 65.73 Q833.064 73.7508 822.896 73.7508 Q812.729 73.7508 807.341 65.73 Q801.994 57.6687 801.994 42.3968 Q801.994 27.0843 807.341 19.0636 Q812.729 11.0023 822.896 11.0023 Z" fill="#000000" fill-rule="evenodd" fill-opacity="1" /><path clip-path="url(#clip950)" d="M904.117 49.7694 Q895.083 49.7694 891.6 51.8354 Q888.116 53.9013 888.116 58.8839 Q888.116 62.8538 890.708 65.2034 Q893.342 67.5124 897.838 67.5124 Q904.036 67.5124 907.763 63.1374 Q911.53 58.7219 911.53 51.4303 L911.53 49.7694 L904.117 49.7694 M918.984 46.6907 L918.984 72.576 L911.53 72.576 L911.53 65.6895 Q908.978 69.8214 905.17 71.8063 Q901.362 73.7508 895.853 73.7508 Q888.886 73.7508 884.754 69.8619 Q880.662 65.9325 880.662 59.3701 Q880.662 51.7138 885.766 47.825 Q890.911 43.9361 901.079 43.9361 L911.53 43.9361 L911.53 43.2069 Q911.53 38.0623 908.127 35.2672 Q904.765 32.4315 898.648 32.4315 Q894.759 32.4315 891.073 33.3632 Q887.387 34.295 883.984 36.1584 L883.984 29.2718 Q888.075 27.692 891.924 26.9223 Q895.772 26.1121 899.418 26.1121 Q909.262 26.1121 914.123 31.2163 Q918.984 36.3204 918.984 46.6907 Z" fill="#000000" fill-rule="evenodd" fill-opacity="1" /><path clip-path="url(#clip950)" d="M935.309 34.9026 L987.242 34.9026 L987.242 41.7081 L935.309 41.7081 L935.309 34.9026 M935.309 51.4303 L987.242 51.4303 L987.242 58.3168 L935.309 58.3168 L935.309 51.4303 Z" fill="#000000" fill-rule="evenodd" fill-opacity="1" /><path clip-path="url(#clip950)" d="M1022.4 17.4837 Q1016.08 17.4837 1012.88 23.7221 Q1009.72 29.92 1009.72 42.3968 Q1009.72 54.833 1012.88 61.0714 Q1016.08 67.2693 1022.4 67.2693 Q1028.76 67.2693 1031.92 61.0714 Q1035.12 54.833 1035.12 42.3968 Q1035.12 29.92 1031.92 23.7221 Q1028.76 17.4837 1022.4 17.4837 M1022.4 11.0023 Q1032.57 11.0023 1037.92 19.0636 Q1043.31 27.0843 1043.31 42.3968 Q1043.31 57.6687 1037.92 65.73 Q1032.57 73.7508 1022.4 73.7508 Q1012.24 73.7508 1006.85 65.73 Q1001.5 57.6687 1001.5 42.3968 Q1001.5 27.0843 1006.85 19.0636 Q1012.24 11.0023 1022.4 11.0023 Z" fill="#000000" fill-rule="evenodd" fill-opacity="1" /><path clip-path="url(#clip950)" d="M1057.69 62.2867 L1066.23 62.2867 L1066.23 72.576 L1057.69 72.576 L1057.69 62.2867 Z" fill="#000000" fill-rule="evenodd" fill-opacity="1" /><path clip-path="url(#clip950)" d="M1091.11 65.6895 L1119.67 65.6895 L1119.67 72.576 L1081.26 72.576 L1081.26 65.6895 Q1085.92 60.8689 1093.94 52.7671 Q1102 44.6248 1104.07 42.2752 Q1108 37.8598 1109.54 34.8216 Q1111.12 31.7429 1111.12 28.7857 Q1111.12 23.9651 1107.72 20.927 Q1104.35 17.8888 1098.92 17.8888 Q1095.08 17.8888 1090.78 19.2256 Q1086.53 20.5624 1081.67 23.2765 L1081.67 15.0127 Q1086.61 13.0277 1090.9 12.015 Q1095.2 11.0023 1098.76 11.0023 Q1108.16 11.0023 1113.75 15.7013 Q1119.34 20.4004 1119.34 28.2591 Q1119.34 31.9859 1117.92 35.3482 Q1116.55 38.6699 1112.86 43.2069 Q1111.85 44.3817 1106.42 50.0125 Q1100.99 55.6027 1091.11 65.6895 Z" fill="#000000" fill-rule="evenodd" fill-opacity="1" /><path clip-path="url(#clip950)" d="M1136.92 12.096 L1169.05 12.096 L1169.05 18.9825 L1144.42 18.9825 L1144.42 33.8088 Q1146.2 33.2012 1147.98 32.9176 Q1149.76 32.5936 1151.55 32.5936 Q1161.67 32.5936 1167.59 38.1433 Q1173.5 43.6931 1173.5 53.1722 Q1173.5 62.9348 1167.43 68.3631 Q1161.35 73.7508 1150.29 73.7508 Q1146.48 73.7508 1142.51 73.1026 Q1138.58 72.4545 1134.37 71.1582 L1134.37 62.9348 Q1138.02 64.9198 1141.91 65.892 Q1145.79 66.8642 1150.13 66.8642 Q1157.14 66.8642 1161.23 63.1779 Q1165.32 59.4916 1165.32 53.1722 Q1165.32 46.8528 1161.23 43.1664 Q1157.14 39.4801 1150.13 39.4801 Q1146.85 39.4801 1143.57 40.2093 Q1140.33 40.9384 1136.92 42.4778 L1136.92 12.096 Z" fill="#000000" fill-rule="evenodd" fill-opacity="1" /><path clip-path="url(#clip950)" d="M1237.91 9.54393 L1237.91 15.7418 L1230.78 15.7418 Q1226.77 15.7418 1225.19 17.3622 Q1223.65 18.9825 1223.65 23.1955 L1223.65 27.2059 L1235.93 27.2059 L1235.93 32.9987 L1223.65 32.9987 L1223.65 72.576 L1216.16 72.576 L1216.16 32.9987 L1209.03 32.9987 L1209.03 27.2059 L1216.16 27.2059 L1216.16 24.0462 Q1216.16 16.471 1219.68 13.0277 Q1223.21 9.54393 1230.86 9.54393 L1237.91 9.54393 Z" fill="#000000" fill-rule="evenodd" fill-opacity="1" /><path clip-path="url(#clip950)" d="M1245.12 34.9026 L1297.05 34.9026 L1297.05 41.7081 L1245.12 41.7081 L1245.12 34.9026 M1245.12 51.4303 L1297.05 51.4303 L1297.05 58.3168 L1245.12 58.3168 L1245.12 51.4303 Z" fill="#000000" fill-rule="evenodd" fill-opacity="1" /><path clip-path="url(#clip950)" d="M1316.13 65.6895 L1329.5 65.6895 L1329.5 19.5497 L1314.96 22.4663 L1314.96 15.0127 L1329.42 12.096 L1337.6 12.096 L1337.6 65.6895 L1350.97 65.6895 L1350.97 72.576 L1316.13 72.576 L1316.13 65.6895 Z" fill="#000000" fill-rule="evenodd" fill-opacity="1" /><path clip-path="url(#clip950)" d="M1367.5 62.2867 L1376.05 62.2867 L1376.05 72.576 L1367.5 72.576 L1367.5 62.2867 Z" fill="#000000" fill-rule="evenodd" fill-opacity="1" /><path clip-path="url(#clip950)" d="M1411.37 17.4837 Q1405.05 17.4837 1401.85 23.7221 Q1398.69 29.92 1398.69 42.3968 Q1398.69 54.833 1401.85 61.0714 Q1405.05 67.2693 1411.37 67.2693 Q1417.73 67.2693 1420.89 61.0714 Q1424.09 54.833 1424.09 42.3968 Q1424.09 29.92 1420.89 23.7221 Q1417.73 17.4837 1411.37 17.4837 M1411.37 11.0023 Q1421.54 11.0023 1426.89 19.0636 Q1432.27 27.0843 1432.27 42.3968 Q1432.27 57.6687 1426.89 65.73 Q1421.54 73.7508 1411.37 73.7508 Q1401.2 73.7508 1395.82 65.73 Q1390.47 57.6687 1390.47 42.3968 Q1390.47 27.0843 1395.82 19.0636 Q1401.2 11.0023 1411.37 11.0023 Z" fill="#000000" fill-rule="evenodd" fill-opacity="1" /><path clip-path="url(#clip950)" d="M1498.43 51.4708 L1496.64 42.1132 Q1494.82 32.5126 1487.61 32.5126 Q1482.18 32.5126 1479.71 36.9686 Q1476.59 42.5588 1476.59 49.9314 Q1476.59 58.8434 1479.63 63.0969 Q1482.71 67.4314 1487.61 67.4314 Q1493.04 67.4314 1495.95 58.8029 L1498.43 51.4708 M1502.6 39.075 L1506.61 27.2059 L1513.25 27.2059 L1504.95 51.7949 L1506.57 60.6663 Q1506.93 62.6513 1508.35 64.3122 Q1510.01 66.2566 1511.31 66.2566 L1514.87 66.2566 L1514.87 72.576 L1510.42 72.576 Q1506.61 72.576 1503.21 69.1732 Q1501.54 67.4719 1500.86 63.9071 Q1498.99 68.4036 1495.18 71.9279 Q1493.4 73.5887 1487.61 73.5887 Q1478.09 73.5887 1473.47 67.4314 Q1468.73 61.0714 1468.73 49.9314 Q1468.73 38.0218 1473.88 32.4315 Q1479.59 26.1931 1487.61 26.1931 Q1500.21 26.1931 1502.6 39.075 Z" fill="#000000" fill-rule="evenodd" fill-opacity="1" /><path clip-path="url(#clip950)" d="M1546.79 58.2358 L1546.79 72.576 L1542.09 72.576 L1542.09 57.3851 Q1542.09 53.6988 1540.64 51.9569 Q1539.18 50.1745 1536.14 50.1745 Q1532.53 50.1745 1530.43 52.362 Q1528.32 54.509 1528.32 58.2358 L1528.32 72.576 L1523.58 72.576 L1523.58 47.1768 L1528.32 47.1768 L1528.32 51.1062 Q1529.9 48.7972 1532.13 47.7034 Q1534.4 46.5692 1537.52 46.5692 Q1540.6 46.5692 1542.78 47.987 Q1544.97 49.3643 1546.02 52.0379 Q1547.77 49.2428 1550.2 47.906 Q1552.67 46.5692 1555.99 46.5692 Q1560.48 46.5692 1562.87 49.3643 Q1565.31 52.1189 1565.31 57.2231 L1565.31 72.576 L1560.61 72.576 L1560.61 57.3851 Q1560.61 53.7393 1559.15 51.9569 Q1557.69 50.1745 1554.69 50.1745 Q1551.05 50.1745 1548.9 52.362 Q1546.79 54.509 1546.79 58.2358 Z" fill="#000000" fill-rule="evenodd" fill-opacity="1" /><path clip-path="url(#clip950)" d="M1599.9 58.8434 L1599.9 60.8689 L1578.31 60.8689 Q1578.63 65.1628 1581.23 67.4314 Q1583.86 69.6999 1588.52 69.6999 Q1591.23 69.6999 1593.78 69.0922 Q1596.29 68.5251 1598.81 67.3503 L1598.81 71.2797 Q1596.29 72.2519 1593.62 72.738 Q1590.99 73.2241 1588.23 73.2241 Q1581.39 73.2241 1577.42 69.6999 Q1573.41 66.1756 1573.41 60.1397 Q1573.41 53.9013 1577.22 50.215 Q1580.98 46.5692 1587.42 46.5692 Q1593.18 46.5692 1596.54 49.8504 Q1599.9 53.1722 1599.9 58.8434 M1595.2 57.5877 Q1595.16 54.1849 1593.05 52.1189 Q1590.95 50.0935 1587.46 50.0935 Q1583.53 50.0935 1581.19 52.0784 Q1578.84 54.0229 1578.47 57.5877 L1595.2 57.5877 Z" fill="#000000" fill-rule="evenodd" fill-opacity="1" /><path clip-path="url(#clip950)" d="M1623.03 59.8157 Q1617.36 59.8157 1615.17 60.9499 Q1612.94 62.1247 1612.94 64.9198 Q1612.94 67.1478 1614.61 68.4441 Q1616.27 69.7404 1619.1 69.7404 Q1622.99 69.7404 1625.34 67.2693 Q1627.73 64.7983 1627.73 60.7474 L1627.73 59.8157 L1623.03 59.8157 M1632.39 58.0738 L1632.39 72.576 L1627.73 72.576 L1627.73 68.7276 Q1626.11 71.0367 1623.72 72.1304 Q1621.29 73.2241 1617.85 73.2241 Q1613.43 73.2241 1610.84 71.0367 Q1608.25 68.8492 1608.25 65.1628 Q1608.25 60.9094 1611.49 58.7219 Q1614.73 56.5344 1621.13 56.5344 L1627.73 56.5344 L1627.73 56.1293 Q1627.73 53.2532 1625.58 51.6733 Q1623.44 50.0935 1619.59 50.0935 Q1617.16 50.0935 1614.81 50.6201 Q1612.5 51.1467 1610.35 52.2 L1610.35 48.3111 Q1612.94 47.4604 1615.37 47.0148 Q1617.76 46.5692 1620.07 46.5692 Q1626.27 46.5692 1629.35 49.4048 Q1632.39 52.281 1632.39 58.0738 Z" fill="#000000" fill-rule="evenodd" fill-opacity="1" /><path clip-path="url(#clip950)" d="M1666.29 57.2231 L1666.29 72.576 L1661.6 72.576 L1661.6 57.3851 Q1661.6 53.7798 1660.02 51.9974 Q1658.44 50.1745 1655.28 50.1745 Q1651.47 50.1745 1649.28 52.362 Q1647.09 54.509 1647.09 58.2358 L1647.09 72.576 L1642.35 72.576 L1642.35 47.1768 L1647.09 47.1768 L1647.09 51.1062 Q1648.75 48.8377 1651.02 47.7034 Q1653.33 46.5692 1656.33 46.5692 Q1661.23 46.5692 1663.74 49.2833 Q1666.29 51.9974 1666.29 57.2231 Z" fill="#000000" fill-rule="evenodd" fill-opacity="1" /><path clip-path="url(#clip950)" d="M1679.46 34.9026 L1731.39 34.9026 L1731.39 41.7081 L1679.46 41.7081 L1679.46 34.9026 M1679.46 51.4303 L1731.39 51.4303 L1731.39 58.3168 L1679.46 58.3168 L1679.46 51.4303 Z" fill="#000000" fill-rule="evenodd" fill-opacity="1" /><path clip-path="url(#clip950)" d="M1771.54 19.2256 L1750.88 51.5113 L1771.54 51.5113 L1771.54 19.2256 M1769.39 12.096 L1779.68 12.096 L1779.68 51.5113 L1788.31 51.5113 L1788.31 58.3168 L1779.68 58.3168 L1779.68 72.576 L1771.54 72.576 L1771.54 58.3168 L1744.23 58.3168 L1744.23 50.4176 L1769.39 12.096 Z" fill="#000000" fill-rule="evenodd" fill-opacity="1" /><path clip-path="url(#clip950)" d="M1801.84 62.2867 L1810.39 62.2867 L1810.39 72.576 L1801.84 72.576 L1801.84 62.2867 Z" fill="#000000" fill-rule="evenodd" fill-opacity="1" /><path clip-path="url(#clip950)" d="M1845.71 17.4837 Q1839.39 17.4837 1836.19 23.7221 Q1833.03 29.92 1833.03 42.3968 Q1833.03 54.833 1836.19 61.0714 Q1839.39 67.2693 1845.71 67.2693 Q1852.07 67.2693 1855.23 61.0714 Q1858.43 54.833 1858.43 42.3968 Q1858.43 29.92 1855.23 23.7221 Q1852.07 17.4837 1845.71 17.4837 M1845.71 11.0023 Q1855.88 11.0023 1861.22 19.0636 Q1866.61 27.0843 1866.61 42.3968 Q1866.61 57.6687 1861.22 65.73 Q1855.88 73.7508 1845.71 73.7508 Q1835.54 73.7508 1830.15 65.73 Q1824.81 57.6687 1824.81 42.3968 Q1824.81 27.0843 1830.15 19.0636 Q1835.54 11.0023 1845.71 11.0023 Z" fill="#000000" fill-rule="evenodd" fill-opacity="1" /><path clip-path="url(#clip950)" d="M1932.76 51.4708 L1930.98 42.1132 Q1929.16 32.5126 1921.95 32.5126 Q1916.52 32.5126 1914.05 36.9686 Q1910.93 42.5588 1910.93 49.9314 Q1910.93 58.8434 1913.97 63.0969 Q1917.05 67.4314 1921.95 67.4314 Q1927.38 67.4314 1930.29 58.8029 L1932.76 51.4708 M1936.94 39.075 L1940.95 27.2059 L1947.59 27.2059 L1939.29 51.7949 L1940.91 60.6663 Q1941.27 62.6513 1942.69 64.3122 Q1944.35 66.2566 1945.64 66.2566 L1949.21 66.2566 L1949.21 72.576 L1944.75 72.576 Q1940.95 72.576 1937.54 69.1732 Q1935.88 67.4719 1935.19 63.9071 Q1933.33 68.4036 1929.52 71.9279 Q1927.74 73.5887 1921.95 73.5887 Q1912.43 73.5887 1907.81 67.4314 Q1903.07 61.0714 1903.07 49.9314 Q1903.07 38.0218 1908.21 32.4315 Q1913.93 26.1931 1921.95 26.1931 Q1934.55 26.1931 1936.94 39.075 Z" fill="#000000" fill-rule="evenodd" fill-opacity="1" /><path clip-path="url(#clip950)" d="M1971.08 59.8157 Q1965.41 59.8157 1963.23 60.9499 Q1961 62.1247 1961 64.9198 Q1961 67.1478 1962.66 68.4441 Q1964.32 69.7404 1967.16 69.7404 Q1971.04 69.7404 1973.39 67.2693 Q1975.78 64.7983 1975.78 60.7474 L1975.78 59.8157 L1971.08 59.8157 M1980.44 58.0738 L1980.44 72.576 L1975.78 72.576 L1975.78 68.7276 Q1974.16 71.0367 1971.77 72.1304 Q1969.34 73.2241 1965.9 73.2241 Q1961.48 73.2241 1958.89 71.0367 Q1956.3 68.8492 1956.3 65.1628 Q1956.3 60.9094 1959.54 58.7219 Q1962.78 56.5344 1969.18 56.5344 L1975.78 56.5344 L1975.78 56.1293 Q1975.78 53.2532 1973.64 51.6733 Q1971.49 50.0935 1967.64 50.0935 Q1965.21 50.0935 1962.86 50.6201 Q1960.55 51.1467 1958.41 52.2 L1958.41 48.3111 Q1961 47.4604 1963.43 47.0148 Q1965.82 46.5692 1968.13 46.5692 Q1974.33 46.5692 1977.4 49.4048 Q1980.44 52.281 1980.44 58.0738 Z" fill="#000000" fill-rule="evenodd" fill-opacity="1" /><path clip-path="url(#clip950)" d="M2013.62 58.2358 L2013.62 72.576 L2008.92 72.576 L2008.92 57.3851 Q2008.92 53.6988 2007.46 51.9569 Q2006 50.1745 2002.97 50.1745 Q1999.36 50.1745 1997.25 52.362 Q1995.15 54.509 1995.15 58.2358 L1995.15 72.576 L1990.41 72.576 L1990.41 47.1768 L1995.15 47.1768 L1995.15 51.1062 Q1996.73 48.7972 1998.95 47.7034 Q2001.22 46.5692 2004.34 46.5692 Q2007.42 46.5692 2009.61 47.987 Q2011.8 49.3643 2012.85 52.0379 Q2014.59 49.2428 2017.02 47.906 Q2019.49 46.5692 2022.81 46.5692 Q2027.31 46.5692 2029.7 49.3643 Q2032.13 52.1189 2032.13 57.2231 L2032.13 72.576 L2027.43 72.576 L2027.43 57.3851 Q2027.43 53.7393 2025.97 51.9569 Q2024.52 50.1745 2021.52 50.1745 Q2017.87 50.1745 2015.73 52.362 Q2013.62 54.509 2013.62 58.2358 Z" fill="#000000" fill-rule="evenodd" fill-opacity="1" /><path clip-path="url(#clip950)" d="M2046.84 68.7682 L2046.84 82.2577 L2042.1 82.2577 L2042.1 47.1768 L2046.84 47.1768 L2046.84 51.0252 Q2048.29 48.7567 2050.56 47.6629 Q2052.83 46.5692 2055.95 46.5692 Q2061.18 46.5692 2064.42 50.215 Q2067.66 53.9013 2067.66 59.8967 Q2067.66 65.892 2064.42 69.5783 Q2061.18 73.2241 2055.95 73.2241 Q2052.83 73.2241 2050.56 72.1304 Q2048.29 71.0367 2046.84 68.7682 M2060.69 67.1073 Q2062.8 64.5147 2062.8 59.8967 Q2062.8 55.2786 2060.69 52.6861 Q2058.54 50.053 2054.82 50.053 Q2051.09 50.053 2048.94 52.6861 Q2046.84 55.2786 2046.84 59.8967 Q2046.84 64.5147 2048.94 67.1073 Q2051.09 69.7404 2054.82 69.7404 Q2058.54 69.7404 2060.69 67.1073 Z" fill="#000000" fill-rule="evenodd" fill-opacity="1" /><path clip-path="url(#clip950)" d="M2081.67 34.9026 L2133.61 34.9026 L2133.61 41.7081 L2081.67 41.7081 L2081.67 34.9026 M2081.67 51.4303 L2133.61 51.4303 L2133.61 58.3168 L2081.67 58.3168 L2081.67 51.4303 Z" fill="#000000" fill-rule="evenodd" fill-opacity="1" /><path clip-path="url(#clip950)" d="M2173.75 19.2256 L2153.09 51.5113 L2173.75 51.5113 L2173.75 19.2256 M2171.6 12.096 L2181.89 12.096 L2181.89 51.5113 L2190.52 51.5113 L2190.52 58.3168 L2181.89 58.3168 L2181.89 72.576 L2173.75 72.576 L2173.75 58.3168 L2146.45 58.3168 L2146.45 50.4176 L2171.6 12.096 Z" fill="#000000" fill-rule="evenodd" fill-opacity="1" /><path clip-path="url(#clip950)" d="M2204.05 62.2867 L2212.6 62.2867 L2212.6 72.576 L2204.05 72.576 L2204.05 62.2867 Z" fill="#000000" fill-rule="evenodd" fill-opacity="1" /><path clip-path="url(#clip950)" d="M2247.92 17.4837 Q2241.6 17.4837 2238.4 23.7221 Q2235.24 29.92 2235.24 42.3968 Q2235.24 54.833 2238.4 61.0714 Q2241.6 67.2693 2247.92 67.2693 Q2254.28 67.2693 2257.44 61.0714 Q2260.64 54.833 2260.64 42.3968 Q2260.64 29.92 2257.44 23.7221 Q2254.28 17.4837 2247.92 17.4837 M2247.92 11.0023 Q2258.09 11.0023 2263.44 19.0636 Q2268.83 27.0843 2268.83 42.3968 Q2268.83 57.6687 2263.44 65.73 Q2258.09 73.7508 2247.92 73.7508 Q2237.76 73.7508 2232.37 65.73 Q2227.02 57.6687 2227.02 42.3968 Q2227.02 27.0843 2232.37 19.0636 Q2237.76 11.0023 2247.92 11.0023 Z" fill="#000000" fill-rule="evenodd" fill-opacity="1" /><polyline clip-path="url(#clip952)" style="stroke:#009af9; stroke-linecap:butt; stroke-linejoin:round; stroke-width:4; stroke-opacity:1; fill:none" points="
  1304.37,939.19 1887.4,1264.24 2246.29,837.934 2243.07,397.462 1878.98,254.37 1293.97,511.448 712.969,824.683 359.32,998.827 368.985,1015.27 738.248,1091.27 
  1325.15,1308.51 1904.06,1231.26 2252.43,854.327 2236.32,462.32 1861.93,345.264 1273.2,576.997 696.442,873.45 353.398,1012.34 375.945,1028.9 755.414,1094.97 
  1345.92,1288.16 1920.45,1214.85 2258.14,858.889 2229.15,464.976 1844.64,368.125 1252.43,624.872 680.183,900.466 347.896,1016.57 383.315,1037.13 772.823,1107.26 
  1366.68,1302.16 1936.58,1190.34 2263.43,874.158 2221.58,469.535 1827.12,350.876 1231.69,643.359 664.199,915.907 342.816,1020.34 391.092,1044.37 790.467,1114.67 
  1387.41,1303.99 1952.42,1175.68 2268.3,875.449 2213.6,448.972 1809.36,345.549 1210.98,643.048 648.498,924.346 338.161,1027.21 399.272,1054.03 808.337,1122.49 
  1408.1,1301.78 1967.98,1178.88 2272.74,851.794 2205.22,439.714 1791.38,329.423 1190.31,635.411 633.087,930.385 333.933,1034 407.852,1063.22 826.427,1131.69 
  1428.74,1308.08 1983.24,1163.85 2276.75,824.269 2196.44,409.639 1773.18,321.017 1169.69,630.002 617.972,942.148 330.133,1039.67 416.827,1071.75 844.727,1135.44 
  1449.33,1331.73 1998.2,1179.54 2280.34,779.95 2187.27,383.809 1754.78,318.921 1149.13,628.32 603.161,946.033 326.763,1042.64 426.195,1077.53 863.231,1147.77 
  1469.86,1355.7 2012.86,1169.17 2283.49,771.368 2177.71,405.874 1736.18,330.25 1128.64,623.061 588.659,953.89 323.824,1045.28 435.95,1082.77 881.929,1159.88 
  1490.31,1386.4 2027.21,1186.54 2286.22,758.292 2167.76,386.356 1717.38,352.852 1108.23,622.546 574.473,963.602 321.319,1047.25 446.089,1087.47 900.814,1186.64 
  1510.68,1352.96 2041.23,1212.19 2288.5,730.873 2157.43,360.248 1698.41,387.861 1087.9,637.333 560.609,975.462 319.248,1049.39 456.606,1092.38 919.877,1163.49 
  1530.96,1331.32 2054.93,1212.51 2290.36,724.015 2146.73,399.805 1679.26,377.434 1067.67,663.117 547.074,985.085 317.612,1050.73 467.498,1096.81 939.11,1142.89 
  1551.14,1283.79 2068.3,1214.32 2291.78,705.883 2135.65,377.472 1659.95,381.522 1047.54,680.485 533.873,996.548 316.412,1052.55 478.76,1102.21 958.504,1130.36 
  1571.21,1261.84 2081.33,1214.89 2292.76,691.396 2124.21,444.616 1640.47,383.266 1027.53,679.565 521.012,998.604 315.648,1054.76 490.386,1106.84 978.051,1130.24 
  1591.16,1259.35 2094.02,1237.85 2293.3,689.435 2112.4,417.659 1620.85,396.645 1007.64,689.053 508.497,996.982 315.32,1056.75 502.372,1106.8 997.742,1131.01 
  1610.99,1247.79 2106.36,1125.65 2293.41,657.253 2100.24,492.743 1601.09,397.207 987.879,688.097 496.334,1027.47 315.429,1059.64 514.711,1072.36 1017.57,1156.58 
  1630.68,1245.62 2118.35,1141.06 2293.09,653.05 2087.72,464.842 1581.2,405.747 968.259,693.884 484.528,1034.65 315.975,1061.67 527.4,1096.95 1037.52,1163.58 
  1650.23,1241.46 2129.97,1067.54 2292.32,625.134 2074.86,442.058 1561.19,427.155 948.787,698.406 473.083,1035.99 316.957,1064.1 540.431,1094.7 1057.59,1167.29 
  1669.62,1237.6 2141.23,1047.02 2291.12,613.645 2061.66,417.367 1541.06,449.932 929.473,717.051 462.006,1037.32 318.376,1066.08 553.8,1092.59 1077.77,1154.8 
  1688.86,1232.12 2152.13,1049.02 2289.48,593.954 2048.12,388.384 1520.83,483.59 910.324,755.247 451.3,1038.76 320.229,1067.38 567.5,1088.82 1098.05,1110.05 
  1707.92,1171.89 2162.64,981.45 2287.41,577.1 2034.26,352.871 1500.51,517.608 891.349,728.377 440.972,1039.48 322.518,1069.37 581.526,1083.37 1118.42,1114.27 
  1726.8,1194.65 2172.78,990.184 2284.91,567.2 2020.07,318.908 1480.09,502.687 872.556,706.312 431.024,1040.37 325.24,1070.79 595.871,1079.25 1138.88,1114.29 
  1745.5,1155.33 2182.54,946.767 2281.97,550.837 2005.57,280.294 1459.6,475.818 853.954,703.735 421.462,1043.32 328.394,1071.94 610.528,1074.93 1159.4,1102.18 
  1764.01,1109.65 2191.91,926.829 2278.6,520.072 1990.76,253.865 1439.04,449.045 835.551,697.195 412.29,1044.58 331.979,1072.95 625.492,1079.61 1179.99,1108.92 
  1782.31,1107.07 2200.88,930.69 2274.8,509.459 1975.65,208.229 1418.42,426.48 817.355,696.37 403.512,1045.88 335.993,1074.74 640.756,1074.09 1200.64,1117.73 
  1800.4,1104.24 2209.46,899.91 2270.57,492.036 1960.23,195.837 1397.76,405.357 799.374,699.394 395.132,1047.83 340.436,1075.36 656.313,1067.41 1221.33,1125.45 
  1818.27,1099.92 2217.64,876.288 2265.92,465.623 1944.53,210.687 1377.05,392.739 781.616,709.832 387.153,1050.61 345.303,1076.01 672.156,1058.21 1242.06,1150.29 
  1835.91,1106.53 2225.42,872.206 2260.84,452.494 1928.55,160.256 1356.3,372.61 764.089,717.493 379.579,1053.54 350.595,1076.98 688.278,1034.84 1262.81,1144.01 
  1853.32,1107.01 2232.79,858.509 2255.33,433.597 1912.29,192.702 1335.54,376.637 746.8,726.56 372.414,1056.95 356.307,1077.88 704.672,939.58 1283.58,1112.85 
  1870.49,1115.42 2239.75,841.483 2249.41,416.991 1895.76,252.326 1314.76,362.064 729.758,731.632 365.66,1060.58 362.438,1078.39 721.331,954.912 1304.37,1109.82 
  
  "/>
</svg>
