<?xml version="1.0" encoding="utf-8"?>
<svg xmlns="http://www.w3.org/2000/svg" xmlns:xlink="http://www.w3.org/1999/xlink" width="600" height="400" viewBox="0 0 2400 1600">
<defs>
  <clipPath id="clip870">
    <rect x="0" y="0" width="2400" height="1600"/>
  </clipPath>
</defs>
<path clip-path="url(#clip870)" d="
M0 1600 L2400 1600 L2400 0 L0 0  Z
  " fill="#ffffff" fill-rule="evenodd" fill-opacity="1"/>
<defs>
  <clipPath id="clip871">
    <rect x="480" y="0" width="1681" height="1600"/>
  </clipPath>
</defs>
<path clip-path="url(#clip870)" d="
M211.325 1423.18 L2352.76 1423.18 L2352.76 123.472 L211.325 123.472  Z
  " fill="#ffffff" fill-rule="evenodd" fill-opacity="1"/>
<defs>
  <clipPath id="clip872">
    <rect x="211" y="123" width="2142" height="1301"/>
  </clipPath>
</defs>
<polyline clip-path="url(#clip872)" style="stroke:#000000; stroke-linecap:butt; stroke-linejoin:round; stroke-width:2; stroke-opacity:0.1; fill:none" points="
  271.917,1423.18 271.917,123.472 
  "/>
<polyline clip-path="url(#clip872)" style="stroke:#000000; stroke-linecap:butt; stroke-linejoin:round; stroke-width:2; stroke-opacity:0.1; fill:none" points="
  776.979,1423.18 776.979,123.472 
  "/>
<polyline clip-path="url(#clip872)" style="stroke:#000000; stroke-linecap:butt; stroke-linejoin:round; stroke-width:2; stroke-opacity:0.1; fill:none" points="
  1282.04,1423.18 1282.04,123.472 
  "/>
<polyline clip-path="url(#clip872)" style="stroke:#000000; stroke-linecap:butt; stroke-linejoin:round; stroke-width:2; stroke-opacity:0.1; fill:none" points="
  1787.1,1423.18 1787.1,123.472 
  "/>
<polyline clip-path="url(#clip872)" style="stroke:#000000; stroke-linecap:butt; stroke-linejoin:round; stroke-width:2; stroke-opacity:0.1; fill:none" points="
  2292.16,1423.18 2292.16,123.472 
  "/>
<polyline clip-path="url(#clip870)" style="stroke:#000000; stroke-linecap:butt; stroke-linejoin:round; stroke-width:4; stroke-opacity:1; fill:none" points="
  211.325,1423.18 2352.76,1423.18 
  "/>
<polyline clip-path="url(#clip870)" style="stroke:#000000; stroke-linecap:butt; stroke-linejoin:round; stroke-width:4; stroke-opacity:1; fill:none" points="
  271.917,1423.18 271.917,1404.28 
  "/>
<polyline clip-path="url(#clip870)" style="stroke:#000000; stroke-linecap:butt; stroke-linejoin:round; stroke-width:4; stroke-opacity:1; fill:none" points="
  776.979,1423.18 776.979,1404.28 
  "/>
<polyline clip-path="url(#clip870)" style="stroke:#000000; stroke-linecap:butt; stroke-linejoin:round; stroke-width:4; stroke-opacity:1; fill:none" points="
  1282.04,1423.18 1282.04,1404.28 
  "/>
<polyline clip-path="url(#clip870)" style="stroke:#000000; stroke-linecap:butt; stroke-linejoin:round; stroke-width:4; stroke-opacity:1; fill:none" points="
  1787.1,1423.18 1787.1,1404.28 
  "/>
<polyline clip-path="url(#clip870)" style="stroke:#000000; stroke-linecap:butt; stroke-linejoin:round; stroke-width:4; stroke-opacity:1; fill:none" points="
  2292.16,1423.18 2292.16,1404.28 
  "/>
<path clip-path="url(#clip870)" d="M271.917 1454.1 Q268.306 1454.1 266.477 1457.66 Q264.672 1461.2 264.672 1468.33 Q264.672 1475.44 266.477 1479.01 Q268.306 1482.55 271.917 1482.55 Q275.551 1482.55 277.357 1479.01 Q279.186 1475.44 279.186 1468.33 Q279.186 1461.2 277.357 1457.66 Q275.551 1454.1 271.917 1454.1 M271.917 1450.39 Q277.727 1450.39 280.783 1455 Q283.862 1459.58 283.862 1468.33 Q283.862 1477.06 280.783 1481.67 Q277.727 1486.25 271.917 1486.25 Q266.107 1486.25 263.028 1481.67 Q259.973 1477.06 259.973 1468.33 Q259.973 1459.58 263.028 1455 Q266.107 1450.39 271.917 1450.39 Z" fill="#000000" fill-rule="evenodd" fill-opacity="1" /><path clip-path="url(#clip870)" d="M771.632 1481.64 L787.951 1481.64 L787.951 1485.58 L766.007 1485.58 L766.007 1481.64 Q768.669 1478.89 773.252 1474.26 Q777.858 1469.61 779.039 1468.27 Q781.284 1465.74 782.164 1464.01 Q783.067 1462.25 783.067 1460.56 Q783.067 1457.8 781.122 1456.07 Q779.201 1454.33 776.099 1454.33 Q773.9 1454.33 771.446 1455.09 Q769.016 1455.86 766.238 1457.41 L766.238 1452.69 Q769.062 1451.55 771.516 1450.97 Q773.97 1450.39 776.007 1450.39 Q781.377 1450.39 784.571 1453.08 Q787.766 1455.77 787.766 1460.26 Q787.766 1462.39 786.956 1464.31 Q786.169 1466.2 784.062 1468.8 Q783.483 1469.47 780.382 1472.69 Q777.28 1475.88 771.632 1481.64 Z" fill="#000000" fill-rule="evenodd" fill-opacity="1" /><path clip-path="url(#clip870)" d="M1285.05 1455.09 L1273.24 1473.54 L1285.05 1473.54 L1285.05 1455.09 M1283.82 1451.02 L1289.7 1451.02 L1289.7 1473.54 L1294.63 1473.54 L1294.63 1477.43 L1289.7 1477.43 L1289.7 1485.58 L1285.05 1485.58 L1285.05 1477.43 L1269.45 1477.43 L1269.45 1472.92 L1283.82 1451.02 Z" fill="#000000" fill-rule="evenodd" fill-opacity="1" /><path clip-path="url(#clip870)" d="M1787.51 1466.44 Q1784.36 1466.44 1782.51 1468.59 Q1780.68 1470.74 1780.68 1474.49 Q1780.68 1478.22 1782.51 1480.39 Q1784.36 1482.55 1787.51 1482.55 Q1790.66 1482.55 1792.48 1480.39 Q1794.34 1478.22 1794.34 1474.49 Q1794.34 1470.74 1792.48 1468.59 Q1790.66 1466.44 1787.51 1466.44 M1796.79 1451.78 L1796.79 1456.04 Q1795.03 1455.21 1793.22 1454.77 Q1791.44 1454.33 1789.68 1454.33 Q1785.05 1454.33 1782.6 1457.45 Q1780.17 1460.58 1779.82 1466.9 Q1781.19 1464.89 1783.25 1463.82 Q1785.31 1462.73 1787.78 1462.73 Q1792.99 1462.73 1796 1465.9 Q1799.03 1469.05 1799.03 1474.49 Q1799.03 1479.82 1795.89 1483.03 Q1792.74 1486.25 1787.51 1486.25 Q1781.51 1486.25 1778.34 1481.67 Q1775.17 1477.06 1775.17 1468.33 Q1775.17 1460.14 1779.06 1455.28 Q1782.95 1450.39 1789.5 1450.39 Q1791.26 1450.39 1793.04 1450.74 Q1794.84 1451.09 1796.79 1451.78 Z" fill="#000000" fill-rule="evenodd" fill-opacity="1" /><path clip-path="url(#clip870)" d="M2292.16 1469.17 Q2288.83 1469.17 2286.91 1470.95 Q2285.01 1472.73 2285.01 1475.86 Q2285.01 1478.98 2286.91 1480.77 Q2288.83 1482.55 2292.16 1482.55 Q2295.5 1482.55 2297.42 1480.77 Q2299.34 1478.96 2299.34 1475.86 Q2299.34 1472.73 2297.42 1470.95 Q2295.52 1469.17 2292.16 1469.17 M2287.49 1467.18 Q2284.48 1466.44 2282.79 1464.38 Q2281.12 1462.32 2281.12 1459.35 Q2281.12 1455.21 2284.06 1452.8 Q2287.02 1450.39 2292.16 1450.39 Q2297.33 1450.39 2300.27 1452.8 Q2303.2 1455.21 2303.2 1459.35 Q2303.2 1462.32 2301.52 1464.38 Q2299.85 1466.44 2296.86 1467.18 Q2300.24 1467.96 2302.12 1470.26 Q2304.02 1472.55 2304.02 1475.86 Q2304.02 1480.88 2300.94 1483.57 Q2297.88 1486.25 2292.16 1486.25 Q2286.45 1486.25 2283.37 1483.57 Q2280.31 1480.88 2280.31 1475.86 Q2280.31 1472.55 2282.21 1470.26 Q2284.11 1467.96 2287.49 1467.18 M2285.77 1459.79 Q2285.77 1462.48 2287.44 1463.98 Q2289.13 1465.49 2292.16 1465.49 Q2295.17 1465.49 2296.86 1463.98 Q2298.58 1462.48 2298.58 1459.79 Q2298.58 1457.11 2296.86 1455.6 Q2295.17 1454.1 2292.16 1454.1 Q2289.13 1454.1 2287.44 1455.6 Q2285.77 1457.11 2285.77 1459.79 Z" fill="#000000" fill-rule="evenodd" fill-opacity="1" /><path clip-path="url(#clip870)" d="M1162.79 1550.12 Q1155.7 1550.12 1152.96 1551.75 Q1150.22 1553.37 1150.22 1557.29 Q1150.22 1560.4 1152.26 1562.25 Q1154.33 1564.07 1157.86 1564.07 Q1162.73 1564.07 1165.66 1560.63 Q1168.62 1557.16 1168.62 1551.43 L1168.62 1550.12 L1162.79 1550.12 M1174.48 1547.71 L1174.48 1568.04 L1168.62 1568.04 L1168.62 1562.63 Q1166.61 1565.88 1163.62 1567.44 Q1160.63 1568.97 1156.3 1568.97 Q1150.83 1568.97 1147.58 1565.91 Q1144.37 1562.82 1144.37 1557.67 Q1144.37 1551.65 1148.38 1548.6 Q1152.42 1545.54 1160.41 1545.54 L1168.62 1545.54 L1168.62 1544.97 Q1168.62 1540.93 1165.95 1538.73 Q1163.3 1536.5 1158.5 1536.5 Q1155.44 1536.5 1152.55 1537.23 Q1149.65 1537.97 1146.98 1539.43 L1146.98 1534.02 Q1150.19 1532.78 1153.21 1532.17 Q1156.24 1531.54 1159.1 1531.54 Q1166.84 1531.54 1170.66 1535.55 Q1174.48 1539.56 1174.48 1547.71 Z" fill="#000000" fill-rule="evenodd" fill-opacity="1" /><path clip-path="url(#clip870)" d="M1186.54 1518.52 L1192.4 1518.52 L1192.4 1568.04 L1186.54 1568.04 L1186.54 1518.52 Z" fill="#000000" fill-rule="evenodd" fill-opacity="1" /><path clip-path="url(#clip870)" d="M1210.31 1562.7 L1210.31 1581.6 L1204.43 1581.6 L1204.43 1532.4 L1210.31 1532.4 L1210.31 1537.81 Q1212.16 1534.62 1214.96 1533.1 Q1217.79 1531.54 1221.71 1531.54 Q1228.2 1531.54 1232.24 1536.69 Q1236.32 1541.85 1236.32 1550.25 Q1236.32 1558.65 1232.24 1563.81 Q1228.2 1568.97 1221.71 1568.97 Q1217.79 1568.97 1214.96 1567.44 Q1212.16 1565.88 1210.31 1562.7 M1230.24 1550.25 Q1230.24 1543.79 1227.57 1540.13 Q1224.92 1536.44 1220.28 1536.44 Q1215.63 1536.44 1212.96 1540.13 Q1210.31 1543.79 1210.31 1550.25 Q1210.31 1556.71 1212.96 1560.4 Q1215.63 1564.07 1220.28 1564.07 Q1224.92 1564.07 1227.57 1560.4 Q1230.24 1556.71 1230.24 1550.25 Z" fill="#000000" fill-rule="evenodd" fill-opacity="1" /><path clip-path="url(#clip870)" d="M1275.66 1546.53 L1275.66 1568.04 L1269.8 1568.04 L1269.8 1546.72 Q1269.8 1541.66 1267.83 1539.14 Q1265.86 1536.63 1261.91 1536.63 Q1257.17 1536.63 1254.43 1539.65 Q1251.69 1542.68 1251.69 1547.9 L1251.69 1568.04 L1245.8 1568.04 L1245.8 1518.52 L1251.69 1518.52 L1251.69 1537.93 Q1253.79 1534.72 1256.63 1533.13 Q1259.49 1531.54 1263.21 1531.54 Q1269.36 1531.54 1272.51 1535.36 Q1275.66 1539.14 1275.66 1546.53 Z" fill="#000000" fill-rule="evenodd" fill-opacity="1" /><path clip-path="url(#clip870)" d="M1303.54 1550.12 Q1296.44 1550.12 1293.71 1551.75 Q1290.97 1553.37 1290.97 1557.29 Q1290.97 1560.4 1293.01 1562.25 Q1295.07 1564.07 1298.61 1564.07 Q1303.48 1564.07 1306.41 1560.63 Q1309.37 1557.16 1309.37 1551.43 L1309.37 1550.12 L1303.54 1550.12 M1315.22 1547.71 L1315.22 1568.04 L1309.37 1568.04 L1309.37 1562.63 Q1307.36 1565.88 1304.37 1567.44 Q1301.38 1568.97 1297.05 1568.97 Q1291.57 1568.97 1288.33 1565.91 Q1285.11 1562.82 1285.11 1557.67 Q1285.11 1551.65 1289.12 1548.6 Q1293.16 1545.54 1301.15 1545.54 L1309.37 1545.54 L1309.37 1544.97 Q1309.37 1540.93 1306.69 1538.73 Q1304.05 1536.5 1299.24 1536.5 Q1296.19 1536.5 1293.29 1537.23 Q1290.4 1537.97 1287.72 1539.43 L1287.72 1534.02 Q1290.94 1532.78 1293.96 1532.17 Q1296.98 1531.54 1299.85 1531.54 Q1307.58 1531.54 1311.4 1535.55 Q1315.22 1539.56 1315.22 1547.71 Z" fill="#000000" fill-rule="evenodd" fill-opacity="1" /><path clip-path="url(#clip870)" d="M1347.46 1518.52 L1360.96 1518.52 L1360.96 1523.07 L1353.32 1523.07 L1353.32 1572.09 L1360.96 1572.09 L1360.96 1576.64 L1347.46 1576.64 L1347.46 1518.52 Z" fill="#000000" fill-rule="evenodd" fill-opacity="1" /><path clip-path="url(#clip870)" d="M1383.59 1523.77 Q1381.04 1523.77 1379.29 1525.55 Q1377.54 1527.3 1377.54 1529.85 Q1377.54 1532.36 1379.29 1534.11 Q1381.04 1535.83 1383.59 1535.83 Q1386.14 1535.83 1387.89 1534.11 Q1389.64 1532.36 1389.64 1529.85 Q1389.64 1527.34 1387.85 1525.55 Q1386.1 1523.77 1383.59 1523.77 M1383.59 1519.66 Q1385.63 1519.66 1387.5 1520.46 Q1389.38 1521.22 1390.75 1522.69 Q1392.21 1524.12 1392.95 1525.93 Q1393.68 1527.75 1393.68 1529.85 Q1393.68 1534.05 1390.72 1536.98 Q1387.79 1539.88 1383.53 1539.88 Q1379.23 1539.88 1376.36 1537.01 Q1373.5 1534.15 1373.5 1529.85 Q1373.5 1525.58 1376.43 1522.62 Q1379.36 1519.66 1383.59 1519.66 Z" fill="#000000" fill-rule="evenodd" fill-opacity="1" /><path clip-path="url(#clip870)" d="M1419.71 1518.52 L1419.71 1576.64 L1406.22 1576.64 L1406.22 1572.09 L1413.83 1572.09 L1413.83 1523.07 L1406.22 1523.07 L1406.22 1518.52 L1419.71 1518.52 Z" fill="#000000" fill-rule="evenodd" fill-opacity="1" /><polyline clip-path="url(#clip872)" style="stroke:#000000; stroke-linecap:butt; stroke-linejoin:round; stroke-width:2; stroke-opacity:0.1; fill:none" points="
  211.325,1423.18 2352.76,1423.18 
  "/>
<polyline clip-path="url(#clip872)" style="stroke:#000000; stroke-linecap:butt; stroke-linejoin:round; stroke-width:2; stroke-opacity:0.1; fill:none" points="
  211.325,1098.25 2352.76,1098.25 
  "/>
<polyline clip-path="url(#clip872)" style="stroke:#000000; stroke-linecap:butt; stroke-linejoin:round; stroke-width:2; stroke-opacity:0.1; fill:none" points="
  211.325,773.326 2352.76,773.326 
  "/>
<polyline clip-path="url(#clip872)" style="stroke:#000000; stroke-linecap:butt; stroke-linejoin:round; stroke-width:2; stroke-opacity:0.1; fill:none" points="
  211.325,448.399 2352.76,448.399 
  "/>
<polyline clip-path="url(#clip872)" style="stroke:#000000; stroke-linecap:butt; stroke-linejoin:round; stroke-width:2; stroke-opacity:0.1; fill:none" points="
  211.325,123.472 2352.76,123.472 
  "/>
<polyline clip-path="url(#clip870)" style="stroke:#000000; stroke-linecap:butt; stroke-linejoin:round; stroke-width:4; stroke-opacity:1; fill:none" points="
  211.325,1423.18 211.325,123.472 
  "/>
<polyline clip-path="url(#clip870)" style="stroke:#000000; stroke-linecap:butt; stroke-linejoin:round; stroke-width:4; stroke-opacity:1; fill:none" points="
  211.325,1423.18 230.222,1423.18 
  "/>
<polyline clip-path="url(#clip870)" style="stroke:#000000; stroke-linecap:butt; stroke-linejoin:round; stroke-width:4; stroke-opacity:1; fill:none" points="
  211.325,1098.25 230.222,1098.25 
  "/>
<polyline clip-path="url(#clip870)" style="stroke:#000000; stroke-linecap:butt; stroke-linejoin:round; stroke-width:4; stroke-opacity:1; fill:none" points="
  211.325,773.326 230.222,773.326 
  "/>
<polyline clip-path="url(#clip870)" style="stroke:#000000; stroke-linecap:butt; stroke-linejoin:round; stroke-width:4; stroke-opacity:1; fill:none" points="
  211.325,448.399 230.222,448.399 
  "/>
<polyline clip-path="url(#clip870)" style="stroke:#000000; stroke-linecap:butt; stroke-linejoin:round; stroke-width:4; stroke-opacity:1; fill:none" points="
  211.325,123.472 230.222,123.472 
  "/>
<path clip-path="url(#clip870)" d="M114.26 1423.63 L143.936 1423.63 L143.936 1427.57 L114.26 1427.57 L114.26 1423.63 Z" fill="#000000" fill-rule="evenodd" fill-opacity="1" /><path clip-path="url(#clip870)" d="M168.195 1421.83 Q171.552 1422.54 173.427 1424.81 Q175.325 1427.08 175.325 1430.41 Q175.325 1435.53 171.806 1438.33 Q168.288 1441.13 161.806 1441.13 Q159.63 1441.13 157.315 1440.69 Q155.024 1440.27 152.57 1439.42 L152.57 1434.9 Q154.515 1436.04 156.829 1436.62 Q159.144 1437.2 161.667 1437.2 Q166.065 1437.2 168.357 1435.46 Q170.672 1433.72 170.672 1430.41 Q170.672 1427.36 168.519 1425.65 Q166.39 1423.91 162.57 1423.91 L158.542 1423.91 L158.542 1420.07 L162.755 1420.07 Q166.204 1420.07 168.033 1418.7 Q169.862 1417.31 169.862 1414.72 Q169.862 1412.06 167.964 1410.65 Q166.089 1409.21 162.57 1409.21 Q160.649 1409.21 158.45 1409.63 Q156.251 1410.04 153.612 1410.92 L153.612 1406.76 Q156.274 1406.02 158.589 1405.65 Q160.927 1405.27 162.987 1405.27 Q168.311 1405.27 171.413 1407.71 Q174.514 1410.11 174.514 1414.23 Q174.514 1417.1 172.871 1419.09 Q171.227 1421.06 168.195 1421.83 Z" fill="#000000" fill-rule="evenodd" fill-opacity="1" /><path clip-path="url(#clip870)" d="M115.209 1098.7 L144.885 1098.7 L144.885 1102.64 L115.209 1102.64 L115.209 1098.7 Z" fill="#000000" fill-rule="evenodd" fill-opacity="1" /><path clip-path="url(#clip870)" d="M159.005 1111.6 L175.325 1111.6 L175.325 1115.53 L153.38 1115.53 L153.38 1111.6 Q156.042 1108.84 160.626 1104.21 Q165.232 1099.56 166.413 1098.22 Q168.658 1095.7 169.538 1093.96 Q170.44 1092.2 170.44 1090.51 Q170.44 1087.76 168.496 1086.02 Q166.575 1084.28 163.473 1084.28 Q161.274 1084.28 158.82 1085.05 Q156.39 1085.81 153.612 1087.36 L153.612 1082.64 Q156.436 1081.51 158.89 1080.93 Q161.343 1080.35 163.38 1080.35 Q168.751 1080.35 171.945 1083.03 Q175.139 1085.72 175.139 1090.21 Q175.139 1092.34 174.329 1094.26 Q173.542 1096.16 171.436 1098.75 Q170.857 1099.42 167.755 1102.64 Q164.653 1105.83 159.005 1111.6 Z" fill="#000000" fill-rule="evenodd" fill-opacity="1" /><path clip-path="url(#clip870)" d="M114.839 773.777 L144.515 773.777 L144.515 777.713 L114.839 777.713 L114.839 773.777 Z" fill="#000000" fill-rule="evenodd" fill-opacity="1" /><path clip-path="url(#clip870)" d="M155.417 786.671 L163.056 786.671 L163.056 760.305 L154.746 761.972 L154.746 757.713 L163.01 756.046 L167.686 756.046 L167.686 786.671 L175.325 786.671 L175.325 790.606 L155.417 790.606 L155.417 786.671 Z" fill="#000000" fill-rule="evenodd" fill-opacity="1" /><path clip-path="url(#clip870)" d="M163.38 434.198 Q159.769 434.198 157.94 437.763 Q156.135 441.304 156.135 448.434 Q156.135 455.54 157.94 459.105 Q159.769 462.647 163.38 462.647 Q167.015 462.647 168.82 459.105 Q170.649 455.54 170.649 448.434 Q170.649 441.304 168.82 437.763 Q167.015 434.198 163.38 434.198 M163.38 430.494 Q169.19 430.494 172.246 435.101 Q175.325 439.684 175.325 448.434 Q175.325 457.161 172.246 461.767 Q169.19 466.35 163.38 466.35 Q157.57 466.35 154.491 461.767 Q151.436 457.161 151.436 448.434 Q151.436 439.684 154.491 435.101 Q157.57 430.494 163.38 430.494 Z" fill="#000000" fill-rule="evenodd" fill-opacity="1" /><path clip-path="url(#clip870)" d="M155.417 136.817 L163.056 136.817 L163.056 110.451 L154.746 112.118 L154.746 107.859 L163.01 106.192 L167.686 106.192 L167.686 136.817 L175.325 136.817 L175.325 140.752 L155.417 140.752 L155.417 136.817 Z" fill="#000000" fill-rule="evenodd" fill-opacity="1" /><path clip-path="url(#clip870)" d="M20.1444 761.931 L26.9239 761.931 Q23.9002 765.178 22.4043 768.87 Q20.9083 772.53 20.9083 776.668 Q20.9083 784.816 25.9054 789.145 Q30.8707 793.473 40.2919 793.473 Q49.6813 793.473 54.6784 789.145 Q59.6436 784.816 59.6436 776.668 Q59.6436 772.53 58.1477 768.87 Q56.6518 765.178 53.6281 761.931 L60.3439 761.931 Q62.6355 765.305 63.7814 769.093 Q64.9272 772.849 64.9272 777.05 Q64.9272 787.84 58.3387 794.046 Q51.7183 800.253 40.2919 800.253 Q28.8336 800.253 22.2451 794.046 Q15.6248 787.84 15.6248 777.05 Q15.6248 772.785 16.7706 769.029 Q17.8846 765.242 20.1444 761.931 Z" fill="#000000" fill-rule="evenodd" fill-opacity="1" /><path clip-path="url(#clip870)" d="M14.479 752.255 L14.479 746.399 L64.0042 746.399 L64.0042 752.255 L14.479 752.255 Z" fill="#000000" fill-rule="evenodd" fill-opacity="1" /><path clip-path="url(#clip870)" d="M346.261 44.2197 Q348.894 45.1109 351.365 48.0275 Q353.877 50.9442 356.388 56.0483 L364.693 72.576 L355.902 72.576 L348.165 57.061 Q345.167 50.9847 342.332 48.9997 Q339.537 47.0148 334.676 47.0148 L325.764 47.0148 L325.764 72.576 L317.581 72.576 L317.581 12.096 L336.053 12.096 Q346.423 12.096 351.527 16.4305 Q356.631 20.7649 356.631 29.5149 Q356.631 35.2267 353.958 38.994 Q351.325 42.7613 346.261 44.2197 M325.764 18.8205 L325.764 40.2903 L336.053 40.2903 Q341.967 40.2903 344.965 37.5762 Q348.003 34.8216 348.003 29.5149 Q348.003 24.2082 344.965 21.5346 Q341.967 18.8205 336.053 18.8205 L325.764 18.8205 Z" fill="#000000" fill-rule="evenodd" fill-opacity="1" /><path clip-path="url(#clip870)" d="M409.982 48.0275 L409.982 51.6733 L375.711 51.6733 Q376.197 59.3701 380.329 63.421 Q384.502 67.4314 391.915 67.4314 Q396.209 67.4314 400.219 66.3781 Q404.27 65.3249 408.24 63.2184 L408.24 70.267 Q404.23 71.9684 400.017 72.8596 Q395.804 73.7508 391.469 73.7508 Q380.613 73.7508 374.253 67.4314 Q367.933 61.1119 367.933 50.3365 Q367.933 39.1965 373.929 32.6746 Q379.965 26.1121 390.173 26.1121 Q399.328 26.1121 404.635 32.0264 Q409.982 37.9003 409.982 48.0275 M402.528 45.84 Q402.447 39.7232 399.085 36.0774 Q395.763 32.4315 390.254 32.4315 Q384.016 32.4315 380.248 35.9558 Q376.521 39.4801 375.954 45.8805 L402.528 45.84 Z" fill="#000000" fill-rule="evenodd" fill-opacity="1" /><path clip-path="url(#clip870)" d="M423.188 34.9026 L475.12 34.9026 L475.12 41.7081 L423.188 41.7081 L423.188 34.9026 M423.188 51.4303 L475.12 51.4303 L475.12 58.3168 L423.188 58.3168 L423.188 51.4303 Z" fill="#000000" fill-rule="evenodd" fill-opacity="1" /><path clip-path="url(#clip870)" d="M494.2 65.6895 L507.568 65.6895 L507.568 19.5497 L493.025 22.4663 L493.025 15.0127 L507.487 12.096 L515.67 12.096 L515.67 65.6895 L529.038 65.6895 L529.038 72.576 L494.2 72.576 L494.2 65.6895 Z" fill="#000000" fill-rule="evenodd" fill-opacity="1" /><path clip-path="url(#clip870)" d="M563.066 17.4837 Q556.746 17.4837 553.546 23.7221 Q550.386 29.92 550.386 42.3968 Q550.386 54.833 553.546 61.0714 Q556.746 67.2693 563.066 67.2693 Q569.425 67.2693 572.585 61.0714 Q575.785 54.833 575.785 42.3968 Q575.785 29.92 572.585 23.7221 Q569.425 17.4837 563.066 17.4837 M563.066 11.0023 Q573.233 11.0023 578.581 19.0636 Q583.968 27.0843 583.968 42.3968 Q583.968 57.6687 578.581 65.73 Q573.233 73.7508 563.066 73.7508 Q552.898 73.7508 547.51 65.73 Q542.163 57.6687 542.163 42.3968 Q542.163 27.0843 547.51 19.0636 Q552.898 11.0023 563.066 11.0023 Z" fill="#000000" fill-rule="evenodd" fill-opacity="1" /><path clip-path="url(#clip870)" d="M615.849 17.4837 Q609.529 17.4837 606.329 23.7221 Q603.169 29.92 603.169 42.3968 Q603.169 54.833 606.329 61.0714 Q609.529 67.2693 615.849 67.2693 Q622.209 67.2693 625.368 61.0714 Q628.569 54.833 628.569 42.3968 Q628.569 29.92 625.368 23.7221 Q622.209 17.4837 615.849 17.4837 M615.849 11.0023 Q626.017 11.0023 631.364 19.0636 Q636.751 27.0843 636.751 42.3968 Q636.751 57.6687 631.364 65.73 Q626.017 73.7508 615.849 73.7508 Q605.681 73.7508 600.293 65.73 Q594.946 57.6687 594.946 42.3968 Q594.946 27.0843 600.293 19.0636 Q605.681 11.0023 615.849 11.0023 Z" fill="#000000" fill-rule="evenodd" fill-opacity="1" /><path clip-path="url(#clip870)" d="M668.632 17.4837 Q662.313 17.4837 659.112 23.7221 Q655.953 29.92 655.953 42.3968 Q655.953 54.833 659.112 61.0714 Q662.313 67.2693 668.632 67.2693 Q674.992 67.2693 678.152 61.0714 Q681.352 54.833 681.352 42.3968 Q681.352 29.92 678.152 23.7221 Q674.992 17.4837 668.632 17.4837 M668.632 11.0023 Q678.8 11.0023 684.147 19.0636 Q689.535 27.0843 689.535 42.3968 Q689.535 57.6687 684.147 65.73 Q678.8 73.7508 668.632 73.7508 Q658.464 73.7508 653.077 65.73 Q647.729 57.6687 647.729 42.3968 Q647.729 27.0843 653.077 19.0636 Q658.464 11.0023 668.632 11.0023 Z" fill="#000000" fill-rule="evenodd" fill-opacity="1" /><path clip-path="url(#clip870)" d="M721.415 17.4837 Q715.096 17.4837 711.896 23.7221 Q708.736 29.92 708.736 42.3968 Q708.736 54.833 711.896 61.0714 Q715.096 67.2693 721.415 67.2693 Q727.775 67.2693 730.935 61.0714 Q734.135 54.833 734.135 42.3968 Q734.135 29.92 730.935 23.7221 Q727.775 17.4837 721.415 17.4837 M721.415 11.0023 Q731.583 11.0023 736.93 19.0636 Q742.318 27.0843 742.318 42.3968 Q742.318 57.6687 736.93 65.73 Q731.583 73.7508 721.415 73.7508 Q711.248 73.7508 705.86 65.73 Q700.513 57.6687 700.513 42.3968 Q700.513 27.0843 705.86 19.0636 Q711.248 11.0023 721.415 11.0023 Z" fill="#000000" fill-rule="evenodd" fill-opacity="1" /><path clip-path="url(#clip870)" d="M756.699 62.2867 L765.246 62.2867 L765.246 72.576 L756.699 72.576 L756.699 62.2867 Z" fill="#000000" fill-rule="evenodd" fill-opacity="1" /><path clip-path="url(#clip870)" d="M800.57 17.4837 Q794.251 17.4837 791.05 23.7221 Q787.891 29.92 787.891 42.3968 Q787.891 54.833 791.05 61.0714 Q794.251 67.2693 800.57 67.2693 Q806.93 67.2693 810.09 61.0714 Q813.29 54.833 813.29 42.3968 Q813.29 29.92 810.09 23.7221 Q806.93 17.4837 800.57 17.4837 M800.57 11.0023 Q810.738 11.0023 816.085 19.0636 Q821.473 27.0843 821.473 42.3968 Q821.473 57.6687 816.085 65.73 Q810.738 73.7508 800.57 73.7508 Q790.402 73.7508 785.015 65.73 Q779.667 57.6687 779.667 42.3968 Q779.667 27.0843 785.015 19.0636 Q790.402 11.0023 800.57 11.0023 Z" fill="#000000" fill-rule="evenodd" fill-opacity="1" /><path clip-path="url(#clip870)" d="M881.791 49.7694 Q872.757 49.7694 869.273 51.8354 Q865.79 53.9013 865.79 58.8839 Q865.79 62.8538 868.382 65.2034 Q871.015 67.5124 875.512 67.5124 Q881.71 67.5124 885.436 63.1374 Q889.204 58.7219 889.204 51.4303 L889.204 49.7694 L881.791 49.7694 M896.658 46.6907 L896.658 72.576 L889.204 72.576 L889.204 65.6895 Q886.652 69.8214 882.844 71.8063 Q879.036 73.7508 873.527 73.7508 Q866.559 73.7508 862.427 69.8619 Q858.336 65.9325 858.336 59.3701 Q858.336 51.7138 863.44 47.825 Q868.585 43.9361 878.753 43.9361 L889.204 43.9361 L889.204 43.2069 Q889.204 38.0623 885.801 35.2672 Q882.439 32.4315 876.322 32.4315 Q872.433 32.4315 868.747 33.3632 Q865.06 34.295 861.658 36.1584 L861.658 29.2718 Q865.749 27.692 869.597 26.9223 Q873.446 26.1121 877.092 26.1121 Q886.935 26.1121 891.796 31.2163 Q896.658 36.3204 896.658 46.6907 Z" fill="#000000" fill-rule="evenodd" fill-opacity="1" /><path clip-path="url(#clip870)" d="M912.983 34.9026 L964.915 34.9026 L964.915 41.7081 L912.983 41.7081 L912.983 34.9026 M912.983 51.4303 L964.915 51.4303 L964.915 58.3168 L912.983 58.3168 L912.983 51.4303 Z" fill="#000000" fill-rule="evenodd" fill-opacity="1" /><path clip-path="url(#clip870)" d="M1000.08 17.4837 Q993.758 17.4837 990.557 23.7221 Q987.398 29.92 987.398 42.3968 Q987.398 54.833 990.557 61.0714 Q993.758 67.2693 1000.08 67.2693 Q1006.44 67.2693 1009.6 61.0714 Q1012.8 54.833 1012.8 42.3968 Q1012.8 29.92 1009.6 23.7221 Q1006.44 17.4837 1000.08 17.4837 M1000.08 11.0023 Q1010.24 11.0023 1015.59 19.0636 Q1020.98 27.0843 1020.98 42.3968 Q1020.98 57.6687 1015.59 65.73 Q1010.24 73.7508 1000.08 73.7508 Q989.909 73.7508 984.522 65.73 Q979.174 57.6687 979.174 42.3968 Q979.174 27.0843 984.522 19.0636 Q989.909 11.0023 1000.08 11.0023 Z" fill="#000000" fill-rule="evenodd" fill-opacity="1" /><path clip-path="url(#clip870)" d="M1035.36 62.2867 L1043.91 62.2867 L1043.91 72.576 L1035.36 72.576 L1035.36 62.2867 Z" fill="#000000" fill-rule="evenodd" fill-opacity="1" /><path clip-path="url(#clip870)" d="M1068.78 65.6895 L1097.34 65.6895 L1097.34 72.576 L1058.94 72.576 L1058.94 65.6895 Q1063.6 60.8689 1071.62 52.7671 Q1079.68 44.6248 1081.74 42.2752 Q1085.67 37.8598 1087.21 34.8216 Q1088.79 31.7429 1088.79 28.7857 Q1088.79 23.9651 1085.39 20.927 Q1082.03 17.8888 1076.6 17.8888 Q1072.75 17.8888 1068.46 19.2256 Q1064.2 20.5624 1059.34 23.2765 L1059.34 15.0127 Q1064.28 13.0277 1068.58 12.015 Q1072.87 11.0023 1076.44 11.0023 Q1085.83 11.0023 1091.42 15.7013 Q1097.02 20.4004 1097.02 28.2591 Q1097.02 31.9859 1095.6 35.3482 Q1094.22 38.6699 1090.53 43.2069 Q1089.52 44.3817 1084.09 50.0125 Q1078.66 55.6027 1068.78 65.6895 Z" fill="#000000" fill-rule="evenodd" fill-opacity="1" /><path clip-path="url(#clip870)" d="M1114.6 12.096 L1146.72 12.096 L1146.72 18.9825 L1122.09 18.9825 L1122.09 33.8088 Q1123.87 33.2012 1125.66 32.9176 Q1127.44 32.5936 1129.22 32.5936 Q1139.35 32.5936 1145.26 38.1433 Q1151.18 43.6931 1151.18 53.1722 Q1151.18 62.9348 1145.1 68.3631 Q1139.02 73.7508 1127.96 73.7508 Q1124.16 73.7508 1120.19 73.1026 Q1116.26 72.4545 1112.04 71.1582 L1112.04 62.9348 Q1115.69 64.9198 1119.58 65.892 Q1123.47 66.8642 1127.8 66.8642 Q1134.81 66.8642 1138.9 63.1779 Q1142.99 59.4916 1142.99 53.1722 Q1142.99 46.8528 1138.9 43.1664 Q1134.81 39.4801 1127.8 39.4801 Q1124.52 39.4801 1121.24 40.2093 Q1118 40.9384 1114.6 42.4778 L1114.6 12.096 Z" fill="#000000" fill-rule="evenodd" fill-opacity="1" /><path clip-path="url(#clip870)" d="M1215.59 9.54393 L1215.59 15.7418 L1208.46 15.7418 Q1204.45 15.7418 1202.87 17.3622 Q1201.33 18.9825 1201.33 23.1955 L1201.33 27.2059 L1213.6 27.2059 L1213.6 32.9987 L1201.33 32.9987 L1201.33 72.576 L1193.83 72.576 L1193.83 32.9987 L1186.7 32.9987 L1186.7 27.2059 L1193.83 27.2059 L1193.83 24.0462 Q1193.83 16.471 1197.36 13.0277 Q1200.88 9.54393 1208.54 9.54393 L1215.59 9.54393 Z" fill="#000000" fill-rule="evenodd" fill-opacity="1" /><path clip-path="url(#clip870)" d="M1222.8 34.9026 L1274.73 34.9026 L1274.73 41.7081 L1222.8 41.7081 L1222.8 34.9026 M1222.8 51.4303 L1274.73 51.4303 L1274.73 58.3168 L1222.8 58.3168 L1222.8 51.4303 Z" fill="#000000" fill-rule="evenodd" fill-opacity="1" /><path clip-path="url(#clip870)" d="M1293.81 65.6895 L1307.18 65.6895 L1307.18 19.5497 L1292.63 22.4663 L1292.63 15.0127 L1307.1 12.096 L1315.28 12.096 L1315.28 65.6895 L1328.65 65.6895 L1328.65 72.576 L1293.81 72.576 L1293.81 65.6895 Z" fill="#000000" fill-rule="evenodd" fill-opacity="1" /><path clip-path="url(#clip870)" d="M1345.17 62.2867 L1353.72 62.2867 L1353.72 72.576 L1345.17 72.576 L1345.17 62.2867 Z" fill="#000000" fill-rule="evenodd" fill-opacity="1" /><path clip-path="url(#clip870)" d="M1389.04 17.4837 Q1382.73 17.4837 1379.53 23.7221 Q1376.37 29.92 1376.37 42.3968 Q1376.37 54.833 1379.53 61.0714 Q1382.73 67.2693 1389.04 67.2693 Q1395.4 67.2693 1398.56 61.0714 Q1401.76 54.833 1401.76 42.3968 Q1401.76 29.92 1398.56 23.7221 Q1395.4 17.4837 1389.04 17.4837 M1389.04 11.0023 Q1399.21 11.0023 1404.56 19.0636 Q1409.95 27.0843 1409.95 42.3968 Q1409.95 57.6687 1404.56 65.73 Q1399.21 73.7508 1389.04 73.7508 Q1378.88 73.7508 1373.49 65.73 Q1368.14 57.6687 1368.14 42.3968 Q1368.14 27.0843 1373.49 19.0636 Q1378.88 11.0023 1389.04 11.0023 Z" fill="#000000" fill-rule="evenodd" fill-opacity="1" /><path clip-path="url(#clip870)" d="M1476.1 51.4708 L1474.32 42.1132 Q1472.49 32.5126 1465.28 32.5126 Q1459.85 32.5126 1457.38 36.9686 Q1454.26 42.5588 1454.26 49.9314 Q1454.26 58.8434 1457.3 63.0969 Q1460.38 67.4314 1465.28 67.4314 Q1470.71 67.4314 1473.63 58.8029 L1476.1 51.4708 M1480.27 39.075 L1484.28 27.2059 L1490.93 27.2059 L1482.62 51.7949 L1484.24 60.6663 Q1484.61 62.6513 1486.02 64.3122 Q1487.68 66.2566 1488.98 66.2566 L1492.55 66.2566 L1492.55 72.576 L1488.09 72.576 Q1484.28 72.576 1480.88 69.1732 Q1479.22 67.4719 1478.53 63.9071 Q1476.67 68.4036 1472.86 71.9279 Q1471.08 73.5887 1465.28 73.5887 Q1455.76 73.5887 1451.15 67.4314 Q1446.41 61.0714 1446.41 49.9314 Q1446.41 38.0218 1451.55 32.4315 Q1457.26 26.1931 1465.28 26.1931 Q1477.88 26.1931 1480.27 39.075 Z" fill="#000000" fill-rule="evenodd" fill-opacity="1" /><path clip-path="url(#clip870)" d="M1524.47 58.2358 L1524.47 72.576 L1519.77 72.576 L1519.77 57.3851 Q1519.77 53.6988 1518.31 51.9569 Q1516.85 50.1745 1513.81 50.1745 Q1510.21 50.1745 1508.1 52.362 Q1505.99 54.509 1505.99 58.2358 L1505.99 72.576 L1501.25 72.576 L1501.25 47.1768 L1505.99 47.1768 L1505.99 51.1062 Q1507.57 48.7972 1509.8 47.7034 Q1512.07 46.5692 1515.19 46.5692 Q1518.27 46.5692 1520.46 47.987 Q1522.64 49.3643 1523.7 52.0379 Q1525.44 49.2428 1527.87 47.906 Q1530.34 46.5692 1533.66 46.5692 Q1538.16 46.5692 1540.55 49.3643 Q1542.98 52.1189 1542.98 57.2231 L1542.98 72.576 L1538.28 72.576 L1538.28 57.3851 Q1538.28 53.7393 1536.82 51.9569 Q1535.36 50.1745 1532.37 50.1745 Q1528.72 50.1745 1526.57 52.362 Q1524.47 54.509 1524.47 58.2358 Z" fill="#000000" fill-rule="evenodd" fill-opacity="1" /><path clip-path="url(#clip870)" d="M1577.57 58.8434 L1577.57 60.8689 L1555.98 60.8689 Q1556.31 65.1628 1558.9 67.4314 Q1561.53 69.6999 1566.19 69.6999 Q1568.91 69.6999 1571.46 69.0922 Q1573.97 68.5251 1576.48 67.3503 L1576.48 71.2797 Q1573.97 72.2519 1571.3 72.738 Q1568.66 73.2241 1565.91 73.2241 Q1559.06 73.2241 1555.09 69.6999 Q1551.08 66.1756 1551.08 60.1397 Q1551.08 53.9013 1554.89 50.215 Q1558.66 46.5692 1565.1 46.5692 Q1570.85 46.5692 1574.21 49.8504 Q1577.57 53.1722 1577.57 58.8434 M1572.87 57.5877 Q1572.83 54.1849 1570.73 52.1189 Q1568.62 50.0935 1565.14 50.0935 Q1561.21 50.0935 1558.86 52.0784 Q1556.51 54.0229 1556.14 57.5877 L1572.87 57.5877 Z" fill="#000000" fill-rule="evenodd" fill-opacity="1" /><path clip-path="url(#clip870)" d="M1600.7 59.8157 Q1595.03 59.8157 1592.85 60.9499 Q1590.62 62.1247 1590.62 64.9198 Q1590.62 67.1478 1592.28 68.4441 Q1593.94 69.7404 1596.78 69.7404 Q1600.66 69.7404 1603.01 67.2693 Q1605.4 64.7983 1605.4 60.7474 L1605.4 59.8157 L1600.7 59.8157 M1610.06 58.0738 L1610.06 72.576 L1605.4 72.576 L1605.4 68.7276 Q1603.78 71.0367 1601.39 72.1304 Q1598.96 73.2241 1595.52 73.2241 Q1591.1 73.2241 1588.51 71.0367 Q1585.92 68.8492 1585.92 65.1628 Q1585.92 60.9094 1589.16 58.7219 Q1592.4 56.5344 1598.8 56.5344 L1605.4 56.5344 L1605.4 56.1293 Q1605.4 53.2532 1603.26 51.6733 Q1601.11 50.0935 1597.26 50.0935 Q1594.83 50.0935 1592.48 50.6201 Q1590.17 51.1467 1588.03 52.2 L1588.03 48.3111 Q1590.62 47.4604 1593.05 47.0148 Q1595.44 46.5692 1597.75 46.5692 Q1603.95 46.5692 1607.02 49.4048 Q1610.06 52.281 1610.06 58.0738 Z" fill="#000000" fill-rule="evenodd" fill-opacity="1" /><path clip-path="url(#clip870)" d="M1643.97 57.2231 L1643.97 72.576 L1639.27 72.576 L1639.27 57.3851 Q1639.27 53.7798 1637.69 51.9974 Q1636.11 50.1745 1632.95 50.1745 Q1629.14 50.1745 1626.95 52.362 Q1624.77 54.509 1624.77 58.2358 L1624.77 72.576 L1620.03 72.576 L1620.03 47.1768 L1624.77 47.1768 L1624.77 51.1062 Q1626.43 48.8377 1628.7 47.7034 Q1631.01 46.5692 1634 46.5692 Q1638.9 46.5692 1641.42 49.2833 Q1643.97 51.9974 1643.97 57.2231 Z" fill="#000000" fill-rule="evenodd" fill-opacity="1" /><path clip-path="url(#clip870)" d="M1657.13 34.9026 L1709.07 34.9026 L1709.07 41.7081 L1657.13 41.7081 L1657.13 34.9026 M1657.13 51.4303 L1709.07 51.4303 L1709.07 58.3168 L1657.13 58.3168 L1657.13 51.4303 Z" fill="#000000" fill-rule="evenodd" fill-opacity="1" /><path clip-path="url(#clip870)" d="M1749.21 19.2256 L1728.55 51.5113 L1749.21 51.5113 L1749.21 19.2256 M1747.06 12.096 L1757.35 12.096 L1757.35 51.5113 L1765.98 51.5113 L1765.98 58.3168 L1757.35 58.3168 L1757.35 72.576 L1749.21 72.576 L1749.21 58.3168 L1721.91 58.3168 L1721.91 50.4176 L1747.06 12.096 Z" fill="#000000" fill-rule="evenodd" fill-opacity="1" /><path clip-path="url(#clip870)" d="M1779.51 62.2867 L1788.06 62.2867 L1788.06 72.576 L1779.51 72.576 L1779.51 62.2867 Z" fill="#000000" fill-rule="evenodd" fill-opacity="1" /><path clip-path="url(#clip870)" d="M1823.38 17.4837 Q1817.06 17.4837 1813.86 23.7221 Q1810.7 29.92 1810.7 42.3968 Q1810.7 54.833 1813.86 61.0714 Q1817.06 67.2693 1823.38 67.2693 Q1829.74 67.2693 1832.9 61.0714 Q1836.1 54.833 1836.1 42.3968 Q1836.1 29.92 1832.9 23.7221 Q1829.74 17.4837 1823.38 17.4837 M1823.38 11.0023 Q1833.55 11.0023 1838.9 19.0636 Q1844.29 27.0843 1844.29 42.3968 Q1844.29 57.6687 1838.9 65.73 Q1833.55 73.7508 1823.38 73.7508 Q1813.22 73.7508 1807.83 65.73 Q1802.48 57.6687 1802.48 42.3968 Q1802.48 27.0843 1807.83 19.0636 Q1813.22 11.0023 1823.38 11.0023 Z" fill="#000000" fill-rule="evenodd" fill-opacity="1" /><path clip-path="url(#clip870)" d="M1910.44 51.4708 L1908.65 42.1132 Q1906.83 32.5126 1899.62 32.5126 Q1894.19 32.5126 1891.72 36.9686 Q1888.6 42.5588 1888.6 49.9314 Q1888.6 58.8434 1891.64 63.0969 Q1894.72 67.4314 1899.62 67.4314 Q1905.05 67.4314 1907.97 58.8029 L1910.44 51.4708 M1914.61 39.075 L1918.62 27.2059 L1925.26 27.2059 L1916.96 51.7949 L1918.58 60.6663 Q1918.94 62.6513 1920.36 64.3122 Q1922.02 66.2566 1923.32 66.2566 L1926.88 66.2566 L1926.88 72.576 L1922.43 72.576 Q1918.62 72.576 1915.22 69.1732 Q1913.56 67.4719 1912.87 63.9071 Q1911 68.4036 1907.2 71.9279 Q1905.41 73.5887 1899.62 73.5887 Q1890.1 73.5887 1885.48 67.4314 Q1880.74 61.0714 1880.74 49.9314 Q1880.74 38.0218 1885.89 32.4315 Q1891.6 26.1931 1899.62 26.1931 Q1912.22 26.1931 1914.61 39.075 Z" fill="#000000" fill-rule="evenodd" fill-opacity="1" /><path clip-path="url(#clip870)" d="M1948.76 59.8157 Q1943.09 59.8157 1940.9 60.9499 Q1938.67 62.1247 1938.67 64.9198 Q1938.67 67.1478 1940.33 68.4441 Q1941.99 69.7404 1944.83 69.7404 Q1948.72 69.7404 1951.07 67.2693 Q1953.46 64.7983 1953.46 60.7474 L1953.46 59.8157 L1948.76 59.8157 M1958.12 58.0738 L1958.12 72.576 L1953.46 72.576 L1953.46 68.7276 Q1951.84 71.0367 1949.45 72.1304 Q1947.02 73.2241 1943.57 73.2241 Q1939.16 73.2241 1936.57 71.0367 Q1933.97 68.8492 1933.97 65.1628 Q1933.97 60.9094 1937.21 58.7219 Q1940.45 56.5344 1946.85 56.5344 L1953.46 56.5344 L1953.46 56.1293 Q1953.46 53.2532 1951.31 51.6733 Q1949.16 50.0935 1945.32 50.0935 Q1942.88 50.0935 1940.54 50.6201 Q1938.23 51.1467 1936.08 52.2 L1936.08 48.3111 Q1938.67 47.4604 1941.1 47.0148 Q1943.49 46.5692 1945.8 46.5692 Q1952 46.5692 1955.08 49.4048 Q1958.12 52.281 1958.12 58.0738 Z" fill="#000000" fill-rule="evenodd" fill-opacity="1" /><path clip-path="url(#clip870)" d="M1991.29 58.2358 L1991.29 72.576 L1986.59 72.576 L1986.59 57.3851 Q1986.59 53.6988 1985.14 51.9569 Q1983.68 50.1745 1980.64 50.1745 Q1977.03 50.1745 1974.93 52.362 Q1972.82 54.509 1972.82 58.2358 L1972.82 72.576 L1968.08 72.576 L1968.08 47.1768 L1972.82 47.1768 L1972.82 51.1062 Q1974.4 48.7972 1976.63 47.7034 Q1978.9 46.5692 1982.02 46.5692 Q1985.09 46.5692 1987.28 47.987 Q1989.47 49.3643 1990.52 52.0379 Q1992.27 49.2428 1994.7 47.906 Q1997.17 46.5692 2000.49 46.5692 Q2004.98 46.5692 2007.37 49.3643 Q2009.81 52.1189 2009.81 57.2231 L2009.81 72.576 L2005.11 72.576 L2005.11 57.3851 Q2005.11 53.7393 2003.65 51.9569 Q2002.19 50.1745 1999.19 50.1745 Q1995.55 50.1745 1993.4 52.362 Q1991.29 54.509 1991.29 58.2358 Z" fill="#000000" fill-rule="evenodd" fill-opacity="1" /><path clip-path="url(#clip870)" d="M2024.51 68.7682 L2024.51 82.2577 L2019.77 82.2577 L2019.77 47.1768 L2024.51 47.1768 L2024.51 51.0252 Q2025.97 48.7567 2028.24 47.6629 Q2030.51 46.5692 2033.62 46.5692 Q2038.85 46.5692 2042.09 50.215 Q2045.33 53.9013 2045.33 59.8967 Q2045.33 65.892 2042.09 69.5783 Q2038.85 73.2241 2033.62 73.2241 Q2030.51 73.2241 2028.24 72.1304 Q2025.97 71.0367 2024.51 68.7682 M2038.36 67.1073 Q2040.47 64.5147 2040.47 59.8967 Q2040.47 55.2786 2038.36 52.6861 Q2036.22 50.053 2032.49 50.053 Q2028.76 50.053 2026.62 52.6861 Q2024.51 55.2786 2024.51 59.8967 Q2024.51 64.5147 2026.62 67.1073 Q2028.76 69.7404 2032.49 69.7404 Q2036.22 69.7404 2038.36 67.1073 Z" fill="#000000" fill-rule="evenodd" fill-opacity="1" /><path clip-path="url(#clip870)" d="M2059.35 34.9026 L2111.28 34.9026 L2111.28 41.7081 L2059.35 41.7081 L2059.35 34.9026 M2059.35 51.4303 L2111.28 51.4303 L2111.28 58.3168 L2059.35 58.3168 L2059.35 51.4303 Z" fill="#000000" fill-rule="evenodd" fill-opacity="1" /><path clip-path="url(#clip870)" d="M2151.43 19.2256 L2130.77 51.5113 L2151.43 51.5113 L2151.43 19.2256 M2149.28 12.096 L2159.57 12.096 L2159.57 51.5113 L2168.2 51.5113 L2168.2 58.3168 L2159.57 58.3168 L2159.57 72.576 L2151.43 72.576 L2151.43 58.3168 L2124.12 58.3168 L2124.12 50.4176 L2149.28 12.096 Z" fill="#000000" fill-rule="evenodd" fill-opacity="1" /><path clip-path="url(#clip870)" d="M2181.73 62.2867 L2190.27 62.2867 L2190.27 72.576 L2181.73 72.576 L2181.73 62.2867 Z" fill="#000000" fill-rule="evenodd" fill-opacity="1" /><path clip-path="url(#clip870)" d="M2225.6 17.4837 Q2219.28 17.4837 2216.08 23.7221 Q2212.92 29.92 2212.92 42.3968 Q2212.92 54.833 2216.08 61.0714 Q2219.28 67.2693 2225.6 67.2693 Q2231.96 67.2693 2235.12 61.0714 Q2238.32 54.833 2238.32 42.3968 Q2238.32 29.92 2235.12 23.7221 Q2231.96 17.4837 2225.6 17.4837 M2225.6 11.0023 Q2235.76 11.0023 2241.11 19.0636 Q2246.5 27.0843 2246.5 42.3968 Q2246.5 57.6687 2241.11 65.73 Q2235.76 73.7508 2225.6 73.7508 Q2215.43 73.7508 2210.04 65.73 Q2204.69 57.6687 2204.69 42.3968 Q2204.69 27.0843 2210.04 19.0636 Q2215.43 11.0023 2225.6 11.0023 Z" fill="#000000" fill-rule="evenodd" fill-opacity="1" /><polyline clip-path="url(#clip872)" style="stroke:#009af9; stroke-linecap:butt; stroke-linejoin:round; stroke-width:4; stroke-opacity:1; fill:none" points="
  1282.04,448.399 1877.49,754.663 2244.03,500.232 2240.74,270.439 1868.89,128.699 1271.43,169.088 678.049,357.328 316.869,626.101 326.739,864.963 703.866,931.784 
  1303.27,950.869 1894.51,746.05 2250.29,514.419 2233.84,302.46 1851.48,190.794 1250.21,228.305 661.169,420.985 310.82,672.761 333.847,901.267 721.398,945.552 
  1324.48,921.041 1911.25,729.819 2256.12,524.111 2226.52,304.398 1833.82,213.789 1229,266.942 644.564,455.044 305.201,686.312 341.374,925.669 739.177,972.94 
  1345.68,925.355 1927.71,707.83 2261.53,536.34 2218.79,303.828 1815.92,205.029 1207.81,276.75 628.24,475.603 300.013,698.1 349.317,946.106 757.197,992.178 
  1366.85,924.521 1943.89,690.453 2266.5,541.189 2210.64,289.098 1797.79,197.905 1186.66,277.011 612.205,489.81 295.259,713.586 357.671,966.937 775.448,1018.28 
  1387.98,925.446 1959.78,687.689 2271.04,533.111 2202.08,279.886 1779.42,185.914 1165.55,270.985 596.465,496.163 290.94,719.343 366.433,979.981 793.922,1043.43 
  1409.06,929.685 1975.37,674.321 2275.14,522.076 2193.11,258.572 1760.84,179.434 1144.5,267.236 581.029,514.343 287.059,730.692 375.6,994.143 812.613,1048.54 
  1430.09,946.988 1990.65,680.336 2278.8,502.118 2183.75,237.889 1742.04,180.903 1123.5,267.781 565.902,507.194 283.618,726.238 385.167,1001.31 831.51,1059.26 
  1451.06,952.242 2005.62,672.831 2282.02,498.198 2173.98,241.625 1723.05,194.631 1102.57,285.262 551.091,499.71 280.617,734.36 395.13,1003.18 850.607,1050.98 
  1471.94,964.163 2020.27,680.371 2284.8,492.107 2163.82,224.456 1703.85,220.244 1081.72,337.684 536.603,496.161 278.058,737.499 405.485,1002.76 869.894,1047.05 
  1492.75,927.923 2034.6,692.287 2287.14,479.156 2153.27,203.033 1684.47,253.025 1060.96,353.181 522.444,497.859 275.943,750.675 416.226,1004.8 889.363,1003.95 
  1513.46,906.387 2048.59,689.324 2289.03,476.404 2142.34,219.588 1664.92,251.076 1040.3,352.692 508.62,492.512 274.272,750.536 427.35,1000.86 909.005,981.432 
  1534.07,874.532 2062.24,685.25 2290.48,468.098 2131.03,203.047 1645.19,248.25 1019.75,358.414 495.138,498.617 273.046,752.009 438.852,1004.59 928.812,974.103 
  1554.57,868.416 2075.55,680.215 2291.48,461.853 2119.34,238.005 1625.31,241.096 999.308,349.174 482.004,502.834 272.266,763.25 450.725,1010.02 948.776,985.113 
  1574.95,881.073 2088.51,687.501 2292.04,462.48 2107.28,222.558 1605.27,233.982 978.993,354.188 469.223,614.711 271.931,763.188 462.966,1017.19 968.886,997.887 
  1595.19,893.579 2101.11,621.233 2292.15,448.65 2094.86,266.618 1585.09,218.178 958.813,345.421 456.8,616.743 272.043,777.006 475.569,994.348 989.134,1042.06 
  1615.3,907.755 2113.36,627.743 2291.81,448.796 2082.08,253.767 1564.77,204.231 938.775,339.283 444.742,633.61 272.6,777.684 488.527,920.896 1009.51,1057.33 
  1635.27,920.195 2125.23,587.109 2291.03,436.887 2068.94,245.408 1544.33,204.332 918.889,328.766 433.054,636.346 273.603,793.14 501.836,929.75 1030.01,1072.99 
  1655.08,924.266 2136.73,579.498 2289.81,433.199 2055.46,235.762 1523.78,210.116 899.163,344.958 421.741,643.749 275.052,800.69 515.49,945.919 1050.62,1085.4 
  1674.72,919.883 2147.85,584.486 2288.14,425.895 2041.64,222.523 1503.12,231.562 879.606,399.34 410.807,652.285 276.945,796.883 529.482,965.249 1071.33,1069.8 
  1694.19,864.339 2158.6,554.761 2286.02,420.154 2027.48,203.958 1482.36,263.557 860.227,388.513 400.259,655.397 279.282,812.994 543.806,979.782 1092.14,1021.09 
  1713.47,864.098 2168.95,566.608 2283.46,417.723 2012.99,183.105 1461.51,256.33 841.034,381.247 390.099,657.702 282.062,818.8 558.456,998.574 1113.03,962.164 
  1732.57,825.354 2178.91,551.974 2280.46,412.076 1998.18,160.544 1440.58,245.773 822.036,390.973 380.334,676.193 285.283,824.554 573.426,1014.74 1133.99,929.71 
  1751.47,791.169 2188.48,552.406 2277.02,398.585 1983.05,146.602 1419.59,233.4 803.241,384.957 370.966,674.636 288.945,829.34 588.709,1052.24 1155.02,935.6 
  1770.16,789.792 2197.65,563.976 2273.14,395.228 1967.62,122.707 1398.53,219.211 784.658,380.144 362.001,672.641 293.045,849.289 604.298,1060.92 1176.1,951.168 
  1788.63,795.59 2206.41,557.854 2268.82,388.554 1951.88,123.041 1377.42,201.358 766.294,373.709 353.443,670.357 297.582,855.679 620.186,1067.37 1197.23,965.669 
  1806.88,801.911 2214.76,556.043 2264.07,375.66 1935.84,141.66 1356.27,185.245 748.157,371.936 345.294,673.836 302.553,863.174 636.366,1070.96 1218.4,1007.83 
  1824.9,810.458 2222.71,562.749 2258.88,369.368 1919.52,126.748 1335.08,170.318 730.257,359.434 337.559,674.138 307.957,874.912 652.832,1060.85 1239.6,1024.59 
  1842.68,810.95 2230.23,564.044 2253.26,359.348 1902.91,167.653 1313.88,198.798 712.6,347.777 330.241,675.556 313.791,886.048 669.575,1050.29 1260.82,1022.51 
  1860.21,808.175 2237.34,562.815 2247.21,349.421 1886.03,227.074 1292.65,233.209 695.195,353.703 323.343,674.144 320.053,894.614 686.589,923.425 1282.04,1014.58 
  
  "/>
</svg>
