<?xml version="1.0" encoding="utf-8"?>
<svg xmlns="http://www.w3.org/2000/svg" xmlns:xlink="http://www.w3.org/1999/xlink" width="600" height="400" viewBox="0 0 2400 1600">
<defs>
  <clipPath id="clip190">
    <rect x="0" y="0" width="2400" height="1600"/>
  </clipPath>
</defs>
<path clip-path="url(#clip190)" d="
M0 1600 L2400 1600 L2400 0 L0 0  Z
  " fill="#ffffff" fill-rule="evenodd" fill-opacity="1"/>
<defs>
  <clipPath id="clip191">
    <rect x="480" y="0" width="1681" height="1600"/>
  </clipPath>
</defs>
<path clip-path="url(#clip190)" d="
M287.366 1423.18 L2352.76 1423.18 L2352.76 123.472 L287.366 123.472  Z
  " fill="#ffffff" fill-rule="evenodd" fill-opacity="1"/>
<defs>
  <clipPath id="clip192">
    <rect x="287" y="123" width="2066" height="1301"/>
  </clipPath>
</defs>
<polyline clip-path="url(#clip192)" style="stroke:#000000; stroke-linecap:butt; stroke-linejoin:round; stroke-width:2; stroke-opacity:0.1; fill:none" points="
  345.82,1423.18 345.82,123.472 
  "/>
<polyline clip-path="url(#clip192)" style="stroke:#000000; stroke-linecap:butt; stroke-linejoin:round; stroke-width:2; stroke-opacity:0.1; fill:none" points="
  670.567,1423.18 670.567,123.472 
  "/>
<polyline clip-path="url(#clip192)" style="stroke:#000000; stroke-linecap:butt; stroke-linejoin:round; stroke-width:2; stroke-opacity:0.1; fill:none" points="
  995.314,1423.18 995.314,123.472 
  "/>
<polyline clip-path="url(#clip192)" style="stroke:#000000; stroke-linecap:butt; stroke-linejoin:round; stroke-width:2; stroke-opacity:0.1; fill:none" points="
  1320.06,1423.18 1320.06,123.472 
  "/>
<polyline clip-path="url(#clip192)" style="stroke:#000000; stroke-linecap:butt; stroke-linejoin:round; stroke-width:2; stroke-opacity:0.1; fill:none" points="
  1644.81,1423.18 1644.81,123.472 
  "/>
<polyline clip-path="url(#clip192)" style="stroke:#000000; stroke-linecap:butt; stroke-linejoin:round; stroke-width:2; stroke-opacity:0.1; fill:none" points="
  1969.55,1423.18 1969.55,123.472 
  "/>
<polyline clip-path="url(#clip192)" style="stroke:#000000; stroke-linecap:butt; stroke-linejoin:round; stroke-width:2; stroke-opacity:0.1; fill:none" points="
  2294.3,1423.18 2294.3,123.472 
  "/>
<polyline clip-path="url(#clip190)" style="stroke:#000000; stroke-linecap:butt; stroke-linejoin:round; stroke-width:4; stroke-opacity:1; fill:none" points="
  287.366,1423.18 2352.76,1423.18 
  "/>
<polyline clip-path="url(#clip190)" style="stroke:#000000; stroke-linecap:butt; stroke-linejoin:round; stroke-width:4; stroke-opacity:1; fill:none" points="
  345.82,1423.18 345.82,1404.28 
  "/>
<polyline clip-path="url(#clip190)" style="stroke:#000000; stroke-linecap:butt; stroke-linejoin:round; stroke-width:4; stroke-opacity:1; fill:none" points="
  670.567,1423.18 670.567,1404.28 
  "/>
<polyline clip-path="url(#clip190)" style="stroke:#000000; stroke-linecap:butt; stroke-linejoin:round; stroke-width:4; stroke-opacity:1; fill:none" points="
  995.314,1423.18 995.314,1404.28 
  "/>
<polyline clip-path="url(#clip190)" style="stroke:#000000; stroke-linecap:butt; stroke-linejoin:round; stroke-width:4; stroke-opacity:1; fill:none" points="
  1320.06,1423.18 1320.06,1404.28 
  "/>
<polyline clip-path="url(#clip190)" style="stroke:#000000; stroke-linecap:butt; stroke-linejoin:round; stroke-width:4; stroke-opacity:1; fill:none" points="
  1644.81,1423.18 1644.81,1404.28 
  "/>
<polyline clip-path="url(#clip190)" style="stroke:#000000; stroke-linecap:butt; stroke-linejoin:round; stroke-width:4; stroke-opacity:1; fill:none" points="
  1969.55,1423.18 1969.55,1404.28 
  "/>
<polyline clip-path="url(#clip190)" style="stroke:#000000; stroke-linecap:butt; stroke-linejoin:round; stroke-width:4; stroke-opacity:1; fill:none" points="
  2294.3,1423.18 2294.3,1404.28 
  "/>
<path clip-path="url(#clip190)" d="M345.82 1454.1 Q342.209 1454.1 340.381 1457.66 Q338.575 1461.2 338.575 1468.33 Q338.575 1475.44 340.381 1479.01 Q342.209 1482.55 345.82 1482.55 Q349.455 1482.55 351.26 1479.01 Q353.089 1475.44 353.089 1468.33 Q353.089 1461.2 351.26 1457.66 Q349.455 1454.1 345.82 1454.1 M345.82 1450.39 Q351.63 1450.39 354.686 1455 Q357.765 1459.58 357.765 1468.33 Q357.765 1477.06 354.686 1481.67 Q351.63 1486.25 345.82 1486.25 Q340.01 1486.25 336.931 1481.67 Q333.876 1477.06 333.876 1468.33 Q333.876 1459.58 336.931 1455 Q340.01 1450.39 345.82 1450.39 Z" fill="#000000" fill-rule="evenodd" fill-opacity="1" /><path clip-path="url(#clip190)" d="M645.255 1481.64 L652.894 1481.64 L652.894 1455.28 L644.584 1456.95 L644.584 1452.69 L652.847 1451.02 L657.523 1451.02 L657.523 1481.64 L665.162 1481.64 L665.162 1485.58 L645.255 1485.58 L645.255 1481.64 Z" fill="#000000" fill-rule="evenodd" fill-opacity="1" /><path clip-path="url(#clip190)" d="M684.606 1454.1 Q680.995 1454.1 679.167 1457.66 Q677.361 1461.2 677.361 1468.33 Q677.361 1475.44 679.167 1479.01 Q680.995 1482.55 684.606 1482.55 Q688.241 1482.55 690.046 1479.01 Q691.875 1475.44 691.875 1468.33 Q691.875 1461.2 690.046 1457.66 Q688.241 1454.1 684.606 1454.1 M684.606 1450.39 Q690.417 1450.39 693.472 1455 Q696.551 1459.58 696.551 1468.33 Q696.551 1477.06 693.472 1481.67 Q690.417 1486.25 684.606 1486.25 Q678.796 1486.25 675.718 1481.67 Q672.662 1477.06 672.662 1468.33 Q672.662 1459.58 675.718 1455 Q678.796 1450.39 684.606 1450.39 Z" fill="#000000" fill-rule="evenodd" fill-opacity="1" /><path clip-path="url(#clip190)" d="M974.087 1481.64 L990.407 1481.64 L990.407 1485.58 L968.462 1485.58 L968.462 1481.64 Q971.124 1478.89 975.708 1474.26 Q980.314 1469.61 981.495 1468.27 Q983.74 1465.74 984.62 1464.01 Q985.522 1462.25 985.522 1460.56 Q985.522 1457.8 983.578 1456.07 Q981.657 1454.33 978.555 1454.33 Q976.356 1454.33 973.902 1455.09 Q971.472 1455.86 968.694 1457.41 L968.694 1452.69 Q971.518 1451.55 973.972 1450.97 Q976.425 1450.39 978.462 1450.39 Q983.833 1450.39 987.027 1453.08 Q990.221 1455.77 990.221 1460.26 Q990.221 1462.39 989.411 1464.31 Q988.624 1466.2 986.518 1468.8 Q985.939 1469.47 982.837 1472.69 Q979.735 1475.88 974.087 1481.64 Z" fill="#000000" fill-rule="evenodd" fill-opacity="1" /><path clip-path="url(#clip190)" d="M1010.22 1454.1 Q1006.61 1454.1 1004.78 1457.66 Q1002.98 1461.2 1002.98 1468.33 Q1002.98 1475.44 1004.78 1479.01 Q1006.61 1482.55 1010.22 1482.55 Q1013.86 1482.55 1015.66 1479.01 Q1017.49 1475.44 1017.49 1468.33 Q1017.49 1461.2 1015.66 1457.66 Q1013.86 1454.1 1010.22 1454.1 M1010.22 1450.39 Q1016.03 1450.39 1019.09 1455 Q1022.17 1459.58 1022.17 1468.33 Q1022.17 1477.06 1019.09 1481.67 Q1016.03 1486.25 1010.22 1486.25 Q1004.41 1486.25 1001.33 1481.67 Q998.277 1477.06 998.277 1468.33 Q998.277 1459.58 1001.33 1455 Q1004.41 1450.39 1010.22 1450.39 Z" fill="#000000" fill-rule="evenodd" fill-opacity="1" /><path clip-path="url(#clip190)" d="M1308.9 1466.95 Q1312.26 1467.66 1314.14 1469.93 Q1316.03 1472.2 1316.03 1475.53 Q1316.03 1480.65 1312.51 1483.45 Q1309 1486.25 1302.51 1486.25 Q1300.34 1486.25 1298.02 1485.81 Q1295.73 1485.39 1293.28 1484.54 L1293.28 1480.02 Q1295.22 1481.16 1297.54 1481.74 Q1299.85 1482.32 1302.38 1482.32 Q1306.77 1482.32 1309.07 1480.58 Q1311.38 1478.84 1311.38 1475.53 Q1311.38 1472.48 1309.23 1470.77 Q1307.1 1469.03 1303.28 1469.03 L1299.25 1469.03 L1299.25 1465.19 L1303.46 1465.19 Q1306.91 1465.19 1308.74 1463.82 Q1310.57 1462.43 1310.57 1459.84 Q1310.57 1457.18 1308.67 1455.77 Q1306.8 1454.33 1303.28 1454.33 Q1301.36 1454.33 1299.16 1454.75 Q1296.96 1455.16 1294.32 1456.04 L1294.32 1451.88 Q1296.98 1451.14 1299.3 1450.77 Q1301.64 1450.39 1303.7 1450.39 Q1309.02 1450.39 1312.12 1452.83 Q1315.22 1455.23 1315.22 1459.35 Q1315.22 1462.22 1313.58 1464.21 Q1311.94 1466.18 1308.9 1466.95 Z" fill="#000000" fill-rule="evenodd" fill-opacity="1" /><path clip-path="url(#clip190)" d="M1334.9 1454.1 Q1331.29 1454.1 1329.46 1457.66 Q1327.65 1461.2 1327.65 1468.33 Q1327.65 1475.44 1329.46 1479.01 Q1331.29 1482.55 1334.9 1482.55 Q1338.53 1482.55 1340.34 1479.01 Q1342.17 1475.44 1342.17 1468.33 Q1342.17 1461.2 1340.34 1457.66 Q1338.53 1454.1 1334.9 1454.1 M1334.9 1450.39 Q1340.71 1450.39 1343.76 1455 Q1346.84 1459.58 1346.84 1468.33 Q1346.84 1477.06 1343.76 1481.67 Q1340.71 1486.25 1334.9 1486.25 Q1329.09 1486.25 1326.01 1481.67 Q1322.95 1477.06 1322.95 1468.33 Q1322.95 1459.58 1326.01 1455 Q1329.09 1450.39 1334.9 1450.39 Z" fill="#000000" fill-rule="evenodd" fill-opacity="1" /><path clip-path="url(#clip190)" d="M1632.98 1455.09 L1621.17 1473.54 L1632.98 1473.54 L1632.98 1455.09 M1631.75 1451.02 L1637.63 1451.02 L1637.63 1473.54 L1642.56 1473.54 L1642.56 1477.43 L1637.63 1477.43 L1637.63 1485.58 L1632.98 1485.58 L1632.98 1477.43 L1617.38 1477.43 L1617.38 1472.92 L1631.75 1451.02 Z" fill="#000000" fill-rule="evenodd" fill-opacity="1" /><path clip-path="url(#clip190)" d="M1660.29 1454.1 Q1656.68 1454.1 1654.85 1457.66 Q1653.05 1461.2 1653.05 1468.33 Q1653.05 1475.44 1654.85 1479.01 Q1656.68 1482.55 1660.29 1482.55 Q1663.93 1482.55 1665.73 1479.01 Q1667.56 1475.44 1667.56 1468.33 Q1667.56 1461.2 1665.73 1457.66 Q1663.93 1454.1 1660.29 1454.1 M1660.29 1450.39 Q1666.1 1450.39 1669.16 1455 Q1672.24 1459.58 1672.24 1468.33 Q1672.24 1477.06 1669.16 1481.67 Q1666.1 1486.25 1660.29 1486.25 Q1654.48 1486.25 1651.4 1481.67 Q1648.35 1477.06 1648.35 1468.33 Q1648.35 1459.58 1651.4 1455 Q1654.48 1450.39 1660.29 1450.39 Z" fill="#000000" fill-rule="evenodd" fill-opacity="1" /><path clip-path="url(#clip190)" d="M1944.25 1451.02 L1962.61 1451.02 L1962.61 1454.96 L1948.54 1454.96 L1948.54 1463.43 Q1949.55 1463.08 1950.57 1462.92 Q1951.59 1462.73 1952.61 1462.73 Q1958.4 1462.73 1961.78 1465.9 Q1965.16 1469.08 1965.16 1474.49 Q1965.16 1480.07 1961.68 1483.17 Q1958.21 1486.25 1951.89 1486.25 Q1949.72 1486.25 1947.45 1485.88 Q1945.2 1485.51 1942.8 1484.77 L1942.8 1480.07 Q1944.88 1481.2 1947.1 1481.76 Q1949.32 1482.32 1951.8 1482.32 Q1955.8 1482.32 1958.14 1480.21 Q1960.48 1478.1 1960.48 1474.49 Q1960.48 1470.88 1958.14 1468.77 Q1955.8 1466.67 1951.8 1466.67 Q1949.93 1466.67 1948.05 1467.08 Q1946.2 1467.5 1944.25 1468.38 L1944.25 1451.02 Z" fill="#000000" fill-rule="evenodd" fill-opacity="1" /><path clip-path="url(#clip190)" d="M1984.37 1454.1 Q1980.76 1454.1 1978.93 1457.66 Q1977.12 1461.2 1977.12 1468.33 Q1977.12 1475.44 1978.93 1479.01 Q1980.76 1482.55 1984.37 1482.55 Q1988 1482.55 1989.81 1479.01 Q1991.64 1475.44 1991.64 1468.33 Q1991.64 1461.2 1989.81 1457.66 Q1988 1454.1 1984.37 1454.1 M1984.37 1450.39 Q1990.18 1450.39 1993.24 1455 Q1996.31 1459.58 1996.31 1468.33 Q1996.31 1477.06 1993.24 1481.67 Q1990.18 1486.25 1984.37 1486.25 Q1978.56 1486.25 1975.48 1481.67 Q1972.42 1477.06 1972.42 1468.33 Q1972.42 1459.58 1975.48 1455 Q1978.56 1450.39 1984.37 1450.39 Z" fill="#000000" fill-rule="evenodd" fill-opacity="1" /><path clip-path="url(#clip190)" d="M2279.71 1466.44 Q2276.56 1466.44 2274.71 1468.59 Q2272.88 1470.74 2272.88 1474.49 Q2272.88 1478.22 2274.71 1480.39 Q2276.56 1482.55 2279.71 1482.55 Q2282.85 1482.55 2284.68 1480.39 Q2286.54 1478.22 2286.54 1474.49 Q2286.54 1470.74 2284.68 1468.59 Q2282.85 1466.44 2279.71 1466.44 M2288.99 1451.78 L2288.99 1456.04 Q2287.23 1455.21 2285.42 1454.77 Q2283.64 1454.33 2281.88 1454.33 Q2277.25 1454.33 2274.8 1457.45 Q2272.37 1460.58 2272.02 1466.9 Q2273.39 1464.89 2275.45 1463.82 Q2277.51 1462.73 2279.98 1462.73 Q2285.19 1462.73 2288.2 1465.9 Q2291.23 1469.05 2291.23 1474.49 Q2291.23 1479.82 2288.09 1483.03 Q2284.94 1486.25 2279.71 1486.25 Q2273.71 1486.25 2270.54 1481.67 Q2267.37 1477.06 2267.37 1468.33 Q2267.37 1460.14 2271.26 1455.28 Q2275.15 1450.39 2281.7 1450.39 Q2283.46 1450.39 2285.24 1450.74 Q2287.04 1451.09 2288.99 1451.78 Z" fill="#000000" fill-rule="evenodd" fill-opacity="1" /><path clip-path="url(#clip190)" d="M2309.29 1454.1 Q2305.68 1454.1 2303.85 1457.66 Q2302.04 1461.2 2302.04 1468.33 Q2302.04 1475.44 2303.85 1479.01 Q2305.68 1482.55 2309.29 1482.55 Q2312.92 1482.55 2314.73 1479.01 Q2316.56 1475.44 2316.56 1468.33 Q2316.56 1461.2 2314.73 1457.66 Q2312.92 1454.1 2309.29 1454.1 M2309.29 1450.39 Q2315.1 1450.39 2318.16 1455 Q2321.23 1459.58 2321.23 1468.33 Q2321.23 1477.06 2318.16 1481.67 Q2315.1 1486.25 2309.29 1486.25 Q2303.48 1486.25 2300.4 1481.67 Q2297.35 1477.06 2297.35 1468.33 Q2297.35 1459.58 2300.4 1455 Q2303.48 1450.39 2309.29 1450.39 Z" fill="#000000" fill-rule="evenodd" fill-opacity="1" /><path clip-path="url(#clip190)" d="M1268.37 1522.27 L1268.37 1532.4 L1280.43 1532.4 L1280.43 1536.95 L1268.37 1536.95 L1268.37 1556.3 Q1268.37 1560.66 1269.55 1561.9 Q1270.76 1563.14 1274.42 1563.14 L1280.43 1563.14 L1280.43 1568.04 L1274.42 1568.04 Q1267.64 1568.04 1265.06 1565.53 Q1262.48 1562.98 1262.48 1556.3 L1262.48 1536.95 L1258.19 1536.95 L1258.19 1532.4 L1262.48 1532.4 L1262.48 1522.27 L1268.37 1522.27 Z" fill="#000000" fill-rule="evenodd" fill-opacity="1" /><path clip-path="url(#clip190)" d="M1308.32 1518.52 L1321.81 1518.52 L1321.81 1523.07 L1314.17 1523.07 L1314.17 1572.09 L1321.81 1572.09 L1321.81 1576.64 L1308.32 1576.64 L1308.32 1518.52 Z" fill="#000000" fill-rule="evenodd" fill-opacity="1" /><path clip-path="url(#clip190)" d="M1357.01 1533.45 L1357.01 1538.98 Q1354.53 1537.71 1351.86 1537.07 Q1349.18 1536.44 1346.32 1536.44 Q1341.96 1536.44 1339.76 1537.77 Q1337.6 1539.11 1337.6 1541.79 Q1337.6 1543.82 1339.16 1545 Q1340.72 1546.15 1345.43 1547.2 L1347.43 1547.64 Q1353.67 1548.98 1356.28 1551.43 Q1358.92 1553.85 1358.92 1558.21 Q1358.92 1563.17 1354.98 1566.07 Q1351.06 1568.97 1344.19 1568.97 Q1341.32 1568.97 1338.2 1568.39 Q1335.12 1567.85 1331.68 1566.74 L1331.68 1560.69 Q1334.92 1562.38 1338.08 1563.24 Q1341.23 1564.07 1344.31 1564.07 Q1348.45 1564.07 1350.68 1562.66 Q1352.91 1561.23 1352.91 1558.65 Q1352.91 1556.27 1351.28 1554.99 Q1349.69 1553.72 1344.25 1552.54 L1342.21 1552.07 Q1336.77 1550.92 1334.35 1548.56 Q1331.93 1546.18 1331.93 1542.04 Q1331.93 1537.01 1335.5 1534.27 Q1339.06 1531.54 1345.62 1531.54 Q1348.87 1531.54 1351.73 1532.01 Q1354.59 1532.49 1357.01 1533.45 Z" fill="#000000" fill-rule="evenodd" fill-opacity="1" /><path clip-path="url(#clip190)" d="M1381.94 1518.52 L1381.94 1576.64 L1368.44 1576.64 L1368.44 1572.09 L1376.05 1572.09 L1376.05 1523.07 L1368.44 1523.07 L1368.44 1518.52 L1381.94 1518.52 Z" fill="#000000" fill-rule="evenodd" fill-opacity="1" /><polyline clip-path="url(#clip192)" style="stroke:#000000; stroke-linecap:butt; stroke-linejoin:round; stroke-width:2; stroke-opacity:0.1; fill:none" points="
  287.366,1301.35 2352.76,1301.35 
  "/>
<polyline clip-path="url(#clip192)" style="stroke:#000000; stroke-linecap:butt; stroke-linejoin:round; stroke-width:2; stroke-opacity:0.1; fill:none" points="
  287.366,1087.14 2352.76,1087.14 
  "/>
<polyline clip-path="url(#clip192)" style="stroke:#000000; stroke-linecap:butt; stroke-linejoin:round; stroke-width:2; stroke-opacity:0.1; fill:none" points="
  287.366,872.92 2352.76,872.92 
  "/>
<polyline clip-path="url(#clip192)" style="stroke:#000000; stroke-linecap:butt; stroke-linejoin:round; stroke-width:2; stroke-opacity:0.1; fill:none" points="
  287.366,658.704 2352.76,658.704 
  "/>
<polyline clip-path="url(#clip192)" style="stroke:#000000; stroke-linecap:butt; stroke-linejoin:round; stroke-width:2; stroke-opacity:0.1; fill:none" points="
  287.366,444.487 2352.76,444.487 
  "/>
<polyline clip-path="url(#clip192)" style="stroke:#000000; stroke-linecap:butt; stroke-linejoin:round; stroke-width:2; stroke-opacity:0.1; fill:none" points="
  287.366,230.271 2352.76,230.271 
  "/>
<polyline clip-path="url(#clip190)" style="stroke:#000000; stroke-linecap:butt; stroke-linejoin:round; stroke-width:4; stroke-opacity:1; fill:none" points="
  287.366,1423.18 287.366,123.472 
  "/>
<polyline clip-path="url(#clip190)" style="stroke:#000000; stroke-linecap:butt; stroke-linejoin:round; stroke-width:4; stroke-opacity:1; fill:none" points="
  287.366,1301.35 306.264,1301.35 
  "/>
<polyline clip-path="url(#clip190)" style="stroke:#000000; stroke-linecap:butt; stroke-linejoin:round; stroke-width:4; stroke-opacity:1; fill:none" points="
  287.366,1087.14 306.264,1087.14 
  "/>
<polyline clip-path="url(#clip190)" style="stroke:#000000; stroke-linecap:butt; stroke-linejoin:round; stroke-width:4; stroke-opacity:1; fill:none" points="
  287.366,872.92 306.264,872.92 
  "/>
<polyline clip-path="url(#clip190)" style="stroke:#000000; stroke-linecap:butt; stroke-linejoin:round; stroke-width:4; stroke-opacity:1; fill:none" points="
  287.366,658.704 306.264,658.704 
  "/>
<polyline clip-path="url(#clip190)" style="stroke:#000000; stroke-linecap:butt; stroke-linejoin:round; stroke-width:4; stroke-opacity:1; fill:none" points="
  287.366,444.487 306.264,444.487 
  "/>
<polyline clip-path="url(#clip190)" style="stroke:#000000; stroke-linecap:butt; stroke-linejoin:round; stroke-width:4; stroke-opacity:1; fill:none" points="
  287.366,230.271 306.264,230.271 
  "/>
<path clip-path="url(#clip190)" d="M115.256 1301.8 L144.931 1301.8 L144.931 1305.74 L115.256 1305.74 L115.256 1301.8 Z" fill="#000000" fill-rule="evenodd" fill-opacity="1" /><path clip-path="url(#clip190)" d="M165.024 1287.15 Q161.413 1287.15 159.584 1290.72 Q157.778 1294.26 157.778 1301.39 Q157.778 1308.49 159.584 1312.06 Q161.413 1315.6 165.024 1315.6 Q168.658 1315.6 170.464 1312.06 Q172.292 1308.49 172.292 1301.39 Q172.292 1294.26 170.464 1290.72 Q168.658 1287.15 165.024 1287.15 M165.024 1283.45 Q170.834 1283.45 173.889 1288.05 Q176.968 1292.64 176.968 1301.39 Q176.968 1310.11 173.889 1314.72 Q170.834 1319.3 165.024 1319.3 Q159.214 1319.3 156.135 1314.72 Q153.079 1310.11 153.079 1301.39 Q153.079 1292.64 156.135 1288.05 Q159.214 1283.45 165.024 1283.45 Z" fill="#000000" fill-rule="evenodd" fill-opacity="1" /><path clip-path="url(#clip190)" d="M185.186 1312.75 L190.07 1312.75 L190.07 1318.63 L185.186 1318.63 L185.186 1312.75 Z" fill="#000000" fill-rule="evenodd" fill-opacity="1" /><path clip-path="url(#clip190)" d="M201.065 1314.7 L208.704 1314.7 L208.704 1288.33 L200.394 1290 L200.394 1285.74 L208.658 1284.07 L213.334 1284.07 L213.334 1314.7 L220.973 1314.7 L220.973 1318.63 L201.065 1318.63 L201.065 1314.7 Z" fill="#000000" fill-rule="evenodd" fill-opacity="1" /><path clip-path="url(#clip190)" d="M230.463 1284.07 L248.82 1284.07 L248.82 1288.01 L234.746 1288.01 L234.746 1296.48 Q235.764 1296.13 236.783 1295.97 Q237.801 1295.79 238.82 1295.79 Q244.607 1295.79 247.986 1298.96 Q251.366 1302.13 251.366 1307.55 Q251.366 1313.12 247.894 1316.23 Q244.421 1319.3 238.102 1319.3 Q235.926 1319.3 233.658 1318.93 Q231.412 1318.56 229.005 1317.82 L229.005 1313.12 Q231.088 1314.26 233.31 1314.81 Q235.533 1315.37 238.009 1315.37 Q242.014 1315.37 244.352 1313.26 Q246.69 1311.16 246.69 1307.55 Q246.69 1303.93 244.352 1301.83 Q242.014 1299.72 238.009 1299.72 Q236.135 1299.72 234.26 1300.14 Q232.408 1300.55 230.463 1301.43 L230.463 1284.07 Z" fill="#000000" fill-rule="evenodd" fill-opacity="1" /><path clip-path="url(#clip190)" d="M114.26 1087.59 L143.936 1087.59 L143.936 1091.52 L114.26 1091.52 L114.26 1087.59 Z" fill="#000000" fill-rule="evenodd" fill-opacity="1" /><path clip-path="url(#clip190)" d="M164.028 1072.94 Q160.417 1072.94 158.589 1076.5 Q156.783 1080.04 156.783 1087.17 Q156.783 1094.28 158.589 1097.84 Q160.417 1101.38 164.028 1101.38 Q167.663 1101.38 169.468 1097.84 Q171.297 1094.28 171.297 1087.17 Q171.297 1080.04 169.468 1076.5 Q167.663 1072.94 164.028 1072.94 M164.028 1069.23 Q169.839 1069.23 172.894 1073.84 Q175.973 1078.42 175.973 1087.17 Q175.973 1095.9 172.894 1100.5 Q169.839 1105.09 164.028 1105.09 Q158.218 1105.09 155.14 1100.5 Q152.084 1095.9 152.084 1087.17 Q152.084 1078.42 155.14 1073.84 Q158.218 1069.23 164.028 1069.23 Z" fill="#000000" fill-rule="evenodd" fill-opacity="1" /><path clip-path="url(#clip190)" d="M184.19 1098.54 L189.075 1098.54 L189.075 1104.42 L184.19 1104.42 L184.19 1098.54 Z" fill="#000000" fill-rule="evenodd" fill-opacity="1" /><path clip-path="url(#clip190)" d="M200.07 1100.48 L207.709 1100.48 L207.709 1074.12 L199.399 1075.78 L199.399 1071.52 L207.662 1069.86 L212.338 1069.86 L212.338 1100.48 L219.977 1100.48 L219.977 1104.42 L200.07 1104.42 L200.07 1100.48 Z" fill="#000000" fill-rule="evenodd" fill-opacity="1" /><path clip-path="url(#clip190)" d="M239.422 1072.94 Q235.81 1072.94 233.982 1076.5 Q232.176 1080.04 232.176 1087.17 Q232.176 1094.28 233.982 1097.84 Q235.81 1101.38 239.422 1101.38 Q243.056 1101.38 244.861 1097.84 Q246.69 1094.28 246.69 1087.17 Q246.69 1080.04 244.861 1076.5 Q243.056 1072.94 239.422 1072.94 M239.422 1069.23 Q245.232 1069.23 248.287 1073.84 Q251.366 1078.42 251.366 1087.17 Q251.366 1095.9 248.287 1100.5 Q245.232 1105.09 239.422 1105.09 Q233.611 1105.09 230.533 1100.5 Q227.477 1095.9 227.477 1087.17 Q227.477 1078.42 230.533 1073.84 Q233.611 1069.23 239.422 1069.23 Z" fill="#000000" fill-rule="evenodd" fill-opacity="1" /><path clip-path="url(#clip190)" d="M115.256 873.372 L144.931 873.372 L144.931 877.307 L115.256 877.307 L115.256 873.372 Z" fill="#000000" fill-rule="evenodd" fill-opacity="1" /><path clip-path="url(#clip190)" d="M165.024 858.719 Q161.413 858.719 159.584 862.284 Q157.778 865.825 157.778 872.955 Q157.778 880.061 159.584 883.626 Q161.413 887.168 165.024 887.168 Q168.658 887.168 170.464 883.626 Q172.292 880.061 172.292 872.955 Q172.292 865.825 170.464 862.284 Q168.658 858.719 165.024 858.719 M165.024 855.015 Q170.834 855.015 173.889 859.622 Q176.968 864.205 176.968 872.955 Q176.968 881.682 173.889 886.288 Q170.834 890.872 165.024 890.872 Q159.214 890.872 156.135 886.288 Q153.079 881.682 153.079 872.955 Q153.079 864.205 156.135 859.622 Q159.214 855.015 165.024 855.015 Z" fill="#000000" fill-rule="evenodd" fill-opacity="1" /><path clip-path="url(#clip190)" d="M185.186 884.321 L190.07 884.321 L190.07 890.2 L185.186 890.2 L185.186 884.321 Z" fill="#000000" fill-rule="evenodd" fill-opacity="1" /><path clip-path="url(#clip190)" d="M210.255 858.719 Q206.644 858.719 204.815 862.284 Q203.01 865.825 203.01 872.955 Q203.01 880.061 204.815 883.626 Q206.644 887.168 210.255 887.168 Q213.889 887.168 215.695 883.626 Q217.523 880.061 217.523 872.955 Q217.523 865.825 215.695 862.284 Q213.889 858.719 210.255 858.719 M210.255 855.015 Q216.065 855.015 219.121 859.622 Q222.199 864.205 222.199 872.955 Q222.199 881.682 219.121 886.288 Q216.065 890.872 210.255 890.872 Q204.445 890.872 201.366 886.288 Q198.311 881.682 198.311 872.955 Q198.311 864.205 201.366 859.622 Q204.445 855.015 210.255 855.015 Z" fill="#000000" fill-rule="evenodd" fill-opacity="1" /><path clip-path="url(#clip190)" d="M230.463 855.64 L248.82 855.64 L248.82 859.575 L234.746 859.575 L234.746 868.048 Q235.764 867.7 236.783 867.538 Q237.801 867.353 238.82 867.353 Q244.607 867.353 247.986 870.524 Q251.366 873.696 251.366 879.112 Q251.366 884.691 247.894 887.793 Q244.421 890.872 238.102 890.872 Q235.926 890.872 233.658 890.501 Q231.412 890.131 229.005 889.39 L229.005 884.691 Q231.088 885.825 233.31 886.381 Q235.533 886.936 238.009 886.936 Q242.014 886.936 244.352 884.83 Q246.69 882.723 246.69 879.112 Q246.69 875.501 244.352 873.395 Q242.014 871.288 238.009 871.288 Q236.135 871.288 234.26 871.705 Q232.408 872.122 230.463 873.001 L230.463 855.64 Z" fill="#000000" fill-rule="evenodd" fill-opacity="1" /><path clip-path="url(#clip190)" d="M164.028 644.502 Q160.417 644.502 158.589 648.067 Q156.783 651.609 156.783 658.738 Q156.783 665.845 158.589 669.41 Q160.417 672.951 164.028 672.951 Q167.663 672.951 169.468 669.41 Q171.297 665.845 171.297 658.738 Q171.297 651.609 169.468 648.067 Q167.663 644.502 164.028 644.502 M164.028 640.799 Q169.839 640.799 172.894 645.405 Q175.973 649.988 175.973 658.738 Q175.973 667.465 172.894 672.072 Q169.839 676.655 164.028 676.655 Q158.218 676.655 155.14 672.072 Q152.084 667.465 152.084 658.738 Q152.084 649.988 155.14 645.405 Q158.218 640.799 164.028 640.799 Z" fill="#000000" fill-rule="evenodd" fill-opacity="1" /><path clip-path="url(#clip190)" d="M184.19 670.104 L189.075 670.104 L189.075 675.984 L184.19 675.984 L184.19 670.104 Z" fill="#000000" fill-rule="evenodd" fill-opacity="1" /><path clip-path="url(#clip190)" d="M209.26 644.502 Q205.649 644.502 203.82 648.067 Q202.014 651.609 202.014 658.738 Q202.014 665.845 203.82 669.41 Q205.649 672.951 209.26 672.951 Q212.894 672.951 214.699 669.41 Q216.528 665.845 216.528 658.738 Q216.528 651.609 214.699 648.067 Q212.894 644.502 209.26 644.502 M209.26 640.799 Q215.07 640.799 218.125 645.405 Q221.204 649.988 221.204 658.738 Q221.204 667.465 218.125 672.072 Q215.07 676.655 209.26 676.655 Q203.449 676.655 200.371 672.072 Q197.315 667.465 197.315 658.738 Q197.315 649.988 200.371 645.405 Q203.449 640.799 209.26 640.799 Z" fill="#000000" fill-rule="evenodd" fill-opacity="1" /><path clip-path="url(#clip190)" d="M239.422 644.502 Q235.81 644.502 233.982 648.067 Q232.176 651.609 232.176 658.738 Q232.176 665.845 233.982 669.41 Q235.81 672.951 239.422 672.951 Q243.056 672.951 244.861 669.41 Q246.69 665.845 246.69 658.738 Q246.69 651.609 244.861 648.067 Q243.056 644.502 239.422 644.502 M239.422 640.799 Q245.232 640.799 248.287 645.405 Q251.366 649.988 251.366 658.738 Q251.366 667.465 248.287 672.072 Q245.232 676.655 239.422 676.655 Q233.611 676.655 230.533 672.072 Q227.477 667.465 227.477 658.738 Q227.477 649.988 230.533 645.405 Q233.611 640.799 239.422 640.799 Z" fill="#000000" fill-rule="evenodd" fill-opacity="1" /><path clip-path="url(#clip190)" d="M165.024 430.286 Q161.413 430.286 159.584 433.851 Q157.778 437.392 157.778 444.522 Q157.778 451.628 159.584 455.193 Q161.413 458.735 165.024 458.735 Q168.658 458.735 170.464 455.193 Q172.292 451.628 172.292 444.522 Q172.292 437.392 170.464 433.851 Q168.658 430.286 165.024 430.286 M165.024 426.582 Q170.834 426.582 173.889 431.189 Q176.968 435.772 176.968 444.522 Q176.968 453.249 173.889 457.855 Q170.834 462.438 165.024 462.438 Q159.214 462.438 156.135 457.855 Q153.079 453.249 153.079 444.522 Q153.079 435.772 156.135 431.189 Q159.214 426.582 165.024 426.582 Z" fill="#000000" fill-rule="evenodd" fill-opacity="1" /><path clip-path="url(#clip190)" d="M185.186 455.888 L190.07 455.888 L190.07 461.767 L185.186 461.767 L185.186 455.888 Z" fill="#000000" fill-rule="evenodd" fill-opacity="1" /><path clip-path="url(#clip190)" d="M210.255 430.286 Q206.644 430.286 204.815 433.851 Q203.01 437.392 203.01 444.522 Q203.01 451.628 204.815 455.193 Q206.644 458.735 210.255 458.735 Q213.889 458.735 215.695 455.193 Q217.523 451.628 217.523 444.522 Q217.523 437.392 215.695 433.851 Q213.889 430.286 210.255 430.286 M210.255 426.582 Q216.065 426.582 219.121 431.189 Q222.199 435.772 222.199 444.522 Q222.199 453.249 219.121 457.855 Q216.065 462.438 210.255 462.438 Q204.445 462.438 201.366 457.855 Q198.311 453.249 198.311 444.522 Q198.311 435.772 201.366 431.189 Q204.445 426.582 210.255 426.582 Z" fill="#000000" fill-rule="evenodd" fill-opacity="1" /><path clip-path="url(#clip190)" d="M230.463 427.207 L248.82 427.207 L248.82 431.142 L234.746 431.142 L234.746 439.614 Q235.764 439.267 236.783 439.105 Q237.801 438.92 238.82 438.92 Q244.607 438.92 247.986 442.091 Q251.366 445.263 251.366 450.679 Q251.366 456.258 247.894 459.36 Q244.421 462.438 238.102 462.438 Q235.926 462.438 233.658 462.068 Q231.412 461.698 229.005 460.957 L229.005 456.258 Q231.088 457.392 233.31 457.948 Q235.533 458.503 238.009 458.503 Q242.014 458.503 244.352 456.397 Q246.69 454.29 246.69 450.679 Q246.69 447.068 244.352 444.962 Q242.014 442.855 238.009 442.855 Q236.135 442.855 234.26 443.272 Q232.408 443.689 230.463 444.568 L230.463 427.207 Z" fill="#000000" fill-rule="evenodd" fill-opacity="1" /><path clip-path="url(#clip190)" d="M164.028 216.069 Q160.417 216.069 158.589 219.634 Q156.783 223.176 156.783 230.305 Q156.783 237.412 158.589 240.976 Q160.417 244.518 164.028 244.518 Q167.663 244.518 169.468 240.976 Q171.297 237.412 171.297 230.305 Q171.297 223.176 169.468 219.634 Q167.663 216.069 164.028 216.069 M164.028 212.366 Q169.839 212.366 172.894 216.972 Q175.973 221.555 175.973 230.305 Q175.973 239.032 172.894 243.639 Q169.839 248.222 164.028 248.222 Q158.218 248.222 155.14 243.639 Q152.084 239.032 152.084 230.305 Q152.084 221.555 155.14 216.972 Q158.218 212.366 164.028 212.366 Z" fill="#000000" fill-rule="evenodd" fill-opacity="1" /><path clip-path="url(#clip190)" d="M184.19 241.671 L189.075 241.671 L189.075 247.551 L184.19 247.551 L184.19 241.671 Z" fill="#000000" fill-rule="evenodd" fill-opacity="1" /><path clip-path="url(#clip190)" d="M200.07 243.615 L207.709 243.615 L207.709 217.25 L199.399 218.916 L199.399 214.657 L207.662 212.991 L212.338 212.991 L212.338 243.615 L219.977 243.615 L219.977 247.551 L200.07 247.551 L200.07 243.615 Z" fill="#000000" fill-rule="evenodd" fill-opacity="1" /><path clip-path="url(#clip190)" d="M239.422 216.069 Q235.81 216.069 233.982 219.634 Q232.176 223.176 232.176 230.305 Q232.176 237.412 233.982 240.976 Q235.81 244.518 239.422 244.518 Q243.056 244.518 244.861 240.976 Q246.69 237.412 246.69 230.305 Q246.69 223.176 244.861 219.634 Q243.056 216.069 239.422 216.069 M239.422 212.366 Q245.232 212.366 248.287 216.972 Q251.366 221.555 251.366 230.305 Q251.366 239.032 248.287 243.639 Q245.232 248.222 239.422 248.222 Q233.611 248.222 230.533 243.639 Q227.477 239.032 227.477 230.305 Q227.477 221.555 230.533 216.972 Q233.611 212.366 239.422 212.366 Z" fill="#000000" fill-rule="evenodd" fill-opacity="1" /><path clip-path="url(#clip190)" d="M20.1444 773.66 L26.9239 773.66 Q23.9002 776.907 22.4043 780.599 Q20.9083 784.259 20.9083 788.397 Q20.9083 796.545 25.9054 800.874 Q30.8707 805.202 40.2919 805.202 Q49.6813 805.202 54.6784 800.874 Q59.6436 796.545 59.6436 788.397 Q59.6436 784.259 58.1477 780.599 Q56.6518 776.907 53.6281 773.66 L60.3439 773.66 Q62.6355 777.034 63.7814 780.822 Q64.9272 784.577 64.9272 788.779 Q64.9272 799.569 58.3387 805.775 Q51.7183 811.982 40.2919 811.982 Q28.8336 811.982 22.2451 805.775 Q15.6248 799.569 15.6248 788.779 Q15.6248 784.514 16.7706 780.758 Q17.8846 776.97 20.1444 773.66 Z" fill="#000000" fill-rule="evenodd" fill-opacity="1" /><path clip-path="url(#clip190)" d="M33.7671 740.527 L14.479 740.527 L14.479 734.67 L64.0042 734.67 L64.0042 740.527 L58.657 740.527 Q61.8398 742.373 63.3994 745.205 Q64.9272 748.006 64.9272 751.953 Q64.9272 758.414 59.771 762.488 Q54.6147 766.531 46.212 766.531 Q37.8093 766.531 32.6531 762.488 Q27.4968 758.414 27.4968 751.953 Q27.4968 748.006 29.0564 745.205 Q30.5842 742.373 33.7671 740.527 M46.212 760.483 Q52.6732 760.483 56.3653 757.841 Q60.0256 755.168 60.0256 750.521 Q60.0256 745.874 56.3653 743.2 Q52.6732 740.527 46.212 740.527 Q39.7508 740.527 36.0905 743.2 Q32.3984 745.874 32.3984 750.521 Q32.3984 755.168 36.0905 757.841 Q39.7508 760.483 46.212 760.483 Z" fill="#000000" fill-rule="evenodd" fill-opacity="1" /><path clip-path="url(#clip190)" d="M384.282 44.2197 Q386.915 45.1109 389.386 48.0275 Q391.897 50.9442 394.409 56.0483 L402.713 72.576 L393.923 72.576 L386.186 57.061 Q383.188 50.9847 380.352 48.9997 Q377.557 47.0148 372.696 47.0148 L363.784 47.0148 L363.784 72.576 L355.601 72.576 L355.601 12.096 L374.073 12.096 Q384.444 12.096 389.548 16.4305 Q394.652 20.7649 394.652 29.5149 Q394.652 35.2267 391.978 38.994 Q389.345 42.7613 384.282 44.2197 M363.784 18.8205 L363.784 40.2903 L374.073 40.2903 Q379.988 40.2903 382.985 37.5762 Q386.024 34.8216 386.024 29.5149 Q386.024 24.2082 382.985 21.5346 Q379.988 18.8205 374.073 18.8205 L363.784 18.8205 Z" fill="#000000" fill-rule="evenodd" fill-opacity="1" /><path clip-path="url(#clip190)" d="M448.002 48.0275 L448.002 51.6733 L413.732 51.6733 Q414.218 59.3701 418.35 63.421 Q422.522 67.4314 429.935 67.4314 Q434.229 67.4314 438.24 66.3781 Q442.291 65.3249 446.261 63.2184 L446.261 70.267 Q442.25 71.9684 438.037 72.8596 Q433.824 73.7508 429.49 73.7508 Q418.633 73.7508 412.274 67.4314 Q405.954 61.1119 405.954 50.3365 Q405.954 39.1965 411.949 32.6746 Q417.985 26.1121 428.194 26.1121 Q437.349 26.1121 442.655 32.0264 Q448.002 37.9003 448.002 48.0275 M440.549 45.84 Q440.468 39.7232 437.106 36.0774 Q433.784 32.4315 428.275 32.4315 Q422.036 32.4315 418.269 35.9558 Q414.542 39.4801 413.975 45.8805 L440.549 45.84 Z" fill="#000000" fill-rule="evenodd" fill-opacity="1" /><path clip-path="url(#clip190)" d="M461.208 34.9026 L513.141 34.9026 L513.141 41.7081 L461.208 41.7081 L461.208 34.9026 M461.208 51.4303 L513.141 51.4303 L513.141 58.3168 L461.208 58.3168 L461.208 51.4303 Z" fill="#000000" fill-rule="evenodd" fill-opacity="1" /><path clip-path="url(#clip190)" d="M532.221 65.6895 L545.589 65.6895 L545.589 19.5497 L531.046 22.4663 L531.046 15.0127 L545.508 12.096 L553.691 12.096 L553.691 65.6895 L567.059 65.6895 L567.059 72.576 L532.221 72.576 L532.221 65.6895 Z" fill="#000000" fill-rule="evenodd" fill-opacity="1" /><path clip-path="url(#clip190)" d="M601.086 17.4837 Q594.767 17.4837 591.567 23.7221 Q588.407 29.92 588.407 42.3968 Q588.407 54.833 591.567 61.0714 Q594.767 67.2693 601.086 67.2693 Q607.446 67.2693 610.606 61.0714 Q613.806 54.833 613.806 42.3968 Q613.806 29.92 610.606 23.7221 Q607.446 17.4837 601.086 17.4837 M601.086 11.0023 Q611.254 11.0023 616.601 19.0636 Q621.989 27.0843 621.989 42.3968 Q621.989 57.6687 616.601 65.73 Q611.254 73.7508 601.086 73.7508 Q590.918 73.7508 585.531 65.73 Q580.184 57.6687 580.184 42.3968 Q580.184 27.0843 585.531 19.0636 Q590.918 11.0023 601.086 11.0023 Z" fill="#000000" fill-rule="evenodd" fill-opacity="1" /><path clip-path="url(#clip190)" d="M653.869 17.4837 Q647.55 17.4837 644.35 23.7221 Q641.19 29.92 641.19 42.3968 Q641.19 54.833 644.35 61.0714 Q647.55 67.2693 653.869 67.2693 Q660.229 67.2693 663.389 61.0714 Q666.589 54.833 666.589 42.3968 Q666.589 29.92 663.389 23.7221 Q660.229 17.4837 653.869 17.4837 M653.869 11.0023 Q664.037 11.0023 669.384 19.0636 Q674.772 27.0843 674.772 42.3968 Q674.772 57.6687 669.384 65.73 Q664.037 73.7508 653.869 73.7508 Q643.702 73.7508 638.314 65.73 Q632.967 57.6687 632.967 42.3968 Q632.967 27.0843 638.314 19.0636 Q643.702 11.0023 653.869 11.0023 Z" fill="#000000" fill-rule="evenodd" fill-opacity="1" /><path clip-path="url(#clip190)" d="M706.653 17.4837 Q700.333 17.4837 697.133 23.7221 Q693.973 29.92 693.973 42.3968 Q693.973 54.833 697.133 61.0714 Q700.333 67.2693 706.653 67.2693 Q713.013 67.2693 716.172 61.0714 Q719.373 54.833 719.373 42.3968 Q719.373 29.92 716.172 23.7221 Q713.013 17.4837 706.653 17.4837 M706.653 11.0023 Q716.821 11.0023 722.168 19.0636 Q727.555 27.0843 727.555 42.3968 Q727.555 57.6687 722.168 65.73 Q716.821 73.7508 706.653 73.7508 Q696.485 73.7508 691.097 65.73 Q685.75 57.6687 685.75 42.3968 Q685.75 27.0843 691.097 19.0636 Q696.485 11.0023 706.653 11.0023 Z" fill="#000000" fill-rule="evenodd" fill-opacity="1" /><path clip-path="url(#clip190)" d="M759.436 17.4837 Q753.117 17.4837 749.916 23.7221 Q746.757 29.92 746.757 42.3968 Q746.757 54.833 749.916 61.0714 Q753.117 67.2693 759.436 67.2693 Q765.796 67.2693 768.956 61.0714 Q772.156 54.833 772.156 42.3968 Q772.156 29.92 768.956 23.7221 Q765.796 17.4837 759.436 17.4837 M759.436 11.0023 Q769.604 11.0023 774.951 19.0636 Q780.339 27.0843 780.339 42.3968 Q780.339 57.6687 774.951 65.73 Q769.604 73.7508 759.436 73.7508 Q749.268 73.7508 743.881 65.73 Q738.533 57.6687 738.533 42.3968 Q738.533 27.0843 743.881 19.0636 Q749.268 11.0023 759.436 11.0023 Z" fill="#000000" fill-rule="evenodd" fill-opacity="1" /><path clip-path="url(#clip190)" d="M794.719 62.2867 L803.267 62.2867 L803.267 72.576 L794.719 72.576 L794.719 62.2867 Z" fill="#000000" fill-rule="evenodd" fill-opacity="1" /><path clip-path="url(#clip190)" d="M838.591 17.4837 Q832.271 17.4837 829.071 23.7221 Q825.911 29.92 825.911 42.3968 Q825.911 54.833 829.071 61.0714 Q832.271 67.2693 838.591 67.2693 Q844.951 67.2693 848.11 61.0714 Q851.311 54.833 851.311 42.3968 Q851.311 29.92 848.11 23.7221 Q844.951 17.4837 838.591 17.4837 M838.591 11.0023 Q848.758 11.0023 854.106 19.0636 Q859.493 27.0843 859.493 42.3968 Q859.493 57.6687 854.106 65.73 Q848.758 73.7508 838.591 73.7508 Q828.423 73.7508 823.035 65.73 Q817.688 57.6687 817.688 42.3968 Q817.688 27.0843 823.035 19.0636 Q828.423 11.0023 838.591 11.0023 Z" fill="#000000" fill-rule="evenodd" fill-opacity="1" /><path clip-path="url(#clip190)" d="M919.811 49.7694 Q910.778 49.7694 907.294 51.8354 Q903.81 53.9013 903.81 58.8839 Q903.81 62.8538 906.403 65.2034 Q909.036 67.5124 913.532 67.5124 Q919.73 67.5124 923.457 63.1374 Q927.224 58.7219 927.224 51.4303 L927.224 49.7694 L919.811 49.7694 M934.678 46.6907 L934.678 72.576 L927.224 72.576 L927.224 65.6895 Q924.672 69.8214 920.865 71.8063 Q917.057 73.7508 911.547 73.7508 Q904.58 73.7508 900.448 69.8619 Q896.357 65.9325 896.357 59.3701 Q896.357 51.7138 901.461 47.825 Q906.605 43.9361 916.773 43.9361 L927.224 43.9361 L927.224 43.2069 Q927.224 38.0623 923.822 35.2672 Q920.459 32.4315 914.343 32.4315 Q910.454 32.4315 906.767 33.3632 Q903.081 34.295 899.678 36.1584 L899.678 29.2718 Q903.77 27.692 907.618 26.9223 Q911.466 26.1121 915.112 26.1121 Q924.956 26.1121 929.817 31.2163 Q934.678 36.3204 934.678 46.6907 Z" fill="#000000" fill-rule="evenodd" fill-opacity="1" /><path clip-path="url(#clip190)" d="M951.003 34.9026 L1002.94 34.9026 L1002.94 41.7081 L951.003 41.7081 L951.003 34.9026 M951.003 51.4303 L1002.94 51.4303 L1002.94 58.3168 L951.003 58.3168 L951.003 51.4303 Z" fill="#000000" fill-rule="evenodd" fill-opacity="1" /><path clip-path="url(#clip190)" d="M1038.1 17.4837 Q1031.78 17.4837 1028.58 23.7221 Q1025.42 29.92 1025.42 42.3968 Q1025.42 54.833 1028.58 61.0714 Q1031.78 67.2693 1038.1 67.2693 Q1044.46 67.2693 1047.62 61.0714 Q1050.82 54.833 1050.82 42.3968 Q1050.82 29.92 1047.62 23.7221 Q1044.46 17.4837 1038.1 17.4837 M1038.1 11.0023 Q1048.27 11.0023 1053.61 19.0636 Q1059 27.0843 1059 42.3968 Q1059 57.6687 1053.61 65.73 Q1048.27 73.7508 1038.1 73.7508 Q1027.93 73.7508 1022.54 65.73 Q1017.2 57.6687 1017.2 42.3968 Q1017.2 27.0843 1022.54 19.0636 Q1027.93 11.0023 1038.1 11.0023 Z" fill="#000000" fill-rule="evenodd" fill-opacity="1" /><path clip-path="url(#clip190)" d="M1073.38 62.2867 L1081.93 62.2867 L1081.93 72.576 L1073.38 72.576 L1073.38 62.2867 Z" fill="#000000" fill-rule="evenodd" fill-opacity="1" /><path clip-path="url(#clip190)" d="M1106.8 65.6895 L1135.36 65.6895 L1135.36 72.576 L1096.96 72.576 L1096.96 65.6895 Q1101.62 60.8689 1109.64 52.7671 Q1117.7 44.6248 1119.76 42.2752 Q1123.69 37.8598 1125.23 34.8216 Q1126.81 31.7429 1126.81 28.7857 Q1126.81 23.9651 1123.41 20.927 Q1120.05 17.8888 1114.62 17.8888 Q1110.77 17.8888 1106.48 19.2256 Q1102.22 20.5624 1097.36 23.2765 L1097.36 15.0127 Q1102.3 13.0277 1106.6 12.015 Q1110.89 11.0023 1114.46 11.0023 Q1123.86 11.0023 1129.45 15.7013 Q1135.04 20.4004 1135.04 28.2591 Q1135.04 31.9859 1133.62 35.3482 Q1132.24 38.6699 1128.55 43.2069 Q1127.54 44.3817 1122.11 50.0125 Q1116.69 55.6027 1106.8 65.6895 Z" fill="#000000" fill-rule="evenodd" fill-opacity="1" /><path clip-path="url(#clip190)" d="M1152.62 12.096 L1184.74 12.096 L1184.74 18.9825 L1160.11 18.9825 L1160.11 33.8088 Q1161.89 33.2012 1163.68 32.9176 Q1165.46 32.5936 1167.24 32.5936 Q1177.37 32.5936 1183.28 38.1433 Q1189.2 43.6931 1189.2 53.1722 Q1189.2 62.9348 1183.12 68.3631 Q1177.04 73.7508 1165.98 73.7508 Q1162.18 73.7508 1158.21 73.1026 Q1154.28 72.4545 1150.06 71.1582 L1150.06 62.9348 Q1153.71 64.9198 1157.6 65.892 Q1161.49 66.8642 1165.82 66.8642 Q1172.83 66.8642 1176.92 63.1779 Q1181.01 59.4916 1181.01 53.1722 Q1181.01 46.8528 1176.92 43.1664 Q1172.83 39.4801 1165.82 39.4801 Q1162.54 39.4801 1159.26 40.2093 Q1156.02 40.9384 1152.62 42.4778 L1152.62 12.096 Z" fill="#000000" fill-rule="evenodd" fill-opacity="1" /><path clip-path="url(#clip190)" d="M1253.61 9.54393 L1253.61 15.7418 L1246.48 15.7418 Q1242.47 15.7418 1240.89 17.3622 Q1239.35 18.9825 1239.35 23.1955 L1239.35 27.2059 L1251.62 27.2059 L1251.62 32.9987 L1239.35 32.9987 L1239.35 72.576 L1231.85 72.576 L1231.85 32.9987 L1224.72 32.9987 L1224.72 27.2059 L1231.85 27.2059 L1231.85 24.0462 Q1231.85 16.471 1235.38 13.0277 Q1238.9 9.54393 1246.56 9.54393 L1253.61 9.54393 Z" fill="#000000" fill-rule="evenodd" fill-opacity="1" /><path clip-path="url(#clip190)" d="M1260.82 34.9026 L1312.75 34.9026 L1312.75 41.7081 L1260.82 41.7081 L1260.82 34.9026 M1260.82 51.4303 L1312.75 51.4303 L1312.75 58.3168 L1260.82 58.3168 L1260.82 51.4303 Z" fill="#000000" fill-rule="evenodd" fill-opacity="1" /><path clip-path="url(#clip190)" d="M1347.91 17.4837 Q1341.59 17.4837 1338.39 23.7221 Q1335.23 29.92 1335.23 42.3968 Q1335.23 54.833 1338.39 61.0714 Q1341.59 67.2693 1347.91 67.2693 Q1354.27 67.2693 1357.43 61.0714 Q1360.63 54.833 1360.63 42.3968 Q1360.63 29.92 1357.43 23.7221 Q1354.27 17.4837 1347.91 17.4837 M1347.91 11.0023 Q1358.08 11.0023 1363.43 19.0636 Q1368.81 27.0843 1368.81 42.3968 Q1368.81 57.6687 1363.43 65.73 Q1358.08 73.7508 1347.91 73.7508 Q1337.74 73.7508 1332.36 65.73 Q1327.01 57.6687 1327.01 42.3968 Q1327.01 27.0843 1332.36 19.0636 Q1337.74 11.0023 1347.91 11.0023 Z" fill="#000000" fill-rule="evenodd" fill-opacity="1" /><path clip-path="url(#clip190)" d="M1383.19 62.2867 L1391.74 62.2867 L1391.74 72.576 L1383.19 72.576 L1383.19 62.2867 Z" fill="#000000" fill-rule="evenodd" fill-opacity="1" /><path clip-path="url(#clip190)" d="M1409.65 12.096 L1441.77 12.096 L1441.77 18.9825 L1417.14 18.9825 L1417.14 33.8088 Q1418.92 33.2012 1420.71 32.9176 Q1422.49 32.5936 1424.27 32.5936 Q1434.4 32.5936 1440.31 38.1433 Q1446.23 43.6931 1446.23 53.1722 Q1446.23 62.9348 1440.15 68.3631 Q1434.07 73.7508 1423.01 73.7508 Q1419.21 73.7508 1415.24 73.1026 Q1411.31 72.4545 1407.09 71.1582 L1407.09 62.9348 Q1410.74 64.9198 1414.63 65.892 Q1418.52 66.8642 1422.85 66.8642 Q1429.86 66.8642 1433.95 63.1779 Q1438.04 59.4916 1438.04 53.1722 Q1438.04 46.8528 1433.95 43.1664 Q1429.86 39.4801 1422.85 39.4801 Q1419.57 39.4801 1416.29 40.2093 Q1413.05 40.9384 1409.65 42.4778 L1409.65 12.096 Z" fill="#000000" fill-rule="evenodd" fill-opacity="1" /><path clip-path="url(#clip190)" d="M1514.12 51.4708 L1512.34 42.1132 Q1510.51 32.5126 1503.3 32.5126 Q1497.88 32.5126 1495.4 36.9686 Q1492.29 42.5588 1492.29 49.9314 Q1492.29 58.8434 1495.32 63.0969 Q1498.4 67.4314 1503.3 67.4314 Q1508.73 67.4314 1511.65 58.8029 L1514.12 51.4708 M1518.29 39.075 L1522.3 27.2059 L1528.95 27.2059 L1520.64 51.7949 L1522.26 60.6663 Q1522.63 62.6513 1524.04 64.3122 Q1525.71 66.2566 1527 66.2566 L1530.57 66.2566 L1530.57 72.576 L1526.11 72.576 Q1522.3 72.576 1518.9 69.1732 Q1517.24 67.4719 1516.55 63.9071 Q1514.69 68.4036 1510.88 71.9279 Q1509.1 73.5887 1503.3 73.5887 Q1493.78 73.5887 1489.17 67.4314 Q1484.43 61.0714 1484.43 49.9314 Q1484.43 38.0218 1489.57 32.4315 Q1495.28 26.1931 1503.3 26.1931 Q1515.9 26.1931 1518.29 39.075 Z" fill="#000000" fill-rule="evenodd" fill-opacity="1" /><path clip-path="url(#clip190)" d="M1562.49 58.2358 L1562.49 72.576 L1557.79 72.576 L1557.79 57.3851 Q1557.79 53.6988 1556.33 51.9569 Q1554.87 50.1745 1551.83 50.1745 Q1548.23 50.1745 1546.12 52.362 Q1544.02 54.509 1544.02 58.2358 L1544.02 72.576 L1539.28 72.576 L1539.28 47.1768 L1544.02 47.1768 L1544.02 51.1062 Q1545.59 48.7972 1547.82 47.7034 Q1550.09 46.5692 1553.21 46.5692 Q1556.29 46.5692 1558.48 47.987 Q1560.66 49.3643 1561.72 52.0379 Q1563.46 49.2428 1565.89 47.906 Q1568.36 46.5692 1571.68 46.5692 Q1576.18 46.5692 1578.57 49.3643 Q1581 52.1189 1581 57.2231 L1581 72.576 L1576.3 72.576 L1576.3 57.3851 Q1576.3 53.7393 1574.84 51.9569 Q1573.38 50.1745 1570.39 50.1745 Q1566.74 50.1745 1564.59 52.362 Q1562.49 54.509 1562.49 58.2358 Z" fill="#000000" fill-rule="evenodd" fill-opacity="1" /><path clip-path="url(#clip190)" d="M1615.59 58.8434 L1615.59 60.8689 L1594 60.8689 Q1594.33 65.1628 1596.92 67.4314 Q1599.55 69.6999 1604.21 69.6999 Q1606.93 69.6999 1609.48 69.0922 Q1611.99 68.5251 1614.5 67.3503 L1614.5 71.2797 Q1611.99 72.2519 1609.32 72.738 Q1606.68 73.2241 1603.93 73.2241 Q1597.08 73.2241 1593.11 69.6999 Q1589.1 66.1756 1589.1 60.1397 Q1589.1 53.9013 1592.91 50.215 Q1596.68 46.5692 1603.12 46.5692 Q1608.87 46.5692 1612.23 49.8504 Q1615.59 53.1722 1615.59 58.8434 M1610.9 57.5877 Q1610.86 54.1849 1608.75 52.1189 Q1606.64 50.0935 1603.16 50.0935 Q1599.23 50.0935 1596.88 52.0784 Q1594.53 54.0229 1594.17 57.5877 L1610.9 57.5877 Z" fill="#000000" fill-rule="evenodd" fill-opacity="1" /><path clip-path="url(#clip190)" d="M1638.73 59.8157 Q1633.05 59.8157 1630.87 60.9499 Q1628.64 62.1247 1628.64 64.9198 Q1628.64 67.1478 1630.3 68.4441 Q1631.96 69.7404 1634.8 69.7404 Q1638.68 69.7404 1641.03 67.2693 Q1643.42 64.7983 1643.42 60.7474 L1643.42 59.8157 L1638.73 59.8157 M1648.08 58.0738 L1648.08 72.576 L1643.42 72.576 L1643.42 68.7276 Q1641.8 71.0367 1639.41 72.1304 Q1636.98 73.2241 1633.54 73.2241 Q1629.12 73.2241 1626.53 71.0367 Q1623.94 68.8492 1623.94 65.1628 Q1623.94 60.9094 1627.18 58.7219 Q1630.42 56.5344 1636.82 56.5344 L1643.42 56.5344 L1643.42 56.1293 Q1643.42 53.2532 1641.28 51.6733 Q1639.13 50.0935 1635.28 50.0935 Q1632.85 50.0935 1630.5 50.6201 Q1628.19 51.1467 1626.05 52.2 L1626.05 48.3111 Q1628.64 47.4604 1631.07 47.0148 Q1633.46 46.5692 1635.77 46.5692 Q1641.97 46.5692 1645.04 49.4048 Q1648.08 52.281 1648.08 58.0738 Z" fill="#000000" fill-rule="evenodd" fill-opacity="1" /><path clip-path="url(#clip190)" d="M1681.99 57.2231 L1681.99 72.576 L1677.29 72.576 L1677.29 57.3851 Q1677.29 53.7798 1675.71 51.9974 Q1674.13 50.1745 1670.97 50.1745 Q1667.16 50.1745 1664.98 52.362 Q1662.79 54.509 1662.79 58.2358 L1662.79 72.576 L1658.05 72.576 L1658.05 47.1768 L1662.79 47.1768 L1662.79 51.1062 Q1664.45 48.8377 1666.72 47.7034 Q1669.03 46.5692 1672.02 46.5692 Q1676.93 46.5692 1679.44 49.2833 Q1681.99 51.9974 1681.99 57.2231 Z" fill="#000000" fill-rule="evenodd" fill-opacity="1" /><path clip-path="url(#clip190)" d="M1695.15 34.9026 L1747.09 34.9026 L1747.09 41.7081 L1695.15 41.7081 L1695.15 34.9026 M1695.15 51.4303 L1747.09 51.4303 L1747.09 58.3168 L1695.15 58.3168 L1695.15 51.4303 Z" fill="#000000" fill-rule="evenodd" fill-opacity="1" /><path clip-path="url(#clip190)" d="M1787.23 19.2256 L1766.57 51.5113 L1787.23 51.5113 L1787.23 19.2256 M1785.08 12.096 L1795.37 12.096 L1795.37 51.5113 L1804 51.5113 L1804 58.3168 L1795.37 58.3168 L1795.37 72.576 L1787.23 72.576 L1787.23 58.3168 L1759.93 58.3168 L1759.93 50.4176 L1785.08 12.096 Z" fill="#000000" fill-rule="evenodd" fill-opacity="1" /><path clip-path="url(#clip190)" d="M1817.53 62.2867 L1826.08 62.2867 L1826.08 72.576 L1817.53 72.576 L1817.53 62.2867 Z" fill="#000000" fill-rule="evenodd" fill-opacity="1" /><path clip-path="url(#clip190)" d="M1861.4 17.4837 Q1855.08 17.4837 1851.88 23.7221 Q1848.72 29.92 1848.72 42.3968 Q1848.72 54.833 1851.88 61.0714 Q1855.08 67.2693 1861.4 67.2693 Q1867.76 67.2693 1870.92 61.0714 Q1874.12 54.833 1874.12 42.3968 Q1874.12 29.92 1870.92 23.7221 Q1867.76 17.4837 1861.4 17.4837 M1861.4 11.0023 Q1871.57 11.0023 1876.92 19.0636 Q1882.31 27.0843 1882.31 42.3968 Q1882.31 57.6687 1876.92 65.73 Q1871.57 73.7508 1861.4 73.7508 Q1851.24 73.7508 1845.85 65.73 Q1840.5 57.6687 1840.5 42.3968 Q1840.5 27.0843 1845.85 19.0636 Q1851.24 11.0023 1861.4 11.0023 Z" fill="#000000" fill-rule="evenodd" fill-opacity="1" /><path clip-path="url(#clip190)" d="M1948.46 51.4708 L1946.68 42.1132 Q1944.85 32.5126 1937.64 32.5126 Q1932.21 32.5126 1929.74 36.9686 Q1926.62 42.5588 1926.62 49.9314 Q1926.62 58.8434 1929.66 63.0969 Q1932.74 67.4314 1937.64 67.4314 Q1943.07 67.4314 1945.99 58.8029 L1948.46 51.4708 M1952.63 39.075 L1956.64 27.2059 L1963.28 27.2059 L1954.98 51.7949 L1956.6 60.6663 Q1956.96 62.6513 1958.38 64.3122 Q1960.04 66.2566 1961.34 66.2566 L1964.9 66.2566 L1964.9 72.576 L1960.45 72.576 Q1956.64 72.576 1953.24 69.1732 Q1951.58 67.4719 1950.89 63.9071 Q1949.02 68.4036 1945.22 71.9279 Q1943.43 73.5887 1937.64 73.5887 Q1928.12 73.5887 1923.5 67.4314 Q1918.76 61.0714 1918.76 49.9314 Q1918.76 38.0218 1923.91 32.4315 Q1929.62 26.1931 1937.64 26.1931 Q1950.24 26.1931 1952.63 39.075 Z" fill="#000000" fill-rule="evenodd" fill-opacity="1" /><path clip-path="url(#clip190)" d="M1986.78 59.8157 Q1981.11 59.8157 1978.92 60.9499 Q1976.69 62.1247 1976.69 64.9198 Q1976.69 67.1478 1978.35 68.4441 Q1980.01 69.7404 1982.85 69.7404 Q1986.74 69.7404 1989.09 67.2693 Q1991.48 64.7983 1991.48 60.7474 L1991.48 59.8157 L1986.78 59.8157 M1996.14 58.0738 L1996.14 72.576 L1991.48 72.576 L1991.48 68.7276 Q1989.86 71.0367 1987.47 72.1304 Q1985.04 73.2241 1981.59 73.2241 Q1977.18 73.2241 1974.59 71.0367 Q1971.99 68.8492 1971.99 65.1628 Q1971.99 60.9094 1975.23 58.7219 Q1978.47 56.5344 1984.88 56.5344 L1991.48 56.5344 L1991.48 56.1293 Q1991.48 53.2532 1989.33 51.6733 Q1987.18 50.0935 1983.34 50.0935 Q1980.91 50.0935 1978.56 50.6201 Q1976.25 51.1467 1974.1 52.2 L1974.1 48.3111 Q1976.69 47.4604 1979.12 47.0148 Q1981.51 46.5692 1983.82 46.5692 Q1990.02 46.5692 1993.1 49.4048 Q1996.14 52.281 1996.14 58.0738 Z" fill="#000000" fill-rule="evenodd" fill-opacity="1" /><path clip-path="url(#clip190)" d="M2029.31 58.2358 L2029.31 72.576 L2024.61 72.576 L2024.61 57.3851 Q2024.61 53.6988 2023.16 51.9569 Q2021.7 50.1745 2018.66 50.1745 Q2015.05 50.1745 2012.95 52.362 Q2010.84 54.509 2010.84 58.2358 L2010.84 72.576 L2006.1 72.576 L2006.1 47.1768 L2010.84 47.1768 L2010.84 51.1062 Q2012.42 48.7972 2014.65 47.7034 Q2016.92 46.5692 2020.04 46.5692 Q2023.12 46.5692 2025.3 47.987 Q2027.49 49.3643 2028.54 52.0379 Q2030.29 49.2428 2032.72 47.906 Q2035.19 46.5692 2038.51 46.5692 Q2043.01 46.5692 2045.4 49.3643 Q2047.83 52.1189 2047.83 57.2231 L2047.83 72.576 L2043.13 72.576 L2043.13 57.3851 Q2043.13 53.7393 2041.67 51.9569 Q2040.21 50.1745 2037.21 50.1745 Q2033.57 50.1745 2031.42 52.362 Q2029.31 54.509 2029.31 58.2358 Z" fill="#000000" fill-rule="evenodd" fill-opacity="1" /><path clip-path="url(#clip190)" d="M2062.53 68.7682 L2062.53 82.2577 L2057.79 82.2577 L2057.79 47.1768 L2062.53 47.1768 L2062.53 51.0252 Q2063.99 48.7567 2066.26 47.6629 Q2068.53 46.5692 2071.65 46.5692 Q2076.87 46.5692 2080.11 50.215 Q2083.35 53.9013 2083.35 59.8967 Q2083.35 65.892 2080.11 69.5783 Q2076.87 73.2241 2071.65 73.2241 Q2068.53 73.2241 2066.26 72.1304 Q2063.99 71.0367 2062.53 68.7682 M2076.38 67.1073 Q2078.49 64.5147 2078.49 59.8967 Q2078.49 55.2786 2076.38 52.6861 Q2074.24 50.053 2070.51 50.053 Q2066.78 50.053 2064.64 52.6861 Q2062.53 55.2786 2062.53 59.8967 Q2062.53 64.5147 2064.64 67.1073 Q2066.78 69.7404 2070.51 69.7404 Q2074.24 69.7404 2076.38 67.1073 Z" fill="#000000" fill-rule="evenodd" fill-opacity="1" /><path clip-path="url(#clip190)" d="M2097.37 34.9026 L2149.3 34.9026 L2149.3 41.7081 L2097.37 41.7081 L2097.37 34.9026 M2097.37 51.4303 L2149.3 51.4303 L2149.3 58.3168 L2097.37 58.3168 L2097.37 51.4303 Z" fill="#000000" fill-rule="evenodd" fill-opacity="1" /><path clip-path="url(#clip190)" d="M2189.45 19.2256 L2168.79 51.5113 L2189.45 51.5113 L2189.45 19.2256 M2187.3 12.096 L2197.59 12.096 L2197.59 51.5113 L2206.22 51.5113 L2206.22 58.3168 L2197.59 58.3168 L2197.59 72.576 L2189.45 72.576 L2189.45 58.3168 L2162.14 58.3168 L2162.14 50.4176 L2187.3 12.096 Z" fill="#000000" fill-rule="evenodd" fill-opacity="1" /><path clip-path="url(#clip190)" d="M2219.75 62.2867 L2228.29 62.2867 L2228.29 72.576 L2219.75 72.576 L2219.75 62.2867 Z" fill="#000000" fill-rule="evenodd" fill-opacity="1" /><path clip-path="url(#clip190)" d="M2263.62 17.4837 Q2257.3 17.4837 2254.1 23.7221 Q2250.94 29.92 2250.94 42.3968 Q2250.94 54.833 2254.1 61.0714 Q2257.3 67.2693 2263.62 67.2693 Q2269.98 67.2693 2273.14 61.0714 Q2276.34 54.833 2276.34 42.3968 Q2276.34 29.92 2273.14 23.7221 Q2269.98 17.4837 2263.62 17.4837 M2263.62 11.0023 Q2273.79 11.0023 2279.13 19.0636 Q2284.52 27.0843 2284.52 42.3968 Q2284.52 57.6687 2279.13 65.73 Q2273.79 73.7508 2263.62 73.7508 Q2253.45 73.7508 2248.06 65.73 Q2242.72 57.6687 2242.72 42.3968 Q2242.72 27.0843 2248.06 19.0636 Q2253.45 11.0023 2263.62 11.0023 Z" fill="#000000" fill-rule="evenodd" fill-opacity="1" /><polyline clip-path="url(#clip192)" style="stroke:#009af9; stroke-linecap:butt; stroke-linejoin:round; stroke-width:4; stroke-opacity:1; fill:none" points="
  345.82,658.704 352.337,1218.72 358.854,1085.82 365.37,701.565 371.887,397.763 378.404,449.863 384.92,632.311 391.437,738.317 397.954,751.966 404.47,848.334 
  410.987,1081.81 417.504,1240.44 424.02,1223.02 430.537,926.558 437.054,481.64 443.57,458.748 450.087,688.19 456.604,763.134 463.12,776.743 469.637,863.519 
  476.154,1071.35 482.67,1224.86 489.187,1282.9 495.704,965.585 502.22,417.05 508.737,479.936 515.253,723.317 521.77,770.484 528.287,786.724 534.803,901.568 
  541.32,1114.93 547.837,1225.89 554.353,1273.88 560.87,867.212 567.387,316.814 573.903,517.854 580.42,732.411 586.937,771.38 593.453,791.054 599.97,911.322 
  606.487,1122.18 613.003,1193.01 619.52,1235.66 626.037,793.136 632.553,257.34 639.07,528.814 645.587,734.675 652.103,765.763 658.62,790.56 665.137,923.111 
  671.653,1144.73 678.17,1213.44 684.687,1225.67 691.203,760.086 697.72,244.883 704.237,535.489 710.753,736.224 717.27,762.574 723.787,791.29 730.303,935.766 
  736.82,1161.2 743.337,1225.25 749.853,1218.57 756.37,744.981 762.887,241.964 769.403,542.938 775.92,736.579 782.437,762.243 788.953,793.447 795.47,941.316 
  801.986,1171.7 808.503,1247.88 815.02,1211.96 821.536,722.841 828.053,242.303 834.57,546.499 841.086,735.547 847.603,763.104 854.12,796.134 860.636,941.188 
  867.153,1181.43 873.67,1253.71 880.186,1201.6 886.703,737.062 893.22,244.982 899.736,548.971 906.253,732.197 912.77,764.682 919.286,799.252 925.803,945.331 
  932.32,1194.22 938.836,1273.29 945.353,1194.36 951.87,692.399 958.386,250.144 964.903,550.307 971.42,735.557 977.936,766.476 984.453,802.192 990.97,971.873 
  997.486,1186.83 1004,1293.32 1010.52,1190.46 1017.04,666.16 1023.55,260.682 1030.07,551.331 1036.59,739.575 1043.1,768.485 1049.62,805.635 1056.14,964.876 
  1062.65,1173.26 1069.17,1318.9 1075.69,1177 1082.2,677.591 1088.72,246.199 1095.24,560.031 1101.75,742.56 1108.27,770.547 1114.79,809.237 1121.3,951.25 
  1127.82,1161.51 1134.34,1339.55 1140.85,1163.06 1147.37,652.607 1153.89,247.072 1160.4,565.727 1166.92,746.407 1173.44,772.601 1179.95,812.212 1186.47,946.829 
  1192.99,1148.89 1199.5,1361.88 1206.02,1159.15 1212.54,686.007 1219.05,248.943 1225.57,568.716 1232.09,750.071 1238.6,774.867 1245.12,815.849 1251.64,948.142 
  1258.15,1136.12 1264.67,1386.4 1271.19,1145.04 1277.7,646.02 1284.22,256.948 1290.74,570.143 1297.25,753.318 1303.77,777.162 1310.29,819.173 1316.8,955.287 
  1323.32,1124.87 1329.84,1316.96 1336.35,1129.99 1342.87,689.56 1349.39,263.514 1355.9,567.959 1362.42,759.278 1368.94,779.474 1375.45,818.724 1381.97,965.944 
  1388.49,1116.84 1395,1336.68 1401.52,1114.16 1408.04,649.746 1414.55,271.912 1421.07,570.037 1427.59,763.348 1434.1,781.878 1440.62,819.203 1447.14,973.823 
  1453.65,1107.47 1460.17,1266.32 1466.69,1096.25 1473.2,608.46 1479.72,295.22 1486.24,576.469 1492.75,766.779 1499.27,784.177 1505.79,822.823 1512.3,965.044 
  1518.82,1100.61 1525.34,1278.85 1531.85,1078.34 1538.37,567.895 1544.89,314.379 1551.4,590.061 1557.92,769.982 1564.44,786.624 1570.95,823.374 1577.47,940.864 
  1583.99,1105.39 1590.5,1296.25 1597.02,1058.39 1603.54,535.565 1610.05,336.632 1616.57,619.398 1623.09,772.787 1629.6,788.99 1636.12,823.519 1642.64,922.072 
  1649.15,1069.77 1655.67,1235.87 1662.19,1048.47 1668.7,486.959 1675.22,357.412 1681.74,599.426 1688.25,775.379 1694.77,791.379 1701.29,822.709 1707.8,918.326 
  1714.32,1093.86 1720.84,1245.15 1727.35,1027.48 1733.87,438.863 1740.39,337.295 1746.9,582.433 1753.42,777.74 1759.94,793.7 1766.45,821.201 1772.97,922.715 
  1779.49,1075.31 1786,1203.79 1792.52,1005.24 1799.04,378.873 1805.55,310.643 1812.07,576.115 1818.59,780.519 1825.1,795.913 1831.62,821.261 1838.14,935.252 
  1844.65,1055.52 1851.17,1205.56 1857.69,983.23 1864.2,331.798 1870.72,291.024 1877.24,573.133 1883.75,783.096 1890.27,798.224 1896.79,822.61 1903.3,943.999 
  1909.82,1041.35 1916.34,1208.27 1922.85,958.138 1929.37,279.309 1935.89,282.232 1942.4,569.74 1948.92,785.567 1955.44,800.332 1961.95,819.179 1968.47,952.327 
  1974.99,1034.9 1981.5,1192.17 1988.02,933.207 1994.54,240.957 2001.05,273.454 2007.57,567.327 2014.09,788.655 2020.6,802.267 2027.12,811.568 2033.64,963.93 
  2040.15,1044.11 2046.67,1191.18 2053.19,918.167 2059.7,224.579 2066.22,268.979 2072.74,566.213 2079.25,791.602 2085.77,804.183 2092.29,803.523 2098.8,969.556 
  2105.32,1044.06 2111.84,1190.68 2118.35,892.596 2124.87,160.256 2131.38,251.482 2137.9,568.577 2144.42,794.322 2150.93,806.294 2157.45,792.22 2163.97,946.973 
  2170.48,1045.8 2177,1190.38 2183.52,864.432 2190.03,178.277 2196.55,259.411 2203.07,573.304 2209.58,797.567 2216.1,808.129 2222.62,746.661 2229.13,923.228 
  2235.65,1058.18 2242.17,1187.36 2248.68,848.738 2255.2,211.56 2261.72,250.76 2268.23,576.077 2274.75,800.966 2281.27,809.581 2287.78,753.566 2294.3,901.711 
  
  "/>
</svg>
