<?xml version="1.0" encoding="utf-8"?>
<svg xmlns="http://www.w3.org/2000/svg" xmlns:xlink="http://www.w3.org/1999/xlink" width="600" height="400" viewBox="0 0 2400 1600">
<defs>
  <clipPath id="clip110">
    <rect x="0" y="0" width="2400" height="1600"/>
  </clipPath>
</defs>
<path clip-path="url(#clip110)" d="
M0 1600 L2400 1600 L2400 0 L0 0  Z
  " fill="#ffffff" fill-rule="evenodd" fill-opacity="1"/>
<defs>
  <clipPath id="clip111">
    <rect x="480" y="0" width="1681" height="1600"/>
  </clipPath>
</defs>
<path clip-path="url(#clip110)" d="
M211.325 1423.18 L2352.76 1423.18 L2352.76 123.472 L211.325 123.472  Z
  " fill="#ffffff" fill-rule="evenodd" fill-opacity="1"/>
<defs>
  <clipPath id="clip112">
    <rect x="211" y="123" width="2142" height="1301"/>
  </clipPath>
</defs>
<polyline clip-path="url(#clip112)" style="stroke:#000000; stroke-linecap:butt; stroke-linejoin:round; stroke-width:2; stroke-opacity:0.1; fill:none" points="
  271.931,1423.18 271.931,123.472 
  "/>
<polyline clip-path="url(#clip112)" style="stroke:#000000; stroke-linecap:butt; stroke-linejoin:round; stroke-width:2; stroke-opacity:0.1; fill:none" points="
  608.634,1423.18 608.634,123.472 
  "/>
<polyline clip-path="url(#clip112)" style="stroke:#000000; stroke-linecap:butt; stroke-linejoin:round; stroke-width:2; stroke-opacity:0.1; fill:none" points="
  945.337,1423.18 945.337,123.472 
  "/>
<polyline clip-path="url(#clip112)" style="stroke:#000000; stroke-linecap:butt; stroke-linejoin:round; stroke-width:2; stroke-opacity:0.1; fill:none" points="
  1282.04,1423.18 1282.04,123.472 
  "/>
<polyline clip-path="url(#clip112)" style="stroke:#000000; stroke-linecap:butt; stroke-linejoin:round; stroke-width:2; stroke-opacity:0.1; fill:none" points="
  1618.74,1423.18 1618.74,123.472 
  "/>
<polyline clip-path="url(#clip112)" style="stroke:#000000; stroke-linecap:butt; stroke-linejoin:round; stroke-width:2; stroke-opacity:0.1; fill:none" points="
  1955.45,1423.18 1955.45,123.472 
  "/>
<polyline clip-path="url(#clip112)" style="stroke:#000000; stroke-linecap:butt; stroke-linejoin:round; stroke-width:2; stroke-opacity:0.1; fill:none" points="
  2292.15,1423.18 2292.15,123.472 
  "/>
<polyline clip-path="url(#clip110)" style="stroke:#000000; stroke-linecap:butt; stroke-linejoin:round; stroke-width:4; stroke-opacity:1; fill:none" points="
  211.325,1423.18 2352.76,1423.18 
  "/>
<polyline clip-path="url(#clip110)" style="stroke:#000000; stroke-linecap:butt; stroke-linejoin:round; stroke-width:4; stroke-opacity:1; fill:none" points="
  271.931,1423.18 271.931,1404.28 
  "/>
<polyline clip-path="url(#clip110)" style="stroke:#000000; stroke-linecap:butt; stroke-linejoin:round; stroke-width:4; stroke-opacity:1; fill:none" points="
  608.634,1423.18 608.634,1404.28 
  "/>
<polyline clip-path="url(#clip110)" style="stroke:#000000; stroke-linecap:butt; stroke-linejoin:round; stroke-width:4; stroke-opacity:1; fill:none" points="
  945.337,1423.18 945.337,1404.28 
  "/>
<polyline clip-path="url(#clip110)" style="stroke:#000000; stroke-linecap:butt; stroke-linejoin:round; stroke-width:4; stroke-opacity:1; fill:none" points="
  1282.04,1423.18 1282.04,1404.28 
  "/>
<polyline clip-path="url(#clip110)" style="stroke:#000000; stroke-linecap:butt; stroke-linejoin:round; stroke-width:4; stroke-opacity:1; fill:none" points="
  1618.74,1423.18 1618.74,1404.28 
  "/>
<polyline clip-path="url(#clip110)" style="stroke:#000000; stroke-linecap:butt; stroke-linejoin:round; stroke-width:4; stroke-opacity:1; fill:none" points="
  1955.45,1423.18 1955.45,1404.28 
  "/>
<polyline clip-path="url(#clip110)" style="stroke:#000000; stroke-linecap:butt; stroke-linejoin:round; stroke-width:4; stroke-opacity:1; fill:none" points="
  2292.15,1423.18 2292.15,1404.28 
  "/>
<path clip-path="url(#clip110)" d="M271.931 1454.1 Q268.32 1454.1 266.491 1457.66 Q264.686 1461.2 264.686 1468.33 Q264.686 1475.44 266.491 1479.01 Q268.32 1482.55 271.931 1482.55 Q275.565 1482.55 277.371 1479.01 Q279.2 1475.44 279.2 1468.33 Q279.2 1461.2 277.371 1457.66 Q275.565 1454.1 271.931 1454.1 M271.931 1450.39 Q277.741 1450.39 280.797 1455 Q283.876 1459.58 283.876 1468.33 Q283.876 1477.06 280.797 1481.67 Q277.741 1486.25 271.931 1486.25 Q266.121 1486.25 263.042 1481.67 Q259.987 1477.06 259.987 1468.33 Q259.987 1459.58 263.042 1455 Q266.121 1450.39 271.931 1450.39 Z" fill="#000000" fill-rule="evenodd" fill-opacity="1" /><path clip-path="url(#clip110)" d="M583.322 1481.64 L590.961 1481.64 L590.961 1455.28 L582.651 1456.95 L582.651 1452.69 L590.914 1451.02 L595.59 1451.02 L595.59 1481.64 L603.229 1481.64 L603.229 1485.58 L583.322 1485.58 L583.322 1481.64 Z" fill="#000000" fill-rule="evenodd" fill-opacity="1" /><path clip-path="url(#clip110)" d="M622.673 1454.1 Q619.062 1454.1 617.234 1457.66 Q615.428 1461.2 615.428 1468.33 Q615.428 1475.44 617.234 1479.01 Q619.062 1482.55 622.673 1482.55 Q626.308 1482.55 628.113 1479.01 Q629.942 1475.44 629.942 1468.33 Q629.942 1461.2 628.113 1457.66 Q626.308 1454.1 622.673 1454.1 M622.673 1450.39 Q628.484 1450.39 631.539 1455 Q634.618 1459.58 634.618 1468.33 Q634.618 1477.06 631.539 1481.67 Q628.484 1486.25 622.673 1486.25 Q616.863 1486.25 613.785 1481.67 Q610.729 1477.06 610.729 1468.33 Q610.729 1459.58 613.785 1455 Q616.863 1450.39 622.673 1450.39 Z" fill="#000000" fill-rule="evenodd" fill-opacity="1" /><path clip-path="url(#clip110)" d="M924.111 1481.64 L940.43 1481.64 L940.43 1485.58 L918.486 1485.58 L918.486 1481.64 Q921.148 1478.89 925.731 1474.26 Q930.337 1469.61 931.518 1468.27 Q933.763 1465.74 934.643 1464.01 Q935.546 1462.25 935.546 1460.56 Q935.546 1457.8 933.601 1456.07 Q931.68 1454.33 928.578 1454.33 Q926.379 1454.33 923.925 1455.09 Q921.495 1455.86 918.717 1457.41 L918.717 1452.69 Q921.541 1451.55 923.995 1450.97 Q926.448 1450.39 928.485 1450.39 Q933.856 1450.39 937.05 1453.08 Q940.245 1455.77 940.245 1460.26 Q940.245 1462.39 939.435 1464.31 Q938.647 1466.2 936.541 1468.8 Q935.962 1469.47 932.86 1472.69 Q929.759 1475.88 924.111 1481.64 Z" fill="#000000" fill-rule="evenodd" fill-opacity="1" /><path clip-path="url(#clip110)" d="M960.245 1454.1 Q956.633 1454.1 954.805 1457.66 Q952.999 1461.2 952.999 1468.33 Q952.999 1475.44 954.805 1479.01 Q956.633 1482.55 960.245 1482.55 Q963.879 1482.55 965.684 1479.01 Q967.513 1475.44 967.513 1468.33 Q967.513 1461.2 965.684 1457.66 Q963.879 1454.1 960.245 1454.1 M960.245 1450.39 Q966.055 1450.39 969.11 1455 Q972.189 1459.58 972.189 1468.33 Q972.189 1477.06 969.11 1481.67 Q966.055 1486.25 960.245 1486.25 Q954.434 1486.25 951.356 1481.67 Q948.3 1477.06 948.3 1468.33 Q948.3 1459.58 951.356 1455 Q954.434 1450.39 960.245 1450.39 Z" fill="#000000" fill-rule="evenodd" fill-opacity="1" /><path clip-path="url(#clip110)" d="M1270.88 1466.95 Q1274.24 1467.66 1276.11 1469.93 Q1278.01 1472.2 1278.01 1475.53 Q1278.01 1480.65 1274.49 1483.45 Q1270.98 1486.25 1264.49 1486.25 Q1262.32 1486.25 1260 1485.81 Q1257.71 1485.39 1255.26 1484.54 L1255.26 1480.02 Q1257.2 1481.16 1259.52 1481.74 Q1261.83 1482.32 1264.36 1482.32 Q1268.75 1482.32 1271.04 1480.58 Q1273.36 1478.84 1273.36 1475.53 Q1273.36 1472.48 1271.21 1470.77 Q1269.08 1469.03 1265.26 1469.03 L1261.23 1469.03 L1261.23 1465.19 L1265.44 1465.19 Q1268.89 1465.19 1270.72 1463.82 Q1272.55 1462.43 1272.55 1459.84 Q1272.55 1457.18 1270.65 1455.77 Q1268.78 1454.33 1265.26 1454.33 Q1263.34 1454.33 1261.14 1454.75 Q1258.94 1455.16 1256.3 1456.04 L1256.3 1451.88 Q1258.96 1451.14 1261.28 1450.77 Q1263.61 1450.39 1265.67 1450.39 Q1271 1450.39 1274.1 1452.83 Q1277.2 1455.23 1277.2 1459.35 Q1277.2 1462.22 1275.56 1464.21 Q1273.92 1466.18 1270.88 1466.95 Z" fill="#000000" fill-rule="evenodd" fill-opacity="1" /><path clip-path="url(#clip110)" d="M1296.88 1454.1 Q1293.27 1454.1 1291.44 1457.66 Q1289.63 1461.2 1289.63 1468.33 Q1289.63 1475.44 1291.44 1479.01 Q1293.27 1482.55 1296.88 1482.55 Q1300.51 1482.55 1302.32 1479.01 Q1304.15 1475.44 1304.15 1468.33 Q1304.15 1461.2 1302.32 1457.66 Q1300.51 1454.1 1296.88 1454.1 M1296.88 1450.39 Q1302.69 1450.39 1305.74 1455 Q1308.82 1459.58 1308.82 1468.33 Q1308.82 1477.06 1305.74 1481.67 Q1302.69 1486.25 1296.88 1486.25 Q1291.07 1486.25 1287.99 1481.67 Q1284.93 1477.06 1284.93 1468.33 Q1284.93 1459.58 1287.99 1455 Q1291.07 1450.39 1296.88 1450.39 Z" fill="#000000" fill-rule="evenodd" fill-opacity="1" /><path clip-path="url(#clip110)" d="M1606.91 1455.09 L1595.11 1473.54 L1606.91 1473.54 L1606.91 1455.09 M1605.69 1451.02 L1611.57 1451.02 L1611.57 1473.54 L1616.5 1473.54 L1616.5 1477.43 L1611.57 1477.43 L1611.57 1485.58 L1606.91 1485.58 L1606.91 1477.43 L1591.31 1477.43 L1591.31 1472.92 L1605.69 1451.02 Z" fill="#000000" fill-rule="evenodd" fill-opacity="1" /><path clip-path="url(#clip110)" d="M1634.23 1454.1 Q1630.62 1454.1 1628.79 1457.66 Q1626.98 1461.2 1626.98 1468.33 Q1626.98 1475.44 1628.79 1479.01 Q1630.62 1482.55 1634.23 1482.55 Q1637.86 1482.55 1639.67 1479.01 Q1641.5 1475.44 1641.5 1468.33 Q1641.5 1461.2 1639.67 1457.66 Q1637.86 1454.1 1634.23 1454.1 M1634.23 1450.39 Q1640.04 1450.39 1643.1 1455 Q1646.17 1459.58 1646.17 1468.33 Q1646.17 1477.06 1643.1 1481.67 Q1640.04 1486.25 1634.23 1486.25 Q1628.42 1486.25 1625.34 1481.67 Q1622.28 1477.06 1622.28 1468.33 Q1622.28 1459.58 1625.34 1455 Q1628.42 1450.39 1634.23 1450.39 Z" fill="#000000" fill-rule="evenodd" fill-opacity="1" /><path clip-path="url(#clip110)" d="M1930.15 1451.02 L1948.5 1451.02 L1948.5 1454.96 L1934.43 1454.96 L1934.43 1463.43 Q1935.45 1463.08 1936.46 1462.92 Q1937.48 1462.73 1938.5 1462.73 Q1944.29 1462.73 1947.67 1465.9 Q1951.05 1469.08 1951.05 1474.49 Q1951.05 1480.07 1947.58 1483.17 Q1944.1 1486.25 1937.78 1486.25 Q1935.61 1486.25 1933.34 1485.88 Q1931.09 1485.51 1928.69 1484.77 L1928.69 1480.07 Q1930.77 1481.2 1932.99 1481.76 Q1935.21 1482.32 1937.69 1482.32 Q1941.7 1482.32 1944.03 1480.21 Q1946.37 1478.1 1946.37 1474.49 Q1946.37 1470.88 1944.03 1468.77 Q1941.7 1466.67 1937.69 1466.67 Q1935.82 1466.67 1933.94 1467.08 Q1932.09 1467.5 1930.15 1468.38 L1930.15 1451.02 Z" fill="#000000" fill-rule="evenodd" fill-opacity="1" /><path clip-path="url(#clip110)" d="M1970.26 1454.1 Q1966.65 1454.1 1964.82 1457.66 Q1963.02 1461.2 1963.02 1468.33 Q1963.02 1475.44 1964.82 1479.01 Q1966.65 1482.55 1970.26 1482.55 Q1973.9 1482.55 1975.7 1479.01 Q1977.53 1475.44 1977.53 1468.33 Q1977.53 1461.2 1975.7 1457.66 Q1973.9 1454.1 1970.26 1454.1 M1970.26 1450.39 Q1976.07 1450.39 1979.13 1455 Q1982.21 1459.58 1982.21 1468.33 Q1982.21 1477.06 1979.13 1481.67 Q1976.07 1486.25 1970.26 1486.25 Q1964.45 1486.25 1961.37 1481.67 Q1958.32 1477.06 1958.32 1468.33 Q1958.32 1459.58 1961.37 1455 Q1964.45 1450.39 1970.26 1450.39 Z" fill="#000000" fill-rule="evenodd" fill-opacity="1" /><path clip-path="url(#clip110)" d="M2277.55 1466.44 Q2274.41 1466.44 2272.55 1468.59 Q2270.73 1470.74 2270.73 1474.49 Q2270.73 1478.22 2272.55 1480.39 Q2274.41 1482.55 2277.55 1482.55 Q2280.7 1482.55 2282.53 1480.39 Q2284.38 1478.22 2284.38 1474.49 Q2284.38 1470.74 2282.53 1468.59 Q2280.7 1466.44 2277.55 1466.44 M2286.84 1451.78 L2286.84 1456.04 Q2285.08 1455.21 2283.27 1454.77 Q2281.49 1454.33 2279.73 1454.33 Q2275.1 1454.33 2272.65 1457.45 Q2270.22 1460.58 2269.87 1466.9 Q2271.24 1464.89 2273.3 1463.82 Q2275.36 1462.73 2277.83 1462.73 Q2283.04 1462.73 2286.05 1465.9 Q2289.08 1469.05 2289.08 1474.49 Q2289.08 1479.82 2285.93 1483.03 Q2282.79 1486.25 2277.55 1486.25 Q2271.56 1486.25 2268.39 1481.67 Q2265.22 1477.06 2265.22 1468.33 Q2265.22 1460.14 2269.11 1455.28 Q2272.99 1450.39 2279.55 1450.39 Q2281.3 1450.39 2283.09 1450.74 Q2284.89 1451.09 2286.84 1451.78 Z" fill="#000000" fill-rule="evenodd" fill-opacity="1" /><path clip-path="url(#clip110)" d="M2307.14 1454.1 Q2303.53 1454.1 2301.7 1457.66 Q2299.89 1461.2 2299.89 1468.33 Q2299.89 1475.44 2301.7 1479.01 Q2303.53 1482.55 2307.14 1482.55 Q2310.77 1482.55 2312.58 1479.01 Q2314.41 1475.44 2314.41 1468.33 Q2314.41 1461.2 2312.58 1457.66 Q2310.77 1454.1 2307.14 1454.1 M2307.14 1450.39 Q2312.95 1450.39 2316 1455 Q2319.08 1459.58 2319.08 1468.33 Q2319.08 1477.06 2316 1481.67 Q2312.95 1486.25 2307.14 1486.25 Q2301.33 1486.25 2298.25 1481.67 Q2295.19 1477.06 2295.19 1468.33 Q2295.19 1459.58 2298.25 1455 Q2301.33 1450.39 2307.14 1450.39 Z" fill="#000000" fill-rule="evenodd" fill-opacity="1" /><path clip-path="url(#clip110)" d="M1230.35 1522.27 L1230.35 1532.4 L1242.41 1532.4 L1242.41 1536.95 L1230.35 1536.95 L1230.35 1556.3 Q1230.35 1560.66 1231.53 1561.9 Q1232.74 1563.14 1236.4 1563.14 L1242.41 1563.14 L1242.41 1568.04 L1236.4 1568.04 Q1229.62 1568.04 1227.04 1565.53 Q1224.46 1562.98 1224.46 1556.3 L1224.46 1536.95 L1220.17 1536.95 L1220.17 1532.4 L1224.46 1532.4 L1224.46 1522.27 L1230.35 1522.27 Z" fill="#000000" fill-rule="evenodd" fill-opacity="1" /><path clip-path="url(#clip110)" d="M1270.3 1518.52 L1283.79 1518.52 L1283.79 1523.07 L1276.15 1523.07 L1276.15 1572.09 L1283.79 1572.09 L1283.79 1576.64 L1270.3 1576.64 L1270.3 1518.52 Z" fill="#000000" fill-rule="evenodd" fill-opacity="1" /><path clip-path="url(#clip110)" d="M1318.99 1533.45 L1318.99 1538.98 Q1316.51 1537.71 1313.84 1537.07 Q1311.16 1536.44 1308.3 1536.44 Q1303.94 1536.44 1301.74 1537.77 Q1299.58 1539.11 1299.58 1541.79 Q1299.58 1543.82 1301.14 1545 Q1302.7 1546.15 1307.41 1547.2 L1309.41 1547.64 Q1315.65 1548.98 1318.26 1551.43 Q1320.9 1553.85 1320.9 1558.21 Q1320.9 1563.17 1316.96 1566.07 Q1313.04 1568.97 1306.17 1568.97 Q1303.3 1568.97 1300.18 1568.39 Q1297.1 1567.85 1293.66 1566.74 L1293.66 1560.69 Q1296.9 1562.38 1300.06 1563.24 Q1303.21 1564.07 1306.29 1564.07 Q1310.43 1564.07 1312.66 1562.66 Q1314.89 1561.23 1314.89 1558.65 Q1314.89 1556.27 1313.26 1554.99 Q1311.67 1553.72 1306.23 1552.54 L1304.19 1552.07 Q1298.75 1550.92 1296.33 1548.56 Q1293.91 1546.18 1293.91 1542.04 Q1293.91 1537.01 1297.48 1534.27 Q1301.04 1531.54 1307.6 1531.54 Q1310.85 1531.54 1313.71 1532.01 Q1316.57 1532.49 1318.99 1533.45 Z" fill="#000000" fill-rule="evenodd" fill-opacity="1" /><path clip-path="url(#clip110)" d="M1343.91 1518.52 L1343.91 1576.64 L1330.42 1576.64 L1330.42 1572.09 L1338.03 1572.09 L1338.03 1523.07 L1330.42 1523.07 L1330.42 1518.52 L1343.91 1518.52 Z" fill="#000000" fill-rule="evenodd" fill-opacity="1" /><polyline clip-path="url(#clip112)" style="stroke:#000000; stroke-linecap:butt; stroke-linejoin:round; stroke-width:2; stroke-opacity:0.1; fill:none" points="
  211.325,1423.18 2352.76,1423.18 
  "/>
<polyline clip-path="url(#clip112)" style="stroke:#000000; stroke-linecap:butt; stroke-linejoin:round; stroke-width:2; stroke-opacity:0.1; fill:none" points="
  211.325,1098.25 2352.76,1098.25 
  "/>
<polyline clip-path="url(#clip112)" style="stroke:#000000; stroke-linecap:butt; stroke-linejoin:round; stroke-width:2; stroke-opacity:0.1; fill:none" points="
  211.325,773.326 2352.76,773.326 
  "/>
<polyline clip-path="url(#clip112)" style="stroke:#000000; stroke-linecap:butt; stroke-linejoin:round; stroke-width:2; stroke-opacity:0.1; fill:none" points="
  211.325,448.399 2352.76,448.399 
  "/>
<polyline clip-path="url(#clip112)" style="stroke:#000000; stroke-linecap:butt; stroke-linejoin:round; stroke-width:2; stroke-opacity:0.1; fill:none" points="
  211.325,123.472 2352.76,123.472 
  "/>
<polyline clip-path="url(#clip110)" style="stroke:#000000; stroke-linecap:butt; stroke-linejoin:round; stroke-width:4; stroke-opacity:1; fill:none" points="
  211.325,1423.18 211.325,123.472 
  "/>
<polyline clip-path="url(#clip110)" style="stroke:#000000; stroke-linecap:butt; stroke-linejoin:round; stroke-width:4; stroke-opacity:1; fill:none" points="
  211.325,1423.18 230.222,1423.18 
  "/>
<polyline clip-path="url(#clip110)" style="stroke:#000000; stroke-linecap:butt; stroke-linejoin:round; stroke-width:4; stroke-opacity:1; fill:none" points="
  211.325,1098.25 230.222,1098.25 
  "/>
<polyline clip-path="url(#clip110)" style="stroke:#000000; stroke-linecap:butt; stroke-linejoin:round; stroke-width:4; stroke-opacity:1; fill:none" points="
  211.325,773.326 230.222,773.326 
  "/>
<polyline clip-path="url(#clip110)" style="stroke:#000000; stroke-linecap:butt; stroke-linejoin:round; stroke-width:4; stroke-opacity:1; fill:none" points="
  211.325,448.399 230.222,448.399 
  "/>
<polyline clip-path="url(#clip110)" style="stroke:#000000; stroke-linecap:butt; stroke-linejoin:round; stroke-width:4; stroke-opacity:1; fill:none" points="
  211.325,123.472 230.222,123.472 
  "/>
<path clip-path="url(#clip110)" d="M114.26 1423.63 L143.936 1423.63 L143.936 1427.57 L114.26 1427.57 L114.26 1423.63 Z" fill="#000000" fill-rule="evenodd" fill-opacity="1" /><path clip-path="url(#clip110)" d="M168.195 1421.83 Q171.552 1422.54 173.427 1424.81 Q175.325 1427.08 175.325 1430.41 Q175.325 1435.53 171.806 1438.33 Q168.288 1441.13 161.806 1441.13 Q159.63 1441.13 157.315 1440.69 Q155.024 1440.27 152.57 1439.42 L152.57 1434.9 Q154.515 1436.04 156.829 1436.62 Q159.144 1437.2 161.667 1437.2 Q166.065 1437.2 168.357 1435.46 Q170.672 1433.72 170.672 1430.41 Q170.672 1427.36 168.519 1425.65 Q166.39 1423.91 162.57 1423.91 L158.542 1423.91 L158.542 1420.07 L162.755 1420.07 Q166.204 1420.07 168.033 1418.7 Q169.862 1417.31 169.862 1414.72 Q169.862 1412.06 167.964 1410.65 Q166.089 1409.21 162.57 1409.21 Q160.649 1409.21 158.45 1409.63 Q156.251 1410.04 153.612 1410.92 L153.612 1406.76 Q156.274 1406.02 158.589 1405.65 Q160.927 1405.27 162.987 1405.27 Q168.311 1405.27 171.413 1407.71 Q174.514 1410.11 174.514 1414.23 Q174.514 1417.1 172.871 1419.09 Q171.227 1421.06 168.195 1421.83 Z" fill="#000000" fill-rule="evenodd" fill-opacity="1" /><path clip-path="url(#clip110)" d="M115.209 1098.7 L144.885 1098.7 L144.885 1102.64 L115.209 1102.64 L115.209 1098.7 Z" fill="#000000" fill-rule="evenodd" fill-opacity="1" /><path clip-path="url(#clip110)" d="M159.005 1111.6 L175.325 1111.6 L175.325 1115.53 L153.38 1115.53 L153.38 1111.6 Q156.042 1108.84 160.626 1104.21 Q165.232 1099.56 166.413 1098.22 Q168.658 1095.7 169.538 1093.96 Q170.44 1092.2 170.44 1090.51 Q170.44 1087.76 168.496 1086.02 Q166.575 1084.28 163.473 1084.28 Q161.274 1084.28 158.82 1085.05 Q156.39 1085.81 153.612 1087.36 L153.612 1082.64 Q156.436 1081.51 158.89 1080.93 Q161.343 1080.35 163.38 1080.35 Q168.751 1080.35 171.945 1083.03 Q175.139 1085.72 175.139 1090.21 Q175.139 1092.34 174.329 1094.26 Q173.542 1096.16 171.436 1098.75 Q170.857 1099.42 167.755 1102.64 Q164.653 1105.83 159.005 1111.6 Z" fill="#000000" fill-rule="evenodd" fill-opacity="1" /><path clip-path="url(#clip110)" d="M114.839 773.777 L144.515 773.777 L144.515 777.713 L114.839 777.713 L114.839 773.777 Z" fill="#000000" fill-rule="evenodd" fill-opacity="1" /><path clip-path="url(#clip110)" d="M155.417 786.671 L163.056 786.671 L163.056 760.305 L154.746 761.972 L154.746 757.713 L163.01 756.046 L167.686 756.046 L167.686 786.671 L175.325 786.671 L175.325 790.606 L155.417 790.606 L155.417 786.671 Z" fill="#000000" fill-rule="evenodd" fill-opacity="1" /><path clip-path="url(#clip110)" d="M163.38 434.198 Q159.769 434.198 157.94 437.763 Q156.135 441.304 156.135 448.434 Q156.135 455.54 157.94 459.105 Q159.769 462.647 163.38 462.647 Q167.015 462.647 168.82 459.105 Q170.649 455.54 170.649 448.434 Q170.649 441.304 168.82 437.763 Q167.015 434.198 163.38 434.198 M163.38 430.494 Q169.19 430.494 172.246 435.101 Q175.325 439.684 175.325 448.434 Q175.325 457.161 172.246 461.767 Q169.19 466.35 163.38 466.35 Q157.57 466.35 154.491 461.767 Q151.436 457.161 151.436 448.434 Q151.436 439.684 154.491 435.101 Q157.57 430.494 163.38 430.494 Z" fill="#000000" fill-rule="evenodd" fill-opacity="1" /><path clip-path="url(#clip110)" d="M155.417 136.817 L163.056 136.817 L163.056 110.451 L154.746 112.118 L154.746 107.859 L163.01 106.192 L167.686 106.192 L167.686 136.817 L175.325 136.817 L175.325 140.752 L155.417 140.752 L155.417 136.817 Z" fill="#000000" fill-rule="evenodd" fill-opacity="1" /><path clip-path="url(#clip110)" d="M20.1444 761.931 L26.9239 761.931 Q23.9002 765.178 22.4043 768.87 Q20.9083 772.53 20.9083 776.668 Q20.9083 784.816 25.9054 789.145 Q30.8707 793.473 40.2919 793.473 Q49.6813 793.473 54.6784 789.145 Q59.6436 784.816 59.6436 776.668 Q59.6436 772.53 58.1477 768.87 Q56.6518 765.178 53.6281 761.931 L60.3439 761.931 Q62.6355 765.305 63.7814 769.093 Q64.9272 772.849 64.9272 777.05 Q64.9272 787.84 58.3387 794.046 Q51.7183 800.253 40.2919 800.253 Q28.8336 800.253 22.2451 794.046 Q15.6248 787.84 15.6248 777.05 Q15.6248 772.785 16.7706 769.029 Q17.8846 765.242 20.1444 761.931 Z" fill="#000000" fill-rule="evenodd" fill-opacity="1" /><path clip-path="url(#clip110)" d="M14.479 752.255 L14.479 746.399 L64.0042 746.399 L64.0042 752.255 L14.479 752.255 Z" fill="#000000" fill-rule="evenodd" fill-opacity="1" /><path clip-path="url(#clip110)" d="M346.261 44.2197 Q348.894 45.1109 351.365 48.0275 Q353.877 50.9442 356.388 56.0483 L364.693 72.576 L355.902 72.576 L348.165 57.061 Q345.167 50.9847 342.332 48.9997 Q339.537 47.0148 334.676 47.0148 L325.764 47.0148 L325.764 72.576 L317.581 72.576 L317.581 12.096 L336.053 12.096 Q346.423 12.096 351.527 16.4305 Q356.631 20.7649 356.631 29.5149 Q356.631 35.2267 353.958 38.994 Q351.325 42.7613 346.261 44.2197 M325.764 18.8205 L325.764 40.2903 L336.053 40.2903 Q341.967 40.2903 344.965 37.5762 Q348.003 34.8216 348.003 29.5149 Q348.003 24.2082 344.965 21.5346 Q341.967 18.8205 336.053 18.8205 L325.764 18.8205 Z" fill="#000000" fill-rule="evenodd" fill-opacity="1" /><path clip-path="url(#clip110)" d="M409.982 48.0275 L409.982 51.6733 L375.711 51.6733 Q376.197 59.3701 380.329 63.421 Q384.502 67.4314 391.915 67.4314 Q396.209 67.4314 400.219 66.3781 Q404.27 65.3249 408.24 63.2184 L408.24 70.267 Q404.23 71.9684 400.017 72.8596 Q395.804 73.7508 391.469 73.7508 Q380.613 73.7508 374.253 67.4314 Q367.933 61.1119 367.933 50.3365 Q367.933 39.1965 373.929 32.6746 Q379.965 26.1121 390.173 26.1121 Q399.328 26.1121 404.635 32.0264 Q409.982 37.9003 409.982 48.0275 M402.528 45.84 Q402.447 39.7232 399.085 36.0774 Q395.763 32.4315 390.254 32.4315 Q384.016 32.4315 380.248 35.9558 Q376.521 39.4801 375.954 45.8805 L402.528 45.84 Z" fill="#000000" fill-rule="evenodd" fill-opacity="1" /><path clip-path="url(#clip110)" d="M423.188 34.9026 L475.12 34.9026 L475.12 41.7081 L423.188 41.7081 L423.188 34.9026 M423.188 51.4303 L475.12 51.4303 L475.12 58.3168 L423.188 58.3168 L423.188 51.4303 Z" fill="#000000" fill-rule="evenodd" fill-opacity="1" /><path clip-path="url(#clip110)" d="M494.2 65.6895 L507.568 65.6895 L507.568 19.5497 L493.025 22.4663 L493.025 15.0127 L507.487 12.096 L515.67 12.096 L515.67 65.6895 L529.038 65.6895 L529.038 72.576 L494.2 72.576 L494.2 65.6895 Z" fill="#000000" fill-rule="evenodd" fill-opacity="1" /><path clip-path="url(#clip110)" d="M563.066 17.4837 Q556.746 17.4837 553.546 23.7221 Q550.386 29.92 550.386 42.3968 Q550.386 54.833 553.546 61.0714 Q556.746 67.2693 563.066 67.2693 Q569.425 67.2693 572.585 61.0714 Q575.785 54.833 575.785 42.3968 Q575.785 29.92 572.585 23.7221 Q569.425 17.4837 563.066 17.4837 M563.066 11.0023 Q573.233 11.0023 578.581 19.0636 Q583.968 27.0843 583.968 42.3968 Q583.968 57.6687 578.581 65.73 Q573.233 73.7508 563.066 73.7508 Q552.898 73.7508 547.51 65.73 Q542.163 57.6687 542.163 42.3968 Q542.163 27.0843 547.51 19.0636 Q552.898 11.0023 563.066 11.0023 Z" fill="#000000" fill-rule="evenodd" fill-opacity="1" /><path clip-path="url(#clip110)" d="M615.849 17.4837 Q609.529 17.4837 606.329 23.7221 Q603.169 29.92 603.169 42.3968 Q603.169 54.833 606.329 61.0714 Q609.529 67.2693 615.849 67.2693 Q622.209 67.2693 625.368 61.0714 Q628.569 54.833 628.569 42.3968 Q628.569 29.92 625.368 23.7221 Q622.209 17.4837 615.849 17.4837 M615.849 11.0023 Q626.017 11.0023 631.364 19.0636 Q636.751 27.0843 636.751 42.3968 Q636.751 57.6687 631.364 65.73 Q626.017 73.7508 615.849 73.7508 Q605.681 73.7508 600.293 65.73 Q594.946 57.6687 594.946 42.3968 Q594.946 27.0843 600.293 19.0636 Q605.681 11.0023 615.849 11.0023 Z" fill="#000000" fill-rule="evenodd" fill-opacity="1" /><path clip-path="url(#clip110)" d="M668.632 17.4837 Q662.313 17.4837 659.112 23.7221 Q655.953 29.92 655.953 42.3968 Q655.953 54.833 659.112 61.0714 Q662.313 67.2693 668.632 67.2693 Q674.992 67.2693 678.152 61.0714 Q681.352 54.833 681.352 42.3968 Q681.352 29.92 678.152 23.7221 Q674.992 17.4837 668.632 17.4837 M668.632 11.0023 Q678.8 11.0023 684.147 19.0636 Q689.535 27.0843 689.535 42.3968 Q689.535 57.6687 684.147 65.73 Q678.8 73.7508 668.632 73.7508 Q658.464 73.7508 653.077 65.73 Q647.729 57.6687 647.729 42.3968 Q647.729 27.0843 653.077 19.0636 Q658.464 11.0023 668.632 11.0023 Z" fill="#000000" fill-rule="evenodd" fill-opacity="1" /><path clip-path="url(#clip110)" d="M721.415 17.4837 Q715.096 17.4837 711.896 23.7221 Q708.736 29.92 708.736 42.3968 Q708.736 54.833 711.896 61.0714 Q715.096 67.2693 721.415 67.2693 Q727.775 67.2693 730.935 61.0714 Q734.135 54.833 734.135 42.3968 Q734.135 29.92 730.935 23.7221 Q727.775 17.4837 721.415 17.4837 M721.415 11.0023 Q731.583 11.0023 736.93 19.0636 Q742.318 27.0843 742.318 42.3968 Q742.318 57.6687 736.93 65.73 Q731.583 73.7508 721.415 73.7508 Q711.248 73.7508 705.86 65.73 Q700.513 57.6687 700.513 42.3968 Q700.513 27.0843 705.86 19.0636 Q711.248 11.0023 721.415 11.0023 Z" fill="#000000" fill-rule="evenodd" fill-opacity="1" /><path clip-path="url(#clip110)" d="M756.699 62.2867 L765.246 62.2867 L765.246 72.576 L756.699 72.576 L756.699 62.2867 Z" fill="#000000" fill-rule="evenodd" fill-opacity="1" /><path clip-path="url(#clip110)" d="M800.57 17.4837 Q794.251 17.4837 791.05 23.7221 Q787.891 29.92 787.891 42.3968 Q787.891 54.833 791.05 61.0714 Q794.251 67.2693 800.57 67.2693 Q806.93 67.2693 810.09 61.0714 Q813.29 54.833 813.29 42.3968 Q813.29 29.92 810.09 23.7221 Q806.93 17.4837 800.57 17.4837 M800.57 11.0023 Q810.738 11.0023 816.085 19.0636 Q821.473 27.0843 821.473 42.3968 Q821.473 57.6687 816.085 65.73 Q810.738 73.7508 800.57 73.7508 Q790.402 73.7508 785.015 65.73 Q779.667 57.6687 779.667 42.3968 Q779.667 27.0843 785.015 19.0636 Q790.402 11.0023 800.57 11.0023 Z" fill="#000000" fill-rule="evenodd" fill-opacity="1" /><path clip-path="url(#clip110)" d="M881.791 49.7694 Q872.757 49.7694 869.273 51.8354 Q865.79 53.9013 865.79 58.8839 Q865.79 62.8538 868.382 65.2034 Q871.015 67.5124 875.512 67.5124 Q881.71 67.5124 885.436 63.1374 Q889.204 58.7219 889.204 51.4303 L889.204 49.7694 L881.791 49.7694 M896.658 46.6907 L896.658 72.576 L889.204 72.576 L889.204 65.6895 Q886.652 69.8214 882.844 71.8063 Q879.036 73.7508 873.527 73.7508 Q866.559 73.7508 862.427 69.8619 Q858.336 65.9325 858.336 59.3701 Q858.336 51.7138 863.44 47.825 Q868.585 43.9361 878.753 43.9361 L889.204 43.9361 L889.204 43.2069 Q889.204 38.0623 885.801 35.2672 Q882.439 32.4315 876.322 32.4315 Q872.433 32.4315 868.747 33.3632 Q865.06 34.295 861.658 36.1584 L861.658 29.2718 Q865.749 27.692 869.597 26.9223 Q873.446 26.1121 877.092 26.1121 Q886.935 26.1121 891.796 31.2163 Q896.658 36.3204 896.658 46.6907 Z" fill="#000000" fill-rule="evenodd" fill-opacity="1" /><path clip-path="url(#clip110)" d="M912.983 34.9026 L964.915 34.9026 L964.915 41.7081 L912.983 41.7081 L912.983 34.9026 M912.983 51.4303 L964.915 51.4303 L964.915 58.3168 L912.983 58.3168 L912.983 51.4303 Z" fill="#000000" fill-rule="evenodd" fill-opacity="1" /><path clip-path="url(#clip110)" d="M1000.08 17.4837 Q993.758 17.4837 990.557 23.7221 Q987.398 29.92 987.398 42.3968 Q987.398 54.833 990.557 61.0714 Q993.758 67.2693 1000.08 67.2693 Q1006.44 67.2693 1009.6 61.0714 Q1012.8 54.833 1012.8 42.3968 Q1012.8 29.92 1009.6 23.7221 Q1006.44 17.4837 1000.08 17.4837 M1000.08 11.0023 Q1010.24 11.0023 1015.59 19.0636 Q1020.98 27.0843 1020.98 42.3968 Q1020.98 57.6687 1015.59 65.73 Q1010.24 73.7508 1000.08 73.7508 Q989.909 73.7508 984.522 65.73 Q979.174 57.6687 979.174 42.3968 Q979.174 27.0843 984.522 19.0636 Q989.909 11.0023 1000.08 11.0023 Z" fill="#000000" fill-rule="evenodd" fill-opacity="1" /><path clip-path="url(#clip110)" d="M1035.36 62.2867 L1043.91 62.2867 L1043.91 72.576 L1035.36 72.576 L1035.36 62.2867 Z" fill="#000000" fill-rule="evenodd" fill-opacity="1" /><path clip-path="url(#clip110)" d="M1068.78 65.6895 L1097.34 65.6895 L1097.34 72.576 L1058.94 72.576 L1058.94 65.6895 Q1063.6 60.8689 1071.62 52.7671 Q1079.68 44.6248 1081.74 42.2752 Q1085.67 37.8598 1087.21 34.8216 Q1088.79 31.7429 1088.79 28.7857 Q1088.79 23.9651 1085.39 20.927 Q1082.03 17.8888 1076.6 17.8888 Q1072.75 17.8888 1068.46 19.2256 Q1064.2 20.5624 1059.34 23.2765 L1059.34 15.0127 Q1064.28 13.0277 1068.58 12.015 Q1072.87 11.0023 1076.44 11.0023 Q1085.83 11.0023 1091.42 15.7013 Q1097.02 20.4004 1097.02 28.2591 Q1097.02 31.9859 1095.6 35.3482 Q1094.22 38.6699 1090.53 43.2069 Q1089.52 44.3817 1084.09 50.0125 Q1078.66 55.6027 1068.78 65.6895 Z" fill="#000000" fill-rule="evenodd" fill-opacity="1" /><path clip-path="url(#clip110)" d="M1114.6 12.096 L1146.72 12.096 L1146.72 18.9825 L1122.09 18.9825 L1122.09 33.8088 Q1123.87 33.2012 1125.66 32.9176 Q1127.44 32.5936 1129.22 32.5936 Q1139.35 32.5936 1145.26 38.1433 Q1151.18 43.6931 1151.18 53.1722 Q1151.18 62.9348 1145.1 68.3631 Q1139.02 73.7508 1127.96 73.7508 Q1124.16 73.7508 1120.19 73.1026 Q1116.26 72.4545 1112.04 71.1582 L1112.04 62.9348 Q1115.69 64.9198 1119.58 65.892 Q1123.47 66.8642 1127.8 66.8642 Q1134.81 66.8642 1138.9 63.1779 Q1142.99 59.4916 1142.99 53.1722 Q1142.99 46.8528 1138.9 43.1664 Q1134.81 39.4801 1127.8 39.4801 Q1124.52 39.4801 1121.24 40.2093 Q1118 40.9384 1114.6 42.4778 L1114.6 12.096 Z" fill="#000000" fill-rule="evenodd" fill-opacity="1" /><path clip-path="url(#clip110)" d="M1215.59 9.54393 L1215.59 15.7418 L1208.46 15.7418 Q1204.45 15.7418 1202.87 17.3622 Q1201.33 18.9825 1201.33 23.1955 L1201.33 27.2059 L1213.6 27.2059 L1213.6 32.9987 L1201.33 32.9987 L1201.33 72.576 L1193.83 72.576 L1193.83 32.9987 L1186.7 32.9987 L1186.7 27.2059 L1193.83 27.2059 L1193.83 24.0462 Q1193.83 16.471 1197.36 13.0277 Q1200.88 9.54393 1208.54 9.54393 L1215.59 9.54393 Z" fill="#000000" fill-rule="evenodd" fill-opacity="1" /><path clip-path="url(#clip110)" d="M1222.8 34.9026 L1274.73 34.9026 L1274.73 41.7081 L1222.8 41.7081 L1222.8 34.9026 M1222.8 51.4303 L1274.73 51.4303 L1274.73 58.3168 L1222.8 58.3168 L1222.8 51.4303 Z" fill="#000000" fill-rule="evenodd" fill-opacity="1" /><path clip-path="url(#clip110)" d="M1309.89 17.4837 Q1303.57 17.4837 1300.37 23.7221 Q1297.21 29.92 1297.21 42.3968 Q1297.21 54.833 1300.37 61.0714 Q1303.57 67.2693 1309.89 67.2693 Q1316.25 67.2693 1319.41 61.0714 Q1322.61 54.833 1322.61 42.3968 Q1322.61 29.92 1319.41 23.7221 Q1316.25 17.4837 1309.89 17.4837 M1309.89 11.0023 Q1320.06 11.0023 1325.41 19.0636 Q1330.79 27.0843 1330.79 42.3968 Q1330.79 57.6687 1325.41 65.73 Q1320.06 73.7508 1309.89 73.7508 Q1299.72 73.7508 1294.33 65.73 Q1288.99 57.6687 1288.99 42.3968 Q1288.99 27.0843 1294.33 19.0636 Q1299.72 11.0023 1309.89 11.0023 Z" fill="#000000" fill-rule="evenodd" fill-opacity="1" /><path clip-path="url(#clip110)" d="M1345.17 62.2867 L1353.72 62.2867 L1353.72 72.576 L1345.17 72.576 L1345.17 62.2867 Z" fill="#000000" fill-rule="evenodd" fill-opacity="1" /><path clip-path="url(#clip110)" d="M1371.63 12.096 L1403.75 12.096 L1403.75 18.9825 L1379.12 18.9825 L1379.12 33.8088 Q1380.9 33.2012 1382.68 32.9176 Q1384.47 32.5936 1386.25 32.5936 Q1396.38 32.5936 1402.29 38.1433 Q1408.21 43.6931 1408.21 53.1722 Q1408.21 62.9348 1402.13 68.3631 Q1396.05 73.7508 1384.99 73.7508 Q1381.19 73.7508 1377.22 73.1026 Q1373.29 72.4545 1369.07 71.1582 L1369.07 62.9348 Q1372.72 64.9198 1376.61 65.892 Q1380.5 66.8642 1384.83 66.8642 Q1391.84 66.8642 1395.93 63.1779 Q1400.02 59.4916 1400.02 53.1722 Q1400.02 46.8528 1395.93 43.1664 Q1391.84 39.4801 1384.83 39.4801 Q1381.55 39.4801 1378.27 40.2093 Q1375.03 40.9384 1371.63 42.4778 L1371.63 12.096 Z" fill="#000000" fill-rule="evenodd" fill-opacity="1" /><path clip-path="url(#clip110)" d="M1476.1 51.4708 L1474.32 42.1132 Q1472.49 32.5126 1465.28 32.5126 Q1459.85 32.5126 1457.38 36.9686 Q1454.26 42.5588 1454.26 49.9314 Q1454.26 58.8434 1457.3 63.0969 Q1460.38 67.4314 1465.28 67.4314 Q1470.71 67.4314 1473.63 58.8029 L1476.1 51.4708 M1480.27 39.075 L1484.28 27.2059 L1490.93 27.2059 L1482.62 51.7949 L1484.24 60.6663 Q1484.61 62.6513 1486.02 64.3122 Q1487.68 66.2566 1488.98 66.2566 L1492.55 66.2566 L1492.55 72.576 L1488.09 72.576 Q1484.28 72.576 1480.88 69.1732 Q1479.22 67.4719 1478.53 63.9071 Q1476.67 68.4036 1472.86 71.9279 Q1471.08 73.5887 1465.28 73.5887 Q1455.76 73.5887 1451.15 67.4314 Q1446.41 61.0714 1446.41 49.9314 Q1446.41 38.0218 1451.55 32.4315 Q1457.26 26.1931 1465.28 26.1931 Q1477.88 26.1931 1480.27 39.075 Z" fill="#000000" fill-rule="evenodd" fill-opacity="1" /><path clip-path="url(#clip110)" d="M1524.47 58.2358 L1524.47 72.576 L1519.77 72.576 L1519.77 57.3851 Q1519.77 53.6988 1518.31 51.9569 Q1516.85 50.1745 1513.81 50.1745 Q1510.21 50.1745 1508.1 52.362 Q1505.99 54.509 1505.99 58.2358 L1505.99 72.576 L1501.25 72.576 L1501.25 47.1768 L1505.99 47.1768 L1505.99 51.1062 Q1507.57 48.7972 1509.8 47.7034 Q1512.07 46.5692 1515.19 46.5692 Q1518.27 46.5692 1520.46 47.987 Q1522.64 49.3643 1523.7 52.0379 Q1525.44 49.2428 1527.87 47.906 Q1530.34 46.5692 1533.66 46.5692 Q1538.16 46.5692 1540.55 49.3643 Q1542.98 52.1189 1542.98 57.2231 L1542.98 72.576 L1538.28 72.576 L1538.28 57.3851 Q1538.28 53.7393 1536.82 51.9569 Q1535.36 50.1745 1532.37 50.1745 Q1528.72 50.1745 1526.57 52.362 Q1524.47 54.509 1524.47 58.2358 Z" fill="#000000" fill-rule="evenodd" fill-opacity="1" /><path clip-path="url(#clip110)" d="M1577.57 58.8434 L1577.57 60.8689 L1555.98 60.8689 Q1556.31 65.1628 1558.9 67.4314 Q1561.53 69.6999 1566.19 69.6999 Q1568.91 69.6999 1571.46 69.0922 Q1573.97 68.5251 1576.48 67.3503 L1576.48 71.2797 Q1573.97 72.2519 1571.3 72.738 Q1568.66 73.2241 1565.91 73.2241 Q1559.06 73.2241 1555.09 69.6999 Q1551.08 66.1756 1551.08 60.1397 Q1551.08 53.9013 1554.89 50.215 Q1558.66 46.5692 1565.1 46.5692 Q1570.85 46.5692 1574.21 49.8504 Q1577.57 53.1722 1577.57 58.8434 M1572.87 57.5877 Q1572.83 54.1849 1570.73 52.1189 Q1568.62 50.0935 1565.14 50.0935 Q1561.21 50.0935 1558.86 52.0784 Q1556.51 54.0229 1556.14 57.5877 L1572.87 57.5877 Z" fill="#000000" fill-rule="evenodd" fill-opacity="1" /><path clip-path="url(#clip110)" d="M1600.7 59.8157 Q1595.03 59.8157 1592.85 60.9499 Q1590.62 62.1247 1590.62 64.9198 Q1590.62 67.1478 1592.28 68.4441 Q1593.94 69.7404 1596.78 69.7404 Q1600.66 69.7404 1603.01 67.2693 Q1605.4 64.7983 1605.4 60.7474 L1605.4 59.8157 L1600.7 59.8157 M1610.06 58.0738 L1610.06 72.576 L1605.4 72.576 L1605.4 68.7276 Q1603.78 71.0367 1601.39 72.1304 Q1598.96 73.2241 1595.52 73.2241 Q1591.1 73.2241 1588.51 71.0367 Q1585.92 68.8492 1585.92 65.1628 Q1585.92 60.9094 1589.16 58.7219 Q1592.4 56.5344 1598.8 56.5344 L1605.4 56.5344 L1605.4 56.1293 Q1605.4 53.2532 1603.26 51.6733 Q1601.11 50.0935 1597.26 50.0935 Q1594.83 50.0935 1592.48 50.6201 Q1590.17 51.1467 1588.03 52.2 L1588.03 48.3111 Q1590.62 47.4604 1593.05 47.0148 Q1595.44 46.5692 1597.75 46.5692 Q1603.95 46.5692 1607.02 49.4048 Q1610.06 52.281 1610.06 58.0738 Z" fill="#000000" fill-rule="evenodd" fill-opacity="1" /><path clip-path="url(#clip110)" d="M1643.97 57.2231 L1643.97 72.576 L1639.27 72.576 L1639.27 57.3851 Q1639.27 53.7798 1637.69 51.9974 Q1636.11 50.1745 1632.95 50.1745 Q1629.14 50.1745 1626.95 52.362 Q1624.77 54.509 1624.77 58.2358 L1624.77 72.576 L1620.03 72.576 L1620.03 47.1768 L1624.77 47.1768 L1624.77 51.1062 Q1626.43 48.8377 1628.7 47.7034 Q1631.01 46.5692 1634 46.5692 Q1638.9 46.5692 1641.42 49.2833 Q1643.97 51.9974 1643.97 57.2231 Z" fill="#000000" fill-rule="evenodd" fill-opacity="1" /><path clip-path="url(#clip110)" d="M1657.13 34.9026 L1709.07 34.9026 L1709.07 41.7081 L1657.13 41.7081 L1657.13 34.9026 M1657.13 51.4303 L1709.07 51.4303 L1709.07 58.3168 L1657.13 58.3168 L1657.13 51.4303 Z" fill="#000000" fill-rule="evenodd" fill-opacity="1" /><path clip-path="url(#clip110)" d="M1749.21 19.2256 L1728.55 51.5113 L1749.21 51.5113 L1749.21 19.2256 M1747.06 12.096 L1757.35 12.096 L1757.35 51.5113 L1765.98 51.5113 L1765.98 58.3168 L1757.35 58.3168 L1757.35 72.576 L1749.21 72.576 L1749.21 58.3168 L1721.91 58.3168 L1721.91 50.4176 L1747.06 12.096 Z" fill="#000000" fill-rule="evenodd" fill-opacity="1" /><path clip-path="url(#clip110)" d="M1779.51 62.2867 L1788.06 62.2867 L1788.06 72.576 L1779.51 72.576 L1779.51 62.2867 Z" fill="#000000" fill-rule="evenodd" fill-opacity="1" /><path clip-path="url(#clip110)" d="M1823.38 17.4837 Q1817.06 17.4837 1813.86 23.7221 Q1810.7 29.92 1810.7 42.3968 Q1810.7 54.833 1813.86 61.0714 Q1817.06 67.2693 1823.38 67.2693 Q1829.74 67.2693 1832.9 61.0714 Q1836.1 54.833 1836.1 42.3968 Q1836.1 29.92 1832.9 23.7221 Q1829.74 17.4837 1823.38 17.4837 M1823.38 11.0023 Q1833.55 11.0023 1838.9 19.0636 Q1844.29 27.0843 1844.29 42.3968 Q1844.29 57.6687 1838.9 65.73 Q1833.55 73.7508 1823.38 73.7508 Q1813.22 73.7508 1807.83 65.73 Q1802.48 57.6687 1802.48 42.3968 Q1802.48 27.0843 1807.83 19.0636 Q1813.22 11.0023 1823.38 11.0023 Z" fill="#000000" fill-rule="evenodd" fill-opacity="1" /><path clip-path="url(#clip110)" d="M1910.44 51.4708 L1908.65 42.1132 Q1906.83 32.5126 1899.62 32.5126 Q1894.19 32.5126 1891.72 36.9686 Q1888.6 42.5588 1888.6 49.9314 Q1888.6 58.8434 1891.64 63.0969 Q1894.72 67.4314 1899.62 67.4314 Q1905.05 67.4314 1907.97 58.8029 L1910.44 51.4708 M1914.61 39.075 L1918.62 27.2059 L1925.26 27.2059 L1916.96 51.7949 L1918.58 60.6663 Q1918.94 62.6513 1920.36 64.3122 Q1922.02 66.2566 1923.32 66.2566 L1926.88 66.2566 L1926.88 72.576 L1922.43 72.576 Q1918.62 72.576 1915.22 69.1732 Q1913.56 67.4719 1912.87 63.9071 Q1911 68.4036 1907.2 71.9279 Q1905.41 73.5887 1899.62 73.5887 Q1890.1 73.5887 1885.48 67.4314 Q1880.74 61.0714 1880.74 49.9314 Q1880.74 38.0218 1885.89 32.4315 Q1891.6 26.1931 1899.62 26.1931 Q1912.22 26.1931 1914.61 39.075 Z" fill="#000000" fill-rule="evenodd" fill-opacity="1" /><path clip-path="url(#clip110)" d="M1948.76 59.8157 Q1943.09 59.8157 1940.9 60.9499 Q1938.67 62.1247 1938.67 64.9198 Q1938.67 67.1478 1940.33 68.4441 Q1941.99 69.7404 1944.83 69.7404 Q1948.72 69.7404 1951.07 67.2693 Q1953.46 64.7983 1953.46 60.7474 L1953.46 59.8157 L1948.76 59.8157 M1958.12 58.0738 L1958.12 72.576 L1953.46 72.576 L1953.46 68.7276 Q1951.84 71.0367 1949.45 72.1304 Q1947.02 73.2241 1943.57 73.2241 Q1939.16 73.2241 1936.57 71.0367 Q1933.97 68.8492 1933.97 65.1628 Q1933.97 60.9094 1937.21 58.7219 Q1940.45 56.5344 1946.85 56.5344 L1953.46 56.5344 L1953.46 56.1293 Q1953.46 53.2532 1951.31 51.6733 Q1949.16 50.0935 1945.32 50.0935 Q1942.88 50.0935 1940.54 50.6201 Q1938.23 51.1467 1936.08 52.2 L1936.08 48.3111 Q1938.67 47.4604 1941.1 47.0148 Q1943.49 46.5692 1945.8 46.5692 Q1952 46.5692 1955.08 49.4048 Q1958.12 52.281 1958.12 58.0738 Z" fill="#000000" fill-rule="evenodd" fill-opacity="1" /><path clip-path="url(#clip110)" d="M1991.29 58.2358 L1991.29 72.576 L1986.59 72.576 L1986.59 57.3851 Q1986.59 53.6988 1985.14 51.9569 Q1983.68 50.1745 1980.64 50.1745 Q1977.03 50.1745 1974.93 52.362 Q1972.82 54.509 1972.82 58.2358 L1972.82 72.576 L1968.08 72.576 L1968.08 47.1768 L1972.82 47.1768 L1972.82 51.1062 Q1974.4 48.7972 1976.63 47.7034 Q1978.9 46.5692 1982.02 46.5692 Q1985.09 46.5692 1987.28 47.987 Q1989.47 49.3643 1990.52 52.0379 Q1992.27 49.2428 1994.7 47.906 Q1997.17 46.5692 2000.49 46.5692 Q2004.98 46.5692 2007.37 49.3643 Q2009.81 52.1189 2009.81 57.2231 L2009.81 72.576 L2005.11 72.576 L2005.11 57.3851 Q2005.11 53.7393 2003.65 51.9569 Q2002.19 50.1745 1999.19 50.1745 Q1995.55 50.1745 1993.4 52.362 Q1991.29 54.509 1991.29 58.2358 Z" fill="#000000" fill-rule="evenodd" fill-opacity="1" /><path clip-path="url(#clip110)" d="M2024.51 68.7682 L2024.51 82.2577 L2019.77 82.2577 L2019.77 47.1768 L2024.51 47.1768 L2024.51 51.0252 Q2025.97 48.7567 2028.24 47.6629 Q2030.51 46.5692 2033.62 46.5692 Q2038.85 46.5692 2042.09 50.215 Q2045.33 53.9013 2045.33 59.8967 Q2045.33 65.892 2042.09 69.5783 Q2038.85 73.2241 2033.62 73.2241 Q2030.51 73.2241 2028.24 72.1304 Q2025.97 71.0367 2024.51 68.7682 M2038.36 67.1073 Q2040.47 64.5147 2040.47 59.8967 Q2040.47 55.2786 2038.36 52.6861 Q2036.22 50.053 2032.49 50.053 Q2028.76 50.053 2026.62 52.6861 Q2024.51 55.2786 2024.51 59.8967 Q2024.51 64.5147 2026.62 67.1073 Q2028.76 69.7404 2032.49 69.7404 Q2036.22 69.7404 2038.36 67.1073 Z" fill="#000000" fill-rule="evenodd" fill-opacity="1" /><path clip-path="url(#clip110)" d="M2059.35 34.9026 L2111.28 34.9026 L2111.28 41.7081 L2059.35 41.7081 L2059.35 34.9026 M2059.35 51.4303 L2111.28 51.4303 L2111.28 58.3168 L2059.35 58.3168 L2059.35 51.4303 Z" fill="#000000" fill-rule="evenodd" fill-opacity="1" /><path clip-path="url(#clip110)" d="M2151.43 19.2256 L2130.77 51.5113 L2151.43 51.5113 L2151.43 19.2256 M2149.28 12.096 L2159.57 12.096 L2159.57 51.5113 L2168.2 51.5113 L2168.2 58.3168 L2159.57 58.3168 L2159.57 72.576 L2151.43 72.576 L2151.43 58.3168 L2124.12 58.3168 L2124.12 50.4176 L2149.28 12.096 Z" fill="#000000" fill-rule="evenodd" fill-opacity="1" /><path clip-path="url(#clip110)" d="M2181.73 62.2867 L2190.27 62.2867 L2190.27 72.576 L2181.73 72.576 L2181.73 62.2867 Z" fill="#000000" fill-rule="evenodd" fill-opacity="1" /><path clip-path="url(#clip110)" d="M2225.6 17.4837 Q2219.28 17.4837 2216.08 23.7221 Q2212.92 29.92 2212.92 42.3968 Q2212.92 54.833 2216.08 61.0714 Q2219.28 67.2693 2225.6 67.2693 Q2231.96 67.2693 2235.12 61.0714 Q2238.32 54.833 2238.32 42.3968 Q2238.32 29.92 2235.12 23.7221 Q2231.96 17.4837 2225.6 17.4837 M2225.6 11.0023 Q2235.76 11.0023 2241.11 19.0636 Q2246.5 27.0843 2246.5 42.3968 Q2246.5 57.6687 2241.11 65.73 Q2235.76 73.7508 2225.6 73.7508 Q2215.43 73.7508 2210.04 65.73 Q2204.69 57.6687 2204.69 42.3968 Q2204.69 27.0843 2210.04 19.0636 Q2215.43 11.0023 2225.6 11.0023 Z" fill="#000000" fill-rule="evenodd" fill-opacity="1" /><polyline clip-path="url(#clip112)" style="stroke:#009af9; stroke-linecap:butt; stroke-linejoin:round; stroke-width:4; stroke-opacity:1; fill:none" points="
  271.931,448.399 278.688,704.676 285.444,638.756 292.201,535.831 298.958,441.334 305.714,397.968 312.471,424.85 319.227,510.563 325.984,616.581 332.74,691.251 
  339.497,722.969 346.254,714.157 353.01,678.572 359.767,592.208 366.523,464.314 373.28,389.191 380.037,451.221 386.793,514.098 393.55,616.279 400.306,683.008 
  407.063,701.574 413.819,696.12 420.576,688.965 427.333,592.252 434.089,429.53 440.846,365.14 447.602,435.683 454.359,501.87 461.116,605.828 467.872,679.482 
  474.629,700.932 481.385,677.868 488.142,677.198 494.898,554.265 501.655,381.041 508.412,370.981 515.168,427.237 521.925,494.336 528.681,604.388 535.438,677.886 
  542.194,701.074 548.951,662.242 555.708,670.306 562.464,533.504 569.221,359.344 575.977,369.863 582.734,419.391 589.491,496.555 596.247,601.717 603.004,678.334 
  609.76,702.112 616.517,662.341 623.273,665.56 630.03,518.954 636.787,348.604 643.543,367.642 650.3,417.221 657.056,501.044 663.813,600.089 670.57,682.359 
  677.326,702.534 684.083,660.353 690.839,661.804 697.596,510.532 704.352,342.608 711.109,370.769 717.866,418.043 724.622,506.567 731.379,601.773 738.135,685.317 
  744.892,701.431 751.649,664.957 758.405,659.887 765.162,500.812 771.918,342.176 778.675,373.609 785.431,418.4 792.188,509.349 798.945,603.767 805.701,683.005 
  812.458,700.987 819.214,666.024 825.971,657.585 832.728,501.912 839.484,344.218 846.241,378.68 852.997,416.29 859.754,514.308 866.51,605.439 873.267,680.587 
  880.024,702.562 886.78,670.853 893.537,656.443 900.293,486.77 907.05,348.772 913.807,386.891 920.563,419.102 927.32,518.388 934.076,606.016 940.833,683.036 
  947.589,698.165 954.346,676.064 961.103,656.325 967.859,477.216 974.616,355.035 981.372,390.006 988.129,422.945 994.886,519.707 1001.64,608.881 1008.4,688.543 
  1015.16,695.147 1021.91,681.42 1028.67,653.801 1035.43,479.012 1042.18,350.43 1048.94,392.813 1055.69,423.996 1062.45,523.418 1069.21,612.225 1075.96,690.423 
  1082.72,695.449 1089.48,685.024 1096.23,651.059 1102.99,471.084 1109.75,348.664 1116.5,395.018 1123.26,426.086 1130.02,526.836 1136.77,613.629 1143.53,691.246 
  1150.29,696.441 1157.04,688.85 1163.8,651.076 1170.56,480.152 1177.31,347.434 1184.07,396.802 1190.83,427.706 1197.58,529.968 1204.34,617.066 1211.1,696.474 
  1217.85,698.383 1224.61,693.293 1231.37,648.484 1238.12,469.543 1244.88,345.13 1251.64,397.195 1258.39,433.757 1265.15,533.043 1271.91,620.837 1278.66,705.27 
  1285.42,701.411 1292.18,670.197 1298.93,645.679 1305.69,483.611 1312.44,341.652 1319.2,395.864 1325.96,436.65 1332.71,535.984 1339.47,623.135 1346.23,716.348 
  1352.98,705.45 1359.74,674.958 1366.5,642.796 1373.25,474.586 1380.01,337.597 1386.77,394.81 1393.52,439.526 1400.28,539.004 1407.04,619.951 1413.79,725.388 
  1420.55,708.189 1427.31,653.872 1434.06,639.396 1440.82,465.091 1447.58,339.766 1454.33,394.921 1461.09,442.501 1467.85,539.447 1474.6,622.923 1481.36,722.817 
  1488.12,710.338 1494.87,658.411 1501.63,636.077 1508.39,455.935 1515.14,341.513 1521.9,399.683 1528.66,445.204 1535.41,542.518 1542.17,626.58 1548.93,714.674 
  1555.68,712.099 1562.44,664.351 1569.2,632.283 1575.95,449.273 1582.71,346.305 1589.46,411.066 1596.22,447.741 1602.98,545.681 1609.73,631.136 1616.49,712.662 
  1623.25,696.228 1630,650.172 1636.76,631.378 1643.52,436.169 1650.27,354.054 1657.03,408.704 1663.79,450.29 1670.54,548.754 1677.3,635.649 1684.06,700.322 
  1690.81,701.061 1697.57,656.31 1704.33,627.389 1711.08,422.387 1717.84,347.332 1724.6,409.63 1731.35,450.847 1738.11,552.022 1744.87,640.186 1751.62,690.57 
  1758.38,690.9 1765.14,648.75 1771.89,622.992 1778.65,404.393 1785.41,341.963 1792.16,411.071 1798.92,453.72 1805.68,555.319 1812.43,645.996 1819.19,693.69 
  1825.95,682.914 1832.7,654.391 1839.46,618.636 1846.21,390.572 1852.97,337.743 1859.73,411.648 1866.48,456.682 1873.24,558.927 1880,652.23 1886.75,700.106 
  1893.51,679.925 1900.27,660.254 1907.02,613.304 1913.78,376.563 1920.54,336.195 1927.29,409.626 1934.05,459.144 1940.81,562.637 1947.56,658.168 1954.32,705.871 
  1961.08,681.612 1967.83,660.444 1974.59,607.879 1981.35,368.395 1988.1,333.205 1994.86,405.14 2001.62,463.574 2008.37,564.086 2015.13,658.348 2021.89,716.714 
  2028.64,687.988 2035.4,665.694 2042.16,605.174 2048.91,368.642 2055.67,330.454 2062.43,397.952 2069.18,467.868 2075.94,568.153 2082.7,658.966 2089.45,724.377 
  2096.21,691.43 2102.97,670.47 2109.72,598.92 2116.48,355.242 2123.23,325.186 2129.99,392.773 2136.75,468.2 2143.5,572.564 2150.26,662.95 2157.02,720.58 
  2163.77,693.101 2170.53,674.812 2177.29,591.431 2184.04,371.835 2190.8,337.175 2197.56,388.841 2204.31,471.431 2211.07,576.874 2217.83,666.279 2224.58,717.674 
  2231.34,694.816 2238.1,677.677 2244.85,587.14 2251.61,392.262 2258.37,349.227 2265.12,389.414 2271.88,474.258 2278.64,579.114 2285.39,642.592 2292.15,707.623 
  
  "/>
</svg>
