<?xml version="1.0" encoding="utf-8" standalone="no"?>
<!DOCTYPE svg PUBLIC "-//W3C//DTD SVG 1.1//EN"
  "http://www.w3.org/Graphics/SVG/1.1/DTD/svg11.dtd">
<svg height="684.72pt" version="1.1" viewBox="0 0 1382.4 684.72" width="1382.4pt" xmlns="http://www.w3.org/2000/svg" xmlns:xlink="http://www.w3.org/1999/xlink">
 <metadata>
  <rdf:RDF xmlns:cc="http://creativecommons.org/ns#" xmlns:dc="http://purl.org/dc/elements/1.1/" xmlns:rdf="http://www.w3.org/1999/02/22-rdf-syntax-ns#">
   <cc:Work>
    <dc:type rdf:resource="http://purl.org/dc/dcmitype/StillImage"/>
    <dc:date>2022-02-25T13:33:09.257039</dc:date>
    <dc:format>image/svg+xml</dc:format>
    <dc:creator>
     <cc:Agent>
      <dc:title>Matplotlib v3.4.3, https://matplotlib.org/</dc:title>
     </cc:Agent>
    </dc:creator>
   </cc:Work>
  </rdf:RDF>
 </metadata>
 <defs>
  <style type="text/css">*{stroke-linecap:butt;stroke-linejoin:round;}</style>
 </defs>
 <g id="figure_1">
  <g id="patch_1">
   <path d="M 0 684.72 
L 1382.4 684.72 
L 1382.4 0 
L 0 0 
z
" style="fill:#ffffff;"/>
  </g>
  <g id="axes_1">
   <g id="patch_2">
    <path d="M 172.8 609.4008 
L 1244.16 609.4008 
L 1244.16 82.1664 
L 172.8 82.1664 
z
" style="fill:#ffffff;"/>
   </g>
   <g id="matplotlib.axis_1">
    <g id="xtick_1">
     <g id="line2d_1">
      <path clip-path="url(#pd805c3bd6a)" d="M 221.498182 609.4008 
L 221.498182 82.1664 
" style="fill:none;stroke:#b0b0b0;stroke-linecap:square;stroke-width:0.8;"/>
     </g>
     <g id="line2d_2">
      <defs>
       <path d="M 0 0 
L 0 3.5 
" id="m35aff6e497" style="stroke:#000000;stroke-width:0.8;"/>
      </defs>
      <g>
       <use style="stroke:#000000;stroke-width:0.8;" x="221.498182" xlink:href="#m35aff6e497" y="609.4008"/>
      </g>
     </g>
     <g id="text_1">
      <!-- 0 -->
      <g transform="translate(218.316932 623.999238)scale(0.1 -0.1)">
       <defs>
        <path d="M 2034 4250 
Q 1547 4250 1301 3770 
Q 1056 3291 1056 2328 
Q 1056 1369 1301 889 
Q 1547 409 2034 409 
Q 2525 409 2770 889 
Q 3016 1369 3016 2328 
Q 3016 3291 2770 3770 
Q 2525 4250 2034 4250 
z
M 2034 4750 
Q 2819 4750 3233 4129 
Q 3647 3509 3647 2328 
Q 3647 1150 3233 529 
Q 2819 -91 2034 -91 
Q 1250 -91 836 529 
Q 422 1150 422 2328 
Q 422 3509 836 4129 
Q 1250 4750 2034 4750 
z
" id="DejaVuSans-30" transform="scale(0.015625)"/>
       </defs>
       <use xlink:href="#DejaVuSans-30"/>
      </g>
     </g>
    </g>
    <g id="xtick_2">
     <g id="line2d_3">
      <path clip-path="url(#pd805c3bd6a)" d="M 383.825455 609.4008 
L 383.825455 82.1664 
" style="fill:none;stroke:#b0b0b0;stroke-linecap:square;stroke-width:0.8;"/>
     </g>
     <g id="line2d_4">
      <g>
       <use style="stroke:#000000;stroke-width:0.8;" x="383.825455" xlink:href="#m35aff6e497" y="609.4008"/>
      </g>
     </g>
     <g id="text_2">
      <!-- 5 -->
      <g transform="translate(380.644205 623.999238)scale(0.1 -0.1)">
       <defs>
        <path d="M 691 4666 
L 3169 4666 
L 3169 4134 
L 1269 4134 
L 1269 2991 
Q 1406 3038 1543 3061 
Q 1681 3084 1819 3084 
Q 2600 3084 3056 2656 
Q 3513 2228 3513 1497 
Q 3513 744 3044 326 
Q 2575 -91 1722 -91 
Q 1428 -91 1123 -41 
Q 819 9 494 109 
L 494 744 
Q 775 591 1075 516 
Q 1375 441 1709 441 
Q 2250 441 2565 725 
Q 2881 1009 2881 1497 
Q 2881 1984 2565 2268 
Q 2250 2553 1709 2553 
Q 1456 2553 1204 2497 
Q 953 2441 691 2322 
L 691 4666 
z
" id="DejaVuSans-35" transform="scale(0.015625)"/>
       </defs>
       <use xlink:href="#DejaVuSans-35"/>
      </g>
     </g>
    </g>
    <g id="xtick_3">
     <g id="line2d_5">
      <path clip-path="url(#pd805c3bd6a)" d="M 546.152727 609.4008 
L 546.152727 82.1664 
" style="fill:none;stroke:#b0b0b0;stroke-linecap:square;stroke-width:0.8;"/>
     </g>
     <g id="line2d_6">
      <g>
       <use style="stroke:#000000;stroke-width:0.8;" x="546.152727" xlink:href="#m35aff6e497" y="609.4008"/>
      </g>
     </g>
     <g id="text_3">
      <!-- 10 -->
      <g transform="translate(539.790227 623.999238)scale(0.1 -0.1)">
       <defs>
        <path d="M 794 531 
L 1825 531 
L 1825 4091 
L 703 3866 
L 703 4441 
L 1819 4666 
L 2450 4666 
L 2450 531 
L 3481 531 
L 3481 0 
L 794 0 
L 794 531 
z
" id="DejaVuSans-31" transform="scale(0.015625)"/>
       </defs>
       <use xlink:href="#DejaVuSans-31"/>
       <use x="63.623047" xlink:href="#DejaVuSans-30"/>
      </g>
     </g>
    </g>
    <g id="xtick_4">
     <g id="line2d_7">
      <path clip-path="url(#pd805c3bd6a)" d="M 708.48 609.4008 
L 708.48 82.1664 
" style="fill:none;stroke:#b0b0b0;stroke-linecap:square;stroke-width:0.8;"/>
     </g>
     <g id="line2d_8">
      <g>
       <use style="stroke:#000000;stroke-width:0.8;" x="708.48" xlink:href="#m35aff6e497" y="609.4008"/>
      </g>
     </g>
     <g id="text_4">
      <!-- 15 -->
      <g transform="translate(702.1175 623.999238)scale(0.1 -0.1)">
       <use xlink:href="#DejaVuSans-31"/>
       <use x="63.623047" xlink:href="#DejaVuSans-35"/>
      </g>
     </g>
    </g>
    <g id="xtick_5">
     <g id="line2d_9">
      <path clip-path="url(#pd805c3bd6a)" d="M 870.807273 609.4008 
L 870.807273 82.1664 
" style="fill:none;stroke:#b0b0b0;stroke-linecap:square;stroke-width:0.8;"/>
     </g>
     <g id="line2d_10">
      <g>
       <use style="stroke:#000000;stroke-width:0.8;" x="870.807273" xlink:href="#m35aff6e497" y="609.4008"/>
      </g>
     </g>
     <g id="text_5">
      <!-- 20 -->
      <g transform="translate(864.444773 623.999238)scale(0.1 -0.1)">
       <defs>
        <path d="M 1228 531 
L 3431 531 
L 3431 0 
L 469 0 
L 469 531 
Q 828 903 1448 1529 
Q 2069 2156 2228 2338 
Q 2531 2678 2651 2914 
Q 2772 3150 2772 3378 
Q 2772 3750 2511 3984 
Q 2250 4219 1831 4219 
Q 1534 4219 1204 4116 
Q 875 4013 500 3803 
L 500 4441 
Q 881 4594 1212 4672 
Q 1544 4750 1819 4750 
Q 2544 4750 2975 4387 
Q 3406 4025 3406 3419 
Q 3406 3131 3298 2873 
Q 3191 2616 2906 2266 
Q 2828 2175 2409 1742 
Q 1991 1309 1228 531 
z
" id="DejaVuSans-32" transform="scale(0.015625)"/>
       </defs>
       <use xlink:href="#DejaVuSans-32"/>
       <use x="63.623047" xlink:href="#DejaVuSans-30"/>
      </g>
     </g>
    </g>
    <g id="xtick_6">
     <g id="line2d_11">
      <path clip-path="url(#pd805c3bd6a)" d="M 1033.134545 609.4008 
L 1033.134545 82.1664 
" style="fill:none;stroke:#b0b0b0;stroke-linecap:square;stroke-width:0.8;"/>
     </g>
     <g id="line2d_12">
      <g>
       <use style="stroke:#000000;stroke-width:0.8;" x="1033.134545" xlink:href="#m35aff6e497" y="609.4008"/>
      </g>
     </g>
     <g id="text_6">
      <!-- 25 -->
      <g transform="translate(1026.772045 623.999238)scale(0.1 -0.1)">
       <use xlink:href="#DejaVuSans-32"/>
       <use x="63.623047" xlink:href="#DejaVuSans-35"/>
      </g>
     </g>
    </g>
    <g id="xtick_7">
     <g id="line2d_13">
      <path clip-path="url(#pd805c3bd6a)" d="M 1195.461818 609.4008 
L 1195.461818 82.1664 
" style="fill:none;stroke:#b0b0b0;stroke-linecap:square;stroke-width:0.8;"/>
     </g>
     <g id="line2d_14">
      <g>
       <use style="stroke:#000000;stroke-width:0.8;" x="1195.461818" xlink:href="#m35aff6e497" y="609.4008"/>
      </g>
     </g>
     <g id="text_7">
      <!-- 30 -->
      <g transform="translate(1189.099318 623.999238)scale(0.1 -0.1)">
       <defs>
        <path d="M 2597 2516 
Q 3050 2419 3304 2112 
Q 3559 1806 3559 1356 
Q 3559 666 3084 287 
Q 2609 -91 1734 -91 
Q 1441 -91 1130 -33 
Q 819 25 488 141 
L 488 750 
Q 750 597 1062 519 
Q 1375 441 1716 441 
Q 2309 441 2620 675 
Q 2931 909 2931 1356 
Q 2931 1769 2642 2001 
Q 2353 2234 1838 2234 
L 1294 2234 
L 1294 2753 
L 1863 2753 
Q 2328 2753 2575 2939 
Q 2822 3125 2822 3475 
Q 2822 3834 2567 4026 
Q 2313 4219 1838 4219 
Q 1578 4219 1281 4162 
Q 984 4106 628 3988 
L 628 4550 
Q 988 4650 1302 4700 
Q 1616 4750 1894 4750 
Q 2613 4750 3031 4423 
Q 3450 4097 3450 3541 
Q 3450 3153 3228 2886 
Q 3006 2619 2597 2516 
z
" id="DejaVuSans-33" transform="scale(0.015625)"/>
       </defs>
       <use xlink:href="#DejaVuSans-33"/>
       <use x="63.623047" xlink:href="#DejaVuSans-30"/>
      </g>
     </g>
    </g>
    <g id="text_8">
     <!-- t [s] -->
     <g transform="translate(698.424531 637.677363)scale(0.1 -0.1)">
      <defs>
       <path d="M 1172 4494 
L 1172 3500 
L 2356 3500 
L 2356 3053 
L 1172 3053 
L 1172 1153 
Q 1172 725 1289 603 
Q 1406 481 1766 481 
L 2356 481 
L 2356 0 
L 1766 0 
Q 1100 0 847 248 
Q 594 497 594 1153 
L 594 3053 
L 172 3053 
L 172 3500 
L 594 3500 
L 594 4494 
L 1172 4494 
z
" id="DejaVuSans-74" transform="scale(0.015625)"/>
       <path id="DejaVuSans-20" transform="scale(0.015625)"/>
       <path d="M 550 4863 
L 1875 4863 
L 1875 4416 
L 1125 4416 
L 1125 -397 
L 1875 -397 
L 1875 -844 
L 550 -844 
L 550 4863 
z
" id="DejaVuSans-5b" transform="scale(0.015625)"/>
       <path d="M 2834 3397 
L 2834 2853 
Q 2591 2978 2328 3040 
Q 2066 3103 1784 3103 
Q 1356 3103 1142 2972 
Q 928 2841 928 2578 
Q 928 2378 1081 2264 
Q 1234 2150 1697 2047 
L 1894 2003 
Q 2506 1872 2764 1633 
Q 3022 1394 3022 966 
Q 3022 478 2636 193 
Q 2250 -91 1575 -91 
Q 1294 -91 989 -36 
Q 684 19 347 128 
L 347 722 
Q 666 556 975 473 
Q 1284 391 1588 391 
Q 1994 391 2212 530 
Q 2431 669 2431 922 
Q 2431 1156 2273 1281 
Q 2116 1406 1581 1522 
L 1381 1569 
Q 847 1681 609 1914 
Q 372 2147 372 2553 
Q 372 3047 722 3315 
Q 1072 3584 1716 3584 
Q 2034 3584 2315 3537 
Q 2597 3491 2834 3397 
z
" id="DejaVuSans-73" transform="scale(0.015625)"/>
       <path d="M 1947 4863 
L 1947 -844 
L 622 -844 
L 622 -397 
L 1369 -397 
L 1369 4416 
L 622 4416 
L 622 4863 
L 1947 4863 
z
" id="DejaVuSans-5d" transform="scale(0.015625)"/>
      </defs>
      <use xlink:href="#DejaVuSans-74"/>
      <use x="39.208984" xlink:href="#DejaVuSans-20"/>
      <use x="70.996094" xlink:href="#DejaVuSans-5b"/>
      <use x="110.009766" xlink:href="#DejaVuSans-73"/>
      <use x="162.109375" xlink:href="#DejaVuSans-5d"/>
     </g>
    </g>
   </g>
   <g id="matplotlib.axis_2">
    <g id="ytick_1">
     <g id="line2d_15">
      <path clip-path="url(#pd805c3bd6a)" d="M 172.8 579.857559 
L 1244.16 579.857559 
" style="fill:none;stroke:#b0b0b0;stroke-linecap:square;stroke-width:0.8;"/>
     </g>
     <g id="line2d_16">
      <defs>
       <path d="M 0 0 
L -3.5 0 
" id="m3d5c4eb5e2" style="stroke:#000000;stroke-width:0.8;"/>
      </defs>
      <g>
       <use style="stroke:#000000;stroke-width:0.8;" x="172.8" xlink:href="#m3d5c4eb5e2" y="579.857559"/>
      </g>
     </g>
     <g id="text_9">
      <!-- 0.0 -->
      <g transform="translate(149.896875 583.656777)scale(0.1 -0.1)">
       <defs>
        <path d="M 684 794 
L 1344 794 
L 1344 0 
L 684 0 
L 684 794 
z
" id="DejaVuSans-2e" transform="scale(0.015625)"/>
       </defs>
       <use xlink:href="#DejaVuSans-30"/>
       <use x="63.623047" xlink:href="#DejaVuSans-2e"/>
       <use x="95.410156" xlink:href="#DejaVuSans-30"/>
      </g>
     </g>
    </g>
    <g id="ytick_2">
     <g id="line2d_17">
      <path clip-path="url(#pd805c3bd6a)" d="M 172.8 510.564541 
L 1244.16 510.564541 
" style="fill:none;stroke:#b0b0b0;stroke-linecap:square;stroke-width:0.8;"/>
     </g>
     <g id="line2d_18">
      <g>
       <use style="stroke:#000000;stroke-width:0.8;" x="172.8" xlink:href="#m3d5c4eb5e2" y="510.564541"/>
      </g>
     </g>
     <g id="text_10">
      <!-- 0.1 -->
      <g transform="translate(149.896875 514.363759)scale(0.1 -0.1)">
       <use xlink:href="#DejaVuSans-30"/>
       <use x="63.623047" xlink:href="#DejaVuSans-2e"/>
       <use x="95.410156" xlink:href="#DejaVuSans-31"/>
      </g>
     </g>
    </g>
    <g id="ytick_3">
     <g id="line2d_19">
      <path clip-path="url(#pd805c3bd6a)" d="M 172.8 441.271522 
L 1244.16 441.271522 
" style="fill:none;stroke:#b0b0b0;stroke-linecap:square;stroke-width:0.8;"/>
     </g>
     <g id="line2d_20">
      <g>
       <use style="stroke:#000000;stroke-width:0.8;" x="172.8" xlink:href="#m3d5c4eb5e2" y="441.271522"/>
      </g>
     </g>
     <g id="text_11">
      <!-- 0.2 -->
      <g transform="translate(149.896875 445.070741)scale(0.1 -0.1)">
       <use xlink:href="#DejaVuSans-30"/>
       <use x="63.623047" xlink:href="#DejaVuSans-2e"/>
       <use x="95.410156" xlink:href="#DejaVuSans-32"/>
      </g>
     </g>
    </g>
    <g id="ytick_4">
     <g id="line2d_21">
      <path clip-path="url(#pd805c3bd6a)" d="M 172.8 371.978504 
L 1244.16 371.978504 
" style="fill:none;stroke:#b0b0b0;stroke-linecap:square;stroke-width:0.8;"/>
     </g>
     <g id="line2d_22">
      <g>
       <use style="stroke:#000000;stroke-width:0.8;" x="172.8" xlink:href="#m3d5c4eb5e2" y="371.978504"/>
      </g>
     </g>
     <g id="text_12">
      <!-- 0.3 -->
      <g transform="translate(149.896875 375.777723)scale(0.1 -0.1)">
       <use xlink:href="#DejaVuSans-30"/>
       <use x="63.623047" xlink:href="#DejaVuSans-2e"/>
       <use x="95.410156" xlink:href="#DejaVuSans-33"/>
      </g>
     </g>
    </g>
    <g id="ytick_5">
     <g id="line2d_23">
      <path clip-path="url(#pd805c3bd6a)" d="M 172.8 302.685486 
L 1244.16 302.685486 
" style="fill:none;stroke:#b0b0b0;stroke-linecap:square;stroke-width:0.8;"/>
     </g>
     <g id="line2d_24">
      <g>
       <use style="stroke:#000000;stroke-width:0.8;" x="172.8" xlink:href="#m3d5c4eb5e2" y="302.685486"/>
      </g>
     </g>
     <g id="text_13">
      <!-- 0.4 -->
      <g transform="translate(149.896875 306.484705)scale(0.1 -0.1)">
       <defs>
        <path d="M 2419 4116 
L 825 1625 
L 2419 1625 
L 2419 4116 
z
M 2253 4666 
L 3047 4666 
L 3047 1625 
L 3713 1625 
L 3713 1100 
L 3047 1100 
L 3047 0 
L 2419 0 
L 2419 1100 
L 313 1100 
L 313 1709 
L 2253 4666 
z
" id="DejaVuSans-34" transform="scale(0.015625)"/>
       </defs>
       <use xlink:href="#DejaVuSans-30"/>
       <use x="63.623047" xlink:href="#DejaVuSans-2e"/>
       <use x="95.410156" xlink:href="#DejaVuSans-34"/>
      </g>
     </g>
    </g>
    <g id="ytick_6">
     <g id="line2d_25">
      <path clip-path="url(#pd805c3bd6a)" d="M 172.8 233.392468 
L 1244.16 233.392468 
" style="fill:none;stroke:#b0b0b0;stroke-linecap:square;stroke-width:0.8;"/>
     </g>
     <g id="line2d_26">
      <g>
       <use style="stroke:#000000;stroke-width:0.8;" x="172.8" xlink:href="#m3d5c4eb5e2" y="233.392468"/>
      </g>
     </g>
     <g id="text_14">
      <!-- 0.5 -->
      <g transform="translate(149.896875 237.191687)scale(0.1 -0.1)">
       <use xlink:href="#DejaVuSans-30"/>
       <use x="63.623047" xlink:href="#DejaVuSans-2e"/>
       <use x="95.410156" xlink:href="#DejaVuSans-35"/>
      </g>
     </g>
    </g>
    <g id="ytick_7">
     <g id="line2d_27">
      <path clip-path="url(#pd805c3bd6a)" d="M 172.8 164.09945 
L 1244.16 164.09945 
" style="fill:none;stroke:#b0b0b0;stroke-linecap:square;stroke-width:0.8;"/>
     </g>
     <g id="line2d_28">
      <g>
       <use style="stroke:#000000;stroke-width:0.8;" x="172.8" xlink:href="#m3d5c4eb5e2" y="164.09945"/>
      </g>
     </g>
     <g id="text_15">
      <!-- 0.6 -->
      <g transform="translate(149.896875 167.898669)scale(0.1 -0.1)">
       <defs>
        <path d="M 2113 2584 
Q 1688 2584 1439 2293 
Q 1191 2003 1191 1497 
Q 1191 994 1439 701 
Q 1688 409 2113 409 
Q 2538 409 2786 701 
Q 3034 994 3034 1497 
Q 3034 2003 2786 2293 
Q 2538 2584 2113 2584 
z
M 3366 4563 
L 3366 3988 
Q 3128 4100 2886 4159 
Q 2644 4219 2406 4219 
Q 1781 4219 1451 3797 
Q 1122 3375 1075 2522 
Q 1259 2794 1537 2939 
Q 1816 3084 2150 3084 
Q 2853 3084 3261 2657 
Q 3669 2231 3669 1497 
Q 3669 778 3244 343 
Q 2819 -91 2113 -91 
Q 1303 -91 875 529 
Q 447 1150 447 2328 
Q 447 3434 972 4092 
Q 1497 4750 2381 4750 
Q 2619 4750 2861 4703 
Q 3103 4656 3366 4563 
z
" id="DejaVuSans-36" transform="scale(0.015625)"/>
       </defs>
       <use xlink:href="#DejaVuSans-30"/>
       <use x="63.623047" xlink:href="#DejaVuSans-2e"/>
       <use x="95.410156" xlink:href="#DejaVuSans-36"/>
      </g>
     </g>
    </g>
    <g id="ytick_8">
     <g id="line2d_29">
      <path clip-path="url(#pd805c3bd6a)" d="M 172.8 94.806432 
L 1244.16 94.806432 
" style="fill:none;stroke:#b0b0b0;stroke-linecap:square;stroke-width:0.8;"/>
     </g>
     <g id="line2d_30">
      <g>
       <use style="stroke:#000000;stroke-width:0.8;" x="172.8" xlink:href="#m3d5c4eb5e2" y="94.806432"/>
      </g>
     </g>
     <g id="text_16">
      <!-- 0.7 -->
      <g transform="translate(149.896875 98.605651)scale(0.1 -0.1)">
       <defs>
        <path d="M 525 4666 
L 3525 4666 
L 3525 4397 
L 1831 0 
L 1172 0 
L 2766 4134 
L 525 4134 
L 525 4666 
z
" id="DejaVuSans-37" transform="scale(0.015625)"/>
       </defs>
       <use xlink:href="#DejaVuSans-30"/>
       <use x="63.623047" xlink:href="#DejaVuSans-2e"/>
       <use x="95.410156" xlink:href="#DejaVuSans-37"/>
      </g>
     </g>
    </g>
    <g id="text_17">
     <!-- $C_l$ -->
     <g transform="translate(143.817187 350.4336)rotate(-90)scale(0.1 -0.1)">
      <defs>
       <path d="M 4447 4306 
L 4319 3641 
Q 4019 3944 3683 4091 
Q 3347 4238 2956 4238 
Q 2422 4238 2017 3981 
Q 1613 3725 1319 3200 
Q 1131 2863 1032 2486 
Q 934 2109 934 1728 
Q 934 1091 1264 756 
Q 1594 422 2222 422 
Q 2656 422 3056 561 
Q 3456 700 3834 978 
L 3688 231 
Q 3316 72 2936 -9 
Q 2556 -91 2175 -91 
Q 1278 -91 773 396 
Q 269 884 269 1753 
Q 269 2309 461 2846 
Q 653 3384 1013 3828 
Q 1394 4300 1883 4525 
Q 2372 4750 3022 4750 
Q 3422 4750 3780 4639 
Q 4138 4528 4447 4306 
z
" id="DejaVuSans-Oblique-43" transform="scale(0.015625)"/>
       <path d="M 1172 4863 
L 1747 4863 
L 800 0 
L 225 0 
L 1172 4863 
z
" id="DejaVuSans-Oblique-6c" transform="scale(0.015625)"/>
      </defs>
      <use transform="translate(0 0.78125)" xlink:href="#DejaVuSans-Oblique-43"/>
      <use transform="translate(69.824219 -15.625)scale(0.7)" xlink:href="#DejaVuSans-Oblique-6c"/>
     </g>
    </g>
   </g>
   <g id="line2d_31">
    <path clip-path="url(#pd805c3bd6a)" d="M 221.498182 286.857342 
L 224.755585 161.248776 
L 228.012989 106.584566 
L 231.270392 143.879817 
L 234.527796 258.796745 
L 237.785199 407.156695 
L 241.042603 531.924179 
L 244.300006 585.133595 
L 247.55741 546.329118 
L 250.814813 430.42874 
L 254.072216 281.989191 
L 257.32962 158.076563 
L 260.587023 106.327816 
L 263.844427 146.637234 
L 267.10183 263.508269 
L 270.359234 412.011028 
L 273.616637 535.055121 
L 276.874041 585.337487 
L 280.131444 543.527576 
L 283.388848 425.698788 
L 286.646251 277.149213 
L 289.903655 154.987239 
L 293.161058 106.176805 
L 296.418462 149.482592 
L 299.675865 268.256126 
L 302.933268 416.836118 
L 306.190672 538.102487 
L 309.448075 585.4356 
L 312.705479 540.638718 
L 315.962882 420.93355 
L 319.220286 272.339544 
L 322.477689 151.982167 
L 325.735093 106.1316 
L 328.992496 152.414632 
L 332.2499 273.038218 
L 335.507303 421.629835 
L 338.764707 541.064933 
L 342.02211 585.427892 
L 345.279514 537.663819 
L 348.536917 416.135131 
L 351.79432 267.562307 
L 355.051724 149.062674 
L 358.309127 106.192221 
L 361.566531 155.432061 
L 364.823934 277.852436 
L 368.081338 426.390063 
L 371.338741 543.94115 
L 374.596145 585.314366 
L 377.853548 534.604193 
L 381.110952 411.305648 
L 384.368355 262.819613 
L 387.625759 146.23005 
L 390.883162 106.35864 
L 394.140566 158.533546 
L 397.397969 282.696651 
L 400.655372 431.1147 
L 403.912776 546.729869 
L 407.170179 585.095071 
L 410.427583 531.461191 
L 413.684986 406.447234 
L 416.94239 258.113556 
L 420.199793 143.485545 
L 423.457197 106.630785 
L 426.7146 161.717718 
L 429.972004 287.568726 
L 433.229407 435.801659 
L 436.486811 549.429857 
L 439.744214 584.770106 
L 443.001618 528.236202 
L 446.259021 401.562035 
L 449.516424 253.446213 
L 452.773828 140.830371 
L 456.031231 107.008535 
L 459.288635 164.983169 
L 462.546038 292.46651 
L 465.803442 440.44887 
L 469.060845 552.039923 
L 472.318249 584.339613 
L 475.575652 524.930649 
L 478.833056 396.652208 
L 482.090459 248.819646 
L 485.347863 138.265701 
L 488.605266 107.491723 
L 491.86267 168.328459 
L 495.120073 297.387838 
L 498.377476 445.054282 
L 501.63488 554.558915 
L 504.892283 583.803782 
L 508.149687 521.545991 
L 511.40709 391.719921 
L 514.664494 244.235897 
L 517.921897 135.792667 
L 521.179301 108.080137 
L 524.436704 171.752111 
L 527.694108 302.330539 
L 530.951511 449.615861 
L 534.208915 556.985718 
L 537.466318 583.162851 
L 540.723721 518.083724 
L 543.981125 386.767352 
L 547.238528 239.696992 
L 550.495932 133.412361 
L 553.753335 108.773516 
L 557.010739 175.252611 
L 560.268142 307.29243 
L 563.525546 454.131593 
L 566.782949 559.319263 
L 570.040353 582.417101 
L 573.297756 514.545376 
L 576.55516 381.796688 
L 579.812563 235.204933 
L 583.069967 131.125834 
L 586.32737 109.571553 
L 589.584773 178.828416 
L 592.842177 312.271319 
L 596.09958 458.599483 
L 599.356984 561.558519 
L 602.614387 581.566863 
L 605.871791 510.932509 
L 609.129194 376.810123 
L 612.386598 230.761704 
L 615.644001 128.934097 
L 618.901405 110.473898 
L 622.158808 182.477945 
L 625.416212 317.265009 
L 628.673615 463.017559 
L 631.931019 563.702497 
L 635.188422 580.612512 
L 638.445825 507.24672 
L 641.703229 371.80986 
L 644.960632 226.369268 
L 648.218036 126.838116 
L 651.475439 111.480151 
L 654.732843 186.199588 
L 657.990246 322.271293 
L 661.24765 467.38387 
L 664.505053 565.75025 
L 667.762457 579.554469 
L 671.01986 503.489635 
L 674.277264 366.798106 
L 677.534667 222.029565 
L 680.792071 124.838817 
L 684.049474 112.589867 
L 687.306877 189.991701 
L 690.564281 327.287962 
L 693.821684 471.696487 
L 697.079088 567.700874 
L 700.336491 578.393202 
L 703.593895 499.662914 
L 706.851298 361.777076 
L 710.108702 217.744509 
L 713.366105 122.937083 
L 716.623509 113.802557 
L 719.880912 193.852608 
L 723.138316 332.3128 
L 726.395719 475.953508 
L 729.653123 569.553507 
L 732.910526 577.129222 
L 736.167929 495.768245 
L 742.682736 213.515994 
L 745.94014 121.133754 
L 749.197543 115.117686 
L 752.454947 197.780607 
L 758.969754 480.15305 
L 762.227157 571.307332 
L 765.484561 575.763089 
L 768.741964 491.80735 
L 775.256771 209.345887 
L 778.514175 119.429627 
L 781.771578 116.534673 
L 785.028981 201.773961 
L 791.543788 484.293262 
L 794.801192 572.961575 
L 798.058595 574.295406 
L 801.315999 487.781977 
L 807.830806 205.236029 
L 811.088209 117.825452 
L 814.345613 118.052891 
L 817.603016 205.830908 
L 824.117823 488.372313 
L 827.375227 574.515503 
L 830.63263 572.72682 
L 833.890033 483.693904 
L 840.40484 201.188235 
L 843.662244 116.32194 
L 846.919647 119.671671 
L 850.177051 209.949657 
L 856.691858 492.388403 
L 859.949261 575.968433 
L 863.206665 571.058025 
L 866.464068 479.544935 
L 872.978875 197.204292 
L 876.236279 114.919754 
L 879.493682 121.390298 
L 882.751085 214.128388 
L 889.265892 496.339759 
L 892.523296 577.319721 
L 895.780699 569.289757 
L 899.038103 475.336904 
L 902.295506 331.58039 
L 905.55291 193.28596 
L 908.810313 113.619513 
L 912.067717 123.208012 
L 915.32512 218.365256 
L 918.582524 362.509 
L 921.839927 500.224635 
L 925.09733 578.568772 
L 928.354734 567.422796 
L 931.612137 471.071667 
L 934.869541 326.556604 
L 938.126944 189.434968 
L 941.384348 112.421791 
L 944.641751 125.124012 
L 947.899155 222.65839 
L 951.156558 367.528817 
L 954.413962 504.041317 
L 957.671365 579.715033 
L 960.928769 565.457969 
L 964.186172 466.751108 
L 967.443576 321.54131 
L 970.700979 185.653018 
L 973.958382 111.327117 
L 977.215786 127.13745 
L 980.473189 227.005896 
L 983.730593 372.539035 
L 986.987996 507.788118 
L 990.2454 580.757999 
L 993.502803 563.396141 
L 996.760207 462.377136 
L 1000.01761 316.536723 
L 1003.275014 181.941779 
L 1006.532417 110.335974 
L 1009.789821 129.247439 
L 1013.047224 231.405852 
L 1016.304628 377.537439 
L 1019.562031 511.463385 
L 1022.819434 581.697209 
L 1026.076838 561.238224 
L 1029.334241 457.951682 
L 1032.591645 311.545052 
L 1035.849048 178.30289 
L 1039.106452 109.448801 
L 1042.363855 131.453046 
L 1045.621259 235.856316 
L 1048.878662 382.521825 
L 1052.136066 515.065495 
L 1055.393469 582.532248 
L 1058.650873 558.98517 
L 1061.908276 453.476699 
L 1065.16568 306.568503 
L 1068.423083 174.737957 
L 1071.680486 108.665988 
L 1074.93789 133.753298 
L 1078.195293 240.355323 
L 1081.452697 387.489989 
L 1084.7101 518.592856 
L 1087.967504 583.262747 
L 1091.224907 556.637975 
L 1094.482311 448.954164 
L 1097.739714 301.609271 
L 1100.997118 171.248556 
L 1104.254521 107.987882 
L 1107.511925 136.147178 
L 1110.769328 244.900887 
L 1114.026732 392.43974 
L 1117.284135 522.043912 
L 1120.541538 583.888385 
L 1123.798942 554.197674 
L 1127.056345 444.386074 
L 1130.313749 296.669548 
L 1133.571152 167.836227 
L 1136.828556 107.414782 
L 1140.085959 138.63363 
L 1143.343363 249.490999 
L 1146.600766 397.36889 
L 1149.85817 525.417138 
L 1153.115573 584.408884 
L 1156.372977 551.665346 
L 1159.63038 439.774446 
L 1162.887784 291.751514 
L 1166.145187 164.502476 
L 1169.40259 106.946941 
L 1172.659994 141.211556 
L 1175.917397 254.123634 
L 1179.174801 402.275264 
L 1182.432204 528.711046 
L 1185.689608 584.824015 
L 1188.947011 549.042108 
L 1192.204415 435.121316 
L 1195.461818 286.857342 
L 1195.461818 286.857342 
" style="fill:none;stroke:#1f77b4;stroke-linecap:square;stroke-width:1.5;"/>
   </g>
   <g id="patch_3">
    <path d="M 172.8 609.4008 
L 172.8 82.1664 
" style="fill:none;stroke:#000000;stroke-linecap:square;stroke-linejoin:miter;stroke-width:0.8;"/>
   </g>
   <g id="patch_4">
    <path d="M 1244.16 609.4008 
L 1244.16 82.1664 
" style="fill:none;stroke:#000000;stroke-linecap:square;stroke-linejoin:miter;stroke-width:0.8;"/>
   </g>
   <g id="patch_5">
    <path d="M 172.8 609.4008 
L 1244.16 609.4008 
" style="fill:none;stroke:#000000;stroke-linecap:square;stroke-linejoin:miter;stroke-width:0.8;"/>
   </g>
   <g id="patch_6">
    <path d="M 172.8 82.1664 
L 1244.16 82.1664 
" style="fill:none;stroke:#000000;stroke-linecap:square;stroke-linejoin:miter;stroke-width:0.8;"/>
   </g>
   <g id="text_18">
    <!-- Theodorsen: Re=1.e+05, a=0.25, $f_{\Theta}=$1$Hz, $$\Theta_{mean}=$4$^{\circ}, $$\Theta_{amp}=$4$^{\circ}$ -->
    <g transform="translate(515.04 76.1664)scale(0.12 -0.12)">
     <defs>
      <path d="M -19 4666 
L 3928 4666 
L 3928 4134 
L 2272 4134 
L 2272 0 
L 1638 0 
L 1638 4134 
L -19 4134 
L -19 4666 
z
" id="DejaVuSans-54" transform="scale(0.015625)"/>
      <path d="M 3513 2113 
L 3513 0 
L 2938 0 
L 2938 2094 
Q 2938 2591 2744 2837 
Q 2550 3084 2163 3084 
Q 1697 3084 1428 2787 
Q 1159 2491 1159 1978 
L 1159 0 
L 581 0 
L 581 4863 
L 1159 4863 
L 1159 2956 
Q 1366 3272 1645 3428 
Q 1925 3584 2291 3584 
Q 2894 3584 3203 3211 
Q 3513 2838 3513 2113 
z
" id="DejaVuSans-68" transform="scale(0.015625)"/>
      <path d="M 3597 1894 
L 3597 1613 
L 953 1613 
Q 991 1019 1311 708 
Q 1631 397 2203 397 
Q 2534 397 2845 478 
Q 3156 559 3463 722 
L 3463 178 
Q 3153 47 2828 -22 
Q 2503 -91 2169 -91 
Q 1331 -91 842 396 
Q 353 884 353 1716 
Q 353 2575 817 3079 
Q 1281 3584 2069 3584 
Q 2775 3584 3186 3129 
Q 3597 2675 3597 1894 
z
M 3022 2063 
Q 3016 2534 2758 2815 
Q 2500 3097 2075 3097 
Q 1594 3097 1305 2825 
Q 1016 2553 972 2059 
L 3022 2063 
z
" id="DejaVuSans-65" transform="scale(0.015625)"/>
      <path d="M 1959 3097 
Q 1497 3097 1228 2736 
Q 959 2375 959 1747 
Q 959 1119 1226 758 
Q 1494 397 1959 397 
Q 2419 397 2687 759 
Q 2956 1122 2956 1747 
Q 2956 2369 2687 2733 
Q 2419 3097 1959 3097 
z
M 1959 3584 
Q 2709 3584 3137 3096 
Q 3566 2609 3566 1747 
Q 3566 888 3137 398 
Q 2709 -91 1959 -91 
Q 1206 -91 779 398 
Q 353 888 353 1747 
Q 353 2609 779 3096 
Q 1206 3584 1959 3584 
z
" id="DejaVuSans-6f" transform="scale(0.015625)"/>
      <path d="M 2906 2969 
L 2906 4863 
L 3481 4863 
L 3481 0 
L 2906 0 
L 2906 525 
Q 2725 213 2448 61 
Q 2172 -91 1784 -91 
Q 1150 -91 751 415 
Q 353 922 353 1747 
Q 353 2572 751 3078 
Q 1150 3584 1784 3584 
Q 2172 3584 2448 3432 
Q 2725 3281 2906 2969 
z
M 947 1747 
Q 947 1113 1208 752 
Q 1469 391 1925 391 
Q 2381 391 2643 752 
Q 2906 1113 2906 1747 
Q 2906 2381 2643 2742 
Q 2381 3103 1925 3103 
Q 1469 3103 1208 2742 
Q 947 2381 947 1747 
z
" id="DejaVuSans-64" transform="scale(0.015625)"/>
      <path d="M 2631 2963 
Q 2534 3019 2420 3045 
Q 2306 3072 2169 3072 
Q 1681 3072 1420 2755 
Q 1159 2438 1159 1844 
L 1159 0 
L 581 0 
L 581 3500 
L 1159 3500 
L 1159 2956 
Q 1341 3275 1631 3429 
Q 1922 3584 2338 3584 
Q 2397 3584 2469 3576 
Q 2541 3569 2628 3553 
L 2631 2963 
z
" id="DejaVuSans-72" transform="scale(0.015625)"/>
      <path d="M 3513 2113 
L 3513 0 
L 2938 0 
L 2938 2094 
Q 2938 2591 2744 2837 
Q 2550 3084 2163 3084 
Q 1697 3084 1428 2787 
Q 1159 2491 1159 1978 
L 1159 0 
L 581 0 
L 581 3500 
L 1159 3500 
L 1159 2956 
Q 1366 3272 1645 3428 
Q 1925 3584 2291 3584 
Q 2894 3584 3203 3211 
Q 3513 2838 3513 2113 
z
" id="DejaVuSans-6e" transform="scale(0.015625)"/>
      <path d="M 750 794 
L 1409 794 
L 1409 0 
L 750 0 
L 750 794 
z
M 750 3309 
L 1409 3309 
L 1409 2516 
L 750 2516 
L 750 3309 
z
" id="DejaVuSans-3a" transform="scale(0.015625)"/>
      <path d="M 2841 2188 
Q 3044 2119 3236 1894 
Q 3428 1669 3622 1275 
L 4263 0 
L 3584 0 
L 2988 1197 
Q 2756 1666 2539 1819 
Q 2322 1972 1947 1972 
L 1259 1972 
L 1259 0 
L 628 0 
L 628 4666 
L 2053 4666 
Q 2853 4666 3247 4331 
Q 3641 3997 3641 3322 
Q 3641 2881 3436 2590 
Q 3231 2300 2841 2188 
z
M 1259 4147 
L 1259 2491 
L 2053 2491 
Q 2509 2491 2742 2702 
Q 2975 2913 2975 3322 
Q 2975 3731 2742 3939 
Q 2509 4147 2053 4147 
L 1259 4147 
z
" id="DejaVuSans-52" transform="scale(0.015625)"/>
      <path d="M 678 2906 
L 4684 2906 
L 4684 2381 
L 678 2381 
L 678 2906 
z
M 678 1631 
L 4684 1631 
L 4684 1100 
L 678 1100 
L 678 1631 
z
" id="DejaVuSans-3d" transform="scale(0.015625)"/>
      <path d="M 2944 4013 
L 2944 2272 
L 4684 2272 
L 4684 1741 
L 2944 1741 
L 2944 0 
L 2419 0 
L 2419 1741 
L 678 1741 
L 678 2272 
L 2419 2272 
L 2419 4013 
L 2944 4013 
z
" id="DejaVuSans-2b" transform="scale(0.015625)"/>
      <path d="M 750 794 
L 1409 794 
L 1409 256 
L 897 -744 
L 494 -744 
L 750 256 
L 750 794 
z
" id="DejaVuSans-2c" transform="scale(0.015625)"/>
      <path d="M 2194 1759 
Q 1497 1759 1228 1600 
Q 959 1441 959 1056 
Q 959 750 1161 570 
Q 1363 391 1709 391 
Q 2188 391 2477 730 
Q 2766 1069 2766 1631 
L 2766 1759 
L 2194 1759 
z
M 3341 1997 
L 3341 0 
L 2766 0 
L 2766 531 
Q 2569 213 2275 61 
Q 1981 -91 1556 -91 
Q 1019 -91 701 211 
Q 384 513 384 1019 
Q 384 1609 779 1909 
Q 1175 2209 1959 2209 
L 2766 2209 
L 2766 2266 
Q 2766 2663 2505 2880 
Q 2244 3097 1772 3097 
Q 1472 3097 1187 3025 
Q 903 2953 641 2809 
L 641 3341 
Q 956 3463 1253 3523 
Q 1550 3584 1831 3584 
Q 2591 3584 2966 3190 
Q 3341 2797 3341 1997 
z
" id="DejaVuSans-61" transform="scale(0.015625)"/>
      <path d="M 3059 4863 
L 2969 4384 
L 2419 4384 
Q 2106 4384 1964 4261 
Q 1822 4138 1753 3809 
L 1691 3500 
L 2638 3500 
L 2553 3053 
L 1606 3053 
L 1013 0 
L 434 0 
L 1031 3053 
L 481 3053 
L 563 3500 
L 1113 3500 
L 1159 3744 
Q 1278 4363 1576 4613 
Q 1875 4863 2516 4863 
L 3059 4863 
z
" id="DejaVuSans-Oblique-66" transform="scale(0.015625)"/>
      <path d="M 1416 2750 
L 3622 2750 
L 3622 2219 
L 1416 2219 
L 1416 2750 
z
M 2522 4238 
Q 1834 4238 1431 3725 
Q 1025 3213 1025 2328 
Q 1025 1447 1429 934 
Q 1834 422 2522 422 
Q 3209 422 3613 934 
Q 4013 1447 4013 2328 
Q 4013 3213 3613 3725 
Q 3209 4238 2522 4238 
z
M 2522 4750 
Q 3503 4750 4090 4092 
Q 4678 3434 4678 2328 
Q 4678 1225 4091 569 
Q 3503 -91 2522 -91 
Q 1538 -91 950 566 
Q 359 1222 359 2328 
Q 359 3434 950 4094 
Q 1538 4750 2522 4750 
z
" id="DejaVuSans-398" transform="scale(0.015625)"/>
      <path d="M 1081 4666 
L 1716 4666 
L 1344 2753 
L 3634 2753 
L 4006 4666 
L 4641 4666 
L 3731 0 
L 3097 0 
L 3531 2222 
L 1241 2222 
L 806 0 
L 172 0 
L 1081 4666 
z
" id="DejaVuSans-Oblique-48" transform="scale(0.015625)"/>
      <path d="M 744 3500 
L 3475 3500 
L 3372 2975 
L 738 459 
L 2913 459 
L 2822 0 
L -19 0 
L 84 525 
L 2719 3041 
L 653 3041 
L 744 3500 
z
" id="DejaVuSans-Oblique-7a" transform="scale(0.015625)"/>
      <path d="M 5747 2113 
L 5338 0 
L 4763 0 
L 5166 2094 
Q 5191 2228 5203 2325 
Q 5216 2422 5216 2491 
Q 5216 2772 5059 2928 
Q 4903 3084 4622 3084 
Q 4203 3084 3875 2770 
Q 3547 2456 3450 1953 
L 3066 0 
L 2491 0 
L 2900 2094 
Q 2925 2209 2937 2307 
Q 2950 2406 2950 2484 
Q 2950 2769 2794 2926 
Q 2638 3084 2363 3084 
Q 1938 3084 1609 2770 
Q 1281 2456 1184 1953 
L 800 0 
L 225 0 
L 909 3500 
L 1484 3500 
L 1375 2956 
Q 1609 3263 1923 3423 
Q 2238 3584 2597 3584 
Q 2978 3584 3223 3384 
Q 3469 3184 3519 2828 
Q 3781 3197 4126 3390 
Q 4472 3584 4856 3584 
Q 5306 3584 5551 3325 
Q 5797 3066 5797 2591 
Q 5797 2488 5784 2364 
Q 5772 2241 5747 2113 
z
" id="DejaVuSans-Oblique-6d" transform="scale(0.015625)"/>
      <path d="M 3078 2063 
Q 3088 2113 3092 2166 
Q 3097 2219 3097 2272 
Q 3097 2653 2873 2875 
Q 2650 3097 2266 3097 
Q 1838 3097 1509 2826 
Q 1181 2556 1013 2059 
L 3078 2063 
z
M 3578 1613 
L 903 1613 
Q 884 1494 878 1425 
Q 872 1356 872 1306 
Q 872 872 1139 634 
Q 1406 397 1894 397 
Q 2269 397 2603 481 
Q 2938 566 3225 728 
L 3116 159 
Q 2806 34 2476 -28 
Q 2147 -91 1806 -91 
Q 1078 -91 686 257 
Q 294 606 294 1247 
Q 294 1794 489 2264 
Q 684 2734 1063 3103 
Q 1306 3334 1642 3459 
Q 1978 3584 2356 3584 
Q 2950 3584 3301 3228 
Q 3653 2872 3653 2272 
Q 3653 2128 3634 1964 
Q 3616 1800 3578 1613 
z
" id="DejaVuSans-Oblique-65" transform="scale(0.015625)"/>
      <path d="M 3438 1997 
L 3047 0 
L 2472 0 
L 2578 531 
Q 2325 219 2001 64 
Q 1678 -91 1281 -91 
Q 834 -91 548 182 
Q 263 456 263 884 
Q 263 1497 752 1853 
Q 1241 2209 2100 2209 
L 2900 2209 
L 2931 2363 
Q 2938 2388 2941 2417 
Q 2944 2447 2944 2509 
Q 2944 2788 2717 2942 
Q 2491 3097 2081 3097 
Q 1800 3097 1504 3025 
Q 1209 2953 897 2809 
L 997 3341 
Q 1322 3463 1633 3523 
Q 1944 3584 2234 3584 
Q 2853 3584 3176 3315 
Q 3500 3047 3500 2534 
Q 3500 2431 3484 2292 
Q 3469 2153 3438 1997 
z
M 2816 1759 
L 2241 1759 
Q 1534 1759 1195 1570 
Q 856 1381 856 984 
Q 856 709 1029 553 
Q 1203 397 1509 397 
Q 1978 397 2328 733 
Q 2678 1069 2791 1631 
L 2816 1759 
z
" id="DejaVuSans-Oblique-61" transform="scale(0.015625)"/>
      <path d="M 3566 2113 
L 3156 0 
L 2578 0 
L 2988 2091 
Q 3016 2238 3031 2350 
Q 3047 2463 3047 2528 
Q 3047 2791 2881 2937 
Q 2716 3084 2419 3084 
Q 1956 3084 1622 2776 
Q 1288 2469 1184 1941 
L 800 0 
L 225 0 
L 903 3500 
L 1478 3500 
L 1363 2950 
Q 1603 3253 1940 3418 
Q 2278 3584 2650 3584 
Q 3113 3584 3367 3334 
Q 3622 3084 3622 2631 
Q 3622 2519 3608 2391 
Q 3594 2263 3566 2113 
z
" id="DejaVuSans-Oblique-6e" transform="scale(0.015625)"/>
      <path d="M 2003 2603 
Q 1753 2603 1581 2429 
Q 1409 2256 1409 2006 
Q 1409 1759 1581 1589 
Q 1753 1419 2003 1419 
Q 2253 1419 2425 1589 
Q 2597 1759 2597 2006 
Q 2597 2253 2423 2428 
Q 2250 2603 2003 2603 
z
M 2003 3006 
Q 2203 3006 2387 2929 
Q 2572 2853 2706 2709 
Q 2850 2569 2922 2390 
Q 2994 2212 2994 2006 
Q 2994 1594 2705 1308 
Q 2416 1022 1997 1022 
Q 1575 1022 1294 1303 
Q 1013 1584 1013 2006 
Q 1013 2425 1300 2715 
Q 1588 3006 2003 3006 
z
" id="DejaVuSans-2218" transform="scale(0.015625)"/>
      <path d="M 3175 2156 
Q 3175 2616 2975 2859 
Q 2775 3103 2400 3103 
Q 2144 3103 1911 2972 
Q 1678 2841 1497 2591 
Q 1319 2344 1212 1994 
Q 1106 1644 1106 1300 
Q 1106 863 1306 627 
Q 1506 391 1875 391 
Q 2147 391 2380 519 
Q 2613 647 2778 891 
Q 2956 1147 3065 1494 
Q 3175 1841 3175 2156 
z
M 1394 2969 
Q 1625 3272 1939 3428 
Q 2253 3584 2638 3584 
Q 3175 3584 3472 3232 
Q 3769 2881 3769 2247 
Q 3769 1728 3584 1258 
Q 3400 788 3053 416 
Q 2822 169 2531 39 
Q 2241 -91 1919 -91 
Q 1547 -91 1294 64 
Q 1041 219 916 525 
L 556 -1331 
L -19 -1331 
L 922 3500 
L 1497 3500 
L 1394 2969 
z
" id="DejaVuSans-Oblique-70" transform="scale(0.015625)"/>
     </defs>
     <use transform="translate(0 0.015625)" xlink:href="#DejaVuSans-54"/>
     <use transform="translate(61.083984 0.015625)" xlink:href="#DejaVuSans-68"/>
     <use transform="translate(124.462891 0.015625)" xlink:href="#DejaVuSans-65"/>
     <use transform="translate(185.986328 0.015625)" xlink:href="#DejaVuSans-6f"/>
     <use transform="translate(247.167969 0.015625)" xlink:href="#DejaVuSans-64"/>
     <use transform="translate(310.644531 0.015625)" xlink:href="#DejaVuSans-6f"/>
     <use transform="translate(371.826172 0.015625)" xlink:href="#DejaVuSans-72"/>
     <use transform="translate(412.939453 0.015625)" xlink:href="#DejaVuSans-73"/>
     <use transform="translate(465.039062 0.015625)" xlink:href="#DejaVuSans-65"/>
     <use transform="translate(526.5625 0.015625)" xlink:href="#DejaVuSans-6e"/>
     <use transform="translate(589.941406 0.015625)" xlink:href="#DejaVuSans-3a"/>
     <use transform="translate(623.632812 0.015625)" xlink:href="#DejaVuSans-20"/>
     <use transform="translate(655.419922 0.015625)" xlink:href="#DejaVuSans-52"/>
     <use transform="translate(724.902344 0.015625)" xlink:href="#DejaVuSans-65"/>
     <use transform="translate(786.425781 0.015625)" xlink:href="#DejaVuSans-3d"/>
     <use transform="translate(870.214844 0.015625)" xlink:href="#DejaVuSans-31"/>
     <use transform="translate(933.837891 0.015625)" xlink:href="#DejaVuSans-2e"/>
     <use transform="translate(965.625 0.015625)" xlink:href="#DejaVuSans-65"/>
     <use transform="translate(1027.148438 0.015625)" xlink:href="#DejaVuSans-2b"/>
     <use transform="translate(1110.9375 0.015625)" xlink:href="#DejaVuSans-30"/>
     <use transform="translate(1174.560547 0.015625)" xlink:href="#DejaVuSans-35"/>
     <use transform="translate(1238.183594 0.015625)" xlink:href="#DejaVuSans-2c"/>
     <use transform="translate(1269.970703 0.015625)" xlink:href="#DejaVuSans-20"/>
     <use transform="translate(1301.757812 0.015625)" xlink:href="#DejaVuSans-61"/>
     <use transform="translate(1363.037109 0.015625)" xlink:href="#DejaVuSans-3d"/>
     <use transform="translate(1446.826172 0.015625)" xlink:href="#DejaVuSans-30"/>
     <use transform="translate(1510.449219 0.015625)" xlink:href="#DejaVuSans-2e"/>
     <use transform="translate(1536.736328 0.015625)" xlink:href="#DejaVuSans-32"/>
     <use transform="translate(1600.359375 0.015625)" xlink:href="#DejaVuSans-35"/>
     <use transform="translate(1663.982422 0.015625)" xlink:href="#DejaVuSans-2c"/>
     <use transform="translate(1695.769531 0.015625)" xlink:href="#DejaVuSans-20"/>
     <use transform="translate(1727.556641 0.015625)" xlink:href="#DejaVuSans-Oblique-66"/>
     <use transform="translate(1762.761719 -16.390625)scale(0.7)" xlink:href="#DejaVuSans-398"/>
     <use transform="translate(1840.076172 0.015625)" xlink:href="#DejaVuSans-3d"/>
     <use transform="translate(1943.347656 0.015625)" xlink:href="#DejaVuSans-31"/>
     <use transform="translate(2006.970703 0.015625)" xlink:href="#DejaVuSans-Oblique-48"/>
     <use transform="translate(2082.166016 0.015625)" xlink:href="#DejaVuSans-Oblique-7a"/>
     <use transform="translate(2134.65625 0.015625)" xlink:href="#DejaVuSans-2c"/>
     <use transform="translate(2185.925781 0.015625)" xlink:href="#DejaVuSans-398"/>
     <use transform="translate(2265.59375 -16.390625)scale(0.7)" xlink:href="#DejaVuSans-Oblique-6d"/>
     <use transform="translate(2333.782227 -16.390625)scale(0.7)" xlink:href="#DejaVuSans-Oblique-65"/>
     <use transform="translate(2376.848633 -16.390625)scale(0.7)" xlink:href="#DejaVuSans-Oblique-61"/>
     <use transform="translate(2419.744141 -16.390625)scale(0.7)" xlink:href="#DejaVuSans-Oblique-6e"/>
     <use transform="translate(2486.326172 0.015625)" xlink:href="#DejaVuSans-3d"/>
     <use transform="translate(2589.597656 0.015625)" xlink:href="#DejaVuSans-34"/>
     <use transform="translate(2654.177734 38.296875)scale(0.7)" xlink:href="#DejaVuSans-2218"/>
     <use transform="translate(2700.730469 0.015625)" xlink:href="#DejaVuSans-2c"/>
     <use transform="translate(2752 0.015625)" xlink:href="#DejaVuSans-398"/>
     <use transform="translate(2831.667969 -16.390625)scale(0.7)" xlink:href="#DejaVuSans-Oblique-61"/>
     <use transform="translate(2874.563477 -16.390625)scale(0.7)" xlink:href="#DejaVuSans-Oblique-6d"/>
     <use transform="translate(2942.751953 -16.390625)scale(0.7)" xlink:href="#DejaVuSans-Oblique-70"/>
     <use transform="translate(3009.402344 0.015625)" xlink:href="#DejaVuSans-3d"/>
     <use transform="translate(3112.673828 0.015625)" xlink:href="#DejaVuSans-34"/>
     <use transform="translate(3177.253906 38.296875)scale(0.7)" xlink:href="#DejaVuSans-2218"/>
    </g>
   </g>
  </g>
 </g>
 <defs>
  <clipPath id="pd805c3bd6a">
   <rect height="527.2344" width="1071.36" x="172.8" y="82.1664"/>
  </clipPath>
 </defs>
</svg>
