<?xml version="1.0" encoding="utf-8"?>
<svg xmlns="http://www.w3.org/2000/svg" xmlns:xlink="http://www.w3.org/1999/xlink" width="600" height="400" viewBox="0 0 2400 1600">
<defs>
  <clipPath id="clip410">
    <rect x="0" y="0" width="2400" height="1600"/>
  </clipPath>
</defs>
<path clip-path="url(#clip410)" d="
M0 1600 L2400 1600 L2400 0 L0 0  Z
  " fill="#ffffff" fill-rule="evenodd" fill-opacity="1"/>
<defs>
  <clipPath id="clip411">
    <rect x="480" y="0" width="1681" height="1600"/>
  </clipPath>
</defs>
<path clip-path="url(#clip410)" d="
M255.977 1423.18 L2352.76 1423.18 L2352.76 123.472 L255.977 123.472  Z
  " fill="#ffffff" fill-rule="evenodd" fill-opacity="1"/>
<defs>
  <clipPath id="clip412">
    <rect x="255" y="123" width="2098" height="1301"/>
  </clipPath>
</defs>
<polyline clip-path="url(#clip412)" style="stroke:#000000; stroke-linecap:butt; stroke-linejoin:round; stroke-width:2; stroke-opacity:0.1; fill:none" points="
  315.32,1423.18 315.32,123.472 
  "/>
<polyline clip-path="url(#clip412)" style="stroke:#000000; stroke-linecap:butt; stroke-linejoin:round; stroke-width:2; stroke-opacity:0.1; fill:none" points="
  974.684,1423.18 974.684,123.472 
  "/>
<polyline clip-path="url(#clip412)" style="stroke:#000000; stroke-linecap:butt; stroke-linejoin:round; stroke-width:2; stroke-opacity:0.1; fill:none" points="
  1634.05,1423.18 1634.05,123.472 
  "/>
<polyline clip-path="url(#clip412)" style="stroke:#000000; stroke-linecap:butt; stroke-linejoin:round; stroke-width:2; stroke-opacity:0.1; fill:none" points="
  2293.41,1423.18 2293.41,123.472 
  "/>
<polyline clip-path="url(#clip410)" style="stroke:#000000; stroke-linecap:butt; stroke-linejoin:round; stroke-width:4; stroke-opacity:1; fill:none" points="
  255.977,1423.18 2352.76,1423.18 
  "/>
<polyline clip-path="url(#clip410)" style="stroke:#000000; stroke-linecap:butt; stroke-linejoin:round; stroke-width:4; stroke-opacity:1; fill:none" points="
  315.32,1423.18 315.32,1404.28 
  "/>
<polyline clip-path="url(#clip410)" style="stroke:#000000; stroke-linecap:butt; stroke-linejoin:round; stroke-width:4; stroke-opacity:1; fill:none" points="
  974.684,1423.18 974.684,1404.28 
  "/>
<polyline clip-path="url(#clip410)" style="stroke:#000000; stroke-linecap:butt; stroke-linejoin:round; stroke-width:4; stroke-opacity:1; fill:none" points="
  1634.05,1423.18 1634.05,1404.28 
  "/>
<polyline clip-path="url(#clip410)" style="stroke:#000000; stroke-linecap:butt; stroke-linejoin:round; stroke-width:4; stroke-opacity:1; fill:none" points="
  2293.41,1423.18 2293.41,1404.28 
  "/>
<path clip-path="url(#clip410)" d="M315.32 1454.1 Q311.709 1454.1 309.88 1457.66 Q308.075 1461.2 308.075 1468.33 Q308.075 1475.44 309.88 1479.01 Q311.709 1482.55 315.32 1482.55 Q318.954 1482.55 320.76 1479.01 Q322.588 1475.44 322.588 1468.33 Q322.588 1461.2 320.76 1457.66 Q318.954 1454.1 315.32 1454.1 M315.32 1450.39 Q321.13 1450.39 324.186 1455 Q327.264 1459.58 327.264 1468.33 Q327.264 1477.06 324.186 1481.67 Q321.13 1486.25 315.32 1486.25 Q309.51 1486.25 306.431 1481.67 Q303.376 1477.06 303.376 1468.33 Q303.376 1459.58 306.431 1455 Q309.51 1450.39 315.32 1450.39 Z" fill="#000000" fill-rule="evenodd" fill-opacity="1" /><path clip-path="url(#clip410)" d="M949.372 1481.64 L957.011 1481.64 L957.011 1455.28 L948.701 1456.95 L948.701 1452.69 L956.965 1451.02 L961.64 1451.02 L961.64 1481.64 L969.279 1481.64 L969.279 1485.58 L949.372 1485.58 L949.372 1481.64 Z" fill="#000000" fill-rule="evenodd" fill-opacity="1" /><path clip-path="url(#clip410)" d="M988.724 1454.1 Q985.113 1454.1 983.284 1457.66 Q981.478 1461.2 981.478 1468.33 Q981.478 1475.44 983.284 1479.01 Q985.113 1482.55 988.724 1482.55 Q992.358 1482.55 994.163 1479.01 Q995.992 1475.44 995.992 1468.33 Q995.992 1461.2 994.163 1457.66 Q992.358 1454.1 988.724 1454.1 M988.724 1450.39 Q994.534 1450.39 997.589 1455 Q1000.67 1459.58 1000.67 1468.33 Q1000.67 1477.06 997.589 1481.67 Q994.534 1486.25 988.724 1486.25 Q982.913 1486.25 979.835 1481.67 Q976.779 1477.06 976.779 1468.33 Q976.779 1459.58 979.835 1455 Q982.913 1450.39 988.724 1450.39 Z" fill="#000000" fill-rule="evenodd" fill-opacity="1" /><path clip-path="url(#clip410)" d="M1612.82 1481.64 L1629.14 1481.64 L1629.14 1485.58 L1607.2 1485.58 L1607.2 1481.64 Q1609.86 1478.89 1614.44 1474.26 Q1619.05 1469.61 1620.23 1468.27 Q1622.47 1465.74 1623.35 1464.01 Q1624.26 1462.25 1624.26 1460.56 Q1624.26 1457.8 1622.31 1456.07 Q1620.39 1454.33 1617.29 1454.33 Q1615.09 1454.33 1612.64 1455.09 Q1610.21 1455.86 1607.43 1457.41 L1607.43 1452.69 Q1610.25 1451.55 1612.71 1450.97 Q1615.16 1450.39 1617.2 1450.39 Q1622.57 1450.39 1625.76 1453.08 Q1628.96 1455.77 1628.96 1460.26 Q1628.96 1462.39 1628.15 1464.31 Q1627.36 1466.2 1625.25 1468.8 Q1624.67 1469.47 1621.57 1472.69 Q1618.47 1475.88 1612.82 1481.64 Z" fill="#000000" fill-rule="evenodd" fill-opacity="1" /><path clip-path="url(#clip410)" d="M1648.96 1454.1 Q1645.34 1454.1 1643.52 1457.66 Q1641.71 1461.2 1641.71 1468.33 Q1641.71 1475.44 1643.52 1479.01 Q1645.34 1482.55 1648.96 1482.55 Q1652.59 1482.55 1654.4 1479.01 Q1656.22 1475.44 1656.22 1468.33 Q1656.22 1461.2 1654.4 1457.66 Q1652.59 1454.1 1648.96 1454.1 M1648.96 1450.39 Q1654.77 1450.39 1657.82 1455 Q1660.9 1459.58 1660.9 1468.33 Q1660.9 1477.06 1657.82 1481.67 Q1654.77 1486.25 1648.96 1486.25 Q1643.15 1486.25 1640.07 1481.67 Q1637.01 1477.06 1637.01 1468.33 Q1637.01 1459.58 1640.07 1455 Q1643.15 1450.39 1648.96 1450.39 Z" fill="#000000" fill-rule="evenodd" fill-opacity="1" /><path clip-path="url(#clip410)" d="M2282.26 1466.95 Q2285.61 1467.66 2287.49 1469.93 Q2289.39 1472.2 2289.39 1475.53 Q2289.39 1480.65 2285.87 1483.45 Q2282.35 1486.25 2275.87 1486.25 Q2273.69 1486.25 2271.38 1485.81 Q2269.08 1485.39 2266.63 1484.54 L2266.63 1480.02 Q2268.58 1481.16 2270.89 1481.74 Q2273.2 1482.32 2275.73 1482.32 Q2280.13 1482.32 2282.42 1480.58 Q2284.73 1478.84 2284.73 1475.53 Q2284.73 1472.48 2282.58 1470.77 Q2280.45 1469.03 2276.63 1469.03 L2272.6 1469.03 L2272.6 1465.19 L2276.82 1465.19 Q2280.27 1465.19 2282.09 1463.82 Q2283.92 1462.43 2283.92 1459.84 Q2283.92 1457.18 2282.02 1455.77 Q2280.15 1454.33 2276.63 1454.33 Q2274.71 1454.33 2272.51 1454.75 Q2270.31 1455.16 2267.67 1456.04 L2267.67 1451.88 Q2270.33 1451.14 2272.65 1450.77 Q2274.99 1450.39 2277.05 1450.39 Q2282.37 1450.39 2285.47 1452.83 Q2288.58 1455.23 2288.58 1459.35 Q2288.58 1462.22 2286.93 1464.21 Q2285.29 1466.18 2282.26 1466.95 Z" fill="#000000" fill-rule="evenodd" fill-opacity="1" /><path clip-path="url(#clip410)" d="M2308.25 1454.1 Q2304.64 1454.1 2302.81 1457.66 Q2301.01 1461.2 2301.01 1468.33 Q2301.01 1475.44 2302.81 1479.01 Q2304.64 1482.55 2308.25 1482.55 Q2311.89 1482.55 2313.69 1479.01 Q2315.52 1475.44 2315.52 1468.33 Q2315.52 1461.2 2313.69 1457.66 Q2311.89 1454.1 2308.25 1454.1 M2308.25 1450.39 Q2314.06 1450.39 2317.12 1455 Q2320.2 1459.58 2320.2 1468.33 Q2320.2 1477.06 2317.12 1481.67 Q2314.06 1486.25 2308.25 1486.25 Q2302.44 1486.25 2299.36 1481.67 Q2296.31 1477.06 2296.31 1468.33 Q2296.31 1459.58 2299.36 1455 Q2302.44 1450.39 2308.25 1450.39 Z" fill="#000000" fill-rule="evenodd" fill-opacity="1" /><path clip-path="url(#clip410)" d="M1252.68 1522.27 L1252.68 1532.4 L1264.74 1532.4 L1264.74 1536.95 L1252.68 1536.95 L1252.68 1556.3 Q1252.68 1560.66 1253.85 1561.9 Q1255.06 1563.14 1258.72 1563.14 L1264.74 1563.14 L1264.74 1568.04 L1258.72 1568.04 Q1251.94 1568.04 1249.37 1565.53 Q1246.79 1562.98 1246.79 1556.3 L1246.79 1536.95 L1242.49 1536.95 L1242.49 1532.4 L1246.79 1532.4 L1246.79 1522.27 L1252.68 1522.27 Z" fill="#000000" fill-rule="evenodd" fill-opacity="1" /><path clip-path="url(#clip410)" d="M1292.62 1518.52 L1306.12 1518.52 L1306.12 1523.07 L1298.48 1523.07 L1298.48 1572.09 L1306.12 1572.09 L1306.12 1576.64 L1292.62 1576.64 L1292.62 1518.52 Z" fill="#000000" fill-rule="evenodd" fill-opacity="1" /><path clip-path="url(#clip410)" d="M1341.32 1533.45 L1341.32 1538.98 Q1338.84 1537.71 1336.16 1537.07 Q1333.49 1536.44 1330.63 1536.44 Q1326.26 1536.44 1324.07 1537.77 Q1321.9 1539.11 1321.9 1541.79 Q1321.9 1543.82 1323.46 1545 Q1325.02 1546.15 1329.73 1547.2 L1331.74 1547.64 Q1337.98 1548.98 1340.59 1551.43 Q1343.23 1553.85 1343.23 1558.21 Q1343.23 1563.17 1339.28 1566.07 Q1335.37 1568.97 1328.49 1568.97 Q1325.63 1568.97 1322.51 1568.39 Q1319.42 1567.85 1315.98 1566.74 L1315.98 1560.69 Q1319.23 1562.38 1322.38 1563.24 Q1325.53 1564.07 1328.62 1564.07 Q1332.76 1564.07 1334.99 1562.66 Q1337.21 1561.23 1337.21 1558.65 Q1337.21 1556.27 1335.59 1554.99 Q1334 1553.72 1328.56 1552.54 L1326.52 1552.07 Q1321.08 1550.92 1318.66 1548.56 Q1316.24 1546.18 1316.24 1542.04 Q1316.24 1537.01 1319.8 1534.27 Q1323.37 1531.54 1329.92 1531.54 Q1333.17 1531.54 1336.04 1532.01 Q1338.9 1532.49 1341.32 1533.45 Z" fill="#000000" fill-rule="evenodd" fill-opacity="1" /><path clip-path="url(#clip410)" d="M1366.24 1518.52 L1366.24 1576.64 L1352.75 1576.64 L1352.75 1572.09 L1360.35 1572.09 L1360.35 1523.07 L1352.75 1523.07 L1352.75 1518.52 L1366.24 1518.52 Z" fill="#000000" fill-rule="evenodd" fill-opacity="1" /><polyline clip-path="url(#clip412)" style="stroke:#000000; stroke-linecap:butt; stroke-linejoin:round; stroke-width:2; stroke-opacity:0.1; fill:none" points="
  255.977,1383.3 2352.76,1383.3 
  "/>
<polyline clip-path="url(#clip412)" style="stroke:#000000; stroke-linecap:butt; stroke-linejoin:round; stroke-width:2; stroke-opacity:0.1; fill:none" points="
  255.977,1191.35 2352.76,1191.35 
  "/>
<polyline clip-path="url(#clip412)" style="stroke:#000000; stroke-linecap:butt; stroke-linejoin:round; stroke-width:2; stroke-opacity:0.1; fill:none" points="
  255.977,999.397 2352.76,999.397 
  "/>
<polyline clip-path="url(#clip412)" style="stroke:#000000; stroke-linecap:butt; stroke-linejoin:round; stroke-width:2; stroke-opacity:0.1; fill:none" points="
  255.977,807.443 2352.76,807.443 
  "/>
<polyline clip-path="url(#clip412)" style="stroke:#000000; stroke-linecap:butt; stroke-linejoin:round; stroke-width:2; stroke-opacity:0.1; fill:none" points="
  255.977,615.489 2352.76,615.489 
  "/>
<polyline clip-path="url(#clip412)" style="stroke:#000000; stroke-linecap:butt; stroke-linejoin:round; stroke-width:2; stroke-opacity:0.1; fill:none" points="
  255.977,423.534 2352.76,423.534 
  "/>
<polyline clip-path="url(#clip412)" style="stroke:#000000; stroke-linecap:butt; stroke-linejoin:round; stroke-width:2; stroke-opacity:0.1; fill:none" points="
  255.977,231.58 2352.76,231.58 
  "/>
<polyline clip-path="url(#clip410)" style="stroke:#000000; stroke-linecap:butt; stroke-linejoin:round; stroke-width:4; stroke-opacity:1; fill:none" points="
  255.977,1423.18 255.977,123.472 
  "/>
<polyline clip-path="url(#clip410)" style="stroke:#000000; stroke-linecap:butt; stroke-linejoin:round; stroke-width:4; stroke-opacity:1; fill:none" points="
  255.977,1383.3 274.875,1383.3 
  "/>
<polyline clip-path="url(#clip410)" style="stroke:#000000; stroke-linecap:butt; stroke-linejoin:round; stroke-width:4; stroke-opacity:1; fill:none" points="
  255.977,1191.35 274.875,1191.35 
  "/>
<polyline clip-path="url(#clip410)" style="stroke:#000000; stroke-linecap:butt; stroke-linejoin:round; stroke-width:4; stroke-opacity:1; fill:none" points="
  255.977,999.397 274.875,999.397 
  "/>
<polyline clip-path="url(#clip410)" style="stroke:#000000; stroke-linecap:butt; stroke-linejoin:round; stroke-width:4; stroke-opacity:1; fill:none" points="
  255.977,807.443 274.875,807.443 
  "/>
<polyline clip-path="url(#clip410)" style="stroke:#000000; stroke-linecap:butt; stroke-linejoin:round; stroke-width:4; stroke-opacity:1; fill:none" points="
  255.977,615.489 274.875,615.489 
  "/>
<polyline clip-path="url(#clip410)" style="stroke:#000000; stroke-linecap:butt; stroke-linejoin:round; stroke-width:4; stroke-opacity:1; fill:none" points="
  255.977,423.534 274.875,423.534 
  "/>
<polyline clip-path="url(#clip410)" style="stroke:#000000; stroke-linecap:butt; stroke-linejoin:round; stroke-width:4; stroke-opacity:1; fill:none" points="
  255.977,231.58 274.875,231.58 
  "/>
<path clip-path="url(#clip410)" d="M114.631 1383.76 L144.306 1383.76 L144.306 1387.69 L114.631 1387.69 L114.631 1383.76 Z" fill="#000000" fill-rule="evenodd" fill-opacity="1" /><path clip-path="url(#clip410)" d="M164.399 1369.1 Q160.788 1369.1 158.959 1372.67 Q157.153 1376.21 157.153 1383.34 Q157.153 1390.45 158.959 1394.01 Q160.788 1397.55 164.399 1397.55 Q168.033 1397.55 169.839 1394.01 Q171.667 1390.45 171.667 1383.34 Q171.667 1376.21 169.839 1372.67 Q168.033 1369.1 164.399 1369.1 M164.399 1365.4 Q170.209 1365.4 173.264 1370.01 Q176.343 1374.59 176.343 1383.34 Q176.343 1392.07 173.264 1396.67 Q170.209 1401.26 164.399 1401.26 Q158.589 1401.26 155.51 1396.67 Q152.454 1392.07 152.454 1383.34 Q152.454 1374.59 155.51 1370.01 Q158.589 1365.4 164.399 1365.4 Z" fill="#000000" fill-rule="evenodd" fill-opacity="1" /><path clip-path="url(#clip410)" d="M184.561 1394.71 L189.445 1394.71 L189.445 1400.58 L184.561 1400.58 L184.561 1394.71 Z" fill="#000000" fill-rule="evenodd" fill-opacity="1" /><path clip-path="url(#clip410)" d="M203.658 1396.65 L219.977 1396.65 L219.977 1400.58 L198.033 1400.58 L198.033 1396.65 Q200.695 1393.9 205.278 1389.27 Q209.885 1384.61 211.065 1383.27 Q213.311 1380.75 214.19 1379.01 Q215.093 1377.25 215.093 1375.56 Q215.093 1372.81 213.149 1371.07 Q211.227 1369.34 208.125 1369.34 Q205.926 1369.34 203.473 1370.1 Q201.042 1370.86 198.264 1372.41 L198.264 1367.69 Q201.088 1366.56 203.542 1365.98 Q205.996 1365.4 208.033 1365.4 Q213.403 1365.4 216.598 1368.09 Q219.792 1370.77 219.792 1375.26 Q219.792 1377.39 218.982 1379.31 Q218.195 1381.21 216.088 1383.8 Q215.51 1384.47 212.408 1387.69 Q209.306 1390.89 203.658 1396.65 Z" fill="#000000" fill-rule="evenodd" fill-opacity="1" /><path clip-path="url(#clip410)" d="M114.26 1191.8 L143.936 1191.8 L143.936 1195.74 L114.26 1195.74 L114.26 1191.8 Z" fill="#000000" fill-rule="evenodd" fill-opacity="1" /><path clip-path="url(#clip410)" d="M164.028 1177.15 Q160.417 1177.15 158.589 1180.71 Q156.783 1184.26 156.783 1191.39 Q156.783 1198.49 158.589 1202.06 Q160.417 1205.6 164.028 1205.6 Q167.663 1205.6 169.468 1202.06 Q171.297 1198.49 171.297 1191.39 Q171.297 1184.26 169.468 1180.71 Q167.663 1177.15 164.028 1177.15 M164.028 1173.45 Q169.839 1173.45 172.894 1178.05 Q175.973 1182.64 175.973 1191.39 Q175.973 1200.11 172.894 1204.72 Q169.839 1209.3 164.028 1209.3 Q158.218 1209.3 155.14 1204.72 Q152.084 1200.11 152.084 1191.39 Q152.084 1182.64 155.14 1178.05 Q158.218 1173.45 164.028 1173.45 Z" fill="#000000" fill-rule="evenodd" fill-opacity="1" /><path clip-path="url(#clip410)" d="M184.19 1202.75 L189.075 1202.75 L189.075 1208.63 L184.19 1208.63 L184.19 1202.75 Z" fill="#000000" fill-rule="evenodd" fill-opacity="1" /><path clip-path="url(#clip410)" d="M200.07 1204.7 L207.709 1204.7 L207.709 1178.33 L199.399 1180 L199.399 1175.74 L207.662 1174.07 L212.338 1174.07 L212.338 1204.7 L219.977 1204.7 L219.977 1208.63 L200.07 1208.63 L200.07 1204.7 Z" fill="#000000" fill-rule="evenodd" fill-opacity="1" /><path clip-path="url(#clip410)" d="M162.802 985.195 Q159.19 985.195 157.362 988.76 Q155.556 992.302 155.556 999.431 Q155.556 1006.54 157.362 1010.1 Q159.19 1013.64 162.802 1013.64 Q166.436 1013.64 168.241 1010.1 Q170.07 1006.54 170.07 999.431 Q170.07 992.302 168.241 988.76 Q166.436 985.195 162.802 985.195 M162.802 981.492 Q168.612 981.492 171.667 986.098 Q174.746 990.682 174.746 999.431 Q174.746 1008.16 171.667 1012.76 Q168.612 1017.35 162.802 1017.35 Q156.991 1017.35 153.913 1012.76 Q150.857 1008.16 150.857 999.431 Q150.857 990.682 153.913 986.098 Q156.991 981.492 162.802 981.492 Z" fill="#000000" fill-rule="evenodd" fill-opacity="1" /><path clip-path="url(#clip410)" d="M182.963 1010.8 L187.848 1010.8 L187.848 1016.68 L182.963 1016.68 L182.963 1010.8 Z" fill="#000000" fill-rule="evenodd" fill-opacity="1" /><path clip-path="url(#clip410)" d="M208.033 985.195 Q204.422 985.195 202.593 988.76 Q200.787 992.302 200.787 999.431 Q200.787 1006.54 202.593 1010.1 Q204.422 1013.64 208.033 1013.64 Q211.667 1013.64 213.473 1010.1 Q215.301 1006.54 215.301 999.431 Q215.301 992.302 213.473 988.76 Q211.667 985.195 208.033 985.195 M208.033 981.492 Q213.843 981.492 216.898 986.098 Q219.977 990.682 219.977 999.431 Q219.977 1008.16 216.898 1012.76 Q213.843 1017.35 208.033 1017.35 Q202.223 1017.35 199.144 1012.76 Q196.088 1008.16 196.088 999.431 Q196.088 990.682 199.144 986.098 Q202.223 981.492 208.033 981.492 Z" fill="#000000" fill-rule="evenodd" fill-opacity="1" /><path clip-path="url(#clip410)" d="M164.028 793.241 Q160.417 793.241 158.589 796.806 Q156.783 800.348 156.783 807.477 Q156.783 814.584 158.589 818.149 Q160.417 821.69 164.028 821.69 Q167.663 821.69 169.468 818.149 Q171.297 814.584 171.297 807.477 Q171.297 800.348 169.468 796.806 Q167.663 793.241 164.028 793.241 M164.028 789.538 Q169.839 789.538 172.894 794.144 Q175.973 798.727 175.973 807.477 Q175.973 816.204 172.894 820.811 Q169.839 825.394 164.028 825.394 Q158.218 825.394 155.14 820.811 Q152.084 816.204 152.084 807.477 Q152.084 798.727 155.14 794.144 Q158.218 789.538 164.028 789.538 Z" fill="#000000" fill-rule="evenodd" fill-opacity="1" /><path clip-path="url(#clip410)" d="M184.19 818.843 L189.075 818.843 L189.075 824.723 L184.19 824.723 L184.19 818.843 Z" fill="#000000" fill-rule="evenodd" fill-opacity="1" /><path clip-path="url(#clip410)" d="M200.07 820.787 L207.709 820.787 L207.709 794.422 L199.399 796.089 L199.399 791.829 L207.662 790.163 L212.338 790.163 L212.338 820.787 L219.977 820.787 L219.977 824.723 L200.07 824.723 L200.07 820.787 Z" fill="#000000" fill-rule="evenodd" fill-opacity="1" /><path clip-path="url(#clip410)" d="M164.399 601.287 Q160.788 601.287 158.959 604.852 Q157.153 608.394 157.153 615.523 Q157.153 622.63 158.959 626.194 Q160.788 629.736 164.399 629.736 Q168.033 629.736 169.839 626.194 Q171.667 622.63 171.667 615.523 Q171.667 608.394 169.839 604.852 Q168.033 601.287 164.399 601.287 M164.399 597.584 Q170.209 597.584 173.264 602.19 Q176.343 606.773 176.343 615.523 Q176.343 624.25 173.264 628.857 Q170.209 633.44 164.399 633.44 Q158.589 633.44 155.51 628.857 Q152.454 624.25 152.454 615.523 Q152.454 606.773 155.51 602.19 Q158.589 597.584 164.399 597.584 Z" fill="#000000" fill-rule="evenodd" fill-opacity="1" /><path clip-path="url(#clip410)" d="M184.561 626.889 L189.445 626.889 L189.445 632.769 L184.561 632.769 L184.561 626.889 Z" fill="#000000" fill-rule="evenodd" fill-opacity="1" /><path clip-path="url(#clip410)" d="M203.658 628.833 L219.977 628.833 L219.977 632.769 L198.033 632.769 L198.033 628.833 Q200.695 626.079 205.278 621.449 Q209.885 616.796 211.065 615.454 Q213.311 612.931 214.19 611.195 Q215.093 609.435 215.093 607.746 Q215.093 604.991 213.149 603.255 Q211.227 601.519 208.125 601.519 Q205.926 601.519 203.473 602.283 Q201.042 603.046 198.264 604.597 L198.264 599.875 Q201.088 598.741 203.542 598.162 Q205.996 597.584 208.033 597.584 Q213.403 597.584 216.598 600.269 Q219.792 602.954 219.792 607.445 Q219.792 609.574 218.982 611.495 Q218.195 613.394 216.088 615.986 Q215.51 616.658 212.408 619.875 Q209.306 623.07 203.658 628.833 Z" fill="#000000" fill-rule="evenodd" fill-opacity="1" /><path clip-path="url(#clip410)" d="M163.45 409.333 Q159.839 409.333 158.01 412.898 Q156.204 416.44 156.204 423.569 Q156.204 430.676 158.01 434.24 Q159.839 437.782 163.45 437.782 Q167.084 437.782 168.889 434.24 Q170.718 430.676 170.718 423.569 Q170.718 416.44 168.889 412.898 Q167.084 409.333 163.45 409.333 M163.45 405.629 Q169.26 405.629 172.315 410.236 Q175.394 414.819 175.394 423.569 Q175.394 432.296 172.315 436.902 Q169.26 441.486 163.45 441.486 Q157.64 441.486 154.561 436.902 Q151.505 432.296 151.505 423.569 Q151.505 414.819 154.561 410.236 Q157.64 405.629 163.45 405.629 Z" fill="#000000" fill-rule="evenodd" fill-opacity="1" /><path clip-path="url(#clip410)" d="M183.612 434.935 L188.496 434.935 L188.496 440.814 L183.612 440.814 L183.612 434.935 Z" fill="#000000" fill-rule="evenodd" fill-opacity="1" /><path clip-path="url(#clip410)" d="M212.848 422.18 Q216.204 422.898 218.079 425.166 Q219.977 427.435 219.977 430.768 Q219.977 435.884 216.459 438.685 Q212.94 441.486 206.459 441.486 Q204.283 441.486 201.968 441.046 Q199.676 440.629 197.223 439.773 L197.223 435.259 Q199.167 436.393 201.482 436.972 Q203.797 437.551 206.32 437.551 Q210.718 437.551 213.01 435.814 Q215.324 434.078 215.324 430.768 Q215.324 427.713 213.172 426 Q211.042 424.264 207.223 424.264 L203.195 424.264 L203.195 420.421 L207.408 420.421 Q210.857 420.421 212.686 419.055 Q214.514 417.666 214.514 415.074 Q214.514 412.412 212.616 411 Q210.741 409.565 207.223 409.565 Q205.301 409.565 203.102 409.981 Q200.903 410.398 198.264 411.278 L198.264 407.111 Q200.926 406.37 203.241 406 Q205.579 405.629 207.639 405.629 Q212.963 405.629 216.065 408.06 Q219.167 410.467 219.167 414.588 Q219.167 417.458 217.523 419.449 Q215.88 421.416 212.848 422.18 Z" fill="#000000" fill-rule="evenodd" fill-opacity="1" /><path clip-path="url(#clip410)" d="M162.315 217.379 Q158.704 217.379 156.876 220.944 Q155.07 224.485 155.07 231.615 Q155.07 238.721 156.876 242.286 Q158.704 245.828 162.315 245.828 Q165.95 245.828 167.755 242.286 Q169.584 238.721 169.584 231.615 Q169.584 224.485 167.755 220.944 Q165.95 217.379 162.315 217.379 M162.315 213.675 Q168.126 213.675 171.181 218.282 Q174.26 222.865 174.26 231.615 Q174.26 240.342 171.181 244.948 Q168.126 249.532 162.315 249.532 Q156.505 249.532 153.427 244.948 Q150.371 240.342 150.371 231.615 Q150.371 222.865 153.427 218.282 Q156.505 213.675 162.315 213.675 Z" fill="#000000" fill-rule="evenodd" fill-opacity="1" /><path clip-path="url(#clip410)" d="M182.477 242.981 L187.362 242.981 L187.362 248.86 L182.477 248.86 L182.477 242.981 Z" fill="#000000" fill-rule="evenodd" fill-opacity="1" /><path clip-path="url(#clip410)" d="M210.394 218.374 L198.588 236.823 L210.394 236.823 L210.394 218.374 M209.167 214.3 L215.047 214.3 L215.047 236.823 L219.977 236.823 L219.977 240.712 L215.047 240.712 L215.047 248.86 L210.394 248.86 L210.394 240.712 L194.792 240.712 L194.792 236.198 L209.167 214.3 Z" fill="#000000" fill-rule="evenodd" fill-opacity="1" /><path clip-path="url(#clip410)" d="M20.1444 773.66 L26.9239 773.66 Q23.9002 776.907 22.4043 780.599 Q20.9083 784.259 20.9083 788.397 Q20.9083 796.545 25.9054 800.874 Q30.8707 805.202 40.2919 805.202 Q49.6813 805.202 54.6784 800.874 Q59.6436 796.545 59.6436 788.397 Q59.6436 784.259 58.1477 780.599 Q56.6518 776.907 53.6281 773.66 L60.3439 773.66 Q62.6355 777.034 63.7814 780.822 Q64.9272 784.577 64.9272 788.779 Q64.9272 799.569 58.3387 805.775 Q51.7183 811.982 40.2919 811.982 Q28.8336 811.982 22.2451 805.775 Q15.6248 799.569 15.6248 788.779 Q15.6248 784.514 16.7706 780.758 Q17.8846 776.97 20.1444 773.66 Z" fill="#000000" fill-rule="evenodd" fill-opacity="1" /><path clip-path="url(#clip410)" d="M33.7671 740.527 L14.479 740.527 L14.479 734.67 L64.0042 734.67 L64.0042 740.527 L58.657 740.527 Q61.8398 742.373 63.3994 745.205 Q64.9272 748.006 64.9272 751.953 Q64.9272 758.414 59.771 762.488 Q54.6147 766.531 46.212 766.531 Q37.8093 766.531 32.6531 762.488 Q27.4968 758.414 27.4968 751.953 Q27.4968 748.006 29.0564 745.205 Q30.5842 742.373 33.7671 740.527 M46.212 760.483 Q52.6732 760.483 56.3653 757.841 Q60.0256 755.168 60.0256 750.521 Q60.0256 745.874 56.3653 743.2 Q52.6732 740.527 46.212 740.527 Q39.7508 740.527 36.0905 743.2 Q32.3984 745.874 32.3984 750.521 Q32.3984 755.168 36.0905 757.841 Q39.7508 760.483 46.212 760.483 Z" fill="#000000" fill-rule="evenodd" fill-opacity="1" /><path clip-path="url(#clip410)" d="M381.773 44.2197 Q384.406 45.1109 386.877 48.0275 Q389.389 50.9442 391.9 56.0483 L400.205 72.576 L391.414 72.576 L383.677 57.061 Q380.679 50.9847 377.844 48.9997 Q375.049 47.0148 370.188 47.0148 L361.276 47.0148 L361.276 72.576 L353.093 72.576 L353.093 12.096 L371.565 12.096 Q381.935 12.096 387.039 16.4305 Q392.143 20.7649 392.143 29.5149 Q392.143 35.2267 389.47 38.994 Q386.837 42.7613 381.773 44.2197 M361.276 18.8205 L361.276 40.2903 L371.565 40.2903 Q377.479 40.2903 380.477 37.5762 Q383.515 34.8216 383.515 29.5149 Q383.515 24.2082 380.477 21.5346 Q377.479 18.8205 371.565 18.8205 L361.276 18.8205 Z" fill="#000000" fill-rule="evenodd" fill-opacity="1" /><path clip-path="url(#clip410)" d="M445.494 48.0275 L445.494 51.6733 L411.223 51.6733 Q411.709 59.3701 415.841 63.421 Q420.014 67.4314 427.427 67.4314 Q431.721 67.4314 435.731 66.3781 Q439.782 65.3249 443.752 63.2184 L443.752 70.267 Q439.742 71.9684 435.529 72.8596 Q431.316 73.7508 426.981 73.7508 Q416.125 73.7508 409.765 67.4314 Q403.445 61.1119 403.445 50.3365 Q403.445 39.1965 409.441 32.6746 Q415.477 26.1121 425.685 26.1121 Q434.84 26.1121 440.147 32.0264 Q445.494 37.9003 445.494 48.0275 M438.04 45.84 Q437.959 39.7232 434.597 36.0774 Q431.275 32.4315 425.766 32.4315 Q419.528 32.4315 415.76 35.9558 Q412.033 39.4801 411.466 45.8805 L438.04 45.84 Z" fill="#000000" fill-rule="evenodd" fill-opacity="1" /><path clip-path="url(#clip410)" d="M458.7 34.9026 L510.632 34.9026 L510.632 41.7081 L458.7 41.7081 L458.7 34.9026 M458.7 51.4303 L510.632 51.4303 L510.632 58.3168 L458.7 58.3168 L458.7 51.4303 Z" fill="#000000" fill-rule="evenodd" fill-opacity="1" /><path clip-path="url(#clip410)" d="M529.712 65.6895 L543.08 65.6895 L543.08 19.5497 L528.537 22.4663 L528.537 15.0127 L542.999 12.096 L551.182 12.096 L551.182 65.6895 L564.55 65.6895 L564.55 72.576 L529.712 72.576 L529.712 65.6895 Z" fill="#000000" fill-rule="evenodd" fill-opacity="1" /><path clip-path="url(#clip410)" d="M598.578 17.4837 Q592.258 17.4837 589.058 23.7221 Q585.898 29.92 585.898 42.3968 Q585.898 54.833 589.058 61.0714 Q592.258 67.2693 598.578 67.2693 Q604.937 67.2693 608.097 61.0714 Q611.297 54.833 611.297 42.3968 Q611.297 29.92 608.097 23.7221 Q604.937 17.4837 598.578 17.4837 M598.578 11.0023 Q608.745 11.0023 614.092 19.0636 Q619.48 27.0843 619.48 42.3968 Q619.48 57.6687 614.092 65.73 Q608.745 73.7508 598.578 73.7508 Q588.41 73.7508 583.022 65.73 Q577.675 57.6687 577.675 42.3968 Q577.675 27.0843 583.022 19.0636 Q588.41 11.0023 598.578 11.0023 Z" fill="#000000" fill-rule="evenodd" fill-opacity="1" /><path clip-path="url(#clip410)" d="M651.361 17.4837 Q645.041 17.4837 641.841 23.7221 Q638.681 29.92 638.681 42.3968 Q638.681 54.833 641.841 61.0714 Q645.041 67.2693 651.361 67.2693 Q657.721 67.2693 660.88 61.0714 Q664.081 54.833 664.081 42.3968 Q664.081 29.92 660.88 23.7221 Q657.721 17.4837 651.361 17.4837 M651.361 11.0023 Q661.529 11.0023 666.876 19.0636 Q672.263 27.0843 672.263 42.3968 Q672.263 57.6687 666.876 65.73 Q661.529 73.7508 651.361 73.7508 Q641.193 73.7508 635.805 65.73 Q630.458 57.6687 630.458 42.3968 Q630.458 27.0843 635.805 19.0636 Q641.193 11.0023 651.361 11.0023 Z" fill="#000000" fill-rule="evenodd" fill-opacity="1" /><path clip-path="url(#clip410)" d="M704.144 17.4837 Q697.825 17.4837 694.624 23.7221 Q691.465 29.92 691.465 42.3968 Q691.465 54.833 694.624 61.0714 Q697.825 67.2693 704.144 67.2693 Q710.504 67.2693 713.664 61.0714 Q716.864 54.833 716.864 42.3968 Q716.864 29.92 713.664 23.7221 Q710.504 17.4837 704.144 17.4837 M704.144 11.0023 Q714.312 11.0023 719.659 19.0636 Q725.047 27.0843 725.047 42.3968 Q725.047 57.6687 719.659 65.73 Q714.312 73.7508 704.144 73.7508 Q693.976 73.7508 688.589 65.73 Q683.241 57.6687 683.241 42.3968 Q683.241 27.0843 688.589 19.0636 Q693.976 11.0023 704.144 11.0023 Z" fill="#000000" fill-rule="evenodd" fill-opacity="1" /><path clip-path="url(#clip410)" d="M756.927 17.4837 Q750.608 17.4837 747.408 23.7221 Q744.248 29.92 744.248 42.3968 Q744.248 54.833 747.408 61.0714 Q750.608 67.2693 756.927 67.2693 Q763.287 67.2693 766.447 61.0714 Q769.647 54.833 769.647 42.3968 Q769.647 29.92 766.447 23.7221 Q763.287 17.4837 756.927 17.4837 M756.927 11.0023 Q767.095 11.0023 772.442 19.0636 Q777.83 27.0843 777.83 42.3968 Q777.83 57.6687 772.442 65.73 Q767.095 73.7508 756.927 73.7508 Q746.76 73.7508 741.372 65.73 Q736.025 57.6687 736.025 42.3968 Q736.025 27.0843 741.372 19.0636 Q746.76 11.0023 756.927 11.0023 Z" fill="#000000" fill-rule="evenodd" fill-opacity="1" /><path clip-path="url(#clip410)" d="M809.711 17.4837 Q803.391 17.4837 800.191 23.7221 Q797.031 29.92 797.031 42.3968 Q797.031 54.833 800.191 61.0714 Q803.391 67.2693 809.711 67.2693 Q816.071 67.2693 819.23 61.0714 Q822.43 54.833 822.43 42.3968 Q822.43 29.92 819.23 23.7221 Q816.071 17.4837 809.711 17.4837 M809.711 11.0023 Q819.878 11.0023 825.226 19.0636 Q830.613 27.0843 830.613 42.3968 Q830.613 57.6687 825.226 65.73 Q819.878 73.7508 809.711 73.7508 Q799.543 73.7508 794.155 65.73 Q788.808 57.6687 788.808 42.3968 Q788.808 27.0843 794.155 19.0636 Q799.543 11.0023 809.711 11.0023 Z" fill="#000000" fill-rule="evenodd" fill-opacity="1" /><path clip-path="url(#clip410)" d="M844.994 62.2867 L853.541 62.2867 L853.541 72.576 L844.994 72.576 L844.994 62.2867 Z" fill="#000000" fill-rule="evenodd" fill-opacity="1" /><path clip-path="url(#clip410)" d="M888.865 17.4837 Q882.546 17.4837 879.346 23.7221 Q876.186 29.92 876.186 42.3968 Q876.186 54.833 879.346 61.0714 Q882.546 67.2693 888.865 67.2693 Q895.225 67.2693 898.385 61.0714 Q901.585 54.833 901.585 42.3968 Q901.585 29.92 898.385 23.7221 Q895.225 17.4837 888.865 17.4837 M888.865 11.0023 Q899.033 11.0023 904.38 19.0636 Q909.768 27.0843 909.768 42.3968 Q909.768 57.6687 904.38 65.73 Q899.033 73.7508 888.865 73.7508 Q878.698 73.7508 873.31 65.73 Q867.963 57.6687 867.963 42.3968 Q867.963 27.0843 873.31 19.0636 Q878.698 11.0023 888.865 11.0023 Z" fill="#000000" fill-rule="evenodd" fill-opacity="1" /><path clip-path="url(#clip410)" d="M970.086 49.7694 Q961.052 49.7694 957.569 51.8354 Q954.085 53.9013 954.085 58.8839 Q954.085 62.8538 956.677 65.2034 Q959.311 67.5124 963.807 67.5124 Q970.005 67.5124 973.732 63.1374 Q977.499 58.7219 977.499 51.4303 L977.499 49.7694 L970.086 49.7694 M984.953 46.6907 L984.953 72.576 L977.499 72.576 L977.499 65.6895 Q974.947 69.8214 971.139 71.8063 Q967.331 73.7508 961.822 73.7508 Q954.855 73.7508 950.723 69.8619 Q946.631 65.9325 946.631 59.3701 Q946.631 51.7138 951.735 47.825 Q956.88 43.9361 967.048 43.9361 L977.499 43.9361 L977.499 43.2069 Q977.499 38.0623 974.096 35.2672 Q970.734 32.4315 964.617 32.4315 Q960.728 32.4315 957.042 33.3632 Q953.356 34.295 949.953 36.1584 L949.953 29.2718 Q954.044 27.692 957.893 26.9223 Q961.741 26.1121 965.387 26.1121 Q975.231 26.1121 980.092 31.2163 Q984.953 36.3204 984.953 46.6907 Z" fill="#000000" fill-rule="evenodd" fill-opacity="1" /><path clip-path="url(#clip410)" d="M1001.28 34.9026 L1053.21 34.9026 L1053.21 41.7081 L1001.28 41.7081 L1001.28 34.9026 M1001.28 51.4303 L1053.21 51.4303 L1053.21 58.3168 L1001.28 58.3168 L1001.28 51.4303 Z" fill="#000000" fill-rule="evenodd" fill-opacity="1" /><path clip-path="url(#clip410)" d="M1088.37 17.4837 Q1082.05 17.4837 1078.85 23.7221 Q1075.69 29.92 1075.69 42.3968 Q1075.69 54.833 1078.85 61.0714 Q1082.05 67.2693 1088.37 67.2693 Q1094.73 67.2693 1097.89 61.0714 Q1101.09 54.833 1101.09 42.3968 Q1101.09 29.92 1097.89 23.7221 Q1094.73 17.4837 1088.37 17.4837 M1088.37 11.0023 Q1098.54 11.0023 1103.89 19.0636 Q1109.27 27.0843 1109.27 42.3968 Q1109.27 57.6687 1103.89 65.73 Q1098.54 73.7508 1088.37 73.7508 Q1078.2 73.7508 1072.82 65.73 Q1067.47 57.6687 1067.47 42.3968 Q1067.47 27.0843 1072.82 19.0636 Q1078.2 11.0023 1088.37 11.0023 Z" fill="#000000" fill-rule="evenodd" fill-opacity="1" /><path clip-path="url(#clip410)" d="M1123.66 62.2867 L1132.2 62.2867 L1132.2 72.576 L1123.66 72.576 L1123.66 62.2867 Z" fill="#000000" fill-rule="evenodd" fill-opacity="1" /><path clip-path="url(#clip410)" d="M1157.08 65.6895 L1185.63 65.6895 L1185.63 72.576 L1147.23 72.576 L1147.23 65.6895 Q1151.89 60.8689 1159.91 52.7671 Q1167.97 44.6248 1170.04 42.2752 Q1173.97 37.8598 1175.51 34.8216 Q1177.09 31.7429 1177.09 28.7857 Q1177.09 23.9651 1173.68 20.927 Q1170.32 17.8888 1164.89 17.8888 Q1161.05 17.8888 1156.75 19.2256 Q1152.5 20.5624 1147.64 23.2765 L1147.64 15.0127 Q1152.58 13.0277 1156.87 12.015 Q1161.17 11.0023 1164.73 11.0023 Q1174.13 11.0023 1179.72 15.7013 Q1185.31 20.4004 1185.31 28.2591 Q1185.31 31.9859 1183.89 35.3482 Q1182.52 38.6699 1178.83 43.2069 Q1177.82 44.3817 1172.39 50.0125 Q1166.96 55.6027 1157.08 65.6895 Z" fill="#000000" fill-rule="evenodd" fill-opacity="1" /><path clip-path="url(#clip410)" d="M1202.89 12.096 L1235.02 12.096 L1235.02 18.9825 L1210.39 18.9825 L1210.39 33.8088 Q1212.17 33.2012 1213.95 32.9176 Q1215.73 32.5936 1217.52 32.5936 Q1227.64 32.5936 1233.56 38.1433 Q1239.47 43.6931 1239.47 53.1722 Q1239.47 62.9348 1233.39 68.3631 Q1227.32 73.7508 1216.26 73.7508 Q1212.45 73.7508 1208.48 73.1026 Q1204.55 72.4545 1200.34 71.1582 L1200.34 62.9348 Q1203.99 64.9198 1207.87 65.892 Q1211.76 66.8642 1216.1 66.8642 Q1223.11 66.8642 1227.2 63.1779 Q1231.29 59.4916 1231.29 53.1722 Q1231.29 46.8528 1227.2 43.1664 Q1223.11 39.4801 1216.1 39.4801 Q1212.82 39.4801 1209.53 40.2093 Q1206.29 40.9384 1202.89 42.4778 L1202.89 12.096 Z" fill="#000000" fill-rule="evenodd" fill-opacity="1" /><path clip-path="url(#clip410)" d="M1303.88 9.54393 L1303.88 15.7418 L1296.75 15.7418 Q1292.74 15.7418 1291.16 17.3622 Q1289.62 18.9825 1289.62 23.1955 L1289.62 27.2059 L1301.9 27.2059 L1301.9 32.9987 L1289.62 32.9987 L1289.62 72.576 L1282.13 72.576 L1282.13 32.9987 L1275 32.9987 L1275 27.2059 L1282.13 27.2059 L1282.13 24.0462 Q1282.13 16.471 1285.65 13.0277 Q1289.18 9.54393 1296.83 9.54393 L1303.88 9.54393 Z" fill="#000000" fill-rule="evenodd" fill-opacity="1" /><path clip-path="url(#clip410)" d="M1311.09 34.9026 L1363.02 34.9026 L1363.02 41.7081 L1311.09 41.7081 L1311.09 34.9026 M1311.09 51.4303 L1363.02 51.4303 L1363.02 58.3168 L1311.09 58.3168 L1311.09 51.4303 Z" fill="#000000" fill-rule="evenodd" fill-opacity="1" /><path clip-path="url(#clip410)" d="M1382.1 65.6895 L1395.47 65.6895 L1395.47 19.5497 L1380.93 22.4663 L1380.93 15.0127 L1395.39 12.096 L1403.57 12.096 L1403.57 65.6895 L1416.94 65.6895 L1416.94 72.576 L1382.1 72.576 L1382.1 65.6895 Z" fill="#000000" fill-rule="evenodd" fill-opacity="1" /><path clip-path="url(#clip410)" d="M1485.24 51.4708 L1483.46 42.1132 Q1481.63 32.5126 1474.42 32.5126 Q1469 32.5126 1466.52 36.9686 Q1463.41 42.5588 1463.41 49.9314 Q1463.41 58.8434 1466.44 63.0969 Q1469.52 67.4314 1474.42 67.4314 Q1479.85 67.4314 1482.77 58.8029 L1485.24 51.4708 M1489.41 39.075 L1493.42 27.2059 L1500.07 27.2059 L1491.76 51.7949 L1493.38 60.6663 Q1493.75 62.6513 1495.16 64.3122 Q1496.83 66.2566 1498.12 66.2566 L1501.69 66.2566 L1501.69 72.576 L1497.23 72.576 Q1493.42 72.576 1490.02 69.1732 Q1488.36 67.4719 1487.67 63.9071 Q1485.81 68.4036 1482 71.9279 Q1480.22 73.5887 1474.42 73.5887 Q1464.9 73.5887 1460.29 67.4314 Q1455.55 61.0714 1455.55 49.9314 Q1455.55 38.0218 1460.69 32.4315 Q1466.4 26.1931 1474.42 26.1931 Q1487.02 26.1931 1489.41 39.075 Z" fill="#000000" fill-rule="evenodd" fill-opacity="1" /><path clip-path="url(#clip410)" d="M1533.61 58.2358 L1533.61 72.576 L1528.91 72.576 L1528.91 57.3851 Q1528.91 53.6988 1527.45 51.9569 Q1525.99 50.1745 1522.95 50.1745 Q1519.35 50.1745 1517.24 52.362 Q1515.14 54.509 1515.14 58.2358 L1515.14 72.576 L1510.4 72.576 L1510.4 47.1768 L1515.14 47.1768 L1515.14 51.1062 Q1516.71 48.7972 1518.94 47.7034 Q1521.21 46.5692 1524.33 46.5692 Q1527.41 46.5692 1529.6 47.987 Q1531.78 49.3643 1532.84 52.0379 Q1534.58 49.2428 1537.01 47.906 Q1539.48 46.5692 1542.8 46.5692 Q1547.3 46.5692 1549.69 49.3643 Q1552.12 52.1189 1552.12 57.2231 L1552.12 72.576 L1547.42 72.576 L1547.42 57.3851 Q1547.42 53.7393 1545.96 51.9569 Q1544.5 50.1745 1541.51 50.1745 Q1537.86 50.1745 1535.71 52.362 Q1533.61 54.509 1533.61 58.2358 Z" fill="#000000" fill-rule="evenodd" fill-opacity="1" /><path clip-path="url(#clip410)" d="M1586.71 58.8434 L1586.71 60.8689 L1565.12 60.8689 Q1565.45 65.1628 1568.04 67.4314 Q1570.67 69.6999 1575.33 69.6999 Q1578.05 69.6999 1580.6 69.0922 Q1583.11 68.5251 1585.62 67.3503 L1585.62 71.2797 Q1583.11 72.2519 1580.44 72.738 Q1577.8 73.2241 1575.05 73.2241 Q1568.2 73.2241 1564.23 69.6999 Q1560.22 66.1756 1560.22 60.1397 Q1560.22 53.9013 1564.03 50.215 Q1567.8 46.5692 1574.24 46.5692 Q1579.99 46.5692 1583.35 49.8504 Q1586.71 53.1722 1586.71 58.8434 M1582.02 57.5877 Q1581.98 54.1849 1579.87 52.1189 Q1577.76 50.0935 1574.28 50.0935 Q1570.35 50.0935 1568 52.0784 Q1565.65 54.0229 1565.29 57.5877 L1582.02 57.5877 Z" fill="#000000" fill-rule="evenodd" fill-opacity="1" /><path clip-path="url(#clip410)" d="M1609.85 59.8157 Q1604.17 59.8157 1601.99 60.9499 Q1599.76 62.1247 1599.76 64.9198 Q1599.76 67.1478 1601.42 68.4441 Q1603.08 69.7404 1605.92 69.7404 Q1609.8 69.7404 1612.15 67.2693 Q1614.54 64.7983 1614.54 60.7474 L1614.54 59.8157 L1609.85 59.8157 M1619.2 58.0738 L1619.2 72.576 L1614.54 72.576 L1614.54 68.7276 Q1612.92 71.0367 1610.53 72.1304 Q1608.1 73.2241 1604.66 73.2241 Q1600.24 73.2241 1597.65 71.0367 Q1595.06 68.8492 1595.06 65.1628 Q1595.06 60.9094 1598.3 58.7219 Q1601.54 56.5344 1607.94 56.5344 L1614.54 56.5344 L1614.54 56.1293 Q1614.54 53.2532 1612.4 51.6733 Q1610.25 50.0935 1606.4 50.0935 Q1603.97 50.0935 1601.62 50.6201 Q1599.31 51.1467 1597.17 52.2 L1597.17 48.3111 Q1599.76 47.4604 1602.19 47.0148 Q1604.58 46.5692 1606.89 46.5692 Q1613.09 46.5692 1616.16 49.4048 Q1619.2 52.281 1619.2 58.0738 Z" fill="#000000" fill-rule="evenodd" fill-opacity="1" /><path clip-path="url(#clip410)" d="M1653.11 57.2231 L1653.11 72.576 L1648.41 72.576 L1648.41 57.3851 Q1648.41 53.7798 1646.83 51.9974 Q1645.25 50.1745 1642.09 50.1745 Q1638.28 50.1745 1636.1 52.362 Q1633.91 54.509 1633.91 58.2358 L1633.91 72.576 L1629.17 72.576 L1629.17 47.1768 L1633.91 47.1768 L1633.91 51.1062 Q1635.57 48.8377 1637.84 47.7034 Q1640.15 46.5692 1643.14 46.5692 Q1648.05 46.5692 1650.56 49.2833 Q1653.11 51.9974 1653.11 57.2231 Z" fill="#000000" fill-rule="evenodd" fill-opacity="1" /><path clip-path="url(#clip410)" d="M1666.27 34.9026 L1718.21 34.9026 L1718.21 41.7081 L1666.27 41.7081 L1666.27 34.9026 M1666.27 51.4303 L1718.21 51.4303 L1718.21 58.3168 L1666.27 58.3168 L1666.27 51.4303 Z" fill="#000000" fill-rule="evenodd" fill-opacity="1" /><path clip-path="url(#clip410)" d="M1758.35 19.2256 L1737.69 51.5113 L1758.35 51.5113 L1758.35 19.2256 M1756.2 12.096 L1766.49 12.096 L1766.49 51.5113 L1775.12 51.5113 L1775.12 58.3168 L1766.49 58.3168 L1766.49 72.576 L1758.35 72.576 L1758.35 58.3168 L1731.05 58.3168 L1731.05 50.4176 L1756.2 12.096 Z" fill="#000000" fill-rule="evenodd" fill-opacity="1" /><path clip-path="url(#clip410)" d="M1788.65 62.2867 L1797.2 62.2867 L1797.2 72.576 L1788.65 72.576 L1788.65 62.2867 Z" fill="#000000" fill-rule="evenodd" fill-opacity="1" /><path clip-path="url(#clip410)" d="M1832.52 17.4837 Q1826.2 17.4837 1823 23.7221 Q1819.84 29.92 1819.84 42.3968 Q1819.84 54.833 1823 61.0714 Q1826.2 67.2693 1832.52 67.2693 Q1838.88 67.2693 1842.04 61.0714 Q1845.24 54.833 1845.24 42.3968 Q1845.24 29.92 1842.04 23.7221 Q1838.88 17.4837 1832.52 17.4837 M1832.52 11.0023 Q1842.69 11.0023 1848.04 19.0636 Q1853.43 27.0843 1853.43 42.3968 Q1853.43 57.6687 1848.04 65.73 Q1842.69 73.7508 1832.52 73.7508 Q1822.36 73.7508 1816.97 65.73 Q1811.62 57.6687 1811.62 42.3968 Q1811.62 27.0843 1816.97 19.0636 Q1822.36 11.0023 1832.52 11.0023 Z" fill="#000000" fill-rule="evenodd" fill-opacity="1" /><path clip-path="url(#clip410)" d="M1919.58 51.4708 L1917.79 42.1132 Q1915.97 32.5126 1908.76 32.5126 Q1903.33 32.5126 1900.86 36.9686 Q1897.74 42.5588 1897.74 49.9314 Q1897.74 58.8434 1900.78 63.0969 Q1903.86 67.4314 1908.76 67.4314 Q1914.19 67.4314 1917.11 58.8029 L1919.58 51.4708 M1923.75 39.075 L1927.76 27.2059 L1934.4 27.2059 L1926.1 51.7949 L1927.72 60.6663 Q1928.08 62.6513 1929.5 64.3122 Q1931.16 66.2566 1932.46 66.2566 L1936.02 66.2566 L1936.02 72.576 L1931.57 72.576 Q1927.76 72.576 1924.36 69.1732 Q1922.7 67.4719 1922.01 63.9071 Q1920.14 68.4036 1916.34 71.9279 Q1914.55 73.5887 1908.76 73.5887 Q1899.24 73.5887 1894.62 67.4314 Q1889.88 61.0714 1889.88 49.9314 Q1889.88 38.0218 1895.03 32.4315 Q1900.74 26.1931 1908.76 26.1931 Q1921.36 26.1931 1923.75 39.075 Z" fill="#000000" fill-rule="evenodd" fill-opacity="1" /><path clip-path="url(#clip410)" d="M1957.9 59.8157 Q1952.23 59.8157 1950.04 60.9499 Q1947.81 62.1247 1947.81 64.9198 Q1947.81 67.1478 1949.47 68.4441 Q1951.13 69.7404 1953.97 69.7404 Q1957.86 69.7404 1960.21 67.2693 Q1962.6 64.7983 1962.6 60.7474 L1962.6 59.8157 L1957.9 59.8157 M1967.26 58.0738 L1967.26 72.576 L1962.6 72.576 L1962.6 68.7276 Q1960.98 71.0367 1958.59 72.1304 Q1956.16 73.2241 1952.71 73.2241 Q1948.3 73.2241 1945.71 71.0367 Q1943.11 68.8492 1943.11 65.1628 Q1943.11 60.9094 1946.35 58.7219 Q1949.59 56.5344 1955.99 56.5344 L1962.6 56.5344 L1962.6 56.1293 Q1962.6 53.2532 1960.45 51.6733 Q1958.3 50.0935 1954.46 50.0935 Q1952.03 50.0935 1949.68 50.6201 Q1947.37 51.1467 1945.22 52.2 L1945.22 48.3111 Q1947.81 47.4604 1950.24 47.0148 Q1952.63 46.5692 1954.94 46.5692 Q1961.14 46.5692 1964.22 49.4048 Q1967.26 52.281 1967.26 58.0738 Z" fill="#000000" fill-rule="evenodd" fill-opacity="1" /><path clip-path="url(#clip410)" d="M2000.43 58.2358 L2000.43 72.576 L1995.73 72.576 L1995.73 57.3851 Q1995.73 53.6988 1994.28 51.9569 Q1992.82 50.1745 1989.78 50.1745 Q1986.17 50.1745 1984.07 52.362 Q1981.96 54.509 1981.96 58.2358 L1981.96 72.576 L1977.22 72.576 L1977.22 47.1768 L1981.96 47.1768 L1981.96 51.1062 Q1983.54 48.7972 1985.77 47.7034 Q1988.04 46.5692 1991.16 46.5692 Q1994.24 46.5692 1996.42 47.987 Q1998.61 49.3643 1999.66 52.0379 Q2001.41 49.2428 2003.84 47.906 Q2006.31 46.5692 2009.63 46.5692 Q2014.13 46.5692 2016.52 49.3643 Q2018.95 52.1189 2018.95 57.2231 L2018.95 72.576 L2014.25 72.576 L2014.25 57.3851 Q2014.25 53.7393 2012.79 51.9569 Q2011.33 50.1745 2008.33 50.1745 Q2004.69 50.1745 2002.54 52.362 Q2000.43 54.509 2000.43 58.2358 Z" fill="#000000" fill-rule="evenodd" fill-opacity="1" /><path clip-path="url(#clip410)" d="M2033.65 68.7682 L2033.65 82.2577 L2028.91 82.2577 L2028.91 47.1768 L2033.65 47.1768 L2033.65 51.0252 Q2035.11 48.7567 2037.38 47.6629 Q2039.65 46.5692 2042.77 46.5692 Q2047.99 46.5692 2051.23 50.215 Q2054.47 53.9013 2054.47 59.8967 Q2054.47 65.892 2051.23 69.5783 Q2047.99 73.2241 2042.77 73.2241 Q2039.65 73.2241 2037.38 72.1304 Q2035.11 71.0367 2033.65 68.7682 M2047.5 67.1073 Q2049.61 64.5147 2049.61 59.8967 Q2049.61 55.2786 2047.5 52.6861 Q2045.36 50.053 2041.63 50.053 Q2037.9 50.053 2035.76 52.6861 Q2033.65 55.2786 2033.65 59.8967 Q2033.65 64.5147 2035.76 67.1073 Q2037.9 69.7404 2041.63 69.7404 Q2045.36 69.7404 2047.5 67.1073 Z" fill="#000000" fill-rule="evenodd" fill-opacity="1" /><path clip-path="url(#clip410)" d="M2068.49 34.9026 L2120.42 34.9026 L2120.42 41.7081 L2068.49 41.7081 L2068.49 34.9026 M2068.49 51.4303 L2120.42 51.4303 L2120.42 58.3168 L2068.49 58.3168 L2068.49 51.4303 Z" fill="#000000" fill-rule="evenodd" fill-opacity="1" /><path clip-path="url(#clip410)" d="M2160.57 19.2256 L2139.91 51.5113 L2160.57 51.5113 L2160.57 19.2256 M2158.42 12.096 L2168.71 12.096 L2168.71 51.5113 L2177.34 51.5113 L2177.34 58.3168 L2168.71 58.3168 L2168.71 72.576 L2160.57 72.576 L2160.57 58.3168 L2133.26 58.3168 L2133.26 50.4176 L2158.42 12.096 Z" fill="#000000" fill-rule="evenodd" fill-opacity="1" /><path clip-path="url(#clip410)" d="M2190.87 62.2867 L2199.41 62.2867 L2199.41 72.576 L2190.87 72.576 L2190.87 62.2867 Z" fill="#000000" fill-rule="evenodd" fill-opacity="1" /><path clip-path="url(#clip410)" d="M2234.74 17.4837 Q2228.42 17.4837 2225.22 23.7221 Q2222.06 29.92 2222.06 42.3968 Q2222.06 54.833 2225.22 61.0714 Q2228.42 67.2693 2234.74 67.2693 Q2241.1 67.2693 2244.26 61.0714 Q2247.46 54.833 2247.46 42.3968 Q2247.46 29.92 2244.26 23.7221 Q2241.1 17.4837 2234.74 17.4837 M2234.74 11.0023 Q2244.91 11.0023 2250.25 19.0636 Q2255.64 27.0843 2255.64 42.3968 Q2255.64 57.6687 2250.25 65.73 Q2244.91 73.7508 2234.74 73.7508 Q2224.57 73.7508 2219.18 65.73 Q2213.84 57.6687 2213.84 42.3968 Q2213.84 27.0843 2219.18 19.0636 Q2224.57 11.0023 2234.74 11.0023 Z" fill="#000000" fill-rule="evenodd" fill-opacity="1" /><polyline clip-path="url(#clip412)" style="stroke:#009af9; stroke-linecap:butt; stroke-linejoin:round; stroke-width:4; stroke-opacity:1; fill:none" points="
  315.32,999.397 321.936,1267 328.551,897.116 335.167,537.311 341.783,412.868 348.398,631.371 355.014,904.268 361.63,1044.65 368.246,1058.6 374.861,1128.94 
  381.477,1322.12 388.093,1250.22 394.708,917.554 401.324,578.214 407.94,482.676 414.555,689.243 421.171,941.809 427.787,1053.38 434.403,1068.83 441.018,1135.38 
  447.634,1315.82 454.25,1244.02 460.865,932.708 467.481,592.126 474.097,510.098 480.712,733.126 487.328,957.148 493.944,1060.15 500.559,1078.75 507.175,1145.67 
  513.791,1305.45 520.407,1223.48 527.022,945.044 533.638,588.149 540.254,508.45 546.869,762.038 553.485,967.353 560.101,1065.99 566.716,1085.13 573.332,1147.28 
  579.948,1315.39 586.564,1205.65 593.179,942.458 599.795,562.598 606.411,505.849 613.026,770.808 619.642,979.017 626.258,1067.74 632.873,1090.42 639.489,1174.96 
  646.105,1332.7 652.72,1237.21 659.336,969.98 665.952,606.343 672.568,483.184 679.183,747.997 685.799,996.595 692.415,1069.45 699.03,1097.93 705.646,1183.95 
  712.262,1336.57 718.877,1195.15 725.493,890.823 732.109,600.037 738.725,538.077 745.34,771.586 751.956,997.17 758.572,1072.52 765.187,1102.73 771.803,1191.97 
  778.419,1338.56 785.034,1195.93 791.65,891.994 798.266,585.754 804.881,533.324 811.497,754.295 818.113,1003.19 824.729,1076.11 831.344,1107.43 837.96,1191.08 
  844.576,1356.91 851.191,1201.39 857.807,880.813 864.423,603.379 871.038,545.635 877.654,763.351 884.27,1013.95 890.886,1072.01 897.501,1109.2 904.117,1203.59 
  910.733,1386.4 917.348,1206.29 923.964,883.35 930.58,595.157 937.195,572.229 943.811,772.958 950.427,1024.59 957.042,1070.05 963.658,1111.84 970.274,1232.01 
  976.89,1362.13 983.505,1215.36 990.121,861.53 996.737,580.712 1003.35,600.072 1009.97,783.144 1016.58,1033.2 1023.2,1069.46 1029.82,1115.32 1036.43,1222.16 
  1043.05,1338.75 1049.66,1224.99 1056.28,856.982 1062.89,615.563 1069.51,597.445 1076.13,806.74 1082.74,1042.51 1089.36,1068.14 1095.97,1118.84 1102.59,1203.37 
  1109.2,1320.2 1115.82,1210.79 1122.43,855.253 1129.05,603.615 1135.67,600.787 1142.28,815.873 1148.9,1047.02 1155.51,1070.13 1162.13,1124.14 1168.74,1194.77 
  1175.36,1295.79 1181.98,1212.24 1188.59,843.645 1195.21,650.348 1201.82,596.504 1208.44,814.37 1215.05,1051.49 1221.67,1075.71 1228.29,1130.33 1234.9,1190.65 
  1241.52,1281.41 1248.13,1227.92 1254.75,823.324 1261.36,625.63 1267.98,588.397 1274.6,801.456 1281.21,1048.1 1287.83,1082.53 1294.44,1133.5 1301.06,1183.45 
  1307.67,1264.28 1314.29,1140.77 1320.91,815.855 1327.52,690.052 1334.14,573.697 1340.75,786.474 1347.37,1073.32 1353.98,1090.88 1360.6,1107.08 1367.22,1189.81 
  1373.83,1238.23 1380.45,1155.28 1387.06,796.683 1393.68,662.438 1400.29,559.086 1406.91,769.125 1413.53,1080.4 1420.14,1100.65 1426.76,1126.16 1433.37,1175.66 
  1439.99,1203.31 1446.6,1068.53 1453.22,773.12 1459.84,634.588 1466.45,556.34 1473.07,754.192 1479.68,1085.17 1486.3,1108.69 1492.91,1125.19 1499.53,1159.64 
  1506.15,1173.89 1512.76,1070.87 1519.38,755.008 1525.99,604.724 1532.61,566.311 1539.22,754.65 1545.84,1088.36 1552.46,1117.94 1559.07,1118.68 1565.69,1111.24 
  1572.3,1161.01 1578.92,1070.79 1585.53,730.734 1592.15,566.761 1598.77,584.971 1605.38,778.228 1612,1092.06 1618.61,1125.39 1625.23,1106.2 1631.84,1042.01 
  1638.46,1068.88 1645.07,995.96 1651.69,716.394 1658.31,522.638 1664.92,617.748 1671.54,735.106 1678.15,1095.36 1684.77,1131.6 1691.38,1094.38 1698,991.947 
  1704.62,1081.52 1711.23,981.506 1717.85,687.021 1724.46,473.086 1731.08,572.472 1737.69,692.813 1744.31,1098.15 1750.93,1138.23 1757.54,1082.14 1764.16,970.336 
  1770.77,1020.85 1777.39,916.827 1784,666.905 1790.62,412.41 1797.24,527.634 1803.85,661.775 1810.47,1103.77 1817.08,1144.87 1823.7,1070.16 1830.31,969.106 
  1836.93,961.999 1843.55,908.12 1850.16,645.086 1856.78,366.078 1863.39,474.964 1870.01,635.511 1876.62,1108.86 1883.24,1150.46 1889.86,1054.01 1896.47,956.2 
  1903.09,936.767 1909.7,903.365 1916.32,626.987 1922.93,288.903 1929.55,426.389 1936.17,618.043 1942.78,1112.93 1949.4,1153.43 1956.01,1040.25 1962.63,961.813 
  1969.24,927.387 1975.86,863.069 1982.48,604.145 1989.09,252.502 1995.71,363.699 2002.32,599.146 2008.94,1120.17 2015.55,1159.33 2022.17,1011.25 2028.79,947.425 
  2035.4,904.16 2042.02,833.504 2048.63,575.431 2055.25,254.647 2061.86,307.469 2068.48,596.52 2075.1,1126.61 2081.71,1161.1 2088.33,980.792 2094.94,941.062 
  2101.56,897.538 2108.17,825.726 2114.79,553.104 2121.41,160.256 2128.02,245.92 2134.64,593.463 2141.25,1135.23 2147.87,1164.93 2154.48,932.611 2161.1,903.936 
  2167.71,881.182 2174.33,811.204 2180.95,527.492 2187.56,198.04 2194.18,221.525 2200.79,600.246 2207.41,1143.86 2214.02,1166.07 2220.64,750.286 2227.26,826.081 
  2233.87,892.358 2240.49,800.603 2247.1,507.813 2253.72,275.76 2260.33,167.81 2266.95,596.054 2273.57,1154.58 2280.18,1168.24 2286.8,773.832 2293.41,797.176 
  
  "/>
</svg>
