<?xml version="1.0" encoding="utf-8"?>
<svg xmlns="http://www.w3.org/2000/svg" xmlns:xlink="http://www.w3.org/1999/xlink" width="600" height="400" viewBox="0 0 2400 1600">
<defs>
  <clipPath id="clip290">
    <rect x="0" y="0" width="2400" height="1600"/>
  </clipPath>
</defs>
<path clip-path="url(#clip290)" d="
M0 1600 L2400 1600 L2400 0 L0 0  Z
  " fill="#ffffff" fill-rule="evenodd" fill-opacity="1"/>
<defs>
  <clipPath id="clip291">
    <rect x="480" y="0" width="1681" height="1600"/>
  </clipPath>
</defs>
<path clip-path="url(#clip290)" d="
M211.325 1423.18 L2352.76 1423.18 L2352.76 123.472 L211.325 123.472  Z
  " fill="#ffffff" fill-rule="evenodd" fill-opacity="1"/>
<defs>
  <clipPath id="clip292">
    <rect x="211" y="123" width="2142" height="1301"/>
  </clipPath>
</defs>
<polyline clip-path="url(#clip292)" style="stroke:#000000; stroke-linecap:butt; stroke-linejoin:round; stroke-width:2; stroke-opacity:0.1; fill:none" points="
  271.917,1423.18 271.917,123.472 
  "/>
<polyline clip-path="url(#clip292)" style="stroke:#000000; stroke-linecap:butt; stroke-linejoin:round; stroke-width:2; stroke-opacity:0.1; fill:none" points="
  776.979,1423.18 776.979,123.472 
  "/>
<polyline clip-path="url(#clip292)" style="stroke:#000000; stroke-linecap:butt; stroke-linejoin:round; stroke-width:2; stroke-opacity:0.1; fill:none" points="
  1282.04,1423.18 1282.04,123.472 
  "/>
<polyline clip-path="url(#clip292)" style="stroke:#000000; stroke-linecap:butt; stroke-linejoin:round; stroke-width:2; stroke-opacity:0.1; fill:none" points="
  1787.1,1423.18 1787.1,123.472 
  "/>
<polyline clip-path="url(#clip292)" style="stroke:#000000; stroke-linecap:butt; stroke-linejoin:round; stroke-width:2; stroke-opacity:0.1; fill:none" points="
  2292.16,1423.18 2292.16,123.472 
  "/>
<polyline clip-path="url(#clip290)" style="stroke:#000000; stroke-linecap:butt; stroke-linejoin:round; stroke-width:4; stroke-opacity:1; fill:none" points="
  211.325,1423.18 2352.76,1423.18 
  "/>
<polyline clip-path="url(#clip290)" style="stroke:#000000; stroke-linecap:butt; stroke-linejoin:round; stroke-width:4; stroke-opacity:1; fill:none" points="
  271.917,1423.18 271.917,1404.28 
  "/>
<polyline clip-path="url(#clip290)" style="stroke:#000000; stroke-linecap:butt; stroke-linejoin:round; stroke-width:4; stroke-opacity:1; fill:none" points="
  776.979,1423.18 776.979,1404.28 
  "/>
<polyline clip-path="url(#clip290)" style="stroke:#000000; stroke-linecap:butt; stroke-linejoin:round; stroke-width:4; stroke-opacity:1; fill:none" points="
  1282.04,1423.18 1282.04,1404.28 
  "/>
<polyline clip-path="url(#clip290)" style="stroke:#000000; stroke-linecap:butt; stroke-linejoin:round; stroke-width:4; stroke-opacity:1; fill:none" points="
  1787.1,1423.18 1787.1,1404.28 
  "/>
<polyline clip-path="url(#clip290)" style="stroke:#000000; stroke-linecap:butt; stroke-linejoin:round; stroke-width:4; stroke-opacity:1; fill:none" points="
  2292.16,1423.18 2292.16,1404.28 
  "/>
<path clip-path="url(#clip290)" d="M271.917 1454.1 Q268.306 1454.1 266.477 1457.66 Q264.672 1461.2 264.672 1468.33 Q264.672 1475.44 266.477 1479.01 Q268.306 1482.55 271.917 1482.55 Q275.551 1482.55 277.357 1479.01 Q279.186 1475.44 279.186 1468.33 Q279.186 1461.2 277.357 1457.66 Q275.551 1454.1 271.917 1454.1 M271.917 1450.39 Q277.727 1450.39 280.783 1455 Q283.862 1459.58 283.862 1468.33 Q283.862 1477.06 280.783 1481.67 Q277.727 1486.25 271.917 1486.25 Q266.107 1486.25 263.028 1481.67 Q259.973 1477.06 259.973 1468.33 Q259.973 1459.58 263.028 1455 Q266.107 1450.39 271.917 1450.39 Z" fill="#000000" fill-rule="evenodd" fill-opacity="1" /><path clip-path="url(#clip290)" d="M771.632 1481.64 L787.951 1481.64 L787.951 1485.58 L766.007 1485.58 L766.007 1481.64 Q768.669 1478.89 773.252 1474.26 Q777.858 1469.61 779.039 1468.27 Q781.284 1465.74 782.164 1464.01 Q783.067 1462.25 783.067 1460.56 Q783.067 1457.8 781.122 1456.07 Q779.201 1454.33 776.099 1454.33 Q773.9 1454.33 771.446 1455.09 Q769.016 1455.86 766.238 1457.41 L766.238 1452.69 Q769.062 1451.55 771.516 1450.97 Q773.97 1450.39 776.007 1450.39 Q781.377 1450.39 784.571 1453.08 Q787.766 1455.77 787.766 1460.26 Q787.766 1462.39 786.956 1464.31 Q786.169 1466.2 784.062 1468.8 Q783.483 1469.47 780.382 1472.69 Q777.28 1475.88 771.632 1481.64 Z" fill="#000000" fill-rule="evenodd" fill-opacity="1" /><path clip-path="url(#clip290)" d="M1285.05 1455.09 L1273.24 1473.54 L1285.05 1473.54 L1285.05 1455.09 M1283.82 1451.02 L1289.7 1451.02 L1289.7 1473.54 L1294.63 1473.54 L1294.63 1477.43 L1289.7 1477.43 L1289.7 1485.58 L1285.05 1485.58 L1285.05 1477.43 L1269.45 1477.43 L1269.45 1472.92 L1283.82 1451.02 Z" fill="#000000" fill-rule="evenodd" fill-opacity="1" /><path clip-path="url(#clip290)" d="M1787.51 1466.44 Q1784.36 1466.44 1782.51 1468.59 Q1780.68 1470.74 1780.68 1474.49 Q1780.68 1478.22 1782.51 1480.39 Q1784.36 1482.55 1787.51 1482.55 Q1790.66 1482.55 1792.48 1480.39 Q1794.34 1478.22 1794.34 1474.49 Q1794.34 1470.74 1792.48 1468.59 Q1790.66 1466.44 1787.51 1466.44 M1796.79 1451.78 L1796.79 1456.04 Q1795.03 1455.21 1793.22 1454.77 Q1791.44 1454.33 1789.68 1454.33 Q1785.05 1454.33 1782.6 1457.45 Q1780.17 1460.58 1779.82 1466.9 Q1781.19 1464.89 1783.25 1463.82 Q1785.31 1462.73 1787.78 1462.73 Q1792.99 1462.73 1796 1465.9 Q1799.03 1469.05 1799.03 1474.49 Q1799.03 1479.82 1795.89 1483.03 Q1792.74 1486.25 1787.51 1486.25 Q1781.51 1486.25 1778.34 1481.67 Q1775.17 1477.06 1775.17 1468.33 Q1775.17 1460.14 1779.06 1455.28 Q1782.95 1450.39 1789.5 1450.39 Q1791.26 1450.39 1793.04 1450.74 Q1794.84 1451.09 1796.79 1451.78 Z" fill="#000000" fill-rule="evenodd" fill-opacity="1" /><path clip-path="url(#clip290)" d="M2292.16 1469.17 Q2288.83 1469.17 2286.91 1470.95 Q2285.01 1472.73 2285.01 1475.86 Q2285.01 1478.98 2286.91 1480.77 Q2288.83 1482.55 2292.16 1482.55 Q2295.5 1482.55 2297.42 1480.77 Q2299.34 1478.96 2299.34 1475.86 Q2299.34 1472.73 2297.42 1470.95 Q2295.52 1469.17 2292.16 1469.17 M2287.49 1467.18 Q2284.48 1466.44 2282.79 1464.38 Q2281.12 1462.32 2281.12 1459.35 Q2281.12 1455.21 2284.06 1452.8 Q2287.02 1450.39 2292.16 1450.39 Q2297.33 1450.39 2300.27 1452.8 Q2303.2 1455.21 2303.2 1459.35 Q2303.2 1462.32 2301.52 1464.38 Q2299.85 1466.44 2296.86 1467.18 Q2300.24 1467.96 2302.12 1470.26 Q2304.02 1472.55 2304.02 1475.86 Q2304.02 1480.88 2300.94 1483.57 Q2297.88 1486.25 2292.16 1486.25 Q2286.45 1486.25 2283.37 1483.57 Q2280.31 1480.88 2280.31 1475.86 Q2280.31 1472.55 2282.21 1470.26 Q2284.11 1467.96 2287.49 1467.18 M2285.77 1459.79 Q2285.77 1462.48 2287.44 1463.98 Q2289.13 1465.49 2292.16 1465.49 Q2295.17 1465.49 2296.86 1463.98 Q2298.58 1462.48 2298.58 1459.79 Q2298.58 1457.11 2296.86 1455.6 Q2295.17 1454.1 2292.16 1454.1 Q2289.13 1454.1 2287.44 1455.6 Q2285.77 1457.11 2285.77 1459.79 Z" fill="#000000" fill-rule="evenodd" fill-opacity="1" /><path clip-path="url(#clip290)" d="M1162.79 1550.12 Q1155.7 1550.12 1152.96 1551.75 Q1150.22 1553.37 1150.22 1557.29 Q1150.22 1560.4 1152.26 1562.25 Q1154.33 1564.07 1157.86 1564.07 Q1162.73 1564.07 1165.66 1560.63 Q1168.62 1557.16 1168.62 1551.43 L1168.62 1550.12 L1162.79 1550.12 M1174.48 1547.71 L1174.48 1568.04 L1168.62 1568.04 L1168.62 1562.63 Q1166.61 1565.88 1163.62 1567.44 Q1160.63 1568.97 1156.3 1568.97 Q1150.83 1568.97 1147.58 1565.91 Q1144.37 1562.82 1144.37 1557.67 Q1144.37 1551.65 1148.38 1548.6 Q1152.42 1545.54 1160.41 1545.54 L1168.62 1545.54 L1168.62 1544.97 Q1168.62 1540.93 1165.95 1538.73 Q1163.3 1536.5 1158.5 1536.5 Q1155.44 1536.5 1152.55 1537.23 Q1149.65 1537.97 1146.98 1539.43 L1146.98 1534.02 Q1150.19 1532.78 1153.21 1532.17 Q1156.24 1531.54 1159.1 1531.54 Q1166.84 1531.54 1170.66 1535.55 Q1174.48 1539.56 1174.48 1547.71 Z" fill="#000000" fill-rule="evenodd" fill-opacity="1" /><path clip-path="url(#clip290)" d="M1186.54 1518.52 L1192.4 1518.52 L1192.4 1568.04 L1186.54 1568.04 L1186.54 1518.52 Z" fill="#000000" fill-rule="evenodd" fill-opacity="1" /><path clip-path="url(#clip290)" d="M1210.31 1562.7 L1210.31 1581.6 L1204.43 1581.6 L1204.43 1532.4 L1210.31 1532.4 L1210.31 1537.81 Q1212.16 1534.62 1214.96 1533.1 Q1217.79 1531.54 1221.71 1531.54 Q1228.2 1531.54 1232.24 1536.69 Q1236.32 1541.85 1236.32 1550.25 Q1236.32 1558.65 1232.24 1563.81 Q1228.2 1568.97 1221.71 1568.97 Q1217.79 1568.97 1214.96 1567.44 Q1212.16 1565.88 1210.31 1562.7 M1230.24 1550.25 Q1230.24 1543.79 1227.57 1540.13 Q1224.92 1536.44 1220.28 1536.44 Q1215.63 1536.44 1212.96 1540.13 Q1210.31 1543.79 1210.31 1550.25 Q1210.31 1556.71 1212.96 1560.4 Q1215.63 1564.07 1220.28 1564.07 Q1224.92 1564.07 1227.57 1560.4 Q1230.24 1556.71 1230.24 1550.25 Z" fill="#000000" fill-rule="evenodd" fill-opacity="1" /><path clip-path="url(#clip290)" d="M1275.66 1546.53 L1275.66 1568.04 L1269.8 1568.04 L1269.8 1546.72 Q1269.8 1541.66 1267.83 1539.14 Q1265.86 1536.63 1261.91 1536.63 Q1257.17 1536.63 1254.43 1539.65 Q1251.69 1542.68 1251.69 1547.9 L1251.69 1568.04 L1245.8 1568.04 L1245.8 1518.52 L1251.69 1518.52 L1251.69 1537.93 Q1253.79 1534.72 1256.63 1533.13 Q1259.49 1531.54 1263.21 1531.54 Q1269.36 1531.54 1272.51 1535.36 Q1275.66 1539.14 1275.66 1546.53 Z" fill="#000000" fill-rule="evenodd" fill-opacity="1" /><path clip-path="url(#clip290)" d="M1303.54 1550.12 Q1296.44 1550.12 1293.71 1551.75 Q1290.97 1553.37 1290.97 1557.29 Q1290.97 1560.4 1293.01 1562.25 Q1295.07 1564.07 1298.61 1564.07 Q1303.48 1564.07 1306.41 1560.63 Q1309.37 1557.16 1309.37 1551.43 L1309.37 1550.12 L1303.54 1550.12 M1315.22 1547.71 L1315.22 1568.04 L1309.37 1568.04 L1309.37 1562.63 Q1307.36 1565.88 1304.37 1567.44 Q1301.38 1568.97 1297.05 1568.97 Q1291.57 1568.97 1288.33 1565.91 Q1285.11 1562.82 1285.11 1557.67 Q1285.11 1551.65 1289.12 1548.6 Q1293.16 1545.54 1301.15 1545.54 L1309.37 1545.54 L1309.37 1544.97 Q1309.37 1540.93 1306.69 1538.73 Q1304.05 1536.5 1299.24 1536.5 Q1296.19 1536.5 1293.29 1537.23 Q1290.4 1537.97 1287.72 1539.43 L1287.72 1534.02 Q1290.94 1532.78 1293.96 1532.17 Q1296.98 1531.54 1299.85 1531.54 Q1307.58 1531.54 1311.4 1535.55 Q1315.22 1539.56 1315.22 1547.71 Z" fill="#000000" fill-rule="evenodd" fill-opacity="1" /><path clip-path="url(#clip290)" d="M1347.46 1518.52 L1360.96 1518.52 L1360.96 1523.07 L1353.32 1523.07 L1353.32 1572.09 L1360.96 1572.09 L1360.96 1576.64 L1347.46 1576.64 L1347.46 1518.52 Z" fill="#000000" fill-rule="evenodd" fill-opacity="1" /><path clip-path="url(#clip290)" d="M1383.59 1523.77 Q1381.04 1523.77 1379.29 1525.55 Q1377.54 1527.3 1377.54 1529.85 Q1377.54 1532.36 1379.29 1534.11 Q1381.04 1535.83 1383.59 1535.83 Q1386.14 1535.83 1387.89 1534.11 Q1389.64 1532.36 1389.64 1529.85 Q1389.64 1527.34 1387.85 1525.55 Q1386.1 1523.77 1383.59 1523.77 M1383.59 1519.66 Q1385.63 1519.66 1387.5 1520.46 Q1389.38 1521.22 1390.75 1522.69 Q1392.21 1524.12 1392.95 1525.93 Q1393.68 1527.75 1393.68 1529.85 Q1393.68 1534.05 1390.72 1536.98 Q1387.79 1539.88 1383.53 1539.88 Q1379.23 1539.88 1376.36 1537.01 Q1373.5 1534.15 1373.5 1529.85 Q1373.5 1525.58 1376.43 1522.62 Q1379.36 1519.66 1383.59 1519.66 Z" fill="#000000" fill-rule="evenodd" fill-opacity="1" /><path clip-path="url(#clip290)" d="M1419.71 1518.52 L1419.71 1576.64 L1406.22 1576.64 L1406.22 1572.09 L1413.83 1572.09 L1413.83 1523.07 L1406.22 1523.07 L1406.22 1518.52 L1419.71 1518.52 Z" fill="#000000" fill-rule="evenodd" fill-opacity="1" /><polyline clip-path="url(#clip292)" style="stroke:#000000; stroke-linecap:butt; stroke-linejoin:round; stroke-width:2; stroke-opacity:0.1; fill:none" points="
  211.325,1423.18 2352.76,1423.18 
  "/>
<polyline clip-path="url(#clip292)" style="stroke:#000000; stroke-linecap:butt; stroke-linejoin:round; stroke-width:2; stroke-opacity:0.1; fill:none" points="
  211.325,1098.25 2352.76,1098.25 
  "/>
<polyline clip-path="url(#clip292)" style="stroke:#000000; stroke-linecap:butt; stroke-linejoin:round; stroke-width:2; stroke-opacity:0.1; fill:none" points="
  211.325,773.326 2352.76,773.326 
  "/>
<polyline clip-path="url(#clip292)" style="stroke:#000000; stroke-linecap:butt; stroke-linejoin:round; stroke-width:2; stroke-opacity:0.1; fill:none" points="
  211.325,448.399 2352.76,448.399 
  "/>
<polyline clip-path="url(#clip292)" style="stroke:#000000; stroke-linecap:butt; stroke-linejoin:round; stroke-width:2; stroke-opacity:0.1; fill:none" points="
  211.325,123.472 2352.76,123.472 
  "/>
<polyline clip-path="url(#clip290)" style="stroke:#000000; stroke-linecap:butt; stroke-linejoin:round; stroke-width:4; stroke-opacity:1; fill:none" points="
  211.325,1423.18 211.325,123.472 
  "/>
<polyline clip-path="url(#clip290)" style="stroke:#000000; stroke-linecap:butt; stroke-linejoin:round; stroke-width:4; stroke-opacity:1; fill:none" points="
  211.325,1423.18 230.222,1423.18 
  "/>
<polyline clip-path="url(#clip290)" style="stroke:#000000; stroke-linecap:butt; stroke-linejoin:round; stroke-width:4; stroke-opacity:1; fill:none" points="
  211.325,1098.25 230.222,1098.25 
  "/>
<polyline clip-path="url(#clip290)" style="stroke:#000000; stroke-linecap:butt; stroke-linejoin:round; stroke-width:4; stroke-opacity:1; fill:none" points="
  211.325,773.326 230.222,773.326 
  "/>
<polyline clip-path="url(#clip290)" style="stroke:#000000; stroke-linecap:butt; stroke-linejoin:round; stroke-width:4; stroke-opacity:1; fill:none" points="
  211.325,448.399 230.222,448.399 
  "/>
<polyline clip-path="url(#clip290)" style="stroke:#000000; stroke-linecap:butt; stroke-linejoin:round; stroke-width:4; stroke-opacity:1; fill:none" points="
  211.325,123.472 230.222,123.472 
  "/>
<path clip-path="url(#clip290)" d="M114.26 1423.63 L143.936 1423.63 L143.936 1427.57 L114.26 1427.57 L114.26 1423.63 Z" fill="#000000" fill-rule="evenodd" fill-opacity="1" /><path clip-path="url(#clip290)" d="M168.195 1421.83 Q171.552 1422.54 173.427 1424.81 Q175.325 1427.08 175.325 1430.41 Q175.325 1435.53 171.806 1438.33 Q168.288 1441.13 161.806 1441.13 Q159.63 1441.13 157.315 1440.69 Q155.024 1440.27 152.57 1439.42 L152.57 1434.9 Q154.515 1436.04 156.829 1436.62 Q159.144 1437.2 161.667 1437.2 Q166.065 1437.2 168.357 1435.46 Q170.672 1433.72 170.672 1430.41 Q170.672 1427.36 168.519 1425.65 Q166.39 1423.91 162.57 1423.91 L158.542 1423.91 L158.542 1420.07 L162.755 1420.07 Q166.204 1420.07 168.033 1418.7 Q169.862 1417.31 169.862 1414.72 Q169.862 1412.06 167.964 1410.65 Q166.089 1409.21 162.57 1409.21 Q160.649 1409.21 158.45 1409.63 Q156.251 1410.04 153.612 1410.92 L153.612 1406.76 Q156.274 1406.02 158.589 1405.65 Q160.927 1405.27 162.987 1405.27 Q168.311 1405.27 171.413 1407.71 Q174.514 1410.11 174.514 1414.23 Q174.514 1417.1 172.871 1419.09 Q171.227 1421.06 168.195 1421.83 Z" fill="#000000" fill-rule="evenodd" fill-opacity="1" /><path clip-path="url(#clip290)" d="M115.209 1098.7 L144.885 1098.7 L144.885 1102.64 L115.209 1102.64 L115.209 1098.7 Z" fill="#000000" fill-rule="evenodd" fill-opacity="1" /><path clip-path="url(#clip290)" d="M159.005 1111.6 L175.325 1111.6 L175.325 1115.53 L153.38 1115.53 L153.38 1111.6 Q156.042 1108.84 160.626 1104.21 Q165.232 1099.56 166.413 1098.22 Q168.658 1095.7 169.538 1093.96 Q170.44 1092.2 170.44 1090.51 Q170.44 1087.76 168.496 1086.02 Q166.575 1084.28 163.473 1084.28 Q161.274 1084.28 158.82 1085.05 Q156.39 1085.81 153.612 1087.36 L153.612 1082.64 Q156.436 1081.51 158.89 1080.93 Q161.343 1080.35 163.38 1080.35 Q168.751 1080.35 171.945 1083.03 Q175.139 1085.72 175.139 1090.21 Q175.139 1092.34 174.329 1094.26 Q173.542 1096.16 171.436 1098.75 Q170.857 1099.42 167.755 1102.64 Q164.653 1105.83 159.005 1111.6 Z" fill="#000000" fill-rule="evenodd" fill-opacity="1" /><path clip-path="url(#clip290)" d="M114.839 773.777 L144.515 773.777 L144.515 777.713 L114.839 777.713 L114.839 773.777 Z" fill="#000000" fill-rule="evenodd" fill-opacity="1" /><path clip-path="url(#clip290)" d="M155.417 786.671 L163.056 786.671 L163.056 760.305 L154.746 761.972 L154.746 757.713 L163.01 756.046 L167.686 756.046 L167.686 786.671 L175.325 786.671 L175.325 790.606 L155.417 790.606 L155.417 786.671 Z" fill="#000000" fill-rule="evenodd" fill-opacity="1" /><path clip-path="url(#clip290)" d="M163.38 434.198 Q159.769 434.198 157.94 437.763 Q156.135 441.304 156.135 448.434 Q156.135 455.54 157.94 459.105 Q159.769 462.647 163.38 462.647 Q167.015 462.647 168.82 459.105 Q170.649 455.54 170.649 448.434 Q170.649 441.304 168.82 437.763 Q167.015 434.198 163.38 434.198 M163.38 430.494 Q169.19 430.494 172.246 435.101 Q175.325 439.684 175.325 448.434 Q175.325 457.161 172.246 461.767 Q169.19 466.35 163.38 466.35 Q157.57 466.35 154.491 461.767 Q151.436 457.161 151.436 448.434 Q151.436 439.684 154.491 435.101 Q157.57 430.494 163.38 430.494 Z" fill="#000000" fill-rule="evenodd" fill-opacity="1" /><path clip-path="url(#clip290)" d="M155.417 136.817 L163.056 136.817 L163.056 110.451 L154.746 112.118 L154.746 107.859 L163.01 106.192 L167.686 106.192 L167.686 136.817 L175.325 136.817 L175.325 140.752 L155.417 140.752 L155.417 136.817 Z" fill="#000000" fill-rule="evenodd" fill-opacity="1" /><path clip-path="url(#clip290)" d="M20.1444 761.931 L26.9239 761.931 Q23.9002 765.178 22.4043 768.87 Q20.9083 772.53 20.9083 776.668 Q20.9083 784.816 25.9054 789.145 Q30.8707 793.473 40.2919 793.473 Q49.6813 793.473 54.6784 789.145 Q59.6436 784.816 59.6436 776.668 Q59.6436 772.53 58.1477 768.87 Q56.6518 765.178 53.6281 761.931 L60.3439 761.931 Q62.6355 765.305 63.7814 769.093 Q64.9272 772.849 64.9272 777.05 Q64.9272 787.84 58.3387 794.046 Q51.7183 800.253 40.2919 800.253 Q28.8336 800.253 22.2451 794.046 Q15.6248 787.84 15.6248 777.05 Q15.6248 772.785 16.7706 769.029 Q17.8846 765.242 20.1444 761.931 Z" fill="#000000" fill-rule="evenodd" fill-opacity="1" /><path clip-path="url(#clip290)" d="M14.479 752.255 L14.479 746.399 L64.0042 746.399 L64.0042 752.255 L14.479 752.255 Z" fill="#000000" fill-rule="evenodd" fill-opacity="1" /><path clip-path="url(#clip290)" d="M359.447 44.2197 Q362.08 45.1109 364.551 48.0275 Q367.063 50.9442 369.574 56.0483 L377.878 72.576 L369.088 72.576 L361.351 57.061 Q358.353 50.9847 355.517 48.9997 Q352.722 47.0148 347.861 47.0148 L338.949 47.0148 L338.949 72.576 L330.766 72.576 L330.766 12.096 L349.239 12.096 Q359.609 12.096 364.713 16.4305 Q369.817 20.7649 369.817 29.5149 Q369.817 35.2267 367.144 38.994 Q364.51 42.7613 359.447 44.2197 M338.949 18.8205 L338.949 40.2903 L349.239 40.2903 Q355.153 40.2903 358.151 37.5762 Q361.189 34.8216 361.189 29.5149 Q361.189 24.2082 358.151 21.5346 Q355.153 18.8205 349.239 18.8205 L338.949 18.8205 Z" fill="#000000" fill-rule="evenodd" fill-opacity="1" /><path clip-path="url(#clip290)" d="M423.168 48.0275 L423.168 51.6733 L388.897 51.6733 Q389.383 59.3701 393.515 63.421 Q397.687 67.4314 405.101 67.4314 Q409.394 67.4314 413.405 66.3781 Q417.456 65.3249 421.426 63.2184 L421.426 70.267 Q417.415 71.9684 413.202 72.8596 Q408.989 73.7508 404.655 73.7508 Q393.799 73.7508 387.439 67.4314 Q381.119 61.1119 381.119 50.3365 Q381.119 39.1965 387.115 32.6746 Q393.15 26.1121 403.359 26.1121 Q412.514 26.1121 417.82 32.0264 Q423.168 37.9003 423.168 48.0275 M415.714 45.84 Q415.633 39.7232 412.271 36.0774 Q408.949 32.4315 403.44 32.4315 Q397.201 32.4315 393.434 35.9558 Q389.707 39.4801 389.14 45.8805 L415.714 45.84 Z" fill="#000000" fill-rule="evenodd" fill-opacity="1" /><path clip-path="url(#clip290)" d="M436.374 34.9026 L488.306 34.9026 L488.306 41.7081 L436.374 41.7081 L436.374 34.9026 M436.374 51.4303 L488.306 51.4303 L488.306 58.3168 L436.374 58.3168 L436.374 51.4303 Z" fill="#000000" fill-rule="evenodd" fill-opacity="1" /><path clip-path="url(#clip290)" d="M507.386 65.6895 L520.754 65.6895 L520.754 19.5497 L506.211 22.4663 L506.211 15.0127 L520.673 12.096 L528.856 12.096 L528.856 65.6895 L542.224 65.6895 L542.224 72.576 L507.386 72.576 L507.386 65.6895 Z" fill="#000000" fill-rule="evenodd" fill-opacity="1" /><path clip-path="url(#clip290)" d="M576.251 17.4837 Q569.932 17.4837 566.732 23.7221 Q563.572 29.92 563.572 42.3968 Q563.572 54.833 566.732 61.0714 Q569.932 67.2693 576.251 67.2693 Q582.611 67.2693 585.771 61.0714 Q588.971 54.833 588.971 42.3968 Q588.971 29.92 585.771 23.7221 Q582.611 17.4837 576.251 17.4837 M576.251 11.0023 Q586.419 11.0023 591.766 19.0636 Q597.154 27.0843 597.154 42.3968 Q597.154 57.6687 591.766 65.73 Q586.419 73.7508 576.251 73.7508 Q566.083 73.7508 560.696 65.73 Q555.349 57.6687 555.349 42.3968 Q555.349 27.0843 560.696 19.0636 Q566.083 11.0023 576.251 11.0023 Z" fill="#000000" fill-rule="evenodd" fill-opacity="1" /><path clip-path="url(#clip290)" d="M629.035 17.4837 Q622.715 17.4837 619.515 23.7221 Q616.355 29.92 616.355 42.3968 Q616.355 54.833 619.515 61.0714 Q622.715 67.2693 629.035 67.2693 Q635.394 67.2693 638.554 61.0714 Q641.754 54.833 641.754 42.3968 Q641.754 29.92 638.554 23.7221 Q635.394 17.4837 629.035 17.4837 M629.035 11.0023 Q639.202 11.0023 644.549 19.0636 Q649.937 27.0843 649.937 42.3968 Q649.937 57.6687 644.549 65.73 Q639.202 73.7508 629.035 73.7508 Q618.867 73.7508 613.479 65.73 Q608.132 57.6687 608.132 42.3968 Q608.132 27.0843 613.479 19.0636 Q618.867 11.0023 629.035 11.0023 Z" fill="#000000" fill-rule="evenodd" fill-opacity="1" /><path clip-path="url(#clip290)" d="M681.818 17.4837 Q675.498 17.4837 672.298 23.7221 Q669.138 29.92 669.138 42.3968 Q669.138 54.833 672.298 61.0714 Q675.498 67.2693 681.818 67.2693 Q688.178 67.2693 691.337 61.0714 Q694.538 54.833 694.538 42.3968 Q694.538 29.92 691.337 23.7221 Q688.178 17.4837 681.818 17.4837 M681.818 11.0023 Q691.986 11.0023 697.333 19.0636 Q702.72 27.0843 702.72 42.3968 Q702.72 57.6687 697.333 65.73 Q691.986 73.7508 681.818 73.7508 Q671.65 73.7508 666.262 65.73 Q660.915 57.6687 660.915 42.3968 Q660.915 27.0843 666.262 19.0636 Q671.65 11.0023 681.818 11.0023 Z" fill="#000000" fill-rule="evenodd" fill-opacity="1" /><path clip-path="url(#clip290)" d="M734.601 17.4837 Q728.282 17.4837 725.081 23.7221 Q721.922 29.92 721.922 42.3968 Q721.922 54.833 725.081 61.0714 Q728.282 67.2693 734.601 67.2693 Q740.961 67.2693 744.121 61.0714 Q747.321 54.833 747.321 42.3968 Q747.321 29.92 744.121 23.7221 Q740.961 17.4837 734.601 17.4837 M734.601 11.0023 Q744.769 11.0023 750.116 19.0636 Q755.504 27.0843 755.504 42.3968 Q755.504 57.6687 750.116 65.73 Q744.769 73.7508 734.601 73.7508 Q724.433 73.7508 719.046 65.73 Q713.698 57.6687 713.698 42.3968 Q713.698 27.0843 719.046 19.0636 Q724.433 11.0023 734.601 11.0023 Z" fill="#000000" fill-rule="evenodd" fill-opacity="1" /><path clip-path="url(#clip290)" d="M787.384 17.4837 Q781.065 17.4837 777.865 23.7221 Q774.705 29.92 774.705 42.3968 Q774.705 54.833 777.865 61.0714 Q781.065 67.2693 787.384 67.2693 Q793.744 67.2693 796.904 61.0714 Q800.104 54.833 800.104 42.3968 Q800.104 29.92 796.904 23.7221 Q793.744 17.4837 787.384 17.4837 M787.384 11.0023 Q797.552 11.0023 802.899 19.0636 Q808.287 27.0843 808.287 42.3968 Q808.287 57.6687 802.899 65.73 Q797.552 73.7508 787.384 73.7508 Q777.217 73.7508 771.829 65.73 Q766.482 57.6687 766.482 42.3968 Q766.482 27.0843 771.829 19.0636 Q777.217 11.0023 787.384 11.0023 Z" fill="#000000" fill-rule="evenodd" fill-opacity="1" /><path clip-path="url(#clip290)" d="M822.668 62.2867 L831.215 62.2867 L831.215 72.576 L822.668 72.576 L822.668 62.2867 Z" fill="#000000" fill-rule="evenodd" fill-opacity="1" /><path clip-path="url(#clip290)" d="M866.539 17.4837 Q860.22 17.4837 857.019 23.7221 Q853.86 29.92 853.86 42.3968 Q853.86 54.833 857.019 61.0714 Q860.22 67.2693 866.539 67.2693 Q872.899 67.2693 876.059 61.0714 Q879.259 54.833 879.259 42.3968 Q879.259 29.92 876.059 23.7221 Q872.899 17.4837 866.539 17.4837 M866.539 11.0023 Q876.707 11.0023 882.054 19.0636 Q887.442 27.0843 887.442 42.3968 Q887.442 57.6687 882.054 65.73 Q876.707 73.7508 866.539 73.7508 Q856.371 73.7508 850.984 65.73 Q845.636 57.6687 845.636 42.3968 Q845.636 27.0843 850.984 19.0636 Q856.371 11.0023 866.539 11.0023 Z" fill="#000000" fill-rule="evenodd" fill-opacity="1" /><path clip-path="url(#clip290)" d="M947.76 49.7694 Q938.726 49.7694 935.242 51.8354 Q931.759 53.9013 931.759 58.8839 Q931.759 62.8538 934.351 65.2034 Q936.984 67.5124 941.481 67.5124 Q947.679 67.5124 951.405 63.1374 Q955.173 58.7219 955.173 51.4303 L955.173 49.7694 L947.76 49.7694 M962.626 46.6907 L962.626 72.576 L955.173 72.576 L955.173 65.6895 Q952.621 69.8214 948.813 71.8063 Q945.005 73.7508 939.496 73.7508 Q932.528 73.7508 928.396 69.8619 Q924.305 65.9325 924.305 59.3701 Q924.305 51.7138 929.409 47.825 Q934.554 43.9361 944.721 43.9361 L955.173 43.9361 L955.173 43.2069 Q955.173 38.0623 951.77 35.2672 Q948.408 32.4315 942.291 32.4315 Q938.402 32.4315 934.716 33.3632 Q931.029 34.295 927.627 36.1584 L927.627 29.2718 Q931.718 27.692 935.566 26.9223 Q939.415 26.1121 943.061 26.1121 Q952.904 26.1121 957.765 31.2163 Q962.626 36.3204 962.626 46.6907 Z" fill="#000000" fill-rule="evenodd" fill-opacity="1" /><path clip-path="url(#clip290)" d="M978.952 34.9026 L1030.88 34.9026 L1030.88 41.7081 L978.952 41.7081 L978.952 34.9026 M978.952 51.4303 L1030.88 51.4303 L1030.88 58.3168 L978.952 58.3168 L978.952 51.4303 Z" fill="#000000" fill-rule="evenodd" fill-opacity="1" /><path clip-path="url(#clip290)" d="M1066.05 17.4837 Q1059.73 17.4837 1056.53 23.7221 Q1053.37 29.92 1053.37 42.3968 Q1053.37 54.833 1056.53 61.0714 Q1059.73 67.2693 1066.05 67.2693 Q1072.41 67.2693 1075.57 61.0714 Q1078.77 54.833 1078.77 42.3968 Q1078.77 29.92 1075.57 23.7221 Q1072.41 17.4837 1066.05 17.4837 M1066.05 11.0023 Q1076.21 11.0023 1081.56 19.0636 Q1086.95 27.0843 1086.95 42.3968 Q1086.95 57.6687 1081.56 65.73 Q1076.21 73.7508 1066.05 73.7508 Q1055.88 73.7508 1050.49 65.73 Q1045.14 57.6687 1045.14 42.3968 Q1045.14 27.0843 1050.49 19.0636 Q1055.88 11.0023 1066.05 11.0023 Z" fill="#000000" fill-rule="evenodd" fill-opacity="1" /><path clip-path="url(#clip290)" d="M1101.33 62.2867 L1109.88 62.2867 L1109.88 72.576 L1101.33 72.576 L1101.33 62.2867 Z" fill="#000000" fill-rule="evenodd" fill-opacity="1" /><path clip-path="url(#clip290)" d="M1134.75 65.6895 L1163.31 65.6895 L1163.31 72.576 L1124.91 72.576 L1124.91 65.6895 Q1129.56 60.8689 1137.59 52.7671 Q1145.65 44.6248 1147.71 42.2752 Q1151.64 37.8598 1153.18 34.8216 Q1154.76 31.7429 1154.76 28.7857 Q1154.76 23.9651 1151.36 20.927 Q1148 17.8888 1142.57 17.8888 Q1138.72 17.8888 1134.43 19.2256 Q1130.17 20.5624 1125.31 23.2765 L1125.31 15.0127 Q1130.25 13.0277 1134.55 12.015 Q1138.84 11.0023 1142.41 11.0023 Q1151.8 11.0023 1157.39 15.7013 Q1162.98 20.4004 1162.98 28.2591 Q1162.98 31.9859 1161.57 35.3482 Q1160.19 38.6699 1156.5 43.2069 Q1155.49 44.3817 1150.06 50.0125 Q1144.63 55.6027 1134.75 65.6895 Z" fill="#000000" fill-rule="evenodd" fill-opacity="1" /><path clip-path="url(#clip290)" d="M1180.57 12.096 L1212.69 12.096 L1212.69 18.9825 L1188.06 18.9825 L1188.06 33.8088 Q1189.84 33.2012 1191.62 32.9176 Q1193.41 32.5936 1195.19 32.5936 Q1205.32 32.5936 1211.23 38.1433 Q1217.14 43.6931 1217.14 53.1722 Q1217.14 62.9348 1211.07 68.3631 Q1204.99 73.7508 1193.93 73.7508 Q1190.13 73.7508 1186.16 73.1026 Q1182.23 72.4545 1178.01 71.1582 L1178.01 62.9348 Q1181.66 64.9198 1185.55 65.892 Q1189.44 66.8642 1193.77 66.8642 Q1200.78 66.8642 1204.87 63.1779 Q1208.96 59.4916 1208.96 53.1722 Q1208.96 46.8528 1204.87 43.1664 Q1200.78 39.4801 1193.77 39.4801 Q1190.49 39.4801 1187.21 40.2093 Q1183.97 40.9384 1180.57 42.4778 L1180.57 12.096 Z" fill="#000000" fill-rule="evenodd" fill-opacity="1" /><path clip-path="url(#clip290)" d="M1281.55 9.54393 L1281.55 15.7418 L1274.42 15.7418 Q1270.41 15.7418 1268.83 17.3622 Q1267.29 18.9825 1267.29 23.1955 L1267.29 27.2059 L1279.57 27.2059 L1279.57 32.9987 L1267.29 32.9987 L1267.29 72.576 L1259.8 72.576 L1259.8 32.9987 L1252.67 32.9987 L1252.67 27.2059 L1259.8 27.2059 L1259.8 24.0462 Q1259.8 16.471 1263.33 13.0277 Q1266.85 9.54393 1274.51 9.54393 L1281.55 9.54393 Z" fill="#000000" fill-rule="evenodd" fill-opacity="1" /><path clip-path="url(#clip290)" d="M1288.76 34.9026 L1340.7 34.9026 L1340.7 41.7081 L1288.76 41.7081 L1288.76 34.9026 M1288.76 51.4303 L1340.7 51.4303 L1340.7 58.3168 L1288.76 58.3168 L1288.76 51.4303 Z" fill="#000000" fill-rule="evenodd" fill-opacity="1" /><path clip-path="url(#clip290)" d="M1359.78 65.6895 L1373.15 65.6895 L1373.15 19.5497 L1358.6 22.4663 L1358.6 15.0127 L1373.06 12.096 L1381.25 12.096 L1381.25 65.6895 L1394.61 65.6895 L1394.61 72.576 L1359.78 72.576 L1359.78 65.6895 Z" fill="#000000" fill-rule="evenodd" fill-opacity="1" /><path clip-path="url(#clip290)" d="M1462.91 51.4708 L1461.13 42.1132 Q1459.31 32.5126 1452.1 32.5126 Q1446.67 32.5126 1444.2 36.9686 Q1441.08 42.5588 1441.08 49.9314 Q1441.08 58.8434 1444.12 63.0969 Q1447.2 67.4314 1452.1 67.4314 Q1457.53 67.4314 1460.44 58.8029 L1462.91 51.4708 M1467.09 39.075 L1471.1 27.2059 L1477.74 27.2059 L1469.44 51.7949 L1471.06 60.6663 Q1471.42 62.6513 1472.84 64.3122 Q1474.5 66.2566 1475.8 66.2566 L1479.36 66.2566 L1479.36 72.576 L1474.9 72.576 Q1471.1 72.576 1467.69 69.1732 Q1466.03 67.4719 1465.34 63.9071 Q1463.48 68.4036 1459.67 71.9279 Q1457.89 73.5887 1452.1 73.5887 Q1442.58 73.5887 1437.96 67.4314 Q1433.22 61.0714 1433.22 49.9314 Q1433.22 38.0218 1438.36 32.4315 Q1444.08 26.1931 1452.1 26.1931 Q1464.7 26.1931 1467.09 39.075 Z" fill="#000000" fill-rule="evenodd" fill-opacity="1" /><path clip-path="url(#clip290)" d="M1511.28 58.2358 L1511.28 72.576 L1506.58 72.576 L1506.58 57.3851 Q1506.58 53.6988 1505.12 51.9569 Q1503.67 50.1745 1500.63 50.1745 Q1497.02 50.1745 1494.92 52.362 Q1492.81 54.509 1492.81 58.2358 L1492.81 72.576 L1488.07 72.576 L1488.07 47.1768 L1492.81 47.1768 L1492.81 51.1062 Q1494.39 48.7972 1496.62 47.7034 Q1498.89 46.5692 1502 46.5692 Q1505.08 46.5692 1507.27 47.987 Q1509.46 49.3643 1510.51 52.0379 Q1512.25 49.2428 1514.68 47.906 Q1517.15 46.5692 1520.48 46.5692 Q1524.97 46.5692 1527.36 49.3643 Q1529.79 52.1189 1529.79 57.2231 L1529.79 72.576 L1525.09 72.576 L1525.09 57.3851 Q1525.09 53.7393 1523.64 51.9569 Q1522.18 50.1745 1519.18 50.1745 Q1515.53 50.1745 1513.39 52.362 Q1511.28 54.509 1511.28 58.2358 Z" fill="#000000" fill-rule="evenodd" fill-opacity="1" /><path clip-path="url(#clip290)" d="M1564.39 58.8434 L1564.39 60.8689 L1542.8 60.8689 Q1543.12 65.1628 1545.71 67.4314 Q1548.35 69.6999 1553.01 69.6999 Q1555.72 69.6999 1558.27 69.0922 Q1560.78 68.5251 1563.29 67.3503 L1563.29 71.2797 Q1560.78 72.2519 1558.11 72.738 Q1555.48 73.2241 1552.72 73.2241 Q1545.88 73.2241 1541.91 69.6999 Q1537.9 66.1756 1537.9 60.1397 Q1537.9 53.9013 1541.7 50.215 Q1545.47 46.5692 1551.91 46.5692 Q1557.66 46.5692 1561.03 49.8504 Q1564.39 53.1722 1564.39 58.8434 M1559.69 57.5877 Q1559.65 54.1849 1557.54 52.1189 Q1555.44 50.0935 1551.95 50.0935 Q1548.02 50.0935 1545.67 52.0784 Q1543.32 54.0229 1542.96 57.5877 L1559.69 57.5877 Z" fill="#000000" fill-rule="evenodd" fill-opacity="1" /><path clip-path="url(#clip290)" d="M1587.52 59.8157 Q1581.85 59.8157 1579.66 60.9499 Q1577.43 62.1247 1577.43 64.9198 Q1577.43 67.1478 1579.09 68.4441 Q1580.75 69.7404 1583.59 69.7404 Q1587.48 69.7404 1589.83 67.2693 Q1592.22 64.7983 1592.22 60.7474 L1592.22 59.8157 L1587.52 59.8157 M1596.88 58.0738 L1596.88 72.576 L1592.22 72.576 L1592.22 68.7276 Q1590.6 71.0367 1588.21 72.1304 Q1585.78 73.2241 1582.33 73.2241 Q1577.92 73.2241 1575.33 71.0367 Q1572.73 68.8492 1572.73 65.1628 Q1572.73 60.9094 1575.97 58.7219 Q1579.21 56.5344 1585.62 56.5344 L1592.22 56.5344 L1592.22 56.1293 Q1592.22 53.2532 1590.07 51.6733 Q1587.92 50.0935 1584.08 50.0935 Q1581.65 50.0935 1579.3 50.6201 Q1576.99 51.1467 1574.84 52.2 L1574.84 48.3111 Q1577.43 47.4604 1579.86 47.0148 Q1582.25 46.5692 1584.56 46.5692 Q1590.76 46.5692 1593.84 49.4048 Q1596.88 52.281 1596.88 58.0738 Z" fill="#000000" fill-rule="evenodd" fill-opacity="1" /><path clip-path="url(#clip290)" d="M1630.78 57.2231 L1630.78 72.576 L1626.08 72.576 L1626.08 57.3851 Q1626.08 53.7798 1624.5 51.9974 Q1622.92 50.1745 1619.76 50.1745 Q1615.96 50.1745 1613.77 52.362 Q1611.58 54.509 1611.58 58.2358 L1611.58 72.576 L1606.84 72.576 L1606.84 47.1768 L1611.58 47.1768 L1611.58 51.1062 Q1613.24 48.8377 1615.51 47.7034 Q1617.82 46.5692 1620.82 46.5692 Q1625.72 46.5692 1628.23 49.2833 Q1630.78 51.9974 1630.78 57.2231 Z" fill="#000000" fill-rule="evenodd" fill-opacity="1" /><path clip-path="url(#clip290)" d="M1643.95 34.9026 L1695.88 34.9026 L1695.88 41.7081 L1643.95 41.7081 L1643.95 34.9026 M1643.95 51.4303 L1695.88 51.4303 L1695.88 58.3168 L1643.95 58.3168 L1643.95 51.4303 Z" fill="#000000" fill-rule="evenodd" fill-opacity="1" /><path clip-path="url(#clip290)" d="M1736.03 19.2256 L1715.37 51.5113 L1736.03 51.5113 L1736.03 19.2256 M1733.88 12.096 L1744.17 12.096 L1744.17 51.5113 L1752.8 51.5113 L1752.8 58.3168 L1744.17 58.3168 L1744.17 72.576 L1736.03 72.576 L1736.03 58.3168 L1708.72 58.3168 L1708.72 50.4176 L1733.88 12.096 Z" fill="#000000" fill-rule="evenodd" fill-opacity="1" /><path clip-path="url(#clip290)" d="M1766.33 62.2867 L1774.87 62.2867 L1774.87 72.576 L1766.33 72.576 L1766.33 62.2867 Z" fill="#000000" fill-rule="evenodd" fill-opacity="1" /><path clip-path="url(#clip290)" d="M1810.2 17.4837 Q1803.88 17.4837 1800.68 23.7221 Q1797.52 29.92 1797.52 42.3968 Q1797.52 54.833 1800.68 61.0714 Q1803.88 67.2693 1810.2 67.2693 Q1816.56 67.2693 1819.72 61.0714 Q1822.92 54.833 1822.92 42.3968 Q1822.92 29.92 1819.72 23.7221 Q1816.56 17.4837 1810.2 17.4837 M1810.2 11.0023 Q1820.36 11.0023 1825.71 19.0636 Q1831.1 27.0843 1831.1 42.3968 Q1831.1 57.6687 1825.71 65.73 Q1820.36 73.7508 1810.2 73.7508 Q1800.03 73.7508 1794.64 65.73 Q1789.29 57.6687 1789.29 42.3968 Q1789.29 27.0843 1794.64 19.0636 Q1800.03 11.0023 1810.2 11.0023 Z" fill="#000000" fill-rule="evenodd" fill-opacity="1" /><path clip-path="url(#clip290)" d="M1897.25 51.4708 L1895.47 42.1132 Q1893.65 32.5126 1886.44 32.5126 Q1881.01 32.5126 1878.54 36.9686 Q1875.42 42.5588 1875.42 49.9314 Q1875.42 58.8434 1878.45 63.0969 Q1881.53 67.4314 1886.44 67.4314 Q1891.86 67.4314 1894.78 58.8029 L1897.25 51.4708 M1901.42 39.075 L1905.43 27.2059 L1912.08 27.2059 L1903.77 51.7949 L1905.39 60.6663 Q1905.76 62.6513 1907.18 64.3122 Q1908.84 66.2566 1910.13 66.2566 L1913.7 66.2566 L1913.7 72.576 L1909.24 72.576 Q1905.43 72.576 1902.03 69.1732 Q1900.37 67.4719 1899.68 63.9071 Q1897.82 68.4036 1894.01 71.9279 Q1892.23 73.5887 1886.44 73.5887 Q1876.92 73.5887 1872.3 67.4314 Q1867.56 61.0714 1867.56 49.9314 Q1867.56 38.0218 1872.7 32.4315 Q1878.41 26.1931 1886.44 26.1931 Q1899.03 26.1931 1901.42 39.075 Z" fill="#000000" fill-rule="evenodd" fill-opacity="1" /><path clip-path="url(#clip290)" d="M1935.57 59.8157 Q1929.9 59.8157 1927.71 60.9499 Q1925.49 62.1247 1925.49 64.9198 Q1925.49 67.1478 1927.15 68.4441 Q1928.81 69.7404 1931.64 69.7404 Q1935.53 69.7404 1937.88 67.2693 Q1940.27 64.7983 1940.27 60.7474 L1940.27 59.8157 L1935.57 59.8157 M1944.93 58.0738 L1944.93 72.576 L1940.27 72.576 L1940.27 68.7276 Q1938.65 71.0367 1936.26 72.1304 Q1933.83 73.2241 1930.39 73.2241 Q1925.97 73.2241 1923.38 71.0367 Q1920.79 68.8492 1920.79 65.1628 Q1920.79 60.9094 1924.03 58.7219 Q1927.27 56.5344 1933.67 56.5344 L1940.27 56.5344 L1940.27 56.1293 Q1940.27 53.2532 1938.12 51.6733 Q1935.98 50.0935 1932.13 50.0935 Q1929.7 50.0935 1927.35 50.6201 Q1925.04 51.1467 1922.89 52.2 L1922.89 48.3111 Q1925.49 47.4604 1927.92 47.0148 Q1930.31 46.5692 1932.62 46.5692 Q1938.81 46.5692 1941.89 49.4048 Q1944.93 52.281 1944.93 58.0738 Z" fill="#000000" fill-rule="evenodd" fill-opacity="1" /><path clip-path="url(#clip290)" d="M1978.11 58.2358 L1978.11 72.576 L1973.41 72.576 L1973.41 57.3851 Q1973.41 53.6988 1971.95 51.9569 Q1970.49 50.1745 1967.45 50.1745 Q1963.85 50.1745 1961.74 52.362 Q1959.64 54.509 1959.64 58.2358 L1959.64 72.576 L1954.9 72.576 L1954.9 47.1768 L1959.64 47.1768 L1959.64 51.1062 Q1961.21 48.7972 1963.44 47.7034 Q1965.71 46.5692 1968.83 46.5692 Q1971.91 46.5692 1974.1 47.987 Q1976.28 49.3643 1977.34 52.0379 Q1979.08 49.2428 1981.51 47.906 Q1983.98 46.5692 1987.3 46.5692 Q1991.8 46.5692 1994.19 49.3643 Q1996.62 52.1189 1996.62 57.2231 L1996.62 72.576 L1991.92 72.576 L1991.92 57.3851 Q1991.92 53.7393 1990.46 51.9569 Q1989 50.1745 1986.01 50.1745 Q1982.36 50.1745 1980.21 52.362 Q1978.11 54.509 1978.11 58.2358 Z" fill="#000000" fill-rule="evenodd" fill-opacity="1" /><path clip-path="url(#clip290)" d="M2011.32 68.7682 L2011.32 82.2577 L2006.59 82.2577 L2006.59 47.1768 L2011.32 47.1768 L2011.32 51.0252 Q2012.78 48.7567 2015.05 47.6629 Q2017.32 46.5692 2020.44 46.5692 Q2025.66 46.5692 2028.91 50.215 Q2032.15 53.9013 2032.15 59.8967 Q2032.15 65.892 2028.91 69.5783 Q2025.66 73.2241 2020.44 73.2241 Q2017.32 73.2241 2015.05 72.1304 Q2012.78 71.0367 2011.32 68.7682 M2025.18 67.1073 Q2027.29 64.5147 2027.29 59.8967 Q2027.29 55.2786 2025.18 52.6861 Q2023.03 50.053 2019.3 50.053 Q2015.58 50.053 2013.43 52.6861 Q2011.32 55.2786 2011.32 59.8967 Q2011.32 64.5147 2013.43 67.1073 Q2015.58 69.7404 2019.3 69.7404 Q2023.03 69.7404 2025.18 67.1073 Z" fill="#000000" fill-rule="evenodd" fill-opacity="1" /><path clip-path="url(#clip290)" d="M2046.16 34.9026 L2098.09 34.9026 L2098.09 41.7081 L2046.16 41.7081 L2046.16 34.9026 M2046.16 51.4303 L2098.09 51.4303 L2098.09 58.3168 L2046.16 58.3168 L2046.16 51.4303 Z" fill="#000000" fill-rule="evenodd" fill-opacity="1" /><path clip-path="url(#clip290)" d="M2138.24 19.2256 L2117.58 51.5113 L2138.24 51.5113 L2138.24 19.2256 M2136.09 12.096 L2146.38 12.096 L2146.38 51.5113 L2155.01 51.5113 L2155.01 58.3168 L2146.38 58.3168 L2146.38 72.576 L2138.24 72.576 L2138.24 58.3168 L2110.94 58.3168 L2110.94 50.4176 L2136.09 12.096 Z" fill="#000000" fill-rule="evenodd" fill-opacity="1" /><path clip-path="url(#clip290)" d="M2168.54 62.2867 L2177.09 62.2867 L2177.09 72.576 L2168.54 72.576 L2168.54 62.2867 Z" fill="#000000" fill-rule="evenodd" fill-opacity="1" /><path clip-path="url(#clip290)" d="M2212.41 17.4837 Q2206.09 17.4837 2202.89 23.7221 Q2199.73 29.92 2199.73 42.3968 Q2199.73 54.833 2202.89 61.0714 Q2206.09 67.2693 2212.41 67.2693 Q2218.77 67.2693 2221.93 61.0714 Q2225.13 54.833 2225.13 42.3968 Q2225.13 29.92 2221.93 23.7221 Q2218.77 17.4837 2212.41 17.4837 M2212.41 11.0023 Q2222.58 11.0023 2227.93 19.0636 Q2233.31 27.0843 2233.31 42.3968 Q2233.31 57.6687 2227.93 65.73 Q2222.58 73.7508 2212.41 73.7508 Q2202.24 73.7508 2196.86 65.73 Q2191.51 57.6687 2191.51 42.3968 Q2191.51 27.0843 2196.86 19.0636 Q2202.24 11.0023 2212.41 11.0023 Z" fill="#000000" fill-rule="evenodd" fill-opacity="1" /><polyline clip-path="url(#clip292)" style="stroke:#009af9; stroke-linecap:butt; stroke-linejoin:round; stroke-width:4; stroke-opacity:1; fill:none" points="
  1282.04,448.399 1877.49,748.472 2244.03,492.009 2240.74,271.813 1868.89,127.969 1271.43,166.157 678.049,365.053 316.869,632.342 326.739,870.197 703.866,939.027 
  1303.27,960.779 1894.51,749.741 2250.29,510.488 2233.84,294.879 1851.48,184.994 1250.21,221.07 661.169,418.172 310.82,665.197 333.847,910.454 721.398,959.909 
  1324.48,940.293 1911.25,738.424 2256.12,525.37 2226.52,303.162 1833.82,209.324 1229,267.522 644.564,434.4 305.201,683.873 341.374,937.229 739.177,993.218 
  1345.68,929.488 1927.71,719.869 2261.53,540.744 2218.79,302.167 1815.92,217.272 1207.81,300.176 628.24,450.554 300.013,697.497 349.317,957.327 757.197,1014.62 
  1366.85,945.565 1943.89,703.816 2266.5,548.564 2210.64,287.655 1797.79,215.046 1186.66,305.988 612.205,466.377 295.259,720.479 357.671,975.732 775.448,1069.97 
  1387.98,955.374 1959.78,716.775 2271.04,563.165 2202.08,302.431 1779.42,183.405 1165.55,259.837 596.465,493.356 290.94,728.333 366.433,997.338 793.922,1063.51 
  1409.06,946.58 1975.37,682.041 2275.14,520.461 2193.11,299.836 1760.84,228.903 1144.5,294.487 581.029,481.308 287.059,759.415 375.6,1022.24 812.613,1098.78 
  1430.09,954.045 1990.65,686.324 2278.8,530.009 2183.75,287.095 1742.04,231.134 1123.5,282.676 565.902,490.054 283.618,767.791 385.167,1029.79 831.51,1096.58 
  1451.06,968.207 2005.62,692.479 2282.02,530.251 2173.98,295.047 1723.05,243.117 1102.57,298.01 551.091,498.709 280.617,775.99 395.13,1031.58 850.607,1067.29 
  1471.94,971.463 2020.27,690.646 2284.8,524.829 2163.82,279.008 1703.85,265.599 1081.72,334.858 536.603,507.618 278.058,779.635 405.485,1027.65 869.894,1067.73 
  1492.75,936.168 2034.6,694.962 2287.14,512.921 2153.27,264.085 1684.47,298.005 1060.96,341.097 522.444,516.505 275.943,793.53 416.226,1024.5 889.363,1038.83 
  1513.46,910.481 2048.59,696.858 2289.03,509.149 2142.34,280.976 1664.92,294.339 1040.3,343.091 508.62,530.009 274.272,802.407 427.35,1024 909.005,1002.88 
  1534.07,894.37 2062.24,683.649 2290.48,508.469 2131.03,270.129 1645.19,292.596 1019.75,349.269 495.138,525.455 273.046,801.181 438.852,1026.99 928.812,998.284 
  1554.57,886.675 2075.55,682.163 2291.48,506.369 2119.34,299.732 1625.31,288.603 999.308,359.554 482.004,544.483 272.266,812.915 450.725,1034.94 948.776,1016.62 
  1574.95,896.473 2088.51,689.86 2292.04,501.423 2107.28,285.509 1605.27,279.465 978.993,358.496 469.223,624.933 271.931,812.078 462.966,1046.55 968.886,1034.65 
  1595.19,910.844 2101.11,632.638 2292.15,505.787 2094.86,333.582 1585.09,266.961 958.813,355.459 456.8,642.27 272.043,816.219 475.569,1030.66 989.134,1087.55 
  1615.3,925.394 2113.36,643.252 2291.81,504.924 2082.08,321.525 1564.77,250.474 938.775,346.06 444.742,656.139 272.6,818.836 488.527,952.191 1009.51,1109.47 
  1635.27,935.976 2125.23,593.044 2291.03,503.262 2068.94,313.446 1544.33,246.274 918.889,330.208 433.054,672.859 273.603,811.705 501.836,960.843 1030.01,1132.5 
  1655.08,941.337 2136.73,601.054 2289.81,503.332 2055.46,304.041 1523.78,256.911 899.163,349.329 421.741,679.559 275.052,822.342 515.49,977.524 1050.62,1137.11 
  1674.72,948.913 2147.85,609.794 2288.14,500.433 2041.64,288.732 1503.12,284.683 879.606,419.932 410.807,691.819 276.945,817.526 529.482,985.557 1071.33,1129.53 
  1694.19,874.65 2158.6,574.543 2286.02,502.969 2027.48,267.546 1482.36,336.045 860.227,405.301 400.259,703.066 279.282,821.052 543.806,1005.8 1092.14,1015.74 
  1713.47,879.982 2168.95,580.189 2283.46,496.288 2012.99,241.102 1461.51,323.073 841.034,393.518 390.099,699.769 282.062,827.623 558.456,1034.38 1113.03,928.041 
  1732.57,828.717 2178.91,556.083 2280.46,495.388 1998.18,204.975 1440.58,312.758 822.036,384.839 380.334,716.919 285.283,838.764 573.426,1073.38 1133.99,923.271 
  1751.47,791.528 2188.48,570.631 2277.02,493.697 1983.05,181.105 1419.59,292.202 803.241,370.498 370.966,720.49 288.945,838.997 588.709,1094.26 1155.02,935.276 
  1770.16,788.498 2197.65,588.032 2273.14,494.347 1967.62,137.162 1398.53,264.612 784.658,351.331 362.001,717.787 293.045,853.055 604.298,1119.77 1176.1,976.415 
  1788.63,804.499 2206.41,583.099 2268.82,489.88 1951.88,132.249 1377.42,223.793 766.294,329.953 353.443,709.195 297.582,860.631 620.186,1120.6 1197.23,1005.01 
  1806.88,818.905 2214.76,589.115 2264.07,483.71 1935.84,160.286 1356.27,174.82 748.157,307.983 345.294,707.043 302.553,865.724 636.366,1116.58 1218.4,1049.34 
  1824.9,835.948 2222.71,605.167 2258.88,478.2 1919.52,132.45 1335.08,134.556 730.257,280.471 337.559,694.546 307.957,884.45 652.832,1125.15 1239.6,1081.47 
  1842.68,837.568 2230.23,617.25 2253.26,470.282 1902.91,207.329 1313.88,176.915 712.6,257.326 330.241,688.466 313.791,897.607 669.575,1123.74 1260.82,1078.59 
  1860.21,840.849 2237.34,629.137 2247.21,462.732 1886.03,318.051 1292.65,239.211 695.195,265.621 323.343,684.333 320.053,917.718 686.589,884.052 1282.04,1068.77 
  
  "/>
</svg>
