<?xml version="1.0" encoding="utf-8"?>
<svg xmlns="http://www.w3.org/2000/svg" xmlns:xlink="http://www.w3.org/1999/xlink" width="600" height="400" viewBox="0 0 2400 1600">
<defs>
  <clipPath id="clip330">
    <rect x="0" y="0" width="2400" height="1600"/>
  </clipPath>
</defs>
<path clip-path="url(#clip330)" d="
M0 1600 L2400 1600 L2400 0 L0 0  Z
  " fill="#ffffff" fill-rule="evenodd" fill-opacity="1"/>
<defs>
  <clipPath id="clip331">
    <rect x="480" y="0" width="1681" height="1600"/>
  </clipPath>
</defs>
<path clip-path="url(#clip330)" d="
M211.325 1423.18 L2352.76 1423.18 L2352.76 123.472 L211.325 123.472  Z
  " fill="#ffffff" fill-rule="evenodd" fill-opacity="1"/>
<defs>
  <clipPath id="clip332">
    <rect x="211" y="123" width="2142" height="1301"/>
  </clipPath>
</defs>
<polyline clip-path="url(#clip332)" style="stroke:#000000; stroke-linecap:butt; stroke-linejoin:round; stroke-width:2; stroke-opacity:0.1; fill:none" points="
  271.931,1423.18 271.931,123.472 
  "/>
<polyline clip-path="url(#clip332)" style="stroke:#000000; stroke-linecap:butt; stroke-linejoin:round; stroke-width:2; stroke-opacity:0.1; fill:none" points="
  945.337,1423.18 945.337,123.472 
  "/>
<polyline clip-path="url(#clip332)" style="stroke:#000000; stroke-linecap:butt; stroke-linejoin:round; stroke-width:2; stroke-opacity:0.1; fill:none" points="
  1618.74,1423.18 1618.74,123.472 
  "/>
<polyline clip-path="url(#clip332)" style="stroke:#000000; stroke-linecap:butt; stroke-linejoin:round; stroke-width:2; stroke-opacity:0.1; fill:none" points="
  2292.15,1423.18 2292.15,123.472 
  "/>
<polyline clip-path="url(#clip330)" style="stroke:#000000; stroke-linecap:butt; stroke-linejoin:round; stroke-width:4; stroke-opacity:1; fill:none" points="
  211.325,1423.18 2352.76,1423.18 
  "/>
<polyline clip-path="url(#clip330)" style="stroke:#000000; stroke-linecap:butt; stroke-linejoin:round; stroke-width:4; stroke-opacity:1; fill:none" points="
  271.931,1423.18 271.931,1404.28 
  "/>
<polyline clip-path="url(#clip330)" style="stroke:#000000; stroke-linecap:butt; stroke-linejoin:round; stroke-width:4; stroke-opacity:1; fill:none" points="
  945.337,1423.18 945.337,1404.28 
  "/>
<polyline clip-path="url(#clip330)" style="stroke:#000000; stroke-linecap:butt; stroke-linejoin:round; stroke-width:4; stroke-opacity:1; fill:none" points="
  1618.74,1423.18 1618.74,1404.28 
  "/>
<polyline clip-path="url(#clip330)" style="stroke:#000000; stroke-linecap:butt; stroke-linejoin:round; stroke-width:4; stroke-opacity:1; fill:none" points="
  2292.15,1423.18 2292.15,1404.28 
  "/>
<path clip-path="url(#clip330)" d="M271.931 1454.1 Q268.32 1454.1 266.491 1457.66 Q264.686 1461.2 264.686 1468.33 Q264.686 1475.44 266.491 1479.01 Q268.32 1482.55 271.931 1482.55 Q275.565 1482.55 277.371 1479.01 Q279.2 1475.44 279.2 1468.33 Q279.2 1461.2 277.371 1457.66 Q275.565 1454.1 271.931 1454.1 M271.931 1450.39 Q277.741 1450.39 280.797 1455 Q283.876 1459.58 283.876 1468.33 Q283.876 1477.06 280.797 1481.67 Q277.741 1486.25 271.931 1486.25 Q266.121 1486.25 263.042 1481.67 Q259.987 1477.06 259.987 1468.33 Q259.987 1459.58 263.042 1455 Q266.121 1450.39 271.931 1450.39 Z" fill="#000000" fill-rule="evenodd" fill-opacity="1" /><path clip-path="url(#clip330)" d="M920.025 1481.64 L927.664 1481.64 L927.664 1455.28 L919.354 1456.95 L919.354 1452.69 L927.617 1451.02 L932.293 1451.02 L932.293 1481.64 L939.932 1481.64 L939.932 1485.58 L920.025 1485.58 L920.025 1481.64 Z" fill="#000000" fill-rule="evenodd" fill-opacity="1" /><path clip-path="url(#clip330)" d="M959.377 1454.1 Q955.765 1454.1 953.937 1457.66 Q952.131 1461.2 952.131 1468.33 Q952.131 1475.44 953.937 1479.01 Q955.765 1482.55 959.377 1482.55 Q963.011 1482.55 964.816 1479.01 Q966.645 1475.44 966.645 1468.33 Q966.645 1461.2 964.816 1457.66 Q963.011 1454.1 959.377 1454.1 M959.377 1450.39 Q965.187 1450.39 968.242 1455 Q971.321 1459.58 971.321 1468.33 Q971.321 1477.06 968.242 1481.67 Q965.187 1486.25 959.377 1486.25 Q953.566 1486.25 950.488 1481.67 Q947.432 1477.06 947.432 1468.33 Q947.432 1459.58 950.488 1455 Q953.566 1450.39 959.377 1450.39 Z" fill="#000000" fill-rule="evenodd" fill-opacity="1" /><path clip-path="url(#clip330)" d="M1597.52 1481.64 L1613.84 1481.64 L1613.84 1485.58 L1591.89 1485.58 L1591.89 1481.64 Q1594.55 1478.89 1599.14 1474.26 Q1603.74 1469.61 1604.92 1468.27 Q1607.17 1465.74 1608.05 1464.01 Q1608.95 1462.25 1608.95 1460.56 Q1608.95 1457.8 1607.01 1456.07 Q1605.09 1454.33 1601.98 1454.33 Q1599.79 1454.33 1597.33 1455.09 Q1594.9 1455.86 1592.12 1457.41 L1592.12 1452.69 Q1594.95 1451.55 1597.4 1450.97 Q1599.85 1450.39 1601.89 1450.39 Q1607.26 1450.39 1610.46 1453.08 Q1613.65 1455.77 1613.65 1460.26 Q1613.65 1462.39 1612.84 1464.31 Q1612.05 1466.2 1609.95 1468.8 Q1609.37 1469.47 1606.27 1472.69 Q1603.16 1475.88 1597.52 1481.64 Z" fill="#000000" fill-rule="evenodd" fill-opacity="1" /><path clip-path="url(#clip330)" d="M1633.65 1454.1 Q1630.04 1454.1 1628.21 1457.66 Q1626.41 1461.2 1626.41 1468.33 Q1626.41 1475.44 1628.21 1479.01 Q1630.04 1482.55 1633.65 1482.55 Q1637.28 1482.55 1639.09 1479.01 Q1640.92 1475.44 1640.92 1468.33 Q1640.92 1461.2 1639.09 1457.66 Q1637.28 1454.1 1633.65 1454.1 M1633.65 1450.39 Q1639.46 1450.39 1642.52 1455 Q1645.6 1459.58 1645.6 1468.33 Q1645.6 1477.06 1642.52 1481.67 Q1639.46 1486.25 1633.65 1486.25 Q1627.84 1486.25 1624.76 1481.67 Q1621.71 1477.06 1621.71 1468.33 Q1621.71 1459.58 1624.76 1455 Q1627.84 1450.39 1633.65 1450.39 Z" fill="#000000" fill-rule="evenodd" fill-opacity="1" /><path clip-path="url(#clip330)" d="M2280.99 1466.95 Q2284.35 1467.66 2286.22 1469.93 Q2288.12 1472.2 2288.12 1475.53 Q2288.12 1480.65 2284.6 1483.45 Q2281.08 1486.25 2274.6 1486.25 Q2272.43 1486.25 2270.11 1485.81 Q2267.82 1485.39 2265.37 1484.54 L2265.37 1480.02 Q2267.31 1481.16 2269.63 1481.74 Q2271.94 1482.32 2274.46 1482.32 Q2278.86 1482.32 2281.15 1480.58 Q2283.47 1478.84 2283.47 1475.53 Q2283.47 1472.48 2281.32 1470.77 Q2279.19 1469.03 2275.37 1469.03 L2271.34 1469.03 L2271.34 1465.19 L2275.55 1465.19 Q2279 1465.19 2280.83 1463.82 Q2282.66 1462.43 2282.66 1459.84 Q2282.66 1457.18 2280.76 1455.77 Q2278.89 1454.33 2275.37 1454.33 Q2273.45 1454.33 2271.25 1454.75 Q2269.05 1455.16 2266.41 1456.04 L2266.41 1451.88 Q2269.07 1451.14 2271.39 1450.77 Q2273.72 1450.39 2275.78 1450.39 Q2281.11 1450.39 2284.21 1452.83 Q2287.31 1455.23 2287.31 1459.35 Q2287.31 1462.22 2285.67 1464.21 Q2284.02 1466.18 2280.99 1466.95 Z" fill="#000000" fill-rule="evenodd" fill-opacity="1" /><path clip-path="url(#clip330)" d="M2306.99 1454.1 Q2303.38 1454.1 2301.55 1457.66 Q2299.74 1461.2 2299.74 1468.33 Q2299.74 1475.44 2301.55 1479.01 Q2303.38 1482.55 2306.99 1482.55 Q2310.62 1482.55 2312.43 1479.01 Q2314.26 1475.44 2314.26 1468.33 Q2314.26 1461.2 2312.43 1457.66 Q2310.62 1454.1 2306.99 1454.1 M2306.99 1450.39 Q2312.8 1450.39 2315.85 1455 Q2318.93 1459.58 2318.93 1468.33 Q2318.93 1477.06 2315.85 1481.67 Q2312.8 1486.25 2306.99 1486.25 Q2301.18 1486.25 2298.1 1481.67 Q2295.04 1477.06 2295.04 1468.33 Q2295.04 1459.58 2298.1 1455 Q2301.18 1450.39 2306.99 1450.39 Z" fill="#000000" fill-rule="evenodd" fill-opacity="1" /><path clip-path="url(#clip330)" d="M1230.35 1522.27 L1230.35 1532.4 L1242.41 1532.4 L1242.41 1536.95 L1230.35 1536.95 L1230.35 1556.3 Q1230.35 1560.66 1231.53 1561.9 Q1232.74 1563.14 1236.4 1563.14 L1242.41 1563.14 L1242.41 1568.04 L1236.4 1568.04 Q1229.62 1568.04 1227.04 1565.53 Q1224.46 1562.98 1224.46 1556.3 L1224.46 1536.95 L1220.17 1536.95 L1220.17 1532.4 L1224.46 1532.4 L1224.46 1522.27 L1230.35 1522.27 Z" fill="#000000" fill-rule="evenodd" fill-opacity="1" /><path clip-path="url(#clip330)" d="M1270.3 1518.52 L1283.79 1518.52 L1283.79 1523.07 L1276.15 1523.07 L1276.15 1572.09 L1283.79 1572.09 L1283.79 1576.64 L1270.3 1576.64 L1270.3 1518.52 Z" fill="#000000" fill-rule="evenodd" fill-opacity="1" /><path clip-path="url(#clip330)" d="M1318.99 1533.45 L1318.99 1538.98 Q1316.51 1537.71 1313.84 1537.07 Q1311.16 1536.44 1308.3 1536.44 Q1303.94 1536.44 1301.74 1537.77 Q1299.58 1539.11 1299.58 1541.79 Q1299.58 1543.82 1301.14 1545 Q1302.7 1546.15 1307.41 1547.2 L1309.41 1547.64 Q1315.65 1548.98 1318.26 1551.43 Q1320.9 1553.85 1320.9 1558.21 Q1320.9 1563.17 1316.96 1566.07 Q1313.04 1568.97 1306.17 1568.97 Q1303.3 1568.97 1300.18 1568.39 Q1297.1 1567.85 1293.66 1566.74 L1293.66 1560.69 Q1296.9 1562.38 1300.06 1563.24 Q1303.21 1564.07 1306.29 1564.07 Q1310.43 1564.07 1312.66 1562.66 Q1314.89 1561.23 1314.89 1558.65 Q1314.89 1556.27 1313.26 1554.99 Q1311.67 1553.72 1306.23 1552.54 L1304.19 1552.07 Q1298.75 1550.92 1296.33 1548.56 Q1293.91 1546.18 1293.91 1542.04 Q1293.91 1537.01 1297.48 1534.27 Q1301.04 1531.54 1307.6 1531.54 Q1310.85 1531.54 1313.71 1532.01 Q1316.57 1532.49 1318.99 1533.45 Z" fill="#000000" fill-rule="evenodd" fill-opacity="1" /><path clip-path="url(#clip330)" d="M1343.91 1518.52 L1343.91 1576.64 L1330.42 1576.64 L1330.42 1572.09 L1338.03 1572.09 L1338.03 1523.07 L1330.42 1523.07 L1330.42 1518.52 L1343.91 1518.52 Z" fill="#000000" fill-rule="evenodd" fill-opacity="1" /><polyline clip-path="url(#clip332)" style="stroke:#000000; stroke-linecap:butt; stroke-linejoin:round; stroke-width:2; stroke-opacity:0.1; fill:none" points="
  211.325,1423.18 2352.76,1423.18 
  "/>
<polyline clip-path="url(#clip332)" style="stroke:#000000; stroke-linecap:butt; stroke-linejoin:round; stroke-width:2; stroke-opacity:0.1; fill:none" points="
  211.325,1098.25 2352.76,1098.25 
  "/>
<polyline clip-path="url(#clip332)" style="stroke:#000000; stroke-linecap:butt; stroke-linejoin:round; stroke-width:2; stroke-opacity:0.1; fill:none" points="
  211.325,773.326 2352.76,773.326 
  "/>
<polyline clip-path="url(#clip332)" style="stroke:#000000; stroke-linecap:butt; stroke-linejoin:round; stroke-width:2; stroke-opacity:0.1; fill:none" points="
  211.325,448.399 2352.76,448.399 
  "/>
<polyline clip-path="url(#clip332)" style="stroke:#000000; stroke-linecap:butt; stroke-linejoin:round; stroke-width:2; stroke-opacity:0.1; fill:none" points="
  211.325,123.472 2352.76,123.472 
  "/>
<polyline clip-path="url(#clip330)" style="stroke:#000000; stroke-linecap:butt; stroke-linejoin:round; stroke-width:4; stroke-opacity:1; fill:none" points="
  211.325,1423.18 211.325,123.472 
  "/>
<polyline clip-path="url(#clip330)" style="stroke:#000000; stroke-linecap:butt; stroke-linejoin:round; stroke-width:4; stroke-opacity:1; fill:none" points="
  211.325,1423.18 230.222,1423.18 
  "/>
<polyline clip-path="url(#clip330)" style="stroke:#000000; stroke-linecap:butt; stroke-linejoin:round; stroke-width:4; stroke-opacity:1; fill:none" points="
  211.325,1098.25 230.222,1098.25 
  "/>
<polyline clip-path="url(#clip330)" style="stroke:#000000; stroke-linecap:butt; stroke-linejoin:round; stroke-width:4; stroke-opacity:1; fill:none" points="
  211.325,773.326 230.222,773.326 
  "/>
<polyline clip-path="url(#clip330)" style="stroke:#000000; stroke-linecap:butt; stroke-linejoin:round; stroke-width:4; stroke-opacity:1; fill:none" points="
  211.325,448.399 230.222,448.399 
  "/>
<polyline clip-path="url(#clip330)" style="stroke:#000000; stroke-linecap:butt; stroke-linejoin:round; stroke-width:4; stroke-opacity:1; fill:none" points="
  211.325,123.472 230.222,123.472 
  "/>
<path clip-path="url(#clip330)" d="M114.26 1423.63 L143.936 1423.63 L143.936 1427.57 L114.26 1427.57 L114.26 1423.63 Z" fill="#000000" fill-rule="evenodd" fill-opacity="1" /><path clip-path="url(#clip330)" d="M168.195 1421.83 Q171.552 1422.54 173.427 1424.81 Q175.325 1427.08 175.325 1430.41 Q175.325 1435.53 171.806 1438.33 Q168.288 1441.13 161.806 1441.13 Q159.63 1441.13 157.315 1440.69 Q155.024 1440.27 152.57 1439.42 L152.57 1434.9 Q154.515 1436.04 156.829 1436.62 Q159.144 1437.2 161.667 1437.2 Q166.065 1437.2 168.357 1435.46 Q170.672 1433.72 170.672 1430.41 Q170.672 1427.36 168.519 1425.65 Q166.39 1423.91 162.57 1423.91 L158.542 1423.91 L158.542 1420.07 L162.755 1420.07 Q166.204 1420.07 168.033 1418.7 Q169.862 1417.31 169.862 1414.72 Q169.862 1412.06 167.964 1410.65 Q166.089 1409.21 162.57 1409.21 Q160.649 1409.21 158.45 1409.63 Q156.251 1410.04 153.612 1410.92 L153.612 1406.76 Q156.274 1406.02 158.589 1405.65 Q160.927 1405.27 162.987 1405.27 Q168.311 1405.27 171.413 1407.71 Q174.514 1410.11 174.514 1414.23 Q174.514 1417.1 172.871 1419.09 Q171.227 1421.06 168.195 1421.83 Z" fill="#000000" fill-rule="evenodd" fill-opacity="1" /><path clip-path="url(#clip330)" d="M115.209 1098.7 L144.885 1098.7 L144.885 1102.64 L115.209 1102.64 L115.209 1098.7 Z" fill="#000000" fill-rule="evenodd" fill-opacity="1" /><path clip-path="url(#clip330)" d="M159.005 1111.6 L175.325 1111.6 L175.325 1115.53 L153.38 1115.53 L153.38 1111.6 Q156.042 1108.84 160.626 1104.21 Q165.232 1099.56 166.413 1098.22 Q168.658 1095.7 169.538 1093.96 Q170.44 1092.2 170.44 1090.51 Q170.44 1087.76 168.496 1086.02 Q166.575 1084.28 163.473 1084.28 Q161.274 1084.28 158.82 1085.05 Q156.39 1085.81 153.612 1087.36 L153.612 1082.64 Q156.436 1081.51 158.89 1080.93 Q161.343 1080.35 163.38 1080.35 Q168.751 1080.35 171.945 1083.03 Q175.139 1085.72 175.139 1090.21 Q175.139 1092.34 174.329 1094.26 Q173.542 1096.16 171.436 1098.75 Q170.857 1099.42 167.755 1102.64 Q164.653 1105.83 159.005 1111.6 Z" fill="#000000" fill-rule="evenodd" fill-opacity="1" /><path clip-path="url(#clip330)" d="M114.839 773.777 L144.515 773.777 L144.515 777.713 L114.839 777.713 L114.839 773.777 Z" fill="#000000" fill-rule="evenodd" fill-opacity="1" /><path clip-path="url(#clip330)" d="M155.417 786.671 L163.056 786.671 L163.056 760.305 L154.746 761.972 L154.746 757.713 L163.01 756.046 L167.686 756.046 L167.686 786.671 L175.325 786.671 L175.325 790.606 L155.417 790.606 L155.417 786.671 Z" fill="#000000" fill-rule="evenodd" fill-opacity="1" /><path clip-path="url(#clip330)" d="M163.38 434.198 Q159.769 434.198 157.94 437.763 Q156.135 441.304 156.135 448.434 Q156.135 455.54 157.94 459.105 Q159.769 462.647 163.38 462.647 Q167.015 462.647 168.82 459.105 Q170.649 455.54 170.649 448.434 Q170.649 441.304 168.82 437.763 Q167.015 434.198 163.38 434.198 M163.38 430.494 Q169.19 430.494 172.246 435.101 Q175.325 439.684 175.325 448.434 Q175.325 457.161 172.246 461.767 Q169.19 466.35 163.38 466.35 Q157.57 466.35 154.491 461.767 Q151.436 457.161 151.436 448.434 Q151.436 439.684 154.491 435.101 Q157.57 430.494 163.38 430.494 Z" fill="#000000" fill-rule="evenodd" fill-opacity="1" /><path clip-path="url(#clip330)" d="M155.417 136.817 L163.056 136.817 L163.056 110.451 L154.746 112.118 L154.746 107.859 L163.01 106.192 L167.686 106.192 L167.686 136.817 L175.325 136.817 L175.325 140.752 L155.417 140.752 L155.417 136.817 Z" fill="#000000" fill-rule="evenodd" fill-opacity="1" /><path clip-path="url(#clip330)" d="M20.1444 761.931 L26.9239 761.931 Q23.9002 765.178 22.4043 768.87 Q20.9083 772.53 20.9083 776.668 Q20.9083 784.816 25.9054 789.145 Q30.8707 793.473 40.2919 793.473 Q49.6813 793.473 54.6784 789.145 Q59.6436 784.816 59.6436 776.668 Q59.6436 772.53 58.1477 768.87 Q56.6518 765.178 53.6281 761.931 L60.3439 761.931 Q62.6355 765.305 63.7814 769.093 Q64.9272 772.849 64.9272 777.05 Q64.9272 787.84 58.3387 794.046 Q51.7183 800.253 40.2919 800.253 Q28.8336 800.253 22.2451 794.046 Q15.6248 787.84 15.6248 777.05 Q15.6248 772.785 16.7706 769.029 Q17.8846 765.242 20.1444 761.931 Z" fill="#000000" fill-rule="evenodd" fill-opacity="1" /><path clip-path="url(#clip330)" d="M14.479 752.255 L14.479 746.399 L64.0042 746.399 L64.0042 752.255 L14.479 752.255 Z" fill="#000000" fill-rule="evenodd" fill-opacity="1" /><path clip-path="url(#clip330)" d="M359.447 44.2197 Q362.08 45.1109 364.551 48.0275 Q367.063 50.9442 369.574 56.0483 L377.878 72.576 L369.088 72.576 L361.351 57.061 Q358.353 50.9847 355.517 48.9997 Q352.722 47.0148 347.861 47.0148 L338.949 47.0148 L338.949 72.576 L330.766 72.576 L330.766 12.096 L349.239 12.096 Q359.609 12.096 364.713 16.4305 Q369.817 20.7649 369.817 29.5149 Q369.817 35.2267 367.144 38.994 Q364.51 42.7613 359.447 44.2197 M338.949 18.8205 L338.949 40.2903 L349.239 40.2903 Q355.153 40.2903 358.151 37.5762 Q361.189 34.8216 361.189 29.5149 Q361.189 24.2082 358.151 21.5346 Q355.153 18.8205 349.239 18.8205 L338.949 18.8205 Z" fill="#000000" fill-rule="evenodd" fill-opacity="1" /><path clip-path="url(#clip330)" d="M423.168 48.0275 L423.168 51.6733 L388.897 51.6733 Q389.383 59.3701 393.515 63.421 Q397.687 67.4314 405.101 67.4314 Q409.394 67.4314 413.405 66.3781 Q417.456 65.3249 421.426 63.2184 L421.426 70.267 Q417.415 71.9684 413.202 72.8596 Q408.989 73.7508 404.655 73.7508 Q393.799 73.7508 387.439 67.4314 Q381.119 61.1119 381.119 50.3365 Q381.119 39.1965 387.115 32.6746 Q393.15 26.1121 403.359 26.1121 Q412.514 26.1121 417.82 32.0264 Q423.168 37.9003 423.168 48.0275 M415.714 45.84 Q415.633 39.7232 412.271 36.0774 Q408.949 32.4315 403.44 32.4315 Q397.201 32.4315 393.434 35.9558 Q389.707 39.4801 389.14 45.8805 L415.714 45.84 Z" fill="#000000" fill-rule="evenodd" fill-opacity="1" /><path clip-path="url(#clip330)" d="M436.374 34.9026 L488.306 34.9026 L488.306 41.7081 L436.374 41.7081 L436.374 34.9026 M436.374 51.4303 L488.306 51.4303 L488.306 58.3168 L436.374 58.3168 L436.374 51.4303 Z" fill="#000000" fill-rule="evenodd" fill-opacity="1" /><path clip-path="url(#clip330)" d="M507.386 65.6895 L520.754 65.6895 L520.754 19.5497 L506.211 22.4663 L506.211 15.0127 L520.673 12.096 L528.856 12.096 L528.856 65.6895 L542.224 65.6895 L542.224 72.576 L507.386 72.576 L507.386 65.6895 Z" fill="#000000" fill-rule="evenodd" fill-opacity="1" /><path clip-path="url(#clip330)" d="M576.251 17.4837 Q569.932 17.4837 566.732 23.7221 Q563.572 29.92 563.572 42.3968 Q563.572 54.833 566.732 61.0714 Q569.932 67.2693 576.251 67.2693 Q582.611 67.2693 585.771 61.0714 Q588.971 54.833 588.971 42.3968 Q588.971 29.92 585.771 23.7221 Q582.611 17.4837 576.251 17.4837 M576.251 11.0023 Q586.419 11.0023 591.766 19.0636 Q597.154 27.0843 597.154 42.3968 Q597.154 57.6687 591.766 65.73 Q586.419 73.7508 576.251 73.7508 Q566.083 73.7508 560.696 65.73 Q555.349 57.6687 555.349 42.3968 Q555.349 27.0843 560.696 19.0636 Q566.083 11.0023 576.251 11.0023 Z" fill="#000000" fill-rule="evenodd" fill-opacity="1" /><path clip-path="url(#clip330)" d="M629.035 17.4837 Q622.715 17.4837 619.515 23.7221 Q616.355 29.92 616.355 42.3968 Q616.355 54.833 619.515 61.0714 Q622.715 67.2693 629.035 67.2693 Q635.394 67.2693 638.554 61.0714 Q641.754 54.833 641.754 42.3968 Q641.754 29.92 638.554 23.7221 Q635.394 17.4837 629.035 17.4837 M629.035 11.0023 Q639.202 11.0023 644.549 19.0636 Q649.937 27.0843 649.937 42.3968 Q649.937 57.6687 644.549 65.73 Q639.202 73.7508 629.035 73.7508 Q618.867 73.7508 613.479 65.73 Q608.132 57.6687 608.132 42.3968 Q608.132 27.0843 613.479 19.0636 Q618.867 11.0023 629.035 11.0023 Z" fill="#000000" fill-rule="evenodd" fill-opacity="1" /><path clip-path="url(#clip330)" d="M681.818 17.4837 Q675.498 17.4837 672.298 23.7221 Q669.138 29.92 669.138 42.3968 Q669.138 54.833 672.298 61.0714 Q675.498 67.2693 681.818 67.2693 Q688.178 67.2693 691.337 61.0714 Q694.538 54.833 694.538 42.3968 Q694.538 29.92 691.337 23.7221 Q688.178 17.4837 681.818 17.4837 M681.818 11.0023 Q691.986 11.0023 697.333 19.0636 Q702.72 27.0843 702.72 42.3968 Q702.72 57.6687 697.333 65.73 Q691.986 73.7508 681.818 73.7508 Q671.65 73.7508 666.262 65.73 Q660.915 57.6687 660.915 42.3968 Q660.915 27.0843 666.262 19.0636 Q671.65 11.0023 681.818 11.0023 Z" fill="#000000" fill-rule="evenodd" fill-opacity="1" /><path clip-path="url(#clip330)" d="M734.601 17.4837 Q728.282 17.4837 725.081 23.7221 Q721.922 29.92 721.922 42.3968 Q721.922 54.833 725.081 61.0714 Q728.282 67.2693 734.601 67.2693 Q740.961 67.2693 744.121 61.0714 Q747.321 54.833 747.321 42.3968 Q747.321 29.92 744.121 23.7221 Q740.961 17.4837 734.601 17.4837 M734.601 11.0023 Q744.769 11.0023 750.116 19.0636 Q755.504 27.0843 755.504 42.3968 Q755.504 57.6687 750.116 65.73 Q744.769 73.7508 734.601 73.7508 Q724.433 73.7508 719.046 65.73 Q713.698 57.6687 713.698 42.3968 Q713.698 27.0843 719.046 19.0636 Q724.433 11.0023 734.601 11.0023 Z" fill="#000000" fill-rule="evenodd" fill-opacity="1" /><path clip-path="url(#clip330)" d="M787.384 17.4837 Q781.065 17.4837 777.865 23.7221 Q774.705 29.92 774.705 42.3968 Q774.705 54.833 777.865 61.0714 Q781.065 67.2693 787.384 67.2693 Q793.744 67.2693 796.904 61.0714 Q800.104 54.833 800.104 42.3968 Q800.104 29.92 796.904 23.7221 Q793.744 17.4837 787.384 17.4837 M787.384 11.0023 Q797.552 11.0023 802.899 19.0636 Q808.287 27.0843 808.287 42.3968 Q808.287 57.6687 802.899 65.73 Q797.552 73.7508 787.384 73.7508 Q777.217 73.7508 771.829 65.73 Q766.482 57.6687 766.482 42.3968 Q766.482 27.0843 771.829 19.0636 Q777.217 11.0023 787.384 11.0023 Z" fill="#000000" fill-rule="evenodd" fill-opacity="1" /><path clip-path="url(#clip330)" d="M822.668 62.2867 L831.215 62.2867 L831.215 72.576 L822.668 72.576 L822.668 62.2867 Z" fill="#000000" fill-rule="evenodd" fill-opacity="1" /><path clip-path="url(#clip330)" d="M866.539 17.4837 Q860.22 17.4837 857.019 23.7221 Q853.86 29.92 853.86 42.3968 Q853.86 54.833 857.019 61.0714 Q860.22 67.2693 866.539 67.2693 Q872.899 67.2693 876.059 61.0714 Q879.259 54.833 879.259 42.3968 Q879.259 29.92 876.059 23.7221 Q872.899 17.4837 866.539 17.4837 M866.539 11.0023 Q876.707 11.0023 882.054 19.0636 Q887.442 27.0843 887.442 42.3968 Q887.442 57.6687 882.054 65.73 Q876.707 73.7508 866.539 73.7508 Q856.371 73.7508 850.984 65.73 Q845.636 57.6687 845.636 42.3968 Q845.636 27.0843 850.984 19.0636 Q856.371 11.0023 866.539 11.0023 Z" fill="#000000" fill-rule="evenodd" fill-opacity="1" /><path clip-path="url(#clip330)" d="M947.76 49.7694 Q938.726 49.7694 935.242 51.8354 Q931.759 53.9013 931.759 58.8839 Q931.759 62.8538 934.351 65.2034 Q936.984 67.5124 941.481 67.5124 Q947.679 67.5124 951.405 63.1374 Q955.173 58.7219 955.173 51.4303 L955.173 49.7694 L947.76 49.7694 M962.626 46.6907 L962.626 72.576 L955.173 72.576 L955.173 65.6895 Q952.621 69.8214 948.813 71.8063 Q945.005 73.7508 939.496 73.7508 Q932.528 73.7508 928.396 69.8619 Q924.305 65.9325 924.305 59.3701 Q924.305 51.7138 929.409 47.825 Q934.554 43.9361 944.721 43.9361 L955.173 43.9361 L955.173 43.2069 Q955.173 38.0623 951.77 35.2672 Q948.408 32.4315 942.291 32.4315 Q938.402 32.4315 934.716 33.3632 Q931.029 34.295 927.627 36.1584 L927.627 29.2718 Q931.718 27.692 935.566 26.9223 Q939.415 26.1121 943.061 26.1121 Q952.904 26.1121 957.765 31.2163 Q962.626 36.3204 962.626 46.6907 Z" fill="#000000" fill-rule="evenodd" fill-opacity="1" /><path clip-path="url(#clip330)" d="M978.952 34.9026 L1030.88 34.9026 L1030.88 41.7081 L978.952 41.7081 L978.952 34.9026 M978.952 51.4303 L1030.88 51.4303 L1030.88 58.3168 L978.952 58.3168 L978.952 51.4303 Z" fill="#000000" fill-rule="evenodd" fill-opacity="1" /><path clip-path="url(#clip330)" d="M1066.05 17.4837 Q1059.73 17.4837 1056.53 23.7221 Q1053.37 29.92 1053.37 42.3968 Q1053.37 54.833 1056.53 61.0714 Q1059.73 67.2693 1066.05 67.2693 Q1072.41 67.2693 1075.57 61.0714 Q1078.77 54.833 1078.77 42.3968 Q1078.77 29.92 1075.57 23.7221 Q1072.41 17.4837 1066.05 17.4837 M1066.05 11.0023 Q1076.21 11.0023 1081.56 19.0636 Q1086.95 27.0843 1086.95 42.3968 Q1086.95 57.6687 1081.56 65.73 Q1076.21 73.7508 1066.05 73.7508 Q1055.88 73.7508 1050.49 65.73 Q1045.14 57.6687 1045.14 42.3968 Q1045.14 27.0843 1050.49 19.0636 Q1055.88 11.0023 1066.05 11.0023 Z" fill="#000000" fill-rule="evenodd" fill-opacity="1" /><path clip-path="url(#clip330)" d="M1101.33 62.2867 L1109.88 62.2867 L1109.88 72.576 L1101.33 72.576 L1101.33 62.2867 Z" fill="#000000" fill-rule="evenodd" fill-opacity="1" /><path clip-path="url(#clip330)" d="M1134.75 65.6895 L1163.31 65.6895 L1163.31 72.576 L1124.91 72.576 L1124.91 65.6895 Q1129.56 60.8689 1137.59 52.7671 Q1145.65 44.6248 1147.71 42.2752 Q1151.64 37.8598 1153.18 34.8216 Q1154.76 31.7429 1154.76 28.7857 Q1154.76 23.9651 1151.36 20.927 Q1148 17.8888 1142.57 17.8888 Q1138.72 17.8888 1134.43 19.2256 Q1130.17 20.5624 1125.31 23.2765 L1125.31 15.0127 Q1130.25 13.0277 1134.55 12.015 Q1138.84 11.0023 1142.41 11.0023 Q1151.8 11.0023 1157.39 15.7013 Q1162.98 20.4004 1162.98 28.2591 Q1162.98 31.9859 1161.57 35.3482 Q1160.19 38.6699 1156.5 43.2069 Q1155.49 44.3817 1150.06 50.0125 Q1144.63 55.6027 1134.75 65.6895 Z" fill="#000000" fill-rule="evenodd" fill-opacity="1" /><path clip-path="url(#clip330)" d="M1180.57 12.096 L1212.69 12.096 L1212.69 18.9825 L1188.06 18.9825 L1188.06 33.8088 Q1189.84 33.2012 1191.62 32.9176 Q1193.41 32.5936 1195.19 32.5936 Q1205.32 32.5936 1211.23 38.1433 Q1217.14 43.6931 1217.14 53.1722 Q1217.14 62.9348 1211.07 68.3631 Q1204.99 73.7508 1193.93 73.7508 Q1190.13 73.7508 1186.16 73.1026 Q1182.23 72.4545 1178.01 71.1582 L1178.01 62.9348 Q1181.66 64.9198 1185.55 65.892 Q1189.44 66.8642 1193.77 66.8642 Q1200.78 66.8642 1204.87 63.1779 Q1208.96 59.4916 1208.96 53.1722 Q1208.96 46.8528 1204.87 43.1664 Q1200.78 39.4801 1193.77 39.4801 Q1190.49 39.4801 1187.21 40.2093 Q1183.97 40.9384 1180.57 42.4778 L1180.57 12.096 Z" fill="#000000" fill-rule="evenodd" fill-opacity="1" /><path clip-path="url(#clip330)" d="M1281.55 9.54393 L1281.55 15.7418 L1274.42 15.7418 Q1270.41 15.7418 1268.83 17.3622 Q1267.29 18.9825 1267.29 23.1955 L1267.29 27.2059 L1279.57 27.2059 L1279.57 32.9987 L1267.29 32.9987 L1267.29 72.576 L1259.8 72.576 L1259.8 32.9987 L1252.67 32.9987 L1252.67 27.2059 L1259.8 27.2059 L1259.8 24.0462 Q1259.8 16.471 1263.33 13.0277 Q1266.85 9.54393 1274.51 9.54393 L1281.55 9.54393 Z" fill="#000000" fill-rule="evenodd" fill-opacity="1" /><path clip-path="url(#clip330)" d="M1288.76 34.9026 L1340.7 34.9026 L1340.7 41.7081 L1288.76 41.7081 L1288.76 34.9026 M1288.76 51.4303 L1340.7 51.4303 L1340.7 58.3168 L1288.76 58.3168 L1288.76 51.4303 Z" fill="#000000" fill-rule="evenodd" fill-opacity="1" /><path clip-path="url(#clip330)" d="M1359.78 65.6895 L1373.15 65.6895 L1373.15 19.5497 L1358.6 22.4663 L1358.6 15.0127 L1373.06 12.096 L1381.25 12.096 L1381.25 65.6895 L1394.61 65.6895 L1394.61 72.576 L1359.78 72.576 L1359.78 65.6895 Z" fill="#000000" fill-rule="evenodd" fill-opacity="1" /><path clip-path="url(#clip330)" d="M1462.91 51.4708 L1461.13 42.1132 Q1459.31 32.5126 1452.1 32.5126 Q1446.67 32.5126 1444.2 36.9686 Q1441.08 42.5588 1441.08 49.9314 Q1441.08 58.8434 1444.12 63.0969 Q1447.2 67.4314 1452.1 67.4314 Q1457.53 67.4314 1460.44 58.8029 L1462.91 51.4708 M1467.09 39.075 L1471.1 27.2059 L1477.74 27.2059 L1469.44 51.7949 L1471.06 60.6663 Q1471.42 62.6513 1472.84 64.3122 Q1474.5 66.2566 1475.8 66.2566 L1479.36 66.2566 L1479.36 72.576 L1474.9 72.576 Q1471.1 72.576 1467.69 69.1732 Q1466.03 67.4719 1465.34 63.9071 Q1463.48 68.4036 1459.67 71.9279 Q1457.89 73.5887 1452.1 73.5887 Q1442.58 73.5887 1437.96 67.4314 Q1433.22 61.0714 1433.22 49.9314 Q1433.22 38.0218 1438.36 32.4315 Q1444.08 26.1931 1452.1 26.1931 Q1464.7 26.1931 1467.09 39.075 Z" fill="#000000" fill-rule="evenodd" fill-opacity="1" /><path clip-path="url(#clip330)" d="M1511.28 58.2358 L1511.28 72.576 L1506.58 72.576 L1506.58 57.3851 Q1506.58 53.6988 1505.12 51.9569 Q1503.67 50.1745 1500.63 50.1745 Q1497.02 50.1745 1494.92 52.362 Q1492.81 54.509 1492.81 58.2358 L1492.81 72.576 L1488.07 72.576 L1488.07 47.1768 L1492.81 47.1768 L1492.81 51.1062 Q1494.39 48.7972 1496.62 47.7034 Q1498.89 46.5692 1502 46.5692 Q1505.08 46.5692 1507.27 47.987 Q1509.46 49.3643 1510.51 52.0379 Q1512.25 49.2428 1514.68 47.906 Q1517.15 46.5692 1520.48 46.5692 Q1524.97 46.5692 1527.36 49.3643 Q1529.79 52.1189 1529.79 57.2231 L1529.79 72.576 L1525.09 72.576 L1525.09 57.3851 Q1525.09 53.7393 1523.64 51.9569 Q1522.18 50.1745 1519.18 50.1745 Q1515.53 50.1745 1513.39 52.362 Q1511.28 54.509 1511.28 58.2358 Z" fill="#000000" fill-rule="evenodd" fill-opacity="1" /><path clip-path="url(#clip330)" d="M1564.39 58.8434 L1564.39 60.8689 L1542.8 60.8689 Q1543.12 65.1628 1545.71 67.4314 Q1548.35 69.6999 1553.01 69.6999 Q1555.72 69.6999 1558.27 69.0922 Q1560.78 68.5251 1563.29 67.3503 L1563.29 71.2797 Q1560.78 72.2519 1558.11 72.738 Q1555.48 73.2241 1552.72 73.2241 Q1545.88 73.2241 1541.91 69.6999 Q1537.9 66.1756 1537.9 60.1397 Q1537.9 53.9013 1541.7 50.215 Q1545.47 46.5692 1551.91 46.5692 Q1557.66 46.5692 1561.03 49.8504 Q1564.39 53.1722 1564.39 58.8434 M1559.69 57.5877 Q1559.65 54.1849 1557.54 52.1189 Q1555.44 50.0935 1551.95 50.0935 Q1548.02 50.0935 1545.67 52.0784 Q1543.32 54.0229 1542.96 57.5877 L1559.69 57.5877 Z" fill="#000000" fill-rule="evenodd" fill-opacity="1" /><path clip-path="url(#clip330)" d="M1587.52 59.8157 Q1581.85 59.8157 1579.66 60.9499 Q1577.43 62.1247 1577.43 64.9198 Q1577.43 67.1478 1579.09 68.4441 Q1580.75 69.7404 1583.59 69.7404 Q1587.48 69.7404 1589.83 67.2693 Q1592.22 64.7983 1592.22 60.7474 L1592.22 59.8157 L1587.52 59.8157 M1596.88 58.0738 L1596.88 72.576 L1592.22 72.576 L1592.22 68.7276 Q1590.6 71.0367 1588.21 72.1304 Q1585.78 73.2241 1582.33 73.2241 Q1577.92 73.2241 1575.33 71.0367 Q1572.73 68.8492 1572.73 65.1628 Q1572.73 60.9094 1575.97 58.7219 Q1579.21 56.5344 1585.62 56.5344 L1592.22 56.5344 L1592.22 56.1293 Q1592.22 53.2532 1590.07 51.6733 Q1587.92 50.0935 1584.08 50.0935 Q1581.65 50.0935 1579.3 50.6201 Q1576.99 51.1467 1574.84 52.2 L1574.84 48.3111 Q1577.43 47.4604 1579.86 47.0148 Q1582.25 46.5692 1584.56 46.5692 Q1590.76 46.5692 1593.84 49.4048 Q1596.88 52.281 1596.88 58.0738 Z" fill="#000000" fill-rule="evenodd" fill-opacity="1" /><path clip-path="url(#clip330)" d="M1630.78 57.2231 L1630.78 72.576 L1626.08 72.576 L1626.08 57.3851 Q1626.08 53.7798 1624.5 51.9974 Q1622.92 50.1745 1619.76 50.1745 Q1615.96 50.1745 1613.77 52.362 Q1611.58 54.509 1611.58 58.2358 L1611.58 72.576 L1606.84 72.576 L1606.84 47.1768 L1611.58 47.1768 L1611.58 51.1062 Q1613.24 48.8377 1615.51 47.7034 Q1617.82 46.5692 1620.82 46.5692 Q1625.72 46.5692 1628.23 49.2833 Q1630.78 51.9974 1630.78 57.2231 Z" fill="#000000" fill-rule="evenodd" fill-opacity="1" /><path clip-path="url(#clip330)" d="M1643.95 34.9026 L1695.88 34.9026 L1695.88 41.7081 L1643.95 41.7081 L1643.95 34.9026 M1643.95 51.4303 L1695.88 51.4303 L1695.88 58.3168 L1643.95 58.3168 L1643.95 51.4303 Z" fill="#000000" fill-rule="evenodd" fill-opacity="1" /><path clip-path="url(#clip330)" d="M1736.03 19.2256 L1715.37 51.5113 L1736.03 51.5113 L1736.03 19.2256 M1733.88 12.096 L1744.17 12.096 L1744.17 51.5113 L1752.8 51.5113 L1752.8 58.3168 L1744.17 58.3168 L1744.17 72.576 L1736.03 72.576 L1736.03 58.3168 L1708.72 58.3168 L1708.72 50.4176 L1733.88 12.096 Z" fill="#000000" fill-rule="evenodd" fill-opacity="1" /><path clip-path="url(#clip330)" d="M1766.33 62.2867 L1774.87 62.2867 L1774.87 72.576 L1766.33 72.576 L1766.33 62.2867 Z" fill="#000000" fill-rule="evenodd" fill-opacity="1" /><path clip-path="url(#clip330)" d="M1810.2 17.4837 Q1803.88 17.4837 1800.68 23.7221 Q1797.52 29.92 1797.52 42.3968 Q1797.52 54.833 1800.68 61.0714 Q1803.88 67.2693 1810.2 67.2693 Q1816.56 67.2693 1819.72 61.0714 Q1822.92 54.833 1822.92 42.3968 Q1822.92 29.92 1819.72 23.7221 Q1816.56 17.4837 1810.2 17.4837 M1810.2 11.0023 Q1820.36 11.0023 1825.71 19.0636 Q1831.1 27.0843 1831.1 42.3968 Q1831.1 57.6687 1825.71 65.73 Q1820.36 73.7508 1810.2 73.7508 Q1800.03 73.7508 1794.64 65.73 Q1789.29 57.6687 1789.29 42.3968 Q1789.29 27.0843 1794.64 19.0636 Q1800.03 11.0023 1810.2 11.0023 Z" fill="#000000" fill-rule="evenodd" fill-opacity="1" /><path clip-path="url(#clip330)" d="M1897.25 51.4708 L1895.47 42.1132 Q1893.65 32.5126 1886.44 32.5126 Q1881.01 32.5126 1878.54 36.9686 Q1875.42 42.5588 1875.42 49.9314 Q1875.42 58.8434 1878.45 63.0969 Q1881.53 67.4314 1886.44 67.4314 Q1891.86 67.4314 1894.78 58.8029 L1897.25 51.4708 M1901.42 39.075 L1905.43 27.2059 L1912.08 27.2059 L1903.77 51.7949 L1905.39 60.6663 Q1905.76 62.6513 1907.18 64.3122 Q1908.84 66.2566 1910.13 66.2566 L1913.7 66.2566 L1913.7 72.576 L1909.24 72.576 Q1905.43 72.576 1902.03 69.1732 Q1900.37 67.4719 1899.68 63.9071 Q1897.82 68.4036 1894.01 71.9279 Q1892.23 73.5887 1886.44 73.5887 Q1876.92 73.5887 1872.3 67.4314 Q1867.56 61.0714 1867.56 49.9314 Q1867.56 38.0218 1872.7 32.4315 Q1878.41 26.1931 1886.44 26.1931 Q1899.03 26.1931 1901.42 39.075 Z" fill="#000000" fill-rule="evenodd" fill-opacity="1" /><path clip-path="url(#clip330)" d="M1935.57 59.8157 Q1929.9 59.8157 1927.71 60.9499 Q1925.49 62.1247 1925.49 64.9198 Q1925.49 67.1478 1927.15 68.4441 Q1928.81 69.7404 1931.64 69.7404 Q1935.53 69.7404 1937.88 67.2693 Q1940.27 64.7983 1940.27 60.7474 L1940.27 59.8157 L1935.57 59.8157 M1944.93 58.0738 L1944.93 72.576 L1940.27 72.576 L1940.27 68.7276 Q1938.65 71.0367 1936.26 72.1304 Q1933.83 73.2241 1930.39 73.2241 Q1925.97 73.2241 1923.38 71.0367 Q1920.79 68.8492 1920.79 65.1628 Q1920.79 60.9094 1924.03 58.7219 Q1927.27 56.5344 1933.67 56.5344 L1940.27 56.5344 L1940.27 56.1293 Q1940.27 53.2532 1938.12 51.6733 Q1935.98 50.0935 1932.13 50.0935 Q1929.7 50.0935 1927.35 50.6201 Q1925.04 51.1467 1922.89 52.2 L1922.89 48.3111 Q1925.49 47.4604 1927.92 47.0148 Q1930.31 46.5692 1932.62 46.5692 Q1938.81 46.5692 1941.89 49.4048 Q1944.93 52.281 1944.93 58.0738 Z" fill="#000000" fill-rule="evenodd" fill-opacity="1" /><path clip-path="url(#clip330)" d="M1978.11 58.2358 L1978.11 72.576 L1973.41 72.576 L1973.41 57.3851 Q1973.41 53.6988 1971.95 51.9569 Q1970.49 50.1745 1967.45 50.1745 Q1963.85 50.1745 1961.74 52.362 Q1959.64 54.509 1959.64 58.2358 L1959.64 72.576 L1954.9 72.576 L1954.9 47.1768 L1959.64 47.1768 L1959.64 51.1062 Q1961.21 48.7972 1963.44 47.7034 Q1965.71 46.5692 1968.83 46.5692 Q1971.91 46.5692 1974.1 47.987 Q1976.28 49.3643 1977.34 52.0379 Q1979.08 49.2428 1981.51 47.906 Q1983.98 46.5692 1987.3 46.5692 Q1991.8 46.5692 1994.19 49.3643 Q1996.62 52.1189 1996.62 57.2231 L1996.62 72.576 L1991.92 72.576 L1991.92 57.3851 Q1991.92 53.7393 1990.46 51.9569 Q1989 50.1745 1986.01 50.1745 Q1982.36 50.1745 1980.21 52.362 Q1978.11 54.509 1978.11 58.2358 Z" fill="#000000" fill-rule="evenodd" fill-opacity="1" /><path clip-path="url(#clip330)" d="M2011.32 68.7682 L2011.32 82.2577 L2006.59 82.2577 L2006.59 47.1768 L2011.32 47.1768 L2011.32 51.0252 Q2012.78 48.7567 2015.05 47.6629 Q2017.32 46.5692 2020.44 46.5692 Q2025.66 46.5692 2028.91 50.215 Q2032.15 53.9013 2032.15 59.8967 Q2032.15 65.892 2028.91 69.5783 Q2025.66 73.2241 2020.44 73.2241 Q2017.32 73.2241 2015.05 72.1304 Q2012.78 71.0367 2011.32 68.7682 M2025.18 67.1073 Q2027.29 64.5147 2027.29 59.8967 Q2027.29 55.2786 2025.18 52.6861 Q2023.03 50.053 2019.3 50.053 Q2015.58 50.053 2013.43 52.6861 Q2011.32 55.2786 2011.32 59.8967 Q2011.32 64.5147 2013.43 67.1073 Q2015.58 69.7404 2019.3 69.7404 Q2023.03 69.7404 2025.18 67.1073 Z" fill="#000000" fill-rule="evenodd" fill-opacity="1" /><path clip-path="url(#clip330)" d="M2046.16 34.9026 L2098.09 34.9026 L2098.09 41.7081 L2046.16 41.7081 L2046.16 34.9026 M2046.16 51.4303 L2098.09 51.4303 L2098.09 58.3168 L2046.16 58.3168 L2046.16 51.4303 Z" fill="#000000" fill-rule="evenodd" fill-opacity="1" /><path clip-path="url(#clip330)" d="M2138.24 19.2256 L2117.58 51.5113 L2138.24 51.5113 L2138.24 19.2256 M2136.09 12.096 L2146.38 12.096 L2146.38 51.5113 L2155.01 51.5113 L2155.01 58.3168 L2146.38 58.3168 L2146.38 72.576 L2138.24 72.576 L2138.24 58.3168 L2110.94 58.3168 L2110.94 50.4176 L2136.09 12.096 Z" fill="#000000" fill-rule="evenodd" fill-opacity="1" /><path clip-path="url(#clip330)" d="M2168.54 62.2867 L2177.09 62.2867 L2177.09 72.576 L2168.54 72.576 L2168.54 62.2867 Z" fill="#000000" fill-rule="evenodd" fill-opacity="1" /><path clip-path="url(#clip330)" d="M2212.41 17.4837 Q2206.09 17.4837 2202.89 23.7221 Q2199.73 29.92 2199.73 42.3968 Q2199.73 54.833 2202.89 61.0714 Q2206.09 67.2693 2212.41 67.2693 Q2218.77 67.2693 2221.93 61.0714 Q2225.13 54.833 2225.13 42.3968 Q2225.13 29.92 2221.93 23.7221 Q2218.77 17.4837 2212.41 17.4837 M2212.41 11.0023 Q2222.58 11.0023 2227.93 19.0636 Q2233.31 27.0843 2233.31 42.3968 Q2233.31 57.6687 2227.93 65.73 Q2222.58 73.7508 2212.41 73.7508 Q2202.24 73.7508 2196.86 65.73 Q2191.51 57.6687 2191.51 42.3968 Q2191.51 27.0843 2196.86 19.0636 Q2202.24 11.0023 2212.41 11.0023 Z" fill="#000000" fill-rule="evenodd" fill-opacity="1" /><polyline clip-path="url(#clip332)" style="stroke:#009af9; stroke-linecap:butt; stroke-linejoin:round; stroke-width:4; stroke-opacity:1; fill:none" points="
  271.931,448.399 278.688,748.472 285.444,492.009 292.201,271.813 298.958,127.969 305.714,166.157 312.471,365.053 319.227,632.342 325.984,870.197 332.74,939.027 
  339.497,960.779 346.254,749.741 353.01,510.488 359.767,294.879 366.523,184.994 373.28,221.07 380.037,418.172 386.793,665.197 393.55,910.454 400.306,959.909 
  407.063,940.293 413.819,738.424 420.576,525.37 427.333,303.162 434.089,209.324 440.846,267.522 447.602,434.4 454.359,683.873 461.116,937.229 467.872,993.218 
  474.629,929.488 481.385,719.869 488.142,540.744 494.898,302.167 501.655,217.272 508.412,300.176 515.168,450.554 521.925,697.497 528.681,957.327 535.438,1014.62 
  542.194,945.565 548.951,703.816 555.708,548.564 562.464,287.655 569.221,215.046 575.977,305.988 582.734,466.377 589.491,720.479 596.247,975.732 603.004,1069.97 
  609.76,955.374 616.517,716.775 623.273,563.165 630.03,302.431 636.787,183.405 643.543,259.837 650.3,493.356 657.056,728.333 663.813,997.338 670.57,1063.51 
  677.326,946.58 684.083,682.041 690.839,520.461 697.596,299.836 704.352,228.903 711.109,294.487 717.866,481.308 724.622,759.415 731.379,1022.24 738.135,1098.78 
  744.892,954.045 751.649,686.324 758.405,530.009 765.162,287.095 771.918,231.134 778.675,282.676 785.431,490.054 792.188,767.791 798.945,1029.79 805.701,1096.58 
  812.458,968.207 819.214,692.479 825.971,530.251 832.728,295.047 839.484,243.117 846.241,298.01 852.997,498.709 859.754,775.99 866.51,1031.58 873.267,1067.29 
  880.024,971.463 886.78,690.646 893.537,524.829 900.293,279.008 907.05,265.599 913.807,334.858 920.563,507.618 927.32,779.635 934.076,1027.65 940.833,1067.73 
  947.589,936.168 954.346,694.962 961.103,512.921 967.859,264.085 974.616,298.005 981.372,341.097 988.129,516.505 994.886,793.53 1001.64,1024.5 1008.4,1038.83 
  1015.16,910.481 1021.91,696.858 1028.67,509.149 1035.43,280.976 1042.18,294.339 1048.94,343.091 1055.69,530.009 1062.45,802.407 1069.21,1024 1075.96,1002.88 
  1082.72,894.37 1089.48,683.649 1096.23,508.469 1102.99,270.129 1109.75,292.596 1116.5,349.269 1123.26,525.455 1130.02,801.181 1136.77,1026.99 1143.53,998.284 
  1150.29,886.675 1157.04,682.163 1163.8,506.369 1170.56,299.732 1177.31,288.603 1184.07,359.554 1190.83,544.483 1197.58,812.915 1204.34,1034.94 1211.1,1016.62 
  1217.85,896.473 1224.61,689.86 1231.37,501.423 1238.12,285.509 1244.88,279.465 1251.64,358.496 1258.39,624.933 1265.15,812.078 1271.91,1046.55 1278.66,1034.65 
  1285.42,910.844 1292.18,632.638 1298.93,505.787 1305.69,333.582 1312.44,266.961 1319.2,355.459 1325.96,642.27 1332.71,816.219 1339.47,1030.66 1346.23,1087.55 
  1352.98,925.394 1359.74,643.252 1366.5,504.924 1373.25,321.525 1380.01,250.474 1386.77,346.06 1393.52,656.139 1400.28,818.836 1407.04,952.191 1413.79,1109.47 
  1420.55,935.976 1427.31,593.044 1434.06,503.262 1440.82,313.446 1447.58,246.274 1454.33,330.208 1461.09,672.859 1467.85,811.705 1474.6,960.843 1481.36,1132.5 
  1488.12,941.337 1494.87,601.054 1501.63,503.332 1508.39,304.041 1515.14,256.911 1521.9,349.329 1528.66,679.559 1535.41,822.342 1542.17,977.524 1548.93,1137.11 
  1555.68,948.913 1562.44,609.794 1569.2,500.433 1575.95,288.732 1582.71,284.683 1589.46,419.932 1596.22,691.819 1602.98,817.526 1609.73,985.557 1616.49,1129.53 
  1623.25,874.65 1630,574.543 1636.76,502.969 1643.52,267.546 1650.27,336.045 1657.03,405.301 1663.79,703.066 1670.54,821.052 1677.3,1005.8 1684.06,1015.74 
  1690.81,879.982 1697.57,580.189 1704.33,496.288 1711.08,241.102 1717.84,323.073 1724.6,393.518 1731.35,699.769 1738.11,827.623 1744.87,1034.38 1751.62,928.041 
  1758.38,828.717 1765.14,556.083 1771.89,495.388 1778.65,204.975 1785.41,312.758 1792.16,384.839 1798.92,716.919 1805.68,838.764 1812.43,1073.38 1819.19,923.271 
  1825.95,791.528 1832.7,570.631 1839.46,493.697 1846.21,181.105 1852.97,292.202 1859.73,370.498 1866.48,720.49 1873.24,838.997 1880,1094.26 1886.75,935.276 
  1893.51,788.498 1900.27,588.032 1907.02,494.347 1913.78,137.162 1920.54,264.612 1927.29,351.331 1934.05,717.787 1940.81,853.055 1947.56,1119.77 1954.32,976.415 
  1961.08,804.499 1967.83,583.099 1974.59,489.88 1981.35,132.249 1988.1,223.793 1994.86,329.953 2001.62,709.195 2008.37,860.631 2015.13,1120.6 2021.89,1005.01 
  2028.64,818.905 2035.4,589.115 2042.16,483.71 2048.91,160.286 2055.67,174.82 2062.43,307.983 2069.18,707.043 2075.94,865.724 2082.7,1116.58 2089.45,1049.34 
  2096.21,835.948 2102.97,605.167 2109.72,478.2 2116.48,132.45 2123.23,134.556 2129.99,280.471 2136.75,694.546 2143.5,884.45 2150.26,1125.15 2157.02,1081.47 
  2163.77,837.568 2170.53,617.25 2177.29,470.282 2184.04,207.329 2190.8,176.915 2197.56,257.326 2204.31,688.466 2211.07,897.607 2217.83,1123.74 2224.58,1078.59 
  2231.34,840.849 2238.1,629.137 2244.85,462.732 2251.61,318.051 2258.37,239.211 2265.12,265.621 2271.88,684.333 2278.64,917.718 2285.39,884.052 2292.15,1068.77 
  
  "/>
</svg>
