<?xml version="1.0" encoding="utf-8"?>
<svg xmlns="http://www.w3.org/2000/svg" xmlns:xlink="http://www.w3.org/1999/xlink" width="600" height="400" viewBox="0 0 2400 1600">
<defs>
  <clipPath id="clip250">
    <rect x="0" y="0" width="2400" height="1600"/>
  </clipPath>
</defs>
<path clip-path="url(#clip250)" d="
M0 1600 L2400 1600 L2400 0 L0 0  Z
  " fill="#ffffff" fill-rule="evenodd" fill-opacity="1"/>
<defs>
  <clipPath id="clip251">
    <rect x="480" y="0" width="1681" height="1600"/>
  </clipPath>
</defs>
<path clip-path="url(#clip250)" d="
M175.445 1423.18 L2352.76 1423.18 L2352.76 123.472 L175.445 123.472  Z
  " fill="#ffffff" fill-rule="evenodd" fill-opacity="1"/>
<defs>
  <clipPath id="clip252">
    <rect x="175" y="123" width="2178" height="1301"/>
  </clipPath>
</defs>
<polyline clip-path="url(#clip252)" style="stroke:#000000; stroke-linecap:butt; stroke-linejoin:round; stroke-width:2; stroke-opacity:0.1; fill:none" points="
  237.067,1423.18 237.067,123.472 
  "/>
<polyline clip-path="url(#clip252)" style="stroke:#000000; stroke-linecap:butt; stroke-linejoin:round; stroke-width:2; stroke-opacity:0.1; fill:none" points="
  921.756,1423.18 921.756,123.472 
  "/>
<polyline clip-path="url(#clip252)" style="stroke:#000000; stroke-linecap:butt; stroke-linejoin:round; stroke-width:2; stroke-opacity:0.1; fill:none" points="
  1606.45,1423.18 1606.45,123.472 
  "/>
<polyline clip-path="url(#clip252)" style="stroke:#000000; stroke-linecap:butt; stroke-linejoin:round; stroke-width:2; stroke-opacity:0.1; fill:none" points="
  2291.13,1423.18 2291.13,123.472 
  "/>
<polyline clip-path="url(#clip250)" style="stroke:#000000; stroke-linecap:butt; stroke-linejoin:round; stroke-width:4; stroke-opacity:1; fill:none" points="
  175.445,1423.18 2352.76,1423.18 
  "/>
<polyline clip-path="url(#clip250)" style="stroke:#000000; stroke-linecap:butt; stroke-linejoin:round; stroke-width:4; stroke-opacity:1; fill:none" points="
  237.067,1423.18 237.067,1404.28 
  "/>
<polyline clip-path="url(#clip250)" style="stroke:#000000; stroke-linecap:butt; stroke-linejoin:round; stroke-width:4; stroke-opacity:1; fill:none" points="
  921.756,1423.18 921.756,1404.28 
  "/>
<polyline clip-path="url(#clip250)" style="stroke:#000000; stroke-linecap:butt; stroke-linejoin:round; stroke-width:4; stroke-opacity:1; fill:none" points="
  1606.45,1423.18 1606.45,1404.28 
  "/>
<polyline clip-path="url(#clip250)" style="stroke:#000000; stroke-linecap:butt; stroke-linejoin:round; stroke-width:4; stroke-opacity:1; fill:none" points="
  2291.13,1423.18 2291.13,1404.28 
  "/>
<path clip-path="url(#clip250)" d="M237.067 1454.1 Q233.456 1454.1 231.627 1457.66 Q229.822 1461.2 229.822 1468.33 Q229.822 1475.44 231.627 1479.01 Q233.456 1482.55 237.067 1482.55 Q240.701 1482.55 242.507 1479.01 Q244.336 1475.44 244.336 1468.33 Q244.336 1461.2 242.507 1457.66 Q240.701 1454.1 237.067 1454.1 M237.067 1450.39 Q242.877 1450.39 245.933 1455 Q249.012 1459.58 249.012 1468.33 Q249.012 1477.06 245.933 1481.67 Q242.877 1486.25 237.067 1486.25 Q231.257 1486.25 228.178 1481.67 Q225.123 1477.06 225.123 1468.33 Q225.123 1459.58 228.178 1455 Q231.257 1450.39 237.067 1450.39 Z" fill="#000000" fill-rule="evenodd" fill-opacity="1" /><path clip-path="url(#clip250)" d="M896.444 1481.64 L904.083 1481.64 L904.083 1455.28 L895.772 1456.95 L895.772 1452.69 L904.036 1451.02 L908.712 1451.02 L908.712 1481.64 L916.351 1481.64 L916.351 1485.58 L896.444 1485.58 L896.444 1481.64 Z" fill="#000000" fill-rule="evenodd" fill-opacity="1" /><path clip-path="url(#clip250)" d="M935.795 1454.1 Q932.184 1454.1 930.356 1457.66 Q928.55 1461.2 928.55 1468.33 Q928.55 1475.44 930.356 1479.01 Q932.184 1482.55 935.795 1482.55 Q939.43 1482.55 941.235 1479.01 Q943.064 1475.44 943.064 1468.33 Q943.064 1461.2 941.235 1457.66 Q939.43 1454.1 935.795 1454.1 M935.795 1450.39 Q941.606 1450.39 944.661 1455 Q947.74 1459.58 947.74 1468.33 Q947.74 1477.06 944.661 1481.67 Q941.606 1486.25 935.795 1486.25 Q929.985 1486.25 926.907 1481.67 Q923.851 1477.06 923.851 1468.33 Q923.851 1459.58 926.907 1455 Q929.985 1450.39 935.795 1450.39 Z" fill="#000000" fill-rule="evenodd" fill-opacity="1" /><path clip-path="url(#clip250)" d="M1585.22 1481.64 L1601.54 1481.64 L1601.54 1485.58 L1579.59 1485.58 L1579.59 1481.64 Q1582.26 1478.89 1586.84 1474.26 Q1591.45 1469.61 1592.63 1468.27 Q1594.87 1465.74 1595.75 1464.01 Q1596.65 1462.25 1596.65 1460.56 Q1596.65 1457.8 1594.71 1456.07 Q1592.79 1454.33 1589.69 1454.33 Q1587.49 1454.33 1585.03 1455.09 Q1582.6 1455.86 1579.82 1457.41 L1579.82 1452.69 Q1582.65 1451.55 1585.1 1450.97 Q1587.56 1450.39 1589.59 1450.39 Q1594.96 1450.39 1598.16 1453.08 Q1601.35 1455.77 1601.35 1460.26 Q1601.35 1462.39 1600.54 1464.31 Q1599.76 1466.2 1597.65 1468.8 Q1597.07 1469.47 1593.97 1472.69 Q1590.87 1475.88 1585.22 1481.64 Z" fill="#000000" fill-rule="evenodd" fill-opacity="1" /><path clip-path="url(#clip250)" d="M1621.35 1454.1 Q1617.74 1454.1 1615.91 1457.66 Q1614.11 1461.2 1614.11 1468.33 Q1614.11 1475.44 1615.91 1479.01 Q1617.74 1482.55 1621.35 1482.55 Q1624.99 1482.55 1626.79 1479.01 Q1628.62 1475.44 1628.62 1468.33 Q1628.62 1461.2 1626.79 1457.66 Q1624.99 1454.1 1621.35 1454.1 M1621.35 1450.39 Q1627.16 1450.39 1630.22 1455 Q1633.3 1459.58 1633.3 1468.33 Q1633.3 1477.06 1630.22 1481.67 Q1627.16 1486.25 1621.35 1486.25 Q1615.54 1486.25 1612.46 1481.67 Q1609.41 1477.06 1609.41 1468.33 Q1609.41 1459.58 1612.46 1455 Q1615.54 1450.39 1621.35 1450.39 Z" fill="#000000" fill-rule="evenodd" fill-opacity="1" /><path clip-path="url(#clip250)" d="M2279.98 1466.95 Q2283.33 1467.66 2285.21 1469.93 Q2287.11 1472.2 2287.11 1475.53 Q2287.11 1480.65 2283.59 1483.45 Q2280.07 1486.25 2273.59 1486.25 Q2271.41 1486.25 2269.1 1485.81 Q2266.81 1485.39 2264.35 1484.54 L2264.35 1480.02 Q2266.3 1481.16 2268.61 1481.74 Q2270.93 1482.32 2273.45 1482.32 Q2277.85 1482.32 2280.14 1480.58 Q2282.45 1478.84 2282.45 1475.53 Q2282.45 1472.48 2280.3 1470.77 Q2278.17 1469.03 2274.35 1469.03 L2270.32 1469.03 L2270.32 1465.19 L2274.54 1465.19 Q2277.99 1465.19 2279.81 1463.82 Q2281.64 1462.43 2281.64 1459.84 Q2281.64 1457.18 2279.75 1455.77 Q2277.87 1454.33 2274.35 1454.33 Q2272.43 1454.33 2270.23 1454.75 Q2268.03 1455.16 2265.39 1456.04 L2265.39 1451.88 Q2268.06 1451.14 2270.37 1450.77 Q2272.71 1450.39 2274.77 1450.39 Q2280.09 1450.39 2283.19 1452.83 Q2286.3 1455.23 2286.3 1459.35 Q2286.3 1462.22 2284.65 1464.21 Q2283.01 1466.18 2279.98 1466.95 Z" fill="#000000" fill-rule="evenodd" fill-opacity="1" /><path clip-path="url(#clip250)" d="M2305.97 1454.1 Q2302.36 1454.1 2300.53 1457.66 Q2298.73 1461.2 2298.73 1468.33 Q2298.73 1475.44 2300.53 1479.01 Q2302.36 1482.55 2305.97 1482.55 Q2309.61 1482.55 2311.41 1479.01 Q2313.24 1475.44 2313.24 1468.33 Q2313.24 1461.2 2311.41 1457.66 Q2309.61 1454.1 2305.97 1454.1 M2305.97 1450.39 Q2311.78 1450.39 2314.84 1455 Q2317.92 1459.58 2317.92 1468.33 Q2317.92 1477.06 2314.84 1481.67 Q2311.78 1486.25 2305.97 1486.25 Q2300.16 1486.25 2297.08 1481.67 Q2294.03 1477.06 2294.03 1468.33 Q2294.03 1459.58 2297.08 1455 Q2300.16 1450.39 2305.97 1450.39 Z" fill="#000000" fill-rule="evenodd" fill-opacity="1" /><path clip-path="url(#clip250)" d="M1212.41 1522.27 L1212.41 1532.4 L1224.47 1532.4 L1224.47 1536.95 L1212.41 1536.95 L1212.41 1556.3 Q1212.41 1560.66 1213.59 1561.9 Q1214.8 1563.14 1218.46 1563.14 L1224.47 1563.14 L1224.47 1568.04 L1218.46 1568.04 Q1211.68 1568.04 1209.1 1565.53 Q1206.52 1562.98 1206.52 1556.3 L1206.52 1536.95 L1202.23 1536.95 L1202.23 1532.4 L1206.52 1532.4 L1206.52 1522.27 L1212.41 1522.27 Z" fill="#000000" fill-rule="evenodd" fill-opacity="1" /><path clip-path="url(#clip250)" d="M1252.36 1518.52 L1265.85 1518.52 L1265.85 1523.07 L1258.21 1523.07 L1258.21 1572.09 L1265.85 1572.09 L1265.85 1576.64 L1252.36 1576.64 L1252.36 1518.52 Z" fill="#000000" fill-rule="evenodd" fill-opacity="1" /><path clip-path="url(#clip250)" d="M1301.05 1533.45 L1301.05 1538.98 Q1298.57 1537.71 1295.9 1537.07 Q1293.22 1536.44 1290.36 1536.44 Q1286 1536.44 1283.8 1537.77 Q1281.64 1539.11 1281.64 1541.79 Q1281.64 1543.82 1283.2 1545 Q1284.76 1546.15 1289.47 1547.2 L1291.47 1547.64 Q1297.71 1548.98 1300.32 1551.43 Q1302.96 1553.85 1302.96 1558.21 Q1302.96 1563.17 1299.02 1566.07 Q1295.1 1568.97 1288.23 1568.97 Q1285.36 1568.97 1282.24 1568.39 Q1279.16 1567.85 1275.72 1566.74 L1275.72 1560.69 Q1278.96 1562.38 1282.12 1563.24 Q1285.27 1564.07 1288.35 1564.07 Q1292.49 1564.07 1294.72 1562.66 Q1296.95 1561.23 1296.95 1558.65 Q1296.95 1556.27 1295.32 1554.99 Q1293.73 1553.72 1288.29 1552.54 L1286.25 1552.07 Q1280.81 1550.92 1278.39 1548.56 Q1275.97 1546.18 1275.97 1542.04 Q1275.97 1537.01 1279.54 1534.27 Q1283.1 1531.54 1289.66 1531.54 Q1292.91 1531.54 1295.77 1532.01 Q1298.63 1532.49 1301.05 1533.45 Z" fill="#000000" fill-rule="evenodd" fill-opacity="1" /><path clip-path="url(#clip250)" d="M1325.98 1518.52 L1325.98 1576.64 L1312.48 1576.64 L1312.48 1572.09 L1320.09 1572.09 L1320.09 1523.07 L1312.48 1523.07 L1312.48 1518.52 L1325.98 1518.52 Z" fill="#000000" fill-rule="evenodd" fill-opacity="1" /><polyline clip-path="url(#clip252)" style="stroke:#000000; stroke-linecap:butt; stroke-linejoin:round; stroke-width:2; stroke-opacity:0.1; fill:none" points="
  175.445,1386.4 2352.76,1386.4 
  "/>
<polyline clip-path="url(#clip252)" style="stroke:#000000; stroke-linecap:butt; stroke-linejoin:round; stroke-width:2; stroke-opacity:0.1; fill:none" points="
  175.445,1079.87 2352.76,1079.87 
  "/>
<polyline clip-path="url(#clip252)" style="stroke:#000000; stroke-linecap:butt; stroke-linejoin:round; stroke-width:2; stroke-opacity:0.1; fill:none" points="
  175.445,773.326 2352.76,773.326 
  "/>
<polyline clip-path="url(#clip252)" style="stroke:#000000; stroke-linecap:butt; stroke-linejoin:round; stroke-width:2; stroke-opacity:0.1; fill:none" points="
  175.445,466.787 2352.76,466.787 
  "/>
<polyline clip-path="url(#clip252)" style="stroke:#000000; stroke-linecap:butt; stroke-linejoin:round; stroke-width:2; stroke-opacity:0.1; fill:none" points="
  175.445,160.248 2352.76,160.248 
  "/>
<polyline clip-path="url(#clip250)" style="stroke:#000000; stroke-linecap:butt; stroke-linejoin:round; stroke-width:4; stroke-opacity:1; fill:none" points="
  175.445,1423.18 175.445,123.472 
  "/>
<polyline clip-path="url(#clip250)" style="stroke:#000000; stroke-linecap:butt; stroke-linejoin:round; stroke-width:4; stroke-opacity:1; fill:none" points="
  175.445,1386.4 194.343,1386.4 
  "/>
<polyline clip-path="url(#clip250)" style="stroke:#000000; stroke-linecap:butt; stroke-linejoin:round; stroke-width:4; stroke-opacity:1; fill:none" points="
  175.445,1079.87 194.343,1079.87 
  "/>
<polyline clip-path="url(#clip250)" style="stroke:#000000; stroke-linecap:butt; stroke-linejoin:round; stroke-width:4; stroke-opacity:1; fill:none" points="
  175.445,773.326 194.343,773.326 
  "/>
<polyline clip-path="url(#clip250)" style="stroke:#000000; stroke-linecap:butt; stroke-linejoin:round; stroke-width:4; stroke-opacity:1; fill:none" points="
  175.445,466.787 194.343,466.787 
  "/>
<polyline clip-path="url(#clip250)" style="stroke:#000000; stroke-linecap:butt; stroke-linejoin:round; stroke-width:4; stroke-opacity:1; fill:none" points="
  175.445,160.248 194.343,160.248 
  "/>
<path clip-path="url(#clip250)" d="M127.501 1372.2 Q123.89 1372.2 122.061 1375.77 Q120.255 1379.31 120.255 1386.44 Q120.255 1393.55 122.061 1397.11 Q123.89 1400.65 127.501 1400.65 Q131.135 1400.65 132.941 1397.11 Q134.769 1393.55 134.769 1386.44 Q134.769 1379.31 132.941 1375.77 Q131.135 1372.2 127.501 1372.2 M127.501 1368.5 Q133.311 1368.5 136.367 1373.11 Q139.445 1377.69 139.445 1386.44 Q139.445 1395.17 136.367 1399.77 Q133.311 1404.36 127.501 1404.36 Q121.691 1404.36 118.612 1399.77 Q115.556 1395.17 115.556 1386.44 Q115.556 1377.69 118.612 1373.11 Q121.691 1368.5 127.501 1368.5 Z" fill="#000000" fill-rule="evenodd" fill-opacity="1" /><path clip-path="url(#clip250)" d="M123.126 1093.21 L139.445 1093.21 L139.445 1097.15 L117.501 1097.15 L117.501 1093.21 Q120.163 1090.46 124.746 1085.83 Q129.353 1081.17 130.533 1079.83 Q132.779 1077.31 133.658 1075.57 Q134.561 1073.81 134.561 1072.12 Q134.561 1069.37 132.617 1067.63 Q130.695 1065.9 127.593 1065.9 Q125.394 1065.9 122.941 1066.66 Q120.51 1067.42 117.732 1068.97 L117.732 1064.25 Q120.556 1063.12 123.01 1062.54 Q125.464 1061.96 127.501 1061.96 Q132.871 1061.96 136.066 1064.65 Q139.26 1067.33 139.26 1071.82 Q139.26 1073.95 138.45 1075.87 Q137.663 1077.77 135.556 1080.36 Q134.978 1081.03 131.876 1084.25 Q128.774 1087.45 123.126 1093.21 Z" fill="#000000" fill-rule="evenodd" fill-opacity="1" /><path clip-path="url(#clip250)" d="M129.862 760.12 L118.056 778.569 L129.862 778.569 L129.862 760.12 M128.635 756.046 L134.515 756.046 L134.515 778.569 L139.445 778.569 L139.445 782.458 L134.515 782.458 L134.515 790.606 L129.862 790.606 L129.862 782.458 L114.26 782.458 L114.26 777.944 L128.635 756.046 Z" fill="#000000" fill-rule="evenodd" fill-opacity="1" /><path clip-path="url(#clip250)" d="M127.917 464.923 Q124.769 464.923 122.918 467.076 Q121.089 469.229 121.089 472.979 Q121.089 476.706 122.918 478.882 Q124.769 481.035 127.917 481.035 Q131.066 481.035 132.894 478.882 Q134.746 476.706 134.746 472.979 Q134.746 469.229 132.894 467.076 Q131.066 464.923 127.917 464.923 M137.2 450.271 L137.2 454.53 Q135.441 453.697 133.635 453.257 Q131.853 452.817 130.093 452.817 Q125.464 452.817 123.01 455.942 Q120.58 459.067 120.232 465.386 Q121.598 463.373 123.658 462.308 Q125.718 461.22 128.195 461.22 Q133.404 461.22 136.413 464.391 Q139.445 467.539 139.445 472.979 Q139.445 478.303 136.297 481.521 Q133.149 484.738 127.917 484.738 Q121.922 484.738 118.751 480.155 Q115.58 475.548 115.58 466.822 Q115.58 458.627 119.468 453.766 Q123.357 448.882 129.908 448.882 Q131.667 448.882 133.45 449.229 Q135.255 449.576 137.2 450.271 Z" fill="#000000" fill-rule="evenodd" fill-opacity="1" /><path clip-path="url(#clip250)" d="M127.593 161.116 Q124.26 161.116 122.339 162.898 Q120.441 164.681 120.441 167.806 Q120.441 170.931 122.339 172.713 Q124.26 174.495 127.593 174.495 Q130.927 174.495 132.848 172.713 Q134.769 170.908 134.769 167.806 Q134.769 164.681 132.848 162.898 Q130.95 161.116 127.593 161.116 M122.918 159.125 Q119.908 158.384 118.218 156.324 Q116.552 154.264 116.552 151.301 Q116.552 147.158 119.492 144.75 Q122.455 142.343 127.593 142.343 Q132.755 142.343 135.695 144.75 Q138.635 147.158 138.635 151.301 Q138.635 154.264 136.945 156.324 Q135.279 158.384 132.292 159.125 Q135.672 159.912 137.547 162.204 Q139.445 164.496 139.445 167.806 Q139.445 172.829 136.367 175.514 Q133.311 178.199 127.593 178.199 Q121.876 178.199 118.797 175.514 Q115.742 172.829 115.742 167.806 Q115.742 164.496 117.64 162.204 Q119.538 159.912 122.918 159.125 M121.205 151.741 Q121.205 154.426 122.871 155.931 Q124.561 157.435 127.593 157.435 Q130.603 157.435 132.292 155.931 Q134.005 154.426 134.005 151.741 Q134.005 149.056 132.292 147.551 Q130.603 146.047 127.593 146.047 Q124.561 146.047 122.871 147.551 Q121.205 149.056 121.205 151.741 Z" fill="#000000" fill-rule="evenodd" fill-opacity="1" /><path clip-path="url(#clip250)" d="M46.0847 892.572 Q46.0847 899.669 47.7079 902.407 Q49.3312 905.144 53.2461 905.144 Q56.3653 905.144 58.2114 903.107 Q60.0256 901.038 60.0256 897.505 Q60.0256 892.635 56.5881 889.707 Q53.1188 886.747 47.3897 886.747 L46.0847 886.747 L46.0847 892.572 M43.6657 880.891 L64.0042 880.891 L64.0042 886.747 L58.5933 886.747 Q61.8398 888.752 63.3994 891.744 Q64.9272 894.736 64.9272 899.065 Q64.9272 904.539 61.8716 907.786 Q58.7843 911 53.6281 911 Q47.6125 911 44.5569 906.99 Q41.5014 902.948 41.5014 894.959 L41.5014 886.747 L40.9285 886.747 Q36.8862 886.747 34.6901 889.421 Q32.4621 892.062 32.4621 896.868 Q32.4621 899.924 33.1941 902.82 Q33.9262 905.717 35.3903 908.39 L29.9795 908.39 Q28.7381 905.176 28.1334 902.152 Q27.4968 899.128 27.4968 896.264 Q27.4968 888.529 31.5072 884.71 Q35.5176 880.891 43.6657 880.891 Z" fill="#000000" fill-rule="evenodd" fill-opacity="1" /><path clip-path="url(#clip250)" d="M14.479 868.827 L14.479 862.971 L64.0042 862.971 L64.0042 868.827 L14.479 868.827 Z" fill="#000000" fill-rule="evenodd" fill-opacity="1" /><path clip-path="url(#clip250)" d="M58.657 845.052 L77.5631 845.052 L77.5631 850.94 L28.3562 850.94 L28.3562 845.052 L33.7671 845.052 Q30.5842 843.206 29.0564 840.405 Q27.4968 837.572 27.4968 833.657 Q27.4968 827.164 32.6531 823.122 Q37.8093 819.048 46.212 819.048 Q54.6147 819.048 59.771 823.122 Q64.9272 827.164 64.9272 833.657 Q64.9272 837.572 63.3994 840.405 Q61.8398 843.206 58.657 845.052 M46.212 825.127 Q39.7508 825.127 36.0905 827.801 Q32.3984 830.442 32.3984 835.089 Q32.3984 839.736 36.0905 842.41 Q39.7508 845.052 46.212 845.052 Q52.6732 845.052 56.3653 842.41 Q60.0256 839.736 60.0256 835.089 Q60.0256 830.442 56.3653 827.801 Q52.6732 825.127 46.212 825.127 Z" fill="#000000" fill-rule="evenodd" fill-opacity="1" /><path clip-path="url(#clip250)" d="M42.4881 779.708 L64.0042 779.708 L64.0042 785.564 L42.679 785.564 Q37.6183 785.564 35.1038 787.537 Q32.5894 789.511 32.5894 793.458 Q32.5894 798.2 35.6131 800.937 Q38.6368 803.674 43.8567 803.674 L64.0042 803.674 L64.0042 809.563 L14.479 809.563 L14.479 803.674 L33.8944 803.674 Q30.6797 801.574 29.0883 798.741 Q27.4968 795.876 27.4968 792.153 Q27.4968 786.01 31.3163 782.859 Q35.1038 779.708 42.4881 779.708 Z" fill="#000000" fill-rule="evenodd" fill-opacity="1" /><path clip-path="url(#clip250)" d="M46.0847 751.826 Q46.0847 758.924 47.7079 761.661 Q49.3312 764.398 53.2461 764.398 Q56.3653 764.398 58.2114 762.361 Q60.0256 760.292 60.0256 756.759 Q60.0256 751.889 56.5881 748.961 Q53.1188 746.001 47.3897 746.001 L46.0847 746.001 L46.0847 751.826 M43.6657 740.145 L64.0042 740.145 L64.0042 746.001 L58.5933 746.001 Q61.8398 748.006 63.3994 750.998 Q64.9272 753.99 64.9272 758.319 Q64.9272 763.793 61.8716 767.04 Q58.7843 770.255 53.6281 770.255 Q47.6125 770.255 44.5569 766.244 Q41.5014 762.202 41.5014 754.213 L41.5014 746.001 L40.9285 746.001 Q36.8862 746.001 34.6901 748.675 Q32.4621 751.317 32.4621 756.123 Q32.4621 759.178 33.1941 762.075 Q33.9262 764.971 35.3903 767.645 L29.9795 767.645 Q28.7381 764.43 28.1334 761.406 Q27.4968 758.382 27.4968 755.518 Q27.4968 747.784 31.5072 743.964 Q35.5176 740.145 43.6657 740.145 Z" fill="#000000" fill-rule="evenodd" fill-opacity="1" /><path clip-path="url(#clip250)" d="M14.479 707.902 L14.479 694.407 L19.0304 694.407 L19.0304 702.046 L68.0464 702.046 L68.0464 694.407 L72.5979 694.407 L72.5979 707.902 L14.479 707.902 Z" fill="#000000" fill-rule="evenodd" fill-opacity="1" /><path clip-path="url(#clip250)" d="M19.7307 671.777 Q19.7307 674.323 21.5131 676.074 Q23.2636 677.824 25.8099 677.824 Q28.3244 677.824 30.0749 676.074 Q31.7937 674.323 31.7937 671.777 Q31.7937 669.231 30.0749 667.48 Q28.3244 665.73 25.8099 665.73 Q23.2955 665.73 21.5131 667.512 Q19.7307 669.263 19.7307 671.777 M15.6248 671.777 Q15.6248 669.74 16.4205 667.862 Q17.1844 665.984 18.6485 664.616 Q20.0808 663.152 21.895 662.419 Q23.7092 661.687 25.8099 661.687 Q30.0113 661.687 32.9395 664.647 Q35.8359 667.576 35.8359 671.841 Q35.8359 676.138 32.9713 679.002 Q30.1068 681.867 25.8099 681.867 Q21.5449 681.867 18.5848 678.938 Q15.6248 676.01 15.6248 671.777 Z" fill="#000000" fill-rule="evenodd" fill-opacity="1" /><path clip-path="url(#clip250)" d="M14.479 635.652 L72.5979 635.652 L72.5979 649.147 L68.0464 649.147 L68.0464 641.54 L19.0304 641.54 L19.0304 649.147 L14.479 649.147 L14.479 635.652 Z" fill="#000000" fill-rule="evenodd" fill-opacity="1" /><path clip-path="url(#clip250)" d="M341.507 44.2197 Q344.14 45.1109 346.611 48.0275 Q349.123 50.9442 351.634 56.0483 L359.939 72.576 L351.148 72.576 L343.411 57.061 Q340.413 50.9847 337.578 48.9997 Q334.783 47.0148 329.922 47.0148 L321.01 47.0148 L321.01 72.576 L312.827 72.576 L312.827 12.096 L331.299 12.096 Q341.669 12.096 346.773 16.4305 Q351.877 20.7649 351.877 29.5149 Q351.877 35.2267 349.204 38.994 Q346.571 42.7613 341.507 44.2197 M321.01 18.8205 L321.01 40.2903 L331.299 40.2903 Q337.213 40.2903 340.211 37.5762 Q343.249 34.8216 343.249 29.5149 Q343.249 24.2082 340.211 21.5346 Q337.213 18.8205 331.299 18.8205 L321.01 18.8205 Z" fill="#000000" fill-rule="evenodd" fill-opacity="1" /><path clip-path="url(#clip250)" d="M405.228 48.0275 L405.228 51.6733 L370.957 51.6733 Q371.443 59.3701 375.575 63.421 Q379.748 67.4314 387.161 67.4314 Q391.455 67.4314 395.465 66.3781 Q399.516 65.3249 403.486 63.2184 L403.486 70.267 Q399.476 71.9684 395.263 72.8596 Q391.05 73.7508 386.715 73.7508 Q375.859 73.7508 369.499 67.4314 Q363.179 61.1119 363.179 50.3365 Q363.179 39.1965 369.175 32.6746 Q375.211 26.1121 385.419 26.1121 Q394.574 26.1121 399.881 32.0264 Q405.228 37.9003 405.228 48.0275 M397.774 45.84 Q397.693 39.7232 394.331 36.0774 Q391.009 32.4315 385.5 32.4315 Q379.262 32.4315 375.494 35.9558 Q371.767 39.4801 371.2 45.8805 L397.774 45.84 Z" fill="#000000" fill-rule="evenodd" fill-opacity="1" /><path clip-path="url(#clip250)" d="M418.434 34.9026 L470.366 34.9026 L470.366 41.7081 L418.434 41.7081 L418.434 34.9026 M418.434 51.4303 L470.366 51.4303 L470.366 58.3168 L418.434 58.3168 L418.434 51.4303 Z" fill="#000000" fill-rule="evenodd" fill-opacity="1" /><path clip-path="url(#clip250)" d="M489.446 65.6895 L502.814 65.6895 L502.814 19.5497 L488.271 22.4663 L488.271 15.0127 L502.733 12.096 L510.916 12.096 L510.916 65.6895 L524.284 65.6895 L524.284 72.576 L489.446 72.576 L489.446 65.6895 Z" fill="#000000" fill-rule="evenodd" fill-opacity="1" /><path clip-path="url(#clip250)" d="M558.312 17.4837 Q551.992 17.4837 548.792 23.7221 Q545.632 29.92 545.632 42.3968 Q545.632 54.833 548.792 61.0714 Q551.992 67.2693 558.312 67.2693 Q564.671 67.2693 567.831 61.0714 Q571.031 54.833 571.031 42.3968 Q571.031 29.92 567.831 23.7221 Q564.671 17.4837 558.312 17.4837 M558.312 11.0023 Q568.479 11.0023 573.826 19.0636 Q579.214 27.0843 579.214 42.3968 Q579.214 57.6687 573.826 65.73 Q568.479 73.7508 558.312 73.7508 Q548.144 73.7508 542.756 65.73 Q537.409 57.6687 537.409 42.3968 Q537.409 27.0843 542.756 19.0636 Q548.144 11.0023 558.312 11.0023 Z" fill="#000000" fill-rule="evenodd" fill-opacity="1" /><path clip-path="url(#clip250)" d="M611.095 17.4837 Q604.775 17.4837 601.575 23.7221 Q598.415 29.92 598.415 42.3968 Q598.415 54.833 601.575 61.0714 Q604.775 67.2693 611.095 67.2693 Q617.455 67.2693 620.614 61.0714 Q623.815 54.833 623.815 42.3968 Q623.815 29.92 620.614 23.7221 Q617.455 17.4837 611.095 17.4837 M611.095 11.0023 Q621.263 11.0023 626.61 19.0636 Q631.997 27.0843 631.997 42.3968 Q631.997 57.6687 626.61 65.73 Q621.263 73.7508 611.095 73.7508 Q600.927 73.7508 595.539 65.73 Q590.192 57.6687 590.192 42.3968 Q590.192 27.0843 595.539 19.0636 Q600.927 11.0023 611.095 11.0023 Z" fill="#000000" fill-rule="evenodd" fill-opacity="1" /><path clip-path="url(#clip250)" d="M663.878 17.4837 Q657.559 17.4837 654.358 23.7221 Q651.199 29.92 651.199 42.3968 Q651.199 54.833 654.358 61.0714 Q657.559 67.2693 663.878 67.2693 Q670.238 67.2693 673.398 61.0714 Q676.598 54.833 676.598 42.3968 Q676.598 29.92 673.398 23.7221 Q670.238 17.4837 663.878 17.4837 M663.878 11.0023 Q674.046 11.0023 679.393 19.0636 Q684.781 27.0843 684.781 42.3968 Q684.781 57.6687 679.393 65.73 Q674.046 73.7508 663.878 73.7508 Q653.71 73.7508 648.323 65.73 Q642.975 57.6687 642.975 42.3968 Q642.975 27.0843 648.323 19.0636 Q653.71 11.0023 663.878 11.0023 Z" fill="#000000" fill-rule="evenodd" fill-opacity="1" /><path clip-path="url(#clip250)" d="M716.661 17.4837 Q710.342 17.4837 707.142 23.7221 Q703.982 29.92 703.982 42.3968 Q703.982 54.833 707.142 61.0714 Q710.342 67.2693 716.661 67.2693 Q723.021 67.2693 726.181 61.0714 Q729.381 54.833 729.381 42.3968 Q729.381 29.92 726.181 23.7221 Q723.021 17.4837 716.661 17.4837 M716.661 11.0023 Q726.829 11.0023 732.176 19.0636 Q737.564 27.0843 737.564 42.3968 Q737.564 57.6687 732.176 65.73 Q726.829 73.7508 716.661 73.7508 Q706.494 73.7508 701.106 65.73 Q695.759 57.6687 695.759 42.3968 Q695.759 27.0843 701.106 19.0636 Q706.494 11.0023 716.661 11.0023 Z" fill="#000000" fill-rule="evenodd" fill-opacity="1" /><path clip-path="url(#clip250)" d="M769.445 17.4837 Q763.125 17.4837 759.925 23.7221 Q756.765 29.92 756.765 42.3968 Q756.765 54.833 759.925 61.0714 Q763.125 67.2693 769.445 67.2693 Q775.805 67.2693 778.964 61.0714 Q782.164 54.833 782.164 42.3968 Q782.164 29.92 778.964 23.7221 Q775.805 17.4837 769.445 17.4837 M769.445 11.0023 Q779.612 11.0023 784.96 19.0636 Q790.347 27.0843 790.347 42.3968 Q790.347 57.6687 784.96 65.73 Q779.612 73.7508 769.445 73.7508 Q759.277 73.7508 753.889 65.73 Q748.542 57.6687 748.542 42.3968 Q748.542 27.0843 753.889 19.0636 Q759.277 11.0023 769.445 11.0023 Z" fill="#000000" fill-rule="evenodd" fill-opacity="1" /><path clip-path="url(#clip250)" d="M804.728 62.2867 L813.275 62.2867 L813.275 72.576 L804.728 72.576 L804.728 62.2867 Z" fill="#000000" fill-rule="evenodd" fill-opacity="1" /><path clip-path="url(#clip250)" d="M848.599 17.4837 Q842.28 17.4837 839.08 23.7221 Q835.92 29.92 835.92 42.3968 Q835.92 54.833 839.08 61.0714 Q842.28 67.2693 848.599 67.2693 Q854.959 67.2693 858.119 61.0714 Q861.319 54.833 861.319 42.3968 Q861.319 29.92 858.119 23.7221 Q854.959 17.4837 848.599 17.4837 M848.599 11.0023 Q858.767 11.0023 864.114 19.0636 Q869.502 27.0843 869.502 42.3968 Q869.502 57.6687 864.114 65.73 Q858.767 73.7508 848.599 73.7508 Q838.432 73.7508 833.044 65.73 Q827.697 57.6687 827.697 42.3968 Q827.697 27.0843 833.044 19.0636 Q838.432 11.0023 848.599 11.0023 Z" fill="#000000" fill-rule="evenodd" fill-opacity="1" /><path clip-path="url(#clip250)" d="M929.82 49.7694 Q920.786 49.7694 917.303 51.8354 Q913.819 53.9013 913.819 58.8839 Q913.819 62.8538 916.411 65.2034 Q919.045 67.5124 923.541 67.5124 Q929.739 67.5124 933.466 63.1374 Q937.233 58.7219 937.233 51.4303 L937.233 49.7694 L929.82 49.7694 M944.687 46.6907 L944.687 72.576 L937.233 72.576 L937.233 65.6895 Q934.681 69.8214 930.873 71.8063 Q927.065 73.7508 921.556 73.7508 Q914.589 73.7508 910.457 69.8619 Q906.365 65.9325 906.365 59.3701 Q906.365 51.7138 911.469 47.825 Q916.614 43.9361 926.782 43.9361 L937.233 43.9361 L937.233 43.2069 Q937.233 38.0623 933.83 35.2672 Q930.468 32.4315 924.351 32.4315 Q920.462 32.4315 916.776 33.3632 Q913.09 34.295 909.687 36.1584 L909.687 29.2718 Q913.778 27.692 917.627 26.9223 Q921.475 26.1121 925.121 26.1121 Q934.965 26.1121 939.826 31.2163 Q944.687 36.3204 944.687 46.6907 Z" fill="#000000" fill-rule="evenodd" fill-opacity="1" /><path clip-path="url(#clip250)" d="M961.012 34.9026 L1012.94 34.9026 L1012.94 41.7081 L961.012 41.7081 L961.012 34.9026 M961.012 51.4303 L1012.94 51.4303 L1012.94 58.3168 L961.012 58.3168 L961.012 51.4303 Z" fill="#000000" fill-rule="evenodd" fill-opacity="1" /><path clip-path="url(#clip250)" d="M1048.11 17.4837 Q1041.79 17.4837 1038.59 23.7221 Q1035.43 29.92 1035.43 42.3968 Q1035.43 54.833 1038.59 61.0714 Q1041.79 67.2693 1048.11 67.2693 Q1054.47 67.2693 1057.63 61.0714 Q1060.83 54.833 1060.83 42.3968 Q1060.83 29.92 1057.63 23.7221 Q1054.47 17.4837 1048.11 17.4837 M1048.11 11.0023 Q1058.27 11.0023 1063.62 19.0636 Q1069.01 27.0843 1069.01 42.3968 Q1069.01 57.6687 1063.62 65.73 Q1058.27 73.7508 1048.11 73.7508 Q1037.94 73.7508 1032.55 65.73 Q1027.2 57.6687 1027.2 42.3968 Q1027.2 27.0843 1032.55 19.0636 Q1037.94 11.0023 1048.11 11.0023 Z" fill="#000000" fill-rule="evenodd" fill-opacity="1" /><path clip-path="url(#clip250)" d="M1083.39 62.2867 L1091.94 62.2867 L1091.94 72.576 L1083.39 72.576 L1083.39 62.2867 Z" fill="#000000" fill-rule="evenodd" fill-opacity="1" /><path clip-path="url(#clip250)" d="M1116.81 65.6895 L1145.37 65.6895 L1145.37 72.576 L1106.97 72.576 L1106.97 65.6895 Q1111.62 60.8689 1119.65 52.7671 Q1127.71 44.6248 1129.77 42.2752 Q1133.7 37.8598 1135.24 34.8216 Q1136.82 31.7429 1136.82 28.7857 Q1136.82 23.9651 1133.42 20.927 Q1130.06 17.8888 1124.63 17.8888 Q1120.78 17.8888 1116.49 19.2256 Q1112.23 20.5624 1107.37 23.2765 L1107.37 15.0127 Q1112.31 13.0277 1116.61 12.015 Q1120.9 11.0023 1124.47 11.0023 Q1133.86 11.0023 1139.45 15.7013 Q1145.04 20.4004 1145.04 28.2591 Q1145.04 31.9859 1143.63 35.3482 Q1142.25 38.6699 1138.56 43.2069 Q1137.55 44.3817 1132.12 50.0125 Q1126.69 55.6027 1116.81 65.6895 Z" fill="#000000" fill-rule="evenodd" fill-opacity="1" /><path clip-path="url(#clip250)" d="M1162.63 12.096 L1194.75 12.096 L1194.75 18.9825 L1170.12 18.9825 L1170.12 33.8088 Q1171.9 33.2012 1173.68 32.9176 Q1175.47 32.5936 1177.25 32.5936 Q1187.38 32.5936 1193.29 38.1433 Q1199.21 43.6931 1199.21 53.1722 Q1199.21 62.9348 1193.13 68.3631 Q1187.05 73.7508 1175.99 73.7508 Q1172.19 73.7508 1168.22 73.1026 Q1164.29 72.4545 1160.07 71.1582 L1160.07 62.9348 Q1163.72 64.9198 1167.61 65.892 Q1171.5 66.8642 1175.83 66.8642 Q1182.84 66.8642 1186.93 63.1779 Q1191.02 59.4916 1191.02 53.1722 Q1191.02 46.8528 1186.93 43.1664 Q1182.84 39.4801 1175.83 39.4801 Q1172.55 39.4801 1169.27 40.2093 Q1166.03 40.9384 1162.63 42.4778 L1162.63 12.096 Z" fill="#000000" fill-rule="evenodd" fill-opacity="1" /><path clip-path="url(#clip250)" d="M1263.61 9.54393 L1263.61 15.7418 L1256.48 15.7418 Q1252.47 15.7418 1250.89 17.3622 Q1249.36 18.9825 1249.36 23.1955 L1249.36 27.2059 L1261.63 27.2059 L1261.63 32.9987 L1249.36 32.9987 L1249.36 72.576 L1241.86 72.576 L1241.86 32.9987 L1234.73 32.9987 L1234.73 27.2059 L1241.86 27.2059 L1241.86 24.0462 Q1241.86 16.471 1245.39 13.0277 Q1248.91 9.54393 1256.57 9.54393 L1263.61 9.54393 Z" fill="#000000" fill-rule="evenodd" fill-opacity="1" /><path clip-path="url(#clip250)" d="M1270.83 34.9026 L1322.76 34.9026 L1322.76 41.7081 L1270.83 41.7081 L1270.83 34.9026 M1270.83 51.4303 L1322.76 51.4303 L1322.76 58.3168 L1270.83 58.3168 L1270.83 51.4303 Z" fill="#000000" fill-rule="evenodd" fill-opacity="1" /><path clip-path="url(#clip250)" d="M1341.84 65.6895 L1355.21 65.6895 L1355.21 19.5497 L1340.66 22.4663 L1340.66 15.0127 L1355.12 12.096 L1363.31 12.096 L1363.31 65.6895 L1376.68 65.6895 L1376.68 72.576 L1341.84 72.576 L1341.84 65.6895 Z" fill="#000000" fill-rule="evenodd" fill-opacity="1" /><path clip-path="url(#clip250)" d="M1444.97 51.4708 L1443.19 42.1132 Q1441.37 32.5126 1434.16 32.5126 Q1428.73 32.5126 1426.26 36.9686 Q1423.14 42.5588 1423.14 49.9314 Q1423.14 58.8434 1426.18 63.0969 Q1429.26 67.4314 1434.16 67.4314 Q1439.59 67.4314 1442.5 58.8029 L1444.97 51.4708 M1449.15 39.075 L1453.16 27.2059 L1459.8 27.2059 L1451.5 51.7949 L1453.12 60.6663 Q1453.48 62.6513 1454.9 64.3122 Q1456.56 66.2566 1457.86 66.2566 L1461.42 66.2566 L1461.42 72.576 L1456.96 72.576 Q1453.16 72.576 1449.75 69.1732 Q1448.09 67.4719 1447.4 63.9071 Q1445.54 68.4036 1441.73 71.9279 Q1439.95 73.5887 1434.16 73.5887 Q1424.64 73.5887 1420.02 67.4314 Q1415.28 61.0714 1415.28 49.9314 Q1415.28 38.0218 1420.42 32.4315 Q1426.14 26.1931 1434.16 26.1931 Q1446.76 26.1931 1449.15 39.075 Z" fill="#000000" fill-rule="evenodd" fill-opacity="1" /><path clip-path="url(#clip250)" d="M1493.34 58.2358 L1493.34 72.576 L1488.64 72.576 L1488.64 57.3851 Q1488.64 53.6988 1487.18 51.9569 Q1485.73 50.1745 1482.69 50.1745 Q1479.08 50.1745 1476.98 52.362 Q1474.87 54.509 1474.87 58.2358 L1474.87 72.576 L1470.13 72.576 L1470.13 47.1768 L1474.87 47.1768 L1474.87 51.1062 Q1476.45 48.7972 1478.68 47.7034 Q1480.95 46.5692 1484.06 46.5692 Q1487.14 46.5692 1489.33 47.987 Q1491.52 49.3643 1492.57 52.0379 Q1494.31 49.2428 1496.74 47.906 Q1499.22 46.5692 1502.54 46.5692 Q1507.03 46.5692 1509.42 49.3643 Q1511.85 52.1189 1511.85 57.2231 L1511.85 72.576 L1507.15 72.576 L1507.15 57.3851 Q1507.15 53.7393 1505.7 51.9569 Q1504.24 50.1745 1501.24 50.1745 Q1497.59 50.1745 1495.45 52.362 Q1493.34 54.509 1493.34 58.2358 Z" fill="#000000" fill-rule="evenodd" fill-opacity="1" /><path clip-path="url(#clip250)" d="M1546.45 58.8434 L1546.45 60.8689 L1524.86 60.8689 Q1525.18 65.1628 1527.77 67.4314 Q1530.41 69.6999 1535.07 69.6999 Q1537.78 69.6999 1540.33 69.0922 Q1542.84 68.5251 1545.35 67.3503 L1545.35 71.2797 Q1542.84 72.2519 1540.17 72.738 Q1537.54 73.2241 1534.78 73.2241 Q1527.94 73.2241 1523.97 69.6999 Q1519.96 66.1756 1519.96 60.1397 Q1519.96 53.9013 1523.76 50.215 Q1527.53 46.5692 1533.97 46.5692 Q1539.72 46.5692 1543.09 49.8504 Q1546.45 53.1722 1546.45 58.8434 M1541.75 57.5877 Q1541.71 54.1849 1539.6 52.1189 Q1537.5 50.0935 1534.01 50.0935 Q1530.08 50.0935 1527.73 52.0784 Q1525.38 54.0229 1525.02 57.5877 L1541.75 57.5877 Z" fill="#000000" fill-rule="evenodd" fill-opacity="1" /><path clip-path="url(#clip250)" d="M1569.58 59.8157 Q1563.91 59.8157 1561.72 60.9499 Q1559.49 62.1247 1559.49 64.9198 Q1559.49 67.1478 1561.15 68.4441 Q1562.81 69.7404 1565.65 69.7404 Q1569.54 69.7404 1571.89 67.2693 Q1574.28 64.7983 1574.28 60.7474 L1574.28 59.8157 L1569.58 59.8157 M1578.94 58.0738 L1578.94 72.576 L1574.28 72.576 L1574.28 68.7276 Q1572.66 71.0367 1570.27 72.1304 Q1567.84 73.2241 1564.39 73.2241 Q1559.98 73.2241 1557.39 71.0367 Q1554.79 68.8492 1554.79 65.1628 Q1554.79 60.9094 1558.03 58.7219 Q1561.27 56.5344 1567.68 56.5344 L1574.28 56.5344 L1574.28 56.1293 Q1574.28 53.2532 1572.13 51.6733 Q1569.98 50.0935 1566.14 50.0935 Q1563.71 50.0935 1561.36 50.6201 Q1559.05 51.1467 1556.9 52.2 L1556.9 48.3111 Q1559.49 47.4604 1561.92 47.0148 Q1564.31 46.5692 1566.62 46.5692 Q1572.82 46.5692 1575.9 49.4048 Q1578.94 52.281 1578.94 58.0738 Z" fill="#000000" fill-rule="evenodd" fill-opacity="1" /><path clip-path="url(#clip250)" d="M1612.84 57.2231 L1612.84 72.576 L1608.14 72.576 L1608.14 57.3851 Q1608.14 53.7798 1606.56 51.9974 Q1604.98 50.1745 1601.82 50.1745 Q1598.02 50.1745 1595.83 52.362 Q1593.64 54.509 1593.64 58.2358 L1593.64 72.576 L1588.9 72.576 L1588.9 47.1768 L1593.64 47.1768 L1593.64 51.1062 Q1595.3 48.8377 1597.57 47.7034 Q1599.88 46.5692 1602.88 46.5692 Q1607.78 46.5692 1610.29 49.2833 Q1612.84 51.9974 1612.84 57.2231 Z" fill="#000000" fill-rule="evenodd" fill-opacity="1" /><path clip-path="url(#clip250)" d="M1626.01 34.9026 L1677.94 34.9026 L1677.94 41.7081 L1626.01 41.7081 L1626.01 34.9026 M1626.01 51.4303 L1677.94 51.4303 L1677.94 58.3168 L1626.01 58.3168 L1626.01 51.4303 Z" fill="#000000" fill-rule="evenodd" fill-opacity="1" /><path clip-path="url(#clip250)" d="M1718.09 19.2256 L1697.43 51.5113 L1718.09 51.5113 L1718.09 19.2256 M1715.94 12.096 L1726.23 12.096 L1726.23 51.5113 L1734.86 51.5113 L1734.86 58.3168 L1726.23 58.3168 L1726.23 72.576 L1718.09 72.576 L1718.09 58.3168 L1690.78 58.3168 L1690.78 50.4176 L1715.94 12.096 Z" fill="#000000" fill-rule="evenodd" fill-opacity="1" /><path clip-path="url(#clip250)" d="M1748.39 62.2867 L1756.93 62.2867 L1756.93 72.576 L1748.39 72.576 L1748.39 62.2867 Z" fill="#000000" fill-rule="evenodd" fill-opacity="1" /><path clip-path="url(#clip250)" d="M1792.26 17.4837 Q1785.94 17.4837 1782.74 23.7221 Q1779.58 29.92 1779.58 42.3968 Q1779.58 54.833 1782.74 61.0714 Q1785.94 67.2693 1792.26 67.2693 Q1798.62 67.2693 1801.78 61.0714 Q1804.98 54.833 1804.98 42.3968 Q1804.98 29.92 1801.78 23.7221 Q1798.62 17.4837 1792.26 17.4837 M1792.26 11.0023 Q1802.43 11.0023 1807.77 19.0636 Q1813.16 27.0843 1813.16 42.3968 Q1813.16 57.6687 1807.77 65.73 Q1802.43 73.7508 1792.26 73.7508 Q1782.09 73.7508 1776.7 65.73 Q1771.35 57.6687 1771.35 42.3968 Q1771.35 27.0843 1776.7 19.0636 Q1782.09 11.0023 1792.26 11.0023 Z" fill="#000000" fill-rule="evenodd" fill-opacity="1" /><path clip-path="url(#clip250)" d="M1879.31 51.4708 L1877.53 42.1132 Q1875.71 32.5126 1868.5 32.5126 Q1863.07 32.5126 1860.6 36.9686 Q1857.48 42.5588 1857.48 49.9314 Q1857.48 58.8434 1860.52 63.0969 Q1863.59 67.4314 1868.5 67.4314 Q1873.92 67.4314 1876.84 58.8029 L1879.31 51.4708 M1883.48 39.075 L1887.49 27.2059 L1894.14 27.2059 L1885.83 51.7949 L1887.45 60.6663 Q1887.82 62.6513 1889.24 64.3122 Q1890.9 66.2566 1892.19 66.2566 L1895.76 66.2566 L1895.76 72.576 L1891.3 72.576 Q1887.49 72.576 1884.09 69.1732 Q1882.43 67.4719 1881.74 63.9071 Q1879.88 68.4036 1876.07 71.9279 Q1874.29 73.5887 1868.5 73.5887 Q1858.98 73.5887 1854.36 67.4314 Q1849.62 61.0714 1849.62 49.9314 Q1849.62 38.0218 1854.76 32.4315 Q1860.47 26.1931 1868.5 26.1931 Q1881.09 26.1931 1883.48 39.075 Z" fill="#000000" fill-rule="evenodd" fill-opacity="1" /><path clip-path="url(#clip250)" d="M1917.63 59.8157 Q1911.96 59.8157 1909.77 60.9499 Q1907.55 62.1247 1907.55 64.9198 Q1907.55 67.1478 1909.21 68.4441 Q1910.87 69.7404 1913.7 69.7404 Q1917.59 69.7404 1919.94 67.2693 Q1922.33 64.7983 1922.33 60.7474 L1922.33 59.8157 L1917.63 59.8157 M1926.99 58.0738 L1926.99 72.576 L1922.33 72.576 L1922.33 68.7276 Q1920.71 71.0367 1918.32 72.1304 Q1915.89 73.2241 1912.45 73.2241 Q1908.03 73.2241 1905.44 71.0367 Q1902.85 68.8492 1902.85 65.1628 Q1902.85 60.9094 1906.09 58.7219 Q1909.33 56.5344 1915.73 56.5344 L1922.33 56.5344 L1922.33 56.1293 Q1922.33 53.2532 1920.19 51.6733 Q1918.04 50.0935 1914.19 50.0935 Q1911.76 50.0935 1909.41 50.6201 Q1907.1 51.1467 1904.95 52.2 L1904.95 48.3111 Q1907.55 47.4604 1909.98 47.0148 Q1912.37 46.5692 1914.68 46.5692 Q1920.87 46.5692 1923.95 49.4048 Q1926.99 52.281 1926.99 58.0738 Z" fill="#000000" fill-rule="evenodd" fill-opacity="1" /><path clip-path="url(#clip250)" d="M1960.17 58.2358 L1960.17 72.576 L1955.47 72.576 L1955.47 57.3851 Q1955.47 53.6988 1954.01 51.9569 Q1952.55 50.1745 1949.51 50.1745 Q1945.91 50.1745 1943.8 52.362 Q1941.7 54.509 1941.7 58.2358 L1941.7 72.576 L1936.96 72.576 L1936.96 47.1768 L1941.7 47.1768 L1941.7 51.1062 Q1943.28 48.7972 1945.5 47.7034 Q1947.77 46.5692 1950.89 46.5692 Q1953.97 46.5692 1956.16 47.987 Q1958.34 49.3643 1959.4 52.0379 Q1961.14 49.2428 1963.57 47.906 Q1966.04 46.5692 1969.36 46.5692 Q1973.86 46.5692 1976.25 49.3643 Q1978.68 52.1189 1978.68 57.2231 L1978.68 72.576 L1973.98 72.576 L1973.98 57.3851 Q1973.98 53.7393 1972.52 51.9569 Q1971.06 50.1745 1968.07 50.1745 Q1964.42 50.1745 1962.27 52.362 Q1960.17 54.509 1960.17 58.2358 Z" fill="#000000" fill-rule="evenodd" fill-opacity="1" /><path clip-path="url(#clip250)" d="M1993.38 68.7682 L1993.38 82.2577 L1988.65 82.2577 L1988.65 47.1768 L1993.38 47.1768 L1993.38 51.0252 Q1994.84 48.7567 1997.11 47.6629 Q1999.38 46.5692 2002.5 46.5692 Q2007.73 46.5692 2010.97 50.215 Q2014.21 53.9013 2014.21 59.8967 Q2014.21 65.892 2010.97 69.5783 Q2007.73 73.2241 2002.5 73.2241 Q1999.38 73.2241 1997.11 72.1304 Q1994.84 71.0367 1993.38 68.7682 M2007.24 67.1073 Q2009.35 64.5147 2009.35 59.8967 Q2009.35 55.2786 2007.24 52.6861 Q2005.09 50.053 2001.37 50.053 Q1997.64 50.053 1995.49 52.6861 Q1993.38 55.2786 1993.38 59.8967 Q1993.38 64.5147 1995.49 67.1073 Q1997.64 69.7404 2001.37 69.7404 Q2005.09 69.7404 2007.24 67.1073 Z" fill="#000000" fill-rule="evenodd" fill-opacity="1" /><path clip-path="url(#clip250)" d="M2028.22 34.9026 L2080.16 34.9026 L2080.16 41.7081 L2028.22 41.7081 L2028.22 34.9026 M2028.22 51.4303 L2080.16 51.4303 L2080.16 58.3168 L2028.22 58.3168 L2028.22 51.4303 Z" fill="#000000" fill-rule="evenodd" fill-opacity="1" /><path clip-path="url(#clip250)" d="M2120.3 19.2256 L2099.64 51.5113 L2120.3 51.5113 L2120.3 19.2256 M2118.15 12.096 L2128.44 12.096 L2128.44 51.5113 L2137.07 51.5113 L2137.07 58.3168 L2128.44 58.3168 L2128.44 72.576 L2120.3 72.576 L2120.3 58.3168 L2093 58.3168 L2093 50.4176 L2118.15 12.096 Z" fill="#000000" fill-rule="evenodd" fill-opacity="1" /><path clip-path="url(#clip250)" d="M2150.6 62.2867 L2159.15 62.2867 L2159.15 72.576 L2150.6 72.576 L2150.6 62.2867 Z" fill="#000000" fill-rule="evenodd" fill-opacity="1" /><path clip-path="url(#clip250)" d="M2194.47 17.4837 Q2188.15 17.4837 2184.95 23.7221 Q2181.79 29.92 2181.79 42.3968 Q2181.79 54.833 2184.95 61.0714 Q2188.15 67.2693 2194.47 67.2693 Q2200.83 67.2693 2203.99 61.0714 Q2207.19 54.833 2207.19 42.3968 Q2207.19 29.92 2203.99 23.7221 Q2200.83 17.4837 2194.47 17.4837 M2194.47 11.0023 Q2204.64 11.0023 2209.99 19.0636 Q2215.37 27.0843 2215.37 42.3968 Q2215.37 57.6687 2209.99 65.73 Q2204.64 73.7508 2194.47 73.7508 Q2184.3 73.7508 2178.92 65.73 Q2173.57 57.6687 2173.57 42.3968 Q2173.57 27.0843 2178.92 19.0636 Q2184.3 11.0023 2194.47 11.0023 Z" fill="#000000" fill-rule="evenodd" fill-opacity="1" /><polyline clip-path="url(#clip252)" style="stroke:#009af9; stroke-linecap:butt; stroke-linejoin:round; stroke-width:4; stroke-opacity:1; fill:none" points="
  237.067,773.326 243.937,411.926 250.807,189.463 257.677,191.46 264.546,417.149 271.416,779.767 278.286,1139.91 285.156,1359.12 292.026,1353.13 298.895,1124.24 
  305.765,760.444 312.635,401.6 319.505,185.663 326.374,195.646 333.244,427.713 340.114,792.648 346.984,1150.15 353.854,1362.79 360.723,1348.82 367.593,1113.6 
  374.463,747.567 381.333,391.438 388.203,182.122 395.072,200.088 401.942,438.43 408.812,805.519 415.682,1160.23 422.551,1366.2 429.421,1344.25 436.291,1102.81 
  443.161,734.702 450.031,381.444 456.9,178.842 463.77,204.783 470.64,449.294 477.51,818.377 484.38,1170.14 491.249,1369.35 498.119,1339.43 504.989,1091.87 
  511.859,721.854 518.729,371.624 525.598,175.824 532.468,209.728 539.338,460.302 546.208,831.214 553.077,1179.87 559.947,1372.24 566.817,1334.36 573.687,1080.79 
  580.557,709.028 587.426,361.981 594.296,173.071 601.166,214.923 608.036,471.447 614.906,844.026 621.775,1189.42 628.645,1374.86 635.515,1329.04 642.385,1069.58 
  649.255,696.231 656.124,352.519 662.994,170.582 669.864,220.364 676.734,482.726 683.603,856.807 690.473,1198.79 697.343,1377.21 704.213,1323.48 711.083,1058.24 
  717.952,683.468 724.822,343.244 731.692,168.36 738.562,226.05 745.432,494.134 752.301,869.551 759.171,1207.97 766.041,1379.3 772.911,1317.67 779.78,1046.77 
  786.65,670.745 793.52,334.158 800.39,166.405 807.26,231.977 814.129,505.664 820.999,882.252 827.869,1216.96 834.739,1381.12 841.609,1311.62 848.478,1035.18 
  855.348,658.067 862.218,325.266 869.088,164.718 875.958,238.143 882.827,517.313 889.697,894.905 896.567,1225.76 903.437,1382.68 910.306,1305.34 917.176,1023.47 
  924.046,645.44 930.916,316.573 937.786,163.299 944.655,244.545 951.525,529.075 958.395,907.505 965.265,1234.35 972.135,1383.96 979.004,1298.82 985.874,1011.66 
  992.744,632.869 999.614,308.08 1006.48,162.15 1013.35,251.181 1020.22,540.945 1027.09,920.045 1033.96,1242.74 1040.83,1384.97 1047.7,1292.07 1054.57,999.734 
  1061.44,620.361 1068.31,299.794 1075.18,161.271 1082.05,258.047 1088.92,552.917 1095.79,932.521 1102.66,1250.92 1109.53,1385.72 1116.4,1285.09 1123.27,987.712 
  1130.14,607.919 1137.01,291.716 1143.88,160.662 1150.75,265.141 1157.62,564.987 1164.49,944.926 1171.36,1258.9 1178.23,1386.19 1185.1,1277.88 1191.97,975.596 
  1198.84,595.551 1205.71,283.851 1212.58,160.324 1219.45,272.46 1226.32,577.148 1233.19,957.255 1240.06,1266.65 1246.93,1386.4 1253.8,1270.45 1260.67,963.39 
  1267.54,583.262 1274.41,276.202 1281.28,160.256 1288.14,279.999 1295.01,589.397 1301.88,969.504 1308.75,1274.19 1315.62,1386.33 1322.49,1262.8 1329.36,951.101 
  1336.23,571.056 1343.1,268.773 1349.97,160.459 1356.84,287.757 1363.71,601.726 1370.58,981.665 1377.45,1281.51 1384.32,1385.99 1391.19,1254.94 1398.06,938.732 
  1404.93,558.94 1411.8,261.566 1418.67,160.933 1425.54,295.728 1432.41,614.131 1439.28,993.735 1446.15,1288.6 1453.02,1385.38 1459.89,1246.86 1466.76,926.291 
  1473.63,546.918 1480.5,254.585 1487.37,161.677 1494.24,303.911 1501.11,626.607 1507.98,1005.71 1514.85,1295.47 1521.72,1384.5 1528.59,1238.57 1535.46,913.783 
  1542.33,534.997 1549.2,247.834 1556.07,162.691 1562.94,312.301 1569.81,639.147 1576.68,1017.58 1583.55,1302.11 1590.42,1383.35 1597.29,1230.08 1604.16,901.212 
  1611.02,523.18 1617.89,241.314 1624.76,163.975 1631.63,320.895 1638.5,651.747 1645.37,1029.34 1652.24,1308.51 1659.11,1381.93 1665.98,1221.39 1672.85,888.585 
  1679.72,511.474 1686.59,235.03 1693.46,165.528 1700.33,329.688 1707.2,664.4 1714.07,1040.99 1720.94,1314.68 1727.81,1380.25 1734.68,1212.49 1741.55,875.907 
  1748.42,499.884 1755.29,228.983 1762.16,167.349 1769.03,338.677 1775.9,677.101 1782.77,1052.52 1789.64,1320.6 1796.51,1378.29 1803.38,1203.41 1810.25,863.184 
  1817.12,488.414 1823.99,223.176 1830.86,169.438 1837.73,347.858 1844.6,689.845 1851.47,1063.93 1858.34,1326.29 1865.21,1376.07 1872.08,1194.13 1878.95,850.421 
  1885.82,477.071 1892.69,217.613 1899.56,171.794 1906.43,357.227 1913.3,702.626 1920.17,1075.2 1927.04,1331.73 1933.9,1373.58 1940.77,1184.67 1947.64,837.624 
  1954.51,465.858 1961.38,212.295 1968.25,174.415 1975.12,366.78 1981.99,715.438 1988.86,1086.35 1995.73,1336.92 2002.6,1370.83 2009.47,1175.03 2016.34,824.798 
  2023.21,454.78 2030.08,207.224 2036.95,177.3 2043.82,376.512 2050.69,728.275 2057.56,1097.36 2064.43,1341.87 2071.3,1367.81 2078.17,1165.21 2085.04,811.95 
  2091.91,443.844 2098.78,202.404 2105.65,180.449 2112.52,386.42 2119.39,741.133 2126.26,1108.22 2133.13,1346.56 2140,1364.53 2146.87,1155.21 2153.74,799.085 
  2160.61,433.053 2167.48,197.835 2174.35,183.86 2181.22,396.498 2188.09,754.004 2194.96,1118.94 2201.83,1351.01 2208.7,1360.99 2215.57,1145.05 2222.44,786.208 
  2229.31,422.412 2236.18,193.521 2243.05,187.53 2249.92,406.743 2256.78,766.884 2263.65,1129.5 2270.52,1355.19 2277.39,1357.19 2284.26,1134.73 2291.13,773.326 
  
  "/>
</svg>
