<?xml version="1.0" encoding="utf-8"?>
<svg xmlns="http://www.w3.org/2000/svg" xmlns:xlink="http://www.w3.org/1999/xlink" width="600" height="400" viewBox="0 0 2400 1600">
<defs>
  <clipPath id="clip990">
    <rect x="0" y="0" width="2400" height="1600"/>
  </clipPath>
</defs>
<path clip-path="url(#clip990)" d="
M0 1600 L2400 1600 L2400 0 L0 0  Z
  " fill="#ffffff" fill-rule="evenodd" fill-opacity="1"/>
<defs>
  <clipPath id="clip991">
    <rect x="480" y="0" width="1681" height="1600"/>
  </clipPath>
</defs>
<path clip-path="url(#clip990)" d="
M255.977 1423.18 L2352.76 1423.18 L2352.76 123.472 L255.977 123.472  Z
  " fill="#ffffff" fill-rule="evenodd" fill-opacity="1"/>
<defs>
  <clipPath id="clip992">
    <rect x="255" y="123" width="2098" height="1301"/>
  </clipPath>
</defs>
<polyline clip-path="url(#clip992)" style="stroke:#000000; stroke-linecap:butt; stroke-linejoin:round; stroke-width:2; stroke-opacity:0.1; fill:none" points="
  315.32,1423.18 315.32,123.472 
  "/>
<polyline clip-path="url(#clip992)" style="stroke:#000000; stroke-linecap:butt; stroke-linejoin:round; stroke-width:2; stroke-opacity:0.1; fill:none" points="
  974.684,1423.18 974.684,123.472 
  "/>
<polyline clip-path="url(#clip992)" style="stroke:#000000; stroke-linecap:butt; stroke-linejoin:round; stroke-width:2; stroke-opacity:0.1; fill:none" points="
  1634.05,1423.18 1634.05,123.472 
  "/>
<polyline clip-path="url(#clip992)" style="stroke:#000000; stroke-linecap:butt; stroke-linejoin:round; stroke-width:2; stroke-opacity:0.1; fill:none" points="
  2293.41,1423.18 2293.41,123.472 
  "/>
<polyline clip-path="url(#clip990)" style="stroke:#000000; stroke-linecap:butt; stroke-linejoin:round; stroke-width:4; stroke-opacity:1; fill:none" points="
  255.977,1423.18 2352.76,1423.18 
  "/>
<polyline clip-path="url(#clip990)" style="stroke:#000000; stroke-linecap:butt; stroke-linejoin:round; stroke-width:4; stroke-opacity:1; fill:none" points="
  315.32,1423.18 315.32,1404.28 
  "/>
<polyline clip-path="url(#clip990)" style="stroke:#000000; stroke-linecap:butt; stroke-linejoin:round; stroke-width:4; stroke-opacity:1; fill:none" points="
  974.684,1423.18 974.684,1404.28 
  "/>
<polyline clip-path="url(#clip990)" style="stroke:#000000; stroke-linecap:butt; stroke-linejoin:round; stroke-width:4; stroke-opacity:1; fill:none" points="
  1634.05,1423.18 1634.05,1404.28 
  "/>
<polyline clip-path="url(#clip990)" style="stroke:#000000; stroke-linecap:butt; stroke-linejoin:round; stroke-width:4; stroke-opacity:1; fill:none" points="
  2293.41,1423.18 2293.41,1404.28 
  "/>
<path clip-path="url(#clip990)" d="M315.32 1454.1 Q311.709 1454.1 309.88 1457.66 Q308.075 1461.2 308.075 1468.33 Q308.075 1475.44 309.88 1479.01 Q311.709 1482.55 315.32 1482.55 Q318.954 1482.55 320.76 1479.01 Q322.588 1475.44 322.588 1468.33 Q322.588 1461.2 320.76 1457.66 Q318.954 1454.1 315.32 1454.1 M315.32 1450.39 Q321.13 1450.39 324.186 1455 Q327.264 1459.58 327.264 1468.33 Q327.264 1477.06 324.186 1481.67 Q321.13 1486.25 315.32 1486.25 Q309.51 1486.25 306.431 1481.67 Q303.376 1477.06 303.376 1468.33 Q303.376 1459.58 306.431 1455 Q309.51 1450.39 315.32 1450.39 Z" fill="#000000" fill-rule="evenodd" fill-opacity="1" /><path clip-path="url(#clip990)" d="M949.372 1481.64 L957.011 1481.64 L957.011 1455.28 L948.701 1456.95 L948.701 1452.69 L956.965 1451.02 L961.64 1451.02 L961.64 1481.64 L969.279 1481.64 L969.279 1485.58 L949.372 1485.58 L949.372 1481.64 Z" fill="#000000" fill-rule="evenodd" fill-opacity="1" /><path clip-path="url(#clip990)" d="M988.724 1454.1 Q985.113 1454.1 983.284 1457.66 Q981.478 1461.2 981.478 1468.33 Q981.478 1475.44 983.284 1479.01 Q985.113 1482.55 988.724 1482.55 Q992.358 1482.55 994.163 1479.01 Q995.992 1475.44 995.992 1468.33 Q995.992 1461.2 994.163 1457.66 Q992.358 1454.1 988.724 1454.1 M988.724 1450.39 Q994.534 1450.39 997.589 1455 Q1000.67 1459.58 1000.67 1468.33 Q1000.67 1477.06 997.589 1481.67 Q994.534 1486.25 988.724 1486.25 Q982.913 1486.25 979.835 1481.67 Q976.779 1477.06 976.779 1468.33 Q976.779 1459.58 979.835 1455 Q982.913 1450.39 988.724 1450.39 Z" fill="#000000" fill-rule="evenodd" fill-opacity="1" /><path clip-path="url(#clip990)" d="M1612.82 1481.64 L1629.14 1481.64 L1629.14 1485.58 L1607.2 1485.58 L1607.2 1481.64 Q1609.86 1478.89 1614.44 1474.26 Q1619.05 1469.61 1620.23 1468.27 Q1622.47 1465.74 1623.35 1464.01 Q1624.26 1462.25 1624.26 1460.56 Q1624.26 1457.8 1622.31 1456.07 Q1620.39 1454.33 1617.29 1454.33 Q1615.09 1454.33 1612.64 1455.09 Q1610.21 1455.86 1607.43 1457.41 L1607.43 1452.69 Q1610.25 1451.55 1612.71 1450.97 Q1615.16 1450.39 1617.2 1450.39 Q1622.57 1450.39 1625.76 1453.08 Q1628.96 1455.77 1628.96 1460.26 Q1628.96 1462.39 1628.15 1464.31 Q1627.36 1466.2 1625.25 1468.8 Q1624.67 1469.47 1621.57 1472.69 Q1618.47 1475.88 1612.82 1481.64 Z" fill="#000000" fill-rule="evenodd" fill-opacity="1" /><path clip-path="url(#clip990)" d="M1648.96 1454.1 Q1645.34 1454.1 1643.52 1457.66 Q1641.71 1461.2 1641.71 1468.33 Q1641.71 1475.44 1643.52 1479.01 Q1645.34 1482.55 1648.96 1482.55 Q1652.59 1482.55 1654.4 1479.01 Q1656.22 1475.44 1656.22 1468.33 Q1656.22 1461.2 1654.4 1457.66 Q1652.59 1454.1 1648.96 1454.1 M1648.96 1450.39 Q1654.77 1450.39 1657.82 1455 Q1660.9 1459.58 1660.9 1468.33 Q1660.9 1477.06 1657.82 1481.67 Q1654.77 1486.25 1648.96 1486.25 Q1643.15 1486.25 1640.07 1481.67 Q1637.01 1477.06 1637.01 1468.33 Q1637.01 1459.58 1640.07 1455 Q1643.15 1450.39 1648.96 1450.39 Z" fill="#000000" fill-rule="evenodd" fill-opacity="1" /><path clip-path="url(#clip990)" d="M2282.26 1466.95 Q2285.61 1467.66 2287.49 1469.93 Q2289.39 1472.2 2289.39 1475.53 Q2289.39 1480.65 2285.87 1483.45 Q2282.35 1486.25 2275.87 1486.25 Q2273.69 1486.25 2271.38 1485.81 Q2269.08 1485.39 2266.63 1484.54 L2266.63 1480.02 Q2268.58 1481.16 2270.89 1481.74 Q2273.2 1482.32 2275.73 1482.32 Q2280.13 1482.32 2282.42 1480.58 Q2284.73 1478.84 2284.73 1475.53 Q2284.73 1472.48 2282.58 1470.77 Q2280.45 1469.03 2276.63 1469.03 L2272.6 1469.03 L2272.6 1465.19 L2276.82 1465.19 Q2280.27 1465.19 2282.09 1463.82 Q2283.92 1462.43 2283.92 1459.84 Q2283.92 1457.18 2282.02 1455.77 Q2280.15 1454.33 2276.63 1454.33 Q2274.71 1454.33 2272.51 1454.75 Q2270.31 1455.16 2267.67 1456.04 L2267.67 1451.88 Q2270.33 1451.14 2272.65 1450.77 Q2274.99 1450.39 2277.05 1450.39 Q2282.37 1450.39 2285.47 1452.83 Q2288.58 1455.23 2288.58 1459.35 Q2288.58 1462.22 2286.93 1464.21 Q2285.29 1466.18 2282.26 1466.95 Z" fill="#000000" fill-rule="evenodd" fill-opacity="1" /><path clip-path="url(#clip990)" d="M2308.25 1454.1 Q2304.64 1454.1 2302.81 1457.66 Q2301.01 1461.2 2301.01 1468.33 Q2301.01 1475.44 2302.81 1479.01 Q2304.64 1482.55 2308.25 1482.55 Q2311.89 1482.55 2313.69 1479.01 Q2315.52 1475.44 2315.52 1468.33 Q2315.52 1461.2 2313.69 1457.66 Q2311.89 1454.1 2308.25 1454.1 M2308.25 1450.39 Q2314.06 1450.39 2317.12 1455 Q2320.2 1459.58 2320.2 1468.33 Q2320.2 1477.06 2317.12 1481.67 Q2314.06 1486.25 2308.25 1486.25 Q2302.44 1486.25 2299.36 1481.67 Q2296.31 1477.06 2296.31 1468.33 Q2296.31 1459.58 2299.36 1455 Q2302.44 1450.39 2308.25 1450.39 Z" fill="#000000" fill-rule="evenodd" fill-opacity="1" /><path clip-path="url(#clip990)" d="M1252.68 1522.27 L1252.68 1532.4 L1264.74 1532.4 L1264.74 1536.95 L1252.68 1536.95 L1252.68 1556.3 Q1252.68 1560.66 1253.85 1561.9 Q1255.06 1563.14 1258.72 1563.14 L1264.74 1563.14 L1264.74 1568.04 L1258.72 1568.04 Q1251.94 1568.04 1249.37 1565.53 Q1246.79 1562.98 1246.79 1556.3 L1246.79 1536.95 L1242.49 1536.95 L1242.49 1532.4 L1246.79 1532.4 L1246.79 1522.27 L1252.68 1522.27 Z" fill="#000000" fill-rule="evenodd" fill-opacity="1" /><path clip-path="url(#clip990)" d="M1292.62 1518.52 L1306.12 1518.52 L1306.12 1523.07 L1298.48 1523.07 L1298.48 1572.09 L1306.12 1572.09 L1306.12 1576.64 L1292.62 1576.64 L1292.62 1518.52 Z" fill="#000000" fill-rule="evenodd" fill-opacity="1" /><path clip-path="url(#clip990)" d="M1341.32 1533.45 L1341.32 1538.98 Q1338.84 1537.71 1336.16 1537.07 Q1333.49 1536.44 1330.63 1536.44 Q1326.26 1536.44 1324.07 1537.77 Q1321.9 1539.11 1321.9 1541.79 Q1321.9 1543.82 1323.46 1545 Q1325.02 1546.15 1329.73 1547.2 L1331.74 1547.64 Q1337.98 1548.98 1340.59 1551.43 Q1343.23 1553.85 1343.23 1558.21 Q1343.23 1563.17 1339.28 1566.07 Q1335.37 1568.97 1328.49 1568.97 Q1325.63 1568.97 1322.51 1568.39 Q1319.42 1567.85 1315.98 1566.74 L1315.98 1560.69 Q1319.23 1562.38 1322.38 1563.24 Q1325.53 1564.07 1328.62 1564.07 Q1332.76 1564.07 1334.99 1562.66 Q1337.21 1561.23 1337.21 1558.65 Q1337.21 1556.27 1335.59 1554.99 Q1334 1553.72 1328.56 1552.54 L1326.52 1552.07 Q1321.08 1550.92 1318.66 1548.56 Q1316.24 1546.18 1316.24 1542.04 Q1316.24 1537.01 1319.8 1534.27 Q1323.37 1531.54 1329.92 1531.54 Q1333.17 1531.54 1336.04 1532.01 Q1338.9 1532.49 1341.32 1533.45 Z" fill="#000000" fill-rule="evenodd" fill-opacity="1" /><path clip-path="url(#clip990)" d="M1366.24 1518.52 L1366.24 1576.64 L1352.75 1576.64 L1352.75 1572.09 L1360.35 1572.09 L1360.35 1523.07 L1352.75 1523.07 L1352.75 1518.52 L1366.24 1518.52 Z" fill="#000000" fill-rule="evenodd" fill-opacity="1" /><polyline clip-path="url(#clip992)" style="stroke:#000000; stroke-linecap:butt; stroke-linejoin:round; stroke-width:2; stroke-opacity:0.1; fill:none" points="
  255.977,1283.3 2352.76,1283.3 
  "/>
<polyline clip-path="url(#clip992)" style="stroke:#000000; stroke-linecap:butt; stroke-linejoin:round; stroke-width:2; stroke-opacity:0.1; fill:none" points="
  255.977,1091.62 2352.76,1091.62 
  "/>
<polyline clip-path="url(#clip992)" style="stroke:#000000; stroke-linecap:butt; stroke-linejoin:round; stroke-width:2; stroke-opacity:0.1; fill:none" points="
  255.977,899.943 2352.76,899.943 
  "/>
<polyline clip-path="url(#clip992)" style="stroke:#000000; stroke-linecap:butt; stroke-linejoin:round; stroke-width:2; stroke-opacity:0.1; fill:none" points="
  255.977,708.263 2352.76,708.263 
  "/>
<polyline clip-path="url(#clip992)" style="stroke:#000000; stroke-linecap:butt; stroke-linejoin:round; stroke-width:2; stroke-opacity:0.1; fill:none" points="
  255.977,516.582 2352.76,516.582 
  "/>
<polyline clip-path="url(#clip992)" style="stroke:#000000; stroke-linecap:butt; stroke-linejoin:round; stroke-width:2; stroke-opacity:0.1; fill:none" points="
  255.977,324.902 2352.76,324.902 
  "/>
<polyline clip-path="url(#clip992)" style="stroke:#000000; stroke-linecap:butt; stroke-linejoin:round; stroke-width:2; stroke-opacity:0.1; fill:none" points="
  255.977,133.222 2352.76,133.222 
  "/>
<polyline clip-path="url(#clip990)" style="stroke:#000000; stroke-linecap:butt; stroke-linejoin:round; stroke-width:4; stroke-opacity:1; fill:none" points="
  255.977,1423.18 255.977,123.472 
  "/>
<polyline clip-path="url(#clip990)" style="stroke:#000000; stroke-linecap:butt; stroke-linejoin:round; stroke-width:4; stroke-opacity:1; fill:none" points="
  255.977,1283.3 274.875,1283.3 
  "/>
<polyline clip-path="url(#clip990)" style="stroke:#000000; stroke-linecap:butt; stroke-linejoin:round; stroke-width:4; stroke-opacity:1; fill:none" points="
  255.977,1091.62 274.875,1091.62 
  "/>
<polyline clip-path="url(#clip990)" style="stroke:#000000; stroke-linecap:butt; stroke-linejoin:round; stroke-width:4; stroke-opacity:1; fill:none" points="
  255.977,899.943 274.875,899.943 
  "/>
<polyline clip-path="url(#clip990)" style="stroke:#000000; stroke-linecap:butt; stroke-linejoin:round; stroke-width:4; stroke-opacity:1; fill:none" points="
  255.977,708.263 274.875,708.263 
  "/>
<polyline clip-path="url(#clip990)" style="stroke:#000000; stroke-linecap:butt; stroke-linejoin:round; stroke-width:4; stroke-opacity:1; fill:none" points="
  255.977,516.582 274.875,516.582 
  "/>
<polyline clip-path="url(#clip990)" style="stroke:#000000; stroke-linecap:butt; stroke-linejoin:round; stroke-width:4; stroke-opacity:1; fill:none" points="
  255.977,324.902 274.875,324.902 
  "/>
<polyline clip-path="url(#clip990)" style="stroke:#000000; stroke-linecap:butt; stroke-linejoin:round; stroke-width:4; stroke-opacity:1; fill:none" points="
  255.977,133.222 274.875,133.222 
  "/>
<path clip-path="url(#clip990)" d="M114.26 1283.75 L143.936 1283.75 L143.936 1287.69 L114.26 1287.69 L114.26 1283.75 Z" fill="#000000" fill-rule="evenodd" fill-opacity="1" /><path clip-path="url(#clip990)" d="M164.028 1269.1 Q160.417 1269.1 158.589 1272.67 Q156.783 1276.21 156.783 1283.34 Q156.783 1290.44 158.589 1294.01 Q160.417 1297.55 164.028 1297.55 Q167.663 1297.55 169.468 1294.01 Q171.297 1290.44 171.297 1283.34 Q171.297 1276.21 169.468 1272.67 Q167.663 1269.1 164.028 1269.1 M164.028 1265.4 Q169.839 1265.4 172.894 1270 Q175.973 1274.59 175.973 1283.34 Q175.973 1292.06 172.894 1296.67 Q169.839 1301.25 164.028 1301.25 Q158.218 1301.25 155.14 1296.67 Q152.084 1292.06 152.084 1283.34 Q152.084 1274.59 155.14 1270 Q158.218 1265.4 164.028 1265.4 Z" fill="#000000" fill-rule="evenodd" fill-opacity="1" /><path clip-path="url(#clip990)" d="M184.19 1294.7 L189.075 1294.7 L189.075 1300.58 L184.19 1300.58 L184.19 1294.7 Z" fill="#000000" fill-rule="evenodd" fill-opacity="1" /><path clip-path="url(#clip990)" d="M200.07 1296.65 L207.709 1296.65 L207.709 1270.28 L199.399 1271.95 L199.399 1267.69 L207.662 1266.02 L212.338 1266.02 L212.338 1296.65 L219.977 1296.65 L219.977 1300.58 L200.07 1300.58 L200.07 1296.65 Z" fill="#000000" fill-rule="evenodd" fill-opacity="1" /><path clip-path="url(#clip990)" d="M162.802 1077.42 Q159.19 1077.42 157.362 1080.99 Q155.556 1084.53 155.556 1091.66 Q155.556 1098.76 157.362 1102.33 Q159.19 1105.87 162.802 1105.87 Q166.436 1105.87 168.241 1102.33 Q170.07 1098.76 170.07 1091.66 Q170.07 1084.53 168.241 1080.99 Q166.436 1077.42 162.802 1077.42 M162.802 1073.72 Q168.612 1073.72 171.667 1078.32 Q174.746 1082.91 174.746 1091.66 Q174.746 1100.38 171.667 1104.99 Q168.612 1109.57 162.802 1109.57 Q156.991 1109.57 153.913 1104.99 Q150.857 1100.38 150.857 1091.66 Q150.857 1082.91 153.913 1078.32 Q156.991 1073.72 162.802 1073.72 Z" fill="#000000" fill-rule="evenodd" fill-opacity="1" /><path clip-path="url(#clip990)" d="M182.963 1103.02 L187.848 1103.02 L187.848 1108.9 L182.963 1108.9 L182.963 1103.02 Z" fill="#000000" fill-rule="evenodd" fill-opacity="1" /><path clip-path="url(#clip990)" d="M208.033 1077.42 Q204.422 1077.42 202.593 1080.99 Q200.787 1084.53 200.787 1091.66 Q200.787 1098.76 202.593 1102.33 Q204.422 1105.87 208.033 1105.87 Q211.667 1105.87 213.473 1102.33 Q215.301 1098.76 215.301 1091.66 Q215.301 1084.53 213.473 1080.99 Q211.667 1077.42 208.033 1077.42 M208.033 1073.72 Q213.843 1073.72 216.898 1078.32 Q219.977 1082.91 219.977 1091.66 Q219.977 1100.38 216.898 1104.99 Q213.843 1109.57 208.033 1109.57 Q202.223 1109.57 199.144 1104.99 Q196.088 1100.38 196.088 1091.66 Q196.088 1082.91 199.144 1078.32 Q202.223 1073.72 208.033 1073.72 Z" fill="#000000" fill-rule="evenodd" fill-opacity="1" /><path clip-path="url(#clip990)" d="M164.028 885.741 Q160.417 885.741 158.589 889.306 Q156.783 892.848 156.783 899.977 Q156.783 907.084 158.589 910.649 Q160.417 914.19 164.028 914.19 Q167.663 914.19 169.468 910.649 Q171.297 907.084 171.297 899.977 Q171.297 892.848 169.468 889.306 Q167.663 885.741 164.028 885.741 M164.028 882.038 Q169.839 882.038 172.894 886.644 Q175.973 891.227 175.973 899.977 Q175.973 908.704 172.894 913.311 Q169.839 917.894 164.028 917.894 Q158.218 917.894 155.14 913.311 Q152.084 908.704 152.084 899.977 Q152.084 891.227 155.14 886.644 Q158.218 882.038 164.028 882.038 Z" fill="#000000" fill-rule="evenodd" fill-opacity="1" /><path clip-path="url(#clip990)" d="M184.19 911.343 L189.075 911.343 L189.075 917.223 L184.19 917.223 L184.19 911.343 Z" fill="#000000" fill-rule="evenodd" fill-opacity="1" /><path clip-path="url(#clip990)" d="M200.07 913.287 L207.709 913.287 L207.709 886.922 L199.399 888.589 L199.399 884.329 L207.662 882.663 L212.338 882.663 L212.338 913.287 L219.977 913.287 L219.977 917.223 L200.07 917.223 L200.07 913.287 Z" fill="#000000" fill-rule="evenodd" fill-opacity="1" /><path clip-path="url(#clip990)" d="M164.399 694.061 Q160.788 694.061 158.959 697.626 Q157.153 701.168 157.153 708.297 Q157.153 715.404 158.959 718.969 Q160.788 722.51 164.399 722.51 Q168.033 722.51 169.839 718.969 Q171.667 715.404 171.667 708.297 Q171.667 701.168 169.839 697.626 Q168.033 694.061 164.399 694.061 M164.399 690.358 Q170.209 690.358 173.264 694.964 Q176.343 699.547 176.343 708.297 Q176.343 717.024 173.264 721.631 Q170.209 726.214 164.399 726.214 Q158.589 726.214 155.51 721.631 Q152.454 717.024 152.454 708.297 Q152.454 699.547 155.51 694.964 Q158.589 690.358 164.399 690.358 Z" fill="#000000" fill-rule="evenodd" fill-opacity="1" /><path clip-path="url(#clip990)" d="M184.561 719.663 L189.445 719.663 L189.445 725.543 L184.561 725.543 L184.561 719.663 Z" fill="#000000" fill-rule="evenodd" fill-opacity="1" /><path clip-path="url(#clip990)" d="M203.658 721.607 L219.977 721.607 L219.977 725.543 L198.033 725.543 L198.033 721.607 Q200.695 718.853 205.278 714.223 Q209.885 709.57 211.065 708.228 Q213.311 705.705 214.19 703.969 Q215.093 702.209 215.093 700.52 Q215.093 697.765 213.149 696.029 Q211.227 694.293 208.125 694.293 Q205.926 694.293 203.473 695.057 Q201.042 695.82 198.264 697.371 L198.264 692.649 Q201.088 691.515 203.542 690.936 Q205.996 690.358 208.033 690.358 Q213.403 690.358 216.598 693.043 Q219.792 695.728 219.792 700.219 Q219.792 702.348 218.982 704.27 Q218.195 706.168 216.088 708.76 Q215.51 709.432 212.408 712.649 Q209.306 715.844 203.658 721.607 Z" fill="#000000" fill-rule="evenodd" fill-opacity="1" /><path clip-path="url(#clip990)" d="M163.45 502.381 Q159.839 502.381 158.01 505.946 Q156.204 509.488 156.204 516.617 Q156.204 523.724 158.01 527.288 Q159.839 530.83 163.45 530.83 Q167.084 530.83 168.889 527.288 Q170.718 523.724 170.718 516.617 Q170.718 509.488 168.889 505.946 Q167.084 502.381 163.45 502.381 M163.45 498.677 Q169.26 498.677 172.315 503.284 Q175.394 507.867 175.394 516.617 Q175.394 525.344 172.315 529.95 Q169.26 534.534 163.45 534.534 Q157.64 534.534 154.561 529.95 Q151.505 525.344 151.505 516.617 Q151.505 507.867 154.561 503.284 Q157.64 498.677 163.45 498.677 Z" fill="#000000" fill-rule="evenodd" fill-opacity="1" /><path clip-path="url(#clip990)" d="M183.612 527.983 L188.496 527.983 L188.496 533.862 L183.612 533.862 L183.612 527.983 Z" fill="#000000" fill-rule="evenodd" fill-opacity="1" /><path clip-path="url(#clip990)" d="M212.848 515.228 Q216.204 515.946 218.079 518.214 Q219.977 520.483 219.977 523.816 Q219.977 528.932 216.459 531.733 Q212.94 534.534 206.459 534.534 Q204.283 534.534 201.968 534.094 Q199.676 533.677 197.223 532.821 L197.223 528.307 Q199.167 529.441 201.482 530.02 Q203.797 530.599 206.32 530.599 Q210.718 530.599 213.01 528.862 Q215.324 527.126 215.324 523.816 Q215.324 520.761 213.172 519.048 Q211.042 517.312 207.223 517.312 L203.195 517.312 L203.195 513.469 L207.408 513.469 Q210.857 513.469 212.686 512.103 Q214.514 510.714 214.514 508.122 Q214.514 505.46 212.616 504.048 Q210.741 502.613 207.223 502.613 Q205.301 502.613 203.102 503.029 Q200.903 503.446 198.264 504.326 L198.264 500.159 Q200.926 499.418 203.241 499.048 Q205.579 498.677 207.639 498.677 Q212.963 498.677 216.065 501.108 Q219.167 503.515 219.167 507.636 Q219.167 510.506 217.523 512.497 Q215.88 514.464 212.848 515.228 Z" fill="#000000" fill-rule="evenodd" fill-opacity="1" /><path clip-path="url(#clip990)" d="M162.315 310.701 Q158.704 310.701 156.876 314.266 Q155.07 317.807 155.07 324.937 Q155.07 332.044 156.876 335.608 Q158.704 339.15 162.315 339.15 Q165.95 339.15 167.755 335.608 Q169.584 332.044 169.584 324.937 Q169.584 317.807 167.755 314.266 Q165.95 310.701 162.315 310.701 M162.315 306.997 Q168.126 306.997 171.181 311.604 Q174.26 316.187 174.26 324.937 Q174.26 333.664 171.181 338.27 Q168.126 342.854 162.315 342.854 Q156.505 342.854 153.427 338.27 Q150.371 333.664 150.371 324.937 Q150.371 316.187 153.427 311.604 Q156.505 306.997 162.315 306.997 Z" fill="#000000" fill-rule="evenodd" fill-opacity="1" /><path clip-path="url(#clip990)" d="M182.477 336.303 L187.362 336.303 L187.362 342.182 L182.477 342.182 L182.477 336.303 Z" fill="#000000" fill-rule="evenodd" fill-opacity="1" /><path clip-path="url(#clip990)" d="M210.394 311.696 L198.588 330.145 L210.394 330.145 L210.394 311.696 M209.167 307.622 L215.047 307.622 L215.047 330.145 L219.977 330.145 L219.977 334.034 L215.047 334.034 L215.047 342.182 L210.394 342.182 L210.394 334.034 L194.792 334.034 L194.792 329.52 L209.167 307.622 Z" fill="#000000" fill-rule="evenodd" fill-opacity="1" /><path clip-path="url(#clip990)" d="M163.797 119.021 Q160.186 119.021 158.357 122.586 Q156.552 126.127 156.552 133.257 Q156.552 140.363 158.357 143.928 Q160.186 147.47 163.797 147.47 Q167.431 147.47 169.237 143.928 Q171.065 140.363 171.065 133.257 Q171.065 126.127 169.237 122.586 Q167.431 119.021 163.797 119.021 M163.797 115.317 Q169.607 115.317 172.663 119.924 Q175.741 124.507 175.741 133.257 Q175.741 141.984 172.663 146.59 Q169.607 151.174 163.797 151.174 Q157.987 151.174 154.908 146.59 Q151.853 141.984 151.853 133.257 Q151.853 124.507 154.908 119.924 Q157.987 115.317 163.797 115.317 Z" fill="#000000" fill-rule="evenodd" fill-opacity="1" /><path clip-path="url(#clip990)" d="M183.959 144.623 L188.843 144.623 L188.843 150.502 L183.959 150.502 L183.959 144.623 Z" fill="#000000" fill-rule="evenodd" fill-opacity="1" /><path clip-path="url(#clip990)" d="M199.075 115.942 L217.431 115.942 L217.431 119.877 L203.357 119.877 L203.357 128.35 Q204.375 128.002 205.394 127.84 Q206.412 127.655 207.431 127.655 Q213.218 127.655 216.598 130.826 Q219.977 133.998 219.977 139.414 Q219.977 144.993 216.505 148.095 Q213.033 151.174 206.713 151.174 Q204.537 151.174 202.269 150.803 Q200.024 150.433 197.616 149.692 L197.616 144.993 Q199.7 146.127 201.922 146.683 Q204.144 147.238 206.621 147.238 Q210.625 147.238 212.963 145.132 Q215.301 143.025 215.301 139.414 Q215.301 135.803 212.963 133.697 Q210.625 131.59 206.621 131.59 Q204.746 131.59 202.871 132.007 Q201.019 132.424 199.075 133.303 L199.075 115.942 Z" fill="#000000" fill-rule="evenodd" fill-opacity="1" /><path clip-path="url(#clip990)" d="M20.1444 773.66 L26.9239 773.66 Q23.9002 776.907 22.4043 780.599 Q20.9083 784.259 20.9083 788.397 Q20.9083 796.545 25.9054 800.874 Q30.8707 805.202 40.2919 805.202 Q49.6813 805.202 54.6784 800.874 Q59.6436 796.545 59.6436 788.397 Q59.6436 784.259 58.1477 780.599 Q56.6518 776.907 53.6281 773.66 L60.3439 773.66 Q62.6355 777.034 63.7814 780.822 Q64.9272 784.577 64.9272 788.779 Q64.9272 799.569 58.3387 805.775 Q51.7183 811.982 40.2919 811.982 Q28.8336 811.982 22.2451 805.775 Q15.6248 799.569 15.6248 788.779 Q15.6248 784.514 16.7706 780.758 Q17.8846 776.97 20.1444 773.66 Z" fill="#000000" fill-rule="evenodd" fill-opacity="1" /><path clip-path="url(#clip990)" d="M33.7671 740.527 L14.479 740.527 L14.479 734.67 L64.0042 734.67 L64.0042 740.527 L58.657 740.527 Q61.8398 742.373 63.3994 745.205 Q64.9272 748.006 64.9272 751.953 Q64.9272 758.414 59.771 762.488 Q54.6147 766.531 46.212 766.531 Q37.8093 766.531 32.6531 762.488 Q27.4968 758.414 27.4968 751.953 Q27.4968 748.006 29.0564 745.205 Q30.5842 742.373 33.7671 740.527 M46.212 760.483 Q52.6732 760.483 56.3653 757.841 Q60.0256 755.168 60.0256 750.521 Q60.0256 745.874 56.3653 743.2 Q52.6732 740.527 46.212 740.527 Q39.7508 740.527 36.0905 743.2 Q32.3984 745.874 32.3984 750.521 Q32.3984 755.168 36.0905 757.841 Q39.7508 760.483 46.212 760.483 Z" fill="#000000" fill-rule="evenodd" fill-opacity="1" /><path clip-path="url(#clip990)" d="M394.979 44.2197 Q397.612 45.1109 400.083 48.0275 Q402.595 50.9442 405.106 56.0483 L413.411 72.576 L404.62 72.576 L396.883 57.061 Q393.885 50.9847 391.05 48.9997 Q388.255 47.0148 383.393 47.0148 L374.481 47.0148 L374.481 72.576 L366.299 72.576 L366.299 12.096 L384.771 12.096 Q395.141 12.096 400.245 16.4305 Q405.349 20.7649 405.349 29.5149 Q405.349 35.2267 402.676 38.994 Q400.043 42.7613 394.979 44.2197 M374.481 18.8205 L374.481 40.2903 L384.771 40.2903 Q390.685 40.2903 393.683 37.5762 Q396.721 34.8216 396.721 29.5149 Q396.721 24.2082 393.683 21.5346 Q390.685 18.8205 384.771 18.8205 L374.481 18.8205 Z" fill="#000000" fill-rule="evenodd" fill-opacity="1" /><path clip-path="url(#clip990)" d="M458.7 48.0275 L458.7 51.6733 L424.429 51.6733 Q424.915 59.3701 429.047 63.421 Q433.22 67.4314 440.633 67.4314 Q444.927 67.4314 448.937 66.3781 Q452.988 65.3249 456.958 63.2184 L456.958 70.267 Q452.947 71.9684 448.735 72.8596 Q444.522 73.7508 440.187 73.7508 Q429.331 73.7508 422.971 67.4314 Q416.651 61.1119 416.651 50.3365 Q416.651 39.1965 422.647 32.6746 Q428.683 26.1121 438.891 26.1121 Q448.046 26.1121 453.353 32.0264 Q458.7 37.9003 458.7 48.0275 M451.246 45.84 Q451.165 39.7232 447.803 36.0774 Q444.481 32.4315 438.972 32.4315 Q432.733 32.4315 428.966 35.9558 Q425.239 39.4801 424.672 45.8805 L451.246 45.84 Z" fill="#000000" fill-rule="evenodd" fill-opacity="1" /><path clip-path="url(#clip990)" d="M471.906 34.9026 L523.838 34.9026 L523.838 41.7081 L471.906 41.7081 L471.906 34.9026 M471.906 51.4303 L523.838 51.4303 L523.838 58.3168 L471.906 58.3168 L471.906 51.4303 Z" fill="#000000" fill-rule="evenodd" fill-opacity="1" /><path clip-path="url(#clip990)" d="M542.918 65.6895 L556.286 65.6895 L556.286 19.5497 L541.743 22.4663 L541.743 15.0127 L556.205 12.096 L564.388 12.096 L564.388 65.6895 L577.756 65.6895 L577.756 72.576 L542.918 72.576 L542.918 65.6895 Z" fill="#000000" fill-rule="evenodd" fill-opacity="1" /><path clip-path="url(#clip990)" d="M611.783 17.4837 Q605.464 17.4837 602.264 23.7221 Q599.104 29.92 599.104 42.3968 Q599.104 54.833 602.264 61.0714 Q605.464 67.2693 611.783 67.2693 Q618.143 67.2693 621.303 61.0714 Q624.503 54.833 624.503 42.3968 Q624.503 29.92 621.303 23.7221 Q618.143 17.4837 611.783 17.4837 M611.783 11.0023 Q621.951 11.0023 627.298 19.0636 Q632.686 27.0843 632.686 42.3968 Q632.686 57.6687 627.298 65.73 Q621.951 73.7508 611.783 73.7508 Q601.616 73.7508 596.228 65.73 Q590.881 57.6687 590.881 42.3968 Q590.881 27.0843 596.228 19.0636 Q601.616 11.0023 611.783 11.0023 Z" fill="#000000" fill-rule="evenodd" fill-opacity="1" /><path clip-path="url(#clip990)" d="M664.567 17.4837 Q658.247 17.4837 655.047 23.7221 Q651.887 29.92 651.887 42.3968 Q651.887 54.833 655.047 61.0714 Q658.247 67.2693 664.567 67.2693 Q670.927 67.2693 674.086 61.0714 Q677.287 54.833 677.287 42.3968 Q677.287 29.92 674.086 23.7221 Q670.927 17.4837 664.567 17.4837 M664.567 11.0023 Q674.735 11.0023 680.082 19.0636 Q685.469 27.0843 685.469 42.3968 Q685.469 57.6687 680.082 65.73 Q674.735 73.7508 664.567 73.7508 Q654.399 73.7508 649.011 65.73 Q643.664 57.6687 643.664 42.3968 Q643.664 27.0843 649.011 19.0636 Q654.399 11.0023 664.567 11.0023 Z" fill="#000000" fill-rule="evenodd" fill-opacity="1" /><path clip-path="url(#clip990)" d="M717.35 17.4837 Q711.031 17.4837 707.83 23.7221 Q704.671 29.92 704.671 42.3968 Q704.671 54.833 707.83 61.0714 Q711.031 67.2693 717.35 67.2693 Q723.71 67.2693 726.87 61.0714 Q730.07 54.833 730.07 42.3968 Q730.07 29.92 726.87 23.7221 Q723.71 17.4837 717.35 17.4837 M717.35 11.0023 Q727.518 11.0023 732.865 19.0636 Q738.253 27.0843 738.253 42.3968 Q738.253 57.6687 732.865 65.73 Q727.518 73.7508 717.35 73.7508 Q707.182 73.7508 701.795 65.73 Q696.447 57.6687 696.447 42.3968 Q696.447 27.0843 701.795 19.0636 Q707.182 11.0023 717.35 11.0023 Z" fill="#000000" fill-rule="evenodd" fill-opacity="1" /><path clip-path="url(#clip990)" d="M752.633 62.2867 L761.181 62.2867 L761.181 72.576 L752.633 72.576 L752.633 62.2867 Z" fill="#000000" fill-rule="evenodd" fill-opacity="1" /><path clip-path="url(#clip990)" d="M796.505 17.4837 Q790.185 17.4837 786.985 23.7221 Q783.825 29.92 783.825 42.3968 Q783.825 54.833 786.985 61.0714 Q790.185 67.2693 796.505 67.2693 Q802.865 67.2693 806.024 61.0714 Q809.225 54.833 809.225 42.3968 Q809.225 29.92 806.024 23.7221 Q802.865 17.4837 796.505 17.4837 M796.505 11.0023 Q806.672 11.0023 812.02 19.0636 Q817.407 27.0843 817.407 42.3968 Q817.407 57.6687 812.02 65.73 Q806.672 73.7508 796.505 73.7508 Q786.337 73.7508 780.949 65.73 Q775.602 57.6687 775.602 42.3968 Q775.602 27.0843 780.949 19.0636 Q786.337 11.0023 796.505 11.0023 Z" fill="#000000" fill-rule="evenodd" fill-opacity="1" /><path clip-path="url(#clip990)" d="M877.725 49.7694 Q868.692 49.7694 865.208 51.8354 Q861.724 53.9013 861.724 58.8839 Q861.724 62.8538 864.317 65.2034 Q866.95 67.5124 871.446 67.5124 Q877.644 67.5124 881.371 63.1374 Q885.138 58.7219 885.138 51.4303 L885.138 49.7694 L877.725 49.7694 M892.592 46.6907 L892.592 72.576 L885.138 72.576 L885.138 65.6895 Q882.586 69.8214 878.779 71.8063 Q874.971 73.7508 869.461 73.7508 Q862.494 73.7508 858.362 69.8619 Q854.271 65.9325 854.271 59.3701 Q854.271 51.7138 859.375 47.825 Q864.519 43.9361 874.687 43.9361 L885.138 43.9361 L885.138 43.2069 Q885.138 38.0623 881.736 35.2672 Q878.373 32.4315 872.257 32.4315 Q868.368 32.4315 864.681 33.3632 Q860.995 34.295 857.592 36.1584 L857.592 29.2718 Q861.684 27.692 865.532 26.9223 Q869.38 26.1121 873.026 26.1121 Q882.87 26.1121 887.731 31.2163 Q892.592 36.3204 892.592 46.6907 Z" fill="#000000" fill-rule="evenodd" fill-opacity="1" /><path clip-path="url(#clip990)" d="M908.917 34.9026 L960.85 34.9026 L960.85 41.7081 L908.917 41.7081 L908.917 34.9026 M908.917 51.4303 L960.85 51.4303 L960.85 58.3168 L908.917 58.3168 L908.917 51.4303 Z" fill="#000000" fill-rule="evenodd" fill-opacity="1" /><path clip-path="url(#clip990)" d="M996.012 17.4837 Q989.692 17.4837 986.492 23.7221 Q983.332 29.92 983.332 42.3968 Q983.332 54.833 986.492 61.0714 Q989.692 67.2693 996.012 67.2693 Q1002.37 67.2693 1005.53 61.0714 Q1008.73 54.833 1008.73 42.3968 Q1008.73 29.92 1005.53 23.7221 Q1002.37 17.4837 996.012 17.4837 M996.012 11.0023 Q1006.18 11.0023 1011.53 19.0636 Q1016.91 27.0843 1016.91 42.3968 Q1016.91 57.6687 1011.53 65.73 Q1006.18 73.7508 996.012 73.7508 Q985.844 73.7508 980.456 65.73 Q975.109 57.6687 975.109 42.3968 Q975.109 27.0843 980.456 19.0636 Q985.844 11.0023 996.012 11.0023 Z" fill="#000000" fill-rule="evenodd" fill-opacity="1" /><path clip-path="url(#clip990)" d="M1031.3 62.2867 L1039.84 62.2867 L1039.84 72.576 L1031.3 72.576 L1031.3 62.2867 Z" fill="#000000" fill-rule="evenodd" fill-opacity="1" /><path clip-path="url(#clip990)" d="M1064.72 65.6895 L1093.27 65.6895 L1093.27 72.576 L1054.87 72.576 L1054.87 65.6895 Q1059.53 60.8689 1067.55 52.7671 Q1075.61 44.6248 1077.68 42.2752 Q1081.61 37.8598 1083.15 34.8216 Q1084.73 31.7429 1084.73 28.7857 Q1084.73 23.9651 1081.32 20.927 Q1077.96 17.8888 1072.53 17.8888 Q1068.68 17.8888 1064.39 19.2256 Q1060.14 20.5624 1055.28 23.2765 L1055.28 15.0127 Q1060.22 13.0277 1064.51 12.015 Q1068.81 11.0023 1072.37 11.0023 Q1081.77 11.0023 1087.36 15.7013 Q1092.95 20.4004 1092.95 28.2591 Q1092.95 31.9859 1091.53 35.3482 Q1090.15 38.6699 1086.47 43.2069 Q1085.46 44.3817 1080.03 50.0125 Q1074.6 55.6027 1064.72 65.6895 Z" fill="#000000" fill-rule="evenodd" fill-opacity="1" /><path clip-path="url(#clip990)" d="M1110.53 12.096 L1142.65 12.096 L1142.65 18.9825 L1118.02 18.9825 L1118.02 33.8088 Q1119.81 33.2012 1121.59 32.9176 Q1123.37 32.5936 1125.15 32.5936 Q1135.28 32.5936 1141.2 38.1433 Q1147.11 43.6931 1147.11 53.1722 Q1147.11 62.9348 1141.03 68.3631 Q1134.96 73.7508 1123.9 73.7508 Q1120.09 73.7508 1116.12 73.1026 Q1112.19 72.4545 1107.98 71.1582 L1107.98 62.9348 Q1111.62 64.9198 1115.51 65.892 Q1119.4 66.8642 1123.74 66.8642 Q1130.74 66.8642 1134.84 63.1779 Q1138.93 59.4916 1138.93 53.1722 Q1138.93 46.8528 1134.84 43.1664 Q1130.74 39.4801 1123.74 39.4801 Q1120.46 39.4801 1117.17 40.2093 Q1113.93 40.9384 1110.53 42.4778 L1110.53 12.096 Z" fill="#000000" fill-rule="evenodd" fill-opacity="1" /><path clip-path="url(#clip990)" d="M1211.52 9.54393 L1211.52 15.7418 L1204.39 15.7418 Q1200.38 15.7418 1198.8 17.3622 Q1197.26 18.9825 1197.26 23.1955 L1197.26 27.2059 L1209.53 27.2059 L1209.53 32.9987 L1197.26 32.9987 L1197.26 72.576 L1189.77 72.576 L1189.77 32.9987 L1182.64 32.9987 L1182.64 27.2059 L1189.77 27.2059 L1189.77 24.0462 Q1189.77 16.471 1193.29 13.0277 Q1196.82 9.54393 1204.47 9.54393 L1211.52 9.54393 Z" fill="#000000" fill-rule="evenodd" fill-opacity="1" /><path clip-path="url(#clip990)" d="M1218.73 34.9026 L1270.66 34.9026 L1270.66 41.7081 L1218.73 41.7081 L1218.73 34.9026 M1218.73 51.4303 L1270.66 51.4303 L1270.66 58.3168 L1218.73 58.3168 L1218.73 51.4303 Z" fill="#000000" fill-rule="evenodd" fill-opacity="1" /><path clip-path="url(#clip990)" d="M1289.74 65.6895 L1303.11 65.6895 L1303.11 19.5497 L1288.57 22.4663 L1288.57 15.0127 L1303.03 12.096 L1311.21 12.096 L1311.21 65.6895 L1324.58 65.6895 L1324.58 72.576 L1289.74 72.576 L1289.74 65.6895 Z" fill="#000000" fill-rule="evenodd" fill-opacity="1" /><path clip-path="url(#clip990)" d="M1341.11 62.2867 L1349.66 62.2867 L1349.66 72.576 L1341.11 72.576 L1341.11 62.2867 Z" fill="#000000" fill-rule="evenodd" fill-opacity="1" /><path clip-path="url(#clip990)" d="M1384.98 17.4837 Q1378.66 17.4837 1375.46 23.7221 Q1372.3 29.92 1372.3 42.3968 Q1372.3 54.833 1375.46 61.0714 Q1378.66 67.2693 1384.98 67.2693 Q1391.34 67.2693 1394.5 61.0714 Q1397.7 54.833 1397.7 42.3968 Q1397.7 29.92 1394.5 23.7221 Q1391.34 17.4837 1384.98 17.4837 M1384.98 11.0023 Q1395.15 11.0023 1400.49 19.0636 Q1405.88 27.0843 1405.88 42.3968 Q1405.88 57.6687 1400.49 65.73 Q1395.15 73.7508 1384.98 73.7508 Q1374.81 73.7508 1369.42 65.73 Q1364.08 57.6687 1364.08 42.3968 Q1364.08 27.0843 1369.42 19.0636 Q1374.81 11.0023 1384.98 11.0023 Z" fill="#000000" fill-rule="evenodd" fill-opacity="1" /><path clip-path="url(#clip990)" d="M1472.03 51.4708 L1470.25 42.1132 Q1468.43 32.5126 1461.22 32.5126 Q1455.79 32.5126 1453.32 36.9686 Q1450.2 42.5588 1450.2 49.9314 Q1450.2 58.8434 1453.24 63.0969 Q1456.32 67.4314 1461.22 67.4314 Q1466.65 67.4314 1469.56 58.8029 L1472.03 51.4708 M1476.21 39.075 L1480.22 27.2059 L1486.86 27.2059 L1478.56 51.7949 L1480.18 60.6663 Q1480.54 62.6513 1481.96 64.3122 Q1483.62 66.2566 1484.92 66.2566 L1488.48 66.2566 L1488.48 72.576 L1484.02 72.576 Q1480.22 72.576 1476.81 69.1732 Q1475.15 67.4719 1474.46 63.9071 Q1472.6 68.4036 1468.79 71.9279 Q1467.01 73.5887 1461.22 73.5887 Q1451.7 73.5887 1447.08 67.4314 Q1442.34 61.0714 1442.34 49.9314 Q1442.34 38.0218 1447.48 32.4315 Q1453.2 26.1931 1461.22 26.1931 Q1473.82 26.1931 1476.21 39.075 Z" fill="#000000" fill-rule="evenodd" fill-opacity="1" /><path clip-path="url(#clip990)" d="M1520.4 58.2358 L1520.4 72.576 L1515.7 72.576 L1515.7 57.3851 Q1515.7 53.6988 1514.24 51.9569 Q1512.79 50.1745 1509.75 50.1745 Q1506.14 50.1745 1504.04 52.362 Q1501.93 54.509 1501.93 58.2358 L1501.93 72.576 L1497.19 72.576 L1497.19 47.1768 L1501.93 47.1768 L1501.93 51.1062 Q1503.51 48.7972 1505.74 47.7034 Q1508.01 46.5692 1511.12 46.5692 Q1514.2 46.5692 1516.39 47.987 Q1518.58 49.3643 1519.63 52.0379 Q1521.37 49.2428 1523.8 47.906 Q1526.28 46.5692 1529.6 46.5692 Q1534.09 46.5692 1536.48 49.3643 Q1538.91 52.1189 1538.91 57.2231 L1538.91 72.576 L1534.21 72.576 L1534.21 57.3851 Q1534.21 53.7393 1532.76 51.9569 Q1531.3 50.1745 1528.3 50.1745 Q1524.65 50.1745 1522.51 52.362 Q1520.4 54.509 1520.4 58.2358 Z" fill="#000000" fill-rule="evenodd" fill-opacity="1" /><path clip-path="url(#clip990)" d="M1573.51 58.8434 L1573.51 60.8689 L1551.92 60.8689 Q1552.24 65.1628 1554.83 67.4314 Q1557.47 69.6999 1562.13 69.6999 Q1564.84 69.6999 1567.39 69.0922 Q1569.9 68.5251 1572.41 67.3503 L1572.41 71.2797 Q1569.9 72.2519 1567.23 72.738 Q1564.6 73.2241 1561.84 73.2241 Q1555 73.2241 1551.03 69.6999 Q1547.02 66.1756 1547.02 60.1397 Q1547.02 53.9013 1550.82 50.215 Q1554.59 46.5692 1561.03 46.5692 Q1566.78 46.5692 1570.15 49.8504 Q1573.51 53.1722 1573.51 58.8434 M1568.81 57.5877 Q1568.77 54.1849 1566.66 52.1189 Q1564.56 50.0935 1561.07 50.0935 Q1557.14 50.0935 1554.79 52.0784 Q1552.44 54.0229 1552.08 57.5877 L1568.81 57.5877 Z" fill="#000000" fill-rule="evenodd" fill-opacity="1" /><path clip-path="url(#clip990)" d="M1596.64 59.8157 Q1590.97 59.8157 1588.78 60.9499 Q1586.55 62.1247 1586.55 64.9198 Q1586.55 67.1478 1588.21 68.4441 Q1589.87 69.7404 1592.71 69.7404 Q1596.6 69.7404 1598.95 67.2693 Q1601.34 64.7983 1601.34 60.7474 L1601.34 59.8157 L1596.64 59.8157 M1606 58.0738 L1606 72.576 L1601.34 72.576 L1601.34 68.7276 Q1599.72 71.0367 1597.33 72.1304 Q1594.9 73.2241 1591.45 73.2241 Q1587.04 73.2241 1584.45 71.0367 Q1581.85 68.8492 1581.85 65.1628 Q1581.85 60.9094 1585.09 58.7219 Q1588.33 56.5344 1594.74 56.5344 L1601.34 56.5344 L1601.34 56.1293 Q1601.34 53.2532 1599.19 51.6733 Q1597.04 50.0935 1593.2 50.0935 Q1590.77 50.0935 1588.42 50.6201 Q1586.11 51.1467 1583.96 52.2 L1583.96 48.3111 Q1586.55 47.4604 1588.98 47.0148 Q1591.37 46.5692 1593.68 46.5692 Q1599.88 46.5692 1602.96 49.4048 Q1606 52.281 1606 58.0738 Z" fill="#000000" fill-rule="evenodd" fill-opacity="1" /><path clip-path="url(#clip990)" d="M1639.9 57.2231 L1639.9 72.576 L1635.2 72.576 L1635.2 57.3851 Q1635.2 53.7798 1633.62 51.9974 Q1632.04 50.1745 1628.88 50.1745 Q1625.08 50.1745 1622.89 52.362 Q1620.7 54.509 1620.7 58.2358 L1620.7 72.576 L1615.96 72.576 L1615.96 47.1768 L1620.7 47.1768 L1620.7 51.1062 Q1622.36 48.8377 1624.63 47.7034 Q1626.94 46.5692 1629.94 46.5692 Q1634.84 46.5692 1637.35 49.2833 Q1639.9 51.9974 1639.9 57.2231 Z" fill="#000000" fill-rule="evenodd" fill-opacity="1" /><path clip-path="url(#clip990)" d="M1653.07 34.9026 L1705 34.9026 L1705 41.7081 L1653.07 41.7081 L1653.07 34.9026 M1653.07 51.4303 L1705 51.4303 L1705 58.3168 L1653.07 58.3168 L1653.07 51.4303 Z" fill="#000000" fill-rule="evenodd" fill-opacity="1" /><path clip-path="url(#clip990)" d="M1745.15 19.2256 L1724.49 51.5113 L1745.15 51.5113 L1745.15 19.2256 M1743 12.096 L1753.29 12.096 L1753.29 51.5113 L1761.92 51.5113 L1761.92 58.3168 L1753.29 58.3168 L1753.29 72.576 L1745.15 72.576 L1745.15 58.3168 L1717.84 58.3168 L1717.84 50.4176 L1743 12.096 Z" fill="#000000" fill-rule="evenodd" fill-opacity="1" /><path clip-path="url(#clip990)" d="M1775.45 62.2867 L1783.99 62.2867 L1783.99 72.576 L1775.45 72.576 L1775.45 62.2867 Z" fill="#000000" fill-rule="evenodd" fill-opacity="1" /><path clip-path="url(#clip990)" d="M1819.32 17.4837 Q1813 17.4837 1809.8 23.7221 Q1806.64 29.92 1806.64 42.3968 Q1806.64 54.833 1809.8 61.0714 Q1813 67.2693 1819.32 67.2693 Q1825.68 67.2693 1828.84 61.0714 Q1832.04 54.833 1832.04 42.3968 Q1832.04 29.92 1828.84 23.7221 Q1825.68 17.4837 1819.32 17.4837 M1819.32 11.0023 Q1829.49 11.0023 1834.83 19.0636 Q1840.22 27.0843 1840.22 42.3968 Q1840.22 57.6687 1834.83 65.73 Q1829.49 73.7508 1819.32 73.7508 Q1809.15 73.7508 1803.76 65.73 Q1798.41 57.6687 1798.41 42.3968 Q1798.41 27.0843 1803.76 19.0636 Q1809.15 11.0023 1819.32 11.0023 Z" fill="#000000" fill-rule="evenodd" fill-opacity="1" /><path clip-path="url(#clip990)" d="M1906.37 51.4708 L1904.59 42.1132 Q1902.77 32.5126 1895.56 32.5126 Q1890.13 32.5126 1887.66 36.9686 Q1884.54 42.5588 1884.54 49.9314 Q1884.54 58.8434 1887.58 63.0969 Q1890.65 67.4314 1895.56 67.4314 Q1900.98 67.4314 1903.9 58.8029 L1906.37 51.4708 M1910.54 39.075 L1914.55 27.2059 L1921.2 27.2059 L1912.89 51.7949 L1914.51 60.6663 Q1914.88 62.6513 1916.3 64.3122 Q1917.96 66.2566 1919.25 66.2566 L1922.82 66.2566 L1922.82 72.576 L1918.36 72.576 Q1914.55 72.576 1911.15 69.1732 Q1909.49 67.4719 1908.8 63.9071 Q1906.94 68.4036 1903.13 71.9279 Q1901.35 73.5887 1895.56 73.5887 Q1886.04 73.5887 1881.42 67.4314 Q1876.68 61.0714 1876.68 49.9314 Q1876.68 38.0218 1881.82 32.4315 Q1887.53 26.1931 1895.56 26.1931 Q1908.15 26.1931 1910.54 39.075 Z" fill="#000000" fill-rule="evenodd" fill-opacity="1" /><path clip-path="url(#clip990)" d="M1944.69 59.8157 Q1939.02 59.8157 1936.83 60.9499 Q1934.61 62.1247 1934.61 64.9198 Q1934.61 67.1478 1936.27 68.4441 Q1937.93 69.7404 1940.76 69.7404 Q1944.65 69.7404 1947 67.2693 Q1949.39 64.7983 1949.39 60.7474 L1949.39 59.8157 L1944.69 59.8157 M1954.05 58.0738 L1954.05 72.576 L1949.39 72.576 L1949.39 68.7276 Q1947.77 71.0367 1945.38 72.1304 Q1942.95 73.2241 1939.51 73.2241 Q1935.09 73.2241 1932.5 71.0367 Q1929.91 68.8492 1929.91 65.1628 Q1929.91 60.9094 1933.15 58.7219 Q1936.39 56.5344 1942.79 56.5344 L1949.39 56.5344 L1949.39 56.1293 Q1949.39 53.2532 1947.25 51.6733 Q1945.1 50.0935 1941.25 50.0935 Q1938.82 50.0935 1936.47 50.6201 Q1934.16 51.1467 1932.01 52.2 L1932.01 48.3111 Q1934.61 47.4604 1937.04 47.0148 Q1939.43 46.5692 1941.74 46.5692 Q1947.93 46.5692 1951.01 49.4048 Q1954.05 52.281 1954.05 58.0738 Z" fill="#000000" fill-rule="evenodd" fill-opacity="1" /><path clip-path="url(#clip990)" d="M1987.23 58.2358 L1987.23 72.576 L1982.53 72.576 L1982.53 57.3851 Q1982.53 53.6988 1981.07 51.9569 Q1979.61 50.1745 1976.57 50.1745 Q1972.97 50.1745 1970.86 52.362 Q1968.76 54.509 1968.76 58.2358 L1968.76 72.576 L1964.02 72.576 L1964.02 47.1768 L1968.76 47.1768 L1968.76 51.1062 Q1970.34 48.7972 1972.56 47.7034 Q1974.83 46.5692 1977.95 46.5692 Q1981.03 46.5692 1983.22 47.987 Q1985.4 49.3643 1986.46 52.0379 Q1988.2 49.2428 1990.63 47.906 Q1993.1 46.5692 1996.42 46.5692 Q2000.92 46.5692 2003.31 49.3643 Q2005.74 52.1189 2005.74 57.2231 L2005.74 72.576 L2001.04 72.576 L2001.04 57.3851 Q2001.04 53.7393 1999.58 51.9569 Q1998.12 50.1745 1995.13 50.1745 Q1991.48 50.1745 1989.33 52.362 Q1987.23 54.509 1987.23 58.2358 Z" fill="#000000" fill-rule="evenodd" fill-opacity="1" /><path clip-path="url(#clip990)" d="M2020.44 68.7682 L2020.44 82.2577 L2015.71 82.2577 L2015.71 47.1768 L2020.44 47.1768 L2020.44 51.0252 Q2021.9 48.7567 2024.17 47.6629 Q2026.44 46.5692 2029.56 46.5692 Q2034.79 46.5692 2038.03 50.215 Q2041.27 53.9013 2041.27 59.8967 Q2041.27 65.892 2038.03 69.5783 Q2034.79 73.2241 2029.56 73.2241 Q2026.44 73.2241 2024.17 72.1304 Q2021.9 71.0367 2020.44 68.7682 M2034.3 67.1073 Q2036.41 64.5147 2036.41 59.8967 Q2036.41 55.2786 2034.3 52.6861 Q2032.15 50.053 2028.43 50.053 Q2024.7 50.053 2022.55 52.6861 Q2020.44 55.2786 2020.44 59.8967 Q2020.44 64.5147 2022.55 67.1073 Q2024.7 69.7404 2028.43 69.7404 Q2032.15 69.7404 2034.3 67.1073 Z" fill="#000000" fill-rule="evenodd" fill-opacity="1" /><path clip-path="url(#clip990)" d="M2055.28 34.9026 L2107.22 34.9026 L2107.22 41.7081 L2055.28 41.7081 L2055.28 34.9026 M2055.28 51.4303 L2107.22 51.4303 L2107.22 58.3168 L2055.28 58.3168 L2055.28 51.4303 Z" fill="#000000" fill-rule="evenodd" fill-opacity="1" /><path clip-path="url(#clip990)" d="M2147.36 19.2256 L2126.7 51.5113 L2147.36 51.5113 L2147.36 19.2256 M2145.21 12.096 L2155.5 12.096 L2155.5 51.5113 L2164.13 51.5113 L2164.13 58.3168 L2155.5 58.3168 L2155.5 72.576 L2147.36 72.576 L2147.36 58.3168 L2120.06 58.3168 L2120.06 50.4176 L2145.21 12.096 Z" fill="#000000" fill-rule="evenodd" fill-opacity="1" /><path clip-path="url(#clip990)" d="M2177.66 62.2867 L2186.21 62.2867 L2186.21 72.576 L2177.66 72.576 L2177.66 62.2867 Z" fill="#000000" fill-rule="evenodd" fill-opacity="1" /><path clip-path="url(#clip990)" d="M2221.53 17.4837 Q2215.21 17.4837 2212.01 23.7221 Q2208.85 29.92 2208.85 42.3968 Q2208.85 54.833 2212.01 61.0714 Q2215.21 67.2693 2221.53 67.2693 Q2227.89 67.2693 2231.05 61.0714 Q2234.25 54.833 2234.25 42.3968 Q2234.25 29.92 2231.05 23.7221 Q2227.89 17.4837 2221.53 17.4837 M2221.53 11.0023 Q2231.7 11.0023 2237.05 19.0636 Q2242.43 27.0843 2242.43 42.3968 Q2242.43 57.6687 2237.05 65.73 Q2231.7 73.7508 2221.53 73.7508 Q2211.36 73.7508 2205.98 65.73 Q2200.63 57.6687 2200.63 42.3968 Q2200.63 27.0843 2205.98 19.0636 Q2211.36 11.0023 2221.53 11.0023 Z" fill="#000000" fill-rule="evenodd" fill-opacity="1" /><polyline clip-path="url(#clip992)" style="stroke:#009af9; stroke-linecap:butt; stroke-linejoin:round; stroke-width:4; stroke-opacity:1; fill:none" points="
  315.32,1091.62 321.936,1386.4 328.551,1014.18 335.167,641.549 341.783,531.236 348.398,757.559 355.014,1022.23 361.63,1173.58 368.246,1189.25 374.861,1231.18 
  381.477,1378.66 388.093,1319.98 394.708,1023.51 401.324,703.508 407.94,621.663 414.555,830.136 421.171,1066.68 427.787,1189 434.403,1202.99 441.018,1222.66 
  447.634,1322.78 454.25,1256.3 460.865,1025.62 467.481,723.713 474.097,634.347 480.712,850.344 487.328,1090.55 493.944,1196.11 500.559,1210.88 507.175,1213.62 
  513.791,1309.55 520.407,1220.4 527.022,1011.49 533.638,710.021 540.254,621.571 546.869,847.701 553.485,1094.03 560.101,1202.32 566.716,1216.91 573.332,1202.44 
  579.948,1303.41 586.564,1184.84 593.179,996.846 599.795,691.57 606.411,603.878 613.026,839.258 619.642,1096.66 626.258,1208.56 632.873,1221.64 639.489,1196.23 
  646.105,1300.08 652.72,1197.76 659.336,986.226 665.952,692.721 672.568,575.586 679.183,823.749 685.799,1099.77 692.415,1214.94 699.03,1227.85 705.646,1196.79 
  712.262,1303.15 718.877,1192.77 725.493,983.147 732.109,667.797 738.725,553.448 745.34,805.827 751.956,1107.21 758.572,1221.64 765.187,1232.44 771.803,1188.95 
  778.419,1316.65 785.034,1208.29 791.65,969.436 798.266,649.992 804.881,529.263 811.497,780.773 818.113,1109.7 824.729,1228.56 831.344,1238.21 837.96,1187.06 
  844.576,1333.09 851.191,1206.87 857.807,957.744 864.423,670.416 871.038,522.417 877.654,754.747 884.27,1116.22 890.886,1235.65 897.501,1243.03 904.117,1188.83 
  910.733,1351.25 917.348,1223.71 923.964,933.285 930.58,643.928 937.195,530.839 943.811,736.205 950.427,1124.54 957.042,1242.87 963.658,1248.21 970.274,1207.6 
  976.89,1307.45 983.505,1245.26 990.121,923.562 996.737,617.333 1003.35,565.907 1009.97,732.838 1016.58,1135.79 1023.2,1250.11 1029.82,1253.12 1036.43,1171.26 
  1043.05,1258.34 1049.66,1249.18 1056.28,913.568 1062.89,668.989 1069.51,537.638 1076.13,761.714 1082.74,1149.62 1089.36,1257.32 1095.97,1258.51 1102.59,1121.51 
  1109.2,1214.78 1115.82,1268.2 1122.43,903.317 1129.05,639.097 1135.67,523.973 1142.28,765.427 1148.9,1164.25 1155.51,1264.56 1162.13,1264.07 1168.74,1094 
  1175.36,1183.48 1181.98,1289.19 1188.59,892.262 1195.21,727.343 1201.82,521.5 1208.44,758.403 1215.05,1169.09 1221.67,1271.57 1228.29,1268.82 1234.9,1078.73 
  1241.52,1159.47 1248.13,1315 1254.75,867.201 1261.36,694.462 1267.98,519.199 1274.6,746.753 1281.21,1161.74 1287.83,1278.34 1294.44,1262.96 1301.06,1068.4 
  1307.67,1128.69 1314.29,1191.34 1320.91,855.054 1327.52,804.376 1334.14,510.085 1340.75,735.15 1347.37,1219.61 1353.98,1284.77 1360.6,1192.63 1367.22,1061.74 
  1373.83,1106.78 1380.45,1198.91 1387.06,841.827 1393.68,768.252 1400.29,496.792 1406.91,724.161 1413.53,1228.1 1420.14,1290.8 1426.76,1233.71 1433.37,1056.4 
  1439.99,1079.24 1446.6,1077.89 1453.22,827.729 1459.84,728.328 1466.45,520.168 1473.07,725.309 1479.68,1231.82 1486.3,1296.33 1492.91,1222.3 1499.53,1040.53 
  1506.15,1055.02 1512.76,1089.57 1519.38,812.412 1525.99,686.551 1532.61,548.615 1539.22,746.033 1545.84,1234.21 1552.46,1301.33 1559.07,1204.91 1565.69,985.114 
  1572.3,1049.63 1578.92,1105.64 1585.53,783.858 1592.15,637.307 1598.77,586.45 1605.38,798.484 1612,1238.67 1618.61,1305.84 1625.23,1183.97 1631.84,892.604 
  1638.46,936.049 1645.07,999.916 1651.69,766.697 1658.31,575.594 1664.92,632.93 1671.54,747.194 1678.15,1241.19 1684.77,1309.61 1691.38,1162.3 1698,878.628 
  1704.62,973.445 1711.23,991.932 1717.85,748.523 1724.46,510.813 1731.08,574.73 1737.69,703.518 1744.31,1244.48 1750.93,1312.72 1757.54,1140.02 1764.16,871.208 
  1770.77,910.132 1777.39,918.022 1784,729.393 1790.62,435.66 1797.24,513.234 1803.85,672.528 1810.47,1248.65 1817.08,1315.61 1823.7,1122.47 1830.31,884.955 
  1836.93,869.689 1843.55,917.499 1850.16,709.392 1856.78,379.763 1863.39,453.37 1870.01,650.84 1876.62,1253.51 1883.24,1317.35 1889.86,1101.82 1896.47,884.652 
  1903.09,852.401 1909.7,918.635 1916.32,678.233 1922.93,288.598 1929.55,396.607 1936.17,636.666 1942.78,1258.45 1949.4,1318.32 1956.01,1076.28 1962.63,888.41 
  1969.24,850.795 1975.86,877.17 1982.48,658.235 1989.09,253.615 1995.71,339.288 2002.32,630.01 2008.94,1264.74 2015.55,1318.55 2022.17,1048.28 2028.79,889.866 
  2035.4,839.793 2042.02,859.176 2048.63,637.938 2055.25,263.372 2061.86,279.9 2068.48,629.729 2075.1,1271.91 2081.71,1318.21 2088.33,1015.91 2094.94,874.947 
  2101.56,845.653 2108.17,860.778 2114.79,616.743 2121.41,160.256 2128.02,229.943 2134.64,634.727 2141.25,1280.24 2147.87,1317.31 2154.48,961.895 2161.1,830.21 
  2167.71,849.11 2174.33,863.137 2180.95,594.199 2187.56,209.608 2194.18,215.771 2200.79,643.503 2207.41,1289.76 2214.02,1316.05 2220.64,740.982 2227.26,753.006 
  2233.87,864.163 2240.49,848.021 2247.1,561.274 2253.72,312.408 2260.33,165.275 2266.95,645.406 2273.57,1300.57 2280.18,1314.49 2286.8,781.847 2293.41,729.151 
  
  "/>
</svg>
