<?xml version="1.0" encoding="utf-8"?>
<svg xmlns="http://www.w3.org/2000/svg" xmlns:xlink="http://www.w3.org/1999/xlink" width="600" height="400" viewBox="0 0 2400 1600">
<defs>
  <clipPath id="clip870">
    <rect x="0" y="0" width="2400" height="1600"/>
  </clipPath>
</defs>
<path clip-path="url(#clip870)" d="
M0 1600 L2400 1600 L2400 0 L0 0  Z
  " fill="#ffffff" fill-rule="evenodd" fill-opacity="1"/>
<defs>
  <clipPath id="clip871">
    <rect x="480" y="0" width="1681" height="1600"/>
  </clipPath>
</defs>
<path clip-path="url(#clip870)" d="
M211.325 1423.18 L2352.76 1423.18 L2352.76 123.472 L211.325 123.472  Z
  " fill="#ffffff" fill-rule="evenodd" fill-opacity="1"/>
<defs>
  <clipPath id="clip872">
    <rect x="211" y="123" width="2142" height="1301"/>
  </clipPath>
</defs>
<polyline clip-path="url(#clip872)" style="stroke:#000000; stroke-linecap:butt; stroke-linejoin:round; stroke-width:2; stroke-opacity:0.1; fill:none" points="
  271.917,1423.18 271.917,123.472 
  "/>
<polyline clip-path="url(#clip872)" style="stroke:#000000; stroke-linecap:butt; stroke-linejoin:round; stroke-width:2; stroke-opacity:0.1; fill:none" points="
  776.979,1423.18 776.979,123.472 
  "/>
<polyline clip-path="url(#clip872)" style="stroke:#000000; stroke-linecap:butt; stroke-linejoin:round; stroke-width:2; stroke-opacity:0.1; fill:none" points="
  1282.04,1423.18 1282.04,123.472 
  "/>
<polyline clip-path="url(#clip872)" style="stroke:#000000; stroke-linecap:butt; stroke-linejoin:round; stroke-width:2; stroke-opacity:0.1; fill:none" points="
  1787.1,1423.18 1787.1,123.472 
  "/>
<polyline clip-path="url(#clip872)" style="stroke:#000000; stroke-linecap:butt; stroke-linejoin:round; stroke-width:2; stroke-opacity:0.1; fill:none" points="
  2292.16,1423.18 2292.16,123.472 
  "/>
<polyline clip-path="url(#clip870)" style="stroke:#000000; stroke-linecap:butt; stroke-linejoin:round; stroke-width:4; stroke-opacity:1; fill:none" points="
  211.325,1423.18 2352.76,1423.18 
  "/>
<polyline clip-path="url(#clip870)" style="stroke:#000000; stroke-linecap:butt; stroke-linejoin:round; stroke-width:4; stroke-opacity:1; fill:none" points="
  271.917,1423.18 271.917,1404.28 
  "/>
<polyline clip-path="url(#clip870)" style="stroke:#000000; stroke-linecap:butt; stroke-linejoin:round; stroke-width:4; stroke-opacity:1; fill:none" points="
  776.979,1423.18 776.979,1404.28 
  "/>
<polyline clip-path="url(#clip870)" style="stroke:#000000; stroke-linecap:butt; stroke-linejoin:round; stroke-width:4; stroke-opacity:1; fill:none" points="
  1282.04,1423.18 1282.04,1404.28 
  "/>
<polyline clip-path="url(#clip870)" style="stroke:#000000; stroke-linecap:butt; stroke-linejoin:round; stroke-width:4; stroke-opacity:1; fill:none" points="
  1787.1,1423.18 1787.1,1404.28 
  "/>
<polyline clip-path="url(#clip870)" style="stroke:#000000; stroke-linecap:butt; stroke-linejoin:round; stroke-width:4; stroke-opacity:1; fill:none" points="
  2292.16,1423.18 2292.16,1404.28 
  "/>
<path clip-path="url(#clip870)" d="M271.917 1454.1 Q268.306 1454.1 266.477 1457.66 Q264.672 1461.2 264.672 1468.33 Q264.672 1475.44 266.477 1479.01 Q268.306 1482.55 271.917 1482.55 Q275.551 1482.55 277.357 1479.01 Q279.186 1475.44 279.186 1468.33 Q279.186 1461.2 277.357 1457.66 Q275.551 1454.1 271.917 1454.1 M271.917 1450.39 Q277.727 1450.39 280.783 1455 Q283.862 1459.58 283.862 1468.33 Q283.862 1477.06 280.783 1481.67 Q277.727 1486.25 271.917 1486.25 Q266.107 1486.25 263.028 1481.67 Q259.973 1477.06 259.973 1468.33 Q259.973 1459.58 263.028 1455 Q266.107 1450.39 271.917 1450.39 Z" fill="#000000" fill-rule="evenodd" fill-opacity="1" /><path clip-path="url(#clip870)" d="M771.632 1481.64 L787.951 1481.64 L787.951 1485.58 L766.007 1485.58 L766.007 1481.64 Q768.669 1478.89 773.252 1474.26 Q777.858 1469.61 779.039 1468.27 Q781.284 1465.74 782.164 1464.01 Q783.067 1462.25 783.067 1460.56 Q783.067 1457.8 781.122 1456.07 Q779.201 1454.33 776.099 1454.33 Q773.9 1454.33 771.446 1455.09 Q769.016 1455.86 766.238 1457.41 L766.238 1452.69 Q769.062 1451.55 771.516 1450.97 Q773.97 1450.39 776.007 1450.39 Q781.377 1450.39 784.571 1453.08 Q787.766 1455.77 787.766 1460.26 Q787.766 1462.39 786.956 1464.31 Q786.169 1466.2 784.062 1468.8 Q783.483 1469.47 780.382 1472.69 Q777.28 1475.88 771.632 1481.64 Z" fill="#000000" fill-rule="evenodd" fill-opacity="1" /><path clip-path="url(#clip870)" d="M1285.05 1455.09 L1273.24 1473.54 L1285.05 1473.54 L1285.05 1455.09 M1283.82 1451.02 L1289.7 1451.02 L1289.7 1473.54 L1294.63 1473.54 L1294.63 1477.43 L1289.7 1477.43 L1289.7 1485.58 L1285.05 1485.58 L1285.05 1477.43 L1269.45 1477.43 L1269.45 1472.92 L1283.82 1451.02 Z" fill="#000000" fill-rule="evenodd" fill-opacity="1" /><path clip-path="url(#clip870)" d="M1787.51 1466.44 Q1784.36 1466.44 1782.51 1468.59 Q1780.68 1470.74 1780.68 1474.49 Q1780.68 1478.22 1782.51 1480.39 Q1784.36 1482.55 1787.51 1482.55 Q1790.66 1482.55 1792.48 1480.39 Q1794.34 1478.22 1794.34 1474.49 Q1794.34 1470.74 1792.48 1468.59 Q1790.66 1466.44 1787.51 1466.44 M1796.79 1451.78 L1796.79 1456.04 Q1795.03 1455.21 1793.22 1454.77 Q1791.44 1454.33 1789.68 1454.33 Q1785.05 1454.33 1782.6 1457.45 Q1780.17 1460.58 1779.82 1466.9 Q1781.19 1464.89 1783.25 1463.82 Q1785.31 1462.73 1787.78 1462.73 Q1792.99 1462.73 1796 1465.9 Q1799.03 1469.05 1799.03 1474.49 Q1799.03 1479.82 1795.89 1483.03 Q1792.74 1486.25 1787.51 1486.25 Q1781.51 1486.25 1778.34 1481.67 Q1775.17 1477.06 1775.17 1468.33 Q1775.17 1460.14 1779.06 1455.28 Q1782.95 1450.39 1789.5 1450.39 Q1791.26 1450.39 1793.04 1450.74 Q1794.84 1451.09 1796.79 1451.78 Z" fill="#000000" fill-rule="evenodd" fill-opacity="1" /><path clip-path="url(#clip870)" d="M2292.16 1469.17 Q2288.83 1469.17 2286.91 1470.95 Q2285.01 1472.73 2285.01 1475.86 Q2285.01 1478.98 2286.91 1480.77 Q2288.83 1482.55 2292.16 1482.55 Q2295.5 1482.55 2297.42 1480.77 Q2299.34 1478.96 2299.34 1475.86 Q2299.34 1472.73 2297.42 1470.95 Q2295.52 1469.17 2292.16 1469.17 M2287.49 1467.18 Q2284.48 1466.44 2282.79 1464.38 Q2281.12 1462.32 2281.12 1459.35 Q2281.12 1455.21 2284.06 1452.8 Q2287.02 1450.39 2292.16 1450.39 Q2297.33 1450.39 2300.27 1452.8 Q2303.2 1455.21 2303.2 1459.35 Q2303.2 1462.32 2301.52 1464.38 Q2299.85 1466.44 2296.86 1467.18 Q2300.24 1467.96 2302.12 1470.26 Q2304.02 1472.55 2304.02 1475.86 Q2304.02 1480.88 2300.94 1483.57 Q2297.88 1486.25 2292.16 1486.25 Q2286.45 1486.25 2283.37 1483.57 Q2280.31 1480.88 2280.31 1475.86 Q2280.31 1472.55 2282.21 1470.26 Q2284.11 1467.96 2287.49 1467.18 M2285.77 1459.79 Q2285.77 1462.48 2287.44 1463.98 Q2289.13 1465.49 2292.16 1465.49 Q2295.17 1465.49 2296.86 1463.98 Q2298.58 1462.48 2298.58 1459.79 Q2298.58 1457.11 2296.86 1455.6 Q2295.17 1454.1 2292.16 1454.1 Q2289.13 1454.1 2287.44 1455.6 Q2285.77 1457.11 2285.77 1459.79 Z" fill="#000000" fill-rule="evenodd" fill-opacity="1" /><path clip-path="url(#clip870)" d="M1162.79 1550.12 Q1155.7 1550.12 1152.96 1551.75 Q1150.22 1553.37 1150.22 1557.29 Q1150.22 1560.4 1152.26 1562.25 Q1154.33 1564.07 1157.86 1564.07 Q1162.73 1564.07 1165.66 1560.63 Q1168.62 1557.16 1168.62 1551.43 L1168.62 1550.12 L1162.79 1550.12 M1174.48 1547.71 L1174.48 1568.04 L1168.62 1568.04 L1168.62 1562.63 Q1166.61 1565.88 1163.62 1567.44 Q1160.63 1568.97 1156.3 1568.97 Q1150.83 1568.97 1147.58 1565.91 Q1144.37 1562.82 1144.37 1557.67 Q1144.37 1551.65 1148.38 1548.6 Q1152.42 1545.54 1160.41 1545.54 L1168.62 1545.54 L1168.62 1544.97 Q1168.62 1540.93 1165.95 1538.73 Q1163.3 1536.5 1158.5 1536.5 Q1155.44 1536.5 1152.55 1537.23 Q1149.65 1537.97 1146.98 1539.43 L1146.98 1534.02 Q1150.19 1532.78 1153.21 1532.17 Q1156.24 1531.54 1159.1 1531.54 Q1166.84 1531.54 1170.66 1535.55 Q1174.48 1539.56 1174.48 1547.71 Z" fill="#000000" fill-rule="evenodd" fill-opacity="1" /><path clip-path="url(#clip870)" d="M1186.54 1518.52 L1192.4 1518.52 L1192.4 1568.04 L1186.54 1568.04 L1186.54 1518.52 Z" fill="#000000" fill-rule="evenodd" fill-opacity="1" /><path clip-path="url(#clip870)" d="M1210.31 1562.7 L1210.31 1581.6 L1204.43 1581.6 L1204.43 1532.4 L1210.31 1532.4 L1210.31 1537.81 Q1212.16 1534.62 1214.96 1533.1 Q1217.79 1531.54 1221.71 1531.54 Q1228.2 1531.54 1232.24 1536.69 Q1236.32 1541.85 1236.32 1550.25 Q1236.32 1558.65 1232.24 1563.81 Q1228.2 1568.97 1221.71 1568.97 Q1217.79 1568.97 1214.96 1567.44 Q1212.16 1565.88 1210.31 1562.7 M1230.24 1550.25 Q1230.24 1543.79 1227.57 1540.13 Q1224.92 1536.44 1220.28 1536.44 Q1215.63 1536.44 1212.96 1540.13 Q1210.31 1543.79 1210.31 1550.25 Q1210.31 1556.71 1212.96 1560.4 Q1215.63 1564.07 1220.28 1564.07 Q1224.92 1564.07 1227.57 1560.4 Q1230.24 1556.71 1230.24 1550.25 Z" fill="#000000" fill-rule="evenodd" fill-opacity="1" /><path clip-path="url(#clip870)" d="M1275.66 1546.53 L1275.66 1568.04 L1269.8 1568.04 L1269.8 1546.72 Q1269.8 1541.66 1267.83 1539.14 Q1265.86 1536.63 1261.91 1536.63 Q1257.17 1536.63 1254.43 1539.65 Q1251.69 1542.68 1251.69 1547.9 L1251.69 1568.04 L1245.8 1568.04 L1245.8 1518.52 L1251.69 1518.52 L1251.69 1537.93 Q1253.79 1534.72 1256.63 1533.13 Q1259.49 1531.54 1263.21 1531.54 Q1269.36 1531.54 1272.51 1535.36 Q1275.66 1539.14 1275.66 1546.53 Z" fill="#000000" fill-rule="evenodd" fill-opacity="1" /><path clip-path="url(#clip870)" d="M1303.54 1550.12 Q1296.44 1550.12 1293.71 1551.75 Q1290.97 1553.37 1290.97 1557.29 Q1290.97 1560.4 1293.01 1562.25 Q1295.07 1564.07 1298.61 1564.07 Q1303.48 1564.07 1306.41 1560.63 Q1309.37 1557.16 1309.37 1551.43 L1309.37 1550.12 L1303.54 1550.12 M1315.22 1547.71 L1315.22 1568.04 L1309.37 1568.04 L1309.37 1562.63 Q1307.36 1565.88 1304.37 1567.44 Q1301.38 1568.97 1297.05 1568.97 Q1291.57 1568.97 1288.33 1565.91 Q1285.11 1562.82 1285.11 1557.67 Q1285.11 1551.65 1289.12 1548.6 Q1293.16 1545.54 1301.15 1545.54 L1309.37 1545.54 L1309.37 1544.97 Q1309.37 1540.93 1306.69 1538.73 Q1304.05 1536.5 1299.24 1536.5 Q1296.19 1536.5 1293.29 1537.23 Q1290.4 1537.97 1287.72 1539.43 L1287.72 1534.02 Q1290.94 1532.78 1293.96 1532.17 Q1296.98 1531.54 1299.85 1531.54 Q1307.58 1531.54 1311.4 1535.55 Q1315.22 1539.56 1315.22 1547.71 Z" fill="#000000" fill-rule="evenodd" fill-opacity="1" /><path clip-path="url(#clip870)" d="M1347.46 1518.52 L1360.96 1518.52 L1360.96 1523.07 L1353.32 1523.07 L1353.32 1572.09 L1360.96 1572.09 L1360.96 1576.64 L1347.46 1576.64 L1347.46 1518.52 Z" fill="#000000" fill-rule="evenodd" fill-opacity="1" /><path clip-path="url(#clip870)" d="M1383.59 1523.77 Q1381.04 1523.77 1379.29 1525.55 Q1377.54 1527.3 1377.54 1529.85 Q1377.54 1532.36 1379.29 1534.11 Q1381.04 1535.83 1383.59 1535.83 Q1386.14 1535.83 1387.89 1534.11 Q1389.64 1532.36 1389.64 1529.85 Q1389.64 1527.34 1387.85 1525.55 Q1386.1 1523.77 1383.59 1523.77 M1383.59 1519.66 Q1385.63 1519.66 1387.5 1520.46 Q1389.38 1521.22 1390.75 1522.69 Q1392.21 1524.12 1392.95 1525.93 Q1393.68 1527.75 1393.68 1529.85 Q1393.68 1534.05 1390.72 1536.98 Q1387.79 1539.88 1383.53 1539.88 Q1379.23 1539.88 1376.36 1537.01 Q1373.5 1534.15 1373.5 1529.85 Q1373.5 1525.58 1376.43 1522.62 Q1379.36 1519.66 1383.59 1519.66 Z" fill="#000000" fill-rule="evenodd" fill-opacity="1" /><path clip-path="url(#clip870)" d="M1419.71 1518.52 L1419.71 1576.64 L1406.22 1576.64 L1406.22 1572.09 L1413.83 1572.09 L1413.83 1523.07 L1406.22 1523.07 L1406.22 1518.52 L1419.71 1518.52 Z" fill="#000000" fill-rule="evenodd" fill-opacity="1" /><polyline clip-path="url(#clip872)" style="stroke:#000000; stroke-linecap:butt; stroke-linejoin:round; stroke-width:2; stroke-opacity:0.1; fill:none" points="
  211.325,1423.18 2352.76,1423.18 
  "/>
<polyline clip-path="url(#clip872)" style="stroke:#000000; stroke-linecap:butt; stroke-linejoin:round; stroke-width:2; stroke-opacity:0.1; fill:none" points="
  211.325,1098.25 2352.76,1098.25 
  "/>
<polyline clip-path="url(#clip872)" style="stroke:#000000; stroke-linecap:butt; stroke-linejoin:round; stroke-width:2; stroke-opacity:0.1; fill:none" points="
  211.325,773.326 2352.76,773.326 
  "/>
<polyline clip-path="url(#clip872)" style="stroke:#000000; stroke-linecap:butt; stroke-linejoin:round; stroke-width:2; stroke-opacity:0.1; fill:none" points="
  211.325,448.399 2352.76,448.399 
  "/>
<polyline clip-path="url(#clip872)" style="stroke:#000000; stroke-linecap:butt; stroke-linejoin:round; stroke-width:2; stroke-opacity:0.1; fill:none" points="
  211.325,123.472 2352.76,123.472 
  "/>
<polyline clip-path="url(#clip870)" style="stroke:#000000; stroke-linecap:butt; stroke-linejoin:round; stroke-width:4; stroke-opacity:1; fill:none" points="
  211.325,1423.18 211.325,123.472 
  "/>
<polyline clip-path="url(#clip870)" style="stroke:#000000; stroke-linecap:butt; stroke-linejoin:round; stroke-width:4; stroke-opacity:1; fill:none" points="
  211.325,1423.18 230.222,1423.18 
  "/>
<polyline clip-path="url(#clip870)" style="stroke:#000000; stroke-linecap:butt; stroke-linejoin:round; stroke-width:4; stroke-opacity:1; fill:none" points="
  211.325,1098.25 230.222,1098.25 
  "/>
<polyline clip-path="url(#clip870)" style="stroke:#000000; stroke-linecap:butt; stroke-linejoin:round; stroke-width:4; stroke-opacity:1; fill:none" points="
  211.325,773.326 230.222,773.326 
  "/>
<polyline clip-path="url(#clip870)" style="stroke:#000000; stroke-linecap:butt; stroke-linejoin:round; stroke-width:4; stroke-opacity:1; fill:none" points="
  211.325,448.399 230.222,448.399 
  "/>
<polyline clip-path="url(#clip870)" style="stroke:#000000; stroke-linecap:butt; stroke-linejoin:round; stroke-width:4; stroke-opacity:1; fill:none" points="
  211.325,123.472 230.222,123.472 
  "/>
<path clip-path="url(#clip870)" d="M114.26 1423.63 L143.936 1423.63 L143.936 1427.57 L114.26 1427.57 L114.26 1423.63 Z" fill="#000000" fill-rule="evenodd" fill-opacity="1" /><path clip-path="url(#clip870)" d="M168.195 1421.83 Q171.552 1422.54 173.427 1424.81 Q175.325 1427.08 175.325 1430.41 Q175.325 1435.53 171.806 1438.33 Q168.288 1441.13 161.806 1441.13 Q159.63 1441.13 157.315 1440.69 Q155.024 1440.27 152.57 1439.42 L152.57 1434.9 Q154.515 1436.04 156.829 1436.62 Q159.144 1437.2 161.667 1437.2 Q166.065 1437.2 168.357 1435.46 Q170.672 1433.72 170.672 1430.41 Q170.672 1427.36 168.519 1425.65 Q166.39 1423.91 162.57 1423.91 L158.542 1423.91 L158.542 1420.07 L162.755 1420.07 Q166.204 1420.07 168.033 1418.7 Q169.862 1417.31 169.862 1414.72 Q169.862 1412.06 167.964 1410.65 Q166.089 1409.21 162.57 1409.21 Q160.649 1409.21 158.45 1409.63 Q156.251 1410.04 153.612 1410.92 L153.612 1406.76 Q156.274 1406.02 158.589 1405.65 Q160.927 1405.27 162.987 1405.27 Q168.311 1405.27 171.413 1407.71 Q174.514 1410.11 174.514 1414.23 Q174.514 1417.1 172.871 1419.09 Q171.227 1421.06 168.195 1421.83 Z" fill="#000000" fill-rule="evenodd" fill-opacity="1" /><path clip-path="url(#clip870)" d="M115.209 1098.7 L144.885 1098.7 L144.885 1102.64 L115.209 1102.64 L115.209 1098.7 Z" fill="#000000" fill-rule="evenodd" fill-opacity="1" /><path clip-path="url(#clip870)" d="M159.005 1111.6 L175.325 1111.6 L175.325 1115.53 L153.38 1115.53 L153.38 1111.6 Q156.042 1108.84 160.626 1104.21 Q165.232 1099.56 166.413 1098.22 Q168.658 1095.7 169.538 1093.96 Q170.44 1092.2 170.44 1090.51 Q170.44 1087.76 168.496 1086.02 Q166.575 1084.28 163.473 1084.28 Q161.274 1084.28 158.82 1085.05 Q156.39 1085.81 153.612 1087.36 L153.612 1082.64 Q156.436 1081.51 158.89 1080.93 Q161.343 1080.35 163.38 1080.35 Q168.751 1080.35 171.945 1083.03 Q175.139 1085.72 175.139 1090.21 Q175.139 1092.34 174.329 1094.26 Q173.542 1096.16 171.436 1098.75 Q170.857 1099.42 167.755 1102.64 Q164.653 1105.83 159.005 1111.6 Z" fill="#000000" fill-rule="evenodd" fill-opacity="1" /><path clip-path="url(#clip870)" d="M114.839 773.777 L144.515 773.777 L144.515 777.713 L114.839 777.713 L114.839 773.777 Z" fill="#000000" fill-rule="evenodd" fill-opacity="1" /><path clip-path="url(#clip870)" d="M155.417 786.671 L163.056 786.671 L163.056 760.305 L154.746 761.972 L154.746 757.713 L163.01 756.046 L167.686 756.046 L167.686 786.671 L175.325 786.671 L175.325 790.606 L155.417 790.606 L155.417 786.671 Z" fill="#000000" fill-rule="evenodd" fill-opacity="1" /><path clip-path="url(#clip870)" d="M163.38 434.198 Q159.769 434.198 157.94 437.763 Q156.135 441.304 156.135 448.434 Q156.135 455.54 157.94 459.105 Q159.769 462.647 163.38 462.647 Q167.015 462.647 168.82 459.105 Q170.649 455.54 170.649 448.434 Q170.649 441.304 168.82 437.763 Q167.015 434.198 163.38 434.198 M163.38 430.494 Q169.19 430.494 172.246 435.101 Q175.325 439.684 175.325 448.434 Q175.325 457.161 172.246 461.767 Q169.19 466.35 163.38 466.35 Q157.57 466.35 154.491 461.767 Q151.436 457.161 151.436 448.434 Q151.436 439.684 154.491 435.101 Q157.57 430.494 163.38 430.494 Z" fill="#000000" fill-rule="evenodd" fill-opacity="1" /><path clip-path="url(#clip870)" d="M155.417 136.817 L163.056 136.817 L163.056 110.451 L154.746 112.118 L154.746 107.859 L163.01 106.192 L167.686 106.192 L167.686 136.817 L175.325 136.817 L175.325 140.752 L155.417 140.752 L155.417 136.817 Z" fill="#000000" fill-rule="evenodd" fill-opacity="1" /><path clip-path="url(#clip870)" d="M20.1444 761.931 L26.9239 761.931 Q23.9002 765.178 22.4043 768.87 Q20.9083 772.53 20.9083 776.668 Q20.9083 784.816 25.9054 789.145 Q30.8707 793.473 40.2919 793.473 Q49.6813 793.473 54.6784 789.145 Q59.6436 784.816 59.6436 776.668 Q59.6436 772.53 58.1477 768.87 Q56.6518 765.178 53.6281 761.931 L60.3439 761.931 Q62.6355 765.305 63.7814 769.093 Q64.9272 772.849 64.9272 777.05 Q64.9272 787.84 58.3387 794.046 Q51.7183 800.253 40.2919 800.253 Q28.8336 800.253 22.2451 794.046 Q15.6248 787.84 15.6248 777.05 Q15.6248 772.785 16.7706 769.029 Q17.8846 765.242 20.1444 761.931 Z" fill="#000000" fill-rule="evenodd" fill-opacity="1" /><path clip-path="url(#clip870)" d="M14.479 752.255 L14.479 746.399 L64.0042 746.399 L64.0042 752.255 L14.479 752.255 Z" fill="#000000" fill-rule="evenodd" fill-opacity="1" /><path clip-path="url(#clip870)" d="M372.653 44.2197 Q375.286 45.1109 377.757 48.0275 Q380.268 50.9442 382.78 56.0483 L391.084 72.576 L382.294 72.576 L374.557 57.061 Q371.559 50.9847 368.723 48.9997 Q365.928 47.0148 361.067 47.0148 L352.155 47.0148 L352.155 72.576 L343.972 72.576 L343.972 12.096 L362.445 12.096 Q372.815 12.096 377.919 16.4305 Q383.023 20.7649 383.023 29.5149 Q383.023 35.2267 380.35 38.994 Q377.716 42.7613 372.653 44.2197 M352.155 18.8205 L352.155 40.2903 L362.445 40.2903 Q368.359 40.2903 371.356 37.5762 Q374.395 34.8216 374.395 29.5149 Q374.395 24.2082 371.356 21.5346 Q368.359 18.8205 362.445 18.8205 L352.155 18.8205 Z" fill="#000000" fill-rule="evenodd" fill-opacity="1" /><path clip-path="url(#clip870)" d="M436.374 48.0275 L436.374 51.6733 L402.103 51.6733 Q402.589 59.3701 406.721 63.421 Q410.893 67.4314 418.306 67.4314 Q422.6 67.4314 426.611 66.3781 Q430.662 65.3249 434.632 63.2184 L434.632 70.267 Q430.621 71.9684 426.408 72.8596 Q422.195 73.7508 417.861 73.7508 Q407.004 73.7508 400.645 67.4314 Q394.325 61.1119 394.325 50.3365 Q394.325 39.1965 400.32 32.6746 Q406.356 26.1121 416.565 26.1121 Q425.72 26.1121 431.026 32.0264 Q436.374 37.9003 436.374 48.0275 M428.92 45.84 Q428.839 39.7232 425.477 36.0774 Q422.155 32.4315 416.646 32.4315 Q410.407 32.4315 406.64 35.9558 Q402.913 39.4801 402.346 45.8805 L428.92 45.84 Z" fill="#000000" fill-rule="evenodd" fill-opacity="1" /><path clip-path="url(#clip870)" d="M449.579 34.9026 L501.512 34.9026 L501.512 41.7081 L449.579 41.7081 L449.579 34.9026 M449.579 51.4303 L501.512 51.4303 L501.512 58.3168 L449.579 58.3168 L449.579 51.4303 Z" fill="#000000" fill-rule="evenodd" fill-opacity="1" /><path clip-path="url(#clip870)" d="M520.592 65.6895 L533.96 65.6895 L533.96 19.5497 L519.417 22.4663 L519.417 15.0127 L533.879 12.096 L542.062 12.096 L542.062 65.6895 L555.43 65.6895 L555.43 72.576 L520.592 72.576 L520.592 65.6895 Z" fill="#000000" fill-rule="evenodd" fill-opacity="1" /><path clip-path="url(#clip870)" d="M589.457 17.4837 Q583.138 17.4837 579.938 23.7221 Q576.778 29.92 576.778 42.3968 Q576.778 54.833 579.938 61.0714 Q583.138 67.2693 589.457 67.2693 Q595.817 67.2693 598.977 61.0714 Q602.177 54.833 602.177 42.3968 Q602.177 29.92 598.977 23.7221 Q595.817 17.4837 589.457 17.4837 M589.457 11.0023 Q599.625 11.0023 604.972 19.0636 Q610.36 27.0843 610.36 42.3968 Q610.36 57.6687 604.972 65.73 Q599.625 73.7508 589.457 73.7508 Q579.289 73.7508 573.902 65.73 Q568.555 57.6687 568.555 42.3968 Q568.555 27.0843 573.902 19.0636 Q579.289 11.0023 589.457 11.0023 Z" fill="#000000" fill-rule="evenodd" fill-opacity="1" /><path clip-path="url(#clip870)" d="M642.24 17.4837 Q635.921 17.4837 632.721 23.7221 Q629.561 29.92 629.561 42.3968 Q629.561 54.833 632.721 61.0714 Q635.921 67.2693 642.24 67.2693 Q648.6 67.2693 651.76 61.0714 Q654.96 54.833 654.96 42.3968 Q654.96 29.92 651.76 23.7221 Q648.6 17.4837 642.24 17.4837 M642.24 11.0023 Q652.408 11.0023 657.755 19.0636 Q663.143 27.0843 663.143 42.3968 Q663.143 57.6687 657.755 65.73 Q652.408 73.7508 642.24 73.7508 Q632.073 73.7508 626.685 65.73 Q621.338 57.6687 621.338 42.3968 Q621.338 27.0843 626.685 19.0636 Q632.073 11.0023 642.24 11.0023 Z" fill="#000000" fill-rule="evenodd" fill-opacity="1" /><path clip-path="url(#clip870)" d="M695.024 17.4837 Q688.704 17.4837 685.504 23.7221 Q682.344 29.92 682.344 42.3968 Q682.344 54.833 685.504 61.0714 Q688.704 67.2693 695.024 67.2693 Q701.384 67.2693 704.543 61.0714 Q707.744 54.833 707.744 42.3968 Q707.744 29.92 704.543 23.7221 Q701.384 17.4837 695.024 17.4837 M695.024 11.0023 Q705.192 11.0023 710.539 19.0636 Q715.926 27.0843 715.926 42.3968 Q715.926 57.6687 710.539 65.73 Q705.192 73.7508 695.024 73.7508 Q684.856 73.7508 679.468 65.73 Q674.121 57.6687 674.121 42.3968 Q674.121 27.0843 679.468 19.0636 Q684.856 11.0023 695.024 11.0023 Z" fill="#000000" fill-rule="evenodd" fill-opacity="1" /><path clip-path="url(#clip870)" d="M730.307 62.2867 L738.855 62.2867 L738.855 72.576 L730.307 72.576 L730.307 62.2867 Z" fill="#000000" fill-rule="evenodd" fill-opacity="1" /><path clip-path="url(#clip870)" d="M774.178 17.4837 Q767.859 17.4837 764.659 23.7221 Q761.499 29.92 761.499 42.3968 Q761.499 54.833 764.659 61.0714 Q767.859 67.2693 774.178 67.2693 Q780.538 67.2693 783.698 61.0714 Q786.898 54.833 786.898 42.3968 Q786.898 29.92 783.698 23.7221 Q780.538 17.4837 774.178 17.4837 M774.178 11.0023 Q784.346 11.0023 789.693 19.0636 Q795.081 27.0843 795.081 42.3968 Q795.081 57.6687 789.693 65.73 Q784.346 73.7508 774.178 73.7508 Q764.011 73.7508 758.623 65.73 Q753.276 57.6687 753.276 42.3968 Q753.276 27.0843 758.623 19.0636 Q764.011 11.0023 774.178 11.0023 Z" fill="#000000" fill-rule="evenodd" fill-opacity="1" /><path clip-path="url(#clip870)" d="M855.399 49.7694 Q846.366 49.7694 842.882 51.8354 Q839.398 53.9013 839.398 58.8839 Q839.398 62.8538 841.991 65.2034 Q844.624 67.5124 849.12 67.5124 Q855.318 67.5124 859.045 63.1374 Q862.812 58.7219 862.812 51.4303 L862.812 49.7694 L855.399 49.7694 M870.266 46.6907 L870.266 72.576 L862.812 72.576 L862.812 65.6895 Q860.26 69.8214 856.452 71.8063 Q852.644 73.7508 847.135 73.7508 Q840.168 73.7508 836.036 69.8619 Q831.944 65.9325 831.944 59.3701 Q831.944 51.7138 837.048 47.825 Q842.193 43.9361 852.361 43.9361 L862.812 43.9361 L862.812 43.2069 Q862.812 38.0623 859.409 35.2672 Q856.047 32.4315 849.93 32.4315 Q846.041 32.4315 842.355 33.3632 Q838.669 34.295 835.266 36.1584 L835.266 29.2718 Q839.357 27.692 843.206 26.9223 Q847.054 26.1121 850.7 26.1121 Q860.544 26.1121 865.405 31.2163 Q870.266 36.3204 870.266 46.6907 Z" fill="#000000" fill-rule="evenodd" fill-opacity="1" /><path clip-path="url(#clip870)" d="M886.591 34.9026 L938.524 34.9026 L938.524 41.7081 L886.591 41.7081 L886.591 34.9026 M886.591 51.4303 L938.524 51.4303 L938.524 58.3168 L886.591 58.3168 L886.591 51.4303 Z" fill="#000000" fill-rule="evenodd" fill-opacity="1" /><path clip-path="url(#clip870)" d="M973.685 17.4837 Q967.366 17.4837 964.166 23.7221 Q961.006 29.92 961.006 42.3968 Q961.006 54.833 964.166 61.0714 Q967.366 67.2693 973.685 67.2693 Q980.045 67.2693 983.205 61.0714 Q986.405 54.833 986.405 42.3968 Q986.405 29.92 983.205 23.7221 Q980.045 17.4837 973.685 17.4837 M973.685 11.0023 Q983.853 11.0023 989.2 19.0636 Q994.588 27.0843 994.588 42.3968 Q994.588 57.6687 989.2 65.73 Q983.853 73.7508 973.685 73.7508 Q963.518 73.7508 958.13 65.73 Q952.783 57.6687 952.783 42.3968 Q952.783 27.0843 958.13 19.0636 Q963.518 11.0023 973.685 11.0023 Z" fill="#000000" fill-rule="evenodd" fill-opacity="1" /><path clip-path="url(#clip870)" d="M1008.97 62.2867 L1017.52 62.2867 L1017.52 72.576 L1008.97 72.576 L1008.97 62.2867 Z" fill="#000000" fill-rule="evenodd" fill-opacity="1" /><path clip-path="url(#clip870)" d="M1042.39 65.6895 L1070.95 65.6895 L1070.95 72.576 L1032.55 72.576 L1032.55 65.6895 Q1037.2 60.8689 1045.22 52.7671 Q1053.29 44.6248 1055.35 42.2752 Q1059.28 37.8598 1060.82 34.8216 Q1062.4 31.7429 1062.4 28.7857 Q1062.4 23.9651 1059 20.927 Q1055.64 17.8888 1050.21 17.8888 Q1046.36 17.8888 1042.06 19.2256 Q1037.81 20.5624 1032.95 23.2765 L1032.95 15.0127 Q1037.89 13.0277 1042.19 12.015 Q1046.48 11.0023 1050.04 11.0023 Q1059.44 11.0023 1065.03 15.7013 Q1070.62 20.4004 1070.62 28.2591 Q1070.62 31.9859 1069.21 35.3482 Q1067.83 38.6699 1064.14 43.2069 Q1063.13 44.3817 1057.7 50.0125 Q1052.27 55.6027 1042.39 65.6895 Z" fill="#000000" fill-rule="evenodd" fill-opacity="1" /><path clip-path="url(#clip870)" d="M1088.2 12.096 L1120.33 12.096 L1120.33 18.9825 L1095.7 18.9825 L1095.7 33.8088 Q1097.48 33.2012 1099.26 32.9176 Q1101.05 32.5936 1102.83 32.5936 Q1112.96 32.5936 1118.87 38.1433 Q1124.78 43.6931 1124.78 53.1722 Q1124.78 62.9348 1118.71 68.3631 Q1112.63 73.7508 1101.57 73.7508 Q1097.76 73.7508 1093.79 73.1026 Q1089.87 72.4545 1085.65 71.1582 L1085.65 62.9348 Q1089.3 64.9198 1093.19 65.892 Q1097.08 66.8642 1101.41 66.8642 Q1108.42 66.8642 1112.51 63.1779 Q1116.6 59.4916 1116.6 53.1722 Q1116.6 46.8528 1112.51 43.1664 Q1108.42 39.4801 1101.41 39.4801 Q1098.13 39.4801 1094.85 40.2093 Q1091.61 40.9384 1088.2 42.4778 L1088.2 12.096 Z" fill="#000000" fill-rule="evenodd" fill-opacity="1" /><path clip-path="url(#clip870)" d="M1189.19 9.54393 L1189.19 15.7418 L1182.06 15.7418 Q1178.05 15.7418 1176.47 17.3622 Q1174.93 18.9825 1174.93 23.1955 L1174.93 27.2059 L1187.21 27.2059 L1187.21 32.9987 L1174.93 32.9987 L1174.93 72.576 L1167.44 72.576 L1167.44 32.9987 L1160.31 32.9987 L1160.31 27.2059 L1167.44 27.2059 L1167.44 24.0462 Q1167.44 16.471 1170.96 13.0277 Q1174.49 9.54393 1182.14 9.54393 L1189.19 9.54393 Z" fill="#000000" fill-rule="evenodd" fill-opacity="1" /><path clip-path="url(#clip870)" d="M1196.4 34.9026 L1248.34 34.9026 L1248.34 41.7081 L1196.4 41.7081 L1196.4 34.9026 M1196.4 51.4303 L1248.34 51.4303 L1248.34 58.3168 L1196.4 58.3168 L1196.4 51.4303 Z" fill="#000000" fill-rule="evenodd" fill-opacity="1" /><path clip-path="url(#clip870)" d="M1267.42 65.6895 L1280.78 65.6895 L1280.78 19.5497 L1266.24 22.4663 L1266.24 15.0127 L1280.7 12.096 L1288.89 12.096 L1288.89 65.6895 L1302.25 65.6895 L1302.25 72.576 L1267.42 72.576 L1267.42 65.6895 Z" fill="#000000" fill-rule="evenodd" fill-opacity="1" /><path clip-path="url(#clip870)" d="M1318.78 62.2867 L1327.33 62.2867 L1327.33 72.576 L1318.78 72.576 L1318.78 62.2867 Z" fill="#000000" fill-rule="evenodd" fill-opacity="1" /><path clip-path="url(#clip870)" d="M1362.65 17.4837 Q1356.33 17.4837 1353.13 23.7221 Q1349.97 29.92 1349.97 42.3968 Q1349.97 54.833 1353.13 61.0714 Q1356.33 67.2693 1362.65 67.2693 Q1369.01 67.2693 1372.17 61.0714 Q1375.37 54.833 1375.37 42.3968 Q1375.37 29.92 1372.17 23.7221 Q1369.01 17.4837 1362.65 17.4837 M1362.65 11.0023 Q1372.82 11.0023 1378.17 19.0636 Q1383.56 27.0843 1383.56 42.3968 Q1383.56 57.6687 1378.17 65.73 Q1372.82 73.7508 1362.65 73.7508 Q1352.49 73.7508 1347.1 65.73 Q1341.75 57.6687 1341.75 42.3968 Q1341.75 27.0843 1347.1 19.0636 Q1352.49 11.0023 1362.65 11.0023 Z" fill="#000000" fill-rule="evenodd" fill-opacity="1" /><path clip-path="url(#clip870)" d="M1449.71 51.4708 L1447.92 42.1132 Q1446.1 32.5126 1438.89 32.5126 Q1433.46 32.5126 1430.99 36.9686 Q1427.87 42.5588 1427.87 49.9314 Q1427.87 58.8434 1430.91 63.0969 Q1433.99 67.4314 1438.89 67.4314 Q1444.32 67.4314 1447.24 58.8029 L1449.71 51.4708 M1453.88 39.075 L1457.89 27.2059 L1464.53 27.2059 L1456.23 51.7949 L1457.85 60.6663 Q1458.21 62.6513 1459.63 64.3122 Q1461.29 66.2566 1462.59 66.2566 L1466.15 66.2566 L1466.15 72.576 L1461.7 72.576 Q1457.89 72.576 1454.49 69.1732 Q1452.83 67.4719 1452.14 63.9071 Q1450.27 68.4036 1446.47 71.9279 Q1444.68 73.5887 1438.89 73.5887 Q1429.37 73.5887 1424.75 67.4314 Q1420.01 61.0714 1420.01 49.9314 Q1420.01 38.0218 1425.16 32.4315 Q1430.87 26.1931 1438.89 26.1931 Q1451.49 26.1931 1453.88 39.075 Z" fill="#000000" fill-rule="evenodd" fill-opacity="1" /><path clip-path="url(#clip870)" d="M1498.07 58.2358 L1498.07 72.576 L1493.38 72.576 L1493.38 57.3851 Q1493.38 53.6988 1491.92 51.9569 Q1490.46 50.1745 1487.42 50.1745 Q1483.82 50.1745 1481.71 52.362 Q1479.6 54.509 1479.6 58.2358 L1479.6 72.576 L1474.86 72.576 L1474.86 47.1768 L1479.6 47.1768 L1479.6 51.1062 Q1481.18 48.7972 1483.41 47.7034 Q1485.68 46.5692 1488.8 46.5692 Q1491.88 46.5692 1494.06 47.987 Q1496.25 49.3643 1497.31 52.0379 Q1499.05 49.2428 1501.48 47.906 Q1503.95 46.5692 1507.27 46.5692 Q1511.77 46.5692 1514.16 49.3643 Q1516.59 52.1189 1516.59 57.2231 L1516.59 72.576 L1511.89 72.576 L1511.89 57.3851 Q1511.89 53.7393 1510.43 51.9569 Q1508.97 50.1745 1505.97 50.1745 Q1502.33 50.1745 1500.18 52.362 Q1498.07 54.509 1498.07 58.2358 Z" fill="#000000" fill-rule="evenodd" fill-opacity="1" /><path clip-path="url(#clip870)" d="M1551.18 58.8434 L1551.18 60.8689 L1529.59 60.8689 Q1529.92 65.1628 1532.51 67.4314 Q1535.14 69.6999 1539.8 69.6999 Q1542.51 69.6999 1545.07 69.0922 Q1547.58 68.5251 1550.09 67.3503 L1550.09 71.2797 Q1547.58 72.2519 1544.9 72.738 Q1542.27 73.2241 1539.52 73.2241 Q1532.67 73.2241 1528.7 69.6999 Q1524.69 66.1756 1524.69 60.1397 Q1524.69 53.9013 1528.5 50.215 Q1532.26 46.5692 1538.71 46.5692 Q1544.46 46.5692 1547.82 49.8504 Q1551.18 53.1722 1551.18 58.8434 M1546.48 57.5877 Q1546.44 54.1849 1544.34 52.1189 Q1542.23 50.0935 1538.75 50.0935 Q1534.82 50.0935 1532.47 52.0784 Q1530.12 54.0229 1529.75 57.5877 L1546.48 57.5877 Z" fill="#000000" fill-rule="evenodd" fill-opacity="1" /><path clip-path="url(#clip870)" d="M1574.31 59.8157 Q1568.64 59.8157 1566.45 60.9499 Q1564.23 62.1247 1564.23 64.9198 Q1564.23 67.1478 1565.89 68.4441 Q1567.55 69.7404 1570.38 69.7404 Q1574.27 69.7404 1576.62 67.2693 Q1579.01 64.7983 1579.01 60.7474 L1579.01 59.8157 L1574.31 59.8157 M1583.67 58.0738 L1583.67 72.576 L1579.01 72.576 L1579.01 68.7276 Q1577.39 71.0367 1575 72.1304 Q1572.57 73.2241 1569.13 73.2241 Q1564.71 73.2241 1562.12 71.0367 Q1559.53 68.8492 1559.53 65.1628 Q1559.53 60.9094 1562.77 58.7219 Q1566.01 56.5344 1572.41 56.5344 L1579.01 56.5344 L1579.01 56.1293 Q1579.01 53.2532 1576.87 51.6733 Q1574.72 50.0935 1570.87 50.0935 Q1568.44 50.0935 1566.09 50.6201 Q1563.78 51.1467 1561.63 52.2 L1561.63 48.3111 Q1564.23 47.4604 1566.66 47.0148 Q1569.05 46.5692 1571.36 46.5692 Q1577.55 46.5692 1580.63 49.4048 Q1583.67 52.281 1583.67 58.0738 Z" fill="#000000" fill-rule="evenodd" fill-opacity="1" /><path clip-path="url(#clip870)" d="M1617.58 57.2231 L1617.58 72.576 L1612.88 72.576 L1612.88 57.3851 Q1612.88 53.7798 1611.3 51.9974 Q1609.72 50.1745 1606.56 50.1745 Q1602.75 50.1745 1600.56 52.362 Q1598.38 54.509 1598.38 58.2358 L1598.38 72.576 L1593.64 72.576 L1593.64 47.1768 L1598.38 47.1768 L1598.38 51.1062 Q1600.04 48.8377 1602.3 47.7034 Q1604.61 46.5692 1607.61 46.5692 Q1612.51 46.5692 1615.02 49.2833 Q1617.58 51.9974 1617.58 57.2231 Z" fill="#000000" fill-rule="evenodd" fill-opacity="1" /><path clip-path="url(#clip870)" d="M1630.74 34.9026 L1682.67 34.9026 L1682.67 41.7081 L1630.74 41.7081 L1630.74 34.9026 M1630.74 51.4303 L1682.67 51.4303 L1682.67 58.3168 L1630.74 58.3168 L1630.74 51.4303 Z" fill="#000000" fill-rule="evenodd" fill-opacity="1" /><path clip-path="url(#clip870)" d="M1722.82 19.2256 L1702.16 51.5113 L1722.82 51.5113 L1722.82 19.2256 M1720.67 12.096 L1730.96 12.096 L1730.96 51.5113 L1739.59 51.5113 L1739.59 58.3168 L1730.96 58.3168 L1730.96 72.576 L1722.82 72.576 L1722.82 58.3168 L1695.52 58.3168 L1695.52 50.4176 L1720.67 12.096 Z" fill="#000000" fill-rule="evenodd" fill-opacity="1" /><path clip-path="url(#clip870)" d="M1753.12 62.2867 L1761.67 62.2867 L1761.67 72.576 L1753.12 72.576 L1753.12 62.2867 Z" fill="#000000" fill-rule="evenodd" fill-opacity="1" /><path clip-path="url(#clip870)" d="M1796.99 17.4837 Q1790.67 17.4837 1787.47 23.7221 Q1784.31 29.92 1784.31 42.3968 Q1784.31 54.833 1787.47 61.0714 Q1790.67 67.2693 1796.99 67.2693 Q1803.35 67.2693 1806.51 61.0714 Q1809.71 54.833 1809.71 42.3968 Q1809.71 29.92 1806.51 23.7221 Q1803.35 17.4837 1796.99 17.4837 M1796.99 11.0023 Q1807.16 11.0023 1812.51 19.0636 Q1817.89 27.0843 1817.89 42.3968 Q1817.89 57.6687 1812.51 65.73 Q1807.16 73.7508 1796.99 73.7508 Q1786.82 73.7508 1781.44 65.73 Q1776.09 57.6687 1776.09 42.3968 Q1776.09 27.0843 1781.44 19.0636 Q1786.82 11.0023 1796.99 11.0023 Z" fill="#000000" fill-rule="evenodd" fill-opacity="1" /><path clip-path="url(#clip870)" d="M1884.05 51.4708 L1882.26 42.1132 Q1880.44 32.5126 1873.23 32.5126 Q1867.8 32.5126 1865.33 36.9686 Q1862.21 42.5588 1862.21 49.9314 Q1862.21 58.8434 1865.25 63.0969 Q1868.33 67.4314 1873.23 67.4314 Q1878.66 67.4314 1881.57 58.8029 L1884.05 51.4708 M1888.22 39.075 L1892.23 27.2059 L1898.87 27.2059 L1890.57 51.7949 L1892.19 60.6663 Q1892.55 62.6513 1893.97 64.3122 Q1895.63 66.2566 1896.93 66.2566 L1900.49 66.2566 L1900.49 72.576 L1896.04 72.576 Q1892.23 72.576 1888.83 69.1732 Q1887.16 67.4719 1886.48 63.9071 Q1884.61 68.4036 1880.8 71.9279 Q1879.02 73.5887 1873.23 73.5887 Q1863.71 73.5887 1859.09 67.4314 Q1854.35 61.0714 1854.35 49.9314 Q1854.35 38.0218 1859.5 32.4315 Q1865.21 26.1931 1873.23 26.1931 Q1885.83 26.1931 1888.22 39.075 Z" fill="#000000" fill-rule="evenodd" fill-opacity="1" /><path clip-path="url(#clip870)" d="M1922.37 59.8157 Q1916.7 59.8157 1914.51 60.9499 Q1912.28 62.1247 1912.28 64.9198 Q1912.28 67.1478 1913.94 68.4441 Q1915.6 69.7404 1918.44 69.7404 Q1922.33 69.7404 1924.68 67.2693 Q1927.07 64.7983 1927.07 60.7474 L1927.07 59.8157 L1922.37 59.8157 M1931.72 58.0738 L1931.72 72.576 L1927.07 72.576 L1927.07 68.7276 Q1925.45 71.0367 1923.06 72.1304 Q1920.62 73.2241 1917.18 73.2241 Q1912.77 73.2241 1910.17 71.0367 Q1907.58 68.8492 1907.58 65.1628 Q1907.58 60.9094 1910.82 58.7219 Q1914.06 56.5344 1920.46 56.5344 L1927.07 56.5344 L1927.07 56.1293 Q1927.07 53.2532 1924.92 51.6733 Q1922.77 50.0935 1918.92 50.0935 Q1916.49 50.0935 1914.14 50.6201 Q1911.83 51.1467 1909.69 52.2 L1909.69 48.3111 Q1912.28 47.4604 1914.71 47.0148 Q1917.1 46.5692 1919.41 46.5692 Q1925.61 46.5692 1928.69 49.4048 Q1931.72 52.281 1931.72 58.0738 Z" fill="#000000" fill-rule="evenodd" fill-opacity="1" /><path clip-path="url(#clip870)" d="M1964.9 58.2358 L1964.9 72.576 L1960.2 72.576 L1960.2 57.3851 Q1960.2 53.6988 1958.74 51.9569 Q1957.29 50.1745 1954.25 50.1745 Q1950.64 50.1745 1948.54 52.362 Q1946.43 54.509 1946.43 58.2358 L1946.43 72.576 L1941.69 72.576 L1941.69 47.1768 L1946.43 47.1768 L1946.43 51.1062 Q1948.01 48.7972 1950.24 47.7034 Q1952.51 46.5692 1955.62 46.5692 Q1958.7 46.5692 1960.89 47.987 Q1963.08 49.3643 1964.13 52.0379 Q1965.87 49.2428 1968.3 47.906 Q1970.78 46.5692 1974.1 46.5692 Q1978.59 46.5692 1980.98 49.3643 Q1983.41 52.1189 1983.41 57.2231 L1983.41 72.576 L1978.71 72.576 L1978.71 57.3851 Q1978.71 53.7393 1977.26 51.9569 Q1975.8 50.1745 1972.8 50.1745 Q1969.15 50.1745 1967.01 52.362 Q1964.9 54.509 1964.9 58.2358 Z" fill="#000000" fill-rule="evenodd" fill-opacity="1" /><path clip-path="url(#clip870)" d="M1998.12 68.7682 L1998.12 82.2577 L1993.38 82.2577 L1993.38 47.1768 L1998.12 47.1768 L1998.12 51.0252 Q1999.58 48.7567 2001.85 47.6629 Q2004.11 46.5692 2007.23 46.5692 Q2012.46 46.5692 2015.7 50.215 Q2018.94 53.9013 2018.94 59.8967 Q2018.94 65.892 2015.7 69.5783 Q2012.46 73.2241 2007.23 73.2241 Q2004.11 73.2241 2001.85 72.1304 Q1999.58 71.0367 1998.12 68.7682 M2011.97 67.1073 Q2014.08 64.5147 2014.08 59.8967 Q2014.08 55.2786 2011.97 52.6861 Q2009.83 50.053 2006.1 50.053 Q2002.37 50.053 2000.23 52.6861 Q1998.12 55.2786 1998.12 59.8967 Q1998.12 64.5147 2000.23 67.1073 Q2002.37 69.7404 2006.1 69.7404 Q2009.83 69.7404 2011.97 67.1073 Z" fill="#000000" fill-rule="evenodd" fill-opacity="1" /><path clip-path="url(#clip870)" d="M2032.96 34.9026 L2084.89 34.9026 L2084.89 41.7081 L2032.96 41.7081 L2032.96 34.9026 M2032.96 51.4303 L2084.89 51.4303 L2084.89 58.3168 L2032.96 58.3168 L2032.96 51.4303 Z" fill="#000000" fill-rule="evenodd" fill-opacity="1" /><path clip-path="url(#clip870)" d="M2125.03 19.2256 L2104.37 51.5113 L2125.03 51.5113 L2125.03 19.2256 M2122.89 12.096 L2133.18 12.096 L2133.18 51.5113 L2141.8 51.5113 L2141.8 58.3168 L2133.18 58.3168 L2133.18 72.576 L2125.03 72.576 L2125.03 58.3168 L2097.73 58.3168 L2097.73 50.4176 L2122.89 12.096 Z" fill="#000000" fill-rule="evenodd" fill-opacity="1" /><path clip-path="url(#clip870)" d="M2155.33 62.2867 L2163.88 62.2867 L2163.88 72.576 L2155.33 72.576 L2155.33 62.2867 Z" fill="#000000" fill-rule="evenodd" fill-opacity="1" /><path clip-path="url(#clip870)" d="M2199.21 17.4837 Q2192.89 17.4837 2189.69 23.7221 Q2186.53 29.92 2186.53 42.3968 Q2186.53 54.833 2189.69 61.0714 Q2192.89 67.2693 2199.21 67.2693 Q2205.57 67.2693 2208.73 61.0714 Q2211.93 54.833 2211.93 42.3968 Q2211.93 29.92 2208.73 23.7221 Q2205.57 17.4837 2199.21 17.4837 M2199.21 11.0023 Q2209.37 11.0023 2214.72 19.0636 Q2220.11 27.0843 2220.11 42.3968 Q2220.11 57.6687 2214.72 65.73 Q2209.37 73.7508 2199.21 73.7508 Q2189.04 73.7508 2183.65 65.73 Q2178.3 57.6687 2178.3 42.3968 Q2178.3 27.0843 2183.65 19.0636 Q2189.04 11.0023 2199.21 11.0023 Z" fill="#000000" fill-rule="evenodd" fill-opacity="1" /><polyline clip-path="url(#clip872)" style="stroke:#009af9; stroke-linecap:butt; stroke-linejoin:round; stroke-width:4; stroke-opacity:1; fill:none" points="
  1282.04,448.399 1877.49,760.015 2244.03,501.017 2240.74,274.193 1868.89,140.29 1271.43,190.167 678.049,386.691 316.869,627.684 326.739,868.401 703.866,897.916 
  1303.27,904.992 1894.51,727.495 2250.29,515.675 2233.84,308.379 1851.48,218.874 1250.21,275.454 661.169,454.976 310.82,668.509 333.847,881.967 721.398,889.319 
  1324.48,836.909 1911.25,676.646 2256.12,528.062 2226.52,324.379 1833.82,242.795 1229,305.284 644.564,502.636 305.201,673.594 341.374,900.456 739.177,900.185 
  1345.68,829.5 1927.71,645.913 2261.53,532.064 2218.79,318.196 1815.92,244.634 1207.81,311.974 628.24,514.527 300.013,685.41 349.317,914.847 757.197,912.833 
  1366.85,835.81 1943.89,616.559 2266.5,534.078 2210.64,306.363 1797.79,237.935 1186.66,312.67 612.205,524.14 295.259,696.167 357.671,920.841 775.448,938.455 
  1387.98,846.638 1959.78,623.599 2271.04,537.076 2202.08,304.458 1779.42,221.098 1165.55,304.713 596.465,530.93 290.94,695.56 366.433,941.016 793.922,976.407 
  1409.06,862.234 1975.37,618.111 2275.14,543.493 2193.11,284.914 1760.84,209.034 1144.5,293.293 581.029,545.42 287.059,689.97 375.6,947.128 812.613,983.624 
  1430.09,881.095 1990.65,629.624 2278.8,543.335 2183.75,269.184 1742.04,206.462 1123.5,283.161 565.902,539.543 283.618,692.054 385.167,964.254 831.51,996.353 
  1451.06,896.319 2005.62,631.979 2282.02,543.968 2173.98,273.94 1723.05,223.444 1102.57,310.557 551.091,529.356 280.617,692.518 395.13,971.192 850.607,998.538 
  1471.94,911.313 2020.27,646.098 2284.8,537.03 2163.82,251.859 1703.85,262.45 1081.72,404.381 536.603,512.859 278.058,692.462 405.485,977.539 869.894,1002.81 
  1492.75,867.892 2034.6,662.425 2287.14,538.439 2153.27,228.969 1684.47,322.404 1060.96,424.934 522.444,497.071 275.943,691.958 416.226,980.619 889.363,952.376 
  1513.46,831.052 2048.59,665.305 2289.03,539.633 2142.34,257.737 1664.92,324.474 1040.3,431.682 508.62,481.12 274.272,701.474 427.35,986.467 909.005,900.18 
  1534.07,812.528 2062.24,674.103 2290.48,540.835 2131.03,236.038 1645.19,324.58 1019.75,429.604 495.138,467.767 273.046,701.257 438.852,993.314 928.812,900.368 
  1554.57,816.858 2075.55,683.275 2291.48,541.605 2119.34,292.37 1625.31,319.778 999.308,423.013 482.004,480.172 272.266,701.281 450.725,1009.78 948.776,928.161 
  1574.95,838.079 2088.51,695.013 2292.04,534.153 2107.28,274.714 1605.27,305.105 978.993,409.888 469.223,690.255 271.931,701.681 462.966,1028.27 968.886,960.256 
  1595.19,861.687 2101.11,609.473 2292.15,534.619 2094.86,352.07 1585.09,276.291 958.813,389.255 456.8,696.575 272.043,702.418 475.569,980.897 989.134,994.402 
  1615.3,888.774 2113.36,615.354 2291.81,534.652 2082.08,339.193 1564.77,238.744 938.775,359.226 444.742,701.364 272.6,703.784 488.527,808.364 1009.51,1031.35 
  1635.27,906.594 2125.23,539.607 2291.03,534.438 2068.94,324.509 1544.33,238.485 918.889,338.821 433.054,706.136 273.603,705.894 501.836,824.549 1030.01,1062.81 
  1655.08,916.372 2136.73,554.936 2289.81,533.753 2055.46,309.393 1523.78,251.11 899.163,373.185 421.741,709.455 275.052,708.611 515.49,845.86 1050.62,1076.33 
  1674.72,922.781 2147.85,574.458 2288.14,525.071 2041.64,288.317 1503.12,291.932 879.606,495.992 410.807,731.944 276.945,712.27 529.482,870.285 1071.33,1063.14 
  1694.19,817.827 2158.6,522.563 2286.02,523.657 2027.48,254.803 1482.36,360.006 860.227,473.301 400.259,732.066 279.282,716.903 543.806,897.919 1092.14,949.601 
  1713.47,828.021 2168.95,535.279 2283.46,521.741 2012.99,214.738 1461.51,334.472 841.034,457.25 390.099,730.83 282.062,722.693 558.456,927.603 1113.03,828.663 
  1732.57,759.386 2178.91,508.412 2280.46,519.288 1998.18,168.182 1440.58,309.048 822.036,440.939 380.334,728.013 285.283,738.754 573.426,975.6 1133.99,823.694 
  1751.47,724.62 2188.48,531.56 2277.02,516.161 1983.05,137.319 1419.59,280.352 803.241,423.019 370.966,722.445 288.945,747.267 588.709,1006.24 1155.02,845.974 
  1770.16,723.807 2197.65,555.382 2273.14,505.299 1967.62,85.3975 1398.53,244.332 784.658,402.11 362.001,708.723 293.045,757.197 604.298,1024.26 1176.1,885.387 
  1788.63,745.983 2206.41,552.643 2268.82,501.198 1951.88,83.9378 1377.42,196.873 766.294,373.161 353.443,694.534 297.582,768.588 620.186,1035.26 1197.23,934.42 
  1806.88,766.611 2214.76,566.789 2264.07,496.02 1935.84,123.324 1356.27,141.194 748.157,336.209 345.294,677.291 302.553,781.749 636.366,1047.32 1218.4,970.576 
  1824.9,790.976 2222.71,589.949 2258.88,488.797 1919.52,89.9048 1335.08,106.093 730.257,294.073 337.559,662.991 307.957,796.486 652.832,1058.77 1239.6,995.383 
  1842.68,799.743 2230.23,611.419 2253.26,478.769 1902.91,182.218 1313.88,166.248 712.6,251.818 330.241,649.67 313.791,812.955 669.575,1055.01 1260.82,1001.77 
  1860.21,800.327 2237.34,621.418 2247.21,458.839 1886.03,317.395 1292.65,246.771 695.195,261.571 323.343,639.219 320.053,830.954 686.589,774.911 1282.04,988.164 
  
  "/>
</svg>
