<?xml version="1.0" encoding="utf-8"?>
<svg xmlns="http://www.w3.org/2000/svg" xmlns:xlink="http://www.w3.org/1999/xlink" width="600" height="400" viewBox="0 0 2400 1600">
<defs>
  <clipPath id="clip830">
    <rect x="0" y="0" width="2400" height="1600"/>
  </clipPath>
</defs>
<path clip-path="url(#clip830)" d="
M0 1600 L2400 1600 L2400 0 L0 0  Z
  " fill="#ffffff" fill-rule="evenodd" fill-opacity="1"/>
<defs>
  <clipPath id="clip831">
    <rect x="480" y="0" width="1681" height="1600"/>
  </clipPath>
</defs>
<path clip-path="url(#clip830)" d="
M175.445 1423.18 L2352.76 1423.18 L2352.76 123.472 L175.445 123.472  Z
  " fill="#ffffff" fill-rule="evenodd" fill-opacity="1"/>
<defs>
  <clipPath id="clip832">
    <rect x="175" y="123" width="2178" height="1301"/>
  </clipPath>
</defs>
<polyline clip-path="url(#clip832)" style="stroke:#000000; stroke-linecap:butt; stroke-linejoin:round; stroke-width:2; stroke-opacity:0.1; fill:none" points="
  237.067,1423.18 237.067,123.472 
  "/>
<polyline clip-path="url(#clip832)" style="stroke:#000000; stroke-linecap:butt; stroke-linejoin:round; stroke-width:2; stroke-opacity:0.1; fill:none" points="
  921.756,1423.18 921.756,123.472 
  "/>
<polyline clip-path="url(#clip832)" style="stroke:#000000; stroke-linecap:butt; stroke-linejoin:round; stroke-width:2; stroke-opacity:0.1; fill:none" points="
  1606.45,1423.18 1606.45,123.472 
  "/>
<polyline clip-path="url(#clip832)" style="stroke:#000000; stroke-linecap:butt; stroke-linejoin:round; stroke-width:2; stroke-opacity:0.1; fill:none" points="
  2291.13,1423.18 2291.13,123.472 
  "/>
<polyline clip-path="url(#clip830)" style="stroke:#000000; stroke-linecap:butt; stroke-linejoin:round; stroke-width:4; stroke-opacity:1; fill:none" points="
  175.445,1423.18 2352.76,1423.18 
  "/>
<polyline clip-path="url(#clip830)" style="stroke:#000000; stroke-linecap:butt; stroke-linejoin:round; stroke-width:4; stroke-opacity:1; fill:none" points="
  237.067,1423.18 237.067,1404.28 
  "/>
<polyline clip-path="url(#clip830)" style="stroke:#000000; stroke-linecap:butt; stroke-linejoin:round; stroke-width:4; stroke-opacity:1; fill:none" points="
  921.756,1423.18 921.756,1404.28 
  "/>
<polyline clip-path="url(#clip830)" style="stroke:#000000; stroke-linecap:butt; stroke-linejoin:round; stroke-width:4; stroke-opacity:1; fill:none" points="
  1606.45,1423.18 1606.45,1404.28 
  "/>
<polyline clip-path="url(#clip830)" style="stroke:#000000; stroke-linecap:butt; stroke-linejoin:round; stroke-width:4; stroke-opacity:1; fill:none" points="
  2291.13,1423.18 2291.13,1404.28 
  "/>
<path clip-path="url(#clip830)" d="M237.067 1454.1 Q233.456 1454.1 231.627 1457.66 Q229.822 1461.2 229.822 1468.33 Q229.822 1475.44 231.627 1479.01 Q233.456 1482.55 237.067 1482.55 Q240.701 1482.55 242.507 1479.01 Q244.336 1475.44 244.336 1468.33 Q244.336 1461.2 242.507 1457.66 Q240.701 1454.1 237.067 1454.1 M237.067 1450.39 Q242.877 1450.39 245.933 1455 Q249.012 1459.58 249.012 1468.33 Q249.012 1477.06 245.933 1481.67 Q242.877 1486.25 237.067 1486.25 Q231.257 1486.25 228.178 1481.67 Q225.123 1477.06 225.123 1468.33 Q225.123 1459.58 228.178 1455 Q231.257 1450.39 237.067 1450.39 Z" fill="#000000" fill-rule="evenodd" fill-opacity="1" /><path clip-path="url(#clip830)" d="M896.444 1481.64 L904.083 1481.64 L904.083 1455.28 L895.772 1456.95 L895.772 1452.69 L904.036 1451.02 L908.712 1451.02 L908.712 1481.64 L916.351 1481.64 L916.351 1485.58 L896.444 1485.58 L896.444 1481.64 Z" fill="#000000" fill-rule="evenodd" fill-opacity="1" /><path clip-path="url(#clip830)" d="M935.795 1454.1 Q932.184 1454.1 930.356 1457.66 Q928.55 1461.2 928.55 1468.33 Q928.55 1475.44 930.356 1479.01 Q932.184 1482.55 935.795 1482.55 Q939.43 1482.55 941.235 1479.01 Q943.064 1475.44 943.064 1468.33 Q943.064 1461.2 941.235 1457.66 Q939.43 1454.1 935.795 1454.1 M935.795 1450.39 Q941.606 1450.39 944.661 1455 Q947.74 1459.58 947.74 1468.33 Q947.74 1477.06 944.661 1481.67 Q941.606 1486.25 935.795 1486.25 Q929.985 1486.25 926.907 1481.67 Q923.851 1477.06 923.851 1468.33 Q923.851 1459.58 926.907 1455 Q929.985 1450.39 935.795 1450.39 Z" fill="#000000" fill-rule="evenodd" fill-opacity="1" /><path clip-path="url(#clip830)" d="M1585.22 1481.64 L1601.54 1481.64 L1601.54 1485.58 L1579.59 1485.58 L1579.59 1481.64 Q1582.26 1478.89 1586.84 1474.26 Q1591.45 1469.61 1592.63 1468.27 Q1594.87 1465.74 1595.75 1464.01 Q1596.65 1462.25 1596.65 1460.56 Q1596.65 1457.8 1594.71 1456.07 Q1592.79 1454.33 1589.69 1454.33 Q1587.49 1454.33 1585.03 1455.09 Q1582.6 1455.86 1579.82 1457.41 L1579.82 1452.69 Q1582.65 1451.55 1585.1 1450.97 Q1587.56 1450.39 1589.59 1450.39 Q1594.96 1450.39 1598.16 1453.08 Q1601.35 1455.77 1601.35 1460.26 Q1601.35 1462.39 1600.54 1464.31 Q1599.76 1466.2 1597.65 1468.8 Q1597.07 1469.47 1593.97 1472.69 Q1590.87 1475.88 1585.22 1481.64 Z" fill="#000000" fill-rule="evenodd" fill-opacity="1" /><path clip-path="url(#clip830)" d="M1621.35 1454.1 Q1617.74 1454.1 1615.91 1457.66 Q1614.11 1461.2 1614.11 1468.33 Q1614.11 1475.44 1615.91 1479.01 Q1617.74 1482.55 1621.35 1482.55 Q1624.99 1482.55 1626.79 1479.01 Q1628.62 1475.44 1628.62 1468.33 Q1628.62 1461.2 1626.79 1457.66 Q1624.99 1454.1 1621.35 1454.1 M1621.35 1450.39 Q1627.16 1450.39 1630.22 1455 Q1633.3 1459.58 1633.3 1468.33 Q1633.3 1477.06 1630.22 1481.67 Q1627.16 1486.25 1621.35 1486.25 Q1615.54 1486.25 1612.46 1481.67 Q1609.41 1477.06 1609.41 1468.33 Q1609.41 1459.58 1612.46 1455 Q1615.54 1450.39 1621.35 1450.39 Z" fill="#000000" fill-rule="evenodd" fill-opacity="1" /><path clip-path="url(#clip830)" d="M2279.98 1466.95 Q2283.33 1467.66 2285.21 1469.93 Q2287.11 1472.2 2287.11 1475.53 Q2287.11 1480.65 2283.59 1483.45 Q2280.07 1486.25 2273.59 1486.25 Q2271.41 1486.25 2269.1 1485.81 Q2266.81 1485.39 2264.35 1484.54 L2264.35 1480.02 Q2266.3 1481.16 2268.61 1481.74 Q2270.93 1482.32 2273.45 1482.32 Q2277.85 1482.32 2280.14 1480.58 Q2282.45 1478.84 2282.45 1475.53 Q2282.45 1472.48 2280.3 1470.77 Q2278.17 1469.03 2274.35 1469.03 L2270.32 1469.03 L2270.32 1465.19 L2274.54 1465.19 Q2277.99 1465.19 2279.81 1463.82 Q2281.64 1462.43 2281.64 1459.84 Q2281.64 1457.18 2279.75 1455.77 Q2277.87 1454.33 2274.35 1454.33 Q2272.43 1454.33 2270.23 1454.75 Q2268.03 1455.16 2265.39 1456.04 L2265.39 1451.88 Q2268.06 1451.14 2270.37 1450.77 Q2272.71 1450.39 2274.77 1450.39 Q2280.09 1450.39 2283.19 1452.83 Q2286.3 1455.23 2286.3 1459.35 Q2286.3 1462.22 2284.65 1464.21 Q2283.01 1466.18 2279.98 1466.95 Z" fill="#000000" fill-rule="evenodd" fill-opacity="1" /><path clip-path="url(#clip830)" d="M2305.97 1454.1 Q2302.36 1454.1 2300.53 1457.66 Q2298.73 1461.2 2298.73 1468.33 Q2298.73 1475.44 2300.53 1479.01 Q2302.36 1482.55 2305.97 1482.55 Q2309.61 1482.55 2311.41 1479.01 Q2313.24 1475.44 2313.24 1468.33 Q2313.24 1461.2 2311.41 1457.66 Q2309.61 1454.1 2305.97 1454.1 M2305.97 1450.39 Q2311.78 1450.39 2314.84 1455 Q2317.92 1459.58 2317.92 1468.33 Q2317.92 1477.06 2314.84 1481.67 Q2311.78 1486.25 2305.97 1486.25 Q2300.16 1486.25 2297.08 1481.67 Q2294.03 1477.06 2294.03 1468.33 Q2294.03 1459.58 2297.08 1455 Q2300.16 1450.39 2305.97 1450.39 Z" fill="#000000" fill-rule="evenodd" fill-opacity="1" /><path clip-path="url(#clip830)" d="M1212.41 1522.27 L1212.41 1532.4 L1224.47 1532.4 L1224.47 1536.95 L1212.41 1536.95 L1212.41 1556.3 Q1212.41 1560.66 1213.59 1561.9 Q1214.8 1563.14 1218.46 1563.14 L1224.47 1563.14 L1224.47 1568.04 L1218.46 1568.04 Q1211.68 1568.04 1209.1 1565.53 Q1206.52 1562.98 1206.52 1556.3 L1206.52 1536.95 L1202.23 1536.95 L1202.23 1532.4 L1206.52 1532.4 L1206.52 1522.27 L1212.41 1522.27 Z" fill="#000000" fill-rule="evenodd" fill-opacity="1" /><path clip-path="url(#clip830)" d="M1252.36 1518.52 L1265.85 1518.52 L1265.85 1523.07 L1258.21 1523.07 L1258.21 1572.09 L1265.85 1572.09 L1265.85 1576.64 L1252.36 1576.64 L1252.36 1518.52 Z" fill="#000000" fill-rule="evenodd" fill-opacity="1" /><path clip-path="url(#clip830)" d="M1301.05 1533.45 L1301.05 1538.98 Q1298.57 1537.71 1295.9 1537.07 Q1293.22 1536.44 1290.36 1536.44 Q1286 1536.44 1283.8 1537.77 Q1281.64 1539.11 1281.64 1541.79 Q1281.64 1543.82 1283.2 1545 Q1284.76 1546.15 1289.47 1547.2 L1291.47 1547.64 Q1297.71 1548.98 1300.32 1551.43 Q1302.96 1553.85 1302.96 1558.21 Q1302.96 1563.17 1299.02 1566.07 Q1295.1 1568.97 1288.23 1568.97 Q1285.36 1568.97 1282.24 1568.39 Q1279.16 1567.85 1275.72 1566.74 L1275.72 1560.69 Q1278.96 1562.38 1282.12 1563.24 Q1285.27 1564.07 1288.35 1564.07 Q1292.49 1564.07 1294.72 1562.66 Q1296.95 1561.23 1296.95 1558.65 Q1296.95 1556.27 1295.32 1554.99 Q1293.73 1553.72 1288.29 1552.54 L1286.25 1552.07 Q1280.81 1550.92 1278.39 1548.56 Q1275.97 1546.18 1275.97 1542.04 Q1275.97 1537.01 1279.54 1534.27 Q1283.1 1531.54 1289.66 1531.54 Q1292.91 1531.54 1295.77 1532.01 Q1298.63 1532.49 1301.05 1533.45 Z" fill="#000000" fill-rule="evenodd" fill-opacity="1" /><path clip-path="url(#clip830)" d="M1325.98 1518.52 L1325.98 1576.64 L1312.48 1576.64 L1312.48 1572.09 L1320.09 1572.09 L1320.09 1523.07 L1312.48 1523.07 L1312.48 1518.52 L1325.98 1518.52 Z" fill="#000000" fill-rule="evenodd" fill-opacity="1" /><polyline clip-path="url(#clip832)" style="stroke:#000000; stroke-linecap:butt; stroke-linejoin:round; stroke-width:2; stroke-opacity:0.1; fill:none" points="
  175.445,1386.4 2352.76,1386.4 
  "/>
<polyline clip-path="url(#clip832)" style="stroke:#000000; stroke-linecap:butt; stroke-linejoin:round; stroke-width:2; stroke-opacity:0.1; fill:none" points="
  175.445,1079.87 2352.76,1079.87 
  "/>
<polyline clip-path="url(#clip832)" style="stroke:#000000; stroke-linecap:butt; stroke-linejoin:round; stroke-width:2; stroke-opacity:0.1; fill:none" points="
  175.445,773.326 2352.76,773.326 
  "/>
<polyline clip-path="url(#clip832)" style="stroke:#000000; stroke-linecap:butt; stroke-linejoin:round; stroke-width:2; stroke-opacity:0.1; fill:none" points="
  175.445,466.787 2352.76,466.787 
  "/>
<polyline clip-path="url(#clip832)" style="stroke:#000000; stroke-linecap:butt; stroke-linejoin:round; stroke-width:2; stroke-opacity:0.1; fill:none" points="
  175.445,160.248 2352.76,160.248 
  "/>
<polyline clip-path="url(#clip830)" style="stroke:#000000; stroke-linecap:butt; stroke-linejoin:round; stroke-width:4; stroke-opacity:1; fill:none" points="
  175.445,1423.18 175.445,123.472 
  "/>
<polyline clip-path="url(#clip830)" style="stroke:#000000; stroke-linecap:butt; stroke-linejoin:round; stroke-width:4; stroke-opacity:1; fill:none" points="
  175.445,1386.4 194.343,1386.4 
  "/>
<polyline clip-path="url(#clip830)" style="stroke:#000000; stroke-linecap:butt; stroke-linejoin:round; stroke-width:4; stroke-opacity:1; fill:none" points="
  175.445,1079.87 194.343,1079.87 
  "/>
<polyline clip-path="url(#clip830)" style="stroke:#000000; stroke-linecap:butt; stroke-linejoin:round; stroke-width:4; stroke-opacity:1; fill:none" points="
  175.445,773.326 194.343,773.326 
  "/>
<polyline clip-path="url(#clip830)" style="stroke:#000000; stroke-linecap:butt; stroke-linejoin:round; stroke-width:4; stroke-opacity:1; fill:none" points="
  175.445,466.787 194.343,466.787 
  "/>
<polyline clip-path="url(#clip830)" style="stroke:#000000; stroke-linecap:butt; stroke-linejoin:round; stroke-width:4; stroke-opacity:1; fill:none" points="
  175.445,160.248 194.343,160.248 
  "/>
<path clip-path="url(#clip830)" d="M127.501 1372.2 Q123.89 1372.2 122.061 1375.77 Q120.255 1379.31 120.255 1386.44 Q120.255 1393.55 122.061 1397.11 Q123.89 1400.65 127.501 1400.65 Q131.135 1400.65 132.941 1397.11 Q134.769 1393.55 134.769 1386.44 Q134.769 1379.31 132.941 1375.77 Q131.135 1372.2 127.501 1372.2 M127.501 1368.5 Q133.311 1368.5 136.367 1373.11 Q139.445 1377.69 139.445 1386.44 Q139.445 1395.17 136.367 1399.77 Q133.311 1404.36 127.501 1404.36 Q121.691 1404.36 118.612 1399.77 Q115.556 1395.17 115.556 1386.44 Q115.556 1377.69 118.612 1373.11 Q121.691 1368.5 127.501 1368.5 Z" fill="#000000" fill-rule="evenodd" fill-opacity="1" /><path clip-path="url(#clip830)" d="M123.126 1093.21 L139.445 1093.21 L139.445 1097.15 L117.501 1097.15 L117.501 1093.21 Q120.163 1090.46 124.746 1085.83 Q129.353 1081.17 130.533 1079.83 Q132.779 1077.31 133.658 1075.57 Q134.561 1073.81 134.561 1072.12 Q134.561 1069.37 132.617 1067.63 Q130.695 1065.9 127.593 1065.9 Q125.394 1065.9 122.941 1066.66 Q120.51 1067.42 117.732 1068.97 L117.732 1064.25 Q120.556 1063.12 123.01 1062.54 Q125.464 1061.96 127.501 1061.96 Q132.871 1061.96 136.066 1064.65 Q139.26 1067.33 139.26 1071.82 Q139.26 1073.95 138.45 1075.87 Q137.663 1077.77 135.556 1080.36 Q134.978 1081.03 131.876 1084.25 Q128.774 1087.45 123.126 1093.21 Z" fill="#000000" fill-rule="evenodd" fill-opacity="1" /><path clip-path="url(#clip830)" d="M129.862 760.12 L118.056 778.569 L129.862 778.569 L129.862 760.12 M128.635 756.046 L134.515 756.046 L134.515 778.569 L139.445 778.569 L139.445 782.458 L134.515 782.458 L134.515 790.606 L129.862 790.606 L129.862 782.458 L114.26 782.458 L114.26 777.944 L128.635 756.046 Z" fill="#000000" fill-rule="evenodd" fill-opacity="1" /><path clip-path="url(#clip830)" d="M127.917 464.923 Q124.769 464.923 122.918 467.076 Q121.089 469.229 121.089 472.979 Q121.089 476.706 122.918 478.882 Q124.769 481.035 127.917 481.035 Q131.066 481.035 132.894 478.882 Q134.746 476.706 134.746 472.979 Q134.746 469.229 132.894 467.076 Q131.066 464.923 127.917 464.923 M137.2 450.271 L137.2 454.53 Q135.441 453.697 133.635 453.257 Q131.853 452.817 130.093 452.817 Q125.464 452.817 123.01 455.942 Q120.58 459.067 120.232 465.386 Q121.598 463.373 123.658 462.308 Q125.718 461.22 128.195 461.22 Q133.404 461.22 136.413 464.391 Q139.445 467.539 139.445 472.979 Q139.445 478.303 136.297 481.521 Q133.149 484.738 127.917 484.738 Q121.922 484.738 118.751 480.155 Q115.58 475.548 115.58 466.822 Q115.58 458.627 119.468 453.766 Q123.357 448.882 129.908 448.882 Q131.667 448.882 133.45 449.229 Q135.255 449.576 137.2 450.271 Z" fill="#000000" fill-rule="evenodd" fill-opacity="1" /><path clip-path="url(#clip830)" d="M127.593 161.116 Q124.26 161.116 122.339 162.898 Q120.441 164.681 120.441 167.806 Q120.441 170.931 122.339 172.713 Q124.26 174.495 127.593 174.495 Q130.927 174.495 132.848 172.713 Q134.769 170.908 134.769 167.806 Q134.769 164.681 132.848 162.898 Q130.95 161.116 127.593 161.116 M122.918 159.125 Q119.908 158.384 118.218 156.324 Q116.552 154.264 116.552 151.301 Q116.552 147.158 119.492 144.75 Q122.455 142.343 127.593 142.343 Q132.755 142.343 135.695 144.75 Q138.635 147.158 138.635 151.301 Q138.635 154.264 136.945 156.324 Q135.279 158.384 132.292 159.125 Q135.672 159.912 137.547 162.204 Q139.445 164.496 139.445 167.806 Q139.445 172.829 136.367 175.514 Q133.311 178.199 127.593 178.199 Q121.876 178.199 118.797 175.514 Q115.742 172.829 115.742 167.806 Q115.742 164.496 117.64 162.204 Q119.538 159.912 122.918 159.125 M121.205 151.741 Q121.205 154.426 122.871 155.931 Q124.561 157.435 127.593 157.435 Q130.603 157.435 132.292 155.931 Q134.005 154.426 134.005 151.741 Q134.005 149.056 132.292 147.551 Q130.603 146.047 127.593 146.047 Q124.561 146.047 122.871 147.551 Q121.205 149.056 121.205 151.741 Z" fill="#000000" fill-rule="evenodd" fill-opacity="1" /><path clip-path="url(#clip830)" d="M46.0847 892.572 Q46.0847 899.669 47.7079 902.407 Q49.3312 905.144 53.2461 905.144 Q56.3653 905.144 58.2114 903.107 Q60.0256 901.038 60.0256 897.505 Q60.0256 892.635 56.5881 889.707 Q53.1188 886.747 47.3897 886.747 L46.0847 886.747 L46.0847 892.572 M43.6657 880.891 L64.0042 880.891 L64.0042 886.747 L58.5933 886.747 Q61.8398 888.752 63.3994 891.744 Q64.9272 894.736 64.9272 899.065 Q64.9272 904.539 61.8716 907.786 Q58.7843 911 53.6281 911 Q47.6125 911 44.5569 906.99 Q41.5014 902.948 41.5014 894.959 L41.5014 886.747 L40.9285 886.747 Q36.8862 886.747 34.6901 889.421 Q32.4621 892.062 32.4621 896.868 Q32.4621 899.924 33.1941 902.82 Q33.9262 905.717 35.3903 908.39 L29.9795 908.39 Q28.7381 905.176 28.1334 902.152 Q27.4968 899.128 27.4968 896.264 Q27.4968 888.529 31.5072 884.71 Q35.5176 880.891 43.6657 880.891 Z" fill="#000000" fill-rule="evenodd" fill-opacity="1" /><path clip-path="url(#clip830)" d="M14.479 868.827 L14.479 862.971 L64.0042 862.971 L64.0042 868.827 L14.479 868.827 Z" fill="#000000" fill-rule="evenodd" fill-opacity="1" /><path clip-path="url(#clip830)" d="M58.657 845.052 L77.5631 845.052 L77.5631 850.94 L28.3562 850.94 L28.3562 845.052 L33.7671 845.052 Q30.5842 843.206 29.0564 840.405 Q27.4968 837.572 27.4968 833.657 Q27.4968 827.164 32.6531 823.122 Q37.8093 819.048 46.212 819.048 Q54.6147 819.048 59.771 823.122 Q64.9272 827.164 64.9272 833.657 Q64.9272 837.572 63.3994 840.405 Q61.8398 843.206 58.657 845.052 M46.212 825.127 Q39.7508 825.127 36.0905 827.801 Q32.3984 830.442 32.3984 835.089 Q32.3984 839.736 36.0905 842.41 Q39.7508 845.052 46.212 845.052 Q52.6732 845.052 56.3653 842.41 Q60.0256 839.736 60.0256 835.089 Q60.0256 830.442 56.3653 827.801 Q52.6732 825.127 46.212 825.127 Z" fill="#000000" fill-rule="evenodd" fill-opacity="1" /><path clip-path="url(#clip830)" d="M42.4881 779.708 L64.0042 779.708 L64.0042 785.564 L42.679 785.564 Q37.6183 785.564 35.1038 787.537 Q32.5894 789.511 32.5894 793.458 Q32.5894 798.2 35.6131 800.937 Q38.6368 803.674 43.8567 803.674 L64.0042 803.674 L64.0042 809.563 L14.479 809.563 L14.479 803.674 L33.8944 803.674 Q30.6797 801.574 29.0883 798.741 Q27.4968 795.876 27.4968 792.153 Q27.4968 786.01 31.3163 782.859 Q35.1038 779.708 42.4881 779.708 Z" fill="#000000" fill-rule="evenodd" fill-opacity="1" /><path clip-path="url(#clip830)" d="M46.0847 751.826 Q46.0847 758.924 47.7079 761.661 Q49.3312 764.398 53.2461 764.398 Q56.3653 764.398 58.2114 762.361 Q60.0256 760.292 60.0256 756.759 Q60.0256 751.889 56.5881 748.961 Q53.1188 746.001 47.3897 746.001 L46.0847 746.001 L46.0847 751.826 M43.6657 740.145 L64.0042 740.145 L64.0042 746.001 L58.5933 746.001 Q61.8398 748.006 63.3994 750.998 Q64.9272 753.99 64.9272 758.319 Q64.9272 763.793 61.8716 767.04 Q58.7843 770.255 53.6281 770.255 Q47.6125 770.255 44.5569 766.244 Q41.5014 762.202 41.5014 754.213 L41.5014 746.001 L40.9285 746.001 Q36.8862 746.001 34.6901 748.675 Q32.4621 751.317 32.4621 756.123 Q32.4621 759.178 33.1941 762.075 Q33.9262 764.971 35.3903 767.645 L29.9795 767.645 Q28.7381 764.43 28.1334 761.406 Q27.4968 758.382 27.4968 755.518 Q27.4968 747.784 31.5072 743.964 Q35.5176 740.145 43.6657 740.145 Z" fill="#000000" fill-rule="evenodd" fill-opacity="1" /><path clip-path="url(#clip830)" d="M14.479 707.902 L14.479 694.407 L19.0304 694.407 L19.0304 702.046 L68.0464 702.046 L68.0464 694.407 L72.5979 694.407 L72.5979 707.902 L14.479 707.902 Z" fill="#000000" fill-rule="evenodd" fill-opacity="1" /><path clip-path="url(#clip830)" d="M19.7307 671.777 Q19.7307 674.323 21.5131 676.074 Q23.2636 677.824 25.8099 677.824 Q28.3244 677.824 30.0749 676.074 Q31.7937 674.323 31.7937 671.777 Q31.7937 669.231 30.0749 667.48 Q28.3244 665.73 25.8099 665.73 Q23.2955 665.73 21.5131 667.512 Q19.7307 669.263 19.7307 671.777 M15.6248 671.777 Q15.6248 669.74 16.4205 667.862 Q17.1844 665.984 18.6485 664.616 Q20.0808 663.152 21.895 662.419 Q23.7092 661.687 25.8099 661.687 Q30.0113 661.687 32.9395 664.647 Q35.8359 667.576 35.8359 671.841 Q35.8359 676.138 32.9713 679.002 Q30.1068 681.867 25.8099 681.867 Q21.5449 681.867 18.5848 678.938 Q15.6248 676.01 15.6248 671.777 Z" fill="#000000" fill-rule="evenodd" fill-opacity="1" /><path clip-path="url(#clip830)" d="M14.479 635.652 L72.5979 635.652 L72.5979 649.147 L68.0464 649.147 L68.0464 641.54 L19.0304 641.54 L19.0304 649.147 L14.479 649.147 L14.479 635.652 Z" fill="#000000" fill-rule="evenodd" fill-opacity="1" /><path clip-path="url(#clip830)" d="M354.713 44.2197 Q357.346 45.1109 359.817 48.0275 Q362.329 50.9442 364.84 56.0483 L373.145 72.576 L364.354 72.576 L356.617 57.061 Q353.619 50.9847 350.784 48.9997 Q347.989 47.0148 343.127 47.0148 L334.215 47.0148 L334.215 72.576 L326.033 72.576 L326.033 12.096 L344.505 12.096 Q354.875 12.096 359.979 16.4305 Q365.083 20.7649 365.083 29.5149 Q365.083 35.2267 362.41 38.994 Q359.777 42.7613 354.713 44.2197 M334.215 18.8205 L334.215 40.2903 L344.505 40.2903 Q350.419 40.2903 353.417 37.5762 Q356.455 34.8216 356.455 29.5149 Q356.455 24.2082 353.417 21.5346 Q350.419 18.8205 344.505 18.8205 L334.215 18.8205 Z" fill="#000000" fill-rule="evenodd" fill-opacity="1" /><path clip-path="url(#clip830)" d="M418.434 48.0275 L418.434 51.6733 L384.163 51.6733 Q384.649 59.3701 388.781 63.421 Q392.954 67.4314 400.367 67.4314 Q404.661 67.4314 408.671 66.3781 Q412.722 65.3249 416.692 63.2184 L416.692 70.267 Q412.682 71.9684 408.469 72.8596 Q404.256 73.7508 399.921 73.7508 Q389.065 73.7508 382.705 67.4314 Q376.385 61.1119 376.385 50.3365 Q376.385 39.1965 382.381 32.6746 Q388.417 26.1121 398.625 26.1121 Q407.78 26.1121 413.087 32.0264 Q418.434 37.9003 418.434 48.0275 M410.98 45.84 Q410.899 39.7232 407.537 36.0774 Q404.215 32.4315 398.706 32.4315 Q392.467 32.4315 388.7 35.9558 Q384.973 39.4801 384.406 45.8805 L410.98 45.84 Z" fill="#000000" fill-rule="evenodd" fill-opacity="1" /><path clip-path="url(#clip830)" d="M431.64 34.9026 L483.572 34.9026 L483.572 41.7081 L431.64 41.7081 L431.64 34.9026 M431.64 51.4303 L483.572 51.4303 L483.572 58.3168 L431.64 58.3168 L431.64 51.4303 Z" fill="#000000" fill-rule="evenodd" fill-opacity="1" /><path clip-path="url(#clip830)" d="M502.652 65.6895 L516.02 65.6895 L516.02 19.5497 L501.477 22.4663 L501.477 15.0127 L515.939 12.096 L524.122 12.096 L524.122 65.6895 L537.49 65.6895 L537.49 72.576 L502.652 72.576 L502.652 65.6895 Z" fill="#000000" fill-rule="evenodd" fill-opacity="1" /><path clip-path="url(#clip830)" d="M571.517 17.4837 Q565.198 17.4837 561.998 23.7221 Q558.838 29.92 558.838 42.3968 Q558.838 54.833 561.998 61.0714 Q565.198 67.2693 571.517 67.2693 Q577.877 67.2693 581.037 61.0714 Q584.237 54.833 584.237 42.3968 Q584.237 29.92 581.037 23.7221 Q577.877 17.4837 571.517 17.4837 M571.517 11.0023 Q581.685 11.0023 587.032 19.0636 Q592.42 27.0843 592.42 42.3968 Q592.42 57.6687 587.032 65.73 Q581.685 73.7508 571.517 73.7508 Q561.35 73.7508 555.962 65.73 Q550.615 57.6687 550.615 42.3968 Q550.615 27.0843 555.962 19.0636 Q561.35 11.0023 571.517 11.0023 Z" fill="#000000" fill-rule="evenodd" fill-opacity="1" /><path clip-path="url(#clip830)" d="M624.301 17.4837 Q617.981 17.4837 614.781 23.7221 Q611.621 29.92 611.621 42.3968 Q611.621 54.833 614.781 61.0714 Q617.981 67.2693 624.301 67.2693 Q630.661 67.2693 633.82 61.0714 Q637.021 54.833 637.021 42.3968 Q637.021 29.92 633.82 23.7221 Q630.661 17.4837 624.301 17.4837 M624.301 11.0023 Q634.469 11.0023 639.816 19.0636 Q645.203 27.0843 645.203 42.3968 Q645.203 57.6687 639.816 65.73 Q634.469 73.7508 624.301 73.7508 Q614.133 73.7508 608.745 65.73 Q603.398 57.6687 603.398 42.3968 Q603.398 27.0843 608.745 19.0636 Q614.133 11.0023 624.301 11.0023 Z" fill="#000000" fill-rule="evenodd" fill-opacity="1" /><path clip-path="url(#clip830)" d="M677.084 17.4837 Q670.765 17.4837 667.564 23.7221 Q664.405 29.92 664.405 42.3968 Q664.405 54.833 667.564 61.0714 Q670.765 67.2693 677.084 67.2693 Q683.444 67.2693 686.604 61.0714 Q689.804 54.833 689.804 42.3968 Q689.804 29.92 686.604 23.7221 Q683.444 17.4837 677.084 17.4837 M677.084 11.0023 Q687.252 11.0023 692.599 19.0636 Q697.987 27.0843 697.987 42.3968 Q697.987 57.6687 692.599 65.73 Q687.252 73.7508 677.084 73.7508 Q666.916 73.7508 661.529 65.73 Q656.181 57.6687 656.181 42.3968 Q656.181 27.0843 661.529 19.0636 Q666.916 11.0023 677.084 11.0023 Z" fill="#000000" fill-rule="evenodd" fill-opacity="1" /><path clip-path="url(#clip830)" d="M712.367 62.2867 L720.915 62.2867 L720.915 72.576 L712.367 72.576 L712.367 62.2867 Z" fill="#000000" fill-rule="evenodd" fill-opacity="1" /><path clip-path="url(#clip830)" d="M756.239 17.4837 Q749.919 17.4837 746.719 23.7221 Q743.559 29.92 743.559 42.3968 Q743.559 54.833 746.719 61.0714 Q749.919 67.2693 756.239 67.2693 Q762.599 67.2693 765.758 61.0714 Q768.959 54.833 768.959 42.3968 Q768.959 29.92 765.758 23.7221 Q762.599 17.4837 756.239 17.4837 M756.239 11.0023 Q766.406 11.0023 771.754 19.0636 Q777.141 27.0843 777.141 42.3968 Q777.141 57.6687 771.754 65.73 Q766.406 73.7508 756.239 73.7508 Q746.071 73.7508 740.683 65.73 Q735.336 57.6687 735.336 42.3968 Q735.336 27.0843 740.683 19.0636 Q746.071 11.0023 756.239 11.0023 Z" fill="#000000" fill-rule="evenodd" fill-opacity="1" /><path clip-path="url(#clip830)" d="M837.459 49.7694 Q828.426 49.7694 824.942 51.8354 Q821.458 53.9013 821.458 58.8839 Q821.458 62.8538 824.051 65.2034 Q826.684 67.5124 831.18 67.5124 Q837.378 67.5124 841.105 63.1374 Q844.872 58.7219 844.872 51.4303 L844.872 49.7694 L837.459 49.7694 M852.326 46.6907 L852.326 72.576 L844.872 72.576 L844.872 65.6895 Q842.32 69.8214 838.513 71.8063 Q834.705 73.7508 829.195 73.7508 Q822.228 73.7508 818.096 69.8619 Q814.005 65.9325 814.005 59.3701 Q814.005 51.7138 819.109 47.825 Q824.253 43.9361 834.421 43.9361 L844.872 43.9361 L844.872 43.2069 Q844.872 38.0623 841.47 35.2672 Q838.107 32.4315 831.991 32.4315 Q828.102 32.4315 824.415 33.3632 Q820.729 34.295 817.326 36.1584 L817.326 29.2718 Q821.418 27.692 825.266 26.9223 Q829.114 26.1121 832.76 26.1121 Q842.604 26.1121 847.465 31.2163 Q852.326 36.3204 852.326 46.6907 Z" fill="#000000" fill-rule="evenodd" fill-opacity="1" /><path clip-path="url(#clip830)" d="M868.651 34.9026 L920.584 34.9026 L920.584 41.7081 L868.651 41.7081 L868.651 34.9026 M868.651 51.4303 L920.584 51.4303 L920.584 58.3168 L868.651 58.3168 L868.651 51.4303 Z" fill="#000000" fill-rule="evenodd" fill-opacity="1" /><path clip-path="url(#clip830)" d="M955.746 17.4837 Q949.426 17.4837 946.226 23.7221 Q943.066 29.92 943.066 42.3968 Q943.066 54.833 946.226 61.0714 Q949.426 67.2693 955.746 67.2693 Q962.106 67.2693 965.265 61.0714 Q968.466 54.833 968.466 42.3968 Q968.466 29.92 965.265 23.7221 Q962.106 17.4837 955.746 17.4837 M955.746 11.0023 Q965.913 11.0023 971.261 19.0636 Q976.648 27.0843 976.648 42.3968 Q976.648 57.6687 971.261 65.73 Q965.913 73.7508 955.746 73.7508 Q945.578 73.7508 940.19 65.73 Q934.843 57.6687 934.843 42.3968 Q934.843 27.0843 940.19 19.0636 Q945.578 11.0023 955.746 11.0023 Z" fill="#000000" fill-rule="evenodd" fill-opacity="1" /><path clip-path="url(#clip830)" d="M991.029 62.2867 L999.577 62.2867 L999.577 72.576 L991.029 72.576 L991.029 62.2867 Z" fill="#000000" fill-rule="evenodd" fill-opacity="1" /><path clip-path="url(#clip830)" d="M1024.45 65.6895 L1053.01 65.6895 L1053.01 72.576 L1014.61 72.576 L1014.61 65.6895 Q1019.26 60.8689 1027.28 52.7671 Q1035.35 44.6248 1037.41 42.2752 Q1041.34 37.8598 1042.88 34.8216 Q1044.46 31.7429 1044.46 28.7857 Q1044.46 23.9651 1041.06 20.927 Q1037.7 17.8888 1032.27 17.8888 Q1028.42 17.8888 1024.12 19.2256 Q1019.87 20.5624 1015.01 23.2765 L1015.01 15.0127 Q1019.95 13.0277 1024.25 12.015 Q1028.54 11.0023 1032.11 11.0023 Q1041.5 11.0023 1047.09 15.7013 Q1052.68 20.4004 1052.68 28.2591 Q1052.68 31.9859 1051.27 35.3482 Q1049.89 38.6699 1046.2 43.2069 Q1045.19 44.3817 1039.76 50.0125 Q1034.33 55.6027 1024.45 65.6895 Z" fill="#000000" fill-rule="evenodd" fill-opacity="1" /><path clip-path="url(#clip830)" d="M1070.26 12.096 L1102.39 12.096 L1102.39 18.9825 L1077.76 18.9825 L1077.76 33.8088 Q1079.54 33.2012 1081.32 32.9176 Q1083.11 32.5936 1084.89 32.5936 Q1095.02 32.5936 1100.93 38.1433 Q1106.84 43.6931 1106.84 53.1722 Q1106.84 62.9348 1100.77 68.3631 Q1094.69 73.7508 1083.63 73.7508 Q1079.82 73.7508 1075.86 73.1026 Q1071.93 72.4545 1067.71 71.1582 L1067.71 62.9348 Q1071.36 64.9198 1075.25 65.892 Q1079.14 66.8642 1083.47 66.8642 Q1090.48 66.8642 1094.57 63.1779 Q1098.66 59.4916 1098.66 53.1722 Q1098.66 46.8528 1094.57 43.1664 Q1090.48 39.4801 1083.47 39.4801 Q1080.19 39.4801 1076.91 40.2093 Q1073.67 40.9384 1070.26 42.4778 L1070.26 12.096 Z" fill="#000000" fill-rule="evenodd" fill-opacity="1" /><path clip-path="url(#clip830)" d="M1171.25 9.54393 L1171.25 15.7418 L1164.12 15.7418 Q1160.11 15.7418 1158.53 17.3622 Q1156.99 18.9825 1156.99 23.1955 L1156.99 27.2059 L1169.27 27.2059 L1169.27 32.9987 L1156.99 32.9987 L1156.99 72.576 L1149.5 72.576 L1149.5 32.9987 L1142.37 32.9987 L1142.37 27.2059 L1149.5 27.2059 L1149.5 24.0462 Q1149.5 16.471 1153.02 13.0277 Q1156.55 9.54393 1164.21 9.54393 L1171.25 9.54393 Z" fill="#000000" fill-rule="evenodd" fill-opacity="1" /><path clip-path="url(#clip830)" d="M1178.46 34.9026 L1230.4 34.9026 L1230.4 41.7081 L1178.46 41.7081 L1178.46 34.9026 M1178.46 51.4303 L1230.4 51.4303 L1230.4 58.3168 L1178.46 58.3168 L1178.46 51.4303 Z" fill="#000000" fill-rule="evenodd" fill-opacity="1" /><path clip-path="url(#clip830)" d="M1249.48 65.6895 L1262.84 65.6895 L1262.84 19.5497 L1248.3 22.4663 L1248.3 15.0127 L1262.76 12.096 L1270.95 12.096 L1270.95 65.6895 L1284.31 65.6895 L1284.31 72.576 L1249.48 72.576 L1249.48 65.6895 Z" fill="#000000" fill-rule="evenodd" fill-opacity="1" /><path clip-path="url(#clip830)" d="M1300.84 62.2867 L1309.39 62.2867 L1309.39 72.576 L1300.84 72.576 L1300.84 62.2867 Z" fill="#000000" fill-rule="evenodd" fill-opacity="1" /><path clip-path="url(#clip830)" d="M1344.71 17.4837 Q1338.39 17.4837 1335.19 23.7221 Q1332.03 29.92 1332.03 42.3968 Q1332.03 54.833 1335.19 61.0714 Q1338.39 67.2693 1344.71 67.2693 Q1351.07 67.2693 1354.23 61.0714 Q1357.43 54.833 1357.43 42.3968 Q1357.43 29.92 1354.23 23.7221 Q1351.07 17.4837 1344.71 17.4837 M1344.71 11.0023 Q1354.88 11.0023 1360.23 19.0636 Q1365.62 27.0843 1365.62 42.3968 Q1365.62 57.6687 1360.23 65.73 Q1354.88 73.7508 1344.71 73.7508 Q1334.55 73.7508 1329.16 65.73 Q1323.81 57.6687 1323.81 42.3968 Q1323.81 27.0843 1329.16 19.0636 Q1334.55 11.0023 1344.71 11.0023 Z" fill="#000000" fill-rule="evenodd" fill-opacity="1" /><path clip-path="url(#clip830)" d="M1431.77 51.4708 L1429.99 42.1132 Q1428.16 32.5126 1420.95 32.5126 Q1415.52 32.5126 1413.05 36.9686 Q1409.93 42.5588 1409.93 49.9314 Q1409.93 58.8434 1412.97 63.0969 Q1416.05 67.4314 1420.95 67.4314 Q1426.38 67.4314 1429.3 58.8029 L1431.77 51.4708 M1435.94 39.075 L1439.95 27.2059 L1446.59 27.2059 L1438.29 51.7949 L1439.91 60.6663 Q1440.27 62.6513 1441.69 64.3122 Q1443.35 66.2566 1444.65 66.2566 L1448.21 66.2566 L1448.21 72.576 L1443.76 72.576 Q1439.95 72.576 1436.55 69.1732 Q1434.89 67.4719 1434.2 63.9071 Q1432.33 68.4036 1428.53 71.9279 Q1426.74 73.5887 1420.95 73.5887 Q1411.43 73.5887 1406.81 67.4314 Q1402.07 61.0714 1402.07 49.9314 Q1402.07 38.0218 1407.22 32.4315 Q1412.93 26.1931 1420.95 26.1931 Q1433.55 26.1931 1435.94 39.075 Z" fill="#000000" fill-rule="evenodd" fill-opacity="1" /><path clip-path="url(#clip830)" d="M1480.14 58.2358 L1480.14 72.576 L1475.44 72.576 L1475.44 57.3851 Q1475.44 53.6988 1473.98 51.9569 Q1472.52 50.1745 1469.48 50.1745 Q1465.88 50.1745 1463.77 52.362 Q1461.66 54.509 1461.66 58.2358 L1461.66 72.576 L1456.92 72.576 L1456.92 47.1768 L1461.66 47.1768 L1461.66 51.1062 Q1463.24 48.7972 1465.47 47.7034 Q1467.74 46.5692 1470.86 46.5692 Q1473.94 46.5692 1476.12 47.987 Q1478.31 49.3643 1479.37 52.0379 Q1481.11 49.2428 1483.54 47.906 Q1486.01 46.5692 1489.33 46.5692 Q1493.83 46.5692 1496.22 49.3643 Q1498.65 52.1189 1498.65 57.2231 L1498.65 72.576 L1493.95 72.576 L1493.95 57.3851 Q1493.95 53.7393 1492.49 51.9569 Q1491.03 50.1745 1488.03 50.1745 Q1484.39 50.1745 1482.24 52.362 Q1480.14 54.509 1480.14 58.2358 Z" fill="#000000" fill-rule="evenodd" fill-opacity="1" /><path clip-path="url(#clip830)" d="M1533.24 58.8434 L1533.24 60.8689 L1511.65 60.8689 Q1511.98 65.1628 1514.57 67.4314 Q1517.2 69.6999 1521.86 69.6999 Q1524.57 69.6999 1527.13 69.0922 Q1529.64 68.5251 1532.15 67.3503 L1532.15 71.2797 Q1529.64 72.2519 1526.96 72.738 Q1524.33 73.2241 1521.58 73.2241 Q1514.73 73.2241 1510.76 69.6999 Q1506.75 66.1756 1506.75 60.1397 Q1506.75 53.9013 1510.56 50.215 Q1514.32 46.5692 1520.77 46.5692 Q1526.52 46.5692 1529.88 49.8504 Q1533.24 53.1722 1533.24 58.8434 M1528.54 57.5877 Q1528.5 54.1849 1526.4 52.1189 Q1524.29 50.0935 1520.81 50.0935 Q1516.88 50.0935 1514.53 52.0784 Q1512.18 54.0229 1511.81 57.5877 L1528.54 57.5877 Z" fill="#000000" fill-rule="evenodd" fill-opacity="1" /><path clip-path="url(#clip830)" d="M1556.37 59.8157 Q1550.7 59.8157 1548.51 60.9499 Q1546.29 62.1247 1546.29 64.9198 Q1546.29 67.1478 1547.95 68.4441 Q1549.61 69.7404 1552.44 69.7404 Q1556.33 69.7404 1558.68 67.2693 Q1561.07 64.7983 1561.07 60.7474 L1561.07 59.8157 L1556.37 59.8157 M1565.73 58.0738 L1565.73 72.576 L1561.07 72.576 L1561.07 68.7276 Q1559.45 71.0367 1557.06 72.1304 Q1554.63 73.2241 1551.19 73.2241 Q1546.77 73.2241 1544.18 71.0367 Q1541.59 68.8492 1541.59 65.1628 Q1541.59 60.9094 1544.83 58.7219 Q1548.07 56.5344 1554.47 56.5344 L1561.07 56.5344 L1561.07 56.1293 Q1561.07 53.2532 1558.93 51.6733 Q1556.78 50.0935 1552.93 50.0935 Q1550.5 50.0935 1548.15 50.6201 Q1545.84 51.1467 1543.69 52.2 L1543.69 48.3111 Q1546.29 47.4604 1548.72 47.0148 Q1551.11 46.5692 1553.42 46.5692 Q1559.61 46.5692 1562.69 49.4048 Q1565.73 52.281 1565.73 58.0738 Z" fill="#000000" fill-rule="evenodd" fill-opacity="1" /><path clip-path="url(#clip830)" d="M1599.64 57.2231 L1599.64 72.576 L1594.94 72.576 L1594.94 57.3851 Q1594.94 53.7798 1593.36 51.9974 Q1591.78 50.1745 1588.62 50.1745 Q1584.81 50.1745 1582.62 52.362 Q1580.44 54.509 1580.44 58.2358 L1580.44 72.576 L1575.7 72.576 L1575.7 47.1768 L1580.44 47.1768 L1580.44 51.1062 Q1582.1 48.8377 1584.37 47.7034 Q1586.67 46.5692 1589.67 46.5692 Q1594.57 46.5692 1597.08 49.2833 Q1599.64 51.9974 1599.64 57.2231 Z" fill="#000000" fill-rule="evenodd" fill-opacity="1" /><path clip-path="url(#clip830)" d="M1612.8 34.9026 L1664.73 34.9026 L1664.73 41.7081 L1612.8 41.7081 L1612.8 34.9026 M1612.8 51.4303 L1664.73 51.4303 L1664.73 58.3168 L1612.8 58.3168 L1612.8 51.4303 Z" fill="#000000" fill-rule="evenodd" fill-opacity="1" /><path clip-path="url(#clip830)" d="M1704.88 19.2256 L1684.22 51.5113 L1704.88 51.5113 L1704.88 19.2256 M1702.73 12.096 L1713.02 12.096 L1713.02 51.5113 L1721.65 51.5113 L1721.65 58.3168 L1713.02 58.3168 L1713.02 72.576 L1704.88 72.576 L1704.88 58.3168 L1677.58 58.3168 L1677.58 50.4176 L1702.73 12.096 Z" fill="#000000" fill-rule="evenodd" fill-opacity="1" /><path clip-path="url(#clip830)" d="M1735.18 62.2867 L1743.73 62.2867 L1743.73 72.576 L1735.18 72.576 L1735.18 62.2867 Z" fill="#000000" fill-rule="evenodd" fill-opacity="1" /><path clip-path="url(#clip830)" d="M1779.05 17.4837 Q1772.73 17.4837 1769.53 23.7221 Q1766.37 29.92 1766.37 42.3968 Q1766.37 54.833 1769.53 61.0714 Q1772.73 67.2693 1779.05 67.2693 Q1785.41 67.2693 1788.57 61.0714 Q1791.77 54.833 1791.77 42.3968 Q1791.77 29.92 1788.57 23.7221 Q1785.41 17.4837 1779.05 17.4837 M1779.05 11.0023 Q1789.22 11.0023 1794.57 19.0636 Q1799.95 27.0843 1799.95 42.3968 Q1799.95 57.6687 1794.57 65.73 Q1789.22 73.7508 1779.05 73.7508 Q1768.88 73.7508 1763.5 65.73 Q1758.15 57.6687 1758.15 42.3968 Q1758.15 27.0843 1763.5 19.0636 Q1768.88 11.0023 1779.05 11.0023 Z" fill="#000000" fill-rule="evenodd" fill-opacity="1" /><path clip-path="url(#clip830)" d="M1866.11 51.4708 L1864.32 42.1132 Q1862.5 32.5126 1855.29 32.5126 Q1849.86 32.5126 1847.39 36.9686 Q1844.27 42.5588 1844.27 49.9314 Q1844.27 58.8434 1847.31 63.0969 Q1850.39 67.4314 1855.29 67.4314 Q1860.72 67.4314 1863.63 58.8029 L1866.11 51.4708 M1870.28 39.075 L1874.29 27.2059 L1880.93 27.2059 L1872.63 51.7949 L1874.25 60.6663 Q1874.61 62.6513 1876.03 64.3122 Q1877.69 66.2566 1878.99 66.2566 L1882.55 66.2566 L1882.55 72.576 L1878.1 72.576 Q1874.29 72.576 1870.89 69.1732 Q1869.22 67.4719 1868.54 63.9071 Q1866.67 68.4036 1862.86 71.9279 Q1861.08 73.5887 1855.29 73.5887 Q1845.77 73.5887 1841.15 67.4314 Q1836.41 61.0714 1836.41 49.9314 Q1836.41 38.0218 1841.56 32.4315 Q1847.27 26.1931 1855.29 26.1931 Q1867.89 26.1931 1870.28 39.075 Z" fill="#000000" fill-rule="evenodd" fill-opacity="1" /><path clip-path="url(#clip830)" d="M1904.43 59.8157 Q1898.76 59.8157 1896.57 60.9499 Q1894.34 62.1247 1894.34 64.9198 Q1894.34 67.1478 1896 68.4441 Q1897.66 69.7404 1900.5 69.7404 Q1904.39 69.7404 1906.74 67.2693 Q1909.13 64.7983 1909.13 60.7474 L1909.13 59.8157 L1904.43 59.8157 M1913.78 58.0738 L1913.78 72.576 L1909.13 72.576 L1909.13 68.7276 Q1907.51 71.0367 1905.12 72.1304 Q1902.69 73.2241 1899.24 73.2241 Q1894.83 73.2241 1892.23 71.0367 Q1889.64 68.8492 1889.64 65.1628 Q1889.64 60.9094 1892.88 58.7219 Q1896.12 56.5344 1902.52 56.5344 L1909.13 56.5344 L1909.13 56.1293 Q1909.13 53.2532 1906.98 51.6733 Q1904.83 50.0935 1900.98 50.0935 Q1898.55 50.0935 1896.2 50.6201 Q1893.89 51.1467 1891.75 52.2 L1891.75 48.3111 Q1894.34 47.4604 1896.77 47.0148 Q1899.16 46.5692 1901.47 46.5692 Q1907.67 46.5692 1910.75 49.4048 Q1913.78 52.281 1913.78 58.0738 Z" fill="#000000" fill-rule="evenodd" fill-opacity="1" /><path clip-path="url(#clip830)" d="M1946.96 58.2358 L1946.96 72.576 L1942.26 72.576 L1942.26 57.3851 Q1942.26 53.6988 1940.8 51.9569 Q1939.35 50.1745 1936.31 50.1745 Q1932.7 50.1745 1930.6 52.362 Q1928.49 54.509 1928.49 58.2358 L1928.49 72.576 L1923.75 72.576 L1923.75 47.1768 L1928.49 47.1768 L1928.49 51.1062 Q1930.07 48.7972 1932.3 47.7034 Q1934.57 46.5692 1937.68 46.5692 Q1940.76 46.5692 1942.95 47.987 Q1945.14 49.3643 1946.19 52.0379 Q1947.93 49.2428 1950.36 47.906 Q1952.84 46.5692 1956.16 46.5692 Q1960.65 46.5692 1963.04 49.3643 Q1965.47 52.1189 1965.47 57.2231 L1965.47 72.576 L1960.78 72.576 L1960.78 57.3851 Q1960.78 53.7393 1959.32 51.9569 Q1957.86 50.1745 1954.86 50.1745 Q1951.21 50.1745 1949.07 52.362 Q1946.96 54.509 1946.96 58.2358 Z" fill="#000000" fill-rule="evenodd" fill-opacity="1" /><path clip-path="url(#clip830)" d="M1980.18 68.7682 L1980.18 82.2577 L1975.44 82.2577 L1975.44 47.1768 L1980.18 47.1768 L1980.18 51.0252 Q1981.64 48.7567 1983.91 47.6629 Q1986.17 46.5692 1989.29 46.5692 Q1994.52 46.5692 1997.76 50.215 Q2001 53.9013 2001 59.8967 Q2001 65.892 1997.76 69.5783 Q1994.52 73.2241 1989.29 73.2241 Q1986.17 73.2241 1983.91 72.1304 Q1981.64 71.0367 1980.18 68.7682 M1994.03 67.1073 Q1996.14 64.5147 1996.14 59.8967 Q1996.14 55.2786 1994.03 52.6861 Q1991.89 50.053 1988.16 50.053 Q1984.43 50.053 1982.29 52.6861 Q1980.18 55.2786 1980.18 59.8967 Q1980.18 64.5147 1982.29 67.1073 Q1984.43 69.7404 1988.16 69.7404 Q1991.89 69.7404 1994.03 67.1073 Z" fill="#000000" fill-rule="evenodd" fill-opacity="1" /><path clip-path="url(#clip830)" d="M2015.02 34.9026 L2066.95 34.9026 L2066.95 41.7081 L2015.02 41.7081 L2015.02 34.9026 M2015.02 51.4303 L2066.95 51.4303 L2066.95 58.3168 L2015.02 58.3168 L2015.02 51.4303 Z" fill="#000000" fill-rule="evenodd" fill-opacity="1" /><path clip-path="url(#clip830)" d="M2107.09 19.2256 L2086.43 51.5113 L2107.09 51.5113 L2107.09 19.2256 M2104.95 12.096 L2115.24 12.096 L2115.24 51.5113 L2123.86 51.5113 L2123.86 58.3168 L2115.24 58.3168 L2115.24 72.576 L2107.09 72.576 L2107.09 58.3168 L2079.79 58.3168 L2079.79 50.4176 L2104.95 12.096 Z" fill="#000000" fill-rule="evenodd" fill-opacity="1" /><path clip-path="url(#clip830)" d="M2137.39 62.2867 L2145.94 62.2867 L2145.94 72.576 L2137.39 72.576 L2137.39 62.2867 Z" fill="#000000" fill-rule="evenodd" fill-opacity="1" /><path clip-path="url(#clip830)" d="M2181.27 17.4837 Q2174.95 17.4837 2171.75 23.7221 Q2168.59 29.92 2168.59 42.3968 Q2168.59 54.833 2171.75 61.0714 Q2174.95 67.2693 2181.27 67.2693 Q2187.63 67.2693 2190.79 61.0714 Q2193.99 54.833 2193.99 42.3968 Q2193.99 29.92 2190.79 23.7221 Q2187.63 17.4837 2181.27 17.4837 M2181.27 11.0023 Q2191.43 11.0023 2196.78 19.0636 Q2202.17 27.0843 2202.17 42.3968 Q2202.17 57.6687 2196.78 65.73 Q2191.43 73.7508 2181.27 73.7508 Q2171.1 73.7508 2165.71 65.73 Q2160.36 57.6687 2160.36 42.3968 Q2160.36 27.0843 2165.71 19.0636 Q2171.1 11.0023 2181.27 11.0023 Z" fill="#000000" fill-rule="evenodd" fill-opacity="1" /><polyline clip-path="url(#clip832)" style="stroke:#009af9; stroke-linecap:butt; stroke-linejoin:round; stroke-width:4; stroke-opacity:1; fill:none" points="
  237.067,773.326 243.937,411.926 250.807,189.463 257.677,191.46 264.546,417.149 271.416,779.767 278.286,1139.91 285.156,1359.12 292.026,1353.13 298.895,1124.24 
  305.765,760.444 312.635,401.6 319.505,185.663 326.374,195.646 333.244,427.713 340.114,792.648 346.984,1150.15 353.854,1362.79 360.723,1348.82 367.593,1113.6 
  374.463,747.567 381.333,391.438 388.203,182.122 395.072,200.088 401.942,438.43 408.812,805.519 415.682,1160.23 422.551,1366.2 429.421,1344.25 436.291,1102.81 
  443.161,734.702 450.031,381.444 456.9,178.842 463.77,204.783 470.64,449.294 477.51,818.377 484.38,1170.14 491.249,1369.35 498.119,1339.43 504.989,1091.87 
  511.859,721.854 518.729,371.624 525.598,175.824 532.468,209.728 539.338,460.302 546.208,831.214 553.077,1179.87 559.947,1372.24 566.817,1334.36 573.687,1080.79 
  580.557,709.028 587.426,361.981 594.296,173.071 601.166,214.923 608.036,471.447 614.906,844.026 621.775,1189.42 628.645,1374.86 635.515,1329.04 642.385,1069.58 
  649.255,696.231 656.124,352.519 662.994,170.582 669.864,220.364 676.734,482.726 683.603,856.807 690.473,1198.79 697.343,1377.21 704.213,1323.48 711.083,1058.24 
  717.952,683.468 724.822,343.244 731.692,168.36 738.562,226.05 745.432,494.134 752.301,869.551 759.171,1207.97 766.041,1379.3 772.911,1317.67 779.78,1046.77 
  786.65,670.745 793.52,334.158 800.39,166.405 807.26,231.977 814.129,505.664 820.999,882.252 827.869,1216.96 834.739,1381.12 841.609,1311.62 848.478,1035.18 
  855.348,658.067 862.218,325.266 869.088,164.718 875.958,238.143 882.827,517.313 889.697,894.905 896.567,1225.76 903.437,1382.68 910.306,1305.34 917.176,1023.47 
  924.046,645.44 930.916,316.573 937.786,163.299 944.655,244.545 951.525,529.075 958.395,907.505 965.265,1234.35 972.135,1383.96 979.004,1298.82 985.874,1011.66 
  992.744,632.869 999.614,308.08 1006.48,162.15 1013.35,251.181 1020.22,540.945 1027.09,920.045 1033.96,1242.74 1040.83,1384.97 1047.7,1292.07 1054.57,999.734 
  1061.44,620.361 1068.31,299.794 1075.18,161.271 1082.05,258.047 1088.92,552.917 1095.79,932.521 1102.66,1250.92 1109.53,1385.72 1116.4,1285.09 1123.27,987.712 
  1130.14,607.919 1137.01,291.716 1143.88,160.662 1150.75,265.141 1157.62,564.987 1164.49,944.926 1171.36,1258.9 1178.23,1386.19 1185.1,1277.88 1191.97,975.596 
  1198.84,595.551 1205.71,283.851 1212.58,160.324 1219.45,272.46 1226.32,577.148 1233.19,957.255 1240.06,1266.65 1246.93,1386.4 1253.8,1270.45 1260.67,963.39 
  1267.54,583.262 1274.41,276.202 1281.28,160.256 1288.14,279.999 1295.01,589.397 1301.88,969.504 1308.75,1274.19 1315.62,1386.33 1322.49,1262.8 1329.36,951.101 
  1336.23,571.056 1343.1,268.773 1349.97,160.459 1356.84,287.757 1363.71,601.726 1370.58,981.665 1377.45,1281.51 1384.32,1385.99 1391.19,1254.94 1398.06,938.732 
  1404.93,558.94 1411.8,261.566 1418.67,160.933 1425.54,295.728 1432.41,614.131 1439.28,993.735 1446.15,1288.6 1453.02,1385.38 1459.89,1246.86 1466.76,926.291 
  1473.63,546.918 1480.5,254.585 1487.37,161.677 1494.24,303.911 1501.11,626.607 1507.98,1005.71 1514.85,1295.47 1521.72,1384.5 1528.59,1238.57 1535.46,913.783 
  1542.33,534.997 1549.2,247.834 1556.07,162.691 1562.94,312.301 1569.81,639.147 1576.68,1017.58 1583.55,1302.11 1590.42,1383.35 1597.29,1230.08 1604.16,901.212 
  1611.02,523.18 1617.89,241.314 1624.76,163.975 1631.63,320.895 1638.5,651.747 1645.37,1029.34 1652.24,1308.51 1659.11,1381.93 1665.98,1221.39 1672.85,888.585 
  1679.72,511.474 1686.59,235.03 1693.46,165.528 1700.33,329.688 1707.2,664.4 1714.07,1040.99 1720.94,1314.68 1727.81,1380.25 1734.68,1212.49 1741.55,875.907 
  1748.42,499.884 1755.29,228.983 1762.16,167.349 1769.03,338.677 1775.9,677.101 1782.77,1052.52 1789.64,1320.6 1796.51,1378.29 1803.38,1203.41 1810.25,863.184 
  1817.12,488.414 1823.99,223.176 1830.86,169.438 1837.73,347.858 1844.6,689.845 1851.47,1063.93 1858.34,1326.29 1865.21,1376.07 1872.08,1194.13 1878.95,850.421 
  1885.82,477.071 1892.69,217.613 1899.56,171.794 1906.43,357.227 1913.3,702.626 1920.17,1075.2 1927.04,1331.73 1933.9,1373.58 1940.77,1184.67 1947.64,837.624 
  1954.51,465.858 1961.38,212.295 1968.25,174.415 1975.12,366.78 1981.99,715.438 1988.86,1086.35 1995.73,1336.92 2002.6,1370.83 2009.47,1175.03 2016.34,824.798 
  2023.21,454.78 2030.08,207.224 2036.95,177.3 2043.82,376.512 2050.69,728.275 2057.56,1097.36 2064.43,1341.87 2071.3,1367.81 2078.17,1165.21 2085.04,811.95 
  2091.91,443.844 2098.78,202.404 2105.65,180.449 2112.52,386.42 2119.39,741.133 2126.26,1108.22 2133.13,1346.56 2140,1364.53 2146.87,1155.21 2153.74,799.085 
  2160.61,433.053 2167.48,197.835 2174.35,183.86 2181.22,396.498 2188.09,754.004 2194.96,1118.94 2201.83,1351.01 2208.7,1360.99 2215.57,1145.05 2222.44,786.208 
  2229.31,422.412 2236.18,193.521 2243.05,187.53 2249.92,406.743 2256.78,766.884 2263.65,1129.5 2270.52,1355.19 2277.39,1357.19 2284.26,1134.73 2291.13,773.326 
  
  "/>
</svg>
