<?xml version="1.0" encoding="utf-8"?>
<svg xmlns="http://www.w3.org/2000/svg" xmlns:xlink="http://www.w3.org/1999/xlink" width="600" height="400" viewBox="0 0 2400 1600">
<defs>
  <clipPath id="clip670">
    <rect x="0" y="0" width="2400" height="1600"/>
  </clipPath>
</defs>
<path clip-path="url(#clip670)" d="
M0 1600 L2400 1600 L2400 0 L0 0  Z
  " fill="#ffffff" fill-rule="evenodd" fill-opacity="1"/>
<defs>
  <clipPath id="clip671">
    <rect x="480" y="0" width="1681" height="1600"/>
  </clipPath>
</defs>
<path clip-path="url(#clip670)" d="
M211.325 1423.18 L2352.76 1423.18 L2352.76 123.472 L211.325 123.472  Z
  " fill="#ffffff" fill-rule="evenodd" fill-opacity="1"/>
<defs>
  <clipPath id="clip672">
    <rect x="211" y="123" width="2142" height="1301"/>
  </clipPath>
</defs>
<polyline clip-path="url(#clip672)" style="stroke:#000000; stroke-linecap:butt; stroke-linejoin:round; stroke-width:2; stroke-opacity:0.1; fill:none" points="
  271.917,1423.18 271.917,123.472 
  "/>
<polyline clip-path="url(#clip672)" style="stroke:#000000; stroke-linecap:butt; stroke-linejoin:round; stroke-width:2; stroke-opacity:0.1; fill:none" points="
  776.979,1423.18 776.979,123.472 
  "/>
<polyline clip-path="url(#clip672)" style="stroke:#000000; stroke-linecap:butt; stroke-linejoin:round; stroke-width:2; stroke-opacity:0.1; fill:none" points="
  1282.04,1423.18 1282.04,123.472 
  "/>
<polyline clip-path="url(#clip672)" style="stroke:#000000; stroke-linecap:butt; stroke-linejoin:round; stroke-width:2; stroke-opacity:0.1; fill:none" points="
  1787.1,1423.18 1787.1,123.472 
  "/>
<polyline clip-path="url(#clip672)" style="stroke:#000000; stroke-linecap:butt; stroke-linejoin:round; stroke-width:2; stroke-opacity:0.1; fill:none" points="
  2292.16,1423.18 2292.16,123.472 
  "/>
<polyline clip-path="url(#clip670)" style="stroke:#000000; stroke-linecap:butt; stroke-linejoin:round; stroke-width:4; stroke-opacity:1; fill:none" points="
  211.325,1423.18 2352.76,1423.18 
  "/>
<polyline clip-path="url(#clip670)" style="stroke:#000000; stroke-linecap:butt; stroke-linejoin:round; stroke-width:4; stroke-opacity:1; fill:none" points="
  271.917,1423.18 271.917,1404.28 
  "/>
<polyline clip-path="url(#clip670)" style="stroke:#000000; stroke-linecap:butt; stroke-linejoin:round; stroke-width:4; stroke-opacity:1; fill:none" points="
  776.979,1423.18 776.979,1404.28 
  "/>
<polyline clip-path="url(#clip670)" style="stroke:#000000; stroke-linecap:butt; stroke-linejoin:round; stroke-width:4; stroke-opacity:1; fill:none" points="
  1282.04,1423.18 1282.04,1404.28 
  "/>
<polyline clip-path="url(#clip670)" style="stroke:#000000; stroke-linecap:butt; stroke-linejoin:round; stroke-width:4; stroke-opacity:1; fill:none" points="
  1787.1,1423.18 1787.1,1404.28 
  "/>
<polyline clip-path="url(#clip670)" style="stroke:#000000; stroke-linecap:butt; stroke-linejoin:round; stroke-width:4; stroke-opacity:1; fill:none" points="
  2292.16,1423.18 2292.16,1404.28 
  "/>
<path clip-path="url(#clip670)" d="M271.917 1454.1 Q268.306 1454.1 266.477 1457.66 Q264.672 1461.2 264.672 1468.33 Q264.672 1475.44 266.477 1479.01 Q268.306 1482.55 271.917 1482.55 Q275.551 1482.55 277.357 1479.01 Q279.186 1475.44 279.186 1468.33 Q279.186 1461.2 277.357 1457.66 Q275.551 1454.1 271.917 1454.1 M271.917 1450.39 Q277.727 1450.39 280.783 1455 Q283.862 1459.58 283.862 1468.33 Q283.862 1477.06 280.783 1481.67 Q277.727 1486.25 271.917 1486.25 Q266.107 1486.25 263.028 1481.67 Q259.973 1477.06 259.973 1468.33 Q259.973 1459.58 263.028 1455 Q266.107 1450.39 271.917 1450.39 Z" fill="#000000" fill-rule="evenodd" fill-opacity="1" /><path clip-path="url(#clip670)" d="M771.632 1481.64 L787.951 1481.64 L787.951 1485.58 L766.007 1485.58 L766.007 1481.64 Q768.669 1478.89 773.252 1474.26 Q777.858 1469.61 779.039 1468.27 Q781.284 1465.74 782.164 1464.01 Q783.067 1462.25 783.067 1460.56 Q783.067 1457.8 781.122 1456.07 Q779.201 1454.33 776.099 1454.33 Q773.9 1454.33 771.446 1455.09 Q769.016 1455.86 766.238 1457.41 L766.238 1452.69 Q769.062 1451.55 771.516 1450.97 Q773.97 1450.39 776.007 1450.39 Q781.377 1450.39 784.571 1453.08 Q787.766 1455.77 787.766 1460.26 Q787.766 1462.39 786.956 1464.31 Q786.169 1466.2 784.062 1468.8 Q783.483 1469.47 780.382 1472.69 Q777.28 1475.88 771.632 1481.64 Z" fill="#000000" fill-rule="evenodd" fill-opacity="1" /><path clip-path="url(#clip670)" d="M1285.05 1455.09 L1273.24 1473.54 L1285.05 1473.54 L1285.05 1455.09 M1283.82 1451.02 L1289.7 1451.02 L1289.7 1473.54 L1294.63 1473.54 L1294.63 1477.43 L1289.7 1477.43 L1289.7 1485.58 L1285.05 1485.58 L1285.05 1477.43 L1269.45 1477.43 L1269.45 1472.92 L1283.82 1451.02 Z" fill="#000000" fill-rule="evenodd" fill-opacity="1" /><path clip-path="url(#clip670)" d="M1787.51 1466.44 Q1784.36 1466.44 1782.51 1468.59 Q1780.68 1470.74 1780.68 1474.49 Q1780.68 1478.22 1782.51 1480.39 Q1784.36 1482.55 1787.51 1482.55 Q1790.66 1482.55 1792.48 1480.39 Q1794.34 1478.22 1794.34 1474.49 Q1794.34 1470.74 1792.48 1468.59 Q1790.66 1466.44 1787.51 1466.44 M1796.79 1451.78 L1796.79 1456.04 Q1795.03 1455.21 1793.22 1454.77 Q1791.44 1454.33 1789.68 1454.33 Q1785.05 1454.33 1782.6 1457.45 Q1780.17 1460.58 1779.82 1466.9 Q1781.19 1464.89 1783.25 1463.82 Q1785.31 1462.73 1787.78 1462.73 Q1792.99 1462.73 1796 1465.9 Q1799.03 1469.05 1799.03 1474.49 Q1799.03 1479.82 1795.89 1483.03 Q1792.74 1486.25 1787.51 1486.25 Q1781.51 1486.25 1778.34 1481.67 Q1775.17 1477.06 1775.17 1468.33 Q1775.17 1460.14 1779.06 1455.28 Q1782.95 1450.39 1789.5 1450.39 Q1791.26 1450.39 1793.04 1450.74 Q1794.84 1451.09 1796.79 1451.78 Z" fill="#000000" fill-rule="evenodd" fill-opacity="1" /><path clip-path="url(#clip670)" d="M2292.16 1469.17 Q2288.83 1469.17 2286.91 1470.95 Q2285.01 1472.73 2285.01 1475.86 Q2285.01 1478.98 2286.91 1480.77 Q2288.83 1482.55 2292.16 1482.55 Q2295.5 1482.55 2297.42 1480.77 Q2299.34 1478.96 2299.34 1475.86 Q2299.34 1472.73 2297.42 1470.95 Q2295.52 1469.17 2292.16 1469.17 M2287.49 1467.18 Q2284.48 1466.44 2282.79 1464.38 Q2281.12 1462.32 2281.12 1459.35 Q2281.12 1455.21 2284.06 1452.8 Q2287.02 1450.39 2292.16 1450.39 Q2297.33 1450.39 2300.27 1452.8 Q2303.2 1455.21 2303.2 1459.35 Q2303.2 1462.32 2301.52 1464.38 Q2299.85 1466.44 2296.86 1467.18 Q2300.24 1467.96 2302.12 1470.26 Q2304.02 1472.55 2304.02 1475.86 Q2304.02 1480.88 2300.94 1483.57 Q2297.88 1486.25 2292.16 1486.25 Q2286.45 1486.25 2283.37 1483.57 Q2280.31 1480.88 2280.31 1475.86 Q2280.31 1472.55 2282.21 1470.26 Q2284.11 1467.96 2287.49 1467.18 M2285.77 1459.79 Q2285.77 1462.48 2287.44 1463.98 Q2289.13 1465.49 2292.16 1465.49 Q2295.17 1465.49 2296.86 1463.98 Q2298.58 1462.48 2298.58 1459.79 Q2298.58 1457.11 2296.86 1455.6 Q2295.17 1454.1 2292.16 1454.1 Q2289.13 1454.1 2287.44 1455.6 Q2285.77 1457.11 2285.77 1459.79 Z" fill="#000000" fill-rule="evenodd" fill-opacity="1" /><path clip-path="url(#clip670)" d="M1162.79 1550.12 Q1155.7 1550.12 1152.96 1551.75 Q1150.22 1553.37 1150.22 1557.29 Q1150.22 1560.4 1152.26 1562.25 Q1154.33 1564.07 1157.86 1564.07 Q1162.73 1564.07 1165.66 1560.63 Q1168.62 1557.16 1168.62 1551.43 L1168.62 1550.12 L1162.79 1550.12 M1174.48 1547.71 L1174.48 1568.04 L1168.62 1568.04 L1168.62 1562.63 Q1166.61 1565.88 1163.62 1567.44 Q1160.63 1568.97 1156.3 1568.97 Q1150.83 1568.97 1147.58 1565.91 Q1144.37 1562.82 1144.37 1557.67 Q1144.37 1551.65 1148.38 1548.6 Q1152.42 1545.54 1160.41 1545.54 L1168.62 1545.54 L1168.62 1544.97 Q1168.62 1540.93 1165.95 1538.73 Q1163.3 1536.5 1158.5 1536.5 Q1155.44 1536.5 1152.55 1537.23 Q1149.65 1537.97 1146.98 1539.43 L1146.98 1534.02 Q1150.19 1532.78 1153.21 1532.17 Q1156.24 1531.54 1159.1 1531.54 Q1166.84 1531.54 1170.66 1535.55 Q1174.48 1539.56 1174.48 1547.71 Z" fill="#000000" fill-rule="evenodd" fill-opacity="1" /><path clip-path="url(#clip670)" d="M1186.54 1518.52 L1192.4 1518.52 L1192.4 1568.04 L1186.54 1568.04 L1186.54 1518.52 Z" fill="#000000" fill-rule="evenodd" fill-opacity="1" /><path clip-path="url(#clip670)" d="M1210.31 1562.7 L1210.31 1581.6 L1204.43 1581.6 L1204.43 1532.4 L1210.31 1532.4 L1210.31 1537.81 Q1212.16 1534.62 1214.96 1533.1 Q1217.79 1531.54 1221.71 1531.54 Q1228.2 1531.54 1232.24 1536.69 Q1236.32 1541.85 1236.32 1550.25 Q1236.32 1558.65 1232.24 1563.81 Q1228.2 1568.97 1221.71 1568.97 Q1217.79 1568.97 1214.96 1567.44 Q1212.16 1565.88 1210.31 1562.7 M1230.24 1550.25 Q1230.24 1543.79 1227.57 1540.13 Q1224.92 1536.44 1220.28 1536.44 Q1215.63 1536.44 1212.96 1540.13 Q1210.31 1543.79 1210.31 1550.25 Q1210.31 1556.71 1212.96 1560.4 Q1215.63 1564.07 1220.28 1564.07 Q1224.92 1564.07 1227.57 1560.4 Q1230.24 1556.71 1230.24 1550.25 Z" fill="#000000" fill-rule="evenodd" fill-opacity="1" /><path clip-path="url(#clip670)" d="M1275.66 1546.53 L1275.66 1568.04 L1269.8 1568.04 L1269.8 1546.72 Q1269.8 1541.66 1267.83 1539.14 Q1265.86 1536.63 1261.91 1536.63 Q1257.17 1536.63 1254.43 1539.65 Q1251.69 1542.68 1251.69 1547.9 L1251.69 1568.04 L1245.8 1568.04 L1245.8 1518.52 L1251.69 1518.52 L1251.69 1537.93 Q1253.79 1534.72 1256.63 1533.13 Q1259.49 1531.54 1263.21 1531.54 Q1269.36 1531.54 1272.51 1535.36 Q1275.66 1539.14 1275.66 1546.53 Z" fill="#000000" fill-rule="evenodd" fill-opacity="1" /><path clip-path="url(#clip670)" d="M1303.54 1550.12 Q1296.44 1550.12 1293.71 1551.75 Q1290.97 1553.37 1290.97 1557.29 Q1290.97 1560.4 1293.01 1562.25 Q1295.07 1564.07 1298.61 1564.07 Q1303.48 1564.07 1306.41 1560.63 Q1309.37 1557.16 1309.37 1551.43 L1309.37 1550.12 L1303.54 1550.12 M1315.22 1547.71 L1315.22 1568.04 L1309.37 1568.04 L1309.37 1562.63 Q1307.36 1565.88 1304.37 1567.44 Q1301.38 1568.97 1297.05 1568.97 Q1291.57 1568.97 1288.33 1565.91 Q1285.11 1562.82 1285.11 1557.67 Q1285.11 1551.65 1289.12 1548.6 Q1293.16 1545.54 1301.15 1545.54 L1309.37 1545.54 L1309.37 1544.97 Q1309.37 1540.93 1306.69 1538.73 Q1304.05 1536.5 1299.24 1536.5 Q1296.19 1536.5 1293.29 1537.23 Q1290.4 1537.97 1287.72 1539.43 L1287.72 1534.02 Q1290.94 1532.78 1293.96 1532.17 Q1296.98 1531.54 1299.85 1531.54 Q1307.58 1531.54 1311.4 1535.55 Q1315.22 1539.56 1315.22 1547.71 Z" fill="#000000" fill-rule="evenodd" fill-opacity="1" /><path clip-path="url(#clip670)" d="M1347.46 1518.52 L1360.96 1518.52 L1360.96 1523.07 L1353.32 1523.07 L1353.32 1572.09 L1360.96 1572.09 L1360.96 1576.64 L1347.46 1576.64 L1347.46 1518.52 Z" fill="#000000" fill-rule="evenodd" fill-opacity="1" /><path clip-path="url(#clip670)" d="M1383.59 1523.77 Q1381.04 1523.77 1379.29 1525.55 Q1377.54 1527.3 1377.54 1529.85 Q1377.54 1532.36 1379.29 1534.11 Q1381.04 1535.83 1383.59 1535.83 Q1386.14 1535.83 1387.89 1534.11 Q1389.64 1532.36 1389.64 1529.85 Q1389.64 1527.34 1387.85 1525.55 Q1386.1 1523.77 1383.59 1523.77 M1383.59 1519.66 Q1385.63 1519.66 1387.5 1520.46 Q1389.38 1521.22 1390.75 1522.69 Q1392.21 1524.12 1392.95 1525.93 Q1393.68 1527.75 1393.68 1529.85 Q1393.68 1534.05 1390.72 1536.98 Q1387.79 1539.88 1383.53 1539.88 Q1379.23 1539.88 1376.36 1537.01 Q1373.5 1534.15 1373.5 1529.85 Q1373.5 1525.58 1376.43 1522.62 Q1379.36 1519.66 1383.59 1519.66 Z" fill="#000000" fill-rule="evenodd" fill-opacity="1" /><path clip-path="url(#clip670)" d="M1419.71 1518.52 L1419.71 1576.64 L1406.22 1576.64 L1406.22 1572.09 L1413.83 1572.09 L1413.83 1523.07 L1406.22 1523.07 L1406.22 1518.52 L1419.71 1518.52 Z" fill="#000000" fill-rule="evenodd" fill-opacity="1" /><polyline clip-path="url(#clip672)" style="stroke:#000000; stroke-linecap:butt; stroke-linejoin:round; stroke-width:2; stroke-opacity:0.1; fill:none" points="
  211.325,1423.18 2352.76,1423.18 
  "/>
<polyline clip-path="url(#clip672)" style="stroke:#000000; stroke-linecap:butt; stroke-linejoin:round; stroke-width:2; stroke-opacity:0.1; fill:none" points="
  211.325,1098.25 2352.76,1098.25 
  "/>
<polyline clip-path="url(#clip672)" style="stroke:#000000; stroke-linecap:butt; stroke-linejoin:round; stroke-width:2; stroke-opacity:0.1; fill:none" points="
  211.325,773.326 2352.76,773.326 
  "/>
<polyline clip-path="url(#clip672)" style="stroke:#000000; stroke-linecap:butt; stroke-linejoin:round; stroke-width:2; stroke-opacity:0.1; fill:none" points="
  211.325,448.399 2352.76,448.399 
  "/>
<polyline clip-path="url(#clip672)" style="stroke:#000000; stroke-linecap:butt; stroke-linejoin:round; stroke-width:2; stroke-opacity:0.1; fill:none" points="
  211.325,123.472 2352.76,123.472 
  "/>
<polyline clip-path="url(#clip670)" style="stroke:#000000; stroke-linecap:butt; stroke-linejoin:round; stroke-width:4; stroke-opacity:1; fill:none" points="
  211.325,1423.18 211.325,123.472 
  "/>
<polyline clip-path="url(#clip670)" style="stroke:#000000; stroke-linecap:butt; stroke-linejoin:round; stroke-width:4; stroke-opacity:1; fill:none" points="
  211.325,1423.18 230.222,1423.18 
  "/>
<polyline clip-path="url(#clip670)" style="stroke:#000000; stroke-linecap:butt; stroke-linejoin:round; stroke-width:4; stroke-opacity:1; fill:none" points="
  211.325,1098.25 230.222,1098.25 
  "/>
<polyline clip-path="url(#clip670)" style="stroke:#000000; stroke-linecap:butt; stroke-linejoin:round; stroke-width:4; stroke-opacity:1; fill:none" points="
  211.325,773.326 230.222,773.326 
  "/>
<polyline clip-path="url(#clip670)" style="stroke:#000000; stroke-linecap:butt; stroke-linejoin:round; stroke-width:4; stroke-opacity:1; fill:none" points="
  211.325,448.399 230.222,448.399 
  "/>
<polyline clip-path="url(#clip670)" style="stroke:#000000; stroke-linecap:butt; stroke-linejoin:round; stroke-width:4; stroke-opacity:1; fill:none" points="
  211.325,123.472 230.222,123.472 
  "/>
<path clip-path="url(#clip670)" d="M114.26 1423.63 L143.936 1423.63 L143.936 1427.57 L114.26 1427.57 L114.26 1423.63 Z" fill="#000000" fill-rule="evenodd" fill-opacity="1" /><path clip-path="url(#clip670)" d="M168.195 1421.83 Q171.552 1422.54 173.427 1424.81 Q175.325 1427.08 175.325 1430.41 Q175.325 1435.53 171.806 1438.33 Q168.288 1441.13 161.806 1441.13 Q159.63 1441.13 157.315 1440.69 Q155.024 1440.27 152.57 1439.42 L152.57 1434.9 Q154.515 1436.04 156.829 1436.62 Q159.144 1437.2 161.667 1437.2 Q166.065 1437.2 168.357 1435.46 Q170.672 1433.72 170.672 1430.41 Q170.672 1427.36 168.519 1425.65 Q166.39 1423.91 162.57 1423.91 L158.542 1423.91 L158.542 1420.07 L162.755 1420.07 Q166.204 1420.07 168.033 1418.7 Q169.862 1417.31 169.862 1414.72 Q169.862 1412.06 167.964 1410.65 Q166.089 1409.21 162.57 1409.21 Q160.649 1409.21 158.45 1409.63 Q156.251 1410.04 153.612 1410.92 L153.612 1406.76 Q156.274 1406.02 158.589 1405.65 Q160.927 1405.27 162.987 1405.27 Q168.311 1405.27 171.413 1407.71 Q174.514 1410.11 174.514 1414.23 Q174.514 1417.1 172.871 1419.09 Q171.227 1421.06 168.195 1421.83 Z" fill="#000000" fill-rule="evenodd" fill-opacity="1" /><path clip-path="url(#clip670)" d="M115.209 1098.7 L144.885 1098.7 L144.885 1102.64 L115.209 1102.64 L115.209 1098.7 Z" fill="#000000" fill-rule="evenodd" fill-opacity="1" /><path clip-path="url(#clip670)" d="M159.005 1111.6 L175.325 1111.6 L175.325 1115.53 L153.38 1115.53 L153.38 1111.6 Q156.042 1108.84 160.626 1104.21 Q165.232 1099.56 166.413 1098.22 Q168.658 1095.7 169.538 1093.96 Q170.44 1092.2 170.44 1090.51 Q170.44 1087.76 168.496 1086.02 Q166.575 1084.28 163.473 1084.28 Q161.274 1084.28 158.82 1085.05 Q156.39 1085.81 153.612 1087.36 L153.612 1082.64 Q156.436 1081.51 158.89 1080.93 Q161.343 1080.35 163.38 1080.35 Q168.751 1080.35 171.945 1083.03 Q175.139 1085.72 175.139 1090.21 Q175.139 1092.34 174.329 1094.26 Q173.542 1096.16 171.436 1098.75 Q170.857 1099.42 167.755 1102.64 Q164.653 1105.83 159.005 1111.6 Z" fill="#000000" fill-rule="evenodd" fill-opacity="1" /><path clip-path="url(#clip670)" d="M114.839 773.777 L144.515 773.777 L144.515 777.713 L114.839 777.713 L114.839 773.777 Z" fill="#000000" fill-rule="evenodd" fill-opacity="1" /><path clip-path="url(#clip670)" d="M155.417 786.671 L163.056 786.671 L163.056 760.305 L154.746 761.972 L154.746 757.713 L163.01 756.046 L167.686 756.046 L167.686 786.671 L175.325 786.671 L175.325 790.606 L155.417 790.606 L155.417 786.671 Z" fill="#000000" fill-rule="evenodd" fill-opacity="1" /><path clip-path="url(#clip670)" d="M163.38 434.198 Q159.769 434.198 157.94 437.763 Q156.135 441.304 156.135 448.434 Q156.135 455.54 157.94 459.105 Q159.769 462.647 163.38 462.647 Q167.015 462.647 168.82 459.105 Q170.649 455.54 170.649 448.434 Q170.649 441.304 168.82 437.763 Q167.015 434.198 163.38 434.198 M163.38 430.494 Q169.19 430.494 172.246 435.101 Q175.325 439.684 175.325 448.434 Q175.325 457.161 172.246 461.767 Q169.19 466.35 163.38 466.35 Q157.57 466.35 154.491 461.767 Q151.436 457.161 151.436 448.434 Q151.436 439.684 154.491 435.101 Q157.57 430.494 163.38 430.494 Z" fill="#000000" fill-rule="evenodd" fill-opacity="1" /><path clip-path="url(#clip670)" d="M155.417 136.817 L163.056 136.817 L163.056 110.451 L154.746 112.118 L154.746 107.859 L163.01 106.192 L167.686 106.192 L167.686 136.817 L175.325 136.817 L175.325 140.752 L155.417 140.752 L155.417 136.817 Z" fill="#000000" fill-rule="evenodd" fill-opacity="1" /><path clip-path="url(#clip670)" d="M20.1444 761.931 L26.9239 761.931 Q23.9002 765.178 22.4043 768.87 Q20.9083 772.53 20.9083 776.668 Q20.9083 784.816 25.9054 789.145 Q30.8707 793.473 40.2919 793.473 Q49.6813 793.473 54.6784 789.145 Q59.6436 784.816 59.6436 776.668 Q59.6436 772.53 58.1477 768.87 Q56.6518 765.178 53.6281 761.931 L60.3439 761.931 Q62.6355 765.305 63.7814 769.093 Q64.9272 772.849 64.9272 777.05 Q64.9272 787.84 58.3387 794.046 Q51.7183 800.253 40.2919 800.253 Q28.8336 800.253 22.2451 794.046 Q15.6248 787.84 15.6248 777.05 Q15.6248 772.785 16.7706 769.029 Q17.8846 765.242 20.1444 761.931 Z" fill="#000000" fill-rule="evenodd" fill-opacity="1" /><path clip-path="url(#clip670)" d="M14.479 752.255 L14.479 746.399 L64.0042 746.399 L64.0042 752.255 L14.479 752.255 Z" fill="#000000" fill-rule="evenodd" fill-opacity="1" /><path clip-path="url(#clip670)" d="M319.87 44.2197 Q322.503 45.1109 324.974 48.0275 Q327.485 50.9442 329.997 56.0483 L338.301 72.576 L329.511 72.576 L321.773 57.061 Q318.776 50.9847 315.94 48.9997 Q313.145 47.0148 308.284 47.0148 L299.372 47.0148 L299.372 72.576 L291.189 72.576 L291.189 12.096 L309.661 12.096 Q320.032 12.096 325.136 16.4305 Q330.24 20.7649 330.24 29.5149 Q330.24 35.2267 327.566 38.994 Q324.933 42.7613 319.87 44.2197 M299.372 18.8205 L299.372 40.2903 L309.661 40.2903 Q315.576 40.2903 318.573 37.5762 Q321.611 34.8216 321.611 29.5149 Q321.611 24.2082 318.573 21.5346 Q315.576 18.8205 309.661 18.8205 L299.372 18.8205 Z" fill="#000000" fill-rule="evenodd" fill-opacity="1" /><path clip-path="url(#clip670)" d="M383.59 48.0275 L383.59 51.6733 L349.32 51.6733 Q349.806 59.3701 353.938 63.421 Q358.11 67.4314 365.523 67.4314 Q369.817 67.4314 373.828 66.3781 Q377.878 65.3249 381.848 63.2184 L381.848 70.267 Q377.838 71.9684 373.625 72.8596 Q369.412 73.7508 365.078 73.7508 Q354.221 73.7508 347.861 67.4314 Q341.542 61.1119 341.542 50.3365 Q341.542 39.1965 347.537 32.6746 Q353.573 26.1121 363.781 26.1121 Q372.936 26.1121 378.243 32.0264 Q383.59 37.9003 383.59 48.0275 M376.137 45.84 Q376.056 39.7232 372.693 36.0774 Q369.372 32.4315 363.862 32.4315 Q357.624 32.4315 353.857 35.9558 Q350.13 39.4801 349.563 45.8805 L376.137 45.84 Z" fill="#000000" fill-rule="evenodd" fill-opacity="1" /><path clip-path="url(#clip670)" d="M396.796 34.9026 L448.729 34.9026 L448.729 41.7081 L396.796 41.7081 L396.796 34.9026 M396.796 51.4303 L448.729 51.4303 L448.729 58.3168 L396.796 58.3168 L396.796 51.4303 Z" fill="#000000" fill-rule="evenodd" fill-opacity="1" /><path clip-path="url(#clip670)" d="M467.809 65.6895 L481.177 65.6895 L481.177 19.5497 L466.634 22.4663 L466.634 15.0127 L481.095 12.096 L489.278 12.096 L489.278 65.6895 L502.646 65.6895 L502.646 72.576 L467.809 72.576 L467.809 65.6895 Z" fill="#000000" fill-rule="evenodd" fill-opacity="1" /><path clip-path="url(#clip670)" d="M536.674 17.4837 Q530.354 17.4837 527.154 23.7221 Q523.995 29.92 523.995 42.3968 Q523.995 54.833 527.154 61.0714 Q530.354 67.2693 536.674 67.2693 Q543.034 67.2693 546.194 61.0714 Q549.394 54.833 549.394 42.3968 Q549.394 29.92 546.194 23.7221 Q543.034 17.4837 536.674 17.4837 M536.674 11.0023 Q546.842 11.0023 552.189 19.0636 Q557.577 27.0843 557.577 42.3968 Q557.577 57.6687 552.189 65.73 Q546.842 73.7508 536.674 73.7508 Q526.506 73.7508 521.118 65.73 Q515.771 57.6687 515.771 42.3968 Q515.771 27.0843 521.118 19.0636 Q526.506 11.0023 536.674 11.0023 Z" fill="#000000" fill-rule="evenodd" fill-opacity="1" /><path clip-path="url(#clip670)" d="M589.457 17.4837 Q583.138 17.4837 579.938 23.7221 Q576.778 29.92 576.778 42.3968 Q576.778 54.833 579.938 61.0714 Q583.138 67.2693 589.457 67.2693 Q595.817 67.2693 598.977 61.0714 Q602.177 54.833 602.177 42.3968 Q602.177 29.92 598.977 23.7221 Q595.817 17.4837 589.457 17.4837 M589.457 11.0023 Q599.625 11.0023 604.972 19.0636 Q610.36 27.0843 610.36 42.3968 Q610.36 57.6687 604.972 65.73 Q599.625 73.7508 589.457 73.7508 Q579.289 73.7508 573.902 65.73 Q568.555 57.6687 568.555 42.3968 Q568.555 27.0843 573.902 19.0636 Q579.289 11.0023 589.457 11.0023 Z" fill="#000000" fill-rule="evenodd" fill-opacity="1" /><path clip-path="url(#clip670)" d="M642.24 17.4837 Q635.921 17.4837 632.721 23.7221 Q629.561 29.92 629.561 42.3968 Q629.561 54.833 632.721 61.0714 Q635.921 67.2693 642.24 67.2693 Q648.6 67.2693 651.76 61.0714 Q654.96 54.833 654.96 42.3968 Q654.96 29.92 651.76 23.7221 Q648.6 17.4837 642.24 17.4837 M642.24 11.0023 Q652.408 11.0023 657.755 19.0636 Q663.143 27.0843 663.143 42.3968 Q663.143 57.6687 657.755 65.73 Q652.408 73.7508 642.24 73.7508 Q632.073 73.7508 626.685 65.73 Q621.338 57.6687 621.338 42.3968 Q621.338 27.0843 626.685 19.0636 Q632.073 11.0023 642.24 11.0023 Z" fill="#000000" fill-rule="evenodd" fill-opacity="1" /><path clip-path="url(#clip670)" d="M695.024 17.4837 Q688.704 17.4837 685.504 23.7221 Q682.344 29.92 682.344 42.3968 Q682.344 54.833 685.504 61.0714 Q688.704 67.2693 695.024 67.2693 Q701.384 67.2693 704.543 61.0714 Q707.744 54.833 707.744 42.3968 Q707.744 29.92 704.543 23.7221 Q701.384 17.4837 695.024 17.4837 M695.024 11.0023 Q705.192 11.0023 710.539 19.0636 Q715.926 27.0843 715.926 42.3968 Q715.926 57.6687 710.539 65.73 Q705.192 73.7508 695.024 73.7508 Q684.856 73.7508 679.468 65.73 Q674.121 57.6687 674.121 42.3968 Q674.121 27.0843 679.468 19.0636 Q684.856 11.0023 695.024 11.0023 Z" fill="#000000" fill-rule="evenodd" fill-opacity="1" /><path clip-path="url(#clip670)" d="M747.807 17.4837 Q741.488 17.4837 738.287 23.7221 Q735.128 29.92 735.128 42.3968 Q735.128 54.833 738.287 61.0714 Q741.488 67.2693 747.807 67.2693 Q754.167 67.2693 757.327 61.0714 Q760.527 54.833 760.527 42.3968 Q760.527 29.92 757.327 23.7221 Q754.167 17.4837 747.807 17.4837 M747.807 11.0023 Q757.975 11.0023 763.322 19.0636 Q768.71 27.0843 768.71 42.3968 Q768.71 57.6687 763.322 65.73 Q757.975 73.7508 747.807 73.7508 Q737.639 73.7508 732.252 65.73 Q726.904 57.6687 726.904 42.3968 Q726.904 27.0843 732.252 19.0636 Q737.639 11.0023 747.807 11.0023 Z" fill="#000000" fill-rule="evenodd" fill-opacity="1" /><path clip-path="url(#clip670)" d="M783.09 62.2867 L791.638 62.2867 L791.638 72.576 L783.09 72.576 L783.09 62.2867 Z" fill="#000000" fill-rule="evenodd" fill-opacity="1" /><path clip-path="url(#clip670)" d="M826.962 17.4837 Q820.642 17.4837 817.442 23.7221 Q814.282 29.92 814.282 42.3968 Q814.282 54.833 817.442 61.0714 Q820.642 67.2693 826.962 67.2693 Q833.322 67.2693 836.481 61.0714 Q839.682 54.833 839.682 42.3968 Q839.682 29.92 836.481 23.7221 Q833.322 17.4837 826.962 17.4837 M826.962 11.0023 Q837.129 11.0023 842.477 19.0636 Q847.864 27.0843 847.864 42.3968 Q847.864 57.6687 842.477 65.73 Q837.129 73.7508 826.962 73.7508 Q816.794 73.7508 811.406 65.73 Q806.059 57.6687 806.059 42.3968 Q806.059 27.0843 811.406 19.0636 Q816.794 11.0023 826.962 11.0023 Z" fill="#000000" fill-rule="evenodd" fill-opacity="1" /><path clip-path="url(#clip670)" d="M908.182 49.7694 Q899.149 49.7694 895.665 51.8354 Q892.181 53.9013 892.181 58.8839 Q892.181 62.8538 894.774 65.2034 Q897.407 67.5124 901.903 67.5124 Q908.101 67.5124 911.828 63.1374 Q915.595 58.7219 915.595 51.4303 L915.595 49.7694 L908.182 49.7694 M923.049 46.6907 L923.049 72.576 L915.595 72.576 L915.595 65.6895 Q913.043 69.8214 909.236 71.8063 Q905.428 73.7508 899.918 73.7508 Q892.951 73.7508 888.819 69.8619 Q884.728 65.9325 884.728 59.3701 Q884.728 51.7138 889.832 47.825 Q894.976 43.9361 905.144 43.9361 L915.595 43.9361 L915.595 43.2069 Q915.595 38.0623 912.193 35.2672 Q908.83 32.4315 902.714 32.4315 Q898.825 32.4315 895.138 33.3632 Q891.452 34.295 888.049 36.1584 L888.049 29.2718 Q892.141 27.692 895.989 26.9223 Q899.837 26.1121 903.483 26.1121 Q913.327 26.1121 918.188 31.2163 Q923.049 36.3204 923.049 46.6907 Z" fill="#000000" fill-rule="evenodd" fill-opacity="1" /><path clip-path="url(#clip670)" d="M939.374 34.9026 L991.307 34.9026 L991.307 41.7081 L939.374 41.7081 L939.374 34.9026 M939.374 51.4303 L991.307 51.4303 L991.307 58.3168 L939.374 58.3168 L939.374 51.4303 Z" fill="#000000" fill-rule="evenodd" fill-opacity="1" /><path clip-path="url(#clip670)" d="M1026.47 17.4837 Q1020.15 17.4837 1016.95 23.7221 Q1013.79 29.92 1013.79 42.3968 Q1013.79 54.833 1016.95 61.0714 Q1020.15 67.2693 1026.47 67.2693 Q1032.83 67.2693 1035.99 61.0714 Q1039.19 54.833 1039.19 42.3968 Q1039.19 29.92 1035.99 23.7221 Q1032.83 17.4837 1026.47 17.4837 M1026.47 11.0023 Q1036.64 11.0023 1041.98 19.0636 Q1047.37 27.0843 1047.37 42.3968 Q1047.37 57.6687 1041.98 65.73 Q1036.64 73.7508 1026.47 73.7508 Q1016.3 73.7508 1010.91 65.73 Q1005.57 57.6687 1005.57 42.3968 Q1005.57 27.0843 1010.91 19.0636 Q1016.3 11.0023 1026.47 11.0023 Z" fill="#000000" fill-rule="evenodd" fill-opacity="1" /><path clip-path="url(#clip670)" d="M1061.75 62.2867 L1070.3 62.2867 L1070.3 72.576 L1061.75 72.576 L1061.75 62.2867 Z" fill="#000000" fill-rule="evenodd" fill-opacity="1" /><path clip-path="url(#clip670)" d="M1095.17 65.6895 L1123.73 65.6895 L1123.73 72.576 L1085.33 72.576 L1085.33 65.6895 Q1089.99 60.8689 1098.01 52.7671 Q1106.07 44.6248 1108.13 42.2752 Q1112.06 37.8598 1113.6 34.8216 Q1115.18 31.7429 1115.18 28.7857 Q1115.18 23.9651 1111.78 20.927 Q1108.42 17.8888 1102.99 17.8888 Q1099.14 17.8888 1094.85 19.2256 Q1090.59 20.5624 1085.73 23.2765 L1085.73 15.0127 Q1090.68 13.0277 1094.97 12.015 Q1099.26 11.0023 1102.83 11.0023 Q1112.23 11.0023 1117.82 15.7013 Q1123.41 20.4004 1123.41 28.2591 Q1123.41 31.9859 1121.99 35.3482 Q1120.61 38.6699 1116.93 43.2069 Q1115.91 44.3817 1110.48 50.0125 Q1105.06 55.6027 1095.17 65.6895 Z" fill="#000000" fill-rule="evenodd" fill-opacity="1" /><path clip-path="url(#clip670)" d="M1140.99 12.096 L1173.11 12.096 L1173.11 18.9825 L1148.48 18.9825 L1148.48 33.8088 Q1150.26 33.2012 1152.05 32.9176 Q1153.83 32.5936 1155.61 32.5936 Q1165.74 32.5936 1171.65 38.1433 Q1177.57 43.6931 1177.57 53.1722 Q1177.57 62.9348 1171.49 68.3631 Q1165.41 73.7508 1154.36 73.7508 Q1150.55 73.7508 1146.58 73.1026 Q1142.65 72.4545 1138.44 71.1582 L1138.44 62.9348 Q1142.08 64.9198 1145.97 65.892 Q1149.86 66.8642 1154.19 66.8642 Q1161.2 66.8642 1165.29 63.1779 Q1169.38 59.4916 1169.38 53.1722 Q1169.38 46.8528 1165.29 43.1664 Q1161.2 39.4801 1154.19 39.4801 Q1150.91 39.4801 1147.63 40.2093 Q1144.39 40.9384 1140.99 42.4778 L1140.99 12.096 Z" fill="#000000" fill-rule="evenodd" fill-opacity="1" /><path clip-path="url(#clip670)" d="M1241.98 9.54393 L1241.98 15.7418 L1234.85 15.7418 Q1230.84 15.7418 1229.26 17.3622 Q1227.72 18.9825 1227.72 23.1955 L1227.72 27.2059 L1239.99 27.2059 L1239.99 32.9987 L1227.72 32.9987 L1227.72 72.576 L1220.22 72.576 L1220.22 32.9987 L1213.09 32.9987 L1213.09 27.2059 L1220.22 27.2059 L1220.22 24.0462 Q1220.22 16.471 1223.75 13.0277 Q1227.27 9.54393 1234.93 9.54393 L1241.98 9.54393 Z" fill="#000000" fill-rule="evenodd" fill-opacity="1" /><path clip-path="url(#clip670)" d="M1249.19 34.9026 L1301.12 34.9026 L1301.12 41.7081 L1249.19 41.7081 L1249.19 34.9026 M1249.19 51.4303 L1301.12 51.4303 L1301.12 58.3168 L1249.19 58.3168 L1249.19 51.4303 Z" fill="#000000" fill-rule="evenodd" fill-opacity="1" /><path clip-path="url(#clip670)" d="M1336.28 17.4837 Q1329.96 17.4837 1326.76 23.7221 Q1323.6 29.92 1323.6 42.3968 Q1323.6 54.833 1326.76 61.0714 Q1329.96 67.2693 1336.28 67.2693 Q1342.64 67.2693 1345.8 61.0714 Q1349 54.833 1349 42.3968 Q1349 29.92 1345.8 23.7221 Q1342.64 17.4837 1336.28 17.4837 M1336.28 11.0023 Q1346.45 11.0023 1351.8 19.0636 Q1357.18 27.0843 1357.18 42.3968 Q1357.18 57.6687 1351.8 65.73 Q1346.45 73.7508 1336.28 73.7508 Q1326.11 73.7508 1320.73 65.73 Q1315.38 57.6687 1315.38 42.3968 Q1315.38 27.0843 1320.73 19.0636 Q1326.11 11.0023 1336.28 11.0023 Z" fill="#000000" fill-rule="evenodd" fill-opacity="1" /><path clip-path="url(#clip670)" d="M1371.57 62.2867 L1380.11 62.2867 L1380.11 72.576 L1371.57 72.576 L1371.57 62.2867 Z" fill="#000000" fill-rule="evenodd" fill-opacity="1" /><path clip-path="url(#clip670)" d="M1398.02 12.096 L1430.14 12.096 L1430.14 18.9825 L1405.51 18.9825 L1405.51 33.8088 Q1407.29 33.2012 1409.08 32.9176 Q1410.86 32.5936 1412.64 32.5936 Q1422.77 32.5936 1428.68 38.1433 Q1434.6 43.6931 1434.6 53.1722 Q1434.6 62.9348 1428.52 68.3631 Q1422.44 73.7508 1411.39 73.7508 Q1407.58 73.7508 1403.61 73.1026 Q1399.68 72.4545 1395.47 71.1582 L1395.47 62.9348 Q1399.11 64.9198 1403 65.892 Q1406.89 66.8642 1411.22 66.8642 Q1418.23 66.8642 1422.32 63.1779 Q1426.41 59.4916 1426.41 53.1722 Q1426.41 46.8528 1422.32 43.1664 Q1418.23 39.4801 1411.22 39.4801 Q1407.94 39.4801 1404.66 40.2093 Q1401.42 40.9384 1398.02 42.4778 L1398.02 12.096 Z" fill="#000000" fill-rule="evenodd" fill-opacity="1" /><path clip-path="url(#clip670)" d="M1502.49 51.4708 L1500.71 42.1132 Q1498.89 32.5126 1491.67 32.5126 Q1486.25 32.5126 1483.78 36.9686 Q1480.66 42.5588 1480.66 49.9314 Q1480.66 58.8434 1483.69 63.0969 Q1486.77 67.4314 1491.67 67.4314 Q1497.1 67.4314 1500.02 58.8029 L1502.49 51.4708 M1506.66 39.075 L1510.67 27.2059 L1517.32 27.2059 L1509.01 51.7949 L1510.63 60.6663 Q1511 62.6513 1512.42 64.3122 Q1514.08 66.2566 1515.37 66.2566 L1518.94 66.2566 L1518.94 72.576 L1514.48 72.576 Q1510.67 72.576 1507.27 69.1732 Q1505.61 67.4719 1504.92 63.9071 Q1503.06 68.4036 1499.25 71.9279 Q1497.47 73.5887 1491.67 73.5887 Q1482.15 73.5887 1477.54 67.4314 Q1472.8 61.0714 1472.8 49.9314 Q1472.8 38.0218 1477.94 32.4315 Q1483.65 26.1931 1491.67 26.1931 Q1504.27 26.1931 1506.66 39.075 Z" fill="#000000" fill-rule="evenodd" fill-opacity="1" /><path clip-path="url(#clip670)" d="M1550.86 58.2358 L1550.86 72.576 L1546.16 72.576 L1546.16 57.3851 Q1546.16 53.6988 1544.7 51.9569 Q1543.24 50.1745 1540.2 50.1745 Q1536.6 50.1745 1534.49 52.362 Q1532.39 54.509 1532.39 58.2358 L1532.39 72.576 L1527.65 72.576 L1527.65 47.1768 L1532.39 47.1768 L1532.39 51.1062 Q1533.97 48.7972 1536.19 47.7034 Q1538.46 46.5692 1541.58 46.5692 Q1544.66 46.5692 1546.85 47.987 Q1549.04 49.3643 1550.09 52.0379 Q1551.83 49.2428 1554.26 47.906 Q1556.73 46.5692 1560.05 46.5692 Q1564.55 46.5692 1566.94 49.3643 Q1569.37 52.1189 1569.37 57.2231 L1569.37 72.576 L1564.67 72.576 L1564.67 57.3851 Q1564.67 53.7393 1563.21 51.9569 Q1561.76 50.1745 1558.76 50.1745 Q1555.11 50.1745 1552.96 52.362 Q1550.86 54.509 1550.86 58.2358 Z" fill="#000000" fill-rule="evenodd" fill-opacity="1" /><path clip-path="url(#clip670)" d="M1603.97 58.8434 L1603.97 60.8689 L1582.37 60.8689 Q1582.7 65.1628 1585.29 67.4314 Q1587.92 69.6999 1592.58 69.6999 Q1595.3 69.6999 1597.85 69.0922 Q1600.36 68.5251 1602.87 67.3503 L1602.87 71.2797 Q1600.36 72.2519 1597.69 72.738 Q1595.05 73.2241 1592.3 73.2241 Q1585.45 73.2241 1581.48 69.6999 Q1577.47 66.1756 1577.47 60.1397 Q1577.47 53.9013 1581.28 50.215 Q1585.05 46.5692 1591.49 46.5692 Q1597.24 46.5692 1600.6 49.8504 Q1603.97 53.1722 1603.97 58.8434 M1599.27 57.5877 Q1599.23 54.1849 1597.12 52.1189 Q1595.01 50.0935 1591.53 50.0935 Q1587.6 50.0935 1585.25 52.0784 Q1582.9 54.0229 1582.54 57.5877 L1599.27 57.5877 Z" fill="#000000" fill-rule="evenodd" fill-opacity="1" /><path clip-path="url(#clip670)" d="M1627.1 59.8157 Q1621.43 59.8157 1619.24 60.9499 Q1617.01 62.1247 1617.01 64.9198 Q1617.01 67.1478 1618.67 68.4441 Q1620.33 69.7404 1623.17 69.7404 Q1627.06 69.7404 1629.41 67.2693 Q1631.8 64.7983 1631.8 60.7474 L1631.8 59.8157 L1627.1 59.8157 M1636.45 58.0738 L1636.45 72.576 L1631.8 72.576 L1631.8 68.7276 Q1630.17 71.0367 1627.78 72.1304 Q1625.35 73.2241 1621.91 73.2241 Q1617.5 73.2241 1614.9 71.0367 Q1612.31 68.8492 1612.31 65.1628 Q1612.31 60.9094 1615.55 58.7219 Q1618.79 56.5344 1625.19 56.5344 L1631.8 56.5344 L1631.8 56.1293 Q1631.8 53.2532 1629.65 51.6733 Q1627.5 50.0935 1623.65 50.0935 Q1621.22 50.0935 1618.87 50.6201 Q1616.56 51.1467 1614.42 52.2 L1614.42 48.3111 Q1617.01 47.4604 1619.44 47.0148 Q1621.83 46.5692 1624.14 46.5692 Q1630.34 46.5692 1633.42 49.4048 Q1636.45 52.281 1636.45 58.0738 Z" fill="#000000" fill-rule="evenodd" fill-opacity="1" /><path clip-path="url(#clip670)" d="M1670.36 57.2231 L1670.36 72.576 L1665.66 72.576 L1665.66 57.3851 Q1665.66 53.7798 1664.08 51.9974 Q1662.5 50.1745 1659.34 50.1745 Q1655.53 50.1745 1653.35 52.362 Q1651.16 54.509 1651.16 58.2358 L1651.16 72.576 L1646.42 72.576 L1646.42 47.1768 L1651.16 47.1768 L1651.16 51.1062 Q1652.82 48.8377 1655.09 47.7034 Q1657.4 46.5692 1660.39 46.5692 Q1665.3 46.5692 1667.81 49.2833 Q1670.36 51.9974 1670.36 57.2231 Z" fill="#000000" fill-rule="evenodd" fill-opacity="1" /><path clip-path="url(#clip670)" d="M1683.53 34.9026 L1735.46 34.9026 L1735.46 41.7081 L1683.53 41.7081 L1683.53 34.9026 M1683.53 51.4303 L1735.46 51.4303 L1735.46 58.3168 L1683.53 58.3168 L1683.53 51.4303 Z" fill="#000000" fill-rule="evenodd" fill-opacity="1" /><path clip-path="url(#clip670)" d="M1775.6 19.2256 L1754.94 51.5113 L1775.6 51.5113 L1775.6 19.2256 M1773.46 12.096 L1783.74 12.096 L1783.74 51.5113 L1792.37 51.5113 L1792.37 58.3168 L1783.74 58.3168 L1783.74 72.576 L1775.6 72.576 L1775.6 58.3168 L1748.3 58.3168 L1748.3 50.4176 L1773.46 12.096 Z" fill="#000000" fill-rule="evenodd" fill-opacity="1" /><path clip-path="url(#clip670)" d="M1805.9 62.2867 L1814.45 62.2867 L1814.45 72.576 L1805.9 72.576 L1805.9 62.2867 Z" fill="#000000" fill-rule="evenodd" fill-opacity="1" /><path clip-path="url(#clip670)" d="M1849.77 17.4837 Q1843.46 17.4837 1840.25 23.7221 Q1837.1 29.92 1837.1 42.3968 Q1837.1 54.833 1840.25 61.0714 Q1843.46 67.2693 1849.77 67.2693 Q1856.13 67.2693 1859.29 61.0714 Q1862.49 54.833 1862.49 42.3968 Q1862.49 29.92 1859.29 23.7221 Q1856.13 17.4837 1849.77 17.4837 M1849.77 11.0023 Q1859.94 11.0023 1865.29 19.0636 Q1870.68 27.0843 1870.68 42.3968 Q1870.68 57.6687 1865.29 65.73 Q1859.94 73.7508 1849.77 73.7508 Q1839.61 73.7508 1834.22 65.73 Q1828.87 57.6687 1828.87 42.3968 Q1828.87 27.0843 1834.22 19.0636 Q1839.61 11.0023 1849.77 11.0023 Z" fill="#000000" fill-rule="evenodd" fill-opacity="1" /><path clip-path="url(#clip670)" d="M1936.83 51.4708 L1935.05 42.1132 Q1933.22 32.5126 1926.01 32.5126 Q1920.58 32.5126 1918.11 36.9686 Q1914.99 42.5588 1914.99 49.9314 Q1914.99 58.8434 1918.03 63.0969 Q1921.11 67.4314 1926.01 67.4314 Q1931.44 67.4314 1934.36 58.8029 L1936.83 51.4708 M1941 39.075 L1945.01 27.2059 L1951.65 27.2059 L1943.35 51.7949 L1944.97 60.6663 Q1945.34 62.6513 1946.75 64.3122 Q1948.41 66.2566 1949.71 66.2566 L1953.28 66.2566 L1953.28 72.576 L1948.82 72.576 Q1945.01 72.576 1941.61 69.1732 Q1939.95 67.4719 1939.26 63.9071 Q1937.4 68.4036 1933.59 71.9279 Q1931.81 73.5887 1926.01 73.5887 Q1916.49 73.5887 1911.87 67.4314 Q1907.14 61.0714 1907.14 49.9314 Q1907.14 38.0218 1912.28 32.4315 Q1917.99 26.1931 1926.01 26.1931 Q1938.61 26.1931 1941 39.075 Z" fill="#000000" fill-rule="evenodd" fill-opacity="1" /><path clip-path="url(#clip670)" d="M1975.15 59.8157 Q1969.48 59.8157 1967.29 60.9499 Q1965.06 62.1247 1965.06 64.9198 Q1965.06 67.1478 1966.72 68.4441 Q1968.38 69.7404 1971.22 69.7404 Q1975.11 69.7404 1977.46 67.2693 Q1979.85 64.7983 1979.85 60.7474 L1979.85 59.8157 L1975.15 59.8157 M1984.51 58.0738 L1984.51 72.576 L1979.85 72.576 L1979.85 68.7276 Q1978.23 71.0367 1975.84 72.1304 Q1973.41 73.2241 1969.96 73.2241 Q1965.55 73.2241 1962.96 71.0367 Q1960.36 68.8492 1960.36 65.1628 Q1960.36 60.9094 1963.6 58.7219 Q1966.85 56.5344 1973.25 56.5344 L1979.85 56.5344 L1979.85 56.1293 Q1979.85 53.2532 1977.7 51.6733 Q1975.56 50.0935 1971.71 50.0935 Q1969.28 50.0935 1966.93 50.6201 Q1964.62 51.1467 1962.47 52.2 L1962.47 48.3111 Q1965.06 47.4604 1967.49 47.0148 Q1969.88 46.5692 1972.19 46.5692 Q1978.39 46.5692 1981.47 49.4048 Q1984.51 52.281 1984.51 58.0738 Z" fill="#000000" fill-rule="evenodd" fill-opacity="1" /><path clip-path="url(#clip670)" d="M2017.68 58.2358 L2017.68 72.576 L2012.99 72.576 L2012.99 57.3851 Q2012.99 53.6988 2011.53 51.9569 Q2010.07 50.1745 2007.03 50.1745 Q2003.43 50.1745 2001.32 52.362 Q1999.21 54.509 1999.21 58.2358 L1999.21 72.576 L1994.47 72.576 L1994.47 47.1768 L1999.21 47.1768 L1999.21 51.1062 Q2000.79 48.7972 2003.02 47.7034 Q2005.29 46.5692 2008.41 46.5692 Q2011.49 46.5692 2013.67 47.987 Q2015.86 49.3643 2016.91 52.0379 Q2018.66 49.2428 2021.09 47.906 Q2023.56 46.5692 2026.88 46.5692 Q2031.38 46.5692 2033.77 49.3643 Q2036.2 52.1189 2036.2 57.2231 L2036.2 72.576 L2031.5 72.576 L2031.5 57.3851 Q2031.5 53.7393 2030.04 51.9569 Q2028.58 50.1745 2025.58 50.1745 Q2021.94 50.1745 2019.79 52.362 Q2017.68 54.509 2017.68 58.2358 Z" fill="#000000" fill-rule="evenodd" fill-opacity="1" /><path clip-path="url(#clip670)" d="M2050.9 68.7682 L2050.9 82.2577 L2046.16 82.2577 L2046.16 47.1768 L2050.9 47.1768 L2050.9 51.0252 Q2052.36 48.7567 2054.63 47.6629 Q2056.9 46.5692 2060.02 46.5692 Q2065.24 46.5692 2068.48 50.215 Q2071.72 53.9013 2071.72 59.8967 Q2071.72 65.892 2068.48 69.5783 Q2065.24 73.2241 2060.02 73.2241 Q2056.9 73.2241 2054.63 72.1304 Q2052.36 71.0367 2050.9 68.7682 M2064.76 67.1073 Q2066.86 64.5147 2066.86 59.8967 Q2066.86 55.2786 2064.76 52.6861 Q2062.61 50.053 2058.88 50.053 Q2055.16 50.053 2053.01 52.6861 Q2050.9 55.2786 2050.9 59.8967 Q2050.9 64.5147 2053.01 67.1073 Q2055.16 69.7404 2058.88 69.7404 Q2062.61 69.7404 2064.76 67.1073 Z" fill="#000000" fill-rule="evenodd" fill-opacity="1" /><path clip-path="url(#clip670)" d="M2085.74 34.9026 L2137.67 34.9026 L2137.67 41.7081 L2085.74 41.7081 L2085.74 34.9026 M2085.74 51.4303 L2137.67 51.4303 L2137.67 58.3168 L2085.74 58.3168 L2085.74 51.4303 Z" fill="#000000" fill-rule="evenodd" fill-opacity="1" /><path clip-path="url(#clip670)" d="M2177.82 19.2256 L2157.16 51.5113 L2177.82 51.5113 L2177.82 19.2256 M2175.67 12.096 L2185.96 12.096 L2185.96 51.5113 L2194.59 51.5113 L2194.59 58.3168 L2185.96 58.3168 L2185.96 72.576 L2177.82 72.576 L2177.82 58.3168 L2150.51 58.3168 L2150.51 50.4176 L2175.67 12.096 Z" fill="#000000" fill-rule="evenodd" fill-opacity="1" /><path clip-path="url(#clip670)" d="M2208.12 62.2867 L2216.66 62.2867 L2216.66 72.576 L2208.12 72.576 L2208.12 62.2867 Z" fill="#000000" fill-rule="evenodd" fill-opacity="1" /><path clip-path="url(#clip670)" d="M2251.99 17.4837 Q2245.67 17.4837 2242.47 23.7221 Q2239.31 29.92 2239.31 42.3968 Q2239.31 54.833 2242.47 61.0714 Q2245.67 67.2693 2251.99 67.2693 Q2258.35 67.2693 2261.51 61.0714 Q2264.71 54.833 2264.71 42.3968 Q2264.71 29.92 2261.51 23.7221 Q2258.35 17.4837 2251.99 17.4837 M2251.99 11.0023 Q2262.16 11.0023 2267.5 19.0636 Q2272.89 27.0843 2272.89 42.3968 Q2272.89 57.6687 2267.5 65.73 Q2262.16 73.7508 2251.99 73.7508 Q2241.82 73.7508 2236.43 65.73 Q2231.09 57.6687 2231.09 42.3968 Q2231.09 27.0843 2236.43 19.0636 Q2241.82 11.0023 2251.99 11.0023 Z" fill="#000000" fill-rule="evenodd" fill-opacity="1" /><polyline clip-path="url(#clip672)" style="stroke:#009af9; stroke-linecap:butt; stroke-linejoin:round; stroke-width:4; stroke-opacity:1; fill:none" points="
  1282.04,448.399 1877.49,703.141 2244.03,636.083 2240.74,533.863 1868.89,437.636 1271.43,394.697 678.049,424.301 316.869,510.151 326.739,616.237 703.866,694.494 
  1303.27,729.685 1894.51,698.609 2250.29,667.174 2233.84,589.75 1851.48,490.831 1250.21,420.289 661.169,458.544 310.82,523.707 333.847,610.797 721.398,701.548 
  1324.48,711.6 1911.25,703.211 2256.12,687.056 2226.52,603.244 1833.82,453.593 1229,418.959 644.564,417.114 305.201,550.535 341.374,587.596 739.177,709.597 
  1345.68,728.371 1927.71,695.091 2261.53,685.909 2218.79,573.268 1815.92,407.782 1207.81,441.972 628.24,467.098 300.013,535.521 349.317,604.439 757.197,706.566 
  1366.85,738.109 1943.89,677.276 2266.5,695.862 2210.64,559.997 1797.79,401.039 1186.66,442.844 612.205,473.864 295.259,530.107 357.671,605.438 775.448,714.153 
  1387.98,740.027 1959.78,672.121 2271.04,707.628 2202.08,555.019 1779.42,388.453 1165.55,435.843 596.465,477.299 290.94,522.901 366.433,610.021 793.922,719.285 
  1409.06,751.361 1975.37,657.039 2275.14,720.137 2193.11,541.692 1760.84,374.838 1144.5,422.4 581.029,474.435 287.059,516.158 375.6,617.024 812.613,732.487 
  1430.09,764.106 1990.65,665.185 2278.8,731.388 2183.75,519.899 1742.04,367.618 1123.5,405.331 565.902,458.328 283.618,507.337 385.167,630.971 831.51,743.825 
  1451.06,774.655 2005.62,669.92 2282.02,743.181 2173.98,522.564 1723.05,379.727 1102.57,426.502 551.091,440.563 280.617,497.176 395.13,647.702 850.607,760.883 
  1471.94,784.928 2020.27,688.875 2284.8,755.335 2163.82,495.133 1703.85,421.303 1081.72,535.298 536.603,420.606 278.058,486.118 405.485,667.491 869.894,789.179 
  1492.75,742.993 2034.6,715.388 2287.14,767.205 2153.27,461.86 1684.47,498.93 1060.96,563.936 522.444,398.712 275.943,477.589 416.226,691.348 889.363,759.772 
  1513.46,708.315 2048.59,741.424 2289.03,779.05 2142.34,490.871 1664.92,507.311 1040.3,572.873 508.62,372.245 274.272,465.678 427.35,719.203 909.005,692.234 
  1534.07,693.934 2062.24,763.096 2290.48,790.905 2131.03,458.417 1645.19,513.383 1019.75,567.938 495.138,340.701 273.046,453.642 438.852,751.631 928.812,692.791 
  1554.57,706.029 2075.55,786.27 2291.48,802.222 2119.34,529.193 1625.31,511.444 999.308,551.728 482.004,344.306 272.266,442.188 450.725,788.144 948.776,739.255 
  1574.95,743.175 2088.51,813.225 2292.04,813.306 2107.28,502.902 1605.27,492.928 978.993,520.478 469.223,670.717 271.931,431.037 462.966,829.05 968.886,792.17 
  1595.19,796.688 2101.11,695.661 2292.15,824.185 2094.86,620.638 1585.09,450.274 958.813,476.212 456.8,672.064 272.043,420.333 475.569,753.879 989.134,847.948 
  1615.3,845.911 2113.36,720.946 2291.81,834.169 2082.08,601.446 1564.77,387.69 938.775,419.403 444.742,667.94 272.6,412.939 488.527,447.126 1009.51,902.526 
  1635.27,878.216 2125.23,608.389 2291.03,843.657 2068.94,580.411 1544.33,384.409 918.889,369.769 433.054,660.996 273.603,404.829 501.836,466.959 1030.01,942.098 
  1655.08,901.171 2136.73,637.395 2289.81,852.677 2055.46,557.05 1523.78,400.345 899.163,425.01 421.741,651.364 275.052,397.955 515.49,493.495 1050.62,972.933 
  1674.72,919.098 2147.85,674.007 2288.14,860.553 2041.64,521.785 1503.12,470.798 879.606,651.03 410.807,639.252 276.945,393.27 529.482,524.552 1071.33,973.354 
  1694.19,759.432 2158.6,593.373 2286.02,867.439 2027.48,462.769 1482.36,598.124 860.227,606.167 400.259,625.502 279.282,390.841 543.806,560.014 1092.14,781.728 
  1713.47,790.224 2168.95,638.387 2283.46,873.679 2012.99,395.282 1461.51,552.059 841.034,564.353 390.099,608.884 282.062,391.768 558.456,599.775 1113.03,570.935 
  1732.57,676.899 2178.91,599.275 2280.46,878.594 1998.18,304.741 1440.58,504.447 822.036,518.512 380.334,590.624 285.283,394.092 573.426,648.971 1133.99,576.897 
  1751.47,618.429 2188.48,645.829 2277.02,882.073 1983.05,243.206 1419.59,448.123 803.241,465.989 370.966,569.685 288.945,399.288 588.709,705.101 1155.02,631.285 
  1770.16,621.349 2197.65,697.681 2273.14,884.053 1967.62,136.206 1398.53,373.317 784.658,400.898 362.001,547.675 293.045,407.252 604.298,761.411 1176.1,722.805 
  1788.63,672.468 2206.41,703.376 2268.82,884.671 1951.88,123.785 1377.42,270.905 766.294,320.692 353.443,530.33 297.582,419.294 620.186,815.914 1197.23,805.699 
  1806.88,744.039 2214.76,757.1 2264.07,882.736 1935.84,188.645 1356.27,148.198 748.157,228.07 345.294,505.926 302.553,434.053 636.366,871.601 1218.4,875.306 
  1824.9,801.814 2222.71,809.541 2258.88,876.489 1919.52,117.881 1335.08,47.8965 730.257,127.986 337.559,478.9 307.957,452.356 652.832,937.281 1239.6,912.187 
  1842.68,831.841 2230.23,860.088 2253.26,864.808 1902.91,294.055 1313.88,163.612 712.6,20.1536 330.241,449.945 313.791,474.075 669.575,962.572 1260.82,921.793 
  1860.21,846.357 2237.34,889.871 2247.21,847.118 1886.03,559.574 1292.65,325.601 695.195,24.2817 323.343,423.08 320.053,499.913 686.589,361.075 1282.04,904.057 
  
  "/>
</svg>
