<?xml version="1.0" encoding="utf-8"?>
<svg xmlns="http://www.w3.org/2000/svg" xmlns:xlink="http://www.w3.org/1999/xlink" width="600" height="400" viewBox="0 0 2400 1600">
<defs>
  <clipPath id="clip790">
    <rect x="0" y="0" width="2400" height="1600"/>
  </clipPath>
</defs>
<path clip-path="url(#clip790)" d="
M0 1600 L2400 1600 L2400 0 L0 0  Z
  " fill="#ffffff" fill-rule="evenodd" fill-opacity="1"/>
<defs>
  <clipPath id="clip791">
    <rect x="480" y="0" width="1681" height="1600"/>
  </clipPath>
</defs>
<path clip-path="url(#clip790)" d="
M249.542 1423.18 L2352.76 1423.18 L2352.76 123.472 L249.542 123.472  Z
  " fill="#ffffff" fill-rule="evenodd" fill-opacity="1"/>
<defs>
  <clipPath id="clip792">
    <rect x="249" y="123" width="2104" height="1301"/>
  </clipPath>
</defs>
<polyline clip-path="url(#clip792)" style="stroke:#000000; stroke-linecap:butt; stroke-linejoin:round; stroke-width:2; stroke-opacity:0.1; fill:none" points="
  309.067,1423.18 309.067,123.472 
  "/>
<polyline clip-path="url(#clip792)" style="stroke:#000000; stroke-linecap:butt; stroke-linejoin:round; stroke-width:2; stroke-opacity:0.1; fill:none" points="
  639.761,1423.18 639.761,123.472 
  "/>
<polyline clip-path="url(#clip792)" style="stroke:#000000; stroke-linecap:butt; stroke-linejoin:round; stroke-width:2; stroke-opacity:0.1; fill:none" points="
  970.455,1423.18 970.455,123.472 
  "/>
<polyline clip-path="url(#clip792)" style="stroke:#000000; stroke-linecap:butt; stroke-linejoin:round; stroke-width:2; stroke-opacity:0.1; fill:none" points="
  1301.15,1423.18 1301.15,123.472 
  "/>
<polyline clip-path="url(#clip792)" style="stroke:#000000; stroke-linecap:butt; stroke-linejoin:round; stroke-width:2; stroke-opacity:0.1; fill:none" points="
  1631.84,1423.18 1631.84,123.472 
  "/>
<polyline clip-path="url(#clip792)" style="stroke:#000000; stroke-linecap:butt; stroke-linejoin:round; stroke-width:2; stroke-opacity:0.1; fill:none" points="
  1962.54,1423.18 1962.54,123.472 
  "/>
<polyline clip-path="url(#clip792)" style="stroke:#000000; stroke-linecap:butt; stroke-linejoin:round; stroke-width:2; stroke-opacity:0.1; fill:none" points="
  2293.23,1423.18 2293.23,123.472 
  "/>
<polyline clip-path="url(#clip790)" style="stroke:#000000; stroke-linecap:butt; stroke-linejoin:round; stroke-width:4; stroke-opacity:1; fill:none" points="
  249.542,1423.18 2352.76,1423.18 
  "/>
<polyline clip-path="url(#clip790)" style="stroke:#000000; stroke-linecap:butt; stroke-linejoin:round; stroke-width:4; stroke-opacity:1; fill:none" points="
  309.067,1423.18 309.067,1404.28 
  "/>
<polyline clip-path="url(#clip790)" style="stroke:#000000; stroke-linecap:butt; stroke-linejoin:round; stroke-width:4; stroke-opacity:1; fill:none" points="
  639.761,1423.18 639.761,1404.28 
  "/>
<polyline clip-path="url(#clip790)" style="stroke:#000000; stroke-linecap:butt; stroke-linejoin:round; stroke-width:4; stroke-opacity:1; fill:none" points="
  970.455,1423.18 970.455,1404.28 
  "/>
<polyline clip-path="url(#clip790)" style="stroke:#000000; stroke-linecap:butt; stroke-linejoin:round; stroke-width:4; stroke-opacity:1; fill:none" points="
  1301.15,1423.18 1301.15,1404.28 
  "/>
<polyline clip-path="url(#clip790)" style="stroke:#000000; stroke-linecap:butt; stroke-linejoin:round; stroke-width:4; stroke-opacity:1; fill:none" points="
  1631.84,1423.18 1631.84,1404.28 
  "/>
<polyline clip-path="url(#clip790)" style="stroke:#000000; stroke-linecap:butt; stroke-linejoin:round; stroke-width:4; stroke-opacity:1; fill:none" points="
  1962.54,1423.18 1962.54,1404.28 
  "/>
<polyline clip-path="url(#clip790)" style="stroke:#000000; stroke-linecap:butt; stroke-linejoin:round; stroke-width:4; stroke-opacity:1; fill:none" points="
  2293.23,1423.18 2293.23,1404.28 
  "/>
<path clip-path="url(#clip790)" d="M309.067 1454.1 Q305.456 1454.1 303.627 1457.66 Q301.822 1461.2 301.822 1468.33 Q301.822 1475.44 303.627 1479.01 Q305.456 1482.55 309.067 1482.55 Q312.701 1482.55 314.507 1479.01 Q316.335 1475.44 316.335 1468.33 Q316.335 1461.2 314.507 1457.66 Q312.701 1454.1 309.067 1454.1 M309.067 1450.39 Q314.877 1450.39 317.933 1455 Q321.011 1459.58 321.011 1468.33 Q321.011 1477.06 317.933 1481.67 Q314.877 1486.25 309.067 1486.25 Q303.257 1486.25 300.178 1481.67 Q297.123 1477.06 297.123 1468.33 Q297.123 1459.58 300.178 1455 Q303.257 1450.39 309.067 1450.39 Z" fill="#000000" fill-rule="evenodd" fill-opacity="1" /><path clip-path="url(#clip790)" d="M614.449 1481.64 L622.087 1481.64 L622.087 1455.28 L613.777 1456.95 L613.777 1452.69 L622.041 1451.02 L626.717 1451.02 L626.717 1481.64 L634.356 1481.64 L634.356 1485.58 L614.449 1485.58 L614.449 1481.64 Z" fill="#000000" fill-rule="evenodd" fill-opacity="1" /><path clip-path="url(#clip790)" d="M653.8 1454.1 Q650.189 1454.1 648.36 1457.66 Q646.555 1461.2 646.555 1468.33 Q646.555 1475.44 648.36 1479.01 Q650.189 1482.55 653.8 1482.55 Q657.434 1482.55 659.24 1479.01 Q661.069 1475.44 661.069 1468.33 Q661.069 1461.2 659.24 1457.66 Q657.434 1454.1 653.8 1454.1 M653.8 1450.39 Q659.61 1450.39 662.666 1455 Q665.745 1459.58 665.745 1468.33 Q665.745 1477.06 662.666 1481.67 Q659.61 1486.25 653.8 1486.25 Q647.99 1486.25 644.911 1481.67 Q641.856 1477.06 641.856 1468.33 Q641.856 1459.58 644.911 1455 Q647.99 1450.39 653.8 1450.39 Z" fill="#000000" fill-rule="evenodd" fill-opacity="1" /><path clip-path="url(#clip790)" d="M949.228 1481.64 L965.548 1481.64 L965.548 1485.58 L943.603 1485.58 L943.603 1481.64 Q946.265 1478.89 950.849 1474.26 Q955.455 1469.61 956.636 1468.27 Q958.881 1465.74 959.761 1464.01 Q960.663 1462.25 960.663 1460.56 Q960.663 1457.8 958.719 1456.07 Q956.798 1454.33 953.696 1454.33 Q951.497 1454.33 949.043 1455.09 Q946.612 1455.86 943.835 1457.41 L943.835 1452.69 Q946.659 1451.55 949.112 1450.97 Q951.566 1450.39 953.603 1450.39 Q958.974 1450.39 962.168 1453.08 Q965.362 1455.77 965.362 1460.26 Q965.362 1462.39 964.552 1464.31 Q963.765 1466.2 961.659 1468.8 Q961.08 1469.47 957.978 1472.69 Q954.876 1475.88 949.228 1481.64 Z" fill="#000000" fill-rule="evenodd" fill-opacity="1" /><path clip-path="url(#clip790)" d="M985.362 1454.1 Q981.751 1454.1 979.923 1457.66 Q978.117 1461.2 978.117 1468.33 Q978.117 1475.44 979.923 1479.01 Q981.751 1482.55 985.362 1482.55 Q988.997 1482.55 990.802 1479.01 Q992.631 1475.44 992.631 1468.33 Q992.631 1461.2 990.802 1457.66 Q988.997 1454.1 985.362 1454.1 M985.362 1450.39 Q991.172 1450.39 994.228 1455 Q997.307 1459.58 997.307 1468.33 Q997.307 1477.06 994.228 1481.67 Q991.172 1486.25 985.362 1486.25 Q979.552 1486.25 976.473 1481.67 Q973.418 1477.06 973.418 1468.33 Q973.418 1459.58 976.473 1455 Q979.552 1450.39 985.362 1450.39 Z" fill="#000000" fill-rule="evenodd" fill-opacity="1" /><path clip-path="url(#clip790)" d="M1289.99 1466.95 Q1293.35 1467.66 1295.22 1469.93 Q1297.12 1472.2 1297.12 1475.53 Q1297.12 1480.65 1293.6 1483.45 Q1290.08 1486.25 1283.6 1486.25 Q1281.43 1486.25 1279.11 1485.81 Q1276.82 1485.39 1274.37 1484.54 L1274.37 1480.02 Q1276.31 1481.16 1278.63 1481.74 Q1280.94 1482.32 1283.46 1482.32 Q1287.86 1482.32 1290.15 1480.58 Q1292.47 1478.84 1292.47 1475.53 Q1292.47 1472.48 1290.32 1470.77 Q1288.19 1469.03 1284.37 1469.03 L1280.34 1469.03 L1280.34 1465.19 L1284.55 1465.19 Q1288 1465.19 1289.83 1463.82 Q1291.66 1462.43 1291.66 1459.84 Q1291.66 1457.18 1289.76 1455.77 Q1287.89 1454.33 1284.37 1454.33 Q1282.45 1454.33 1280.25 1454.75 Q1278.05 1455.16 1275.41 1456.04 L1275.41 1451.88 Q1278.07 1451.14 1280.39 1450.77 Q1282.72 1450.39 1284.78 1450.39 Q1290.11 1450.39 1293.21 1452.83 Q1296.31 1455.23 1296.31 1459.35 Q1296.31 1462.22 1294.67 1464.21 Q1293.02 1466.18 1289.99 1466.95 Z" fill="#000000" fill-rule="evenodd" fill-opacity="1" /><path clip-path="url(#clip790)" d="M1315.99 1454.1 Q1312.38 1454.1 1310.55 1457.66 Q1308.74 1461.2 1308.74 1468.33 Q1308.74 1475.44 1310.55 1479.01 Q1312.38 1482.55 1315.99 1482.55 Q1319.62 1482.55 1321.43 1479.01 Q1323.26 1475.44 1323.26 1468.33 Q1323.26 1461.2 1321.43 1457.66 Q1319.62 1454.1 1315.99 1454.1 M1315.99 1450.39 Q1321.8 1450.39 1324.85 1455 Q1327.93 1459.58 1327.93 1468.33 Q1327.93 1477.06 1324.85 1481.67 Q1321.8 1486.25 1315.99 1486.25 Q1310.18 1486.25 1307.1 1481.67 Q1304.04 1477.06 1304.04 1468.33 Q1304.04 1459.58 1307.1 1455 Q1310.18 1450.39 1315.99 1450.39 Z" fill="#000000" fill-rule="evenodd" fill-opacity="1" /><path clip-path="url(#clip790)" d="M1620.01 1455.09 L1608.21 1473.54 L1620.01 1473.54 L1620.01 1455.09 M1618.79 1451.02 L1624.67 1451.02 L1624.67 1473.54 L1629.6 1473.54 L1629.6 1477.43 L1624.67 1477.43 L1624.67 1485.58 L1620.01 1485.58 L1620.01 1477.43 L1604.41 1477.43 L1604.41 1472.92 L1618.79 1451.02 Z" fill="#000000" fill-rule="evenodd" fill-opacity="1" /><path clip-path="url(#clip790)" d="M1647.33 1454.1 Q1643.72 1454.1 1641.89 1457.66 Q1640.08 1461.2 1640.08 1468.33 Q1640.08 1475.44 1641.89 1479.01 Q1643.72 1482.55 1647.33 1482.55 Q1650.96 1482.55 1652.77 1479.01 Q1654.6 1475.44 1654.6 1468.33 Q1654.6 1461.2 1652.77 1457.66 Q1650.96 1454.1 1647.33 1454.1 M1647.33 1450.39 Q1653.14 1450.39 1656.19 1455 Q1659.27 1459.58 1659.27 1468.33 Q1659.27 1477.06 1656.19 1481.67 Q1653.14 1486.25 1647.33 1486.25 Q1641.52 1486.25 1638.44 1481.67 Q1635.38 1477.06 1635.38 1468.33 Q1635.38 1459.58 1638.44 1455 Q1641.52 1450.39 1647.33 1450.39 Z" fill="#000000" fill-rule="evenodd" fill-opacity="1" /><path clip-path="url(#clip790)" d="M1937.24 1451.02 L1955.59 1451.02 L1955.59 1454.96 L1941.52 1454.96 L1941.52 1463.43 Q1942.54 1463.08 1943.56 1462.92 Q1944.57 1462.73 1945.59 1462.73 Q1951.38 1462.73 1954.76 1465.9 Q1958.14 1469.08 1958.14 1474.49 Q1958.14 1480.07 1954.67 1483.17 Q1951.19 1486.25 1944.88 1486.25 Q1942.7 1486.25 1940.43 1485.88 Q1938.19 1485.51 1935.78 1484.77 L1935.78 1480.07 Q1937.86 1481.2 1940.08 1481.76 Q1942.31 1482.32 1944.78 1482.32 Q1948.79 1482.32 1951.13 1480.21 Q1953.46 1478.1 1953.46 1474.49 Q1953.46 1470.88 1951.13 1468.77 Q1948.79 1466.67 1944.78 1466.67 Q1942.91 1466.67 1941.03 1467.08 Q1939.18 1467.5 1937.24 1468.38 L1937.24 1451.02 Z" fill="#000000" fill-rule="evenodd" fill-opacity="1" /><path clip-path="url(#clip790)" d="M1977.35 1454.1 Q1973.74 1454.1 1971.91 1457.66 Q1970.11 1461.2 1970.11 1468.33 Q1970.11 1475.44 1971.91 1479.01 Q1973.74 1482.55 1977.35 1482.55 Q1980.99 1482.55 1982.79 1479.01 Q1984.62 1475.44 1984.62 1468.33 Q1984.62 1461.2 1982.79 1457.66 Q1980.99 1454.1 1977.35 1454.1 M1977.35 1450.39 Q1983.16 1450.39 1986.22 1455 Q1989.3 1459.58 1989.3 1468.33 Q1989.3 1477.06 1986.22 1481.67 Q1983.16 1486.25 1977.35 1486.25 Q1971.54 1486.25 1968.46 1481.67 Q1965.41 1477.06 1965.41 1468.33 Q1965.41 1459.58 1968.46 1455 Q1971.54 1450.39 1977.35 1450.39 Z" fill="#000000" fill-rule="evenodd" fill-opacity="1" /><path clip-path="url(#clip790)" d="M2278.64 1466.44 Q2275.49 1466.44 2273.64 1468.59 Q2271.81 1470.74 2271.81 1474.49 Q2271.81 1478.22 2273.64 1480.39 Q2275.49 1482.55 2278.64 1482.55 Q2281.78 1482.55 2283.61 1480.39 Q2285.46 1478.22 2285.46 1474.49 Q2285.46 1470.74 2283.61 1468.59 Q2281.78 1466.44 2278.64 1466.44 M2287.92 1451.78 L2287.92 1456.04 Q2286.16 1455.21 2284.35 1454.77 Q2282.57 1454.33 2280.81 1454.33 Q2276.18 1454.33 2273.73 1457.45 Q2271.3 1460.58 2270.95 1466.9 Q2272.32 1464.89 2274.38 1463.82 Q2276.44 1462.73 2278.91 1462.73 Q2284.12 1462.73 2287.13 1465.9 Q2290.16 1469.05 2290.16 1474.49 Q2290.16 1479.82 2287.02 1483.03 Q2283.87 1486.25 2278.64 1486.25 Q2272.64 1486.25 2269.47 1481.67 Q2266.3 1477.06 2266.3 1468.33 Q2266.3 1460.14 2270.19 1455.28 Q2274.08 1450.39 2280.63 1450.39 Q2282.39 1450.39 2284.17 1450.74 Q2285.97 1451.09 2287.92 1451.78 Z" fill="#000000" fill-rule="evenodd" fill-opacity="1" /><path clip-path="url(#clip790)" d="M2308.22 1454.1 Q2304.61 1454.1 2302.78 1457.66 Q2300.97 1461.2 2300.97 1468.33 Q2300.97 1475.44 2302.78 1479.01 Q2304.61 1482.55 2308.22 1482.55 Q2311.85 1482.55 2313.66 1479.01 Q2315.49 1475.44 2315.49 1468.33 Q2315.49 1461.2 2313.66 1457.66 Q2311.85 1454.1 2308.22 1454.1 M2308.22 1450.39 Q2314.03 1450.39 2317.09 1455 Q2320.16 1459.58 2320.16 1468.33 Q2320.16 1477.06 2317.09 1481.67 Q2314.03 1486.25 2308.22 1486.25 Q2302.41 1486.25 2299.33 1481.67 Q2296.27 1477.06 2296.27 1468.33 Q2296.27 1459.58 2299.33 1455 Q2302.41 1450.39 2308.22 1450.39 Z" fill="#000000" fill-rule="evenodd" fill-opacity="1" /><path clip-path="url(#clip790)" d="M1249.46 1522.27 L1249.46 1532.4 L1261.52 1532.4 L1261.52 1536.95 L1249.46 1536.95 L1249.46 1556.3 Q1249.46 1560.66 1250.64 1561.9 Q1251.85 1563.14 1255.51 1563.14 L1261.52 1563.14 L1261.52 1568.04 L1255.51 1568.04 Q1248.73 1568.04 1246.15 1565.53 Q1243.57 1562.98 1243.57 1556.3 L1243.57 1536.95 L1239.27 1536.95 L1239.27 1532.4 L1243.57 1532.4 L1243.57 1522.27 L1249.46 1522.27 Z" fill="#000000" fill-rule="evenodd" fill-opacity="1" /><path clip-path="url(#clip790)" d="M1289.4 1518.52 L1302.9 1518.52 L1302.9 1523.07 L1295.26 1523.07 L1295.26 1572.09 L1302.9 1572.09 L1302.9 1576.64 L1289.4 1576.64 L1289.4 1518.52 Z" fill="#000000" fill-rule="evenodd" fill-opacity="1" /><path clip-path="url(#clip790)" d="M1338.1 1533.45 L1338.1 1538.98 Q1335.62 1537.71 1332.95 1537.07 Q1330.27 1536.44 1327.41 1536.44 Q1323.05 1536.44 1320.85 1537.77 Q1318.69 1539.11 1318.69 1541.79 Q1318.69 1543.82 1320.25 1545 Q1321.81 1546.15 1326.52 1547.2 L1328.52 1547.64 Q1334.76 1548.98 1337.37 1551.43 Q1340.01 1553.85 1340.01 1558.21 Q1340.01 1563.17 1336.06 1566.07 Q1332.15 1568.97 1325.27 1568.97 Q1322.41 1568.97 1319.29 1568.39 Q1316.2 1567.85 1312.77 1566.74 L1312.77 1560.69 Q1316.01 1562.38 1319.16 1563.24 Q1322.31 1564.07 1325.4 1564.07 Q1329.54 1564.07 1331.77 1562.66 Q1334 1561.23 1334 1558.65 Q1334 1556.27 1332.37 1554.99 Q1330.78 1553.72 1325.34 1552.54 L1323.3 1552.07 Q1317.86 1550.92 1315.44 1548.56 Q1313.02 1546.18 1313.02 1542.04 Q1313.02 1537.01 1316.59 1534.27 Q1320.15 1531.54 1326.71 1531.54 Q1329.95 1531.54 1332.82 1532.01 Q1335.68 1532.49 1338.1 1533.45 Z" fill="#000000" fill-rule="evenodd" fill-opacity="1" /><path clip-path="url(#clip790)" d="M1363.02 1518.52 L1363.02 1576.64 L1349.53 1576.64 L1349.53 1572.09 L1357.14 1572.09 L1357.14 1523.07 L1349.53 1523.07 L1349.53 1518.52 L1363.02 1518.52 Z" fill="#000000" fill-rule="evenodd" fill-opacity="1" /><polyline clip-path="url(#clip792)" style="stroke:#000000; stroke-linecap:butt; stroke-linejoin:round; stroke-width:2; stroke-opacity:0.1; fill:none" points="
  249.542,1183.54 2352.76,1183.54 
  "/>
<polyline clip-path="url(#clip792)" style="stroke:#000000; stroke-linecap:butt; stroke-linejoin:round; stroke-width:2; stroke-opacity:0.1; fill:none" points="
  249.542,906.74 2352.76,906.74 
  "/>
<polyline clip-path="url(#clip792)" style="stroke:#000000; stroke-linecap:butt; stroke-linejoin:round; stroke-width:2; stroke-opacity:0.1; fill:none" points="
  249.542,629.938 2352.76,629.938 
  "/>
<polyline clip-path="url(#clip792)" style="stroke:#000000; stroke-linecap:butt; stroke-linejoin:round; stroke-width:2; stroke-opacity:0.1; fill:none" points="
  249.542,353.136 2352.76,353.136 
  "/>
<polyline clip-path="url(#clip790)" style="stroke:#000000; stroke-linecap:butt; stroke-linejoin:round; stroke-width:4; stroke-opacity:1; fill:none" points="
  249.542,1423.18 249.542,123.472 
  "/>
<polyline clip-path="url(#clip790)" style="stroke:#000000; stroke-linecap:butt; stroke-linejoin:round; stroke-width:4; stroke-opacity:1; fill:none" points="
  249.542,1183.54 268.44,1183.54 
  "/>
<polyline clip-path="url(#clip790)" style="stroke:#000000; stroke-linecap:butt; stroke-linejoin:round; stroke-width:4; stroke-opacity:1; fill:none" points="
  249.542,906.74 268.44,906.74 
  "/>
<polyline clip-path="url(#clip790)" style="stroke:#000000; stroke-linecap:butt; stroke-linejoin:round; stroke-width:4; stroke-opacity:1; fill:none" points="
  249.542,629.938 268.44,629.938 
  "/>
<polyline clip-path="url(#clip790)" style="stroke:#000000; stroke-linecap:butt; stroke-linejoin:round; stroke-width:4; stroke-opacity:1; fill:none" points="
  249.542,353.136 268.44,353.136 
  "/>
<path clip-path="url(#clip790)" d="M126.205 1169.34 Q122.593 1169.34 120.765 1172.91 Q118.959 1176.45 118.959 1183.58 Q118.959 1190.68 120.765 1194.25 Q122.593 1197.79 126.205 1197.79 Q129.839 1197.79 131.644 1194.25 Q133.473 1190.68 133.473 1183.58 Q133.473 1176.45 131.644 1172.91 Q129.839 1169.34 126.205 1169.34 M126.205 1165.64 Q132.015 1165.64 135.07 1170.24 Q138.149 1174.83 138.149 1183.58 Q138.149 1192.3 135.07 1196.91 Q132.015 1201.49 126.205 1201.49 Q120.394 1201.49 117.316 1196.91 Q114.26 1192.3 114.26 1183.58 Q114.26 1174.83 117.316 1170.24 Q120.394 1165.64 126.205 1165.64 Z" fill="#000000" fill-rule="evenodd" fill-opacity="1" /><path clip-path="url(#clip790)" d="M146.366 1194.94 L151.251 1194.94 L151.251 1200.82 L146.366 1200.82 L146.366 1194.94 Z" fill="#000000" fill-rule="evenodd" fill-opacity="1" /><path clip-path="url(#clip790)" d="M171.436 1169.34 Q167.825 1169.34 165.996 1172.91 Q164.19 1176.45 164.19 1183.58 Q164.19 1190.68 165.996 1194.25 Q167.825 1197.79 171.436 1197.79 Q175.07 1197.79 176.876 1194.25 Q178.704 1190.68 178.704 1183.58 Q178.704 1176.45 176.876 1172.91 Q175.07 1169.34 171.436 1169.34 M171.436 1165.64 Q177.246 1165.64 180.301 1170.24 Q183.38 1174.83 183.38 1183.58 Q183.38 1192.3 180.301 1196.91 Q177.246 1201.49 171.436 1201.49 Q165.626 1201.49 162.547 1196.91 Q159.491 1192.3 159.491 1183.58 Q159.491 1174.83 162.547 1170.24 Q165.626 1165.64 171.436 1165.64 Z" fill="#000000" fill-rule="evenodd" fill-opacity="1" /><path clip-path="url(#clip790)" d="M201.598 1169.34 Q197.987 1169.34 196.158 1172.91 Q194.352 1176.45 194.352 1183.58 Q194.352 1190.68 196.158 1194.25 Q197.987 1197.79 201.598 1197.79 Q205.232 1197.79 207.037 1194.25 Q208.866 1190.68 208.866 1183.58 Q208.866 1176.45 207.037 1172.91 Q205.232 1169.34 201.598 1169.34 M201.598 1165.64 Q207.408 1165.64 210.463 1170.24 Q213.542 1174.83 213.542 1183.58 Q213.542 1192.3 210.463 1196.91 Q207.408 1201.49 201.598 1201.49 Q195.787 1201.49 192.709 1196.91 Q189.653 1192.3 189.653 1183.58 Q189.653 1174.83 192.709 1170.24 Q195.787 1165.64 201.598 1165.64 Z" fill="#000000" fill-rule="evenodd" fill-opacity="1" /><path clip-path="url(#clip790)" d="M127.2 892.539 Q123.589 892.539 121.76 896.104 Q119.955 899.645 119.955 906.775 Q119.955 913.881 121.76 917.446 Q123.589 920.988 127.2 920.988 Q130.834 920.988 132.64 917.446 Q134.468 913.881 134.468 906.775 Q134.468 899.645 132.64 896.104 Q130.834 892.539 127.2 892.539 M127.2 888.835 Q133.01 888.835 136.066 893.442 Q139.144 898.025 139.144 906.775 Q139.144 915.502 136.066 920.108 Q133.01 924.692 127.2 924.692 Q121.39 924.692 118.311 920.108 Q115.256 915.502 115.256 906.775 Q115.256 898.025 118.311 893.442 Q121.39 888.835 127.2 888.835 Z" fill="#000000" fill-rule="evenodd" fill-opacity="1" /><path clip-path="url(#clip790)" d="M147.362 918.141 L152.246 918.141 L152.246 924.02 L147.362 924.02 L147.362 918.141 Z" fill="#000000" fill-rule="evenodd" fill-opacity="1" /><path clip-path="url(#clip790)" d="M166.459 920.085 L182.778 920.085 L182.778 924.02 L160.834 924.02 L160.834 920.085 Q163.496 917.331 168.079 912.701 Q172.686 908.048 173.866 906.706 Q176.112 904.182 176.991 902.446 Q177.894 900.687 177.894 898.997 Q177.894 896.243 175.95 894.507 Q174.028 892.77 170.927 892.77 Q168.727 892.77 166.274 893.534 Q163.843 894.298 161.065 895.849 L161.065 891.127 Q163.89 889.993 166.343 889.414 Q168.797 888.835 170.834 888.835 Q176.204 888.835 179.399 891.52 Q182.593 894.206 182.593 898.696 Q182.593 900.826 181.783 902.747 Q180.996 904.645 178.889 907.238 Q178.311 907.909 175.209 911.127 Q172.107 914.321 166.459 920.085 Z" fill="#000000" fill-rule="evenodd" fill-opacity="1" /><path clip-path="url(#clip790)" d="M192.639 889.46 L210.996 889.46 L210.996 893.395 L196.922 893.395 L196.922 901.868 Q197.94 901.52 198.959 901.358 Q199.977 901.173 200.996 901.173 Q206.783 901.173 210.162 904.344 Q213.542 907.516 213.542 912.932 Q213.542 918.511 210.07 921.613 Q206.598 924.692 200.278 924.692 Q198.102 924.692 195.834 924.321 Q193.588 923.951 191.181 923.21 L191.181 918.511 Q193.264 919.645 195.487 920.201 Q197.709 920.756 200.186 920.756 Q204.19 920.756 206.528 918.65 Q208.866 916.543 208.866 912.932 Q208.866 909.321 206.528 907.215 Q204.19 905.108 200.186 905.108 Q198.311 905.108 196.436 905.525 Q194.584 905.942 192.639 906.821 L192.639 889.46 Z" fill="#000000" fill-rule="evenodd" fill-opacity="1" /><path clip-path="url(#clip790)" d="M126.205 615.737 Q122.593 615.737 120.765 619.302 Q118.959 622.844 118.959 629.973 Q118.959 637.08 120.765 640.644 Q122.593 644.186 126.205 644.186 Q129.839 644.186 131.644 640.644 Q133.473 637.08 133.473 629.973 Q133.473 622.844 131.644 619.302 Q129.839 615.737 126.205 615.737 M126.205 612.033 Q132.015 612.033 135.07 616.64 Q138.149 621.223 138.149 629.973 Q138.149 638.7 135.07 643.306 Q132.015 647.89 126.205 647.89 Q120.394 647.89 117.316 643.306 Q114.26 638.7 114.26 629.973 Q114.26 621.223 117.316 616.64 Q120.394 612.033 126.205 612.033 Z" fill="#000000" fill-rule="evenodd" fill-opacity="1" /><path clip-path="url(#clip790)" d="M146.366 641.339 L151.251 641.339 L151.251 647.218 L146.366 647.218 L146.366 641.339 Z" fill="#000000" fill-rule="evenodd" fill-opacity="1" /><path clip-path="url(#clip790)" d="M161.482 612.658 L179.839 612.658 L179.839 616.594 L165.765 616.594 L165.765 625.066 Q166.783 624.719 167.802 624.556 Q168.82 624.371 169.839 624.371 Q175.626 624.371 179.005 627.543 Q182.385 630.714 182.385 636.13 Q182.385 641.709 178.913 644.811 Q175.44 647.89 169.121 647.89 Q166.945 647.89 164.677 647.519 Q162.431 647.149 160.024 646.408 L160.024 641.709 Q162.107 642.843 164.329 643.399 Q166.552 643.955 169.028 643.955 Q173.033 643.955 175.371 641.848 Q177.709 639.742 177.709 636.13 Q177.709 632.519 175.371 630.413 Q173.033 628.306 169.028 628.306 Q167.153 628.306 165.278 628.723 Q163.427 629.14 161.482 630.019 L161.482 612.658 Z" fill="#000000" fill-rule="evenodd" fill-opacity="1" /><path clip-path="url(#clip790)" d="M201.598 615.737 Q197.987 615.737 196.158 619.302 Q194.352 622.844 194.352 629.973 Q194.352 637.08 196.158 640.644 Q197.987 644.186 201.598 644.186 Q205.232 644.186 207.037 640.644 Q208.866 637.08 208.866 629.973 Q208.866 622.844 207.037 619.302 Q205.232 615.737 201.598 615.737 M201.598 612.033 Q207.408 612.033 210.463 616.64 Q213.542 621.223 213.542 629.973 Q213.542 638.7 210.463 643.306 Q207.408 647.89 201.598 647.89 Q195.787 647.89 192.709 643.306 Q189.653 638.7 189.653 629.973 Q189.653 621.223 192.709 616.64 Q195.787 612.033 201.598 612.033 Z" fill="#000000" fill-rule="evenodd" fill-opacity="1" /><path clip-path="url(#clip790)" d="M127.2 338.935 Q123.589 338.935 121.76 342.5 Q119.955 346.042 119.955 353.171 Q119.955 360.278 121.76 363.842 Q123.589 367.384 127.2 367.384 Q130.834 367.384 132.64 363.842 Q134.468 360.278 134.468 353.171 Q134.468 346.042 132.64 342.5 Q130.834 338.935 127.2 338.935 M127.2 335.231 Q133.01 335.231 136.066 339.838 Q139.144 344.421 139.144 353.171 Q139.144 361.898 136.066 366.504 Q133.01 371.088 127.2 371.088 Q121.39 371.088 118.311 366.504 Q115.256 361.898 115.256 353.171 Q115.256 344.421 118.311 339.838 Q121.39 335.231 127.2 335.231 Z" fill="#000000" fill-rule="evenodd" fill-opacity="1" /><path clip-path="url(#clip790)" d="M147.362 364.537 L152.246 364.537 L152.246 370.416 L147.362 370.416 L147.362 364.537 Z" fill="#000000" fill-rule="evenodd" fill-opacity="1" /><path clip-path="url(#clip790)" d="M161.251 335.856 L183.473 335.856 L183.473 337.847 L170.927 370.416 L166.042 370.416 L177.848 339.792 L161.251 339.792 L161.251 335.856 Z" fill="#000000" fill-rule="evenodd" fill-opacity="1" /><path clip-path="url(#clip790)" d="M192.639 335.856 L210.996 335.856 L210.996 339.792 L196.922 339.792 L196.922 348.264 Q197.94 347.917 198.959 347.755 Q199.977 347.569 200.996 347.569 Q206.783 347.569 210.162 350.741 Q213.542 353.912 213.542 359.329 Q213.542 364.907 210.07 368.009 Q206.598 371.088 200.278 371.088 Q198.102 371.088 195.834 370.717 Q193.588 370.347 191.181 369.606 L191.181 364.907 Q193.264 366.042 195.487 366.597 Q197.709 367.153 200.186 367.153 Q204.19 367.153 206.528 365.046 Q208.866 362.94 208.866 359.329 Q208.866 355.717 206.528 353.611 Q204.19 351.505 200.186 351.505 Q198.311 351.505 196.436 351.921 Q194.584 352.338 192.639 353.217 L192.639 335.856 Z" fill="#000000" fill-rule="evenodd" fill-opacity="1" /><path clip-path="url(#clip790)" d="M20.1444 773.66 L26.9239 773.66 Q23.9002 776.907 22.4043 780.599 Q20.9083 784.259 20.9083 788.397 Q20.9083 796.545 25.9054 800.874 Q30.8707 805.202 40.2919 805.202 Q49.6813 805.202 54.6784 800.874 Q59.6436 796.545 59.6436 788.397 Q59.6436 784.259 58.1477 780.599 Q56.6518 776.907 53.6281 773.66 L60.3439 773.66 Q62.6355 777.034 63.7814 780.822 Q64.9272 784.577 64.9272 788.779 Q64.9272 799.569 58.3387 805.775 Q51.7183 811.982 40.2919 811.982 Q28.8336 811.982 22.2451 805.775 Q15.6248 799.569 15.6248 788.779 Q15.6248 784.514 16.7706 780.758 Q17.8846 776.97 20.1444 773.66 Z" fill="#000000" fill-rule="evenodd" fill-opacity="1" /><path clip-path="url(#clip790)" d="M33.7671 740.527 L14.479 740.527 L14.479 734.67 L64.0042 734.67 L64.0042 740.527 L58.657 740.527 Q61.8398 742.373 63.3994 745.205 Q64.9272 748.006 64.9272 751.953 Q64.9272 758.414 59.771 762.488 Q54.6147 766.531 46.212 766.531 Q37.8093 766.531 32.6531 762.488 Q27.4968 758.414 27.4968 751.953 Q27.4968 748.006 29.0564 745.205 Q30.5842 742.373 33.7671 740.527 M46.212 760.483 Q52.6732 760.483 56.3653 757.841 Q60.0256 755.168 60.0256 750.521 Q60.0256 745.874 56.3653 743.2 Q52.6732 740.527 46.212 740.527 Q39.7508 740.527 36.0905 743.2 Q32.3984 745.874 32.3984 750.521 Q32.3984 755.168 36.0905 757.841 Q39.7508 760.483 46.212 760.483 Z" fill="#000000" fill-rule="evenodd" fill-opacity="1" /><path clip-path="url(#clip790)" d="M338.978 44.2197 Q341.611 45.1109 344.082 48.0275 Q346.594 50.9442 349.105 56.0483 L357.41 72.576 L348.619 72.576 L340.882 57.061 Q337.884 50.9847 335.049 48.9997 Q332.254 47.0148 327.393 47.0148 L318.481 47.0148 L318.481 72.576 L310.298 72.576 L310.298 12.096 L328.77 12.096 Q339.14 12.096 344.244 16.4305 Q349.349 20.7649 349.349 29.5149 Q349.349 35.2267 346.675 38.994 Q344.042 42.7613 338.978 44.2197 M318.481 18.8205 L318.481 40.2903 L328.77 40.2903 Q334.684 40.2903 337.682 37.5762 Q340.72 34.8216 340.72 29.5149 Q340.72 24.2082 337.682 21.5346 Q334.684 18.8205 328.77 18.8205 L318.481 18.8205 Z" fill="#000000" fill-rule="evenodd" fill-opacity="1" /><path clip-path="url(#clip790)" d="M402.699 48.0275 L402.699 51.6733 L368.428 51.6733 Q368.914 59.3701 373.046 63.421 Q377.219 67.4314 384.632 67.4314 Q388.926 67.4314 392.936 66.3781 Q396.987 65.3249 400.957 63.2184 L400.957 70.267 Q396.947 71.9684 392.734 72.8596 Q388.521 73.7508 384.186 73.7508 Q373.33 73.7508 366.97 67.4314 Q360.651 61.1119 360.651 50.3365 Q360.651 39.1965 366.646 32.6746 Q372.682 26.1121 382.89 26.1121 Q392.045 26.1121 397.352 32.0264 Q402.699 37.9003 402.699 48.0275 M395.245 45.84 Q395.164 39.7232 391.802 36.0774 Q388.48 32.4315 382.971 32.4315 Q376.733 32.4315 372.965 35.9558 Q369.238 39.4801 368.671 45.8805 L395.245 45.84 Z" fill="#000000" fill-rule="evenodd" fill-opacity="1" /><path clip-path="url(#clip790)" d="M415.905 34.9026 L467.837 34.9026 L467.837 41.7081 L415.905 41.7081 L415.905 34.9026 M415.905 51.4303 L467.837 51.4303 L467.837 58.3168 L415.905 58.3168 L415.905 51.4303 Z" fill="#000000" fill-rule="evenodd" fill-opacity="1" /><path clip-path="url(#clip790)" d="M486.917 65.6895 L500.285 65.6895 L500.285 19.5497 L485.742 22.4663 L485.742 15.0127 L500.204 12.096 L508.387 12.096 L508.387 65.6895 L521.755 65.6895 L521.755 72.576 L486.917 72.576 L486.917 65.6895 Z" fill="#000000" fill-rule="evenodd" fill-opacity="1" /><path clip-path="url(#clip790)" d="M555.783 17.4837 Q549.463 17.4837 546.263 23.7221 Q543.103 29.92 543.103 42.3968 Q543.103 54.833 546.263 61.0714 Q549.463 67.2693 555.783 67.2693 Q562.143 67.2693 565.302 61.0714 Q568.502 54.833 568.502 42.3968 Q568.502 29.92 565.302 23.7221 Q562.143 17.4837 555.783 17.4837 M555.783 11.0023 Q565.95 11.0023 571.298 19.0636 Q576.685 27.0843 576.685 42.3968 Q576.685 57.6687 571.298 65.73 Q565.95 73.7508 555.783 73.7508 Q545.615 73.7508 540.227 65.73 Q534.88 57.6687 534.88 42.3968 Q534.88 27.0843 540.227 19.0636 Q545.615 11.0023 555.783 11.0023 Z" fill="#000000" fill-rule="evenodd" fill-opacity="1" /><path clip-path="url(#clip790)" d="M608.566 17.4837 Q602.246 17.4837 599.046 23.7221 Q595.887 29.92 595.887 42.3968 Q595.887 54.833 599.046 61.0714 Q602.246 67.2693 608.566 67.2693 Q614.926 67.2693 618.085 61.0714 Q621.286 54.833 621.286 42.3968 Q621.286 29.92 618.085 23.7221 Q614.926 17.4837 608.566 17.4837 M608.566 11.0023 Q618.734 11.0023 624.081 19.0636 Q629.469 27.0843 629.469 42.3968 Q629.469 57.6687 624.081 65.73 Q618.734 73.7508 608.566 73.7508 Q598.398 73.7508 593.01 65.73 Q587.663 57.6687 587.663 42.3968 Q587.663 27.0843 593.01 19.0636 Q598.398 11.0023 608.566 11.0023 Z" fill="#000000" fill-rule="evenodd" fill-opacity="1" /><path clip-path="url(#clip790)" d="M661.349 17.4837 Q655.03 17.4837 651.83 23.7221 Q648.67 29.92 648.67 42.3968 Q648.67 54.833 651.83 61.0714 Q655.03 67.2693 661.349 67.2693 Q667.709 67.2693 670.869 61.0714 Q674.069 54.833 674.069 42.3968 Q674.069 29.92 670.869 23.7221 Q667.709 17.4837 661.349 17.4837 M661.349 11.0023 Q671.517 11.0023 676.864 19.0636 Q682.252 27.0843 682.252 42.3968 Q682.252 57.6687 676.864 65.73 Q671.517 73.7508 661.349 73.7508 Q651.181 73.7508 645.794 65.73 Q640.446 57.6687 640.446 42.3968 Q640.446 27.0843 645.794 19.0636 Q651.181 11.0023 661.349 11.0023 Z" fill="#000000" fill-rule="evenodd" fill-opacity="1" /><path clip-path="url(#clip790)" d="M714.132 17.4837 Q707.813 17.4837 704.613 23.7221 Q701.453 29.92 701.453 42.3968 Q701.453 54.833 704.613 61.0714 Q707.813 67.2693 714.132 67.2693 Q720.492 67.2693 723.652 61.0714 Q726.852 54.833 726.852 42.3968 Q726.852 29.92 723.652 23.7221 Q720.492 17.4837 714.132 17.4837 M714.132 11.0023 Q724.3 11.0023 729.647 19.0636 Q735.035 27.0843 735.035 42.3968 Q735.035 57.6687 729.647 65.73 Q724.3 73.7508 714.132 73.7508 Q703.965 73.7508 698.577 65.73 Q693.23 57.6687 693.23 42.3968 Q693.23 27.0843 698.577 19.0636 Q703.965 11.0023 714.132 11.0023 Z" fill="#000000" fill-rule="evenodd" fill-opacity="1" /><path clip-path="url(#clip790)" d="M766.916 17.4837 Q760.596 17.4837 757.396 23.7221 Q754.236 29.92 754.236 42.3968 Q754.236 54.833 757.396 61.0714 Q760.596 67.2693 766.916 67.2693 Q773.276 67.2693 776.435 61.0714 Q779.636 54.833 779.636 42.3968 Q779.636 29.92 776.435 23.7221 Q773.276 17.4837 766.916 17.4837 M766.916 11.0023 Q777.083 11.0023 782.431 19.0636 Q787.818 27.0843 787.818 42.3968 Q787.818 57.6687 782.431 65.73 Q777.083 73.7508 766.916 73.7508 Q756.748 73.7508 751.36 65.73 Q746.013 57.6687 746.013 42.3968 Q746.013 27.0843 751.36 19.0636 Q756.748 11.0023 766.916 11.0023 Z" fill="#000000" fill-rule="evenodd" fill-opacity="1" /><path clip-path="url(#clip790)" d="M802.199 62.2867 L810.747 62.2867 L810.747 72.576 L802.199 72.576 L802.199 62.2867 Z" fill="#000000" fill-rule="evenodd" fill-opacity="1" /><path clip-path="url(#clip790)" d="M846.07 17.4837 Q839.751 17.4837 836.551 23.7221 Q833.391 29.92 833.391 42.3968 Q833.391 54.833 836.551 61.0714 Q839.751 67.2693 846.07 67.2693 Q852.43 67.2693 855.59 61.0714 Q858.79 54.833 858.79 42.3968 Q858.79 29.92 855.59 23.7221 Q852.43 17.4837 846.07 17.4837 M846.07 11.0023 Q856.238 11.0023 861.585 19.0636 Q866.973 27.0843 866.973 42.3968 Q866.973 57.6687 861.585 65.73 Q856.238 73.7508 846.07 73.7508 Q835.903 73.7508 830.515 65.73 Q825.168 57.6687 825.168 42.3968 Q825.168 27.0843 830.515 19.0636 Q835.903 11.0023 846.07 11.0023 Z" fill="#000000" fill-rule="evenodd" fill-opacity="1" /><path clip-path="url(#clip790)" d="M927.291 49.7694 Q918.258 49.7694 914.774 51.8354 Q911.29 53.9013 911.29 58.8839 Q911.29 62.8538 913.883 65.2034 Q916.516 67.5124 921.012 67.5124 Q927.21 67.5124 930.937 63.1374 Q934.704 58.7219 934.704 51.4303 L934.704 49.7694 L927.291 49.7694 M942.158 46.6907 L942.158 72.576 L934.704 72.576 L934.704 65.6895 Q932.152 69.8214 928.344 71.8063 Q924.536 73.7508 919.027 73.7508 Q912.06 73.7508 907.928 69.8619 Q903.836 65.9325 903.836 59.3701 Q903.836 51.7138 908.94 47.825 Q914.085 43.9361 924.253 43.9361 L934.704 43.9361 L934.704 43.2069 Q934.704 38.0623 931.301 35.2672 Q927.939 32.4315 921.822 32.4315 Q917.933 32.4315 914.247 33.3632 Q910.561 34.295 907.158 36.1584 L907.158 29.2718 Q911.249 27.692 915.098 26.9223 Q918.946 26.1121 922.592 26.1121 Q932.436 26.1121 937.297 31.2163 Q942.158 36.3204 942.158 46.6907 Z" fill="#000000" fill-rule="evenodd" fill-opacity="1" /><path clip-path="url(#clip790)" d="M958.483 34.9026 L1010.42 34.9026 L1010.42 41.7081 L958.483 41.7081 L958.483 34.9026 M958.483 51.4303 L1010.42 51.4303 L1010.42 58.3168 L958.483 58.3168 L958.483 51.4303 Z" fill="#000000" fill-rule="evenodd" fill-opacity="1" /><path clip-path="url(#clip790)" d="M1045.58 17.4837 Q1039.26 17.4837 1036.06 23.7221 Q1032.9 29.92 1032.9 42.3968 Q1032.9 54.833 1036.06 61.0714 Q1039.26 67.2693 1045.58 67.2693 Q1051.94 67.2693 1055.1 61.0714 Q1058.3 54.833 1058.3 42.3968 Q1058.3 29.92 1055.1 23.7221 Q1051.94 17.4837 1045.58 17.4837 M1045.58 11.0023 Q1055.75 11.0023 1061.09 19.0636 Q1066.48 27.0843 1066.48 42.3968 Q1066.48 57.6687 1061.09 65.73 Q1055.75 73.7508 1045.58 73.7508 Q1035.41 73.7508 1030.02 65.73 Q1024.67 57.6687 1024.67 42.3968 Q1024.67 27.0843 1030.02 19.0636 Q1035.41 11.0023 1045.58 11.0023 Z" fill="#000000" fill-rule="evenodd" fill-opacity="1" /><path clip-path="url(#clip790)" d="M1080.86 62.2867 L1089.41 62.2867 L1089.41 72.576 L1080.86 72.576 L1080.86 62.2867 Z" fill="#000000" fill-rule="evenodd" fill-opacity="1" /><path clip-path="url(#clip790)" d="M1114.28 65.6895 L1142.84 65.6895 L1142.84 72.576 L1104.44 72.576 L1104.44 65.6895 Q1109.1 60.8689 1117.12 52.7671 Q1125.18 44.6248 1127.24 42.2752 Q1131.17 37.8598 1132.71 34.8216 Q1134.29 31.7429 1134.29 28.7857 Q1134.29 23.9651 1130.89 20.927 Q1127.53 17.8888 1122.1 17.8888 Q1118.25 17.8888 1113.96 19.2256 Q1109.7 20.5624 1104.84 23.2765 L1104.84 15.0127 Q1109.78 13.0277 1114.08 12.015 Q1118.37 11.0023 1121.94 11.0023 Q1131.34 11.0023 1136.93 15.7013 Q1142.52 20.4004 1142.52 28.2591 Q1142.52 31.9859 1141.1 35.3482 Q1139.72 38.6699 1136.03 43.2069 Q1135.02 44.3817 1129.59 50.0125 Q1124.16 55.6027 1114.28 65.6895 Z" fill="#000000" fill-rule="evenodd" fill-opacity="1" /><path clip-path="url(#clip790)" d="M1160.1 12.096 L1192.22 12.096 L1192.22 18.9825 L1167.59 18.9825 L1167.59 33.8088 Q1169.37 33.2012 1171.16 32.9176 Q1172.94 32.5936 1174.72 32.5936 Q1184.85 32.5936 1190.76 38.1433 Q1196.68 43.6931 1196.68 53.1722 Q1196.68 62.9348 1190.6 68.3631 Q1184.52 73.7508 1173.46 73.7508 Q1169.66 73.7508 1165.69 73.1026 Q1161.76 72.4545 1157.54 71.1582 L1157.54 62.9348 Q1161.19 64.9198 1165.08 65.892 Q1168.97 66.8642 1173.3 66.8642 Q1180.31 66.8642 1184.4 63.1779 Q1188.49 59.4916 1188.49 53.1722 Q1188.49 46.8528 1184.4 43.1664 Q1180.31 39.4801 1173.3 39.4801 Q1170.02 39.4801 1166.74 40.2093 Q1163.5 40.9384 1160.1 42.4778 L1160.1 12.096 Z" fill="#000000" fill-rule="evenodd" fill-opacity="1" /><path clip-path="url(#clip790)" d="M1261.09 9.54393 L1261.09 15.7418 L1253.96 15.7418 Q1249.95 15.7418 1248.37 17.3622 Q1246.83 18.9825 1246.83 23.1955 L1246.83 27.2059 L1259.1 27.2059 L1259.1 32.9987 L1246.83 32.9987 L1246.83 72.576 L1239.33 72.576 L1239.33 32.9987 L1232.2 32.9987 L1232.2 27.2059 L1239.33 27.2059 L1239.33 24.0462 Q1239.33 16.471 1242.86 13.0277 Q1246.38 9.54393 1254.04 9.54393 L1261.09 9.54393 Z" fill="#000000" fill-rule="evenodd" fill-opacity="1" /><path clip-path="url(#clip790)" d="M1268.3 34.9026 L1320.23 34.9026 L1320.23 41.7081 L1268.3 41.7081 L1268.3 34.9026 M1268.3 51.4303 L1320.23 51.4303 L1320.23 58.3168 L1268.3 58.3168 L1268.3 51.4303 Z" fill="#000000" fill-rule="evenodd" fill-opacity="1" /><path clip-path="url(#clip790)" d="M1355.39 17.4837 Q1349.07 17.4837 1345.87 23.7221 Q1342.71 29.92 1342.71 42.3968 Q1342.71 54.833 1345.87 61.0714 Q1349.07 67.2693 1355.39 67.2693 Q1361.75 67.2693 1364.91 61.0714 Q1368.11 54.833 1368.11 42.3968 Q1368.11 29.92 1364.91 23.7221 Q1361.75 17.4837 1355.39 17.4837 M1355.39 11.0023 Q1365.56 11.0023 1370.91 19.0636 Q1376.29 27.0843 1376.29 42.3968 Q1376.29 57.6687 1370.91 65.73 Q1365.56 73.7508 1355.39 73.7508 Q1345.22 73.7508 1339.84 65.73 Q1334.49 57.6687 1334.49 42.3968 Q1334.49 27.0843 1339.84 19.0636 Q1345.22 11.0023 1355.39 11.0023 Z" fill="#000000" fill-rule="evenodd" fill-opacity="1" /><path clip-path="url(#clip790)" d="M1390.67 62.2867 L1399.22 62.2867 L1399.22 72.576 L1390.67 72.576 L1390.67 62.2867 Z" fill="#000000" fill-rule="evenodd" fill-opacity="1" /><path clip-path="url(#clip790)" d="M1417.13 12.096 L1449.25 12.096 L1449.25 18.9825 L1424.62 18.9825 L1424.62 33.8088 Q1426.4 33.2012 1428.19 32.9176 Q1429.97 32.5936 1431.75 32.5936 Q1441.88 32.5936 1447.79 38.1433 Q1453.71 43.6931 1453.71 53.1722 Q1453.71 62.9348 1447.63 68.3631 Q1441.55 73.7508 1430.49 73.7508 Q1426.69 73.7508 1422.72 73.1026 Q1418.79 72.4545 1414.57 71.1582 L1414.57 62.9348 Q1418.22 64.9198 1422.11 65.892 Q1426 66.8642 1430.33 66.8642 Q1437.34 66.8642 1441.43 63.1779 Q1445.52 59.4916 1445.52 53.1722 Q1445.52 46.8528 1441.43 43.1664 Q1437.34 39.4801 1430.33 39.4801 Q1427.05 39.4801 1423.77 40.2093 Q1420.53 40.9384 1417.13 42.4778 L1417.13 12.096 Z" fill="#000000" fill-rule="evenodd" fill-opacity="1" /><path clip-path="url(#clip790)" d="M1521.6 51.4708 L1519.82 42.1132 Q1517.99 32.5126 1510.78 32.5126 Q1505.36 32.5126 1502.88 36.9686 Q1499.76 42.5588 1499.76 49.9314 Q1499.76 58.8434 1502.8 63.0969 Q1505.88 67.4314 1510.78 67.4314 Q1516.21 67.4314 1519.13 58.8029 L1521.6 51.4708 M1525.77 39.075 L1529.78 27.2059 L1536.43 27.2059 L1528.12 51.7949 L1529.74 60.6663 Q1530.11 62.6513 1531.52 64.3122 Q1533.18 66.2566 1534.48 66.2566 L1538.05 66.2566 L1538.05 72.576 L1533.59 72.576 Q1529.78 72.576 1526.38 69.1732 Q1524.72 67.4719 1524.03 63.9071 Q1522.17 68.4036 1518.36 71.9279 Q1516.58 73.5887 1510.78 73.5887 Q1501.26 73.5887 1496.65 67.4314 Q1491.91 61.0714 1491.91 49.9314 Q1491.91 38.0218 1497.05 32.4315 Q1502.76 26.1931 1510.78 26.1931 Q1523.38 26.1931 1525.77 39.075 Z" fill="#000000" fill-rule="evenodd" fill-opacity="1" /><path clip-path="url(#clip790)" d="M1569.97 58.2358 L1569.97 72.576 L1565.27 72.576 L1565.27 57.3851 Q1565.27 53.6988 1563.81 51.9569 Q1562.35 50.1745 1559.31 50.1745 Q1555.71 50.1745 1553.6 52.362 Q1551.49 54.509 1551.49 58.2358 L1551.49 72.576 L1546.76 72.576 L1546.76 47.1768 L1551.49 47.1768 L1551.49 51.1062 Q1553.07 48.7972 1555.3 47.7034 Q1557.57 46.5692 1560.69 46.5692 Q1563.77 46.5692 1565.96 47.987 Q1568.14 49.3643 1569.2 52.0379 Q1570.94 49.2428 1573.37 47.906 Q1575.84 46.5692 1579.16 46.5692 Q1583.66 46.5692 1586.05 49.3643 Q1588.48 52.1189 1588.48 57.2231 L1588.48 72.576 L1583.78 72.576 L1583.78 57.3851 Q1583.78 53.7393 1582.32 51.9569 Q1580.86 50.1745 1577.87 50.1745 Q1574.22 50.1745 1572.07 52.362 Q1569.97 54.509 1569.97 58.2358 Z" fill="#000000" fill-rule="evenodd" fill-opacity="1" /><path clip-path="url(#clip790)" d="M1623.07 58.8434 L1623.07 60.8689 L1601.48 60.8689 Q1601.81 65.1628 1604.4 67.4314 Q1607.03 69.6999 1611.69 69.6999 Q1614.41 69.6999 1616.96 69.0922 Q1619.47 68.5251 1621.98 67.3503 L1621.98 71.2797 Q1619.47 72.2519 1616.8 72.738 Q1614.16 73.2241 1611.41 73.2241 Q1604.56 73.2241 1600.59 69.6999 Q1596.58 66.1756 1596.58 60.1397 Q1596.58 53.9013 1600.39 50.215 Q1604.16 46.5692 1610.6 46.5692 Q1616.35 46.5692 1619.71 49.8504 Q1623.07 53.1722 1623.07 58.8434 M1618.38 57.5877 Q1618.33 54.1849 1616.23 52.1189 Q1614.12 50.0935 1610.64 50.0935 Q1606.71 50.0935 1604.36 52.0784 Q1602.01 54.0229 1601.65 57.5877 L1618.38 57.5877 Z" fill="#000000" fill-rule="evenodd" fill-opacity="1" /><path clip-path="url(#clip790)" d="M1646.2 59.8157 Q1640.53 59.8157 1638.35 60.9499 Q1636.12 62.1247 1636.12 64.9198 Q1636.12 67.1478 1637.78 68.4441 Q1639.44 69.7404 1642.28 69.7404 Q1646.16 69.7404 1648.51 67.2693 Q1650.9 64.7983 1650.9 60.7474 L1650.9 59.8157 L1646.2 59.8157 M1655.56 58.0738 L1655.56 72.576 L1650.9 72.576 L1650.9 68.7276 Q1649.28 71.0367 1646.89 72.1304 Q1644.46 73.2241 1641.02 73.2241 Q1636.6 73.2241 1634.01 71.0367 Q1631.42 68.8492 1631.42 65.1628 Q1631.42 60.9094 1634.66 58.7219 Q1637.9 56.5344 1644.3 56.5344 L1650.9 56.5344 L1650.9 56.1293 Q1650.9 53.2532 1648.76 51.6733 Q1646.61 50.0935 1642.76 50.0935 Q1640.33 50.0935 1637.98 50.6201 Q1635.67 51.1467 1633.53 52.2 L1633.53 48.3111 Q1636.12 47.4604 1638.55 47.0148 Q1640.94 46.5692 1643.25 46.5692 Q1649.45 46.5692 1652.52 49.4048 Q1655.56 52.281 1655.56 58.0738 Z" fill="#000000" fill-rule="evenodd" fill-opacity="1" /><path clip-path="url(#clip790)" d="M1689.47 57.2231 L1689.47 72.576 L1684.77 72.576 L1684.77 57.3851 Q1684.77 53.7798 1683.19 51.9974 Q1681.61 50.1745 1678.45 50.1745 Q1674.64 50.1745 1672.45 52.362 Q1670.27 54.509 1670.27 58.2358 L1670.27 72.576 L1665.53 72.576 L1665.53 47.1768 L1670.27 47.1768 L1670.27 51.1062 Q1671.93 48.8377 1674.2 47.7034 Q1676.51 46.5692 1679.5 46.5692 Q1684.41 46.5692 1686.92 49.2833 Q1689.47 51.9974 1689.47 57.2231 Z" fill="#000000" fill-rule="evenodd" fill-opacity="1" /><path clip-path="url(#clip790)" d="M1702.63 34.9026 L1754.57 34.9026 L1754.57 41.7081 L1702.63 41.7081 L1702.63 34.9026 M1702.63 51.4303 L1754.57 51.4303 L1754.57 58.3168 L1702.63 58.3168 L1702.63 51.4303 Z" fill="#000000" fill-rule="evenodd" fill-opacity="1" /><path clip-path="url(#clip790)" d="M1794.71 19.2256 L1774.05 51.5113 L1794.71 51.5113 L1794.71 19.2256 M1792.56 12.096 L1802.85 12.096 L1802.85 51.5113 L1811.48 51.5113 L1811.48 58.3168 L1802.85 58.3168 L1802.85 72.576 L1794.71 72.576 L1794.71 58.3168 L1767.41 58.3168 L1767.41 50.4176 L1792.56 12.096 Z" fill="#000000" fill-rule="evenodd" fill-opacity="1" /><path clip-path="url(#clip790)" d="M1825.01 62.2867 L1833.56 62.2867 L1833.56 72.576 L1825.01 72.576 L1825.01 62.2867 Z" fill="#000000" fill-rule="evenodd" fill-opacity="1" /><path clip-path="url(#clip790)" d="M1868.88 17.4837 Q1862.56 17.4837 1859.36 23.7221 Q1856.2 29.92 1856.2 42.3968 Q1856.2 54.833 1859.36 61.0714 Q1862.56 67.2693 1868.88 67.2693 Q1875.24 67.2693 1878.4 61.0714 Q1881.6 54.833 1881.6 42.3968 Q1881.6 29.92 1878.4 23.7221 Q1875.24 17.4837 1868.88 17.4837 M1868.88 11.0023 Q1879.05 11.0023 1884.4 19.0636 Q1889.79 27.0843 1889.79 42.3968 Q1889.79 57.6687 1884.4 65.73 Q1879.05 73.7508 1868.88 73.7508 Q1858.72 73.7508 1853.33 65.73 Q1847.98 57.6687 1847.98 42.3968 Q1847.98 27.0843 1853.33 19.0636 Q1858.72 11.0023 1868.88 11.0023 Z" fill="#000000" fill-rule="evenodd" fill-opacity="1" /><path clip-path="url(#clip790)" d="M1955.94 51.4708 L1954.15 42.1132 Q1952.33 32.5126 1945.12 32.5126 Q1939.69 32.5126 1937.22 36.9686 Q1934.1 42.5588 1934.1 49.9314 Q1934.1 58.8434 1937.14 63.0969 Q1940.22 67.4314 1945.12 67.4314 Q1950.55 67.4314 1953.47 58.8029 L1955.94 51.4708 M1960.11 39.075 L1964.12 27.2059 L1970.76 27.2059 L1962.46 51.7949 L1964.08 60.6663 Q1964.44 62.6513 1965.86 64.3122 Q1967.52 66.2566 1968.82 66.2566 L1972.38 66.2566 L1972.38 72.576 L1967.93 72.576 Q1964.12 72.576 1960.72 69.1732 Q1959.06 67.4719 1958.37 63.9071 Q1956.5 68.4036 1952.7 71.9279 Q1950.91 73.5887 1945.12 73.5887 Q1935.6 73.5887 1930.98 67.4314 Q1926.24 61.0714 1926.24 49.9314 Q1926.24 38.0218 1931.39 32.4315 Q1937.1 26.1931 1945.12 26.1931 Q1957.72 26.1931 1960.11 39.075 Z" fill="#000000" fill-rule="evenodd" fill-opacity="1" /><path clip-path="url(#clip790)" d="M1994.26 59.8157 Q1988.59 59.8157 1986.4 60.9499 Q1984.17 62.1247 1984.17 64.9198 Q1984.17 67.1478 1985.83 68.4441 Q1987.49 69.7404 1990.33 69.7404 Q1994.22 69.7404 1996.57 67.2693 Q1998.96 64.7983 1998.96 60.7474 L1998.96 59.8157 L1994.26 59.8157 M2003.62 58.0738 L2003.62 72.576 L1998.96 72.576 L1998.96 68.7276 Q1997.34 71.0367 1994.95 72.1304 Q1992.52 73.2241 1989.07 73.2241 Q1984.66 73.2241 1982.07 71.0367 Q1979.47 68.8492 1979.47 65.1628 Q1979.47 60.9094 1982.71 58.7219 Q1985.95 56.5344 1992.35 56.5344 L1998.96 56.5344 L1998.96 56.1293 Q1998.96 53.2532 1996.81 51.6733 Q1994.66 50.0935 1990.82 50.0935 Q1988.38 50.0935 1986.04 50.6201 Q1983.73 51.1467 1981.58 52.2 L1981.58 48.3111 Q1984.17 47.4604 1986.6 47.0148 Q1988.99 46.5692 1991.3 46.5692 Q1997.5 46.5692 2000.58 49.4048 Q2003.62 52.281 2003.62 58.0738 Z" fill="#000000" fill-rule="evenodd" fill-opacity="1" /><path clip-path="url(#clip790)" d="M2036.79 58.2358 L2036.79 72.576 L2032.09 72.576 L2032.09 57.3851 Q2032.09 53.6988 2030.64 51.9569 Q2029.18 50.1745 2026.14 50.1745 Q2022.53 50.1745 2020.43 52.362 Q2018.32 54.509 2018.32 58.2358 L2018.32 72.576 L2013.58 72.576 L2013.58 47.1768 L2018.32 47.1768 L2018.32 51.1062 Q2019.9 48.7972 2022.13 47.7034 Q2024.4 46.5692 2027.52 46.5692 Q2030.6 46.5692 2032.78 47.987 Q2034.97 49.3643 2036.02 52.0379 Q2037.77 49.2428 2040.2 47.906 Q2042.67 46.5692 2045.99 46.5692 Q2050.49 46.5692 2052.88 49.3643 Q2055.31 52.1189 2055.31 57.2231 L2055.31 72.576 L2050.61 72.576 L2050.61 57.3851 Q2050.61 53.7393 2049.15 51.9569 Q2047.69 50.1745 2044.69 50.1745 Q2041.05 50.1745 2038.9 52.362 Q2036.79 54.509 2036.79 58.2358 Z" fill="#000000" fill-rule="evenodd" fill-opacity="1" /><path clip-path="url(#clip790)" d="M2070.01 68.7682 L2070.01 82.2577 L2065.27 82.2577 L2065.27 47.1768 L2070.01 47.1768 L2070.01 51.0252 Q2071.47 48.7567 2073.74 47.6629 Q2076.01 46.5692 2079.13 46.5692 Q2084.35 46.5692 2087.59 50.215 Q2090.83 53.9013 2090.83 59.8967 Q2090.83 65.892 2087.59 69.5783 Q2084.35 73.2241 2079.13 73.2241 Q2076.01 73.2241 2073.74 72.1304 Q2071.47 71.0367 2070.01 68.7682 M2083.86 67.1073 Q2085.97 64.5147 2085.97 59.8967 Q2085.97 55.2786 2083.86 52.6861 Q2081.72 50.053 2077.99 50.053 Q2074.26 50.053 2072.12 52.6861 Q2070.01 55.2786 2070.01 59.8967 Q2070.01 64.5147 2072.12 67.1073 Q2074.26 69.7404 2077.99 69.7404 Q2081.72 69.7404 2083.86 67.1073 Z" fill="#000000" fill-rule="evenodd" fill-opacity="1" /><path clip-path="url(#clip790)" d="M2104.85 34.9026 L2156.78 34.9026 L2156.78 41.7081 L2104.85 41.7081 L2104.85 34.9026 M2104.85 51.4303 L2156.78 51.4303 L2156.78 58.3168 L2104.85 58.3168 L2104.85 51.4303 Z" fill="#000000" fill-rule="evenodd" fill-opacity="1" /><path clip-path="url(#clip790)" d="M2196.93 19.2256 L2176.27 51.5113 L2196.93 51.5113 L2196.93 19.2256 M2194.78 12.096 L2205.07 12.096 L2205.07 51.5113 L2213.7 51.5113 L2213.7 58.3168 L2205.07 58.3168 L2205.07 72.576 L2196.93 72.576 L2196.93 58.3168 L2169.62 58.3168 L2169.62 50.4176 L2194.78 12.096 Z" fill="#000000" fill-rule="evenodd" fill-opacity="1" /><path clip-path="url(#clip790)" d="M2227.23 62.2867 L2235.77 62.2867 L2235.77 72.576 L2227.23 72.576 L2227.23 62.2867 Z" fill="#000000" fill-rule="evenodd" fill-opacity="1" /><path clip-path="url(#clip790)" d="M2271.1 17.4837 Q2264.78 17.4837 2261.58 23.7221 Q2258.42 29.92 2258.42 42.3968 Q2258.42 54.833 2261.58 61.0714 Q2264.78 67.2693 2271.1 67.2693 Q2277.46 67.2693 2280.62 61.0714 Q2283.82 54.833 2283.82 42.3968 Q2283.82 29.92 2280.62 23.7221 Q2277.46 17.4837 2271.1 17.4837 M2271.1 11.0023 Q2281.27 11.0023 2286.61 19.0636 Q2292 27.0843 2292 42.3968 Q2292 57.6687 2286.61 65.73 Q2281.27 73.7508 2271.1 73.7508 Q2260.93 73.7508 2255.54 65.73 Q2250.19 57.6687 2250.19 42.3968 Q2250.19 27.0843 2255.54 19.0636 Q2260.93 11.0023 2271.1 11.0023 Z" fill="#000000" fill-rule="evenodd" fill-opacity="1" /><polyline clip-path="url(#clip792)" style="stroke:#009af9; stroke-linecap:butt; stroke-linejoin:round; stroke-width:4; stroke-opacity:1; fill:none" points="
  309.067,1183.54 315.703,1324.56 322.339,1289.99 328.975,1191.21 335.611,1112.12 342.247,1125.93 348.883,1173.76 355.519,1201.03 362.155,1204.5 368.791,1230 
  375.427,1292.58 382.063,1320.1 388.699,1313.74 395.335,1245.79 401.971,1155.03 408.607,1145.76 415.243,1194.76 421.879,1205.73 428.515,1208.74 435.151,1240.52 
  441.787,1296.36 448.423,1331.8 455.059,1339.36 461.695,1269.65 468.331,1139.27 474.967,1163.18 481.603,1194.91 488.239,1211.77 494.875,1214.25 501.511,1252.11 
  508.147,1313.86 514.783,1334.56 521.419,1338.15 528.055,1241.95 534.691,1102.71 541.327,1174.21 547.963,1206.19 554.599,1207.91 561.235,1213.28 567.871,1252.9 
  574.507,1312.27 581.143,1312.34 587.779,1327.37 594.415,1216.87 601.051,1071.06 607.687,1146.94 614.323,1194.31 620.959,1215.47 627.595,1218.19 634.231,1230.57 
  640.867,1287.29 647.503,1298.12 654.139,1317.02 660.775,1200.81 667.411,1035.87 674.047,1116.41 680.683,1184.55 687.319,1224.09 693.955,1222.84 700.591,1205.86 
  707.227,1267.69 713.863,1276.53 720.499,1307.87 727.135,1179.02 733.771,1000.37 740.407,1084.28 747.043,1176.95 753.679,1233.45 760.315,1227.13 766.951,1182.8 
  773.587,1251.96 780.223,1273.86 786.859,1297.54 793.495,1152.91 800.131,965.468 806.767,1046.77 813.403,1169.66 820.039,1243.4 826.675,1231.38 833.311,1160.81 
  839.947,1238.72 846.583,1266.74 853.219,1288.03 859.855,1151.88 866.491,936.891 873.127,1006.7 879.763,1167.9 886.399,1253.84 893.035,1235.54 899.671,1144.12 
  906.307,1227 912.943,1272.52 919.579,1279.15 926.215,1123.35 932.851,919.204 939.487,969.618 946.123,1169.94 952.759,1264.63 959.395,1239.87 966.031,1139.49 
  972.667,1187.87 979.303,1285.7 985.939,1270.25 992.575,1091.67 999.211,920.971 1005.85,944.89 1012.48,1176.19 1019.12,1275.63 1025.75,1244.42 1032.39,1110.59 
  1039.03,1144.05 1045.66,1302.11 1052.3,1261.36 1058.93,1115.19 1065.57,880.754 1072.21,947.637 1078.84,1185.94 1085.48,1286.74 1092.11,1249.39 1098.75,1061.95 
  1105.39,1103.88 1112.02,1319.05 1118.66,1252.47 1125.29,1082.02 1131.93,852.578 1138.57,932.698 1145.2,1197.38 1151.84,1297.86 1158.47,1254.35 1165.11,1024.32 
  1171.75,1066.7 1178.38,1339.41 1185.02,1242.98 1191.65,1139.56 1198.29,833.464 1204.93,908.394 1211.56,1200.91 1218.2,1308.77 1224.83,1257.87 1231.47,995.627 
  1238.11,1034.5 1244.74,1364.26 1251.38,1233.02 1258.01,1104.9 1264.65,814.026 1271.29,879.426 1277.92,1192.83 1284.56,1319.41 1291.19,1250.86 1297.83,970.07 
  1304.47,1005.65 1311.1,1262.47 1317.74,1222.49 1324.37,1193.73 1331.01,790.108 1337.65,850.924 1344.28,1248.55 1350.92,1329.69 1357.55,1177.32 1364.19,946.245 
  1370.83,973.027 1377.46,1281.35 1384.1,1210.73 1390.73,1155.15 1397.37,759.848 1404.01,825.588 1410.64,1257.46 1417.28,1339.4 1423.91,1217.38 1430.55,920.565 
  1437.19,931.142 1443.82,1174.06 1450.46,1197.99 1457.09,1113.61 1463.73,765.934 1470.37,808.926 1477,1262.12 1483.64,1348.47 1490.27,1201.64 1496.91,879.533 
  1503.55,894.654 1510.18,1185.45 1516.82,1184.22 1523.45,1068.24 1530.09,773.915 1536.73,815.352 1543.36,1265.76 1550,1356.81 1556.63,1176.21 1563.27,805.46 
  1569.91,877.812 1576.54,1201.75 1583.18,1168.93 1589.81,1013.82 1596.45,796.196 1603.09,853.894 1609.72,1269.64 1616.36,1364.28 1622.99,1146.37 1629.63,692.443 
  1636.27,768.75 1642.9,1101.81 1649.54,1152.19 1656.17,944.524 1662.81,833.339 1669.45,791.605 1676.08,1274.22 1682.72,1370.76 1689.35,1113.76 1695.99,670.242 
  1702.63,802.588 1709.26,1112.96 1715.9,1134.38 1722.53,871.68 1729.17,760.316 1735.81,734.994 1742.44,1279.7 1749.08,1376.25 1755.71,1079.33 1762.35,658.958 
  1768.99,731.896 1775.62,1042.18 1782.26,1115.12 1788.89,781.111 1795.53,683.15 1802.17,688.469 1808.8,1286.56 1815.44,1380.59 1822.07,1044.71 1828.71,667.546 
  1835.35,680.6 1841.98,1042.26 1848.62,1094.5 1855.25,711.204 1861.89,605.916 1868.53,650.462 1875.16,1294.46 1881.8,1383.76 1888.43,1010.99 1895.07,657.613 
  1901.71,652.498 1908.34,1047.6 1914.98,1072.73 1921.61,597.422 1928.25,528.596 1934.89,619.907 1941.52,1303.55 1948.16,1385.68 1954.79,975.515 1961.43,651.986 
  1968.07,645.722 1974.7,1009.11 1981.34,1050.51 1987.97,543.713 1994.61,447.655 2001.25,598.777 2007.88,1314.57 2014.52,1386.4 2021.15,938.277 2027.79,635.273 
  2034.43,650.724 2041.06,1012.74 2047.7,1027.44 2054.33,537.863 2060.97,362.407 2067.61,587.158 2074.24,1326.62 2080.88,1385.9 2087.51,894.852 2094.15,599.777 
  2100.79,652.743 2107.42,1018.05 2114.06,1002.69 2120.69,404.392 2127.33,273.135 2133.97,583.952 2140.6,1339.9 2147.24,1384.37 2153.87,825.176 2160.51,521.644 
  2167.15,655.683 2173.78,1024.74 2180.42,976.209 2187.05,445.248 2193.69,238.851 2200.33,583.739 2206.96,1354.74 2213.6,1381.95 2220.23,540.316 2226.87,408.113 
  2233.51,673.459 2240.14,1012.83 2246.78,948.683 2253.41,549.052 2260.05,160.256 2266.69,575.819 2273.32,1371.14 2279.96,1378.79 2286.59,586.638 2293.23,367.844 
  
  "/>
</svg>
