<?xml version="1.0" encoding="utf-8"?>
<svg xmlns="http://www.w3.org/2000/svg" xmlns:xlink="http://www.w3.org/1999/xlink" width="600" height="400" viewBox="0 0 2400 1600">
<defs>
  <clipPath id="clip710">
    <rect x="0" y="0" width="2400" height="1600"/>
  </clipPath>
</defs>
<path clip-path="url(#clip710)" d="
M0 1600 L2400 1600 L2400 0 L0 0  Z
  " fill="#ffffff" fill-rule="evenodd" fill-opacity="1"/>
<defs>
  <clipPath id="clip711">
    <rect x="480" y="0" width="1681" height="1600"/>
  </clipPath>
</defs>
<path clip-path="url(#clip710)" d="
M211.325 1423.18 L2352.76 1423.18 L2352.76 123.472 L211.325 123.472  Z
  " fill="#ffffff" fill-rule="evenodd" fill-opacity="1"/>
<defs>
  <clipPath id="clip712">
    <rect x="211" y="123" width="2142" height="1301"/>
  </clipPath>
</defs>
<polyline clip-path="url(#clip712)" style="stroke:#000000; stroke-linecap:butt; stroke-linejoin:round; stroke-width:2; stroke-opacity:0.1; fill:none" points="
  271.931,1423.18 271.931,123.472 
  "/>
<polyline clip-path="url(#clip712)" style="stroke:#000000; stroke-linecap:butt; stroke-linejoin:round; stroke-width:2; stroke-opacity:0.1; fill:none" points="
  608.634,1423.18 608.634,123.472 
  "/>
<polyline clip-path="url(#clip712)" style="stroke:#000000; stroke-linecap:butt; stroke-linejoin:round; stroke-width:2; stroke-opacity:0.1; fill:none" points="
  945.337,1423.18 945.337,123.472 
  "/>
<polyline clip-path="url(#clip712)" style="stroke:#000000; stroke-linecap:butt; stroke-linejoin:round; stroke-width:2; stroke-opacity:0.1; fill:none" points="
  1282.04,1423.18 1282.04,123.472 
  "/>
<polyline clip-path="url(#clip712)" style="stroke:#000000; stroke-linecap:butt; stroke-linejoin:round; stroke-width:2; stroke-opacity:0.1; fill:none" points="
  1618.74,1423.18 1618.74,123.472 
  "/>
<polyline clip-path="url(#clip712)" style="stroke:#000000; stroke-linecap:butt; stroke-linejoin:round; stroke-width:2; stroke-opacity:0.1; fill:none" points="
  1955.45,1423.18 1955.45,123.472 
  "/>
<polyline clip-path="url(#clip712)" style="stroke:#000000; stroke-linecap:butt; stroke-linejoin:round; stroke-width:2; stroke-opacity:0.1; fill:none" points="
  2292.15,1423.18 2292.15,123.472 
  "/>
<polyline clip-path="url(#clip710)" style="stroke:#000000; stroke-linecap:butt; stroke-linejoin:round; stroke-width:4; stroke-opacity:1; fill:none" points="
  211.325,1423.18 2352.76,1423.18 
  "/>
<polyline clip-path="url(#clip710)" style="stroke:#000000; stroke-linecap:butt; stroke-linejoin:round; stroke-width:4; stroke-opacity:1; fill:none" points="
  271.931,1423.18 271.931,1404.28 
  "/>
<polyline clip-path="url(#clip710)" style="stroke:#000000; stroke-linecap:butt; stroke-linejoin:round; stroke-width:4; stroke-opacity:1; fill:none" points="
  608.634,1423.18 608.634,1404.28 
  "/>
<polyline clip-path="url(#clip710)" style="stroke:#000000; stroke-linecap:butt; stroke-linejoin:round; stroke-width:4; stroke-opacity:1; fill:none" points="
  945.337,1423.18 945.337,1404.28 
  "/>
<polyline clip-path="url(#clip710)" style="stroke:#000000; stroke-linecap:butt; stroke-linejoin:round; stroke-width:4; stroke-opacity:1; fill:none" points="
  1282.04,1423.18 1282.04,1404.28 
  "/>
<polyline clip-path="url(#clip710)" style="stroke:#000000; stroke-linecap:butt; stroke-linejoin:round; stroke-width:4; stroke-opacity:1; fill:none" points="
  1618.74,1423.18 1618.74,1404.28 
  "/>
<polyline clip-path="url(#clip710)" style="stroke:#000000; stroke-linecap:butt; stroke-linejoin:round; stroke-width:4; stroke-opacity:1; fill:none" points="
  1955.45,1423.18 1955.45,1404.28 
  "/>
<polyline clip-path="url(#clip710)" style="stroke:#000000; stroke-linecap:butt; stroke-linejoin:round; stroke-width:4; stroke-opacity:1; fill:none" points="
  2292.15,1423.18 2292.15,1404.28 
  "/>
<path clip-path="url(#clip710)" d="M271.931 1454.1 Q268.32 1454.1 266.491 1457.66 Q264.686 1461.2 264.686 1468.33 Q264.686 1475.44 266.491 1479.01 Q268.32 1482.55 271.931 1482.55 Q275.565 1482.55 277.371 1479.01 Q279.2 1475.44 279.2 1468.33 Q279.2 1461.2 277.371 1457.66 Q275.565 1454.1 271.931 1454.1 M271.931 1450.39 Q277.741 1450.39 280.797 1455 Q283.876 1459.58 283.876 1468.33 Q283.876 1477.06 280.797 1481.67 Q277.741 1486.25 271.931 1486.25 Q266.121 1486.25 263.042 1481.67 Q259.987 1477.06 259.987 1468.33 Q259.987 1459.58 263.042 1455 Q266.121 1450.39 271.931 1450.39 Z" fill="#000000" fill-rule="evenodd" fill-opacity="1" /><path clip-path="url(#clip710)" d="M583.322 1481.64 L590.961 1481.64 L590.961 1455.28 L582.651 1456.95 L582.651 1452.69 L590.914 1451.02 L595.59 1451.02 L595.59 1481.64 L603.229 1481.64 L603.229 1485.58 L583.322 1485.58 L583.322 1481.64 Z" fill="#000000" fill-rule="evenodd" fill-opacity="1" /><path clip-path="url(#clip710)" d="M622.673 1454.1 Q619.062 1454.1 617.234 1457.66 Q615.428 1461.2 615.428 1468.33 Q615.428 1475.44 617.234 1479.01 Q619.062 1482.55 622.673 1482.55 Q626.308 1482.55 628.113 1479.01 Q629.942 1475.44 629.942 1468.33 Q629.942 1461.2 628.113 1457.66 Q626.308 1454.1 622.673 1454.1 M622.673 1450.39 Q628.484 1450.39 631.539 1455 Q634.618 1459.58 634.618 1468.33 Q634.618 1477.06 631.539 1481.67 Q628.484 1486.25 622.673 1486.25 Q616.863 1486.25 613.785 1481.67 Q610.729 1477.06 610.729 1468.33 Q610.729 1459.58 613.785 1455 Q616.863 1450.39 622.673 1450.39 Z" fill="#000000" fill-rule="evenodd" fill-opacity="1" /><path clip-path="url(#clip710)" d="M924.111 1481.64 L940.43 1481.64 L940.43 1485.58 L918.486 1485.58 L918.486 1481.64 Q921.148 1478.89 925.731 1474.26 Q930.337 1469.61 931.518 1468.27 Q933.763 1465.74 934.643 1464.01 Q935.546 1462.25 935.546 1460.56 Q935.546 1457.8 933.601 1456.07 Q931.68 1454.33 928.578 1454.33 Q926.379 1454.33 923.925 1455.09 Q921.495 1455.86 918.717 1457.41 L918.717 1452.69 Q921.541 1451.55 923.995 1450.97 Q926.448 1450.39 928.485 1450.39 Q933.856 1450.39 937.05 1453.08 Q940.245 1455.77 940.245 1460.26 Q940.245 1462.39 939.435 1464.31 Q938.647 1466.2 936.541 1468.8 Q935.962 1469.47 932.86 1472.69 Q929.759 1475.88 924.111 1481.64 Z" fill="#000000" fill-rule="evenodd" fill-opacity="1" /><path clip-path="url(#clip710)" d="M960.245 1454.1 Q956.633 1454.1 954.805 1457.66 Q952.999 1461.2 952.999 1468.33 Q952.999 1475.44 954.805 1479.01 Q956.633 1482.55 960.245 1482.55 Q963.879 1482.55 965.684 1479.01 Q967.513 1475.44 967.513 1468.33 Q967.513 1461.2 965.684 1457.66 Q963.879 1454.1 960.245 1454.1 M960.245 1450.39 Q966.055 1450.39 969.11 1455 Q972.189 1459.58 972.189 1468.33 Q972.189 1477.06 969.11 1481.67 Q966.055 1486.25 960.245 1486.25 Q954.434 1486.25 951.356 1481.67 Q948.3 1477.06 948.3 1468.33 Q948.3 1459.58 951.356 1455 Q954.434 1450.39 960.245 1450.39 Z" fill="#000000" fill-rule="evenodd" fill-opacity="1" /><path clip-path="url(#clip710)" d="M1270.88 1466.95 Q1274.24 1467.66 1276.11 1469.93 Q1278.01 1472.2 1278.01 1475.53 Q1278.01 1480.65 1274.49 1483.45 Q1270.98 1486.25 1264.49 1486.25 Q1262.32 1486.25 1260 1485.81 Q1257.71 1485.39 1255.26 1484.54 L1255.26 1480.02 Q1257.2 1481.16 1259.52 1481.74 Q1261.83 1482.32 1264.36 1482.32 Q1268.75 1482.32 1271.04 1480.58 Q1273.36 1478.84 1273.36 1475.53 Q1273.36 1472.48 1271.21 1470.77 Q1269.08 1469.03 1265.26 1469.03 L1261.23 1469.03 L1261.23 1465.19 L1265.44 1465.19 Q1268.89 1465.19 1270.72 1463.82 Q1272.55 1462.43 1272.55 1459.84 Q1272.55 1457.18 1270.65 1455.77 Q1268.78 1454.33 1265.26 1454.33 Q1263.34 1454.33 1261.14 1454.75 Q1258.94 1455.16 1256.3 1456.04 L1256.3 1451.88 Q1258.96 1451.14 1261.28 1450.77 Q1263.61 1450.39 1265.67 1450.39 Q1271 1450.39 1274.1 1452.83 Q1277.2 1455.23 1277.2 1459.35 Q1277.2 1462.22 1275.56 1464.21 Q1273.92 1466.18 1270.88 1466.95 Z" fill="#000000" fill-rule="evenodd" fill-opacity="1" /><path clip-path="url(#clip710)" d="M1296.88 1454.1 Q1293.27 1454.1 1291.44 1457.66 Q1289.63 1461.2 1289.63 1468.33 Q1289.63 1475.44 1291.44 1479.01 Q1293.27 1482.55 1296.88 1482.55 Q1300.51 1482.55 1302.32 1479.01 Q1304.15 1475.44 1304.15 1468.33 Q1304.15 1461.2 1302.32 1457.66 Q1300.51 1454.1 1296.88 1454.1 M1296.88 1450.39 Q1302.69 1450.39 1305.74 1455 Q1308.82 1459.58 1308.82 1468.33 Q1308.82 1477.06 1305.74 1481.67 Q1302.69 1486.25 1296.88 1486.25 Q1291.07 1486.25 1287.99 1481.67 Q1284.93 1477.06 1284.93 1468.33 Q1284.93 1459.58 1287.99 1455 Q1291.07 1450.39 1296.88 1450.39 Z" fill="#000000" fill-rule="evenodd" fill-opacity="1" /><path clip-path="url(#clip710)" d="M1606.91 1455.09 L1595.11 1473.54 L1606.91 1473.54 L1606.91 1455.09 M1605.69 1451.02 L1611.57 1451.02 L1611.57 1473.54 L1616.5 1473.54 L1616.5 1477.43 L1611.57 1477.43 L1611.57 1485.58 L1606.91 1485.58 L1606.91 1477.43 L1591.31 1477.43 L1591.31 1472.92 L1605.69 1451.02 Z" fill="#000000" fill-rule="evenodd" fill-opacity="1" /><path clip-path="url(#clip710)" d="M1634.23 1454.1 Q1630.62 1454.1 1628.79 1457.66 Q1626.98 1461.2 1626.98 1468.33 Q1626.98 1475.44 1628.79 1479.01 Q1630.62 1482.55 1634.23 1482.55 Q1637.86 1482.55 1639.67 1479.01 Q1641.5 1475.44 1641.5 1468.33 Q1641.5 1461.2 1639.67 1457.66 Q1637.86 1454.1 1634.23 1454.1 M1634.23 1450.39 Q1640.04 1450.39 1643.1 1455 Q1646.17 1459.58 1646.17 1468.33 Q1646.17 1477.06 1643.1 1481.67 Q1640.04 1486.25 1634.23 1486.25 Q1628.42 1486.25 1625.34 1481.67 Q1622.28 1477.06 1622.28 1468.33 Q1622.28 1459.58 1625.34 1455 Q1628.42 1450.39 1634.23 1450.39 Z" fill="#000000" fill-rule="evenodd" fill-opacity="1" /><path clip-path="url(#clip710)" d="M1930.15 1451.02 L1948.5 1451.02 L1948.5 1454.96 L1934.43 1454.96 L1934.43 1463.43 Q1935.45 1463.08 1936.46 1462.92 Q1937.48 1462.73 1938.5 1462.73 Q1944.29 1462.73 1947.67 1465.9 Q1951.05 1469.08 1951.05 1474.49 Q1951.05 1480.07 1947.58 1483.17 Q1944.1 1486.25 1937.78 1486.25 Q1935.61 1486.25 1933.34 1485.88 Q1931.09 1485.51 1928.69 1484.77 L1928.69 1480.07 Q1930.77 1481.2 1932.99 1481.76 Q1935.21 1482.32 1937.69 1482.32 Q1941.7 1482.32 1944.03 1480.21 Q1946.37 1478.1 1946.37 1474.49 Q1946.37 1470.88 1944.03 1468.77 Q1941.7 1466.67 1937.69 1466.67 Q1935.82 1466.67 1933.94 1467.08 Q1932.09 1467.5 1930.15 1468.38 L1930.15 1451.02 Z" fill="#000000" fill-rule="evenodd" fill-opacity="1" /><path clip-path="url(#clip710)" d="M1970.26 1454.1 Q1966.65 1454.1 1964.82 1457.66 Q1963.02 1461.2 1963.02 1468.33 Q1963.02 1475.44 1964.82 1479.01 Q1966.65 1482.55 1970.26 1482.55 Q1973.9 1482.55 1975.7 1479.01 Q1977.53 1475.44 1977.53 1468.33 Q1977.53 1461.2 1975.7 1457.66 Q1973.9 1454.1 1970.26 1454.1 M1970.26 1450.39 Q1976.07 1450.39 1979.13 1455 Q1982.21 1459.58 1982.21 1468.33 Q1982.21 1477.06 1979.13 1481.67 Q1976.07 1486.25 1970.26 1486.25 Q1964.45 1486.25 1961.37 1481.67 Q1958.32 1477.06 1958.32 1468.33 Q1958.32 1459.58 1961.37 1455 Q1964.45 1450.39 1970.26 1450.39 Z" fill="#000000" fill-rule="evenodd" fill-opacity="1" /><path clip-path="url(#clip710)" d="M2277.55 1466.44 Q2274.41 1466.44 2272.55 1468.59 Q2270.73 1470.74 2270.73 1474.49 Q2270.73 1478.22 2272.55 1480.39 Q2274.41 1482.55 2277.55 1482.55 Q2280.7 1482.55 2282.53 1480.39 Q2284.38 1478.22 2284.38 1474.49 Q2284.38 1470.74 2282.53 1468.59 Q2280.7 1466.44 2277.55 1466.44 M2286.84 1451.78 L2286.84 1456.04 Q2285.08 1455.21 2283.27 1454.77 Q2281.49 1454.33 2279.73 1454.33 Q2275.1 1454.33 2272.65 1457.45 Q2270.22 1460.58 2269.87 1466.9 Q2271.24 1464.89 2273.3 1463.82 Q2275.36 1462.73 2277.83 1462.73 Q2283.04 1462.73 2286.05 1465.9 Q2289.08 1469.05 2289.08 1474.49 Q2289.08 1479.82 2285.93 1483.03 Q2282.79 1486.25 2277.55 1486.25 Q2271.56 1486.25 2268.39 1481.67 Q2265.22 1477.06 2265.22 1468.33 Q2265.22 1460.14 2269.11 1455.28 Q2272.99 1450.39 2279.55 1450.39 Q2281.3 1450.39 2283.09 1450.74 Q2284.89 1451.09 2286.84 1451.78 Z" fill="#000000" fill-rule="evenodd" fill-opacity="1" /><path clip-path="url(#clip710)" d="M2307.14 1454.1 Q2303.53 1454.1 2301.7 1457.66 Q2299.89 1461.2 2299.89 1468.33 Q2299.89 1475.44 2301.7 1479.01 Q2303.53 1482.55 2307.14 1482.55 Q2310.77 1482.55 2312.58 1479.01 Q2314.41 1475.44 2314.41 1468.33 Q2314.41 1461.2 2312.58 1457.66 Q2310.77 1454.1 2307.14 1454.1 M2307.14 1450.39 Q2312.95 1450.39 2316 1455 Q2319.08 1459.58 2319.08 1468.33 Q2319.08 1477.06 2316 1481.67 Q2312.95 1486.25 2307.14 1486.25 Q2301.33 1486.25 2298.25 1481.67 Q2295.19 1477.06 2295.19 1468.33 Q2295.19 1459.58 2298.25 1455 Q2301.33 1450.39 2307.14 1450.39 Z" fill="#000000" fill-rule="evenodd" fill-opacity="1" /><path clip-path="url(#clip710)" d="M1230.35 1522.27 L1230.35 1532.4 L1242.41 1532.4 L1242.41 1536.95 L1230.35 1536.95 L1230.35 1556.3 Q1230.35 1560.66 1231.53 1561.9 Q1232.74 1563.14 1236.4 1563.14 L1242.41 1563.14 L1242.41 1568.04 L1236.4 1568.04 Q1229.62 1568.04 1227.04 1565.53 Q1224.46 1562.98 1224.46 1556.3 L1224.46 1536.95 L1220.17 1536.95 L1220.17 1532.4 L1224.46 1532.4 L1224.46 1522.27 L1230.35 1522.27 Z" fill="#000000" fill-rule="evenodd" fill-opacity="1" /><path clip-path="url(#clip710)" d="M1270.3 1518.52 L1283.79 1518.52 L1283.79 1523.07 L1276.15 1523.07 L1276.15 1572.09 L1283.79 1572.09 L1283.79 1576.64 L1270.3 1576.64 L1270.3 1518.52 Z" fill="#000000" fill-rule="evenodd" fill-opacity="1" /><path clip-path="url(#clip710)" d="M1318.99 1533.45 L1318.99 1538.98 Q1316.51 1537.71 1313.84 1537.07 Q1311.16 1536.44 1308.3 1536.44 Q1303.94 1536.44 1301.74 1537.77 Q1299.58 1539.11 1299.58 1541.79 Q1299.58 1543.82 1301.14 1545 Q1302.7 1546.15 1307.41 1547.2 L1309.41 1547.64 Q1315.65 1548.98 1318.26 1551.43 Q1320.9 1553.85 1320.9 1558.21 Q1320.9 1563.17 1316.96 1566.07 Q1313.04 1568.97 1306.17 1568.97 Q1303.3 1568.97 1300.18 1568.39 Q1297.1 1567.85 1293.66 1566.74 L1293.66 1560.69 Q1296.9 1562.38 1300.06 1563.24 Q1303.21 1564.07 1306.29 1564.07 Q1310.43 1564.07 1312.66 1562.66 Q1314.89 1561.23 1314.89 1558.65 Q1314.89 1556.27 1313.26 1554.99 Q1311.67 1553.72 1306.23 1552.54 L1304.19 1552.07 Q1298.75 1550.92 1296.33 1548.56 Q1293.91 1546.18 1293.91 1542.04 Q1293.91 1537.01 1297.48 1534.27 Q1301.04 1531.54 1307.6 1531.54 Q1310.85 1531.54 1313.71 1532.01 Q1316.57 1532.49 1318.99 1533.45 Z" fill="#000000" fill-rule="evenodd" fill-opacity="1" /><path clip-path="url(#clip710)" d="M1343.91 1518.52 L1343.91 1576.64 L1330.42 1576.64 L1330.42 1572.09 L1338.03 1572.09 L1338.03 1523.07 L1330.42 1523.07 L1330.42 1518.52 L1343.91 1518.52 Z" fill="#000000" fill-rule="evenodd" fill-opacity="1" /><polyline clip-path="url(#clip712)" style="stroke:#000000; stroke-linecap:butt; stroke-linejoin:round; stroke-width:2; stroke-opacity:0.1; fill:none" points="
  211.325,1423.18 2352.76,1423.18 
  "/>
<polyline clip-path="url(#clip712)" style="stroke:#000000; stroke-linecap:butt; stroke-linejoin:round; stroke-width:2; stroke-opacity:0.1; fill:none" points="
  211.325,1098.25 2352.76,1098.25 
  "/>
<polyline clip-path="url(#clip712)" style="stroke:#000000; stroke-linecap:butt; stroke-linejoin:round; stroke-width:2; stroke-opacity:0.1; fill:none" points="
  211.325,773.326 2352.76,773.326 
  "/>
<polyline clip-path="url(#clip712)" style="stroke:#000000; stroke-linecap:butt; stroke-linejoin:round; stroke-width:2; stroke-opacity:0.1; fill:none" points="
  211.325,448.399 2352.76,448.399 
  "/>
<polyline clip-path="url(#clip712)" style="stroke:#000000; stroke-linecap:butt; stroke-linejoin:round; stroke-width:2; stroke-opacity:0.1; fill:none" points="
  211.325,123.472 2352.76,123.472 
  "/>
<polyline clip-path="url(#clip710)" style="stroke:#000000; stroke-linecap:butt; stroke-linejoin:round; stroke-width:4; stroke-opacity:1; fill:none" points="
  211.325,1423.18 211.325,123.472 
  "/>
<polyline clip-path="url(#clip710)" style="stroke:#000000; stroke-linecap:butt; stroke-linejoin:round; stroke-width:4; stroke-opacity:1; fill:none" points="
  211.325,1423.18 230.222,1423.18 
  "/>
<polyline clip-path="url(#clip710)" style="stroke:#000000; stroke-linecap:butt; stroke-linejoin:round; stroke-width:4; stroke-opacity:1; fill:none" points="
  211.325,1098.25 230.222,1098.25 
  "/>
<polyline clip-path="url(#clip710)" style="stroke:#000000; stroke-linecap:butt; stroke-linejoin:round; stroke-width:4; stroke-opacity:1; fill:none" points="
  211.325,773.326 230.222,773.326 
  "/>
<polyline clip-path="url(#clip710)" style="stroke:#000000; stroke-linecap:butt; stroke-linejoin:round; stroke-width:4; stroke-opacity:1; fill:none" points="
  211.325,448.399 230.222,448.399 
  "/>
<polyline clip-path="url(#clip710)" style="stroke:#000000; stroke-linecap:butt; stroke-linejoin:round; stroke-width:4; stroke-opacity:1; fill:none" points="
  211.325,123.472 230.222,123.472 
  "/>
<path clip-path="url(#clip710)" d="M114.26 1423.63 L143.936 1423.63 L143.936 1427.57 L114.26 1427.57 L114.26 1423.63 Z" fill="#000000" fill-rule="evenodd" fill-opacity="1" /><path clip-path="url(#clip710)" d="M168.195 1421.83 Q171.552 1422.54 173.427 1424.81 Q175.325 1427.08 175.325 1430.41 Q175.325 1435.53 171.806 1438.33 Q168.288 1441.13 161.806 1441.13 Q159.63 1441.13 157.315 1440.69 Q155.024 1440.27 152.57 1439.42 L152.57 1434.9 Q154.515 1436.04 156.829 1436.62 Q159.144 1437.2 161.667 1437.2 Q166.065 1437.2 168.357 1435.46 Q170.672 1433.72 170.672 1430.41 Q170.672 1427.36 168.519 1425.65 Q166.39 1423.91 162.57 1423.91 L158.542 1423.91 L158.542 1420.07 L162.755 1420.07 Q166.204 1420.07 168.033 1418.7 Q169.862 1417.31 169.862 1414.72 Q169.862 1412.06 167.964 1410.65 Q166.089 1409.21 162.57 1409.21 Q160.649 1409.21 158.45 1409.63 Q156.251 1410.04 153.612 1410.92 L153.612 1406.76 Q156.274 1406.02 158.589 1405.65 Q160.927 1405.27 162.987 1405.27 Q168.311 1405.27 171.413 1407.71 Q174.514 1410.11 174.514 1414.23 Q174.514 1417.1 172.871 1419.09 Q171.227 1421.06 168.195 1421.83 Z" fill="#000000" fill-rule="evenodd" fill-opacity="1" /><path clip-path="url(#clip710)" d="M115.209 1098.7 L144.885 1098.7 L144.885 1102.64 L115.209 1102.64 L115.209 1098.7 Z" fill="#000000" fill-rule="evenodd" fill-opacity="1" /><path clip-path="url(#clip710)" d="M159.005 1111.6 L175.325 1111.6 L175.325 1115.53 L153.38 1115.53 L153.38 1111.6 Q156.042 1108.84 160.626 1104.21 Q165.232 1099.56 166.413 1098.22 Q168.658 1095.7 169.538 1093.96 Q170.44 1092.2 170.44 1090.51 Q170.44 1087.76 168.496 1086.02 Q166.575 1084.28 163.473 1084.28 Q161.274 1084.28 158.82 1085.05 Q156.39 1085.81 153.612 1087.36 L153.612 1082.64 Q156.436 1081.51 158.89 1080.93 Q161.343 1080.35 163.38 1080.35 Q168.751 1080.35 171.945 1083.03 Q175.139 1085.72 175.139 1090.21 Q175.139 1092.34 174.329 1094.26 Q173.542 1096.16 171.436 1098.75 Q170.857 1099.42 167.755 1102.64 Q164.653 1105.83 159.005 1111.6 Z" fill="#000000" fill-rule="evenodd" fill-opacity="1" /><path clip-path="url(#clip710)" d="M114.839 773.777 L144.515 773.777 L144.515 777.713 L114.839 777.713 L114.839 773.777 Z" fill="#000000" fill-rule="evenodd" fill-opacity="1" /><path clip-path="url(#clip710)" d="M155.417 786.671 L163.056 786.671 L163.056 760.305 L154.746 761.972 L154.746 757.713 L163.01 756.046 L167.686 756.046 L167.686 786.671 L175.325 786.671 L175.325 790.606 L155.417 790.606 L155.417 786.671 Z" fill="#000000" fill-rule="evenodd" fill-opacity="1" /><path clip-path="url(#clip710)" d="M163.38 434.198 Q159.769 434.198 157.94 437.763 Q156.135 441.304 156.135 448.434 Q156.135 455.54 157.94 459.105 Q159.769 462.647 163.38 462.647 Q167.015 462.647 168.82 459.105 Q170.649 455.54 170.649 448.434 Q170.649 441.304 168.82 437.763 Q167.015 434.198 163.38 434.198 M163.38 430.494 Q169.19 430.494 172.246 435.101 Q175.325 439.684 175.325 448.434 Q175.325 457.161 172.246 461.767 Q169.19 466.35 163.38 466.35 Q157.57 466.35 154.491 461.767 Q151.436 457.161 151.436 448.434 Q151.436 439.684 154.491 435.101 Q157.57 430.494 163.38 430.494 Z" fill="#000000" fill-rule="evenodd" fill-opacity="1" /><path clip-path="url(#clip710)" d="M155.417 136.817 L163.056 136.817 L163.056 110.451 L154.746 112.118 L154.746 107.859 L163.01 106.192 L167.686 106.192 L167.686 136.817 L175.325 136.817 L175.325 140.752 L155.417 140.752 L155.417 136.817 Z" fill="#000000" fill-rule="evenodd" fill-opacity="1" /><path clip-path="url(#clip710)" d="M20.1444 761.931 L26.9239 761.931 Q23.9002 765.178 22.4043 768.87 Q20.9083 772.53 20.9083 776.668 Q20.9083 784.816 25.9054 789.145 Q30.8707 793.473 40.2919 793.473 Q49.6813 793.473 54.6784 789.145 Q59.6436 784.816 59.6436 776.668 Q59.6436 772.53 58.1477 768.87 Q56.6518 765.178 53.6281 761.931 L60.3439 761.931 Q62.6355 765.305 63.7814 769.093 Q64.9272 772.849 64.9272 777.05 Q64.9272 787.84 58.3387 794.046 Q51.7183 800.253 40.2919 800.253 Q28.8336 800.253 22.2451 794.046 Q15.6248 787.84 15.6248 777.05 Q15.6248 772.785 16.7706 769.029 Q17.8846 765.242 20.1444 761.931 Z" fill="#000000" fill-rule="evenodd" fill-opacity="1" /><path clip-path="url(#clip710)" d="M14.479 752.255 L14.479 746.399 L64.0042 746.399 L64.0042 752.255 L14.479 752.255 Z" fill="#000000" fill-rule="evenodd" fill-opacity="1" /><path clip-path="url(#clip710)" d="M319.87 44.2197 Q322.503 45.1109 324.974 48.0275 Q327.485 50.9442 329.997 56.0483 L338.301 72.576 L329.511 72.576 L321.773 57.061 Q318.776 50.9847 315.94 48.9997 Q313.145 47.0148 308.284 47.0148 L299.372 47.0148 L299.372 72.576 L291.189 72.576 L291.189 12.096 L309.661 12.096 Q320.032 12.096 325.136 16.4305 Q330.24 20.7649 330.24 29.5149 Q330.24 35.2267 327.566 38.994 Q324.933 42.7613 319.87 44.2197 M299.372 18.8205 L299.372 40.2903 L309.661 40.2903 Q315.576 40.2903 318.573 37.5762 Q321.611 34.8216 321.611 29.5149 Q321.611 24.2082 318.573 21.5346 Q315.576 18.8205 309.661 18.8205 L299.372 18.8205 Z" fill="#000000" fill-rule="evenodd" fill-opacity="1" /><path clip-path="url(#clip710)" d="M383.59 48.0275 L383.59 51.6733 L349.32 51.6733 Q349.806 59.3701 353.938 63.421 Q358.11 67.4314 365.523 67.4314 Q369.817 67.4314 373.828 66.3781 Q377.878 65.3249 381.848 63.2184 L381.848 70.267 Q377.838 71.9684 373.625 72.8596 Q369.412 73.7508 365.078 73.7508 Q354.221 73.7508 347.861 67.4314 Q341.542 61.1119 341.542 50.3365 Q341.542 39.1965 347.537 32.6746 Q353.573 26.1121 363.781 26.1121 Q372.936 26.1121 378.243 32.0264 Q383.59 37.9003 383.59 48.0275 M376.137 45.84 Q376.056 39.7232 372.693 36.0774 Q369.372 32.4315 363.862 32.4315 Q357.624 32.4315 353.857 35.9558 Q350.13 39.4801 349.563 45.8805 L376.137 45.84 Z" fill="#000000" fill-rule="evenodd" fill-opacity="1" /><path clip-path="url(#clip710)" d="M396.796 34.9026 L448.729 34.9026 L448.729 41.7081 L396.796 41.7081 L396.796 34.9026 M396.796 51.4303 L448.729 51.4303 L448.729 58.3168 L396.796 58.3168 L396.796 51.4303 Z" fill="#000000" fill-rule="evenodd" fill-opacity="1" /><path clip-path="url(#clip710)" d="M467.809 65.6895 L481.177 65.6895 L481.177 19.5497 L466.634 22.4663 L466.634 15.0127 L481.095 12.096 L489.278 12.096 L489.278 65.6895 L502.646 65.6895 L502.646 72.576 L467.809 72.576 L467.809 65.6895 Z" fill="#000000" fill-rule="evenodd" fill-opacity="1" /><path clip-path="url(#clip710)" d="M536.674 17.4837 Q530.354 17.4837 527.154 23.7221 Q523.995 29.92 523.995 42.3968 Q523.995 54.833 527.154 61.0714 Q530.354 67.2693 536.674 67.2693 Q543.034 67.2693 546.194 61.0714 Q549.394 54.833 549.394 42.3968 Q549.394 29.92 546.194 23.7221 Q543.034 17.4837 536.674 17.4837 M536.674 11.0023 Q546.842 11.0023 552.189 19.0636 Q557.577 27.0843 557.577 42.3968 Q557.577 57.6687 552.189 65.73 Q546.842 73.7508 536.674 73.7508 Q526.506 73.7508 521.118 65.73 Q515.771 57.6687 515.771 42.3968 Q515.771 27.0843 521.118 19.0636 Q526.506 11.0023 536.674 11.0023 Z" fill="#000000" fill-rule="evenodd" fill-opacity="1" /><path clip-path="url(#clip710)" d="M589.457 17.4837 Q583.138 17.4837 579.938 23.7221 Q576.778 29.92 576.778 42.3968 Q576.778 54.833 579.938 61.0714 Q583.138 67.2693 589.457 67.2693 Q595.817 67.2693 598.977 61.0714 Q602.177 54.833 602.177 42.3968 Q602.177 29.92 598.977 23.7221 Q595.817 17.4837 589.457 17.4837 M589.457 11.0023 Q599.625 11.0023 604.972 19.0636 Q610.36 27.0843 610.36 42.3968 Q610.36 57.6687 604.972 65.73 Q599.625 73.7508 589.457 73.7508 Q579.289 73.7508 573.902 65.73 Q568.555 57.6687 568.555 42.3968 Q568.555 27.0843 573.902 19.0636 Q579.289 11.0023 589.457 11.0023 Z" fill="#000000" fill-rule="evenodd" fill-opacity="1" /><path clip-path="url(#clip710)" d="M642.24 17.4837 Q635.921 17.4837 632.721 23.7221 Q629.561 29.92 629.561 42.3968 Q629.561 54.833 632.721 61.0714 Q635.921 67.2693 642.24 67.2693 Q648.6 67.2693 651.76 61.0714 Q654.96 54.833 654.96 42.3968 Q654.96 29.92 651.76 23.7221 Q648.6 17.4837 642.24 17.4837 M642.24 11.0023 Q652.408 11.0023 657.755 19.0636 Q663.143 27.0843 663.143 42.3968 Q663.143 57.6687 657.755 65.73 Q652.408 73.7508 642.24 73.7508 Q632.073 73.7508 626.685 65.73 Q621.338 57.6687 621.338 42.3968 Q621.338 27.0843 626.685 19.0636 Q632.073 11.0023 642.24 11.0023 Z" fill="#000000" fill-rule="evenodd" fill-opacity="1" /><path clip-path="url(#clip710)" d="M695.024 17.4837 Q688.704 17.4837 685.504 23.7221 Q682.344 29.92 682.344 42.3968 Q682.344 54.833 685.504 61.0714 Q688.704 67.2693 695.024 67.2693 Q701.384 67.2693 704.543 61.0714 Q707.744 54.833 707.744 42.3968 Q707.744 29.92 704.543 23.7221 Q701.384 17.4837 695.024 17.4837 M695.024 11.0023 Q705.192 11.0023 710.539 19.0636 Q715.926 27.0843 715.926 42.3968 Q715.926 57.6687 710.539 65.73 Q705.192 73.7508 695.024 73.7508 Q684.856 73.7508 679.468 65.73 Q674.121 57.6687 674.121 42.3968 Q674.121 27.0843 679.468 19.0636 Q684.856 11.0023 695.024 11.0023 Z" fill="#000000" fill-rule="evenodd" fill-opacity="1" /><path clip-path="url(#clip710)" d="M747.807 17.4837 Q741.488 17.4837 738.287 23.7221 Q735.128 29.92 735.128 42.3968 Q735.128 54.833 738.287 61.0714 Q741.488 67.2693 747.807 67.2693 Q754.167 67.2693 757.327 61.0714 Q760.527 54.833 760.527 42.3968 Q760.527 29.92 757.327 23.7221 Q754.167 17.4837 747.807 17.4837 M747.807 11.0023 Q757.975 11.0023 763.322 19.0636 Q768.71 27.0843 768.71 42.3968 Q768.71 57.6687 763.322 65.73 Q757.975 73.7508 747.807 73.7508 Q737.639 73.7508 732.252 65.73 Q726.904 57.6687 726.904 42.3968 Q726.904 27.0843 732.252 19.0636 Q737.639 11.0023 747.807 11.0023 Z" fill="#000000" fill-rule="evenodd" fill-opacity="1" /><path clip-path="url(#clip710)" d="M783.09 62.2867 L791.638 62.2867 L791.638 72.576 L783.09 72.576 L783.09 62.2867 Z" fill="#000000" fill-rule="evenodd" fill-opacity="1" /><path clip-path="url(#clip710)" d="M826.962 17.4837 Q820.642 17.4837 817.442 23.7221 Q814.282 29.92 814.282 42.3968 Q814.282 54.833 817.442 61.0714 Q820.642 67.2693 826.962 67.2693 Q833.322 67.2693 836.481 61.0714 Q839.682 54.833 839.682 42.3968 Q839.682 29.92 836.481 23.7221 Q833.322 17.4837 826.962 17.4837 M826.962 11.0023 Q837.129 11.0023 842.477 19.0636 Q847.864 27.0843 847.864 42.3968 Q847.864 57.6687 842.477 65.73 Q837.129 73.7508 826.962 73.7508 Q816.794 73.7508 811.406 65.73 Q806.059 57.6687 806.059 42.3968 Q806.059 27.0843 811.406 19.0636 Q816.794 11.0023 826.962 11.0023 Z" fill="#000000" fill-rule="evenodd" fill-opacity="1" /><path clip-path="url(#clip710)" d="M908.182 49.7694 Q899.149 49.7694 895.665 51.8354 Q892.181 53.9013 892.181 58.8839 Q892.181 62.8538 894.774 65.2034 Q897.407 67.5124 901.903 67.5124 Q908.101 67.5124 911.828 63.1374 Q915.595 58.7219 915.595 51.4303 L915.595 49.7694 L908.182 49.7694 M923.049 46.6907 L923.049 72.576 L915.595 72.576 L915.595 65.6895 Q913.043 69.8214 909.236 71.8063 Q905.428 73.7508 899.918 73.7508 Q892.951 73.7508 888.819 69.8619 Q884.728 65.9325 884.728 59.3701 Q884.728 51.7138 889.832 47.825 Q894.976 43.9361 905.144 43.9361 L915.595 43.9361 L915.595 43.2069 Q915.595 38.0623 912.193 35.2672 Q908.83 32.4315 902.714 32.4315 Q898.825 32.4315 895.138 33.3632 Q891.452 34.295 888.049 36.1584 L888.049 29.2718 Q892.141 27.692 895.989 26.9223 Q899.837 26.1121 903.483 26.1121 Q913.327 26.1121 918.188 31.2163 Q923.049 36.3204 923.049 46.6907 Z" fill="#000000" fill-rule="evenodd" fill-opacity="1" /><path clip-path="url(#clip710)" d="M939.374 34.9026 L991.307 34.9026 L991.307 41.7081 L939.374 41.7081 L939.374 34.9026 M939.374 51.4303 L991.307 51.4303 L991.307 58.3168 L939.374 58.3168 L939.374 51.4303 Z" fill="#000000" fill-rule="evenodd" fill-opacity="1" /><path clip-path="url(#clip710)" d="M1026.47 17.4837 Q1020.15 17.4837 1016.95 23.7221 Q1013.79 29.92 1013.79 42.3968 Q1013.79 54.833 1016.95 61.0714 Q1020.15 67.2693 1026.47 67.2693 Q1032.83 67.2693 1035.99 61.0714 Q1039.19 54.833 1039.19 42.3968 Q1039.19 29.92 1035.99 23.7221 Q1032.83 17.4837 1026.47 17.4837 M1026.47 11.0023 Q1036.64 11.0023 1041.98 19.0636 Q1047.37 27.0843 1047.37 42.3968 Q1047.37 57.6687 1041.98 65.73 Q1036.64 73.7508 1026.47 73.7508 Q1016.3 73.7508 1010.91 65.73 Q1005.57 57.6687 1005.57 42.3968 Q1005.57 27.0843 1010.91 19.0636 Q1016.3 11.0023 1026.47 11.0023 Z" fill="#000000" fill-rule="evenodd" fill-opacity="1" /><path clip-path="url(#clip710)" d="M1061.75 62.2867 L1070.3 62.2867 L1070.3 72.576 L1061.75 72.576 L1061.75 62.2867 Z" fill="#000000" fill-rule="evenodd" fill-opacity="1" /><path clip-path="url(#clip710)" d="M1095.17 65.6895 L1123.73 65.6895 L1123.73 72.576 L1085.33 72.576 L1085.33 65.6895 Q1089.99 60.8689 1098.01 52.7671 Q1106.07 44.6248 1108.13 42.2752 Q1112.06 37.8598 1113.6 34.8216 Q1115.18 31.7429 1115.18 28.7857 Q1115.18 23.9651 1111.78 20.927 Q1108.42 17.8888 1102.99 17.8888 Q1099.14 17.8888 1094.85 19.2256 Q1090.59 20.5624 1085.73 23.2765 L1085.73 15.0127 Q1090.68 13.0277 1094.97 12.015 Q1099.26 11.0023 1102.83 11.0023 Q1112.23 11.0023 1117.82 15.7013 Q1123.41 20.4004 1123.41 28.2591 Q1123.41 31.9859 1121.99 35.3482 Q1120.61 38.6699 1116.93 43.2069 Q1115.91 44.3817 1110.48 50.0125 Q1105.06 55.6027 1095.17 65.6895 Z" fill="#000000" fill-rule="evenodd" fill-opacity="1" /><path clip-path="url(#clip710)" d="M1140.99 12.096 L1173.11 12.096 L1173.11 18.9825 L1148.48 18.9825 L1148.48 33.8088 Q1150.26 33.2012 1152.05 32.9176 Q1153.83 32.5936 1155.61 32.5936 Q1165.74 32.5936 1171.65 38.1433 Q1177.57 43.6931 1177.57 53.1722 Q1177.57 62.9348 1171.49 68.3631 Q1165.41 73.7508 1154.36 73.7508 Q1150.55 73.7508 1146.58 73.1026 Q1142.65 72.4545 1138.44 71.1582 L1138.44 62.9348 Q1142.08 64.9198 1145.97 65.892 Q1149.86 66.8642 1154.19 66.8642 Q1161.2 66.8642 1165.29 63.1779 Q1169.38 59.4916 1169.38 53.1722 Q1169.38 46.8528 1165.29 43.1664 Q1161.2 39.4801 1154.19 39.4801 Q1150.91 39.4801 1147.63 40.2093 Q1144.39 40.9384 1140.99 42.4778 L1140.99 12.096 Z" fill="#000000" fill-rule="evenodd" fill-opacity="1" /><path clip-path="url(#clip710)" d="M1241.98 9.54393 L1241.98 15.7418 L1234.85 15.7418 Q1230.84 15.7418 1229.26 17.3622 Q1227.72 18.9825 1227.72 23.1955 L1227.72 27.2059 L1239.99 27.2059 L1239.99 32.9987 L1227.72 32.9987 L1227.72 72.576 L1220.22 72.576 L1220.22 32.9987 L1213.09 32.9987 L1213.09 27.2059 L1220.22 27.2059 L1220.22 24.0462 Q1220.22 16.471 1223.75 13.0277 Q1227.27 9.54393 1234.93 9.54393 L1241.98 9.54393 Z" fill="#000000" fill-rule="evenodd" fill-opacity="1" /><path clip-path="url(#clip710)" d="M1249.19 34.9026 L1301.12 34.9026 L1301.12 41.7081 L1249.19 41.7081 L1249.19 34.9026 M1249.19 51.4303 L1301.12 51.4303 L1301.12 58.3168 L1249.19 58.3168 L1249.19 51.4303 Z" fill="#000000" fill-rule="evenodd" fill-opacity="1" /><path clip-path="url(#clip710)" d="M1336.28 17.4837 Q1329.96 17.4837 1326.76 23.7221 Q1323.6 29.92 1323.6 42.3968 Q1323.6 54.833 1326.76 61.0714 Q1329.96 67.2693 1336.28 67.2693 Q1342.64 67.2693 1345.8 61.0714 Q1349 54.833 1349 42.3968 Q1349 29.92 1345.8 23.7221 Q1342.64 17.4837 1336.28 17.4837 M1336.28 11.0023 Q1346.45 11.0023 1351.8 19.0636 Q1357.18 27.0843 1357.18 42.3968 Q1357.18 57.6687 1351.8 65.73 Q1346.45 73.7508 1336.28 73.7508 Q1326.11 73.7508 1320.73 65.73 Q1315.38 57.6687 1315.38 42.3968 Q1315.38 27.0843 1320.73 19.0636 Q1326.11 11.0023 1336.28 11.0023 Z" fill="#000000" fill-rule="evenodd" fill-opacity="1" /><path clip-path="url(#clip710)" d="M1371.57 62.2867 L1380.11 62.2867 L1380.11 72.576 L1371.57 72.576 L1371.57 62.2867 Z" fill="#000000" fill-rule="evenodd" fill-opacity="1" /><path clip-path="url(#clip710)" d="M1398.02 12.096 L1430.14 12.096 L1430.14 18.9825 L1405.51 18.9825 L1405.51 33.8088 Q1407.29 33.2012 1409.08 32.9176 Q1410.86 32.5936 1412.64 32.5936 Q1422.77 32.5936 1428.68 38.1433 Q1434.6 43.6931 1434.6 53.1722 Q1434.6 62.9348 1428.52 68.3631 Q1422.44 73.7508 1411.39 73.7508 Q1407.58 73.7508 1403.61 73.1026 Q1399.68 72.4545 1395.47 71.1582 L1395.47 62.9348 Q1399.11 64.9198 1403 65.892 Q1406.89 66.8642 1411.22 66.8642 Q1418.23 66.8642 1422.32 63.1779 Q1426.41 59.4916 1426.41 53.1722 Q1426.41 46.8528 1422.32 43.1664 Q1418.23 39.4801 1411.22 39.4801 Q1407.94 39.4801 1404.66 40.2093 Q1401.42 40.9384 1398.02 42.4778 L1398.02 12.096 Z" fill="#000000" fill-rule="evenodd" fill-opacity="1" /><path clip-path="url(#clip710)" d="M1502.49 51.4708 L1500.71 42.1132 Q1498.89 32.5126 1491.67 32.5126 Q1486.25 32.5126 1483.78 36.9686 Q1480.66 42.5588 1480.66 49.9314 Q1480.66 58.8434 1483.69 63.0969 Q1486.77 67.4314 1491.67 67.4314 Q1497.1 67.4314 1500.02 58.8029 L1502.49 51.4708 M1506.66 39.075 L1510.67 27.2059 L1517.32 27.2059 L1509.01 51.7949 L1510.63 60.6663 Q1511 62.6513 1512.42 64.3122 Q1514.08 66.2566 1515.37 66.2566 L1518.94 66.2566 L1518.94 72.576 L1514.48 72.576 Q1510.67 72.576 1507.27 69.1732 Q1505.61 67.4719 1504.92 63.9071 Q1503.06 68.4036 1499.25 71.9279 Q1497.47 73.5887 1491.67 73.5887 Q1482.15 73.5887 1477.54 67.4314 Q1472.8 61.0714 1472.8 49.9314 Q1472.8 38.0218 1477.94 32.4315 Q1483.65 26.1931 1491.67 26.1931 Q1504.27 26.1931 1506.66 39.075 Z" fill="#000000" fill-rule="evenodd" fill-opacity="1" /><path clip-path="url(#clip710)" d="M1550.86 58.2358 L1550.86 72.576 L1546.16 72.576 L1546.16 57.3851 Q1546.16 53.6988 1544.7 51.9569 Q1543.24 50.1745 1540.2 50.1745 Q1536.6 50.1745 1534.49 52.362 Q1532.39 54.509 1532.39 58.2358 L1532.39 72.576 L1527.65 72.576 L1527.65 47.1768 L1532.39 47.1768 L1532.39 51.1062 Q1533.97 48.7972 1536.19 47.7034 Q1538.46 46.5692 1541.58 46.5692 Q1544.66 46.5692 1546.85 47.987 Q1549.04 49.3643 1550.09 52.0379 Q1551.83 49.2428 1554.26 47.906 Q1556.73 46.5692 1560.05 46.5692 Q1564.55 46.5692 1566.94 49.3643 Q1569.37 52.1189 1569.37 57.2231 L1569.37 72.576 L1564.67 72.576 L1564.67 57.3851 Q1564.67 53.7393 1563.21 51.9569 Q1561.76 50.1745 1558.76 50.1745 Q1555.11 50.1745 1552.96 52.362 Q1550.86 54.509 1550.86 58.2358 Z" fill="#000000" fill-rule="evenodd" fill-opacity="1" /><path clip-path="url(#clip710)" d="M1603.97 58.8434 L1603.97 60.8689 L1582.37 60.8689 Q1582.7 65.1628 1585.29 67.4314 Q1587.92 69.6999 1592.58 69.6999 Q1595.3 69.6999 1597.85 69.0922 Q1600.36 68.5251 1602.87 67.3503 L1602.87 71.2797 Q1600.36 72.2519 1597.69 72.738 Q1595.05 73.2241 1592.3 73.2241 Q1585.45 73.2241 1581.48 69.6999 Q1577.47 66.1756 1577.47 60.1397 Q1577.47 53.9013 1581.28 50.215 Q1585.05 46.5692 1591.49 46.5692 Q1597.24 46.5692 1600.6 49.8504 Q1603.97 53.1722 1603.97 58.8434 M1599.27 57.5877 Q1599.23 54.1849 1597.12 52.1189 Q1595.01 50.0935 1591.53 50.0935 Q1587.6 50.0935 1585.25 52.0784 Q1582.9 54.0229 1582.54 57.5877 L1599.27 57.5877 Z" fill="#000000" fill-rule="evenodd" fill-opacity="1" /><path clip-path="url(#clip710)" d="M1627.1 59.8157 Q1621.43 59.8157 1619.24 60.9499 Q1617.01 62.1247 1617.01 64.9198 Q1617.01 67.1478 1618.67 68.4441 Q1620.33 69.7404 1623.17 69.7404 Q1627.06 69.7404 1629.41 67.2693 Q1631.8 64.7983 1631.8 60.7474 L1631.8 59.8157 L1627.1 59.8157 M1636.45 58.0738 L1636.45 72.576 L1631.8 72.576 L1631.8 68.7276 Q1630.17 71.0367 1627.78 72.1304 Q1625.35 73.2241 1621.91 73.2241 Q1617.5 73.2241 1614.9 71.0367 Q1612.31 68.8492 1612.31 65.1628 Q1612.31 60.9094 1615.55 58.7219 Q1618.79 56.5344 1625.19 56.5344 L1631.8 56.5344 L1631.8 56.1293 Q1631.8 53.2532 1629.65 51.6733 Q1627.5 50.0935 1623.65 50.0935 Q1621.22 50.0935 1618.87 50.6201 Q1616.56 51.1467 1614.42 52.2 L1614.42 48.3111 Q1617.01 47.4604 1619.44 47.0148 Q1621.83 46.5692 1624.14 46.5692 Q1630.34 46.5692 1633.42 49.4048 Q1636.45 52.281 1636.45 58.0738 Z" fill="#000000" fill-rule="evenodd" fill-opacity="1" /><path clip-path="url(#clip710)" d="M1670.36 57.2231 L1670.36 72.576 L1665.66 72.576 L1665.66 57.3851 Q1665.66 53.7798 1664.08 51.9974 Q1662.5 50.1745 1659.34 50.1745 Q1655.53 50.1745 1653.35 52.362 Q1651.16 54.509 1651.16 58.2358 L1651.16 72.576 L1646.42 72.576 L1646.42 47.1768 L1651.16 47.1768 L1651.16 51.1062 Q1652.82 48.8377 1655.09 47.7034 Q1657.4 46.5692 1660.39 46.5692 Q1665.3 46.5692 1667.81 49.2833 Q1670.36 51.9974 1670.36 57.2231 Z" fill="#000000" fill-rule="evenodd" fill-opacity="1" /><path clip-path="url(#clip710)" d="M1683.53 34.9026 L1735.46 34.9026 L1735.46 41.7081 L1683.53 41.7081 L1683.53 34.9026 M1683.53 51.4303 L1735.46 51.4303 L1735.46 58.3168 L1683.53 58.3168 L1683.53 51.4303 Z" fill="#000000" fill-rule="evenodd" fill-opacity="1" /><path clip-path="url(#clip710)" d="M1775.6 19.2256 L1754.94 51.5113 L1775.6 51.5113 L1775.6 19.2256 M1773.46 12.096 L1783.74 12.096 L1783.74 51.5113 L1792.37 51.5113 L1792.37 58.3168 L1783.74 58.3168 L1783.74 72.576 L1775.6 72.576 L1775.6 58.3168 L1748.3 58.3168 L1748.3 50.4176 L1773.46 12.096 Z" fill="#000000" fill-rule="evenodd" fill-opacity="1" /><path clip-path="url(#clip710)" d="M1805.9 62.2867 L1814.45 62.2867 L1814.45 72.576 L1805.9 72.576 L1805.9 62.2867 Z" fill="#000000" fill-rule="evenodd" fill-opacity="1" /><path clip-path="url(#clip710)" d="M1849.77 17.4837 Q1843.46 17.4837 1840.25 23.7221 Q1837.1 29.92 1837.1 42.3968 Q1837.1 54.833 1840.25 61.0714 Q1843.46 67.2693 1849.77 67.2693 Q1856.13 67.2693 1859.29 61.0714 Q1862.49 54.833 1862.49 42.3968 Q1862.49 29.92 1859.29 23.7221 Q1856.13 17.4837 1849.77 17.4837 M1849.77 11.0023 Q1859.94 11.0023 1865.29 19.0636 Q1870.68 27.0843 1870.68 42.3968 Q1870.68 57.6687 1865.29 65.73 Q1859.94 73.7508 1849.77 73.7508 Q1839.61 73.7508 1834.22 65.73 Q1828.87 57.6687 1828.87 42.3968 Q1828.87 27.0843 1834.22 19.0636 Q1839.61 11.0023 1849.77 11.0023 Z" fill="#000000" fill-rule="evenodd" fill-opacity="1" /><path clip-path="url(#clip710)" d="M1936.83 51.4708 L1935.05 42.1132 Q1933.22 32.5126 1926.01 32.5126 Q1920.58 32.5126 1918.11 36.9686 Q1914.99 42.5588 1914.99 49.9314 Q1914.99 58.8434 1918.03 63.0969 Q1921.11 67.4314 1926.01 67.4314 Q1931.44 67.4314 1934.36 58.8029 L1936.83 51.4708 M1941 39.075 L1945.01 27.2059 L1951.65 27.2059 L1943.35 51.7949 L1944.97 60.6663 Q1945.34 62.6513 1946.75 64.3122 Q1948.41 66.2566 1949.71 66.2566 L1953.28 66.2566 L1953.28 72.576 L1948.82 72.576 Q1945.01 72.576 1941.61 69.1732 Q1939.95 67.4719 1939.26 63.9071 Q1937.4 68.4036 1933.59 71.9279 Q1931.81 73.5887 1926.01 73.5887 Q1916.49 73.5887 1911.87 67.4314 Q1907.14 61.0714 1907.14 49.9314 Q1907.14 38.0218 1912.28 32.4315 Q1917.99 26.1931 1926.01 26.1931 Q1938.61 26.1931 1941 39.075 Z" fill="#000000" fill-rule="evenodd" fill-opacity="1" /><path clip-path="url(#clip710)" d="M1975.15 59.8157 Q1969.48 59.8157 1967.29 60.9499 Q1965.06 62.1247 1965.06 64.9198 Q1965.06 67.1478 1966.72 68.4441 Q1968.38 69.7404 1971.22 69.7404 Q1975.11 69.7404 1977.46 67.2693 Q1979.85 64.7983 1979.85 60.7474 L1979.85 59.8157 L1975.15 59.8157 M1984.51 58.0738 L1984.51 72.576 L1979.85 72.576 L1979.85 68.7276 Q1978.23 71.0367 1975.84 72.1304 Q1973.41 73.2241 1969.96 73.2241 Q1965.55 73.2241 1962.96 71.0367 Q1960.36 68.8492 1960.36 65.1628 Q1960.36 60.9094 1963.6 58.7219 Q1966.85 56.5344 1973.25 56.5344 L1979.85 56.5344 L1979.85 56.1293 Q1979.85 53.2532 1977.7 51.6733 Q1975.56 50.0935 1971.71 50.0935 Q1969.28 50.0935 1966.93 50.6201 Q1964.62 51.1467 1962.47 52.2 L1962.47 48.3111 Q1965.06 47.4604 1967.49 47.0148 Q1969.88 46.5692 1972.19 46.5692 Q1978.39 46.5692 1981.47 49.4048 Q1984.51 52.281 1984.51 58.0738 Z" fill="#000000" fill-rule="evenodd" fill-opacity="1" /><path clip-path="url(#clip710)" d="M2017.68 58.2358 L2017.68 72.576 L2012.99 72.576 L2012.99 57.3851 Q2012.99 53.6988 2011.53 51.9569 Q2010.07 50.1745 2007.03 50.1745 Q2003.43 50.1745 2001.32 52.362 Q1999.21 54.509 1999.21 58.2358 L1999.21 72.576 L1994.47 72.576 L1994.47 47.1768 L1999.21 47.1768 L1999.21 51.1062 Q2000.79 48.7972 2003.02 47.7034 Q2005.29 46.5692 2008.41 46.5692 Q2011.49 46.5692 2013.67 47.987 Q2015.86 49.3643 2016.91 52.0379 Q2018.66 49.2428 2021.09 47.906 Q2023.56 46.5692 2026.88 46.5692 Q2031.38 46.5692 2033.77 49.3643 Q2036.2 52.1189 2036.2 57.2231 L2036.2 72.576 L2031.5 72.576 L2031.5 57.3851 Q2031.5 53.7393 2030.04 51.9569 Q2028.58 50.1745 2025.58 50.1745 Q2021.94 50.1745 2019.79 52.362 Q2017.68 54.509 2017.68 58.2358 Z" fill="#000000" fill-rule="evenodd" fill-opacity="1" /><path clip-path="url(#clip710)" d="M2050.9 68.7682 L2050.9 82.2577 L2046.16 82.2577 L2046.16 47.1768 L2050.9 47.1768 L2050.9 51.0252 Q2052.36 48.7567 2054.63 47.6629 Q2056.9 46.5692 2060.02 46.5692 Q2065.24 46.5692 2068.48 50.215 Q2071.72 53.9013 2071.72 59.8967 Q2071.72 65.892 2068.48 69.5783 Q2065.24 73.2241 2060.02 73.2241 Q2056.9 73.2241 2054.63 72.1304 Q2052.36 71.0367 2050.9 68.7682 M2064.76 67.1073 Q2066.86 64.5147 2066.86 59.8967 Q2066.86 55.2786 2064.76 52.6861 Q2062.61 50.053 2058.88 50.053 Q2055.16 50.053 2053.01 52.6861 Q2050.9 55.2786 2050.9 59.8967 Q2050.9 64.5147 2053.01 67.1073 Q2055.16 69.7404 2058.88 69.7404 Q2062.61 69.7404 2064.76 67.1073 Z" fill="#000000" fill-rule="evenodd" fill-opacity="1" /><path clip-path="url(#clip710)" d="M2085.74 34.9026 L2137.67 34.9026 L2137.67 41.7081 L2085.74 41.7081 L2085.74 34.9026 M2085.74 51.4303 L2137.67 51.4303 L2137.67 58.3168 L2085.74 58.3168 L2085.74 51.4303 Z" fill="#000000" fill-rule="evenodd" fill-opacity="1" /><path clip-path="url(#clip710)" d="M2177.82 19.2256 L2157.16 51.5113 L2177.82 51.5113 L2177.82 19.2256 M2175.67 12.096 L2185.96 12.096 L2185.96 51.5113 L2194.59 51.5113 L2194.59 58.3168 L2185.96 58.3168 L2185.96 72.576 L2177.82 72.576 L2177.82 58.3168 L2150.51 58.3168 L2150.51 50.4176 L2175.67 12.096 Z" fill="#000000" fill-rule="evenodd" fill-opacity="1" /><path clip-path="url(#clip710)" d="M2208.12 62.2867 L2216.66 62.2867 L2216.66 72.576 L2208.12 72.576 L2208.12 62.2867 Z" fill="#000000" fill-rule="evenodd" fill-opacity="1" /><path clip-path="url(#clip710)" d="M2251.99 17.4837 Q2245.67 17.4837 2242.47 23.7221 Q2239.31 29.92 2239.31 42.3968 Q2239.31 54.833 2242.47 61.0714 Q2245.67 67.2693 2251.99 67.2693 Q2258.35 67.2693 2261.51 61.0714 Q2264.71 54.833 2264.71 42.3968 Q2264.71 29.92 2261.51 23.7221 Q2258.35 17.4837 2251.99 17.4837 M2251.99 11.0023 Q2262.16 11.0023 2267.5 19.0636 Q2272.89 27.0843 2272.89 42.3968 Q2272.89 57.6687 2267.5 65.73 Q2262.16 73.7508 2251.99 73.7508 Q2241.82 73.7508 2236.43 65.73 Q2231.09 57.6687 2231.09 42.3968 Q2231.09 27.0843 2236.43 19.0636 Q2241.82 11.0023 2251.99 11.0023 Z" fill="#000000" fill-rule="evenodd" fill-opacity="1" /><polyline clip-path="url(#clip712)" style="stroke:#009af9; stroke-linecap:butt; stroke-linejoin:round; stroke-width:4; stroke-opacity:1; fill:none" points="
  271.931,448.399 278.688,703.141 285.444,636.083 292.201,533.863 298.958,437.636 305.714,394.697 312.471,424.301 319.227,510.151 325.984,616.237 332.74,694.494 
  339.497,729.685 346.254,698.609 353.01,667.174 359.767,589.75 366.523,490.831 373.28,420.289 380.037,458.544 386.793,523.707 393.55,610.797 400.306,701.548 
  407.063,711.6 413.819,703.211 420.576,687.056 427.333,603.244 434.089,453.593 440.846,418.959 447.602,417.114 454.359,550.535 461.116,587.596 467.872,709.597 
  474.629,728.371 481.385,695.091 488.142,685.909 494.898,573.268 501.655,407.782 508.412,441.972 515.168,467.098 521.925,535.521 528.681,604.439 535.438,706.566 
  542.194,738.109 548.951,677.276 555.708,695.862 562.464,559.997 569.221,401.039 575.977,442.844 582.734,473.864 589.491,530.107 596.247,605.438 603.004,714.153 
  609.76,740.027 616.517,672.121 623.273,707.628 630.03,555.019 636.787,388.453 643.543,435.843 650.3,477.299 657.056,522.901 663.813,610.021 670.57,719.285 
  677.326,751.361 684.083,657.039 690.839,720.137 697.596,541.692 704.352,374.838 711.109,422.4 717.866,474.435 724.622,516.158 731.379,617.024 738.135,732.487 
  744.892,764.106 751.649,665.185 758.405,731.388 765.162,519.899 771.918,367.618 778.675,405.331 785.431,458.328 792.188,507.337 798.945,630.971 805.701,743.825 
  812.458,774.655 819.214,669.92 825.971,743.181 832.728,522.564 839.484,379.727 846.241,426.502 852.997,440.563 859.754,497.176 866.51,647.702 873.267,760.883 
  880.024,784.928 886.78,688.875 893.537,755.335 900.293,495.133 907.05,421.303 913.807,535.298 920.563,420.606 927.32,486.118 934.076,667.491 940.833,789.179 
  947.589,742.993 954.346,715.388 961.103,767.205 967.859,461.86 974.616,498.93 981.372,563.936 988.129,398.712 994.886,477.589 1001.64,691.348 1008.4,759.772 
  1015.16,708.315 1021.91,741.424 1028.67,779.05 1035.43,490.871 1042.18,507.311 1048.94,572.873 1055.69,372.245 1062.45,465.678 1069.21,719.203 1075.96,692.234 
  1082.72,693.934 1089.48,763.096 1096.23,790.905 1102.99,458.417 1109.75,513.383 1116.5,567.938 1123.26,340.701 1130.02,453.642 1136.77,751.631 1143.53,692.791 
  1150.29,706.029 1157.04,786.27 1163.8,802.222 1170.56,529.193 1177.31,511.444 1184.07,551.728 1190.83,344.306 1197.58,442.188 1204.34,788.144 1211.1,739.255 
  1217.85,743.175 1224.61,813.225 1231.37,813.306 1238.12,502.902 1244.88,492.928 1251.64,520.478 1258.39,670.717 1265.15,431.037 1271.91,829.05 1278.66,792.17 
  1285.42,796.688 1292.18,695.661 1298.93,824.185 1305.69,620.638 1312.44,450.274 1319.2,476.212 1325.96,672.064 1332.71,420.333 1339.47,753.879 1346.23,847.948 
  1352.98,845.911 1359.74,720.946 1366.5,834.169 1373.25,601.446 1380.01,387.69 1386.77,419.403 1393.52,667.94 1400.28,412.939 1407.04,447.126 1413.79,902.526 
  1420.55,878.216 1427.31,608.389 1434.06,843.657 1440.82,580.411 1447.58,384.409 1454.33,369.769 1461.09,660.996 1467.85,404.829 1474.6,466.959 1481.36,942.098 
  1488.12,901.171 1494.87,637.395 1501.63,852.677 1508.39,557.05 1515.14,400.345 1521.9,425.01 1528.66,651.364 1535.41,397.955 1542.17,493.495 1548.93,972.933 
  1555.68,919.098 1562.44,674.007 1569.2,860.553 1575.95,521.785 1582.71,470.798 1589.46,651.03 1596.22,639.252 1602.98,393.27 1609.73,524.552 1616.49,973.354 
  1623.25,759.432 1630,593.373 1636.76,867.439 1643.52,462.769 1650.27,598.124 1657.03,606.167 1663.79,625.502 1670.54,390.841 1677.3,560.014 1684.06,781.728 
  1690.81,790.224 1697.57,638.387 1704.33,873.679 1711.08,395.282 1717.84,552.059 1724.6,564.353 1731.35,608.884 1738.11,391.768 1744.87,599.775 1751.62,570.935 
  1758.38,676.899 1765.14,599.275 1771.89,878.594 1778.65,304.741 1785.41,504.447 1792.16,518.512 1798.92,590.624 1805.68,394.092 1812.43,648.971 1819.19,576.897 
  1825.95,618.429 1832.7,645.829 1839.46,882.073 1846.21,243.206 1852.97,448.123 1859.73,465.989 1866.48,569.685 1873.24,399.288 1880,705.101 1886.75,631.285 
  1893.51,621.349 1900.27,697.681 1907.02,884.053 1913.78,136.206 1920.54,373.317 1927.29,400.898 1934.05,547.675 1940.81,407.252 1947.56,761.411 1954.32,722.805 
  1961.08,672.468 1967.83,703.376 1974.59,884.671 1981.35,123.785 1988.1,270.905 1994.86,320.692 2001.62,530.33 2008.37,419.294 2015.13,815.914 2021.89,805.699 
  2028.64,744.039 2035.4,757.1 2042.16,882.736 2048.91,188.645 2055.67,148.198 2062.43,228.07 2069.18,505.926 2075.94,434.053 2082.7,871.601 2089.45,875.306 
  2096.21,801.814 2102.97,809.541 2109.72,876.489 2116.48,117.881 2123.23,47.8965 2129.99,127.986 2136.75,478.9 2143.5,452.356 2150.26,937.281 2157.02,912.187 
  2163.77,831.841 2170.53,860.088 2177.29,864.808 2184.04,294.055 2190.8,163.612 2197.56,20.1536 2204.31,449.945 2211.07,474.075 2217.83,962.572 2224.58,921.793 
  2231.34,846.357 2238.1,889.871 2244.85,847.118 2251.61,559.574 2258.37,325.601 2265.12,24.2817 2271.88,423.08 2278.64,499.913 2285.39,361.075 2292.15,904.057 
  
  "/>
</svg>
