<?xml version="1.0" encoding="utf-8"?>
<svg xmlns="http://www.w3.org/2000/svg" xmlns:xlink="http://www.w3.org/1999/xlink" width="600" height="400" viewBox="0 0 2400 1600">
<defs>
  <clipPath id="clip630">
    <rect x="0" y="0" width="2400" height="1600"/>
  </clipPath>
</defs>
<path clip-path="url(#clip630)" d="
M0 1600 L2400 1600 L2400 0 L0 0  Z
  " fill="#ffffff" fill-rule="evenodd" fill-opacity="1"/>
<defs>
  <clipPath id="clip631">
    <rect x="480" y="0" width="1681" height="1600"/>
  </clipPath>
</defs>
<path clip-path="url(#clip630)" d="
M175.445 1423.18 L2352.76 1423.18 L2352.76 123.472 L175.445 123.472  Z
  " fill="#ffffff" fill-rule="evenodd" fill-opacity="1"/>
<defs>
  <clipPath id="clip632">
    <rect x="175" y="123" width="2178" height="1301"/>
  </clipPath>
</defs>
<polyline clip-path="url(#clip632)" style="stroke:#000000; stroke-linecap:butt; stroke-linejoin:round; stroke-width:2; stroke-opacity:0.1; fill:none" points="
  237.067,1423.18 237.067,123.472 
  "/>
<polyline clip-path="url(#clip632)" style="stroke:#000000; stroke-linecap:butt; stroke-linejoin:round; stroke-width:2; stroke-opacity:0.1; fill:none" points="
  579.412,1423.18 579.412,123.472 
  "/>
<polyline clip-path="url(#clip632)" style="stroke:#000000; stroke-linecap:butt; stroke-linejoin:round; stroke-width:2; stroke-opacity:0.1; fill:none" points="
  921.756,1423.18 921.756,123.472 
  "/>
<polyline clip-path="url(#clip632)" style="stroke:#000000; stroke-linecap:butt; stroke-linejoin:round; stroke-width:2; stroke-opacity:0.1; fill:none" points="
  1264.1,1423.18 1264.1,123.472 
  "/>
<polyline clip-path="url(#clip632)" style="stroke:#000000; stroke-linecap:butt; stroke-linejoin:round; stroke-width:2; stroke-opacity:0.1; fill:none" points="
  1606.45,1423.18 1606.45,123.472 
  "/>
<polyline clip-path="url(#clip632)" style="stroke:#000000; stroke-linecap:butt; stroke-linejoin:round; stroke-width:2; stroke-opacity:0.1; fill:none" points="
  1948.79,1423.18 1948.79,123.472 
  "/>
<polyline clip-path="url(#clip632)" style="stroke:#000000; stroke-linecap:butt; stroke-linejoin:round; stroke-width:2; stroke-opacity:0.1; fill:none" points="
  2291.13,1423.18 2291.13,123.472 
  "/>
<polyline clip-path="url(#clip630)" style="stroke:#000000; stroke-linecap:butt; stroke-linejoin:round; stroke-width:4; stroke-opacity:1; fill:none" points="
  175.445,1423.18 2352.76,1423.18 
  "/>
<polyline clip-path="url(#clip630)" style="stroke:#000000; stroke-linecap:butt; stroke-linejoin:round; stroke-width:4; stroke-opacity:1; fill:none" points="
  237.067,1423.18 237.067,1404.28 
  "/>
<polyline clip-path="url(#clip630)" style="stroke:#000000; stroke-linecap:butt; stroke-linejoin:round; stroke-width:4; stroke-opacity:1; fill:none" points="
  579.412,1423.18 579.412,1404.28 
  "/>
<polyline clip-path="url(#clip630)" style="stroke:#000000; stroke-linecap:butt; stroke-linejoin:round; stroke-width:4; stroke-opacity:1; fill:none" points="
  921.756,1423.18 921.756,1404.28 
  "/>
<polyline clip-path="url(#clip630)" style="stroke:#000000; stroke-linecap:butt; stroke-linejoin:round; stroke-width:4; stroke-opacity:1; fill:none" points="
  1264.1,1423.18 1264.1,1404.28 
  "/>
<polyline clip-path="url(#clip630)" style="stroke:#000000; stroke-linecap:butt; stroke-linejoin:round; stroke-width:4; stroke-opacity:1; fill:none" points="
  1606.45,1423.18 1606.45,1404.28 
  "/>
<polyline clip-path="url(#clip630)" style="stroke:#000000; stroke-linecap:butt; stroke-linejoin:round; stroke-width:4; stroke-opacity:1; fill:none" points="
  1948.79,1423.18 1948.79,1404.28 
  "/>
<polyline clip-path="url(#clip630)" style="stroke:#000000; stroke-linecap:butt; stroke-linejoin:round; stroke-width:4; stroke-opacity:1; fill:none" points="
  2291.13,1423.18 2291.13,1404.28 
  "/>
<path clip-path="url(#clip630)" d="M237.067 1454.1 Q233.456 1454.1 231.627 1457.66 Q229.822 1461.2 229.822 1468.33 Q229.822 1475.44 231.627 1479.01 Q233.456 1482.55 237.067 1482.55 Q240.701 1482.55 242.507 1479.01 Q244.336 1475.44 244.336 1468.33 Q244.336 1461.2 242.507 1457.66 Q240.701 1454.1 237.067 1454.1 M237.067 1450.39 Q242.877 1450.39 245.933 1455 Q249.012 1459.58 249.012 1468.33 Q249.012 1477.06 245.933 1481.67 Q242.877 1486.25 237.067 1486.25 Q231.257 1486.25 228.178 1481.67 Q225.123 1477.06 225.123 1468.33 Q225.123 1459.58 228.178 1455 Q231.257 1450.39 237.067 1450.39 Z" fill="#000000" fill-rule="evenodd" fill-opacity="1" /><path clip-path="url(#clip630)" d="M554.099 1481.64 L561.738 1481.64 L561.738 1455.28 L553.428 1456.95 L553.428 1452.69 L561.692 1451.02 L566.368 1451.02 L566.368 1481.64 L574.007 1481.64 L574.007 1485.58 L554.099 1485.58 L554.099 1481.64 Z" fill="#000000" fill-rule="evenodd" fill-opacity="1" /><path clip-path="url(#clip630)" d="M593.451 1454.1 Q589.84 1454.1 588.011 1457.66 Q586.206 1461.2 586.206 1468.33 Q586.206 1475.44 588.011 1479.01 Q589.84 1482.55 593.451 1482.55 Q597.085 1482.55 598.891 1479.01 Q600.719 1475.44 600.719 1468.33 Q600.719 1461.2 598.891 1457.66 Q597.085 1454.1 593.451 1454.1 M593.451 1450.39 Q599.261 1450.39 602.317 1455 Q605.395 1459.58 605.395 1468.33 Q605.395 1477.06 602.317 1481.67 Q599.261 1486.25 593.451 1486.25 Q587.641 1486.25 584.562 1481.67 Q581.507 1477.06 581.507 1468.33 Q581.507 1459.58 584.562 1455 Q587.641 1450.39 593.451 1450.39 Z" fill="#000000" fill-rule="evenodd" fill-opacity="1" /><path clip-path="url(#clip630)" d="M900.529 1481.64 L916.849 1481.64 L916.849 1485.58 L894.904 1485.58 L894.904 1481.64 Q897.566 1478.89 902.15 1474.26 Q906.756 1469.61 907.937 1468.27 Q910.182 1465.74 911.062 1464.01 Q911.964 1462.25 911.964 1460.56 Q911.964 1457.8 910.02 1456.07 Q908.099 1454.33 904.997 1454.33 Q902.798 1454.33 900.344 1455.09 Q897.914 1455.86 895.136 1457.41 L895.136 1452.69 Q897.96 1451.55 900.414 1450.97 Q902.867 1450.39 904.904 1450.39 Q910.275 1450.39 913.469 1453.08 Q916.664 1455.77 916.664 1460.26 Q916.664 1462.39 915.853 1464.31 Q915.066 1466.2 912.96 1468.8 Q912.381 1469.47 909.279 1472.69 Q906.177 1475.88 900.529 1481.64 Z" fill="#000000" fill-rule="evenodd" fill-opacity="1" /><path clip-path="url(#clip630)" d="M936.663 1454.1 Q933.052 1454.1 931.224 1457.66 Q929.418 1461.2 929.418 1468.33 Q929.418 1475.44 931.224 1479.01 Q933.052 1482.55 936.663 1482.55 Q940.298 1482.55 942.103 1479.01 Q943.932 1475.44 943.932 1468.33 Q943.932 1461.2 942.103 1457.66 Q940.298 1454.1 936.663 1454.1 M936.663 1450.39 Q942.474 1450.39 945.529 1455 Q948.608 1459.58 948.608 1468.33 Q948.608 1477.06 945.529 1481.67 Q942.474 1486.25 936.663 1486.25 Q930.853 1486.25 927.775 1481.67 Q924.719 1477.06 924.719 1468.33 Q924.719 1459.58 927.775 1455 Q930.853 1450.39 936.663 1450.39 Z" fill="#000000" fill-rule="evenodd" fill-opacity="1" /><path clip-path="url(#clip630)" d="M1252.94 1466.95 Q1256.3 1467.66 1258.17 1469.93 Q1260.07 1472.2 1260.07 1475.53 Q1260.07 1480.65 1256.55 1483.45 Q1253.04 1486.25 1246.55 1486.25 Q1244.38 1486.25 1242.06 1485.81 Q1239.77 1485.39 1237.32 1484.54 L1237.32 1480.02 Q1239.26 1481.16 1241.58 1481.74 Q1243.89 1482.32 1246.42 1482.32 Q1250.81 1482.32 1253.11 1480.58 Q1255.42 1478.84 1255.42 1475.53 Q1255.42 1472.48 1253.27 1470.77 Q1251.14 1469.03 1247.32 1469.03 L1243.29 1469.03 L1243.29 1465.19 L1247.5 1465.19 Q1250.95 1465.19 1252.78 1463.82 Q1254.61 1462.43 1254.61 1459.84 Q1254.61 1457.18 1252.71 1455.77 Q1250.84 1454.33 1247.32 1454.33 Q1245.4 1454.33 1243.2 1454.75 Q1241 1455.16 1238.36 1456.04 L1238.36 1451.88 Q1241.02 1451.14 1243.34 1450.77 Q1245.67 1450.39 1247.73 1450.39 Q1253.06 1450.39 1256.16 1452.83 Q1259.26 1455.23 1259.26 1459.35 Q1259.26 1462.22 1257.62 1464.21 Q1255.98 1466.18 1252.94 1466.95 Z" fill="#000000" fill-rule="evenodd" fill-opacity="1" /><path clip-path="url(#clip630)" d="M1278.94 1454.1 Q1275.33 1454.1 1273.5 1457.66 Q1271.69 1461.2 1271.69 1468.33 Q1271.69 1475.44 1273.5 1479.01 Q1275.33 1482.55 1278.94 1482.55 Q1282.57 1482.55 1284.38 1479.01 Q1286.21 1475.44 1286.21 1468.33 Q1286.21 1461.2 1284.38 1457.66 Q1282.57 1454.1 1278.94 1454.1 M1278.94 1450.39 Q1284.75 1450.39 1287.8 1455 Q1290.88 1459.58 1290.88 1468.33 Q1290.88 1477.06 1287.8 1481.67 Q1284.75 1486.25 1278.94 1486.25 Q1273.13 1486.25 1270.05 1481.67 Q1266.99 1477.06 1266.99 1468.33 Q1266.99 1459.58 1270.05 1455 Q1273.13 1450.39 1278.94 1450.39 Z" fill="#000000" fill-rule="evenodd" fill-opacity="1" /><path clip-path="url(#clip630)" d="M1594.62 1455.09 L1582.81 1473.54 L1594.62 1473.54 L1594.62 1455.09 M1593.39 1451.02 L1599.27 1451.02 L1599.27 1473.54 L1604.2 1473.54 L1604.2 1477.43 L1599.27 1477.43 L1599.27 1485.58 L1594.62 1485.58 L1594.62 1477.43 L1579.01 1477.43 L1579.01 1472.92 L1593.39 1451.02 Z" fill="#000000" fill-rule="evenodd" fill-opacity="1" /><path clip-path="url(#clip630)" d="M1621.93 1454.1 Q1618.32 1454.1 1616.49 1457.66 Q1614.69 1461.2 1614.69 1468.33 Q1614.69 1475.44 1616.49 1479.01 Q1618.32 1482.55 1621.93 1482.55 Q1625.57 1482.55 1627.37 1479.01 Q1629.2 1475.44 1629.2 1468.33 Q1629.2 1461.2 1627.37 1457.66 Q1625.57 1454.1 1621.93 1454.1 M1621.93 1450.39 Q1627.74 1450.39 1630.8 1455 Q1633.88 1459.58 1633.88 1468.33 Q1633.88 1477.06 1630.8 1481.67 Q1627.74 1486.25 1621.93 1486.25 Q1616.12 1486.25 1613.04 1481.67 Q1609.99 1477.06 1609.99 1468.33 Q1609.99 1459.58 1613.04 1455 Q1616.12 1450.39 1621.93 1450.39 Z" fill="#000000" fill-rule="evenodd" fill-opacity="1" /><path clip-path="url(#clip630)" d="M1923.49 1451.02 L1941.85 1451.02 L1941.85 1454.96 L1927.77 1454.96 L1927.77 1463.43 Q1928.79 1463.08 1929.81 1462.92 Q1930.83 1462.73 1931.85 1462.73 Q1937.63 1462.73 1941.01 1465.9 Q1944.39 1469.08 1944.39 1474.49 Q1944.39 1480.07 1940.92 1483.17 Q1937.45 1486.25 1931.13 1486.25 Q1928.95 1486.25 1926.68 1485.88 Q1924.44 1485.51 1922.03 1484.77 L1922.03 1480.07 Q1924.11 1481.2 1926.34 1481.76 Q1928.56 1482.32 1931.03 1482.32 Q1935.04 1482.32 1937.38 1480.21 Q1939.72 1478.1 1939.72 1474.49 Q1939.72 1470.88 1937.38 1468.77 Q1935.04 1466.67 1931.03 1466.67 Q1929.16 1466.67 1927.28 1467.08 Q1925.43 1467.5 1923.49 1468.38 L1923.49 1451.02 Z" fill="#000000" fill-rule="evenodd" fill-opacity="1" /><path clip-path="url(#clip630)" d="M1963.6 1454.1 Q1959.99 1454.1 1958.16 1457.66 Q1956.36 1461.2 1956.36 1468.33 Q1956.36 1475.44 1958.16 1479.01 Q1959.99 1482.55 1963.6 1482.55 Q1967.24 1482.55 1969.04 1479.01 Q1970.87 1475.44 1970.87 1468.33 Q1970.87 1461.2 1969.04 1457.66 Q1967.24 1454.1 1963.6 1454.1 M1963.6 1450.39 Q1969.41 1450.39 1972.47 1455 Q1975.55 1459.58 1975.55 1468.33 Q1975.55 1477.06 1972.47 1481.67 Q1969.41 1486.25 1963.6 1486.25 Q1957.79 1486.25 1954.72 1481.67 Q1951.66 1477.06 1951.66 1468.33 Q1951.66 1459.58 1954.72 1455 Q1957.79 1450.39 1963.6 1450.39 Z" fill="#000000" fill-rule="evenodd" fill-opacity="1" /><path clip-path="url(#clip630)" d="M2276.54 1466.44 Q2273.39 1466.44 2271.54 1468.59 Q2269.71 1470.74 2269.71 1474.49 Q2269.71 1478.22 2271.54 1480.39 Q2273.39 1482.55 2276.54 1482.55 Q2279.69 1482.55 2281.52 1480.39 Q2283.37 1478.22 2283.37 1474.49 Q2283.37 1470.74 2281.52 1468.59 Q2279.69 1466.44 2276.54 1466.44 M2285.82 1451.78 L2285.82 1456.04 Q2284.06 1455.21 2282.26 1454.77 Q2280.47 1454.33 2278.71 1454.33 Q2274.09 1454.33 2271.63 1457.45 Q2269.2 1460.58 2268.85 1466.9 Q2270.22 1464.89 2272.28 1463.82 Q2274.34 1462.73 2276.82 1462.73 Q2282.03 1462.73 2285.03 1465.9 Q2288.07 1469.05 2288.07 1474.49 Q2288.07 1479.82 2284.92 1483.03 Q2281.77 1486.25 2276.54 1486.25 Q2270.54 1486.25 2267.37 1481.67 Q2264.2 1477.06 2264.2 1468.33 Q2264.2 1460.14 2268.09 1455.28 Q2271.98 1450.39 2278.53 1450.39 Q2280.29 1450.39 2282.07 1450.74 Q2283.88 1451.09 2285.82 1451.78 Z" fill="#000000" fill-rule="evenodd" fill-opacity="1" /><path clip-path="url(#clip630)" d="M2306.12 1454.1 Q2302.51 1454.1 2300.68 1457.66 Q2298.88 1461.2 2298.88 1468.33 Q2298.88 1475.44 2300.68 1479.01 Q2302.51 1482.55 2306.12 1482.55 Q2309.76 1482.55 2311.56 1479.01 Q2313.39 1475.44 2313.39 1468.33 Q2313.39 1461.2 2311.56 1457.66 Q2309.76 1454.1 2306.12 1454.1 M2306.12 1450.39 Q2311.93 1450.39 2314.99 1455 Q2318.07 1459.58 2318.07 1468.33 Q2318.07 1477.06 2314.99 1481.67 Q2311.93 1486.25 2306.12 1486.25 Q2300.31 1486.25 2297.23 1481.67 Q2294.18 1477.06 2294.18 1468.33 Q2294.18 1459.58 2297.23 1455 Q2300.31 1450.39 2306.12 1450.39 Z" fill="#000000" fill-rule="evenodd" fill-opacity="1" /><path clip-path="url(#clip630)" d="M1212.41 1522.27 L1212.41 1532.4 L1224.47 1532.4 L1224.47 1536.95 L1212.41 1536.95 L1212.41 1556.3 Q1212.41 1560.66 1213.59 1561.9 Q1214.8 1563.14 1218.46 1563.14 L1224.47 1563.14 L1224.47 1568.04 L1218.46 1568.04 Q1211.68 1568.04 1209.1 1565.53 Q1206.52 1562.98 1206.52 1556.3 L1206.52 1536.95 L1202.23 1536.95 L1202.23 1532.4 L1206.52 1532.4 L1206.52 1522.27 L1212.41 1522.27 Z" fill="#000000" fill-rule="evenodd" fill-opacity="1" /><path clip-path="url(#clip630)" d="M1252.36 1518.52 L1265.85 1518.52 L1265.85 1523.07 L1258.21 1523.07 L1258.21 1572.09 L1265.85 1572.09 L1265.85 1576.64 L1252.36 1576.64 L1252.36 1518.52 Z" fill="#000000" fill-rule="evenodd" fill-opacity="1" /><path clip-path="url(#clip630)" d="M1301.05 1533.45 L1301.05 1538.98 Q1298.57 1537.71 1295.9 1537.07 Q1293.22 1536.44 1290.36 1536.44 Q1286 1536.44 1283.8 1537.77 Q1281.64 1539.11 1281.64 1541.79 Q1281.64 1543.82 1283.2 1545 Q1284.76 1546.15 1289.47 1547.2 L1291.47 1547.64 Q1297.71 1548.98 1300.32 1551.43 Q1302.96 1553.85 1302.96 1558.21 Q1302.96 1563.17 1299.02 1566.07 Q1295.1 1568.97 1288.23 1568.97 Q1285.36 1568.97 1282.24 1568.39 Q1279.16 1567.85 1275.72 1566.74 L1275.72 1560.69 Q1278.96 1562.38 1282.12 1563.24 Q1285.27 1564.07 1288.35 1564.07 Q1292.49 1564.07 1294.72 1562.66 Q1296.95 1561.23 1296.95 1558.65 Q1296.95 1556.27 1295.32 1554.99 Q1293.73 1553.72 1288.29 1552.54 L1286.25 1552.07 Q1280.81 1550.92 1278.39 1548.56 Q1275.97 1546.18 1275.97 1542.04 Q1275.97 1537.01 1279.54 1534.27 Q1283.1 1531.54 1289.66 1531.54 Q1292.91 1531.54 1295.77 1532.01 Q1298.63 1532.49 1301.05 1533.45 Z" fill="#000000" fill-rule="evenodd" fill-opacity="1" /><path clip-path="url(#clip630)" d="M1325.98 1518.52 L1325.98 1576.64 L1312.48 1576.64 L1312.48 1572.09 L1320.09 1572.09 L1320.09 1523.07 L1312.48 1523.07 L1312.48 1518.52 L1325.98 1518.52 Z" fill="#000000" fill-rule="evenodd" fill-opacity="1" /><polyline clip-path="url(#clip632)" style="stroke:#000000; stroke-linecap:butt; stroke-linejoin:round; stroke-width:2; stroke-opacity:0.1; fill:none" points="
  175.445,1386.4 2352.76,1386.4 
  "/>
<polyline clip-path="url(#clip632)" style="stroke:#000000; stroke-linecap:butt; stroke-linejoin:round; stroke-width:2; stroke-opacity:0.1; fill:none" points="
  175.445,1079.87 2352.76,1079.87 
  "/>
<polyline clip-path="url(#clip632)" style="stroke:#000000; stroke-linecap:butt; stroke-linejoin:round; stroke-width:2; stroke-opacity:0.1; fill:none" points="
  175.445,773.326 2352.76,773.326 
  "/>
<polyline clip-path="url(#clip632)" style="stroke:#000000; stroke-linecap:butt; stroke-linejoin:round; stroke-width:2; stroke-opacity:0.1; fill:none" points="
  175.445,466.787 2352.76,466.787 
  "/>
<polyline clip-path="url(#clip632)" style="stroke:#000000; stroke-linecap:butt; stroke-linejoin:round; stroke-width:2; stroke-opacity:0.1; fill:none" points="
  175.445,160.248 2352.76,160.248 
  "/>
<polyline clip-path="url(#clip630)" style="stroke:#000000; stroke-linecap:butt; stroke-linejoin:round; stroke-width:4; stroke-opacity:1; fill:none" points="
  175.445,1423.18 175.445,123.472 
  "/>
<polyline clip-path="url(#clip630)" style="stroke:#000000; stroke-linecap:butt; stroke-linejoin:round; stroke-width:4; stroke-opacity:1; fill:none" points="
  175.445,1386.4 194.343,1386.4 
  "/>
<polyline clip-path="url(#clip630)" style="stroke:#000000; stroke-linecap:butt; stroke-linejoin:round; stroke-width:4; stroke-opacity:1; fill:none" points="
  175.445,1079.87 194.343,1079.87 
  "/>
<polyline clip-path="url(#clip630)" style="stroke:#000000; stroke-linecap:butt; stroke-linejoin:round; stroke-width:4; stroke-opacity:1; fill:none" points="
  175.445,773.326 194.343,773.326 
  "/>
<polyline clip-path="url(#clip630)" style="stroke:#000000; stroke-linecap:butt; stroke-linejoin:round; stroke-width:4; stroke-opacity:1; fill:none" points="
  175.445,466.787 194.343,466.787 
  "/>
<polyline clip-path="url(#clip630)" style="stroke:#000000; stroke-linecap:butt; stroke-linejoin:round; stroke-width:4; stroke-opacity:1; fill:none" points="
  175.445,160.248 194.343,160.248 
  "/>
<path clip-path="url(#clip630)" d="M127.501 1372.2 Q123.89 1372.2 122.061 1375.77 Q120.255 1379.31 120.255 1386.44 Q120.255 1393.55 122.061 1397.11 Q123.89 1400.65 127.501 1400.65 Q131.135 1400.65 132.941 1397.11 Q134.769 1393.55 134.769 1386.44 Q134.769 1379.31 132.941 1375.77 Q131.135 1372.2 127.501 1372.2 M127.501 1368.5 Q133.311 1368.5 136.367 1373.11 Q139.445 1377.69 139.445 1386.44 Q139.445 1395.17 136.367 1399.77 Q133.311 1404.36 127.501 1404.36 Q121.691 1404.36 118.612 1399.77 Q115.556 1395.17 115.556 1386.44 Q115.556 1377.69 118.612 1373.11 Q121.691 1368.5 127.501 1368.5 Z" fill="#000000" fill-rule="evenodd" fill-opacity="1" /><path clip-path="url(#clip630)" d="M123.126 1093.21 L139.445 1093.21 L139.445 1097.15 L117.501 1097.15 L117.501 1093.21 Q120.163 1090.46 124.746 1085.83 Q129.353 1081.17 130.533 1079.83 Q132.779 1077.31 133.658 1075.57 Q134.561 1073.81 134.561 1072.12 Q134.561 1069.37 132.617 1067.63 Q130.695 1065.9 127.593 1065.9 Q125.394 1065.9 122.941 1066.66 Q120.51 1067.42 117.732 1068.97 L117.732 1064.25 Q120.556 1063.12 123.01 1062.54 Q125.464 1061.96 127.501 1061.96 Q132.871 1061.96 136.066 1064.65 Q139.26 1067.33 139.26 1071.82 Q139.26 1073.95 138.45 1075.87 Q137.663 1077.77 135.556 1080.36 Q134.978 1081.03 131.876 1084.25 Q128.774 1087.45 123.126 1093.21 Z" fill="#000000" fill-rule="evenodd" fill-opacity="1" /><path clip-path="url(#clip630)" d="M129.862 760.12 L118.056 778.569 L129.862 778.569 L129.862 760.12 M128.635 756.046 L134.515 756.046 L134.515 778.569 L139.445 778.569 L139.445 782.458 L134.515 782.458 L134.515 790.606 L129.862 790.606 L129.862 782.458 L114.26 782.458 L114.26 777.944 L128.635 756.046 Z" fill="#000000" fill-rule="evenodd" fill-opacity="1" /><path clip-path="url(#clip630)" d="M127.917 464.923 Q124.769 464.923 122.918 467.076 Q121.089 469.229 121.089 472.979 Q121.089 476.706 122.918 478.882 Q124.769 481.035 127.917 481.035 Q131.066 481.035 132.894 478.882 Q134.746 476.706 134.746 472.979 Q134.746 469.229 132.894 467.076 Q131.066 464.923 127.917 464.923 M137.2 450.271 L137.2 454.53 Q135.441 453.697 133.635 453.257 Q131.853 452.817 130.093 452.817 Q125.464 452.817 123.01 455.942 Q120.58 459.067 120.232 465.386 Q121.598 463.373 123.658 462.308 Q125.718 461.22 128.195 461.22 Q133.404 461.22 136.413 464.391 Q139.445 467.539 139.445 472.979 Q139.445 478.303 136.297 481.521 Q133.149 484.738 127.917 484.738 Q121.922 484.738 118.751 480.155 Q115.58 475.548 115.58 466.822 Q115.58 458.627 119.468 453.766 Q123.357 448.882 129.908 448.882 Q131.667 448.882 133.45 449.229 Q135.255 449.576 137.2 450.271 Z" fill="#000000" fill-rule="evenodd" fill-opacity="1" /><path clip-path="url(#clip630)" d="M127.593 161.116 Q124.26 161.116 122.339 162.898 Q120.441 164.681 120.441 167.806 Q120.441 170.931 122.339 172.713 Q124.26 174.495 127.593 174.495 Q130.927 174.495 132.848 172.713 Q134.769 170.908 134.769 167.806 Q134.769 164.681 132.848 162.898 Q130.95 161.116 127.593 161.116 M122.918 159.125 Q119.908 158.384 118.218 156.324 Q116.552 154.264 116.552 151.301 Q116.552 147.158 119.492 144.75 Q122.455 142.343 127.593 142.343 Q132.755 142.343 135.695 144.75 Q138.635 147.158 138.635 151.301 Q138.635 154.264 136.945 156.324 Q135.279 158.384 132.292 159.125 Q135.672 159.912 137.547 162.204 Q139.445 164.496 139.445 167.806 Q139.445 172.829 136.367 175.514 Q133.311 178.199 127.593 178.199 Q121.876 178.199 118.797 175.514 Q115.742 172.829 115.742 167.806 Q115.742 164.496 117.64 162.204 Q119.538 159.912 122.918 159.125 M121.205 151.741 Q121.205 154.426 122.871 155.931 Q124.561 157.435 127.593 157.435 Q130.603 157.435 132.292 155.931 Q134.005 154.426 134.005 151.741 Q134.005 149.056 132.292 147.551 Q130.603 146.047 127.593 146.047 Q124.561 146.047 122.871 147.551 Q121.205 149.056 121.205 151.741 Z" fill="#000000" fill-rule="evenodd" fill-opacity="1" /><path clip-path="url(#clip630)" d="M46.0847 892.572 Q46.0847 899.669 47.7079 902.407 Q49.3312 905.144 53.2461 905.144 Q56.3653 905.144 58.2114 903.107 Q60.0256 901.038 60.0256 897.505 Q60.0256 892.635 56.5881 889.707 Q53.1188 886.747 47.3897 886.747 L46.0847 886.747 L46.0847 892.572 M43.6657 880.891 L64.0042 880.891 L64.0042 886.747 L58.5933 886.747 Q61.8398 888.752 63.3994 891.744 Q64.9272 894.736 64.9272 899.065 Q64.9272 904.539 61.8716 907.786 Q58.7843 911 53.6281 911 Q47.6125 911 44.5569 906.99 Q41.5014 902.948 41.5014 894.959 L41.5014 886.747 L40.9285 886.747 Q36.8862 886.747 34.6901 889.421 Q32.4621 892.062 32.4621 896.868 Q32.4621 899.924 33.1941 902.82 Q33.9262 905.717 35.3903 908.39 L29.9795 908.39 Q28.7381 905.176 28.1334 902.152 Q27.4968 899.128 27.4968 896.264 Q27.4968 888.529 31.5072 884.71 Q35.5176 880.891 43.6657 880.891 Z" fill="#000000" fill-rule="evenodd" fill-opacity="1" /><path clip-path="url(#clip630)" d="M14.479 868.827 L14.479 862.971 L64.0042 862.971 L64.0042 868.827 L14.479 868.827 Z" fill="#000000" fill-rule="evenodd" fill-opacity="1" /><path clip-path="url(#clip630)" d="M58.657 845.052 L77.5631 845.052 L77.5631 850.94 L28.3562 850.94 L28.3562 845.052 L33.7671 845.052 Q30.5842 843.206 29.0564 840.405 Q27.4968 837.572 27.4968 833.657 Q27.4968 827.164 32.6531 823.122 Q37.8093 819.048 46.212 819.048 Q54.6147 819.048 59.771 823.122 Q64.9272 827.164 64.9272 833.657 Q64.9272 837.572 63.3994 840.405 Q61.8398 843.206 58.657 845.052 M46.212 825.127 Q39.7508 825.127 36.0905 827.801 Q32.3984 830.442 32.3984 835.089 Q32.3984 839.736 36.0905 842.41 Q39.7508 845.052 46.212 845.052 Q52.6732 845.052 56.3653 842.41 Q60.0256 839.736 60.0256 835.089 Q60.0256 830.442 56.3653 827.801 Q52.6732 825.127 46.212 825.127 Z" fill="#000000" fill-rule="evenodd" fill-opacity="1" /><path clip-path="url(#clip630)" d="M42.4881 779.708 L64.0042 779.708 L64.0042 785.564 L42.679 785.564 Q37.6183 785.564 35.1038 787.537 Q32.5894 789.511 32.5894 793.458 Q32.5894 798.2 35.6131 800.937 Q38.6368 803.674 43.8567 803.674 L64.0042 803.674 L64.0042 809.563 L14.479 809.563 L14.479 803.674 L33.8944 803.674 Q30.6797 801.574 29.0883 798.741 Q27.4968 795.876 27.4968 792.153 Q27.4968 786.01 31.3163 782.859 Q35.1038 779.708 42.4881 779.708 Z" fill="#000000" fill-rule="evenodd" fill-opacity="1" /><path clip-path="url(#clip630)" d="M46.0847 751.826 Q46.0847 758.924 47.7079 761.661 Q49.3312 764.398 53.2461 764.398 Q56.3653 764.398 58.2114 762.361 Q60.0256 760.292 60.0256 756.759 Q60.0256 751.889 56.5881 748.961 Q53.1188 746.001 47.3897 746.001 L46.0847 746.001 L46.0847 751.826 M43.6657 740.145 L64.0042 740.145 L64.0042 746.001 L58.5933 746.001 Q61.8398 748.006 63.3994 750.998 Q64.9272 753.99 64.9272 758.319 Q64.9272 763.793 61.8716 767.04 Q58.7843 770.255 53.6281 770.255 Q47.6125 770.255 44.5569 766.244 Q41.5014 762.202 41.5014 754.213 L41.5014 746.001 L40.9285 746.001 Q36.8862 746.001 34.6901 748.675 Q32.4621 751.317 32.4621 756.123 Q32.4621 759.178 33.1941 762.075 Q33.9262 764.971 35.3903 767.645 L29.9795 767.645 Q28.7381 764.43 28.1334 761.406 Q27.4968 758.382 27.4968 755.518 Q27.4968 747.784 31.5072 743.964 Q35.5176 740.145 43.6657 740.145 Z" fill="#000000" fill-rule="evenodd" fill-opacity="1" /><path clip-path="url(#clip630)" d="M14.479 707.902 L14.479 694.407 L19.0304 694.407 L19.0304 702.046 L68.0464 702.046 L68.0464 694.407 L72.5979 694.407 L72.5979 707.902 L14.479 707.902 Z" fill="#000000" fill-rule="evenodd" fill-opacity="1" /><path clip-path="url(#clip630)" d="M19.7307 671.777 Q19.7307 674.323 21.5131 676.074 Q23.2636 677.824 25.8099 677.824 Q28.3244 677.824 30.0749 676.074 Q31.7937 674.323 31.7937 671.777 Q31.7937 669.231 30.0749 667.48 Q28.3244 665.73 25.8099 665.73 Q23.2955 665.73 21.5131 667.512 Q19.7307 669.263 19.7307 671.777 M15.6248 671.777 Q15.6248 669.74 16.4205 667.862 Q17.1844 665.984 18.6485 664.616 Q20.0808 663.152 21.895 662.419 Q23.7092 661.687 25.8099 661.687 Q30.0113 661.687 32.9395 664.647 Q35.8359 667.576 35.8359 671.841 Q35.8359 676.138 32.9713 679.002 Q30.1068 681.867 25.8099 681.867 Q21.5449 681.867 18.5848 678.938 Q15.6248 676.01 15.6248 671.777 Z" fill="#000000" fill-rule="evenodd" fill-opacity="1" /><path clip-path="url(#clip630)" d="M14.479 635.652 L72.5979 635.652 L72.5979 649.147 L68.0464 649.147 L68.0464 641.54 L19.0304 641.54 L19.0304 649.147 L14.479 649.147 L14.479 635.652 Z" fill="#000000" fill-rule="evenodd" fill-opacity="1" /><path clip-path="url(#clip630)" d="M301.93 44.2197 Q304.563 45.1109 307.034 48.0275 Q309.545 50.9442 312.057 56.0483 L320.361 72.576 L311.571 72.576 L303.834 57.061 Q300.836 50.9847 298 48.9997 Q295.205 47.0148 290.344 47.0148 L281.432 47.0148 L281.432 72.576 L273.249 72.576 L273.249 12.096 L291.722 12.096 Q302.092 12.096 307.196 16.4305 Q312.3 20.7649 312.3 29.5149 Q312.3 35.2267 309.627 38.994 Q306.993 42.7613 301.93 44.2197 M281.432 18.8205 L281.432 40.2903 L291.722 40.2903 Q297.636 40.2903 300.633 37.5762 Q303.672 34.8216 303.672 29.5149 Q303.672 24.2082 300.633 21.5346 Q297.636 18.8205 291.722 18.8205 L281.432 18.8205 Z" fill="#000000" fill-rule="evenodd" fill-opacity="1" /><path clip-path="url(#clip630)" d="M365.651 48.0275 L365.651 51.6733 L331.38 51.6733 Q331.866 59.3701 335.998 63.421 Q340.17 67.4314 347.583 67.4314 Q351.877 67.4314 355.888 66.3781 Q359.939 65.3249 363.909 63.2184 L363.909 70.267 Q359.898 71.9684 355.685 72.8596 Q351.472 73.7508 347.138 73.7508 Q336.281 73.7508 329.922 67.4314 Q323.602 61.1119 323.602 50.3365 Q323.602 39.1965 329.597 32.6746 Q335.633 26.1121 345.842 26.1121 Q354.997 26.1121 360.303 32.0264 Q365.651 37.9003 365.651 48.0275 M358.197 45.84 Q358.116 39.7232 354.754 36.0774 Q351.432 32.4315 345.923 32.4315 Q339.684 32.4315 335.917 35.9558 Q332.19 39.4801 331.623 45.8805 L358.197 45.84 Z" fill="#000000" fill-rule="evenodd" fill-opacity="1" /><path clip-path="url(#clip630)" d="M378.856 34.9026 L430.789 34.9026 L430.789 41.7081 L378.856 41.7081 L378.856 34.9026 M378.856 51.4303 L430.789 51.4303 L430.789 58.3168 L378.856 58.3168 L378.856 51.4303 Z" fill="#000000" fill-rule="evenodd" fill-opacity="1" /><path clip-path="url(#clip630)" d="M449.869 65.6895 L463.237 65.6895 L463.237 19.5497 L448.694 22.4663 L448.694 15.0127 L463.156 12.096 L471.339 12.096 L471.339 65.6895 L484.707 65.6895 L484.707 72.576 L449.869 72.576 L449.869 65.6895 Z" fill="#000000" fill-rule="evenodd" fill-opacity="1" /><path clip-path="url(#clip630)" d="M518.734 17.4837 Q512.415 17.4837 509.215 23.7221 Q506.055 29.92 506.055 42.3968 Q506.055 54.833 509.215 61.0714 Q512.415 67.2693 518.734 67.2693 Q525.094 67.2693 528.254 61.0714 Q531.454 54.833 531.454 42.3968 Q531.454 29.92 528.254 23.7221 Q525.094 17.4837 518.734 17.4837 M518.734 11.0023 Q528.902 11.0023 534.249 19.0636 Q539.637 27.0843 539.637 42.3968 Q539.637 57.6687 534.249 65.73 Q528.902 73.7508 518.734 73.7508 Q508.566 73.7508 503.179 65.73 Q497.832 57.6687 497.832 42.3968 Q497.832 27.0843 503.179 19.0636 Q508.566 11.0023 518.734 11.0023 Z" fill="#000000" fill-rule="evenodd" fill-opacity="1" /><path clip-path="url(#clip630)" d="M571.517 17.4837 Q565.198 17.4837 561.998 23.7221 Q558.838 29.92 558.838 42.3968 Q558.838 54.833 561.998 61.0714 Q565.198 67.2693 571.517 67.2693 Q577.877 67.2693 581.037 61.0714 Q584.237 54.833 584.237 42.3968 Q584.237 29.92 581.037 23.7221 Q577.877 17.4837 571.517 17.4837 M571.517 11.0023 Q581.685 11.0023 587.032 19.0636 Q592.42 27.0843 592.42 42.3968 Q592.42 57.6687 587.032 65.73 Q581.685 73.7508 571.517 73.7508 Q561.35 73.7508 555.962 65.73 Q550.615 57.6687 550.615 42.3968 Q550.615 27.0843 555.962 19.0636 Q561.35 11.0023 571.517 11.0023 Z" fill="#000000" fill-rule="evenodd" fill-opacity="1" /><path clip-path="url(#clip630)" d="M624.301 17.4837 Q617.981 17.4837 614.781 23.7221 Q611.621 29.92 611.621 42.3968 Q611.621 54.833 614.781 61.0714 Q617.981 67.2693 624.301 67.2693 Q630.661 67.2693 633.82 61.0714 Q637.021 54.833 637.021 42.3968 Q637.021 29.92 633.82 23.7221 Q630.661 17.4837 624.301 17.4837 M624.301 11.0023 Q634.469 11.0023 639.816 19.0636 Q645.203 27.0843 645.203 42.3968 Q645.203 57.6687 639.816 65.73 Q634.469 73.7508 624.301 73.7508 Q614.133 73.7508 608.745 65.73 Q603.398 57.6687 603.398 42.3968 Q603.398 27.0843 608.745 19.0636 Q614.133 11.0023 624.301 11.0023 Z" fill="#000000" fill-rule="evenodd" fill-opacity="1" /><path clip-path="url(#clip630)" d="M677.084 17.4837 Q670.765 17.4837 667.564 23.7221 Q664.405 29.92 664.405 42.3968 Q664.405 54.833 667.564 61.0714 Q670.765 67.2693 677.084 67.2693 Q683.444 67.2693 686.604 61.0714 Q689.804 54.833 689.804 42.3968 Q689.804 29.92 686.604 23.7221 Q683.444 17.4837 677.084 17.4837 M677.084 11.0023 Q687.252 11.0023 692.599 19.0636 Q697.987 27.0843 697.987 42.3968 Q697.987 57.6687 692.599 65.73 Q687.252 73.7508 677.084 73.7508 Q666.916 73.7508 661.529 65.73 Q656.181 57.6687 656.181 42.3968 Q656.181 27.0843 661.529 19.0636 Q666.916 11.0023 677.084 11.0023 Z" fill="#000000" fill-rule="evenodd" fill-opacity="1" /><path clip-path="url(#clip630)" d="M729.867 17.4837 Q723.548 17.4837 720.348 23.7221 Q717.188 29.92 717.188 42.3968 Q717.188 54.833 720.348 61.0714 Q723.548 67.2693 729.867 67.2693 Q736.227 67.2693 739.387 61.0714 Q742.587 54.833 742.587 42.3968 Q742.587 29.92 739.387 23.7221 Q736.227 17.4837 729.867 17.4837 M729.867 11.0023 Q740.035 11.0023 745.382 19.0636 Q750.77 27.0843 750.77 42.3968 Q750.77 57.6687 745.382 65.73 Q740.035 73.7508 729.867 73.7508 Q719.7 73.7508 714.312 65.73 Q708.965 57.6687 708.965 42.3968 Q708.965 27.0843 714.312 19.0636 Q719.7 11.0023 729.867 11.0023 Z" fill="#000000" fill-rule="evenodd" fill-opacity="1" /><path clip-path="url(#clip630)" d="M765.151 62.2867 L773.698 62.2867 L773.698 72.576 L765.151 72.576 L765.151 62.2867 Z" fill="#000000" fill-rule="evenodd" fill-opacity="1" /><path clip-path="url(#clip630)" d="M809.022 17.4837 Q802.703 17.4837 799.502 23.7221 Q796.343 29.92 796.343 42.3968 Q796.343 54.833 799.502 61.0714 Q802.703 67.2693 809.022 67.2693 Q815.382 67.2693 818.542 61.0714 Q821.742 54.833 821.742 42.3968 Q821.742 29.92 818.542 23.7221 Q815.382 17.4837 809.022 17.4837 M809.022 11.0023 Q819.19 11.0023 824.537 19.0636 Q829.925 27.0843 829.925 42.3968 Q829.925 57.6687 824.537 65.73 Q819.19 73.7508 809.022 73.7508 Q798.854 73.7508 793.467 65.73 Q788.119 57.6687 788.119 42.3968 Q788.119 27.0843 793.467 19.0636 Q798.854 11.0023 809.022 11.0023 Z" fill="#000000" fill-rule="evenodd" fill-opacity="1" /><path clip-path="url(#clip630)" d="M890.243 49.7694 Q881.209 49.7694 877.725 51.8354 Q874.242 53.9013 874.242 58.8839 Q874.242 62.8538 876.834 65.2034 Q879.467 67.5124 883.964 67.5124 Q890.162 67.5124 893.888 63.1374 Q897.656 58.7219 897.656 51.4303 L897.656 49.7694 L890.243 49.7694 M905.109 46.6907 L905.109 72.576 L897.656 72.576 L897.656 65.6895 Q895.104 69.8214 891.296 71.8063 Q887.488 73.7508 881.979 73.7508 Q875.011 73.7508 870.879 69.8619 Q866.788 65.9325 866.788 59.3701 Q866.788 51.7138 871.892 47.825 Q877.037 43.9361 887.204 43.9361 L897.656 43.9361 L897.656 43.2069 Q897.656 38.0623 894.253 35.2672 Q890.891 32.4315 884.774 32.4315 Q880.885 32.4315 877.199 33.3632 Q873.512 34.295 870.11 36.1584 L870.11 29.2718 Q874.201 27.692 878.049 26.9223 Q881.898 26.1121 885.544 26.1121 Q895.387 26.1121 900.248 31.2163 Q905.109 36.3204 905.109 46.6907 Z" fill="#000000" fill-rule="evenodd" fill-opacity="1" /><path clip-path="url(#clip630)" d="M921.435 34.9026 L973.367 34.9026 L973.367 41.7081 L921.435 41.7081 L921.435 34.9026 M921.435 51.4303 L973.367 51.4303 L973.367 58.3168 L921.435 58.3168 L921.435 51.4303 Z" fill="#000000" fill-rule="evenodd" fill-opacity="1" /><path clip-path="url(#clip630)" d="M1008.53 17.4837 Q1002.21 17.4837 999.009 23.7221 Q995.85 29.92 995.85 42.3968 Q995.85 54.833 999.009 61.0714 Q1002.21 67.2693 1008.53 67.2693 Q1014.89 67.2693 1018.05 61.0714 Q1021.25 54.833 1021.25 42.3968 Q1021.25 29.92 1018.05 23.7221 Q1014.89 17.4837 1008.53 17.4837 M1008.53 11.0023 Q1018.7 11.0023 1024.04 19.0636 Q1029.43 27.0843 1029.43 42.3968 Q1029.43 57.6687 1024.04 65.73 Q1018.7 73.7508 1008.53 73.7508 Q998.361 73.7508 992.974 65.73 Q987.626 57.6687 987.626 42.3968 Q987.626 27.0843 992.974 19.0636 Q998.361 11.0023 1008.53 11.0023 Z" fill="#000000" fill-rule="evenodd" fill-opacity="1" /><path clip-path="url(#clip630)" d="M1043.81 62.2867 L1052.36 62.2867 L1052.36 72.576 L1043.81 72.576 L1043.81 62.2867 Z" fill="#000000" fill-rule="evenodd" fill-opacity="1" /><path clip-path="url(#clip630)" d="M1077.23 65.6895 L1105.79 65.6895 L1105.79 72.576 L1067.39 72.576 L1067.39 65.6895 Q1072.05 60.8689 1080.07 52.7671 Q1088.13 44.6248 1090.2 42.2752 Q1094.12 37.8598 1095.66 34.8216 Q1097.24 31.7429 1097.24 28.7857 Q1097.24 23.9651 1093.84 20.927 Q1090.48 17.8888 1085.05 17.8888 Q1081.2 17.8888 1076.91 19.2256 Q1072.65 20.5624 1067.79 23.2765 L1067.79 15.0127 Q1072.74 13.0277 1077.03 12.015 Q1081.32 11.0023 1084.89 11.0023 Q1094.29 11.0023 1099.88 15.7013 Q1105.47 20.4004 1105.47 28.2591 Q1105.47 31.9859 1104.05 35.3482 Q1102.67 38.6699 1098.99 43.2069 Q1097.97 44.3817 1092.54 50.0125 Q1087.12 55.6027 1077.23 65.6895 Z" fill="#000000" fill-rule="evenodd" fill-opacity="1" /><path clip-path="url(#clip630)" d="M1123.05 12.096 L1155.17 12.096 L1155.17 18.9825 L1130.54 18.9825 L1130.54 33.8088 Q1132.32 33.2012 1134.11 32.9176 Q1135.89 32.5936 1137.67 32.5936 Q1147.8 32.5936 1153.71 38.1433 Q1159.63 43.6931 1159.63 53.1722 Q1159.63 62.9348 1153.55 68.3631 Q1147.48 73.7508 1136.42 73.7508 Q1132.61 73.7508 1128.64 73.1026 Q1124.71 72.4545 1120.5 71.1582 L1120.5 62.9348 Q1124.14 64.9198 1128.03 65.892 Q1131.92 66.8642 1136.25 66.8642 Q1143.26 66.8642 1147.35 63.1779 Q1151.44 59.4916 1151.44 53.1722 Q1151.44 46.8528 1147.35 43.1664 Q1143.26 39.4801 1136.25 39.4801 Q1132.97 39.4801 1129.69 40.2093 Q1126.45 40.9384 1123.05 42.4778 L1123.05 12.096 Z" fill="#000000" fill-rule="evenodd" fill-opacity="1" /><path clip-path="url(#clip630)" d="M1224.04 9.54393 L1224.04 15.7418 L1216.91 15.7418 Q1212.9 15.7418 1211.32 17.3622 Q1209.78 18.9825 1209.78 23.1955 L1209.78 27.2059 L1222.05 27.2059 L1222.05 32.9987 L1209.78 32.9987 L1209.78 72.576 L1202.28 72.576 L1202.28 32.9987 L1195.15 32.9987 L1195.15 27.2059 L1202.28 27.2059 L1202.28 24.0462 Q1202.28 16.471 1205.81 13.0277 Q1209.33 9.54393 1216.99 9.54393 L1224.04 9.54393 Z" fill="#000000" fill-rule="evenodd" fill-opacity="1" /><path clip-path="url(#clip630)" d="M1231.25 34.9026 L1283.18 34.9026 L1283.18 41.7081 L1231.25 41.7081 L1231.25 34.9026 M1231.25 51.4303 L1283.18 51.4303 L1283.18 58.3168 L1231.25 58.3168 L1231.25 51.4303 Z" fill="#000000" fill-rule="evenodd" fill-opacity="1" /><path clip-path="url(#clip630)" d="M1318.34 17.4837 Q1312.02 17.4837 1308.82 23.7221 Q1305.66 29.92 1305.66 42.3968 Q1305.66 54.833 1308.82 61.0714 Q1312.02 67.2693 1318.34 67.2693 Q1324.7 67.2693 1327.86 61.0714 Q1331.06 54.833 1331.06 42.3968 Q1331.06 29.92 1327.86 23.7221 Q1324.7 17.4837 1318.34 17.4837 M1318.34 11.0023 Q1328.51 11.0023 1333.86 19.0636 Q1339.24 27.0843 1339.24 42.3968 Q1339.24 57.6687 1333.86 65.73 Q1328.51 73.7508 1318.34 73.7508 Q1308.17 73.7508 1302.79 65.73 Q1297.44 57.6687 1297.44 42.3968 Q1297.44 27.0843 1302.79 19.0636 Q1308.17 11.0023 1318.34 11.0023 Z" fill="#000000" fill-rule="evenodd" fill-opacity="1" /><path clip-path="url(#clip630)" d="M1353.63 62.2867 L1362.17 62.2867 L1362.17 72.576 L1353.63 72.576 L1353.63 62.2867 Z" fill="#000000" fill-rule="evenodd" fill-opacity="1" /><path clip-path="url(#clip630)" d="M1380.08 12.096 L1412.2 12.096 L1412.2 18.9825 L1387.57 18.9825 L1387.57 33.8088 Q1389.35 33.2012 1391.14 32.9176 Q1392.92 32.5936 1394.7 32.5936 Q1404.83 32.5936 1410.74 38.1433 Q1416.66 43.6931 1416.66 53.1722 Q1416.66 62.9348 1410.58 68.3631 Q1404.5 73.7508 1393.45 73.7508 Q1389.64 73.7508 1385.67 73.1026 Q1381.74 72.4545 1377.53 71.1582 L1377.53 62.9348 Q1381.17 64.9198 1385.06 65.892 Q1388.95 66.8642 1393.28 66.8642 Q1400.29 66.8642 1404.38 63.1779 Q1408.47 59.4916 1408.47 53.1722 Q1408.47 46.8528 1404.38 43.1664 Q1400.29 39.4801 1393.28 39.4801 Q1390 39.4801 1386.72 40.2093 Q1383.48 40.9384 1380.08 42.4778 L1380.08 12.096 Z" fill="#000000" fill-rule="evenodd" fill-opacity="1" /><path clip-path="url(#clip630)" d="M1484.55 51.4708 L1482.77 42.1132 Q1480.95 32.5126 1473.73 32.5126 Q1468.31 32.5126 1465.84 36.9686 Q1462.72 42.5588 1462.72 49.9314 Q1462.72 58.8434 1465.75 63.0969 Q1468.83 67.4314 1473.73 67.4314 Q1479.16 67.4314 1482.08 58.8029 L1484.55 51.4708 M1488.72 39.075 L1492.73 27.2059 L1499.38 27.2059 L1491.07 51.7949 L1492.69 60.6663 Q1493.06 62.6513 1494.48 64.3122 Q1496.14 66.2566 1497.43 66.2566 L1501 66.2566 L1501 72.576 L1496.54 72.576 Q1492.73 72.576 1489.33 69.1732 Q1487.67 67.4719 1486.98 63.9071 Q1485.12 68.4036 1481.31 71.9279 Q1479.53 73.5887 1473.73 73.5887 Q1464.22 73.5887 1459.6 67.4314 Q1454.86 61.0714 1454.86 49.9314 Q1454.86 38.0218 1460 32.4315 Q1465.71 26.1931 1473.73 26.1931 Q1486.33 26.1931 1488.72 39.075 Z" fill="#000000" fill-rule="evenodd" fill-opacity="1" /><path clip-path="url(#clip630)" d="M1532.92 58.2358 L1532.92 72.576 L1528.22 72.576 L1528.22 57.3851 Q1528.22 53.6988 1526.76 51.9569 Q1525.3 50.1745 1522.26 50.1745 Q1518.66 50.1745 1516.55 52.362 Q1514.45 54.509 1514.45 58.2358 L1514.45 72.576 L1509.71 72.576 L1509.71 47.1768 L1514.45 47.1768 L1514.45 51.1062 Q1516.03 48.7972 1518.25 47.7034 Q1520.52 46.5692 1523.64 46.5692 Q1526.72 46.5692 1528.91 47.987 Q1531.1 49.3643 1532.15 52.0379 Q1533.89 49.2428 1536.32 47.906 Q1538.79 46.5692 1542.11 46.5692 Q1546.61 46.5692 1549 49.3643 Q1551.43 52.1189 1551.43 57.2231 L1551.43 72.576 L1546.73 72.576 L1546.73 57.3851 Q1546.73 53.7393 1545.27 51.9569 Q1543.82 50.1745 1540.82 50.1745 Q1537.17 50.1745 1535.03 52.362 Q1532.92 54.509 1532.92 58.2358 Z" fill="#000000" fill-rule="evenodd" fill-opacity="1" /><path clip-path="url(#clip630)" d="M1586.03 58.8434 L1586.03 60.8689 L1564.43 60.8689 Q1564.76 65.1628 1567.35 67.4314 Q1569.98 69.6999 1574.64 69.6999 Q1577.36 69.6999 1579.91 69.0922 Q1582.42 68.5251 1584.93 67.3503 L1584.93 71.2797 Q1582.42 72.2519 1579.75 72.738 Q1577.11 73.2241 1574.36 73.2241 Q1567.51 73.2241 1563.54 69.6999 Q1559.53 66.1756 1559.53 60.1397 Q1559.53 53.9013 1563.34 50.215 Q1567.11 46.5692 1573.55 46.5692 Q1579.3 46.5692 1582.66 49.8504 Q1586.03 53.1722 1586.03 58.8434 M1581.33 57.5877 Q1581.29 54.1849 1579.18 52.1189 Q1577.07 50.0935 1573.59 50.0935 Q1569.66 50.0935 1567.31 52.0784 Q1564.96 54.0229 1564.6 57.5877 L1581.33 57.5877 Z" fill="#000000" fill-rule="evenodd" fill-opacity="1" /><path clip-path="url(#clip630)" d="M1609.16 59.8157 Q1603.49 59.8157 1601.3 60.9499 Q1599.07 62.1247 1599.07 64.9198 Q1599.07 67.1478 1600.73 68.4441 Q1602.39 69.7404 1605.23 69.7404 Q1609.12 69.7404 1611.47 67.2693 Q1613.86 64.7983 1613.86 60.7474 L1613.86 59.8157 L1609.16 59.8157 M1618.51 58.0738 L1618.51 72.576 L1613.86 72.576 L1613.86 68.7276 Q1612.24 71.0367 1609.85 72.1304 Q1607.41 73.2241 1603.97 73.2241 Q1599.56 73.2241 1596.96 71.0367 Q1594.37 68.8492 1594.37 65.1628 Q1594.37 60.9094 1597.61 58.7219 Q1600.85 56.5344 1607.25 56.5344 L1613.86 56.5344 L1613.86 56.1293 Q1613.86 53.2532 1611.71 51.6733 Q1609.56 50.0935 1605.71 50.0935 Q1603.28 50.0935 1600.93 50.6201 Q1598.62 51.1467 1596.48 52.2 L1596.48 48.3111 Q1599.07 47.4604 1601.5 47.0148 Q1603.89 46.5692 1606.2 46.5692 Q1612.4 46.5692 1615.48 49.4048 Q1618.51 52.281 1618.51 58.0738 Z" fill="#000000" fill-rule="evenodd" fill-opacity="1" /><path clip-path="url(#clip630)" d="M1652.42 57.2231 L1652.42 72.576 L1647.72 72.576 L1647.72 57.3851 Q1647.72 53.7798 1646.14 51.9974 Q1644.56 50.1745 1641.4 50.1745 Q1637.59 50.1745 1635.41 52.362 Q1633.22 54.509 1633.22 58.2358 L1633.22 72.576 L1628.48 72.576 L1628.48 47.1768 L1633.22 47.1768 L1633.22 51.1062 Q1634.88 48.8377 1637.15 47.7034 Q1639.46 46.5692 1642.46 46.5692 Q1647.36 46.5692 1649.87 49.2833 Q1652.42 51.9974 1652.42 57.2231 Z" fill="#000000" fill-rule="evenodd" fill-opacity="1" /><path clip-path="url(#clip630)" d="M1665.59 34.9026 L1717.52 34.9026 L1717.52 41.7081 L1665.59 41.7081 L1665.59 34.9026 M1665.59 51.4303 L1717.52 51.4303 L1717.52 58.3168 L1665.59 58.3168 L1665.59 51.4303 Z" fill="#000000" fill-rule="evenodd" fill-opacity="1" /><path clip-path="url(#clip630)" d="M1757.66 19.2256 L1737 51.5113 L1757.66 51.5113 L1757.66 19.2256 M1755.52 12.096 L1765.81 12.096 L1765.81 51.5113 L1774.43 51.5113 L1774.43 58.3168 L1765.81 58.3168 L1765.81 72.576 L1757.66 72.576 L1757.66 58.3168 L1730.36 58.3168 L1730.36 50.4176 L1755.52 12.096 Z" fill="#000000" fill-rule="evenodd" fill-opacity="1" /><path clip-path="url(#clip630)" d="M1787.96 62.2867 L1796.51 62.2867 L1796.51 72.576 L1787.96 72.576 L1787.96 62.2867 Z" fill="#000000" fill-rule="evenodd" fill-opacity="1" /><path clip-path="url(#clip630)" d="M1831.83 17.4837 Q1825.52 17.4837 1822.32 23.7221 Q1819.16 29.92 1819.16 42.3968 Q1819.16 54.833 1822.32 61.0714 Q1825.52 67.2693 1831.83 67.2693 Q1838.19 67.2693 1841.35 61.0714 Q1844.55 54.833 1844.55 42.3968 Q1844.55 29.92 1841.35 23.7221 Q1838.19 17.4837 1831.83 17.4837 M1831.83 11.0023 Q1842 11.0023 1847.35 19.0636 Q1852.74 27.0843 1852.74 42.3968 Q1852.74 57.6687 1847.35 65.73 Q1842 73.7508 1831.83 73.7508 Q1821.67 73.7508 1816.28 65.73 Q1810.93 57.6687 1810.93 42.3968 Q1810.93 27.0843 1816.28 19.0636 Q1821.67 11.0023 1831.83 11.0023 Z" fill="#000000" fill-rule="evenodd" fill-opacity="1" /><path clip-path="url(#clip630)" d="M1918.89 51.4708 L1917.11 42.1132 Q1915.28 32.5126 1908.07 32.5126 Q1902.64 32.5126 1900.17 36.9686 Q1897.05 42.5588 1897.05 49.9314 Q1897.05 58.8434 1900.09 63.0969 Q1903.17 67.4314 1908.07 67.4314 Q1913.5 67.4314 1916.42 58.8029 L1918.89 51.4708 M1923.06 39.075 L1927.07 27.2059 L1933.72 27.2059 L1925.41 51.7949 L1927.03 60.6663 Q1927.4 62.6513 1928.81 64.3122 Q1930.47 66.2566 1931.77 66.2566 L1935.34 66.2566 L1935.34 72.576 L1930.88 72.576 Q1927.07 72.576 1923.67 69.1732 Q1922.01 67.4719 1921.32 63.9071 Q1919.46 68.4036 1915.65 71.9279 Q1913.87 73.5887 1908.07 73.5887 Q1898.55 73.5887 1893.94 67.4314 Q1889.2 61.0714 1889.2 49.9314 Q1889.2 38.0218 1894.34 32.4315 Q1900.05 26.1931 1908.07 26.1931 Q1920.67 26.1931 1923.06 39.075 Z" fill="#000000" fill-rule="evenodd" fill-opacity="1" /><path clip-path="url(#clip630)" d="M1957.21 59.8157 Q1951.54 59.8157 1949.35 60.9499 Q1947.12 62.1247 1947.12 64.9198 Q1947.12 67.1478 1948.78 68.4441 Q1950.45 69.7404 1953.28 69.7404 Q1957.17 69.7404 1959.52 67.2693 Q1961.91 64.7983 1961.91 60.7474 L1961.91 59.8157 L1957.21 59.8157 M1966.57 58.0738 L1966.57 72.576 L1961.91 72.576 L1961.91 68.7276 Q1960.29 71.0367 1957.9 72.1304 Q1955.47 73.2241 1952.03 73.2241 Q1947.61 73.2241 1945.02 71.0367 Q1942.42 68.8492 1942.42 65.1628 Q1942.42 60.9094 1945.67 58.7219 Q1948.91 56.5344 1955.31 56.5344 L1961.91 56.5344 L1961.91 56.1293 Q1961.91 53.2532 1959.76 51.6733 Q1957.62 50.0935 1953.77 50.0935 Q1951.34 50.0935 1948.99 50.6201 Q1946.68 51.1467 1944.53 52.2 L1944.53 48.3111 Q1947.12 47.4604 1949.55 47.0148 Q1951.94 46.5692 1954.25 46.5692 Q1960.45 46.5692 1963.53 49.4048 Q1966.57 52.281 1966.57 58.0738 Z" fill="#000000" fill-rule="evenodd" fill-opacity="1" /><path clip-path="url(#clip630)" d="M1999.74 58.2358 L1999.74 72.576 L1995.05 72.576 L1995.05 57.3851 Q1995.05 53.6988 1993.59 51.9569 Q1992.13 50.1745 1989.09 50.1745 Q1985.49 50.1745 1983.38 52.362 Q1981.27 54.509 1981.27 58.2358 L1981.27 72.576 L1976.53 72.576 L1976.53 47.1768 L1981.27 47.1768 L1981.27 51.1062 Q1982.85 48.7972 1985.08 47.7034 Q1987.35 46.5692 1990.47 46.5692 Q1993.55 46.5692 1995.73 47.987 Q1997.92 49.3643 1998.98 52.0379 Q2000.72 49.2428 2003.15 47.906 Q2005.62 46.5692 2008.94 46.5692 Q2013.44 46.5692 2015.83 49.3643 Q2018.26 52.1189 2018.26 57.2231 L2018.26 72.576 L2013.56 72.576 L2013.56 57.3851 Q2013.56 53.7393 2012.1 51.9569 Q2010.64 50.1745 2007.64 50.1745 Q2004 50.1745 2001.85 52.362 Q1999.74 54.509 1999.74 58.2358 Z" fill="#000000" fill-rule="evenodd" fill-opacity="1" /><path clip-path="url(#clip630)" d="M2032.96 68.7682 L2032.96 82.2577 L2028.22 82.2577 L2028.22 47.1768 L2032.96 47.1768 L2032.96 51.0252 Q2034.42 48.7567 2036.69 47.6629 Q2038.96 46.5692 2042.08 46.5692 Q2047.3 46.5692 2050.54 50.215 Q2053.78 53.9013 2053.78 59.8967 Q2053.78 65.892 2050.54 69.5783 Q2047.3 73.2241 2042.08 73.2241 Q2038.96 73.2241 2036.69 72.1304 Q2034.42 71.0367 2032.96 68.7682 M2046.82 67.1073 Q2048.92 64.5147 2048.92 59.8967 Q2048.92 55.2786 2046.82 52.6861 Q2044.67 50.053 2040.94 50.053 Q2037.22 50.053 2035.07 52.6861 Q2032.96 55.2786 2032.96 59.8967 Q2032.96 64.5147 2035.07 67.1073 Q2037.22 69.7404 2040.94 69.7404 Q2044.67 69.7404 2046.82 67.1073 Z" fill="#000000" fill-rule="evenodd" fill-opacity="1" /><path clip-path="url(#clip630)" d="M2067.8 34.9026 L2119.73 34.9026 L2119.73 41.7081 L2067.8 41.7081 L2067.8 34.9026 M2067.8 51.4303 L2119.73 51.4303 L2119.73 58.3168 L2067.8 58.3168 L2067.8 51.4303 Z" fill="#000000" fill-rule="evenodd" fill-opacity="1" /><path clip-path="url(#clip630)" d="M2159.88 19.2256 L2139.22 51.5113 L2159.88 51.5113 L2159.88 19.2256 M2157.73 12.096 L2168.02 12.096 L2168.02 51.5113 L2176.65 51.5113 L2176.65 58.3168 L2168.02 58.3168 L2168.02 72.576 L2159.88 72.576 L2159.88 58.3168 L2132.57 58.3168 L2132.57 50.4176 L2157.73 12.096 Z" fill="#000000" fill-rule="evenodd" fill-opacity="1" /><path clip-path="url(#clip630)" d="M2190.18 62.2867 L2198.73 62.2867 L2198.73 72.576 L2190.18 72.576 L2190.18 62.2867 Z" fill="#000000" fill-rule="evenodd" fill-opacity="1" /><path clip-path="url(#clip630)" d="M2234.05 17.4837 Q2227.73 17.4837 2224.53 23.7221 Q2221.37 29.92 2221.37 42.3968 Q2221.37 54.833 2224.53 61.0714 Q2227.73 67.2693 2234.05 67.2693 Q2240.41 67.2693 2243.57 61.0714 Q2246.77 54.833 2246.77 42.3968 Q2246.77 29.92 2243.57 23.7221 Q2240.41 17.4837 2234.05 17.4837 M2234.05 11.0023 Q2244.22 11.0023 2249.56 19.0636 Q2254.95 27.0843 2254.95 42.3968 Q2254.95 57.6687 2249.56 65.73 Q2244.22 73.7508 2234.05 73.7508 Q2223.88 73.7508 2218.49 65.73 Q2213.15 57.6687 2213.15 42.3968 Q2213.15 27.0843 2218.49 19.0636 Q2223.88 11.0023 2234.05 11.0023 Z" fill="#000000" fill-rule="evenodd" fill-opacity="1" /><polyline clip-path="url(#clip632)" style="stroke:#009af9; stroke-linecap:butt; stroke-linejoin:round; stroke-width:4; stroke-opacity:1; fill:none" points="
  237.067,773.326 243.937,411.926 250.807,189.463 257.677,191.46 264.546,417.149 271.416,779.767 278.286,1139.91 285.156,1359.12 292.026,1353.13 298.895,1124.24 
  305.765,760.444 312.635,401.6 319.505,185.663 326.374,195.646 333.244,427.713 340.114,792.648 346.984,1150.15 353.854,1362.79 360.723,1348.82 367.593,1113.6 
  374.463,747.567 381.333,391.438 388.203,182.122 395.072,200.088 401.942,438.43 408.812,805.519 415.682,1160.23 422.551,1366.2 429.421,1344.25 436.291,1102.81 
  443.161,734.702 450.031,381.444 456.9,178.842 463.77,204.783 470.64,449.294 477.51,818.377 484.38,1170.14 491.249,1369.35 498.119,1339.43 504.989,1091.87 
  511.859,721.854 518.729,371.624 525.598,175.824 532.468,209.728 539.338,460.302 546.208,831.214 553.077,1179.87 559.947,1372.24 566.817,1334.36 573.687,1080.79 
  580.557,709.028 587.426,361.981 594.296,173.071 601.166,214.923 608.036,471.447 614.906,844.026 621.775,1189.42 628.645,1374.86 635.515,1329.04 642.385,1069.58 
  649.255,696.231 656.124,352.519 662.994,170.582 669.864,220.364 676.734,482.726 683.603,856.807 690.473,1198.79 697.343,1377.21 704.213,1323.48 711.083,1058.24 
  717.952,683.468 724.822,343.244 731.692,168.36 738.562,226.05 745.432,494.134 752.301,869.551 759.171,1207.97 766.041,1379.3 772.911,1317.67 779.78,1046.77 
  786.65,670.745 793.52,334.158 800.39,166.405 807.26,231.977 814.129,505.664 820.999,882.252 827.869,1216.96 834.739,1381.12 841.609,1311.62 848.478,1035.18 
  855.348,658.067 862.218,325.266 869.088,164.718 875.958,238.143 882.827,517.313 889.697,894.905 896.567,1225.76 903.437,1382.68 910.306,1305.34 917.176,1023.47 
  924.046,645.44 930.916,316.573 937.786,163.299 944.655,244.545 951.525,529.075 958.395,907.505 965.265,1234.35 972.135,1383.96 979.004,1298.82 985.874,1011.66 
  992.744,632.869 999.614,308.08 1006.48,162.15 1013.35,251.181 1020.22,540.945 1027.09,920.045 1033.96,1242.74 1040.83,1384.97 1047.7,1292.07 1054.57,999.734 
  1061.44,620.361 1068.31,299.794 1075.18,161.271 1082.05,258.047 1088.92,552.917 1095.79,932.521 1102.66,1250.92 1109.53,1385.72 1116.4,1285.09 1123.27,987.712 
  1130.14,607.919 1137.01,291.716 1143.88,160.662 1150.75,265.141 1157.62,564.987 1164.49,944.926 1171.36,1258.9 1178.23,1386.19 1185.1,1277.88 1191.97,975.596 
  1198.84,595.551 1205.71,283.851 1212.58,160.324 1219.45,272.46 1226.32,577.148 1233.19,957.255 1240.06,1266.65 1246.93,1386.4 1253.8,1270.45 1260.67,963.39 
  1267.54,583.262 1274.41,276.202 1281.28,160.256 1288.14,279.999 1295.01,589.397 1301.88,969.504 1308.75,1274.19 1315.62,1386.33 1322.49,1262.8 1329.36,951.101 
  1336.23,571.056 1343.1,268.773 1349.97,160.459 1356.84,287.757 1363.71,601.726 1370.58,981.665 1377.45,1281.51 1384.32,1385.99 1391.19,1254.94 1398.06,938.732 
  1404.93,558.94 1411.8,261.566 1418.67,160.933 1425.54,295.728 1432.41,614.131 1439.28,993.735 1446.15,1288.6 1453.02,1385.38 1459.89,1246.86 1466.76,926.291 
  1473.63,546.918 1480.5,254.585 1487.37,161.677 1494.24,303.911 1501.11,626.607 1507.98,1005.71 1514.85,1295.47 1521.72,1384.5 1528.59,1238.57 1535.46,913.783 
  1542.33,534.997 1549.2,247.834 1556.07,162.691 1562.94,312.301 1569.81,639.147 1576.68,1017.58 1583.55,1302.11 1590.42,1383.35 1597.29,1230.08 1604.16,901.212 
  1611.02,523.18 1617.89,241.314 1624.76,163.975 1631.63,320.895 1638.5,651.747 1645.37,1029.34 1652.24,1308.51 1659.11,1381.93 1665.98,1221.39 1672.85,888.585 
  1679.72,511.474 1686.59,235.03 1693.46,165.528 1700.33,329.688 1707.2,664.4 1714.07,1040.99 1720.94,1314.68 1727.81,1380.25 1734.68,1212.49 1741.55,875.907 
  1748.42,499.884 1755.29,228.983 1762.16,167.349 1769.03,338.677 1775.9,677.101 1782.77,1052.52 1789.64,1320.6 1796.51,1378.29 1803.38,1203.41 1810.25,863.184 
  1817.12,488.414 1823.99,223.176 1830.86,169.438 1837.73,347.858 1844.6,689.845 1851.47,1063.93 1858.34,1326.29 1865.21,1376.07 1872.08,1194.13 1878.95,850.421 
  1885.82,477.071 1892.69,217.613 1899.56,171.794 1906.43,357.227 1913.3,702.626 1920.17,1075.2 1927.04,1331.73 1933.9,1373.58 1940.77,1184.67 1947.64,837.624 
  1954.51,465.858 1961.38,212.295 1968.25,174.415 1975.12,366.78 1981.99,715.438 1988.86,1086.35 1995.73,1336.92 2002.6,1370.83 2009.47,1175.03 2016.34,824.798 
  2023.21,454.78 2030.08,207.224 2036.95,177.3 2043.82,376.512 2050.69,728.275 2057.56,1097.36 2064.43,1341.87 2071.3,1367.81 2078.17,1165.21 2085.04,811.95 
  2091.91,443.844 2098.78,202.404 2105.65,180.449 2112.52,386.42 2119.39,741.133 2126.26,1108.22 2133.13,1346.56 2140,1364.53 2146.87,1155.21 2153.74,799.085 
  2160.61,433.053 2167.48,197.835 2174.35,183.86 2181.22,396.498 2188.09,754.004 2194.96,1118.94 2201.83,1351.01 2208.7,1360.99 2215.57,1145.05 2222.44,786.208 
  2229.31,422.412 2236.18,193.521 2243.05,187.53 2249.92,406.743 2256.78,766.884 2263.65,1129.5 2270.52,1355.19 2277.39,1357.19 2284.26,1134.73 2291.13,773.326 
  
  "/>
</svg>
