<?xml version="1.0" encoding="utf-8"?>
<svg xmlns="http://www.w3.org/2000/svg" xmlns:xlink="http://www.w3.org/1999/xlink" width="600" height="400" viewBox="0 0 2400 1600">
<defs>
  <clipPath id="clip310">
    <rect x="0" y="0" width="2400" height="1600"/>
  </clipPath>
</defs>
<path clip-path="url(#clip310)" d="
M0 1600 L2400 1600 L2400 0 L0 0  Z
  " fill="#ffffff" fill-rule="evenodd" fill-opacity="1"/>
<defs>
  <clipPath id="clip311">
    <rect x="480" y="0" width="1681" height="1600"/>
  </clipPath>
</defs>
<path clip-path="url(#clip310)" d="
M211.325 1423.18 L2352.76 1423.18 L2352.76 123.472 L211.325 123.472  Z
  " fill="#ffffff" fill-rule="evenodd" fill-opacity="1"/>
<defs>
  <clipPath id="clip312">
    <rect x="211" y="123" width="2142" height="1301"/>
  </clipPath>
</defs>
<polyline clip-path="url(#clip312)" style="stroke:#000000; stroke-linecap:butt; stroke-linejoin:round; stroke-width:2; stroke-opacity:0.1; fill:none" points="
  271.931,1423.18 271.931,123.472 
  "/>
<polyline clip-path="url(#clip312)" style="stroke:#000000; stroke-linecap:butt; stroke-linejoin:round; stroke-width:2; stroke-opacity:0.1; fill:none" points="
  945.337,1423.18 945.337,123.472 
  "/>
<polyline clip-path="url(#clip312)" style="stroke:#000000; stroke-linecap:butt; stroke-linejoin:round; stroke-width:2; stroke-opacity:0.1; fill:none" points="
  1618.74,1423.18 1618.74,123.472 
  "/>
<polyline clip-path="url(#clip312)" style="stroke:#000000; stroke-linecap:butt; stroke-linejoin:round; stroke-width:2; stroke-opacity:0.1; fill:none" points="
  2292.15,1423.18 2292.15,123.472 
  "/>
<polyline clip-path="url(#clip310)" style="stroke:#000000; stroke-linecap:butt; stroke-linejoin:round; stroke-width:4; stroke-opacity:1; fill:none" points="
  211.325,1423.18 2352.76,1423.18 
  "/>
<polyline clip-path="url(#clip310)" style="stroke:#000000; stroke-linecap:butt; stroke-linejoin:round; stroke-width:4; stroke-opacity:1; fill:none" points="
  271.931,1423.18 271.931,1404.28 
  "/>
<polyline clip-path="url(#clip310)" style="stroke:#000000; stroke-linecap:butt; stroke-linejoin:round; stroke-width:4; stroke-opacity:1; fill:none" points="
  945.337,1423.18 945.337,1404.28 
  "/>
<polyline clip-path="url(#clip310)" style="stroke:#000000; stroke-linecap:butt; stroke-linejoin:round; stroke-width:4; stroke-opacity:1; fill:none" points="
  1618.74,1423.18 1618.74,1404.28 
  "/>
<polyline clip-path="url(#clip310)" style="stroke:#000000; stroke-linecap:butt; stroke-linejoin:round; stroke-width:4; stroke-opacity:1; fill:none" points="
  2292.15,1423.18 2292.15,1404.28 
  "/>
<path clip-path="url(#clip310)" d="M271.931 1454.1 Q268.32 1454.1 266.491 1457.66 Q264.686 1461.2 264.686 1468.33 Q264.686 1475.44 266.491 1479.01 Q268.32 1482.55 271.931 1482.55 Q275.565 1482.55 277.371 1479.01 Q279.2 1475.44 279.2 1468.33 Q279.2 1461.2 277.371 1457.66 Q275.565 1454.1 271.931 1454.1 M271.931 1450.39 Q277.741 1450.39 280.797 1455 Q283.876 1459.58 283.876 1468.33 Q283.876 1477.06 280.797 1481.67 Q277.741 1486.25 271.931 1486.25 Q266.121 1486.25 263.042 1481.67 Q259.987 1477.06 259.987 1468.33 Q259.987 1459.58 263.042 1455 Q266.121 1450.39 271.931 1450.39 Z" fill="#000000" fill-rule="evenodd" fill-opacity="1" /><path clip-path="url(#clip310)" d="M904.944 1481.64 L912.583 1481.64 L912.583 1455.28 L904.273 1456.95 L904.273 1452.69 L912.536 1451.02 L917.212 1451.02 L917.212 1481.64 L924.851 1481.64 L924.851 1485.58 L904.944 1485.58 L904.944 1481.64 Z" fill="#000000" fill-rule="evenodd" fill-opacity="1" /><path clip-path="url(#clip310)" d="M944.296 1454.1 Q940.684 1454.1 938.856 1457.66 Q937.05 1461.2 937.05 1468.33 Q937.05 1475.44 938.856 1479.01 Q940.684 1482.55 944.296 1482.55 Q947.93 1482.55 949.735 1479.01 Q951.564 1475.44 951.564 1468.33 Q951.564 1461.2 949.735 1457.66 Q947.93 1454.1 944.296 1454.1 M944.296 1450.39 Q950.106 1450.39 953.161 1455 Q956.24 1459.58 956.24 1468.33 Q956.24 1477.06 953.161 1481.67 Q950.106 1486.25 944.296 1486.25 Q938.485 1486.25 935.407 1481.67 Q932.351 1477.06 932.351 1468.33 Q932.351 1459.58 935.407 1455 Q938.485 1450.39 944.296 1450.39 Z" fill="#000000" fill-rule="evenodd" fill-opacity="1" /><path clip-path="url(#clip310)" d="M974.457 1454.1 Q970.846 1454.1 969.018 1457.66 Q967.212 1461.2 967.212 1468.33 Q967.212 1475.44 969.018 1479.01 Q970.846 1482.55 974.457 1482.55 Q978.092 1482.55 979.897 1479.01 Q981.726 1475.44 981.726 1468.33 Q981.726 1461.2 979.897 1457.66 Q978.092 1454.1 974.457 1454.1 M974.457 1450.39 Q980.268 1450.39 983.323 1455 Q986.402 1459.58 986.402 1468.33 Q986.402 1477.06 983.323 1481.67 Q980.268 1486.25 974.457 1486.25 Q968.647 1486.25 965.569 1481.67 Q962.513 1477.06 962.513 1468.33 Q962.513 1459.58 965.569 1455 Q968.647 1450.39 974.457 1450.39 Z" fill="#000000" fill-rule="evenodd" fill-opacity="1" /><path clip-path="url(#clip310)" d="M1582.44 1481.64 L1598.75 1481.64 L1598.75 1485.58 L1576.81 1485.58 L1576.81 1481.64 Q1579.47 1478.89 1584.06 1474.26 Q1588.66 1469.61 1589.84 1468.27 Q1592.09 1465.74 1592.97 1464.01 Q1593.87 1462.25 1593.87 1460.56 Q1593.87 1457.8 1591.93 1456.07 Q1590.01 1454.33 1586.9 1454.33 Q1584.7 1454.33 1582.25 1455.09 Q1579.82 1455.86 1577.04 1457.41 L1577.04 1452.69 Q1579.87 1451.55 1582.32 1450.97 Q1584.77 1450.39 1586.81 1450.39 Q1592.18 1450.39 1595.38 1453.08 Q1598.57 1455.77 1598.57 1460.26 Q1598.57 1462.39 1597.76 1464.31 Q1596.97 1466.2 1594.87 1468.8 Q1594.29 1469.47 1591.19 1472.69 Q1588.08 1475.88 1582.44 1481.64 Z" fill="#000000" fill-rule="evenodd" fill-opacity="1" /><path clip-path="url(#clip310)" d="M1618.57 1454.1 Q1614.96 1454.1 1613.13 1457.66 Q1611.32 1461.2 1611.32 1468.33 Q1611.32 1475.44 1613.13 1479.01 Q1614.96 1482.55 1618.57 1482.55 Q1622.2 1482.55 1624.01 1479.01 Q1625.84 1475.44 1625.84 1468.33 Q1625.84 1461.2 1624.01 1457.66 Q1622.2 1454.1 1618.57 1454.1 M1618.57 1450.39 Q1624.38 1450.39 1627.44 1455 Q1630.51 1459.58 1630.51 1468.33 Q1630.51 1477.06 1627.44 1481.67 Q1624.38 1486.25 1618.57 1486.25 Q1612.76 1486.25 1609.68 1481.67 Q1606.63 1477.06 1606.63 1468.33 Q1606.63 1459.58 1609.68 1455 Q1612.76 1450.39 1618.57 1450.39 Z" fill="#000000" fill-rule="evenodd" fill-opacity="1" /><path clip-path="url(#clip310)" d="M1648.73 1454.1 Q1645.12 1454.1 1643.29 1457.66 Q1641.49 1461.2 1641.49 1468.33 Q1641.49 1475.44 1643.29 1479.01 Q1645.12 1482.55 1648.73 1482.55 Q1652.37 1482.55 1654.17 1479.01 Q1656 1475.44 1656 1468.33 Q1656 1461.2 1654.17 1457.66 Q1652.37 1454.1 1648.73 1454.1 M1648.73 1450.39 Q1654.54 1450.39 1657.6 1455 Q1660.68 1459.58 1660.68 1468.33 Q1660.68 1477.06 1657.6 1481.67 Q1654.54 1486.25 1648.73 1486.25 Q1642.92 1486.25 1639.84 1481.67 Q1636.79 1477.06 1636.79 1468.33 Q1636.79 1459.58 1639.84 1455 Q1642.92 1450.39 1648.73 1450.39 Z" fill="#000000" fill-rule="evenodd" fill-opacity="1" /><path clip-path="url(#clip310)" d="M2265.91 1466.95 Q2269.27 1467.66 2271.14 1469.93 Q2273.04 1472.2 2273.04 1475.53 Q2273.04 1480.65 2269.52 1483.45 Q2266 1486.25 2259.52 1486.25 Q2257.35 1486.25 2255.03 1485.81 Q2252.74 1485.39 2250.29 1484.54 L2250.29 1480.02 Q2252.23 1481.16 2254.55 1481.74 Q2256.86 1482.32 2259.38 1482.32 Q2263.78 1482.32 2266.07 1480.58 Q2268.39 1478.84 2268.39 1475.53 Q2268.39 1472.48 2266.24 1470.77 Q2264.11 1469.03 2260.29 1469.03 L2256.26 1469.03 L2256.26 1465.19 L2260.47 1465.19 Q2263.92 1465.19 2265.75 1463.82 Q2267.58 1462.43 2267.58 1459.84 Q2267.58 1457.18 2265.68 1455.77 Q2263.8 1454.33 2260.29 1454.33 Q2258.36 1454.33 2256.17 1454.75 Q2253.97 1455.16 2251.33 1456.04 L2251.33 1451.88 Q2253.99 1451.14 2256.3 1450.77 Q2258.64 1450.39 2260.7 1450.39 Q2266.03 1450.39 2269.13 1452.83 Q2272.23 1455.23 2272.23 1459.35 Q2272.23 1462.22 2270.59 1464.21 Q2268.94 1466.18 2265.91 1466.95 Z" fill="#000000" fill-rule="evenodd" fill-opacity="1" /><path clip-path="url(#clip310)" d="M2291.91 1454.1 Q2288.3 1454.1 2286.47 1457.66 Q2284.66 1461.2 2284.66 1468.33 Q2284.66 1475.44 2286.47 1479.01 Q2288.3 1482.55 2291.91 1482.55 Q2295.54 1482.55 2297.35 1479.01 Q2299.17 1475.44 2299.17 1468.33 Q2299.17 1461.2 2297.35 1457.66 Q2295.54 1454.1 2291.91 1454.1 M2291.91 1450.39 Q2297.72 1450.39 2300.77 1455 Q2303.85 1459.58 2303.85 1468.33 Q2303.85 1477.06 2300.77 1481.67 Q2297.72 1486.25 2291.91 1486.25 Q2286.1 1486.25 2283.02 1481.67 Q2279.96 1477.06 2279.96 1468.33 Q2279.96 1459.58 2283.02 1455 Q2286.1 1450.39 2291.91 1450.39 Z" fill="#000000" fill-rule="evenodd" fill-opacity="1" /><path clip-path="url(#clip310)" d="M2322.07 1454.1 Q2318.46 1454.1 2316.63 1457.66 Q2314.82 1461.2 2314.82 1468.33 Q2314.82 1475.44 2316.63 1479.01 Q2318.46 1482.55 2322.07 1482.55 Q2325.7 1482.55 2327.51 1479.01 Q2329.34 1475.44 2329.34 1468.33 Q2329.34 1461.2 2327.51 1457.66 Q2325.7 1454.1 2322.07 1454.1 M2322.07 1450.39 Q2327.88 1450.39 2330.93 1455 Q2334.01 1459.58 2334.01 1468.33 Q2334.01 1477.06 2330.93 1481.67 Q2327.88 1486.25 2322.07 1486.25 Q2316.26 1486.25 2313.18 1481.67 Q2310.12 1477.06 2310.12 1468.33 Q2310.12 1459.58 2313.18 1455 Q2316.26 1450.39 2322.07 1450.39 Z" fill="#000000" fill-rule="evenodd" fill-opacity="1" /><path clip-path="url(#clip310)" d="M1230.35 1522.27 L1230.35 1532.4 L1242.41 1532.4 L1242.41 1536.95 L1230.35 1536.95 L1230.35 1556.3 Q1230.35 1560.66 1231.53 1561.9 Q1232.74 1563.14 1236.4 1563.14 L1242.41 1563.14 L1242.41 1568.04 L1236.4 1568.04 Q1229.62 1568.04 1227.04 1565.53 Q1224.46 1562.98 1224.46 1556.3 L1224.46 1536.95 L1220.17 1536.95 L1220.17 1532.4 L1224.46 1532.4 L1224.46 1522.27 L1230.35 1522.27 Z" fill="#000000" fill-rule="evenodd" fill-opacity="1" /><path clip-path="url(#clip310)" d="M1270.3 1518.52 L1283.79 1518.52 L1283.79 1523.07 L1276.15 1523.07 L1276.15 1572.09 L1283.79 1572.09 L1283.79 1576.64 L1270.3 1576.64 L1270.3 1518.52 Z" fill="#000000" fill-rule="evenodd" fill-opacity="1" /><path clip-path="url(#clip310)" d="M1318.99 1533.45 L1318.99 1538.98 Q1316.51 1537.71 1313.84 1537.07 Q1311.16 1536.44 1308.3 1536.44 Q1303.94 1536.44 1301.74 1537.77 Q1299.58 1539.11 1299.58 1541.79 Q1299.58 1543.82 1301.14 1545 Q1302.7 1546.15 1307.41 1547.2 L1309.41 1547.64 Q1315.65 1548.98 1318.26 1551.43 Q1320.9 1553.85 1320.9 1558.21 Q1320.9 1563.17 1316.96 1566.07 Q1313.04 1568.97 1306.17 1568.97 Q1303.3 1568.97 1300.18 1568.39 Q1297.1 1567.85 1293.66 1566.74 L1293.66 1560.69 Q1296.9 1562.38 1300.06 1563.24 Q1303.21 1564.07 1306.29 1564.07 Q1310.43 1564.07 1312.66 1562.66 Q1314.89 1561.23 1314.89 1558.65 Q1314.89 1556.27 1313.26 1554.99 Q1311.67 1553.72 1306.23 1552.54 L1304.19 1552.07 Q1298.75 1550.92 1296.33 1548.56 Q1293.91 1546.18 1293.91 1542.04 Q1293.91 1537.01 1297.48 1534.27 Q1301.04 1531.54 1307.6 1531.54 Q1310.85 1531.54 1313.71 1532.01 Q1316.57 1532.49 1318.99 1533.45 Z" fill="#000000" fill-rule="evenodd" fill-opacity="1" /><path clip-path="url(#clip310)" d="M1343.91 1518.52 L1343.91 1576.64 L1330.42 1576.64 L1330.42 1572.09 L1338.03 1572.09 L1338.03 1523.07 L1330.42 1523.07 L1330.42 1518.52 L1343.91 1518.52 Z" fill="#000000" fill-rule="evenodd" fill-opacity="1" /><polyline clip-path="url(#clip312)" style="stroke:#000000; stroke-linecap:butt; stroke-linejoin:round; stroke-width:2; stroke-opacity:0.1; fill:none" points="
  211.325,1423.18 2352.76,1423.18 
  "/>
<polyline clip-path="url(#clip312)" style="stroke:#000000; stroke-linecap:butt; stroke-linejoin:round; stroke-width:2; stroke-opacity:0.1; fill:none" points="
  211.325,1098.25 2352.76,1098.25 
  "/>
<polyline clip-path="url(#clip312)" style="stroke:#000000; stroke-linecap:butt; stroke-linejoin:round; stroke-width:2; stroke-opacity:0.1; fill:none" points="
  211.325,773.326 2352.76,773.326 
  "/>
<polyline clip-path="url(#clip312)" style="stroke:#000000; stroke-linecap:butt; stroke-linejoin:round; stroke-width:2; stroke-opacity:0.1; fill:none" points="
  211.325,448.399 2352.76,448.399 
  "/>
<polyline clip-path="url(#clip312)" style="stroke:#000000; stroke-linecap:butt; stroke-linejoin:round; stroke-width:2; stroke-opacity:0.1; fill:none" points="
  211.325,123.472 2352.76,123.472 
  "/>
<polyline clip-path="url(#clip310)" style="stroke:#000000; stroke-linecap:butt; stroke-linejoin:round; stroke-width:4; stroke-opacity:1; fill:none" points="
  211.325,1423.18 211.325,123.472 
  "/>
<polyline clip-path="url(#clip310)" style="stroke:#000000; stroke-linecap:butt; stroke-linejoin:round; stroke-width:4; stroke-opacity:1; fill:none" points="
  211.325,1423.18 230.222,1423.18 
  "/>
<polyline clip-path="url(#clip310)" style="stroke:#000000; stroke-linecap:butt; stroke-linejoin:round; stroke-width:4; stroke-opacity:1; fill:none" points="
  211.325,1098.25 230.222,1098.25 
  "/>
<polyline clip-path="url(#clip310)" style="stroke:#000000; stroke-linecap:butt; stroke-linejoin:round; stroke-width:4; stroke-opacity:1; fill:none" points="
  211.325,773.326 230.222,773.326 
  "/>
<polyline clip-path="url(#clip310)" style="stroke:#000000; stroke-linecap:butt; stroke-linejoin:round; stroke-width:4; stroke-opacity:1; fill:none" points="
  211.325,448.399 230.222,448.399 
  "/>
<polyline clip-path="url(#clip310)" style="stroke:#000000; stroke-linecap:butt; stroke-linejoin:round; stroke-width:4; stroke-opacity:1; fill:none" points="
  211.325,123.472 230.222,123.472 
  "/>
<path clip-path="url(#clip310)" d="M114.26 1423.63 L143.936 1423.63 L143.936 1427.57 L114.26 1427.57 L114.26 1423.63 Z" fill="#000000" fill-rule="evenodd" fill-opacity="1" /><path clip-path="url(#clip310)" d="M168.195 1421.83 Q171.552 1422.54 173.427 1424.81 Q175.325 1427.08 175.325 1430.41 Q175.325 1435.53 171.806 1438.33 Q168.288 1441.13 161.806 1441.13 Q159.63 1441.13 157.315 1440.69 Q155.024 1440.27 152.57 1439.42 L152.57 1434.9 Q154.515 1436.04 156.829 1436.62 Q159.144 1437.2 161.667 1437.2 Q166.065 1437.2 168.357 1435.46 Q170.672 1433.72 170.672 1430.41 Q170.672 1427.36 168.519 1425.65 Q166.39 1423.91 162.57 1423.91 L158.542 1423.91 L158.542 1420.07 L162.755 1420.07 Q166.204 1420.07 168.033 1418.7 Q169.862 1417.31 169.862 1414.72 Q169.862 1412.06 167.964 1410.65 Q166.089 1409.21 162.57 1409.21 Q160.649 1409.21 158.45 1409.63 Q156.251 1410.04 153.612 1410.92 L153.612 1406.76 Q156.274 1406.02 158.589 1405.65 Q160.927 1405.27 162.987 1405.27 Q168.311 1405.27 171.413 1407.71 Q174.514 1410.11 174.514 1414.23 Q174.514 1417.1 172.871 1419.09 Q171.227 1421.06 168.195 1421.83 Z" fill="#000000" fill-rule="evenodd" fill-opacity="1" /><path clip-path="url(#clip310)" d="M115.209 1098.7 L144.885 1098.7 L144.885 1102.64 L115.209 1102.64 L115.209 1098.7 Z" fill="#000000" fill-rule="evenodd" fill-opacity="1" /><path clip-path="url(#clip310)" d="M159.005 1111.6 L175.325 1111.6 L175.325 1115.53 L153.38 1115.53 L153.38 1111.6 Q156.042 1108.84 160.626 1104.21 Q165.232 1099.56 166.413 1098.22 Q168.658 1095.7 169.538 1093.96 Q170.44 1092.2 170.44 1090.51 Q170.44 1087.76 168.496 1086.02 Q166.575 1084.28 163.473 1084.28 Q161.274 1084.28 158.82 1085.05 Q156.39 1085.81 153.612 1087.36 L153.612 1082.64 Q156.436 1081.51 158.89 1080.93 Q161.343 1080.35 163.38 1080.35 Q168.751 1080.35 171.945 1083.03 Q175.139 1085.72 175.139 1090.21 Q175.139 1092.34 174.329 1094.26 Q173.542 1096.16 171.436 1098.75 Q170.857 1099.42 167.755 1102.64 Q164.653 1105.83 159.005 1111.6 Z" fill="#000000" fill-rule="evenodd" fill-opacity="1" /><path clip-path="url(#clip310)" d="M114.839 773.777 L144.515 773.777 L144.515 777.713 L114.839 777.713 L114.839 773.777 Z" fill="#000000" fill-rule="evenodd" fill-opacity="1" /><path clip-path="url(#clip310)" d="M155.417 786.671 L163.056 786.671 L163.056 760.305 L154.746 761.972 L154.746 757.713 L163.01 756.046 L167.686 756.046 L167.686 786.671 L175.325 786.671 L175.325 790.606 L155.417 790.606 L155.417 786.671 Z" fill="#000000" fill-rule="evenodd" fill-opacity="1" /><path clip-path="url(#clip310)" d="M163.38 434.198 Q159.769 434.198 157.94 437.763 Q156.135 441.304 156.135 448.434 Q156.135 455.54 157.94 459.105 Q159.769 462.647 163.38 462.647 Q167.015 462.647 168.82 459.105 Q170.649 455.54 170.649 448.434 Q170.649 441.304 168.82 437.763 Q167.015 434.198 163.38 434.198 M163.38 430.494 Q169.19 430.494 172.246 435.101 Q175.325 439.684 175.325 448.434 Q175.325 457.161 172.246 461.767 Q169.19 466.35 163.38 466.35 Q157.57 466.35 154.491 461.767 Q151.436 457.161 151.436 448.434 Q151.436 439.684 154.491 435.101 Q157.57 430.494 163.38 430.494 Z" fill="#000000" fill-rule="evenodd" fill-opacity="1" /><path clip-path="url(#clip310)" d="M155.417 136.817 L163.056 136.817 L163.056 110.451 L154.746 112.118 L154.746 107.859 L163.01 106.192 L167.686 106.192 L167.686 136.817 L175.325 136.817 L175.325 140.752 L155.417 140.752 L155.417 136.817 Z" fill="#000000" fill-rule="evenodd" fill-opacity="1" /><path clip-path="url(#clip310)" d="M20.1444 761.931 L26.9239 761.931 Q23.9002 765.178 22.4043 768.87 Q20.9083 772.53 20.9083 776.668 Q20.9083 784.816 25.9054 789.145 Q30.8707 793.473 40.2919 793.473 Q49.6813 793.473 54.6784 789.145 Q59.6436 784.816 59.6436 776.668 Q59.6436 772.53 58.1477 768.87 Q56.6518 765.178 53.6281 761.931 L60.3439 761.931 Q62.6355 765.305 63.7814 769.093 Q64.9272 772.849 64.9272 777.05 Q64.9272 787.84 58.3387 794.046 Q51.7183 800.253 40.2919 800.253 Q28.8336 800.253 22.2451 794.046 Q15.6248 787.84 15.6248 777.05 Q15.6248 772.785 16.7706 769.029 Q17.8846 765.242 20.1444 761.931 Z" fill="#000000" fill-rule="evenodd" fill-opacity="1" /><path clip-path="url(#clip310)" d="M14.479 752.255 L14.479 746.399 L64.0042 746.399 L64.0042 752.255 L14.479 752.255 Z" fill="#000000" fill-rule="evenodd" fill-opacity="1" /><path clip-path="url(#clip310)" d="M346.261 44.2197 Q348.894 45.1109 351.365 48.0275 Q353.877 50.9442 356.388 56.0483 L364.693 72.576 L355.902 72.576 L348.165 57.061 Q345.167 50.9847 342.332 48.9997 Q339.537 47.0148 334.676 47.0148 L325.764 47.0148 L325.764 72.576 L317.581 72.576 L317.581 12.096 L336.053 12.096 Q346.423 12.096 351.527 16.4305 Q356.631 20.7649 356.631 29.5149 Q356.631 35.2267 353.958 38.994 Q351.325 42.7613 346.261 44.2197 M325.764 18.8205 L325.764 40.2903 L336.053 40.2903 Q341.967 40.2903 344.965 37.5762 Q348.003 34.8216 348.003 29.5149 Q348.003 24.2082 344.965 21.5346 Q341.967 18.8205 336.053 18.8205 L325.764 18.8205 Z" fill="#000000" fill-rule="evenodd" fill-opacity="1" /><path clip-path="url(#clip310)" d="M409.982 48.0275 L409.982 51.6733 L375.711 51.6733 Q376.197 59.3701 380.329 63.421 Q384.502 67.4314 391.915 67.4314 Q396.209 67.4314 400.219 66.3781 Q404.27 65.3249 408.24 63.2184 L408.24 70.267 Q404.23 71.9684 400.017 72.8596 Q395.804 73.7508 391.469 73.7508 Q380.613 73.7508 374.253 67.4314 Q367.933 61.1119 367.933 50.3365 Q367.933 39.1965 373.929 32.6746 Q379.965 26.1121 390.173 26.1121 Q399.328 26.1121 404.635 32.0264 Q409.982 37.9003 409.982 48.0275 M402.528 45.84 Q402.447 39.7232 399.085 36.0774 Q395.763 32.4315 390.254 32.4315 Q384.016 32.4315 380.248 35.9558 Q376.521 39.4801 375.954 45.8805 L402.528 45.84 Z" fill="#000000" fill-rule="evenodd" fill-opacity="1" /><path clip-path="url(#clip310)" d="M423.188 34.9026 L475.12 34.9026 L475.12 41.7081 L423.188 41.7081 L423.188 34.9026 M423.188 51.4303 L475.12 51.4303 L475.12 58.3168 L423.188 58.3168 L423.188 51.4303 Z" fill="#000000" fill-rule="evenodd" fill-opacity="1" /><path clip-path="url(#clip310)" d="M494.2 65.6895 L507.568 65.6895 L507.568 19.5497 L493.025 22.4663 L493.025 15.0127 L507.487 12.096 L515.67 12.096 L515.67 65.6895 L529.038 65.6895 L529.038 72.576 L494.2 72.576 L494.2 65.6895 Z" fill="#000000" fill-rule="evenodd" fill-opacity="1" /><path clip-path="url(#clip310)" d="M563.066 17.4837 Q556.746 17.4837 553.546 23.7221 Q550.386 29.92 550.386 42.3968 Q550.386 54.833 553.546 61.0714 Q556.746 67.2693 563.066 67.2693 Q569.425 67.2693 572.585 61.0714 Q575.785 54.833 575.785 42.3968 Q575.785 29.92 572.585 23.7221 Q569.425 17.4837 563.066 17.4837 M563.066 11.0023 Q573.233 11.0023 578.581 19.0636 Q583.968 27.0843 583.968 42.3968 Q583.968 57.6687 578.581 65.73 Q573.233 73.7508 563.066 73.7508 Q552.898 73.7508 547.51 65.73 Q542.163 57.6687 542.163 42.3968 Q542.163 27.0843 547.51 19.0636 Q552.898 11.0023 563.066 11.0023 Z" fill="#000000" fill-rule="evenodd" fill-opacity="1" /><path clip-path="url(#clip310)" d="M615.849 17.4837 Q609.529 17.4837 606.329 23.7221 Q603.169 29.92 603.169 42.3968 Q603.169 54.833 606.329 61.0714 Q609.529 67.2693 615.849 67.2693 Q622.209 67.2693 625.368 61.0714 Q628.569 54.833 628.569 42.3968 Q628.569 29.92 625.368 23.7221 Q622.209 17.4837 615.849 17.4837 M615.849 11.0023 Q626.017 11.0023 631.364 19.0636 Q636.751 27.0843 636.751 42.3968 Q636.751 57.6687 631.364 65.73 Q626.017 73.7508 615.849 73.7508 Q605.681 73.7508 600.293 65.73 Q594.946 57.6687 594.946 42.3968 Q594.946 27.0843 600.293 19.0636 Q605.681 11.0023 615.849 11.0023 Z" fill="#000000" fill-rule="evenodd" fill-opacity="1" /><path clip-path="url(#clip310)" d="M668.632 17.4837 Q662.313 17.4837 659.112 23.7221 Q655.953 29.92 655.953 42.3968 Q655.953 54.833 659.112 61.0714 Q662.313 67.2693 668.632 67.2693 Q674.992 67.2693 678.152 61.0714 Q681.352 54.833 681.352 42.3968 Q681.352 29.92 678.152 23.7221 Q674.992 17.4837 668.632 17.4837 M668.632 11.0023 Q678.8 11.0023 684.147 19.0636 Q689.535 27.0843 689.535 42.3968 Q689.535 57.6687 684.147 65.73 Q678.8 73.7508 668.632 73.7508 Q658.464 73.7508 653.077 65.73 Q647.729 57.6687 647.729 42.3968 Q647.729 27.0843 653.077 19.0636 Q658.464 11.0023 668.632 11.0023 Z" fill="#000000" fill-rule="evenodd" fill-opacity="1" /><path clip-path="url(#clip310)" d="M721.415 17.4837 Q715.096 17.4837 711.896 23.7221 Q708.736 29.92 708.736 42.3968 Q708.736 54.833 711.896 61.0714 Q715.096 67.2693 721.415 67.2693 Q727.775 67.2693 730.935 61.0714 Q734.135 54.833 734.135 42.3968 Q734.135 29.92 730.935 23.7221 Q727.775 17.4837 721.415 17.4837 M721.415 11.0023 Q731.583 11.0023 736.93 19.0636 Q742.318 27.0843 742.318 42.3968 Q742.318 57.6687 736.93 65.73 Q731.583 73.7508 721.415 73.7508 Q711.248 73.7508 705.86 65.73 Q700.513 57.6687 700.513 42.3968 Q700.513 27.0843 705.86 19.0636 Q711.248 11.0023 721.415 11.0023 Z" fill="#000000" fill-rule="evenodd" fill-opacity="1" /><path clip-path="url(#clip310)" d="M756.699 62.2867 L765.246 62.2867 L765.246 72.576 L756.699 72.576 L756.699 62.2867 Z" fill="#000000" fill-rule="evenodd" fill-opacity="1" /><path clip-path="url(#clip310)" d="M800.57 17.4837 Q794.251 17.4837 791.05 23.7221 Q787.891 29.92 787.891 42.3968 Q787.891 54.833 791.05 61.0714 Q794.251 67.2693 800.57 67.2693 Q806.93 67.2693 810.09 61.0714 Q813.29 54.833 813.29 42.3968 Q813.29 29.92 810.09 23.7221 Q806.93 17.4837 800.57 17.4837 M800.57 11.0023 Q810.738 11.0023 816.085 19.0636 Q821.473 27.0843 821.473 42.3968 Q821.473 57.6687 816.085 65.73 Q810.738 73.7508 800.57 73.7508 Q790.402 73.7508 785.015 65.73 Q779.667 57.6687 779.667 42.3968 Q779.667 27.0843 785.015 19.0636 Q790.402 11.0023 800.57 11.0023 Z" fill="#000000" fill-rule="evenodd" fill-opacity="1" /><path clip-path="url(#clip310)" d="M881.791 49.7694 Q872.757 49.7694 869.273 51.8354 Q865.79 53.9013 865.79 58.8839 Q865.79 62.8538 868.382 65.2034 Q871.015 67.5124 875.512 67.5124 Q881.71 67.5124 885.436 63.1374 Q889.204 58.7219 889.204 51.4303 L889.204 49.7694 L881.791 49.7694 M896.658 46.6907 L896.658 72.576 L889.204 72.576 L889.204 65.6895 Q886.652 69.8214 882.844 71.8063 Q879.036 73.7508 873.527 73.7508 Q866.559 73.7508 862.427 69.8619 Q858.336 65.9325 858.336 59.3701 Q858.336 51.7138 863.44 47.825 Q868.585 43.9361 878.753 43.9361 L889.204 43.9361 L889.204 43.2069 Q889.204 38.0623 885.801 35.2672 Q882.439 32.4315 876.322 32.4315 Q872.433 32.4315 868.747 33.3632 Q865.06 34.295 861.658 36.1584 L861.658 29.2718 Q865.749 27.692 869.597 26.9223 Q873.446 26.1121 877.092 26.1121 Q886.935 26.1121 891.796 31.2163 Q896.658 36.3204 896.658 46.6907 Z" fill="#000000" fill-rule="evenodd" fill-opacity="1" /><path clip-path="url(#clip310)" d="M912.983 34.9026 L964.915 34.9026 L964.915 41.7081 L912.983 41.7081 L912.983 34.9026 M912.983 51.4303 L964.915 51.4303 L964.915 58.3168 L912.983 58.3168 L912.983 51.4303 Z" fill="#000000" fill-rule="evenodd" fill-opacity="1" /><path clip-path="url(#clip310)" d="M1000.08 17.4837 Q993.758 17.4837 990.557 23.7221 Q987.398 29.92 987.398 42.3968 Q987.398 54.833 990.557 61.0714 Q993.758 67.2693 1000.08 67.2693 Q1006.44 67.2693 1009.6 61.0714 Q1012.8 54.833 1012.8 42.3968 Q1012.8 29.92 1009.6 23.7221 Q1006.44 17.4837 1000.08 17.4837 M1000.08 11.0023 Q1010.24 11.0023 1015.59 19.0636 Q1020.98 27.0843 1020.98 42.3968 Q1020.98 57.6687 1015.59 65.73 Q1010.24 73.7508 1000.08 73.7508 Q989.909 73.7508 984.522 65.73 Q979.174 57.6687 979.174 42.3968 Q979.174 27.0843 984.522 19.0636 Q989.909 11.0023 1000.08 11.0023 Z" fill="#000000" fill-rule="evenodd" fill-opacity="1" /><path clip-path="url(#clip310)" d="M1035.36 62.2867 L1043.91 62.2867 L1043.91 72.576 L1035.36 72.576 L1035.36 62.2867 Z" fill="#000000" fill-rule="evenodd" fill-opacity="1" /><path clip-path="url(#clip310)" d="M1068.78 65.6895 L1097.34 65.6895 L1097.34 72.576 L1058.94 72.576 L1058.94 65.6895 Q1063.6 60.8689 1071.62 52.7671 Q1079.68 44.6248 1081.74 42.2752 Q1085.67 37.8598 1087.21 34.8216 Q1088.79 31.7429 1088.79 28.7857 Q1088.79 23.9651 1085.39 20.927 Q1082.03 17.8888 1076.6 17.8888 Q1072.75 17.8888 1068.46 19.2256 Q1064.2 20.5624 1059.34 23.2765 L1059.34 15.0127 Q1064.28 13.0277 1068.58 12.015 Q1072.87 11.0023 1076.44 11.0023 Q1085.83 11.0023 1091.42 15.7013 Q1097.02 20.4004 1097.02 28.2591 Q1097.02 31.9859 1095.6 35.3482 Q1094.22 38.6699 1090.53 43.2069 Q1089.52 44.3817 1084.09 50.0125 Q1078.66 55.6027 1068.78 65.6895 Z" fill="#000000" fill-rule="evenodd" fill-opacity="1" /><path clip-path="url(#clip310)" d="M1114.6 12.096 L1146.72 12.096 L1146.72 18.9825 L1122.09 18.9825 L1122.09 33.8088 Q1123.87 33.2012 1125.66 32.9176 Q1127.44 32.5936 1129.22 32.5936 Q1139.35 32.5936 1145.26 38.1433 Q1151.18 43.6931 1151.18 53.1722 Q1151.18 62.9348 1145.1 68.3631 Q1139.02 73.7508 1127.96 73.7508 Q1124.16 73.7508 1120.19 73.1026 Q1116.26 72.4545 1112.04 71.1582 L1112.04 62.9348 Q1115.69 64.9198 1119.58 65.892 Q1123.47 66.8642 1127.8 66.8642 Q1134.81 66.8642 1138.9 63.1779 Q1142.99 59.4916 1142.99 53.1722 Q1142.99 46.8528 1138.9 43.1664 Q1134.81 39.4801 1127.8 39.4801 Q1124.52 39.4801 1121.24 40.2093 Q1118 40.9384 1114.6 42.4778 L1114.6 12.096 Z" fill="#000000" fill-rule="evenodd" fill-opacity="1" /><path clip-path="url(#clip310)" d="M1215.59 9.54393 L1215.59 15.7418 L1208.46 15.7418 Q1204.45 15.7418 1202.87 17.3622 Q1201.33 18.9825 1201.33 23.1955 L1201.33 27.2059 L1213.6 27.2059 L1213.6 32.9987 L1201.33 32.9987 L1201.33 72.576 L1193.83 72.576 L1193.83 32.9987 L1186.7 32.9987 L1186.7 27.2059 L1193.83 27.2059 L1193.83 24.0462 Q1193.83 16.471 1197.36 13.0277 Q1200.88 9.54393 1208.54 9.54393 L1215.59 9.54393 Z" fill="#000000" fill-rule="evenodd" fill-opacity="1" /><path clip-path="url(#clip310)" d="M1222.8 34.9026 L1274.73 34.9026 L1274.73 41.7081 L1222.8 41.7081 L1222.8 34.9026 M1222.8 51.4303 L1274.73 51.4303 L1274.73 58.3168 L1222.8 58.3168 L1222.8 51.4303 Z" fill="#000000" fill-rule="evenodd" fill-opacity="1" /><path clip-path="url(#clip310)" d="M1309.89 17.4837 Q1303.57 17.4837 1300.37 23.7221 Q1297.21 29.92 1297.21 42.3968 Q1297.21 54.833 1300.37 61.0714 Q1303.57 67.2693 1309.89 67.2693 Q1316.25 67.2693 1319.41 61.0714 Q1322.61 54.833 1322.61 42.3968 Q1322.61 29.92 1319.41 23.7221 Q1316.25 17.4837 1309.89 17.4837 M1309.89 11.0023 Q1320.06 11.0023 1325.41 19.0636 Q1330.79 27.0843 1330.79 42.3968 Q1330.79 57.6687 1325.41 65.73 Q1320.06 73.7508 1309.89 73.7508 Q1299.72 73.7508 1294.33 65.73 Q1288.99 57.6687 1288.99 42.3968 Q1288.99 27.0843 1294.33 19.0636 Q1299.72 11.0023 1309.89 11.0023 Z" fill="#000000" fill-rule="evenodd" fill-opacity="1" /><path clip-path="url(#clip310)" d="M1345.17 62.2867 L1353.72 62.2867 L1353.72 72.576 L1345.17 72.576 L1345.17 62.2867 Z" fill="#000000" fill-rule="evenodd" fill-opacity="1" /><path clip-path="url(#clip310)" d="M1372.96 65.6895 L1386.33 65.6895 L1386.33 19.5497 L1371.79 22.4663 L1371.79 15.0127 L1386.25 12.096 L1394.43 12.096 L1394.43 65.6895 L1407.8 65.6895 L1407.8 72.576 L1372.96 72.576 L1372.96 65.6895 Z" fill="#000000" fill-rule="evenodd" fill-opacity="1" /><path clip-path="url(#clip310)" d="M1476.1 51.4708 L1474.32 42.1132 Q1472.49 32.5126 1465.28 32.5126 Q1459.85 32.5126 1457.38 36.9686 Q1454.26 42.5588 1454.26 49.9314 Q1454.26 58.8434 1457.3 63.0969 Q1460.38 67.4314 1465.28 67.4314 Q1470.71 67.4314 1473.63 58.8029 L1476.1 51.4708 M1480.27 39.075 L1484.28 27.2059 L1490.93 27.2059 L1482.62 51.7949 L1484.24 60.6663 Q1484.61 62.6513 1486.02 64.3122 Q1487.68 66.2566 1488.98 66.2566 L1492.55 66.2566 L1492.55 72.576 L1488.09 72.576 Q1484.28 72.576 1480.88 69.1732 Q1479.22 67.4719 1478.53 63.9071 Q1476.67 68.4036 1472.86 71.9279 Q1471.08 73.5887 1465.28 73.5887 Q1455.76 73.5887 1451.15 67.4314 Q1446.41 61.0714 1446.41 49.9314 Q1446.41 38.0218 1451.55 32.4315 Q1457.26 26.1931 1465.28 26.1931 Q1477.88 26.1931 1480.27 39.075 Z" fill="#000000" fill-rule="evenodd" fill-opacity="1" /><path clip-path="url(#clip310)" d="M1524.47 58.2358 L1524.47 72.576 L1519.77 72.576 L1519.77 57.3851 Q1519.77 53.6988 1518.31 51.9569 Q1516.85 50.1745 1513.81 50.1745 Q1510.21 50.1745 1508.1 52.362 Q1505.99 54.509 1505.99 58.2358 L1505.99 72.576 L1501.25 72.576 L1501.25 47.1768 L1505.99 47.1768 L1505.99 51.1062 Q1507.57 48.7972 1509.8 47.7034 Q1512.07 46.5692 1515.19 46.5692 Q1518.27 46.5692 1520.46 47.987 Q1522.64 49.3643 1523.7 52.0379 Q1525.44 49.2428 1527.87 47.906 Q1530.34 46.5692 1533.66 46.5692 Q1538.16 46.5692 1540.55 49.3643 Q1542.98 52.1189 1542.98 57.2231 L1542.98 72.576 L1538.28 72.576 L1538.28 57.3851 Q1538.28 53.7393 1536.82 51.9569 Q1535.36 50.1745 1532.37 50.1745 Q1528.72 50.1745 1526.57 52.362 Q1524.47 54.509 1524.47 58.2358 Z" fill="#000000" fill-rule="evenodd" fill-opacity="1" /><path clip-path="url(#clip310)" d="M1577.57 58.8434 L1577.57 60.8689 L1555.98 60.8689 Q1556.31 65.1628 1558.9 67.4314 Q1561.53 69.6999 1566.19 69.6999 Q1568.91 69.6999 1571.46 69.0922 Q1573.97 68.5251 1576.48 67.3503 L1576.48 71.2797 Q1573.97 72.2519 1571.3 72.738 Q1568.66 73.2241 1565.91 73.2241 Q1559.06 73.2241 1555.09 69.6999 Q1551.08 66.1756 1551.08 60.1397 Q1551.08 53.9013 1554.89 50.215 Q1558.66 46.5692 1565.1 46.5692 Q1570.85 46.5692 1574.21 49.8504 Q1577.57 53.1722 1577.57 58.8434 M1572.87 57.5877 Q1572.83 54.1849 1570.73 52.1189 Q1568.62 50.0935 1565.14 50.0935 Q1561.21 50.0935 1558.86 52.0784 Q1556.51 54.0229 1556.14 57.5877 L1572.87 57.5877 Z" fill="#000000" fill-rule="evenodd" fill-opacity="1" /><path clip-path="url(#clip310)" d="M1600.7 59.8157 Q1595.03 59.8157 1592.85 60.9499 Q1590.62 62.1247 1590.62 64.9198 Q1590.62 67.1478 1592.28 68.4441 Q1593.94 69.7404 1596.78 69.7404 Q1600.66 69.7404 1603.01 67.2693 Q1605.4 64.7983 1605.4 60.7474 L1605.4 59.8157 L1600.7 59.8157 M1610.06 58.0738 L1610.06 72.576 L1605.4 72.576 L1605.4 68.7276 Q1603.78 71.0367 1601.39 72.1304 Q1598.96 73.2241 1595.52 73.2241 Q1591.1 73.2241 1588.51 71.0367 Q1585.92 68.8492 1585.92 65.1628 Q1585.92 60.9094 1589.16 58.7219 Q1592.4 56.5344 1598.8 56.5344 L1605.4 56.5344 L1605.4 56.1293 Q1605.4 53.2532 1603.26 51.6733 Q1601.11 50.0935 1597.26 50.0935 Q1594.83 50.0935 1592.48 50.6201 Q1590.17 51.1467 1588.03 52.2 L1588.03 48.3111 Q1590.62 47.4604 1593.05 47.0148 Q1595.44 46.5692 1597.75 46.5692 Q1603.95 46.5692 1607.02 49.4048 Q1610.06 52.281 1610.06 58.0738 Z" fill="#000000" fill-rule="evenodd" fill-opacity="1" /><path clip-path="url(#clip310)" d="M1643.97 57.2231 L1643.97 72.576 L1639.27 72.576 L1639.27 57.3851 Q1639.27 53.7798 1637.69 51.9974 Q1636.11 50.1745 1632.95 50.1745 Q1629.14 50.1745 1626.95 52.362 Q1624.77 54.509 1624.77 58.2358 L1624.77 72.576 L1620.03 72.576 L1620.03 47.1768 L1624.77 47.1768 L1624.77 51.1062 Q1626.43 48.8377 1628.7 47.7034 Q1631.01 46.5692 1634 46.5692 Q1638.9 46.5692 1641.42 49.2833 Q1643.97 51.9974 1643.97 57.2231 Z" fill="#000000" fill-rule="evenodd" fill-opacity="1" /><path clip-path="url(#clip310)" d="M1657.13 34.9026 L1709.07 34.9026 L1709.07 41.7081 L1657.13 41.7081 L1657.13 34.9026 M1657.13 51.4303 L1709.07 51.4303 L1709.07 58.3168 L1657.13 58.3168 L1657.13 51.4303 Z" fill="#000000" fill-rule="evenodd" fill-opacity="1" /><path clip-path="url(#clip310)" d="M1749.21 19.2256 L1728.55 51.5113 L1749.21 51.5113 L1749.21 19.2256 M1747.06 12.096 L1757.35 12.096 L1757.35 51.5113 L1765.98 51.5113 L1765.98 58.3168 L1757.35 58.3168 L1757.35 72.576 L1749.21 72.576 L1749.21 58.3168 L1721.91 58.3168 L1721.91 50.4176 L1747.06 12.096 Z" fill="#000000" fill-rule="evenodd" fill-opacity="1" /><path clip-path="url(#clip310)" d="M1779.51 62.2867 L1788.06 62.2867 L1788.06 72.576 L1779.51 72.576 L1779.51 62.2867 Z" fill="#000000" fill-rule="evenodd" fill-opacity="1" /><path clip-path="url(#clip310)" d="M1823.38 17.4837 Q1817.06 17.4837 1813.86 23.7221 Q1810.7 29.92 1810.7 42.3968 Q1810.7 54.833 1813.86 61.0714 Q1817.06 67.2693 1823.38 67.2693 Q1829.74 67.2693 1832.9 61.0714 Q1836.1 54.833 1836.1 42.3968 Q1836.1 29.92 1832.9 23.7221 Q1829.74 17.4837 1823.38 17.4837 M1823.38 11.0023 Q1833.55 11.0023 1838.9 19.0636 Q1844.29 27.0843 1844.29 42.3968 Q1844.29 57.6687 1838.9 65.73 Q1833.55 73.7508 1823.38 73.7508 Q1813.22 73.7508 1807.83 65.73 Q1802.48 57.6687 1802.48 42.3968 Q1802.48 27.0843 1807.83 19.0636 Q1813.22 11.0023 1823.38 11.0023 Z" fill="#000000" fill-rule="evenodd" fill-opacity="1" /><path clip-path="url(#clip310)" d="M1910.44 51.4708 L1908.65 42.1132 Q1906.83 32.5126 1899.62 32.5126 Q1894.19 32.5126 1891.72 36.9686 Q1888.6 42.5588 1888.6 49.9314 Q1888.6 58.8434 1891.64 63.0969 Q1894.72 67.4314 1899.62 67.4314 Q1905.05 67.4314 1907.97 58.8029 L1910.44 51.4708 M1914.61 39.075 L1918.62 27.2059 L1925.26 27.2059 L1916.96 51.7949 L1918.58 60.6663 Q1918.94 62.6513 1920.36 64.3122 Q1922.02 66.2566 1923.32 66.2566 L1926.88 66.2566 L1926.88 72.576 L1922.43 72.576 Q1918.62 72.576 1915.22 69.1732 Q1913.56 67.4719 1912.87 63.9071 Q1911 68.4036 1907.2 71.9279 Q1905.41 73.5887 1899.62 73.5887 Q1890.1 73.5887 1885.48 67.4314 Q1880.74 61.0714 1880.74 49.9314 Q1880.74 38.0218 1885.89 32.4315 Q1891.6 26.1931 1899.62 26.1931 Q1912.22 26.1931 1914.61 39.075 Z" fill="#000000" fill-rule="evenodd" fill-opacity="1" /><path clip-path="url(#clip310)" d="M1948.76 59.8157 Q1943.09 59.8157 1940.9 60.9499 Q1938.67 62.1247 1938.67 64.9198 Q1938.67 67.1478 1940.33 68.4441 Q1941.99 69.7404 1944.83 69.7404 Q1948.72 69.7404 1951.07 67.2693 Q1953.46 64.7983 1953.46 60.7474 L1953.46 59.8157 L1948.76 59.8157 M1958.12 58.0738 L1958.12 72.576 L1953.46 72.576 L1953.46 68.7276 Q1951.84 71.0367 1949.45 72.1304 Q1947.02 73.2241 1943.57 73.2241 Q1939.16 73.2241 1936.57 71.0367 Q1933.97 68.8492 1933.97 65.1628 Q1933.97 60.9094 1937.21 58.7219 Q1940.45 56.5344 1946.85 56.5344 L1953.46 56.5344 L1953.46 56.1293 Q1953.46 53.2532 1951.31 51.6733 Q1949.16 50.0935 1945.32 50.0935 Q1942.88 50.0935 1940.54 50.6201 Q1938.23 51.1467 1936.08 52.2 L1936.08 48.3111 Q1938.67 47.4604 1941.1 47.0148 Q1943.49 46.5692 1945.8 46.5692 Q1952 46.5692 1955.08 49.4048 Q1958.12 52.281 1958.12 58.0738 Z" fill="#000000" fill-rule="evenodd" fill-opacity="1" /><path clip-path="url(#clip310)" d="M1991.29 58.2358 L1991.29 72.576 L1986.59 72.576 L1986.59 57.3851 Q1986.59 53.6988 1985.14 51.9569 Q1983.68 50.1745 1980.64 50.1745 Q1977.03 50.1745 1974.93 52.362 Q1972.82 54.509 1972.82 58.2358 L1972.82 72.576 L1968.08 72.576 L1968.08 47.1768 L1972.82 47.1768 L1972.82 51.1062 Q1974.4 48.7972 1976.63 47.7034 Q1978.9 46.5692 1982.02 46.5692 Q1985.09 46.5692 1987.28 47.987 Q1989.47 49.3643 1990.52 52.0379 Q1992.27 49.2428 1994.7 47.906 Q1997.17 46.5692 2000.49 46.5692 Q2004.98 46.5692 2007.37 49.3643 Q2009.81 52.1189 2009.81 57.2231 L2009.81 72.576 L2005.11 72.576 L2005.11 57.3851 Q2005.11 53.7393 2003.65 51.9569 Q2002.19 50.1745 1999.19 50.1745 Q1995.55 50.1745 1993.4 52.362 Q1991.29 54.509 1991.29 58.2358 Z" fill="#000000" fill-rule="evenodd" fill-opacity="1" /><path clip-path="url(#clip310)" d="M2024.51 68.7682 L2024.51 82.2577 L2019.77 82.2577 L2019.77 47.1768 L2024.51 47.1768 L2024.51 51.0252 Q2025.97 48.7567 2028.24 47.6629 Q2030.51 46.5692 2033.62 46.5692 Q2038.85 46.5692 2042.09 50.215 Q2045.33 53.9013 2045.33 59.8967 Q2045.33 65.892 2042.09 69.5783 Q2038.85 73.2241 2033.62 73.2241 Q2030.51 73.2241 2028.24 72.1304 Q2025.97 71.0367 2024.51 68.7682 M2038.36 67.1073 Q2040.47 64.5147 2040.47 59.8967 Q2040.47 55.2786 2038.36 52.6861 Q2036.22 50.053 2032.49 50.053 Q2028.76 50.053 2026.62 52.6861 Q2024.51 55.2786 2024.51 59.8967 Q2024.51 64.5147 2026.62 67.1073 Q2028.76 69.7404 2032.49 69.7404 Q2036.22 69.7404 2038.36 67.1073 Z" fill="#000000" fill-rule="evenodd" fill-opacity="1" /><path clip-path="url(#clip310)" d="M2059.35 34.9026 L2111.28 34.9026 L2111.28 41.7081 L2059.35 41.7081 L2059.35 34.9026 M2059.35 51.4303 L2111.28 51.4303 L2111.28 58.3168 L2059.35 58.3168 L2059.35 51.4303 Z" fill="#000000" fill-rule="evenodd" fill-opacity="1" /><path clip-path="url(#clip310)" d="M2151.43 19.2256 L2130.77 51.5113 L2151.43 51.5113 L2151.43 19.2256 M2149.28 12.096 L2159.57 12.096 L2159.57 51.5113 L2168.2 51.5113 L2168.2 58.3168 L2159.57 58.3168 L2159.57 72.576 L2151.43 72.576 L2151.43 58.3168 L2124.12 58.3168 L2124.12 50.4176 L2149.28 12.096 Z" fill="#000000" fill-rule="evenodd" fill-opacity="1" /><path clip-path="url(#clip310)" d="M2181.73 62.2867 L2190.27 62.2867 L2190.27 72.576 L2181.73 72.576 L2181.73 62.2867 Z" fill="#000000" fill-rule="evenodd" fill-opacity="1" /><path clip-path="url(#clip310)" d="M2225.6 17.4837 Q2219.28 17.4837 2216.08 23.7221 Q2212.92 29.92 2212.92 42.3968 Q2212.92 54.833 2216.08 61.0714 Q2219.28 67.2693 2225.6 67.2693 Q2231.96 67.2693 2235.12 61.0714 Q2238.32 54.833 2238.32 42.3968 Q2238.32 29.92 2235.12 23.7221 Q2231.96 17.4837 2225.6 17.4837 M2225.6 11.0023 Q2235.76 11.0023 2241.11 19.0636 Q2246.5 27.0843 2246.5 42.3968 Q2246.5 57.6687 2241.11 65.73 Q2235.76 73.7508 2225.6 73.7508 Q2215.43 73.7508 2210.04 65.73 Q2204.69 57.6687 2204.69 42.3968 Q2204.69 27.0843 2210.04 19.0636 Q2215.43 11.0023 2225.6 11.0023 Z" fill="#000000" fill-rule="evenodd" fill-opacity="1" /><polyline clip-path="url(#clip312)" style="stroke:#009af9; stroke-linecap:butt; stroke-linejoin:round; stroke-width:4; stroke-opacity:1; fill:none" points="
  271.931,448.399 278.688,635.792 285.444,681.331 292.201,673.213 298.958,724.334 305.714,520.732 312.471,462.21 319.227,369.979 325.984,412.094 332.74,473.283 
  339.497,520.469 346.254,579.895 353.01,617.322 359.767,667.715 366.523,747.275 373.28,648.851 380.037,441.93 386.793,364.518 393.55,415.662 400.306,477.822 
  407.063,534.916 413.819,577.449 420.576,614.976 427.333,670.27 434.089,735.173 440.846,641.221 447.602,463.165 454.359,378.278 461.116,418.937 467.872,484.737 
  474.629,545.757 481.385,588.073 488.142,605.779 494.898,667.673 501.655,727.277 508.412,643.544 515.168,465.667 521.925,390.302 528.681,417.626 535.438,486.654 
  542.194,548.931 548.951,600.909 555.708,594.488 562.464,663.908 569.221,715.502 575.977,640.384 582.734,460.71 589.491,432.039 596.247,411.961 603.004,481.229 
  609.76,539.656 616.517,602.926 623.273,591.234 630.03,658.343 636.787,696.052 643.543,520.611 650.3,395.979 657.056,397.052 663.813,390.44 670.57,473.026 
  677.326,535.806 684.083,611.93 690.839,586.034 697.596,666.368 704.352,694.017 711.109,625.423 717.866,431.082 724.622,426.164 731.379,389.661 738.135,460.951 
  744.892,523.659 751.649,603.337 758.405,582.767 765.162,680.631 771.918,661.374 778.675,613 785.431,449.763 792.188,439.01 798.945,379.842 805.701,449.899 
  812.458,514.825 819.214,602.74 825.971,583.188 832.728,681.691 839.484,622.808 846.241,550.588 852.997,445.874 859.754,430.572 866.51,363.609 873.267,435.762 
  880.024,503.315 886.78,596.495 893.537,579.152 900.293,689.027 907.05,568.763 913.807,418.041 920.563,434.55 927.32,417.756 934.076,350.349 940.833,420.977 
  947.589,540.101 954.346,585.291 961.103,574.654 967.859,703.557 974.616,507.463 981.372,418.421 988.129,455.062 994.886,438.332 1001.64,337.213 1008.4,459.401 
  1015.16,568.041 1021.91,573.241 1028.67,577.622 1035.43,697.438 1042.18,505.12 1048.94,372.807 1055.69,440.279 1062.45,427.452 1069.21,323.489 1075.96,524.042 
  1082.72,579.525 1089.48,568.831 1096.23,567.688 1102.99,707.57 1109.75,493.168 1116.5,420.38 1123.26,474.327 1130.02,448.92 1136.77,309.231 1143.53,521.018 
  1150.29,572.119 1157.04,557.12 1163.8,566.01 1170.56,685.198 1177.31,498.794 1184.07,409.63 1190.83,445.62 1197.58,452.362 1204.34,291.406 1211.1,493.752 
  1217.85,551.878 1224.61,548.896 1231.37,554.468 1238.12,694.782 1244.88,501.266 1251.64,380.519 1258.39,187.978 1265.15,501.169 1271.91,276.341 1278.66,465.341 
  1285.42,521.197 1292.18,595.469 1298.93,540.948 1305.69,655.037 1312.44,511.205 1319.2,414.25 1325.96,175.951 1332.71,478.461 1339.47,336.651 1346.23,437.516 
  1352.98,500.687 1359.74,589.924 1366.5,532.33 1373.25,659.905 1380.01,538.373 1386.77,413.587 1393.52,213.035 1400.28,506.971 1407.04,555.563 1413.79,414.248 
  1420.55,480.793 1427.31,631.956 1434.06,518.875 1440.82,676.116 1447.58,534.628 1454.33,445.959 1461.09,185.448 1467.85,495.25 1474.6,537.484 1481.36,389.698 
  1488.12,474.846 1494.87,624.176 1501.63,515.835 1508.39,684.967 1515.14,525.489 1521.9,387.066 1528.66,317.946 1535.41,517.896 1542.17,526.073 1548.93,368.291 
  1555.68,460.176 1562.44,603.029 1569.2,502.37 1575.95,711.95 1582.71,480.283 1589.46,243.77 1596.22,303.089 1602.98,526.662 1609.73,512.765 1616.49,372.921 
  1623.25,543.496 1630,638.691 1636.76,498.393 1643.52,739.656 1650.27,403.954 1657.03,221.148 1663.79,225.958 1670.54,511.04 1677.3,484.636 1684.06,486.371 
  1690.81,536.555 1697.57,623.505 1704.33,484.874 1711.08,764.445 1717.84,443.946 1724.6,257.72 1731.35,317.528 1738.11,519.898 1744.87,463.943 1751.62,611.437 
  1758.38,591.123 1765.14,640.658 1771.89,498.051 1778.65,806.925 1785.41,447.303 1792.16,304.128 1798.92,260.226 1805.68,503.159 1812.43,440.663 1819.19,606.614 
  1825.95,621.923 1832.7,620.389 1839.46,480.556 1846.21,830.576 1852.97,534.465 1859.73,327.915 1866.48,339.797 1873.24,513.489 1880,413.821 1886.75,575.611 
  1893.51,616.142 1900.27,599.711 1907.02,500.957 1913.78,883.926 1920.54,529.567 1927.29,347.338 1934.05,301.189 1940.81,496.065 1947.56,389.732 1954.32,534.881 
  1961.08,595.332 1967.83,597.747 1974.59,487.698 1981.35,888.703 1988.1,644.168 1994.86,449.253 2001.62,363.827 2008.37,513.436 2015.13,366.656 2021.89,492.42 
  2028.64,554.396 2035.4,573.646 2042.16,502.15 2048.91,869.182 2055.67,736.276 2062.43,529.176 2069.18,361.365 2075.94,506.631 2082.7,338.001 2089.45,461.361 
  2096.21,527.854 2102.97,556.16 2109.72,516.134 2116.48,898.861 2123.23,770.31 2129.99,553.81 2136.75,394.78 2143.5,489.17 2150.26,308.252 2157.02,439.151 
  2163.77,515.456 2170.53,527.005 2177.29,521.932 2184.04,810.997 2190.8,753.77 2197.56,638.907 2204.31,410.151 2211.07,475.029 2217.83,298.189 2224.58,430.819 
  2231.34,509.659 2238.1,514.138 2244.85,530.53 2251.61,684.846 2258.37,572.413 2265.12,581.517 2271.88,427.026 2278.64,450.229 2285.39,632.32 2292.15,438.805 
  
  "/>
</svg>
