<?xml version="1.0" encoding="utf-8"?>
<svg xmlns="http://www.w3.org/2000/svg" xmlns:xlink="http://www.w3.org/1999/xlink" width="600" height="400" viewBox="0 0 2400 1600">
<defs>
  <clipPath id="clip390">
    <rect x="0" y="0" width="2400" height="1600"/>
  </clipPath>
</defs>
<path clip-path="url(#clip390)" d="
M0 1600 L2400 1600 L2400 0 L0 0  Z
  " fill="#ffffff" fill-rule="evenodd" fill-opacity="1"/>
<defs>
  <clipPath id="clip391">
    <rect x="480" y="0" width="1681" height="1600"/>
  </clipPath>
</defs>
<path clip-path="url(#clip390)" d="
M257.69 1423.18 L2352.76 1423.18 L2352.76 123.472 L257.69 123.472  Z
  " fill="#ffffff" fill-rule="evenodd" fill-opacity="1"/>
<defs>
  <clipPath id="clip392">
    <rect x="257" y="123" width="2096" height="1301"/>
  </clipPath>
</defs>
<polyline clip-path="url(#clip392)" style="stroke:#000000; stroke-linecap:butt; stroke-linejoin:round; stroke-width:2; stroke-opacity:0.1; fill:none" points="
  316.984,1423.18 316.984,123.472 
  "/>
<polyline clip-path="url(#clip392)" style="stroke:#000000; stroke-linecap:butt; stroke-linejoin:round; stroke-width:2; stroke-opacity:0.1; fill:none" points="
  975.81,1423.18 975.81,123.472 
  "/>
<polyline clip-path="url(#clip392)" style="stroke:#000000; stroke-linecap:butt; stroke-linejoin:round; stroke-width:2; stroke-opacity:0.1; fill:none" points="
  1634.64,1423.18 1634.64,123.472 
  "/>
<polyline clip-path="url(#clip392)" style="stroke:#000000; stroke-linecap:butt; stroke-linejoin:round; stroke-width:2; stroke-opacity:0.1; fill:none" points="
  2293.46,1423.18 2293.46,123.472 
  "/>
<polyline clip-path="url(#clip390)" style="stroke:#000000; stroke-linecap:butt; stroke-linejoin:round; stroke-width:4; stroke-opacity:1; fill:none" points="
  257.69,1423.18 2352.76,1423.18 
  "/>
<polyline clip-path="url(#clip390)" style="stroke:#000000; stroke-linecap:butt; stroke-linejoin:round; stroke-width:4; stroke-opacity:1; fill:none" points="
  316.984,1423.18 316.984,1404.28 
  "/>
<polyline clip-path="url(#clip390)" style="stroke:#000000; stroke-linecap:butt; stroke-linejoin:round; stroke-width:4; stroke-opacity:1; fill:none" points="
  975.81,1423.18 975.81,1404.28 
  "/>
<polyline clip-path="url(#clip390)" style="stroke:#000000; stroke-linecap:butt; stroke-linejoin:round; stroke-width:4; stroke-opacity:1; fill:none" points="
  1634.64,1423.18 1634.64,1404.28 
  "/>
<polyline clip-path="url(#clip390)" style="stroke:#000000; stroke-linecap:butt; stroke-linejoin:round; stroke-width:4; stroke-opacity:1; fill:none" points="
  2293.46,1423.18 2293.46,1404.28 
  "/>
<path clip-path="url(#clip390)" d="M316.984 1454.1 Q313.373 1454.1 311.545 1457.66 Q309.739 1461.2 309.739 1468.33 Q309.739 1475.44 311.545 1479.01 Q313.373 1482.55 316.984 1482.55 Q320.619 1482.55 322.424 1479.01 Q324.253 1475.44 324.253 1468.33 Q324.253 1461.2 322.424 1457.66 Q320.619 1454.1 316.984 1454.1 M316.984 1450.39 Q322.795 1450.39 325.85 1455 Q328.929 1459.58 328.929 1468.33 Q328.929 1477.06 325.85 1481.67 Q322.795 1486.25 316.984 1486.25 Q311.174 1486.25 308.096 1481.67 Q305.04 1477.06 305.04 1468.33 Q305.04 1459.58 308.096 1455 Q311.174 1450.39 316.984 1450.39 Z" fill="#000000" fill-rule="evenodd" fill-opacity="1" /><path clip-path="url(#clip390)" d="M935.417 1481.64 L943.056 1481.64 L943.056 1455.28 L934.746 1456.95 L934.746 1452.69 L943.009 1451.02 L947.685 1451.02 L947.685 1481.64 L955.324 1481.64 L955.324 1485.58 L935.417 1485.58 L935.417 1481.64 Z" fill="#000000" fill-rule="evenodd" fill-opacity="1" /><path clip-path="url(#clip390)" d="M974.769 1454.1 Q971.157 1454.1 969.329 1457.66 Q967.523 1461.2 967.523 1468.33 Q967.523 1475.44 969.329 1479.01 Q971.157 1482.55 974.769 1482.55 Q978.403 1482.55 980.208 1479.01 Q982.037 1475.44 982.037 1468.33 Q982.037 1461.2 980.208 1457.66 Q978.403 1454.1 974.769 1454.1 M974.769 1450.39 Q980.579 1450.39 983.634 1455 Q986.713 1459.58 986.713 1468.33 Q986.713 1477.06 983.634 1481.67 Q980.579 1486.25 974.769 1486.25 Q968.958 1486.25 965.88 1481.67 Q962.824 1477.06 962.824 1468.33 Q962.824 1459.58 965.88 1455 Q968.958 1450.39 974.769 1450.39 Z" fill="#000000" fill-rule="evenodd" fill-opacity="1" /><path clip-path="url(#clip390)" d="M1004.93 1454.1 Q1001.32 1454.1 999.491 1457.66 Q997.685 1461.2 997.685 1468.33 Q997.685 1475.44 999.491 1479.01 Q1001.32 1482.55 1004.93 1482.55 Q1008.56 1482.55 1010.37 1479.01 Q1012.2 1475.44 1012.2 1468.33 Q1012.2 1461.2 1010.37 1457.66 Q1008.56 1454.1 1004.93 1454.1 M1004.93 1450.39 Q1010.74 1450.39 1013.8 1455 Q1016.87 1459.58 1016.87 1468.33 Q1016.87 1477.06 1013.8 1481.67 Q1010.74 1486.25 1004.93 1486.25 Q999.12 1486.25 996.042 1481.67 Q992.986 1477.06 992.986 1468.33 Q992.986 1459.58 996.042 1455 Q999.12 1450.39 1004.93 1450.39 Z" fill="#000000" fill-rule="evenodd" fill-opacity="1" /><path clip-path="url(#clip390)" d="M1598.33 1481.64 L1614.65 1481.64 L1614.65 1485.58 L1592.7 1485.58 L1592.7 1481.64 Q1595.37 1478.89 1599.95 1474.26 Q1604.56 1469.61 1605.74 1468.27 Q1607.98 1465.74 1608.86 1464.01 Q1609.76 1462.25 1609.76 1460.56 Q1609.76 1457.8 1607.82 1456.07 Q1605.9 1454.33 1602.8 1454.33 Q1600.6 1454.33 1598.14 1455.09 Q1595.71 1455.86 1592.93 1457.41 L1592.93 1452.69 Q1595.76 1451.55 1598.21 1450.97 Q1600.67 1450.39 1602.7 1450.39 Q1608.07 1450.39 1611.27 1453.08 Q1614.46 1455.77 1614.46 1460.26 Q1614.46 1462.39 1613.65 1464.31 Q1612.87 1466.2 1610.76 1468.8 Q1610.18 1469.47 1607.08 1472.69 Q1603.98 1475.88 1598.33 1481.64 Z" fill="#000000" fill-rule="evenodd" fill-opacity="1" /><path clip-path="url(#clip390)" d="M1634.46 1454.1 Q1630.85 1454.1 1629.02 1457.66 Q1627.22 1461.2 1627.22 1468.33 Q1627.22 1475.44 1629.02 1479.01 Q1630.85 1482.55 1634.46 1482.55 Q1638.1 1482.55 1639.9 1479.01 Q1641.73 1475.44 1641.73 1468.33 Q1641.73 1461.2 1639.9 1457.66 Q1638.1 1454.1 1634.46 1454.1 M1634.46 1450.39 Q1640.27 1450.39 1643.33 1455 Q1646.41 1459.58 1646.41 1468.33 Q1646.41 1477.06 1643.33 1481.67 Q1640.27 1486.25 1634.46 1486.25 Q1628.65 1486.25 1625.57 1481.67 Q1622.52 1477.06 1622.52 1468.33 Q1622.52 1459.58 1625.57 1455 Q1628.65 1450.39 1634.46 1450.39 Z" fill="#000000" fill-rule="evenodd" fill-opacity="1" /><path clip-path="url(#clip390)" d="M1664.62 1454.1 Q1661.01 1454.1 1659.18 1457.66 Q1657.38 1461.2 1657.38 1468.33 Q1657.38 1475.44 1659.18 1479.01 Q1661.01 1482.55 1664.62 1482.55 Q1668.26 1482.55 1670.06 1479.01 Q1671.89 1475.44 1671.89 1468.33 Q1671.89 1461.2 1670.06 1457.66 Q1668.26 1454.1 1664.62 1454.1 M1664.62 1450.39 Q1670.43 1450.39 1673.49 1455 Q1676.57 1459.58 1676.57 1468.33 Q1676.57 1477.06 1673.49 1481.67 Q1670.43 1486.25 1664.62 1486.25 Q1658.81 1486.25 1655.74 1481.67 Q1652.68 1477.06 1652.68 1468.33 Q1652.68 1459.58 1655.74 1455 Q1658.81 1450.39 1664.62 1450.39 Z" fill="#000000" fill-rule="evenodd" fill-opacity="1" /><path clip-path="url(#clip390)" d="M2267.22 1466.95 Q2270.58 1467.66 2272.45 1469.93 Q2274.35 1472.2 2274.35 1475.53 Q2274.35 1480.65 2270.83 1483.45 Q2267.32 1486.25 2260.83 1486.25 Q2258.66 1486.25 2256.34 1485.81 Q2254.05 1485.39 2251.6 1484.54 L2251.6 1480.02 Q2253.54 1481.16 2255.86 1481.74 Q2258.17 1482.32 2260.7 1482.32 Q2265.09 1482.32 2267.39 1480.58 Q2269.7 1478.84 2269.7 1475.53 Q2269.7 1472.48 2267.55 1470.77 Q2265.42 1469.03 2261.6 1469.03 L2257.57 1469.03 L2257.57 1465.19 L2261.78 1465.19 Q2265.23 1465.19 2267.06 1463.82 Q2268.89 1462.43 2268.89 1459.84 Q2268.89 1457.18 2266.99 1455.77 Q2265.12 1454.33 2261.6 1454.33 Q2259.68 1454.33 2257.48 1454.75 Q2255.28 1455.16 2252.64 1456.04 L2252.64 1451.88 Q2255.3 1451.14 2257.62 1450.77 Q2259.95 1450.39 2262.02 1450.39 Q2267.34 1450.39 2270.44 1452.83 Q2273.54 1455.23 2273.54 1459.35 Q2273.54 1462.22 2271.9 1464.21 Q2270.26 1466.18 2267.22 1466.95 Z" fill="#000000" fill-rule="evenodd" fill-opacity="1" /><path clip-path="url(#clip390)" d="M2293.22 1454.1 Q2289.61 1454.1 2287.78 1457.66 Q2285.97 1461.2 2285.97 1468.33 Q2285.97 1475.44 2287.78 1479.01 Q2289.61 1482.55 2293.22 1482.55 Q2296.85 1482.55 2298.66 1479.01 Q2300.49 1475.44 2300.49 1468.33 Q2300.49 1461.2 2298.66 1457.66 Q2296.85 1454.1 2293.22 1454.1 M2293.22 1450.39 Q2299.03 1450.39 2302.08 1455 Q2305.16 1459.58 2305.16 1468.33 Q2305.16 1477.06 2302.08 1481.67 Q2299.03 1486.25 2293.22 1486.25 Q2287.41 1486.25 2284.33 1481.67 Q2281.27 1477.06 2281.27 1468.33 Q2281.27 1459.58 2284.33 1455 Q2287.41 1450.39 2293.22 1450.39 Z" fill="#000000" fill-rule="evenodd" fill-opacity="1" /><path clip-path="url(#clip390)" d="M2323.38 1454.1 Q2319.77 1454.1 2317.94 1457.66 Q2316.14 1461.2 2316.14 1468.33 Q2316.14 1475.44 2317.94 1479.01 Q2319.77 1482.55 2323.38 1482.55 Q2327.01 1482.55 2328.82 1479.01 Q2330.65 1475.44 2330.65 1468.33 Q2330.65 1461.2 2328.82 1457.66 Q2327.01 1454.1 2323.38 1454.1 M2323.38 1450.39 Q2329.19 1450.39 2332.25 1455 Q2335.32 1459.58 2335.32 1468.33 Q2335.32 1477.06 2332.25 1481.67 Q2329.19 1486.25 2323.38 1486.25 Q2317.57 1486.25 2314.49 1481.67 Q2311.44 1477.06 2311.44 1468.33 Q2311.44 1459.58 2314.49 1455 Q2317.57 1450.39 2323.38 1450.39 Z" fill="#000000" fill-rule="evenodd" fill-opacity="1" /><path clip-path="url(#clip390)" d="M1253.53 1522.27 L1253.53 1532.4 L1265.6 1532.4 L1265.6 1536.95 L1253.53 1536.95 L1253.53 1556.3 Q1253.53 1560.66 1254.71 1561.9 Q1255.92 1563.14 1259.58 1563.14 L1265.6 1563.14 L1265.6 1568.04 L1259.58 1568.04 Q1252.8 1568.04 1250.22 1565.53 Q1247.65 1562.98 1247.65 1556.3 L1247.65 1536.95 L1243.35 1536.95 L1243.35 1532.4 L1247.65 1532.4 L1247.65 1522.27 L1253.53 1522.27 Z" fill="#000000" fill-rule="evenodd" fill-opacity="1" /><path clip-path="url(#clip390)" d="M1293.48 1518.52 L1306.97 1518.52 L1306.97 1523.07 L1299.33 1523.07 L1299.33 1572.09 L1306.97 1572.09 L1306.97 1576.64 L1293.48 1576.64 L1293.48 1518.52 Z" fill="#000000" fill-rule="evenodd" fill-opacity="1" /><path clip-path="url(#clip390)" d="M1342.18 1533.45 L1342.18 1538.98 Q1339.69 1537.71 1337.02 1537.07 Q1334.35 1536.44 1331.48 1536.44 Q1327.12 1536.44 1324.92 1537.77 Q1322.76 1539.11 1322.76 1541.79 Q1322.76 1543.82 1324.32 1545 Q1325.88 1546.15 1330.59 1547.2 L1332.6 1547.64 Q1338.83 1548.98 1341.44 1551.43 Q1344.09 1553.85 1344.09 1558.21 Q1344.09 1563.17 1340.14 1566.07 Q1336.22 1568.97 1329.35 1568.97 Q1326.48 1568.97 1323.37 1568.39 Q1320.28 1567.85 1316.84 1566.74 L1316.84 1560.69 Q1320.09 1562.38 1323.24 1563.24 Q1326.39 1564.07 1329.48 1564.07 Q1333.61 1564.07 1335.84 1562.66 Q1338.07 1561.23 1338.07 1558.65 Q1338.07 1556.27 1336.45 1554.99 Q1334.86 1553.72 1329.41 1552.54 L1327.38 1552.07 Q1321.93 1550.92 1319.51 1548.56 Q1317.1 1546.18 1317.1 1542.04 Q1317.1 1537.01 1320.66 1534.27 Q1324.22 1531.54 1330.78 1531.54 Q1334.03 1531.54 1336.89 1532.01 Q1339.76 1532.49 1342.18 1533.45 Z" fill="#000000" fill-rule="evenodd" fill-opacity="1" /><path clip-path="url(#clip390)" d="M1367.1 1518.52 L1367.1 1576.64 L1353.6 1576.64 L1353.6 1572.09 L1361.21 1572.09 L1361.21 1523.07 L1353.6 1523.07 L1353.6 1518.52 L1367.1 1518.52 Z" fill="#000000" fill-rule="evenodd" fill-opacity="1" /><polyline clip-path="url(#clip392)" style="stroke:#000000; stroke-linecap:butt; stroke-linejoin:round; stroke-width:2; stroke-opacity:0.1; fill:none" points="
  257.69,1260.24 2352.76,1260.24 
  "/>
<polyline clip-path="url(#clip392)" style="stroke:#000000; stroke-linecap:butt; stroke-linejoin:round; stroke-width:2; stroke-opacity:0.1; fill:none" points="
  257.69,1068.53 2352.76,1068.53 
  "/>
<polyline clip-path="url(#clip392)" style="stroke:#000000; stroke-linecap:butt; stroke-linejoin:round; stroke-width:2; stroke-opacity:0.1; fill:none" points="
  257.69,876.821 2352.76,876.821 
  "/>
<polyline clip-path="url(#clip392)" style="stroke:#000000; stroke-linecap:butt; stroke-linejoin:round; stroke-width:2; stroke-opacity:0.1; fill:none" points="
  257.69,685.11 2352.76,685.11 
  "/>
<polyline clip-path="url(#clip392)" style="stroke:#000000; stroke-linecap:butt; stroke-linejoin:round; stroke-width:2; stroke-opacity:0.1; fill:none" points="
  257.69,493.4 2352.76,493.4 
  "/>
<polyline clip-path="url(#clip392)" style="stroke:#000000; stroke-linecap:butt; stroke-linejoin:round; stroke-width:2; stroke-opacity:0.1; fill:none" points="
  257.69,301.69 2352.76,301.69 
  "/>
<polyline clip-path="url(#clip390)" style="stroke:#000000; stroke-linecap:butt; stroke-linejoin:round; stroke-width:4; stroke-opacity:1; fill:none" points="
  257.69,1423.18 257.69,123.472 
  "/>
<polyline clip-path="url(#clip390)" style="stroke:#000000; stroke-linecap:butt; stroke-linejoin:round; stroke-width:4; stroke-opacity:1; fill:none" points="
  257.69,1260.24 276.588,1260.24 
  "/>
<polyline clip-path="url(#clip390)" style="stroke:#000000; stroke-linecap:butt; stroke-linejoin:round; stroke-width:4; stroke-opacity:1; fill:none" points="
  257.69,1068.53 276.588,1068.53 
  "/>
<polyline clip-path="url(#clip390)" style="stroke:#000000; stroke-linecap:butt; stroke-linejoin:round; stroke-width:4; stroke-opacity:1; fill:none" points="
  257.69,876.821 276.588,876.821 
  "/>
<polyline clip-path="url(#clip390)" style="stroke:#000000; stroke-linecap:butt; stroke-linejoin:round; stroke-width:4; stroke-opacity:1; fill:none" points="
  257.69,685.11 276.588,685.11 
  "/>
<polyline clip-path="url(#clip390)" style="stroke:#000000; stroke-linecap:butt; stroke-linejoin:round; stroke-width:4; stroke-opacity:1; fill:none" points="
  257.69,493.4 276.588,493.4 
  "/>
<polyline clip-path="url(#clip390)" style="stroke:#000000; stroke-linecap:butt; stroke-linejoin:round; stroke-width:4; stroke-opacity:1; fill:none" points="
  257.69,301.69 276.588,301.69 
  "/>
<path clip-path="url(#clip390)" d="M115.742 1260.69 L145.417 1260.69 L145.417 1264.63 L115.742 1264.63 L115.742 1260.69 Z" fill="#000000" fill-rule="evenodd" fill-opacity="1" /><path clip-path="url(#clip390)" d="M165.51 1246.04 Q161.899 1246.04 160.07 1249.6 Q158.265 1253.15 158.265 1260.28 Q158.265 1267.38 160.07 1270.95 Q161.899 1274.49 165.51 1274.49 Q169.144 1274.49 170.95 1270.95 Q172.778 1267.38 172.778 1260.28 Q172.778 1253.15 170.95 1249.6 Q169.144 1246.04 165.51 1246.04 M165.51 1242.34 Q171.32 1242.34 174.376 1246.94 Q177.454 1251.53 177.454 1260.28 Q177.454 1269 174.376 1273.61 Q171.32 1278.19 165.51 1278.19 Q159.7 1278.19 156.621 1273.61 Q153.566 1269 153.566 1260.28 Q153.566 1251.53 156.621 1246.94 Q159.7 1242.34 165.51 1242.34 Z" fill="#000000" fill-rule="evenodd" fill-opacity="1" /><path clip-path="url(#clip390)" d="M185.672 1271.64 L190.556 1271.64 L190.556 1277.52 L185.672 1277.52 L185.672 1271.64 Z" fill="#000000" fill-rule="evenodd" fill-opacity="1" /><path clip-path="url(#clip390)" d="M200.787 1242.96 L219.144 1242.96 L219.144 1246.9 L205.07 1246.9 L205.07 1255.37 Q206.088 1255.02 207.107 1254.86 Q208.125 1254.67 209.144 1254.67 Q214.931 1254.67 218.311 1257.85 Q221.69 1261.02 221.69 1266.43 Q221.69 1272.01 218.218 1275.11 Q214.746 1278.19 208.426 1278.19 Q206.25 1278.19 203.982 1277.82 Q201.737 1277.45 199.329 1276.71 L199.329 1272.01 Q201.412 1273.15 203.635 1273.7 Q205.857 1274.26 208.334 1274.26 Q212.338 1274.26 214.676 1272.15 Q217.014 1270.04 217.014 1266.43 Q217.014 1262.82 214.676 1260.72 Q212.338 1258.61 208.334 1258.61 Q206.459 1258.61 204.584 1259.03 Q202.732 1259.44 200.787 1260.32 L200.787 1242.96 Z" fill="#000000" fill-rule="evenodd" fill-opacity="1" /><path clip-path="url(#clip390)" d="M114.26 1068.98 L143.936 1068.98 L143.936 1072.92 L114.26 1072.92 L114.26 1068.98 Z" fill="#000000" fill-rule="evenodd" fill-opacity="1" /><path clip-path="url(#clip390)" d="M164.028 1054.33 Q160.417 1054.33 158.589 1057.89 Q156.783 1061.44 156.783 1068.57 Q156.783 1075.67 158.589 1079.24 Q160.417 1082.78 164.028 1082.78 Q167.663 1082.78 169.468 1079.24 Q171.297 1075.67 171.297 1068.57 Q171.297 1061.44 169.468 1057.89 Q167.663 1054.33 164.028 1054.33 M164.028 1050.63 Q169.839 1050.63 172.894 1055.23 Q175.973 1059.82 175.973 1068.57 Q175.973 1077.29 172.894 1081.9 Q169.839 1086.48 164.028 1086.48 Q158.218 1086.48 155.14 1081.9 Q152.084 1077.29 152.084 1068.57 Q152.084 1059.82 155.14 1055.23 Q158.218 1050.63 164.028 1050.63 Z" fill="#000000" fill-rule="evenodd" fill-opacity="1" /><path clip-path="url(#clip390)" d="M184.19 1079.93 L189.075 1079.93 L189.075 1085.81 L184.19 1085.81 L184.19 1079.93 Z" fill="#000000" fill-rule="evenodd" fill-opacity="1" /><path clip-path="url(#clip390)" d="M212.107 1055.32 L200.301 1073.77 L212.107 1073.77 L212.107 1055.32 M210.88 1051.25 L216.76 1051.25 L216.76 1073.77 L221.69 1073.77 L221.69 1077.66 L216.76 1077.66 L216.76 1085.81 L212.107 1085.81 L212.107 1077.66 L196.505 1077.66 L196.505 1073.15 L210.88 1051.25 Z" fill="#000000" fill-rule="evenodd" fill-opacity="1" /><path clip-path="url(#clip390)" d="M115.394 877.272 L145.07 877.272 L145.07 881.207 L115.394 881.207 L115.394 877.272 Z" fill="#000000" fill-rule="evenodd" fill-opacity="1" /><path clip-path="url(#clip390)" d="M165.163 862.619 Q161.552 862.619 159.723 866.184 Q157.917 869.726 157.917 876.855 Q157.917 883.962 159.723 887.527 Q161.552 891.068 165.163 891.068 Q168.797 891.068 170.602 887.527 Q172.431 883.962 172.431 876.855 Q172.431 869.726 170.602 866.184 Q168.797 862.619 165.163 862.619 M165.163 858.916 Q170.973 858.916 174.028 863.522 Q177.107 868.105 177.107 876.855 Q177.107 885.582 174.028 890.189 Q170.973 894.772 165.163 894.772 Q159.353 894.772 156.274 890.189 Q153.218 885.582 153.218 876.855 Q153.218 868.105 156.274 863.522 Q159.353 858.916 165.163 858.916 Z" fill="#000000" fill-rule="evenodd" fill-opacity="1" /><path clip-path="url(#clip390)" d="M185.325 888.221 L190.209 888.221 L190.209 894.101 L185.325 894.101 L185.325 888.221 Z" fill="#000000" fill-rule="evenodd" fill-opacity="1" /><path clip-path="url(#clip390)" d="M214.561 875.467 Q217.917 876.184 219.792 878.453 Q221.69 880.721 221.69 884.054 Q221.69 889.17 218.172 891.971 Q214.653 894.772 208.172 894.772 Q205.996 894.772 203.681 894.332 Q201.389 893.916 198.936 893.059 L198.936 888.545 Q200.88 889.679 203.195 890.258 Q205.51 890.837 208.033 890.837 Q212.431 890.837 214.723 889.101 Q217.037 887.365 217.037 884.054 Q217.037 880.999 214.885 879.286 Q212.755 877.55 208.936 877.55 L204.908 877.55 L204.908 873.707 L209.121 873.707 Q212.57 873.707 214.399 872.342 Q216.227 870.953 216.227 868.36 Q216.227 865.698 214.329 864.286 Q212.454 862.851 208.936 862.851 Q207.014 862.851 204.815 863.268 Q202.616 863.684 199.977 864.564 L199.977 860.397 Q202.639 859.656 204.954 859.286 Q207.292 858.916 209.352 858.916 Q214.676 858.916 217.778 861.346 Q220.88 863.754 220.88 867.874 Q220.88 870.744 219.236 872.735 Q217.593 874.703 214.561 875.467 Z" fill="#000000" fill-rule="evenodd" fill-opacity="1" /><path clip-path="url(#clip390)" d="M116.343 685.562 L146.019 685.562 L146.019 689.497 L116.343 689.497 L116.343 685.562 Z" fill="#000000" fill-rule="evenodd" fill-opacity="1" /><path clip-path="url(#clip390)" d="M166.112 670.909 Q162.501 670.909 160.672 674.474 Q158.866 678.016 158.866 685.145 Q158.866 692.252 160.672 695.816 Q162.501 699.358 166.112 699.358 Q169.746 699.358 171.552 695.816 Q173.38 692.252 173.38 685.145 Q173.38 678.016 171.552 674.474 Q169.746 670.909 166.112 670.909 M166.112 667.205 Q171.922 667.205 174.977 671.812 Q178.056 676.395 178.056 685.145 Q178.056 693.872 174.977 698.478 Q171.922 703.062 166.112 703.062 Q160.302 703.062 157.223 698.478 Q154.167 693.872 154.167 685.145 Q154.167 676.395 157.223 671.812 Q160.302 667.205 166.112 667.205 Z" fill="#000000" fill-rule="evenodd" fill-opacity="1" /><path clip-path="url(#clip390)" d="M186.274 696.511 L191.158 696.511 L191.158 702.39 L186.274 702.39 L186.274 696.511 Z" fill="#000000" fill-rule="evenodd" fill-opacity="1" /><path clip-path="url(#clip390)" d="M205.371 698.455 L221.69 698.455 L221.69 702.39 L199.746 702.39 L199.746 698.455 Q202.408 695.701 206.991 691.071 Q211.598 686.418 212.778 685.076 Q215.024 682.553 215.903 680.817 Q216.806 679.057 216.806 677.367 Q216.806 674.613 214.861 672.877 Q212.94 671.141 209.838 671.141 Q207.639 671.141 205.186 671.905 Q202.755 672.668 199.977 674.219 L199.977 669.497 Q202.801 668.363 205.255 667.784 Q207.709 667.205 209.746 667.205 Q215.116 667.205 218.311 669.891 Q221.505 672.576 221.505 677.067 Q221.505 679.196 220.695 681.117 Q219.908 683.016 217.801 685.608 Q217.223 686.279 214.121 689.497 Q211.019 692.691 205.371 698.455 Z" fill="#000000" fill-rule="evenodd" fill-opacity="1" /><path clip-path="url(#clip390)" d="M115.973 493.852 L145.649 493.852 L145.649 497.787 L115.973 497.787 L115.973 493.852 Z" fill="#000000" fill-rule="evenodd" fill-opacity="1" /><path clip-path="url(#clip390)" d="M165.741 479.199 Q162.13 479.199 160.302 482.764 Q158.496 486.305 158.496 493.435 Q158.496 500.541 160.302 504.106 Q162.13 507.648 165.741 507.648 Q169.376 507.648 171.181 504.106 Q173.01 500.541 173.01 493.435 Q173.01 486.305 171.181 482.764 Q169.376 479.199 165.741 479.199 M165.741 475.495 Q171.552 475.495 174.607 480.102 Q177.686 484.685 177.686 493.435 Q177.686 502.162 174.607 506.768 Q171.552 511.352 165.741 511.352 Q159.931 511.352 156.853 506.768 Q153.797 502.162 153.797 493.435 Q153.797 484.685 156.853 480.102 Q159.931 475.495 165.741 475.495 Z" fill="#000000" fill-rule="evenodd" fill-opacity="1" /><path clip-path="url(#clip390)" d="M185.903 504.801 L190.788 504.801 L190.788 510.68 L185.903 510.68 L185.903 504.801 Z" fill="#000000" fill-rule="evenodd" fill-opacity="1" /><path clip-path="url(#clip390)" d="M201.783 506.745 L209.422 506.745 L209.422 480.379 L201.112 482.046 L201.112 477.787 L209.375 476.12 L214.051 476.12 L214.051 506.745 L221.69 506.745 L221.69 510.68 L201.783 510.68 L201.783 506.745 Z" fill="#000000" fill-rule="evenodd" fill-opacity="1" /><path clip-path="url(#clip390)" d="M164.515 287.489 Q160.903 287.489 159.075 291.053 Q157.269 294.595 157.269 301.725 Q157.269 308.831 159.075 312.396 Q160.903 315.938 164.515 315.938 Q168.149 315.938 169.954 312.396 Q171.783 308.831 171.783 301.725 Q171.783 294.595 169.954 291.053 Q168.149 287.489 164.515 287.489 M164.515 283.785 Q170.325 283.785 173.38 288.391 Q176.459 292.975 176.459 301.725 Q176.459 310.452 173.38 315.058 Q170.325 319.641 164.515 319.641 Q158.704 319.641 155.626 315.058 Q152.57 310.452 152.57 301.725 Q152.57 292.975 155.626 288.391 Q158.704 283.785 164.515 283.785 Z" fill="#000000" fill-rule="evenodd" fill-opacity="1" /><path clip-path="url(#clip390)" d="M184.676 313.09 L189.561 313.09 L189.561 318.97 L184.676 318.97 L184.676 313.09 Z" fill="#000000" fill-rule="evenodd" fill-opacity="1" /><path clip-path="url(#clip390)" d="M209.746 287.489 Q206.135 287.489 204.306 291.053 Q202.5 294.595 202.5 301.725 Q202.5 308.831 204.306 312.396 Q206.135 315.938 209.746 315.938 Q213.38 315.938 215.186 312.396 Q217.014 308.831 217.014 301.725 Q217.014 294.595 215.186 291.053 Q213.38 287.489 209.746 287.489 M209.746 283.785 Q215.556 283.785 218.611 288.391 Q221.69 292.975 221.69 301.725 Q221.69 310.452 218.611 315.058 Q215.556 319.641 209.746 319.641 Q203.936 319.641 200.857 315.058 Q197.801 310.452 197.801 301.725 Q197.801 292.975 200.857 288.391 Q203.936 283.785 209.746 283.785 Z" fill="#000000" fill-rule="evenodd" fill-opacity="1" /><path clip-path="url(#clip390)" d="M20.1444 773.66 L26.9239 773.66 Q23.9002 776.907 22.4043 780.599 Q20.9083 784.259 20.9083 788.397 Q20.9083 796.545 25.9054 800.874 Q30.8707 805.202 40.2919 805.202 Q49.6813 805.202 54.6784 800.874 Q59.6436 796.545 59.6436 788.397 Q59.6436 784.259 58.1477 780.599 Q56.6518 776.907 53.6281 773.66 L60.3439 773.66 Q62.6355 777.034 63.7814 780.822 Q64.9272 784.577 64.9272 788.779 Q64.9272 799.569 58.3387 805.775 Q51.7183 811.982 40.2919 811.982 Q28.8336 811.982 22.2451 805.775 Q15.6248 799.569 15.6248 788.779 Q15.6248 784.514 16.7706 780.758 Q17.8846 776.97 20.1444 773.66 Z" fill="#000000" fill-rule="evenodd" fill-opacity="1" /><path clip-path="url(#clip390)" d="M33.7671 740.527 L14.479 740.527 L14.479 734.67 L64.0042 734.67 L64.0042 740.527 L58.657 740.527 Q61.8398 742.373 63.3994 745.205 Q64.9272 748.006 64.9272 751.953 Q64.9272 758.414 59.771 762.488 Q54.6147 766.531 46.212 766.531 Q37.8093 766.531 32.6531 762.488 Q27.4968 758.414 27.4968 751.953 Q27.4968 748.006 29.0564 745.205 Q30.5842 742.373 33.7671 740.527 M46.212 760.483 Q52.6732 760.483 56.3653 757.841 Q60.0256 755.168 60.0256 750.521 Q60.0256 745.874 56.3653 743.2 Q52.6732 740.527 46.212 740.527 Q39.7508 740.527 36.0905 743.2 Q32.3984 745.874 32.3984 750.521 Q32.3984 755.168 36.0905 757.841 Q39.7508 760.483 46.212 760.483 Z" fill="#000000" fill-rule="evenodd" fill-opacity="1" /><path clip-path="url(#clip390)" d="M369.444 44.2197 Q372.077 45.1109 374.548 48.0275 Q377.06 50.9442 379.571 56.0483 L387.876 72.576 L379.085 72.576 L371.348 57.061 Q368.35 50.9847 365.515 48.9997 Q362.719 47.0148 357.858 47.0148 L348.946 47.0148 L348.946 72.576 L340.763 72.576 L340.763 12.096 L359.236 12.096 Q369.606 12.096 374.71 16.4305 Q379.814 20.7649 379.814 29.5149 Q379.814 35.2267 377.141 38.994 Q374.508 42.7613 369.444 44.2197 M348.946 18.8205 L348.946 40.2903 L359.236 40.2903 Q365.15 40.2903 368.148 37.5762 Q371.186 34.8216 371.186 29.5149 Q371.186 24.2082 368.148 21.5346 Q365.15 18.8205 359.236 18.8205 L348.946 18.8205 Z" fill="#000000" fill-rule="evenodd" fill-opacity="1" /><path clip-path="url(#clip390)" d="M433.165 48.0275 L433.165 51.6733 L398.894 51.6733 Q399.38 59.3701 403.512 63.421 Q407.684 67.4314 415.098 67.4314 Q419.392 67.4314 423.402 66.3781 Q427.453 65.3249 431.423 63.2184 L431.423 70.267 Q427.412 71.9684 423.199 72.8596 Q418.986 73.7508 414.652 73.7508 Q403.796 73.7508 397.436 67.4314 Q391.116 61.1119 391.116 50.3365 Q391.116 39.1965 397.112 32.6746 Q403.147 26.1121 413.356 26.1121 Q422.511 26.1121 427.817 32.0264 Q433.165 37.9003 433.165 48.0275 M425.711 45.84 Q425.63 39.7232 422.268 36.0774 Q418.946 32.4315 413.437 32.4315 Q407.198 32.4315 403.431 35.9558 Q399.704 39.4801 399.137 45.8805 L425.711 45.84 Z" fill="#000000" fill-rule="evenodd" fill-opacity="1" /><path clip-path="url(#clip390)" d="M446.371 34.9026 L498.303 34.9026 L498.303 41.7081 L446.371 41.7081 L446.371 34.9026 M446.371 51.4303 L498.303 51.4303 L498.303 58.3168 L446.371 58.3168 L446.371 51.4303 Z" fill="#000000" fill-rule="evenodd" fill-opacity="1" /><path clip-path="url(#clip390)" d="M517.383 65.6895 L530.751 65.6895 L530.751 19.5497 L516.208 22.4663 L516.208 15.0127 L530.67 12.096 L538.853 12.096 L538.853 65.6895 L552.221 65.6895 L552.221 72.576 L517.383 72.576 L517.383 65.6895 Z" fill="#000000" fill-rule="evenodd" fill-opacity="1" /><path clip-path="url(#clip390)" d="M586.248 17.4837 Q579.929 17.4837 576.729 23.7221 Q573.569 29.92 573.569 42.3968 Q573.569 54.833 576.729 61.0714 Q579.929 67.2693 586.248 67.2693 Q592.608 67.2693 595.768 61.0714 Q598.968 54.833 598.968 42.3968 Q598.968 29.92 595.768 23.7221 Q592.608 17.4837 586.248 17.4837 M586.248 11.0023 Q596.416 11.0023 601.763 19.0636 Q607.151 27.0843 607.151 42.3968 Q607.151 57.6687 601.763 65.73 Q596.416 73.7508 586.248 73.7508 Q576.081 73.7508 570.693 65.73 Q565.346 57.6687 565.346 42.3968 Q565.346 27.0843 570.693 19.0636 Q576.081 11.0023 586.248 11.0023 Z" fill="#000000" fill-rule="evenodd" fill-opacity="1" /><path clip-path="url(#clip390)" d="M639.032 17.4837 Q632.712 17.4837 629.512 23.7221 Q626.352 29.92 626.352 42.3968 Q626.352 54.833 629.512 61.0714 Q632.712 67.2693 639.032 67.2693 Q645.391 67.2693 648.551 61.0714 Q651.751 54.833 651.751 42.3968 Q651.751 29.92 648.551 23.7221 Q645.391 17.4837 639.032 17.4837 M639.032 11.0023 Q649.199 11.0023 654.547 19.0636 Q659.934 27.0843 659.934 42.3968 Q659.934 57.6687 654.547 65.73 Q649.199 73.7508 639.032 73.7508 Q628.864 73.7508 623.476 65.73 Q618.129 57.6687 618.129 42.3968 Q618.129 27.0843 623.476 19.0636 Q628.864 11.0023 639.032 11.0023 Z" fill="#000000" fill-rule="evenodd" fill-opacity="1" /><path clip-path="url(#clip390)" d="M691.815 17.4837 Q685.495 17.4837 682.295 23.7221 Q679.136 29.92 679.136 42.3968 Q679.136 54.833 682.295 61.0714 Q685.495 67.2693 691.815 67.2693 Q698.175 67.2693 701.334 61.0714 Q704.535 54.833 704.535 42.3968 Q704.535 29.92 701.334 23.7221 Q698.175 17.4837 691.815 17.4837 M691.815 11.0023 Q701.983 11.0023 707.33 19.0636 Q712.718 27.0843 712.718 42.3968 Q712.718 57.6687 707.33 65.73 Q701.983 73.7508 691.815 73.7508 Q681.647 73.7508 676.259 65.73 Q670.912 57.6687 670.912 42.3968 Q670.912 27.0843 676.259 19.0636 Q681.647 11.0023 691.815 11.0023 Z" fill="#000000" fill-rule="evenodd" fill-opacity="1" /><path clip-path="url(#clip390)" d="M744.598 17.4837 Q738.279 17.4837 735.079 23.7221 Q731.919 29.92 731.919 42.3968 Q731.919 54.833 735.079 61.0714 Q738.279 67.2693 744.598 67.2693 Q750.958 67.2693 754.118 61.0714 Q757.318 54.833 757.318 42.3968 Q757.318 29.92 754.118 23.7221 Q750.958 17.4837 744.598 17.4837 M744.598 11.0023 Q754.766 11.0023 760.113 19.0636 Q765.501 27.0843 765.501 42.3968 Q765.501 57.6687 760.113 65.73 Q754.766 73.7508 744.598 73.7508 Q734.43 73.7508 729.043 65.73 Q723.695 57.6687 723.695 42.3968 Q723.695 27.0843 729.043 19.0636 Q734.43 11.0023 744.598 11.0023 Z" fill="#000000" fill-rule="evenodd" fill-opacity="1" /><path clip-path="url(#clip390)" d="M779.882 62.2867 L788.429 62.2867 L788.429 72.576 L779.882 72.576 L779.882 62.2867 Z" fill="#000000" fill-rule="evenodd" fill-opacity="1" /><path clip-path="url(#clip390)" d="M823.753 17.4837 Q817.433 17.4837 814.233 23.7221 Q811.073 29.92 811.073 42.3968 Q811.073 54.833 814.233 61.0714 Q817.433 67.2693 823.753 67.2693 Q830.113 67.2693 833.272 61.0714 Q836.473 54.833 836.473 42.3968 Q836.473 29.92 833.272 23.7221 Q830.113 17.4837 823.753 17.4837 M823.753 11.0023 Q833.921 11.0023 839.268 19.0636 Q844.655 27.0843 844.655 42.3968 Q844.655 57.6687 839.268 65.73 Q833.921 73.7508 823.753 73.7508 Q813.585 73.7508 808.197 65.73 Q802.85 57.6687 802.85 42.3968 Q802.85 27.0843 808.197 19.0636 Q813.585 11.0023 823.753 11.0023 Z" fill="#000000" fill-rule="evenodd" fill-opacity="1" /><path clip-path="url(#clip390)" d="M904.973 49.7694 Q895.94 49.7694 892.456 51.8354 Q888.972 53.9013 888.972 58.8839 Q888.972 62.8538 891.565 65.2034 Q894.198 67.5124 898.695 67.5124 Q904.892 67.5124 908.619 63.1374 Q912.387 58.7219 912.387 51.4303 L912.387 49.7694 L904.973 49.7694 M919.84 46.6907 L919.84 72.576 L912.387 72.576 L912.387 65.6895 Q909.835 69.8214 906.027 71.8063 Q902.219 73.7508 896.71 73.7508 Q889.742 73.7508 885.61 69.8619 Q881.519 65.9325 881.519 59.3701 Q881.519 51.7138 886.623 47.825 Q891.767 43.9361 901.935 43.9361 L912.387 43.9361 L912.387 43.2069 Q912.387 38.0623 908.984 35.2672 Q905.622 32.4315 899.505 32.4315 Q895.616 32.4315 891.93 33.3632 Q888.243 34.295 884.84 36.1584 L884.84 29.2718 Q888.932 27.692 892.78 26.9223 Q896.629 26.1121 900.274 26.1121 Q910.118 26.1121 914.979 31.2163 Q919.84 36.3204 919.84 46.6907 Z" fill="#000000" fill-rule="evenodd" fill-opacity="1" /><path clip-path="url(#clip390)" d="M936.165 34.9026 L988.098 34.9026 L988.098 41.7081 L936.165 41.7081 L936.165 34.9026 M936.165 51.4303 L988.098 51.4303 L988.098 58.3168 L936.165 58.3168 L936.165 51.4303 Z" fill="#000000" fill-rule="evenodd" fill-opacity="1" /><path clip-path="url(#clip390)" d="M1023.26 17.4837 Q1016.94 17.4837 1013.74 23.7221 Q1010.58 29.92 1010.58 42.3968 Q1010.58 54.833 1013.74 61.0714 Q1016.94 67.2693 1023.26 67.2693 Q1029.62 67.2693 1032.78 61.0714 Q1035.98 54.833 1035.98 42.3968 Q1035.98 29.92 1032.78 23.7221 Q1029.62 17.4837 1023.26 17.4837 M1023.26 11.0023 Q1033.43 11.0023 1038.77 19.0636 Q1044.16 27.0843 1044.16 42.3968 Q1044.16 57.6687 1038.77 65.73 Q1033.43 73.7508 1023.26 73.7508 Q1013.09 73.7508 1007.7 65.73 Q1002.36 57.6687 1002.36 42.3968 Q1002.36 27.0843 1007.7 19.0636 Q1013.09 11.0023 1023.26 11.0023 Z" fill="#000000" fill-rule="evenodd" fill-opacity="1" /><path clip-path="url(#clip390)" d="M1058.54 62.2867 L1067.09 62.2867 L1067.09 72.576 L1058.54 72.576 L1058.54 62.2867 Z" fill="#000000" fill-rule="evenodd" fill-opacity="1" /><path clip-path="url(#clip390)" d="M1091.96 65.6895 L1120.52 65.6895 L1120.52 72.576 L1082.12 72.576 L1082.12 65.6895 Q1086.78 60.8689 1094.8 52.7671 Q1102.86 44.6248 1104.93 42.2752 Q1108.86 37.8598 1110.39 34.8216 Q1111.97 31.7429 1111.97 28.7857 Q1111.97 23.9651 1108.57 20.927 Q1105.21 17.8888 1099.78 17.8888 Q1095.93 17.8888 1091.64 19.2256 Q1087.39 20.5624 1082.52 23.2765 L1082.52 15.0127 Q1087.47 13.0277 1091.76 12.015 Q1096.05 11.0023 1099.62 11.0023 Q1109.02 11.0023 1114.61 15.7013 Q1120.2 20.4004 1120.2 28.2591 Q1120.2 31.9859 1118.78 35.3482 Q1117.4 38.6699 1113.72 43.2069 Q1112.7 44.3817 1107.28 50.0125 Q1101.85 55.6027 1091.96 65.6895 Z" fill="#000000" fill-rule="evenodd" fill-opacity="1" /><path clip-path="url(#clip390)" d="M1137.78 12.096 L1169.9 12.096 L1169.9 18.9825 L1145.27 18.9825 L1145.27 33.8088 Q1147.06 33.2012 1148.84 32.9176 Q1150.62 32.5936 1152.4 32.5936 Q1162.53 32.5936 1168.44 38.1433 Q1174.36 43.6931 1174.36 53.1722 Q1174.36 62.9348 1168.28 68.3631 Q1162.21 73.7508 1151.15 73.7508 Q1147.34 73.7508 1143.37 73.1026 Q1139.44 72.4545 1135.23 71.1582 L1135.23 62.9348 Q1138.87 64.9198 1142.76 65.892 Q1146.65 66.8642 1150.98 66.8642 Q1157.99 66.8642 1162.08 63.1779 Q1166.18 59.4916 1166.18 53.1722 Q1166.18 46.8528 1162.08 43.1664 Q1157.99 39.4801 1150.98 39.4801 Q1147.7 39.4801 1144.42 40.2093 Q1141.18 40.9384 1137.78 42.4778 L1137.78 12.096 Z" fill="#000000" fill-rule="evenodd" fill-opacity="1" /><path clip-path="url(#clip390)" d="M1238.77 9.54393 L1238.77 15.7418 L1231.64 15.7418 Q1227.63 15.7418 1226.05 17.3622 Q1224.51 18.9825 1224.51 23.1955 L1224.51 27.2059 L1236.78 27.2059 L1236.78 32.9987 L1224.51 32.9987 L1224.51 72.576 L1217.01 72.576 L1217.01 32.9987 L1209.88 32.9987 L1209.88 27.2059 L1217.01 27.2059 L1217.01 24.0462 Q1217.01 16.471 1220.54 13.0277 Q1224.06 9.54393 1231.72 9.54393 L1238.77 9.54393 Z" fill="#000000" fill-rule="evenodd" fill-opacity="1" /><path clip-path="url(#clip390)" d="M1245.98 34.9026 L1297.91 34.9026 L1297.91 41.7081 L1245.98 41.7081 L1245.98 34.9026 M1245.98 51.4303 L1297.91 51.4303 L1297.91 58.3168 L1245.98 58.3168 L1245.98 51.4303 Z" fill="#000000" fill-rule="evenodd" fill-opacity="1" /><path clip-path="url(#clip390)" d="M1333.07 17.4837 Q1326.75 17.4837 1323.55 23.7221 Q1320.39 29.92 1320.39 42.3968 Q1320.39 54.833 1323.55 61.0714 Q1326.75 67.2693 1333.07 67.2693 Q1339.43 67.2693 1342.59 61.0714 Q1345.79 54.833 1345.79 42.3968 Q1345.79 29.92 1342.59 23.7221 Q1339.43 17.4837 1333.07 17.4837 M1333.07 11.0023 Q1343.24 11.0023 1348.59 19.0636 Q1353.98 27.0843 1353.98 42.3968 Q1353.98 57.6687 1348.59 65.73 Q1343.24 73.7508 1333.07 73.7508 Q1322.91 73.7508 1317.52 65.73 Q1312.17 57.6687 1312.17 42.3968 Q1312.17 27.0843 1317.52 19.0636 Q1322.91 11.0023 1333.07 11.0023 Z" fill="#000000" fill-rule="evenodd" fill-opacity="1" /><path clip-path="url(#clip390)" d="M1368.36 62.2867 L1376.9 62.2867 L1376.9 72.576 L1368.36 72.576 L1368.36 62.2867 Z" fill="#000000" fill-rule="evenodd" fill-opacity="1" /><path clip-path="url(#clip390)" d="M1396.15 65.6895 L1409.51 65.6895 L1409.51 19.5497 L1394.97 22.4663 L1394.97 15.0127 L1409.43 12.096 L1417.62 12.096 L1417.62 65.6895 L1430.98 65.6895 L1430.98 72.576 L1396.15 72.576 L1396.15 65.6895 Z" fill="#000000" fill-rule="evenodd" fill-opacity="1" /><path clip-path="url(#clip390)" d="M1499.28 51.4708 L1497.5 42.1132 Q1495.68 32.5126 1488.47 32.5126 Q1483.04 32.5126 1480.57 36.9686 Q1477.45 42.5588 1477.45 49.9314 Q1477.45 58.8434 1480.49 63.0969 Q1483.56 67.4314 1488.47 67.4314 Q1493.89 67.4314 1496.81 58.8029 L1499.28 51.4708 M1503.45 39.075 L1507.46 27.2059 L1514.11 27.2059 L1505.8 51.7949 L1507.42 60.6663 Q1507.79 62.6513 1509.21 64.3122 Q1510.87 66.2566 1512.16 66.2566 L1515.73 66.2566 L1515.73 72.576 L1511.27 72.576 Q1507.46 72.576 1504.06 69.1732 Q1502.4 67.4719 1501.71 63.9071 Q1499.85 68.4036 1496.04 71.9279 Q1494.26 73.5887 1488.47 73.5887 Q1478.95 73.5887 1474.33 67.4314 Q1469.59 61.0714 1469.59 49.9314 Q1469.59 38.0218 1474.73 32.4315 Q1480.44 26.1931 1488.47 26.1931 Q1501.06 26.1931 1503.45 39.075 Z" fill="#000000" fill-rule="evenodd" fill-opacity="1" /><path clip-path="url(#clip390)" d="M1547.65 58.2358 L1547.65 72.576 L1542.95 72.576 L1542.95 57.3851 Q1542.95 53.6988 1541.49 51.9569 Q1540.03 50.1745 1537 50.1745 Q1533.39 50.1745 1531.28 52.362 Q1529.18 54.509 1529.18 58.2358 L1529.18 72.576 L1524.44 72.576 L1524.44 47.1768 L1529.18 47.1768 L1529.18 51.1062 Q1530.76 48.7972 1532.99 47.7034 Q1535.25 46.5692 1538.37 46.5692 Q1541.45 46.5692 1543.64 47.987 Q1545.83 49.3643 1546.88 52.0379 Q1548.62 49.2428 1551.05 47.906 Q1553.52 46.5692 1556.84 46.5692 Q1561.34 46.5692 1563.73 49.3643 Q1566.16 52.1189 1566.16 57.2231 L1566.16 72.576 L1561.46 72.576 L1561.46 57.3851 Q1561.46 53.7393 1560 51.9569 Q1558.55 50.1745 1555.55 50.1745 Q1551.9 50.1745 1549.76 52.362 Q1547.65 54.509 1547.65 58.2358 Z" fill="#000000" fill-rule="evenodd" fill-opacity="1" /><path clip-path="url(#clip390)" d="M1600.76 58.8434 L1600.76 60.8689 L1579.17 60.8689 Q1579.49 65.1628 1582.08 67.4314 Q1584.72 69.6999 1589.37 69.6999 Q1592.09 69.6999 1594.64 69.0922 Q1597.15 68.5251 1599.66 67.3503 L1599.66 71.2797 Q1597.15 72.2519 1594.48 72.738 Q1591.84 73.2241 1589.09 73.2241 Q1582.24 73.2241 1578.27 69.6999 Q1574.26 66.1756 1574.26 60.1397 Q1574.26 53.9013 1578.07 50.215 Q1581.84 46.5692 1588.28 46.5692 Q1594.03 46.5692 1597.39 49.8504 Q1600.76 53.1722 1600.76 58.8434 M1596.06 57.5877 Q1596.02 54.1849 1593.91 52.1189 Q1591.8 50.0935 1588.32 50.0935 Q1584.39 50.0935 1582.04 52.0784 Q1579.69 54.0229 1579.33 57.5877 L1596.06 57.5877 Z" fill="#000000" fill-rule="evenodd" fill-opacity="1" /><path clip-path="url(#clip390)" d="M1623.89 59.8157 Q1618.22 59.8157 1616.03 60.9499 Q1613.8 62.1247 1613.8 64.9198 Q1613.8 67.1478 1615.46 68.4441 Q1617.12 69.7404 1619.96 69.7404 Q1623.85 69.7404 1626.2 67.2693 Q1628.59 64.7983 1628.59 60.7474 L1628.59 59.8157 L1623.89 59.8157 M1633.24 58.0738 L1633.24 72.576 L1628.59 72.576 L1628.59 68.7276 Q1626.97 71.0367 1624.58 72.1304 Q1622.15 73.2241 1618.7 73.2241 Q1614.29 73.2241 1611.69 71.0367 Q1609.1 68.8492 1609.1 65.1628 Q1609.1 60.9094 1612.34 58.7219 Q1615.58 56.5344 1621.98 56.5344 L1628.59 56.5344 L1628.59 56.1293 Q1628.59 53.2532 1626.44 51.6733 Q1624.29 50.0935 1620.44 50.0935 Q1618.01 50.0935 1615.66 50.6201 Q1613.36 51.1467 1611.21 52.2 L1611.21 48.3111 Q1613.8 47.4604 1616.23 47.0148 Q1618.62 46.5692 1620.93 46.5692 Q1627.13 46.5692 1630.21 49.4048 Q1633.24 52.281 1633.24 58.0738 Z" fill="#000000" fill-rule="evenodd" fill-opacity="1" /><path clip-path="url(#clip390)" d="M1667.15 57.2231 L1667.15 72.576 L1662.45 72.576 L1662.45 57.3851 Q1662.45 53.7798 1660.87 51.9974 Q1659.29 50.1745 1656.13 50.1745 Q1652.32 50.1745 1650.14 52.362 Q1647.95 54.509 1647.95 58.2358 L1647.95 72.576 L1643.21 72.576 L1643.21 47.1768 L1647.95 47.1768 L1647.95 51.1062 Q1649.61 48.8377 1651.88 47.7034 Q1654.19 46.5692 1657.19 46.5692 Q1662.09 46.5692 1664.6 49.2833 Q1667.15 51.9974 1667.15 57.2231 Z" fill="#000000" fill-rule="evenodd" fill-opacity="1" /><path clip-path="url(#clip390)" d="M1680.32 34.9026 L1732.25 34.9026 L1732.25 41.7081 L1680.32 41.7081 L1680.32 34.9026 M1680.32 51.4303 L1732.25 51.4303 L1732.25 58.3168 L1680.32 58.3168 L1680.32 51.4303 Z" fill="#000000" fill-rule="evenodd" fill-opacity="1" /><path clip-path="url(#clip390)" d="M1772.39 19.2256 L1751.73 51.5113 L1772.39 51.5113 L1772.39 19.2256 M1770.25 12.096 L1780.54 12.096 L1780.54 51.5113 L1789.16 51.5113 L1789.16 58.3168 L1780.54 58.3168 L1780.54 72.576 L1772.39 72.576 L1772.39 58.3168 L1745.09 58.3168 L1745.09 50.4176 L1770.25 12.096 Z" fill="#000000" fill-rule="evenodd" fill-opacity="1" /><path clip-path="url(#clip390)" d="M1802.69 62.2867 L1811.24 62.2867 L1811.24 72.576 L1802.69 72.576 L1802.69 62.2867 Z" fill="#000000" fill-rule="evenodd" fill-opacity="1" /><path clip-path="url(#clip390)" d="M1846.57 17.4837 Q1840.25 17.4837 1837.05 23.7221 Q1833.89 29.92 1833.89 42.3968 Q1833.89 54.833 1837.05 61.0714 Q1840.25 67.2693 1846.57 67.2693 Q1852.93 67.2693 1856.09 61.0714 Q1859.29 54.833 1859.29 42.3968 Q1859.29 29.92 1856.09 23.7221 Q1852.93 17.4837 1846.57 17.4837 M1846.57 11.0023 Q1856.73 11.0023 1862.08 19.0636 Q1867.47 27.0843 1867.47 42.3968 Q1867.47 57.6687 1862.08 65.73 Q1856.73 73.7508 1846.57 73.7508 Q1836.4 73.7508 1831.01 65.73 Q1825.66 57.6687 1825.66 42.3968 Q1825.66 27.0843 1831.01 19.0636 Q1836.4 11.0023 1846.57 11.0023 Z" fill="#000000" fill-rule="evenodd" fill-opacity="1" /><path clip-path="url(#clip390)" d="M1933.62 51.4708 L1931.84 42.1132 Q1930.01 32.5126 1922.8 32.5126 Q1917.38 32.5126 1914.9 36.9686 Q1911.79 42.5588 1911.79 49.9314 Q1911.79 58.8434 1914.82 63.0969 Q1917.9 67.4314 1922.8 67.4314 Q1928.23 67.4314 1931.15 58.8029 L1933.62 51.4708 M1937.79 39.075 L1941.8 27.2059 L1948.45 27.2059 L1940.14 51.7949 L1941.76 60.6663 Q1942.13 62.6513 1943.54 64.3122 Q1945.21 66.2566 1946.5 66.2566 L1950.07 66.2566 L1950.07 72.576 L1945.61 72.576 Q1941.8 72.576 1938.4 69.1732 Q1936.74 67.4719 1936.05 63.9071 Q1934.19 68.4036 1930.38 71.9279 Q1928.6 73.5887 1922.8 73.5887 Q1913.28 73.5887 1908.67 67.4314 Q1903.93 61.0714 1903.93 49.9314 Q1903.93 38.0218 1909.07 32.4315 Q1914.78 26.1931 1922.8 26.1931 Q1935.4 26.1931 1937.79 39.075 Z" fill="#000000" fill-rule="evenodd" fill-opacity="1" /><path clip-path="url(#clip390)" d="M1971.94 59.8157 Q1966.27 59.8157 1964.08 60.9499 Q1961.85 62.1247 1961.85 64.9198 Q1961.85 67.1478 1963.52 68.4441 Q1965.18 69.7404 1968.01 69.7404 Q1971.9 69.7404 1974.25 67.2693 Q1976.64 64.7983 1976.64 60.7474 L1976.64 59.8157 L1971.94 59.8157 M1981.3 58.0738 L1981.3 72.576 L1976.64 72.576 L1976.64 68.7276 Q1975.02 71.0367 1972.63 72.1304 Q1970.2 73.2241 1966.76 73.2241 Q1962.34 73.2241 1959.75 71.0367 Q1957.16 68.8492 1957.16 65.1628 Q1957.16 60.9094 1960.4 58.7219 Q1963.64 56.5344 1970.04 56.5344 L1976.64 56.5344 L1976.64 56.1293 Q1976.64 53.2532 1974.49 51.6733 Q1972.35 50.0935 1968.5 50.0935 Q1966.07 50.0935 1963.72 50.6201 Q1961.41 51.1467 1959.26 52.2 L1959.26 48.3111 Q1961.85 47.4604 1964.28 47.0148 Q1966.67 46.5692 1968.98 46.5692 Q1975.18 46.5692 1978.26 49.4048 Q1981.3 52.281 1981.3 58.0738 Z" fill="#000000" fill-rule="evenodd" fill-opacity="1" /><path clip-path="url(#clip390)" d="M2014.48 58.2358 L2014.48 72.576 L2009.78 72.576 L2009.78 57.3851 Q2009.78 53.6988 2008.32 51.9569 Q2006.86 50.1745 2003.82 50.1745 Q2000.22 50.1745 1998.11 52.362 Q1996 54.509 1996 58.2358 L1996 72.576 L1991.26 72.576 L1991.26 47.1768 L1996 47.1768 L1996 51.1062 Q1997.58 48.7972 1999.81 47.7034 Q2002.08 46.5692 2005.2 46.5692 Q2008.28 46.5692 2010.47 47.987 Q2012.65 49.3643 2013.71 52.0379 Q2015.45 49.2428 2017.88 47.906 Q2020.35 46.5692 2023.67 46.5692 Q2028.17 46.5692 2030.56 49.3643 Q2032.99 52.1189 2032.99 57.2231 L2032.99 72.576 L2028.29 72.576 L2028.29 57.3851 Q2028.29 53.7393 2026.83 51.9569 Q2025.37 50.1745 2022.37 50.1745 Q2018.73 50.1745 2016.58 52.362 Q2014.48 54.509 2014.48 58.2358 Z" fill="#000000" fill-rule="evenodd" fill-opacity="1" /><path clip-path="url(#clip390)" d="M2047.69 68.7682 L2047.69 82.2577 L2042.95 82.2577 L2042.95 47.1768 L2047.69 47.1768 L2047.69 51.0252 Q2049.15 48.7567 2051.42 47.6629 Q2053.69 46.5692 2056.81 46.5692 Q2062.03 46.5692 2065.27 50.215 Q2068.51 53.9013 2068.51 59.8967 Q2068.51 65.892 2065.27 69.5783 Q2062.03 73.2241 2056.81 73.2241 Q2053.69 73.2241 2051.42 72.1304 Q2049.15 71.0367 2047.69 68.7682 M2061.55 67.1073 Q2063.65 64.5147 2063.65 59.8967 Q2063.65 55.2786 2061.55 52.6861 Q2059.4 50.053 2055.67 50.053 Q2051.95 50.053 2049.8 52.6861 Q2047.69 55.2786 2047.69 59.8967 Q2047.69 64.5147 2049.8 67.1073 Q2051.95 69.7404 2055.67 69.7404 Q2059.4 69.7404 2061.55 67.1073 Z" fill="#000000" fill-rule="evenodd" fill-opacity="1" /><path clip-path="url(#clip390)" d="M2082.53 34.9026 L2134.46 34.9026 L2134.46 41.7081 L2082.53 41.7081 L2082.53 34.9026 M2082.53 51.4303 L2134.46 51.4303 L2134.46 58.3168 L2082.53 58.3168 L2082.53 51.4303 Z" fill="#000000" fill-rule="evenodd" fill-opacity="1" /><path clip-path="url(#clip390)" d="M2174.61 19.2256 L2153.95 51.5113 L2174.61 51.5113 L2174.61 19.2256 M2172.46 12.096 L2182.75 12.096 L2182.75 51.5113 L2191.38 51.5113 L2191.38 58.3168 L2182.75 58.3168 L2182.75 72.576 L2174.61 72.576 L2174.61 58.3168 L2147.3 58.3168 L2147.3 50.4176 L2172.46 12.096 Z" fill="#000000" fill-rule="evenodd" fill-opacity="1" /><path clip-path="url(#clip390)" d="M2204.91 62.2867 L2213.46 62.2867 L2213.46 72.576 L2204.91 72.576 L2204.91 62.2867 Z" fill="#000000" fill-rule="evenodd" fill-opacity="1" /><path clip-path="url(#clip390)" d="M2248.78 17.4837 Q2242.46 17.4837 2239.26 23.7221 Q2236.1 29.92 2236.1 42.3968 Q2236.1 54.833 2239.26 61.0714 Q2242.46 67.2693 2248.78 67.2693 Q2255.14 67.2693 2258.3 61.0714 Q2261.5 54.833 2261.5 42.3968 Q2261.5 29.92 2258.3 23.7221 Q2255.14 17.4837 2248.78 17.4837 M2248.78 11.0023 Q2258.95 11.0023 2264.29 19.0636 Q2269.68 27.0843 2269.68 42.3968 Q2269.68 57.6687 2264.29 65.73 Q2258.95 73.7508 2248.78 73.7508 Q2238.61 73.7508 2233.22 65.73 Q2227.88 57.6687 2227.88 42.3968 Q2227.88 27.0843 2233.22 19.0636 Q2238.61 11.0023 2248.78 11.0023 Z" fill="#000000" fill-rule="evenodd" fill-opacity="1" /><polyline clip-path="url(#clip392)" style="stroke:#009af9; stroke-linecap:butt; stroke-linejoin:round; stroke-width:4; stroke-opacity:1; fill:none" points="
  316.984,301.69 323.595,471.079 330.205,589.972 336.815,604.791 343.426,646.667 350.036,527.188 356.646,426.003 363.256,342.656 369.867,324.384 376.477,355.799 
  383.087,393.654 389.698,456.876 396.308,543.191 402.918,653.785 409.529,735.248 416.139,616.006 422.749,412.891 429.359,332.684 435.97,321.11 442.58,378.176 
  449.19,436.446 455.801,480.446 462.411,566.006 469.021,680.305 475.631,755.809 482.242,636.1 488.852,426.082 495.462,323.052 502.073,316.329 508.683,409.653 
  515.293,474.476 521.903,514.576 528.514,576.19 535.124,694.055 541.734,779.132 548.345,667.706 554.955,439.514 561.565,311.572 568.176,311.754 574.786,441.852 
  581.396,507.033 588.006,546.795 594.617,581.713 601.227,702.89 607.837,796.998 614.448,700.085 621.058,448.528 627.668,296.902 634.278,306.374 640.889,472.022 
  647.499,523.09 654.109,558.451 660.72,593.79 667.33,703.869 673.94,804.09 680.55,649.03 687.161,431.299 693.771,288.181 700.381,302.097 706.992,488.557 
  713.602,539.571 720.212,574.528 726.823,595.413 733.433,724.038 740.043,820.642 746.653,724.994 753.264,440.074 759.874,278.083 766.484,300.859 773.095,512.487 
  779.705,556.98 786.315,579.234 792.925,617.345 799.536,756.138 806.146,825.022 812.756,751.144 819.367,443.333 825.977,265.1 832.587,295.772 839.197,535.873 
  845.808,571.833 852.418,591.963 859.028,639.62 865.639,763.444 872.249,834.473 878.859,775.074 885.47,435.37 892.08,252.414 898.69,292.105 905.3,552.256 
  911.911,574.624 918.521,592.133 925.131,648.05 931.742,778.463 938.352,831.78 944.962,784.287 951.572,416.365 958.183,247.226 964.793,289.803 971.403,559.956 
  978.014,615.023 984.624,582.449 991.234,652.178 997.844,799.743 1004.45,807.38 1011.07,794.282 1017.68,406.651 1024.29,233.412 1030.9,285.437 1037.51,582.068 
  1044.12,658.014 1050.73,573.071 1057.34,676.352 1063.95,790.8 1070.56,855.282 1077.17,736.998 1083.78,374.772 1090.39,227.587 1097,282.796 1103.61,623.582 
  1110.22,683.622 1116.83,564.132 1123.44,666.042 1130.05,805.44 1136.66,854.166 1143.27,742.162 1149.88,368.749 1156.49,218.853 1163.1,278.676 1169.71,652.637 
  1176.32,712.737 1182.93,550.424 1189.54,682.9 1196.15,773.36 1202.76,873.529 1209.37,735.111 1215.98,359.867 1222.59,212.279 1229.2,277.187 1235.81,674.269 
  1242.43,731.989 1249.04,536.647 1255.65,675.861 1262.26,793.735 1268.87,866.891 1275.48,735.501 1282.09,370.558 1288.7,202.806 1295.31,289.328 1301.92,700.084 
  1308.53,754.652 1315.14,612.811 1321.75,678.335 1328.36,743.101 1334.97,867.293 1341.58,732.826 1348.19,297.478 1354.8,196.424 1361.41,381.655 1368.02,712.965 
  1374.63,775.398 1381.24,603.244 1387.85,671.843 1394.46,761.747 1401.07,872.558 1407.68,738.75 1414.29,290.765 1420.9,190.763 1427.51,331.262 1434.12,740.154 
  1440.73,812.472 1447.34,680.97 1453.95,677.004 1460.56,802.469 1467.18,871.293 1473.79,740.256 1480.4,281.948 1487.01,181.72 1493.62,347.358 1500.23,770.794 
  1506.84,836.626 1513.45,675.99 1520.06,681.406 1526.67,827.924 1533.28,851.892 1539.89,751.677 1546.5,295.313 1553.11,180.261 1559.72,376.034 1566.33,842.225 
  1572.94,849.74 1579.55,665.394 1586.16,688.279 1592.77,886.87 1599.38,826.268 1605.99,754.197 1612.6,286.629 1619.21,170.814 1625.82,409.89 1632.43,957.421 
  1639.04,946.771 1645.65,742.669 1652.26,698.996 1658.87,941.039 1665.48,787.28 1672.09,722.551 1678.7,273.404 1685.31,165.481 1691.93,440.382 1698.54,971.32 
  1705.15,920.912 1711.76,737.687 1718.37,696.753 1724.98,987.1 1731.59,851.997 1738.2,795.173 1744.81,279.349 1751.42,163.259 1758.03,476.626 1764.64,984.132 
  1771.25,982.818 1777.86,796.487 1784.47,734.667 1791.08,1058.69 1797.69,907.535 1804.3,806.855 1810.91,262.728 1817.52,160.256 1824.13,510.75 1830.74,957.992 
  1837.35,1013.36 1843.96,787.591 1850.57,719.831 1857.18,1100.56 1863.79,992.852 1870.4,861.482 1877.01,269.817 1883.62,162.681 1890.23,543.237 1896.84,969.95 
  1903.45,1038.58 1910.06,794.206 1916.67,771.334 1923.29,1196.36 1929.9,1036.69 1936.51,858.812 1943.12,247.923 1949.73,160.421 1956.34,576.923 1962.95,970.642 
  1969.56,1035.91 1976.17,816.121 1982.78,766.09 1989.39,1231.92 1996,1138.55 2002.61,927.265 2009.22,252.956 2015.83,164.782 2022.44,611.057 2029.05,990.444 
  2035.66,1030.46 2042.27,820.562 2048.88,808.133 2055.49,1252.92 2062.1,1245.35 2068.71,937.956 2075.32,235.918 2081.93,164.182 2088.54,653.761 2095.15,1032.91 
  2101.76,1034.27 2108.37,829.438 2114.98,846.474 2121.59,1355.35 2128.2,1319.87 2134.81,934.66 2141.42,216.835 2148.04,163.897 2154.65,722.062 2161.26,1096.9 
  2167.87,1031.93 2174.48,812.925 2181.09,869.752 2187.7,1315.55 2194.31,1378.56 2200.92,935.562 2207.53,200.76 2214.14,169.236 2220.75,998.05 2227.36,1201.96 
  2233.97,1021.35 2240.58,825.342 2247.19,893.089 2253.8,1229.02 2260.41,1386.4 2267.02,905.277 2273.63,192.321 2280.24,174.55 2286.85,941.245 2293.46,1217.34 
  
  "/>
</svg>
